<?xml version="1.0" encoding="utf-8" standalone="no"?>
<!DOCTYPE svg PUBLIC "-//W3C//DTD SVG 1.1//EN"
  "http://www.w3.org/Graphics/SVG/1.1/DTD/svg11.dtd">
<!-- Created with matplotlib (https://matplotlib.org/) -->
<svg height="512.168487pt" version="1.1" viewBox="0 0 650.66 512.168487" width="650.66pt" xmlns="http://www.w3.org/2000/svg" xmlns:xlink="http://www.w3.org/1999/xlink">
 <metadata>
  <rdf:RDF xmlns:cc="http://creativecommons.org/ns#" xmlns:dc="http://purl.org/dc/elements/1.1/" xmlns:rdf="http://www.w3.org/1999/02/22-rdf-syntax-ns#">
   <cc:Work>
    <dc:type rdf:resource="http://purl.org/dc/dcmitype/StillImage"/>
    <dc:date>2021-01-02T09:00:17.592090</dc:date>
    <dc:format>image/svg+xml</dc:format>
    <dc:creator>
     <cc:Agent>
      <dc:title>Matplotlib v3.3.1, https://matplotlib.org/</dc:title>
     </cc:Agent>
    </dc:creator>
   </cc:Work>
  </rdf:RDF>
 </metadata>
 <defs>
  <style type="text/css">*{stroke-linecap:butt;stroke-linejoin:round;}</style>
 </defs>
 <g id="figure_1">
  <g id="patch_1">
   <path d="M 0 512.168487 
L 650.66 512.168487 
L 650.66 0 
L 0 0 
z
" style="fill:none;"/>
  </g>
  <g id="axes_1">
   <g id="patch_2">
    <path d="M 65.1 437.3688 
L 623.1 437.3688 
L 623.1 49.2888 
L 65.1 49.2888 
z
" style="fill:none;"/>
   </g>
   <g id="matplotlib.axis_1">
    <g id="xtick_1">
     <g id="line2d_1">
      <defs>
       <path d="M 0 0 
L 0 3.5 
" id="m1f6409e20d" style="stroke:#252627;stroke-width:0.8;"/>
      </defs>
      <g>
       <use style="fill:#252627;stroke:#252627;stroke-width:0.8;" x="65.1" xlink:href="#m1f6409e20d" y="437.3688"/>
      </g>
     </g>
    </g>
    <g id="xtick_2">
     <g id="line2d_2">
      <g>
       <use style="fill:#252627;stroke:#252627;stroke-width:0.8;" x="66.760714" xlink:href="#m1f6409e20d" y="437.3688"/>
      </g>
     </g>
     <g id="text_1">
      <!-- Feb -->
      <g style="fill:#252627;" transform="translate(52.598214 456.5263)scale(0.16 -0.16)">
       <defs>
        <path d="M 9.8125 72.90625 
L 51.703125 72.90625 
L 51.703125 64.59375 
L 19.671875 64.59375 
L 19.671875 43.109375 
L 48.578125 43.109375 
L 48.578125 34.8125 
L 19.671875 34.8125 
L 19.671875 0 
L 9.8125 0 
z
" id="DejaVuSans-70"/>
        <path d="M 56.203125 29.59375 
L 56.203125 25.203125 
L 14.890625 25.203125 
Q 15.484375 15.921875 20.484375 11.0625 
Q 25.484375 6.203125 34.421875 6.203125 
Q 39.59375 6.203125 44.453125 7.46875 
Q 49.3125 8.734375 54.109375 11.28125 
L 54.109375 2.78125 
Q 49.265625 0.734375 44.1875 -0.34375 
Q 39.109375 -1.421875 33.890625 -1.421875 
Q 20.796875 -1.421875 13.15625 6.1875 
Q 5.515625 13.8125 5.515625 26.8125 
Q 5.515625 40.234375 12.765625 48.109375 
Q 20.015625 56 32.328125 56 
Q 43.359375 56 49.78125 48.890625 
Q 56.203125 41.796875 56.203125 29.59375 
z
M 47.21875 32.234375 
Q 47.125 39.59375 43.09375 43.984375 
Q 39.0625 48.390625 32.421875 48.390625 
Q 24.90625 48.390625 20.390625 44.140625 
Q 15.875 39.890625 15.1875 32.171875 
z
" id="DejaVuSans-101"/>
        <path d="M 48.6875 27.296875 
Q 48.6875 37.203125 44.609375 42.84375 
Q 40.53125 48.484375 33.40625 48.484375 
Q 26.265625 48.484375 22.1875 42.84375 
Q 18.109375 37.203125 18.109375 27.296875 
Q 18.109375 17.390625 22.1875 11.75 
Q 26.265625 6.109375 33.40625 6.109375 
Q 40.53125 6.109375 44.609375 11.75 
Q 48.6875 17.390625 48.6875 27.296875 
z
M 18.109375 46.390625 
Q 20.953125 51.265625 25.265625 53.625 
Q 29.59375 56 35.59375 56 
Q 45.5625 56 51.78125 48.09375 
Q 58.015625 40.1875 58.015625 27.296875 
Q 58.015625 14.40625 51.78125 6.484375 
Q 45.5625 -1.421875 35.59375 -1.421875 
Q 29.59375 -1.421875 25.265625 0.953125 
Q 20.953125 3.328125 18.109375 8.203125 
L 18.109375 0 
L 9.078125 0 
L 9.078125 75.984375 
L 18.109375 75.984375 
z
" id="DejaVuSans-98"/>
       </defs>
       <use xlink:href="#DejaVuSans-70"/>
       <use x="52.019531" xlink:href="#DejaVuSans-101"/>
       <use x="113.542969" xlink:href="#DejaVuSans-98"/>
      </g>
     </g>
    </g>
    <g id="xtick_3">
     <g id="line2d_3">
      <g>
       <use style="fill:#252627;stroke:#252627;stroke-width:0.8;" x="114.921429" xlink:href="#m1f6409e20d" y="437.3688"/>
      </g>
     </g>
     <g id="text_2">
      <!-- Mar -->
      <g style="fill:#252627;" transform="translate(99.827679 456.5263)scale(0.16 -0.16)">
       <defs>
        <path d="M 9.8125 72.90625 
L 24.515625 72.90625 
L 43.109375 23.296875 
L 61.8125 72.90625 
L 76.515625 72.90625 
L 76.515625 0 
L 66.890625 0 
L 66.890625 64.015625 
L 48.09375 14.015625 
L 38.1875 14.015625 
L 19.390625 64.015625 
L 19.390625 0 
L 9.8125 0 
z
" id="DejaVuSans-77"/>
        <path d="M 34.28125 27.484375 
Q 23.390625 27.484375 19.1875 25 
Q 14.984375 22.515625 14.984375 16.5 
Q 14.984375 11.71875 18.140625 8.90625 
Q 21.296875 6.109375 26.703125 6.109375 
Q 34.1875 6.109375 38.703125 11.40625 
Q 43.21875 16.703125 43.21875 25.484375 
L 43.21875 27.484375 
z
M 52.203125 31.203125 
L 52.203125 0 
L 43.21875 0 
L 43.21875 8.296875 
Q 40.140625 3.328125 35.546875 0.953125 
Q 30.953125 -1.421875 24.3125 -1.421875 
Q 15.921875 -1.421875 10.953125 3.296875 
Q 6 8.015625 6 15.921875 
Q 6 25.140625 12.171875 29.828125 
Q 18.359375 34.515625 30.609375 34.515625 
L 43.21875 34.515625 
L 43.21875 35.40625 
Q 43.21875 41.609375 39.140625 45 
Q 35.0625 48.390625 27.6875 48.390625 
Q 23 48.390625 18.546875 47.265625 
Q 14.109375 46.140625 10.015625 43.890625 
L 10.015625 52.203125 
Q 14.9375 54.109375 19.578125 55.046875 
Q 24.21875 56 28.609375 56 
Q 40.484375 56 46.34375 49.84375 
Q 52.203125 43.703125 52.203125 31.203125 
z
" id="DejaVuSans-97"/>
        <path d="M 41.109375 46.296875 
Q 39.59375 47.171875 37.8125 47.578125 
Q 36.03125 48 33.890625 48 
Q 26.265625 48 22.1875 43.046875 
Q 18.109375 38.09375 18.109375 28.8125 
L 18.109375 0 
L 9.078125 0 
L 9.078125 54.6875 
L 18.109375 54.6875 
L 18.109375 46.1875 
Q 20.953125 51.171875 25.484375 53.578125 
Q 30.03125 56 36.53125 56 
Q 37.453125 56 38.578125 55.875 
Q 39.703125 55.765625 41.0625 55.515625 
z
" id="DejaVuSans-114"/>
       </defs>
       <use xlink:href="#DejaVuSans-77"/>
       <use x="86.279297" xlink:href="#DejaVuSans-97"/>
       <use x="147.558594" xlink:href="#DejaVuSans-114"/>
      </g>
     </g>
    </g>
    <g id="xtick_4">
     <g id="line2d_4">
      <g>
       <use style="fill:#252627;stroke:#252627;stroke-width:0.8;" x="166.403571" xlink:href="#m1f6409e20d" y="437.3688"/>
      </g>
     </g>
     <g id="text_3">
      <!-- Apr -->
      <g style="fill:#252627;" transform="translate(152.563571 456.5263)scale(0.16 -0.16)">
       <defs>
        <path d="M 34.1875 63.1875 
L 20.796875 26.90625 
L 47.609375 26.90625 
z
M 28.609375 72.90625 
L 39.796875 72.90625 
L 67.578125 0 
L 57.328125 0 
L 50.6875 18.703125 
L 17.828125 18.703125 
L 11.1875 0 
L 0.78125 0 
z
" id="DejaVuSans-65"/>
        <path d="M 18.109375 8.203125 
L 18.109375 -20.796875 
L 9.078125 -20.796875 
L 9.078125 54.6875 
L 18.109375 54.6875 
L 18.109375 46.390625 
Q 20.953125 51.265625 25.265625 53.625 
Q 29.59375 56 35.59375 56 
Q 45.5625 56 51.78125 48.09375 
Q 58.015625 40.1875 58.015625 27.296875 
Q 58.015625 14.40625 51.78125 6.484375 
Q 45.5625 -1.421875 35.59375 -1.421875 
Q 29.59375 -1.421875 25.265625 0.953125 
Q 20.953125 3.328125 18.109375 8.203125 
z
M 48.6875 27.296875 
Q 48.6875 37.203125 44.609375 42.84375 
Q 40.53125 48.484375 33.40625 48.484375 
Q 26.265625 48.484375 22.1875 42.84375 
Q 18.109375 37.203125 18.109375 27.296875 
Q 18.109375 17.390625 22.1875 11.75 
Q 26.265625 6.109375 33.40625 6.109375 
Q 40.53125 6.109375 44.609375 11.75 
Q 48.6875 17.390625 48.6875 27.296875 
z
" id="DejaVuSans-112"/>
       </defs>
       <use xlink:href="#DejaVuSans-65"/>
       <use x="68.408203" xlink:href="#DejaVuSans-112"/>
       <use x="131.884766" xlink:href="#DejaVuSans-114"/>
      </g>
     </g>
    </g>
    <g id="xtick_5">
     <g id="line2d_5">
      <g>
       <use style="fill:#252627;stroke:#252627;stroke-width:0.8;" x="216.225" xlink:href="#m1f6409e20d" y="437.3688"/>
      </g>
     </g>
     <g id="text_4">
      <!-- May -->
      <g style="fill:#252627;" transform="translate(199.685 456.5263)scale(0.16 -0.16)">
       <defs>
        <path d="M 32.171875 -5.078125 
Q 28.375 -14.84375 24.75 -17.8125 
Q 21.140625 -20.796875 15.09375 -20.796875 
L 7.90625 -20.796875 
L 7.90625 -13.28125 
L 13.1875 -13.28125 
Q 16.890625 -13.28125 18.9375 -11.515625 
Q 21 -9.765625 23.484375 -3.21875 
L 25.09375 0.875 
L 2.984375 54.6875 
L 12.5 54.6875 
L 29.59375 11.921875 
L 46.6875 54.6875 
L 56.203125 54.6875 
z
" id="DejaVuSans-121"/>
       </defs>
       <use xlink:href="#DejaVuSans-77"/>
       <use x="86.279297" xlink:href="#DejaVuSans-97"/>
       <use x="147.558594" xlink:href="#DejaVuSans-121"/>
      </g>
     </g>
    </g>
    <g id="xtick_6">
     <g id="line2d_6">
      <g>
       <use style="fill:#252627;stroke:#252627;stroke-width:0.8;" x="267.707143" xlink:href="#m1f6409e20d" y="437.3688"/>
      </g>
     </g>
     <g id="text_5">
      <!-- Jun -->
      <g style="fill:#252627;" transform="translate(255.207143 456.5263)scale(0.16 -0.16)">
       <defs>
        <path d="M 9.8125 72.90625 
L 19.671875 72.90625 
L 19.671875 5.078125 
Q 19.671875 -8.109375 14.671875 -14.0625 
Q 9.671875 -20.015625 -1.421875 -20.015625 
L -5.171875 -20.015625 
L -5.171875 -11.71875 
L -2.09375 -11.71875 
Q 4.4375 -11.71875 7.125 -8.046875 
Q 9.8125 -4.390625 9.8125 5.078125 
z
" id="DejaVuSans-74"/>
        <path d="M 8.5 21.578125 
L 8.5 54.6875 
L 17.484375 54.6875 
L 17.484375 21.921875 
Q 17.484375 14.15625 20.5 10.265625 
Q 23.53125 6.390625 29.59375 6.390625 
Q 36.859375 6.390625 41.078125 11.03125 
Q 45.3125 15.671875 45.3125 23.6875 
L 45.3125 54.6875 
L 54.296875 54.6875 
L 54.296875 0 
L 45.3125 0 
L 45.3125 8.40625 
Q 42.046875 3.421875 37.71875 1 
Q 33.40625 -1.421875 27.6875 -1.421875 
Q 18.265625 -1.421875 13.375 4.4375 
Q 8.5 10.296875 8.5 21.578125 
z
M 31.109375 56 
z
" id="DejaVuSans-117"/>
        <path d="M 54.890625 33.015625 
L 54.890625 0 
L 45.90625 0 
L 45.90625 32.71875 
Q 45.90625 40.484375 42.875 44.328125 
Q 39.84375 48.1875 33.796875 48.1875 
Q 26.515625 48.1875 22.3125 43.546875 
Q 18.109375 38.921875 18.109375 30.90625 
L 18.109375 0 
L 9.078125 0 
L 9.078125 54.6875 
L 18.109375 54.6875 
L 18.109375 46.1875 
Q 21.34375 51.125 25.703125 53.5625 
Q 30.078125 56 35.796875 56 
Q 45.21875 56 50.046875 50.171875 
Q 54.890625 44.34375 54.890625 33.015625 
z
" id="DejaVuSans-110"/>
       </defs>
       <use xlink:href="#DejaVuSans-74"/>
       <use x="29.492188" xlink:href="#DejaVuSans-117"/>
       <use x="92.871094" xlink:href="#DejaVuSans-110"/>
      </g>
     </g>
    </g>
    <g id="xtick_7">
     <g id="line2d_7">
      <g>
       <use style="fill:#252627;stroke:#252627;stroke-width:0.8;" x="317.528571" xlink:href="#m1f6409e20d" y="437.3688"/>
      </g>
     </g>
     <g id="text_6">
      <!-- Jul -->
      <g style="fill:#252627;" transform="translate(307.876071 456.5263)scale(0.16 -0.16)">
       <defs>
        <path d="M 9.421875 75.984375 
L 18.40625 75.984375 
L 18.40625 0 
L 9.421875 0 
z
" id="DejaVuSans-108"/>
       </defs>
       <use xlink:href="#DejaVuSans-74"/>
       <use x="29.492188" xlink:href="#DejaVuSans-117"/>
       <use x="92.871094" xlink:href="#DejaVuSans-108"/>
      </g>
     </g>
    </g>
    <g id="xtick_8">
     <g id="line2d_8">
      <g>
       <use style="fill:#252627;stroke:#252627;stroke-width:0.8;" x="369.010714" xlink:href="#m1f6409e20d" y="437.3688"/>
      </g>
     </g>
     <g id="text_7">
      <!-- Aug -->
      <g style="fill:#252627;" transform="translate(353.389464 456.5263)scale(0.16 -0.16)">
       <defs>
        <path d="M 45.40625 27.984375 
Q 45.40625 37.75 41.375 43.109375 
Q 37.359375 48.484375 30.078125 48.484375 
Q 22.859375 48.484375 18.828125 43.109375 
Q 14.796875 37.75 14.796875 27.984375 
Q 14.796875 18.265625 18.828125 12.890625 
Q 22.859375 7.515625 30.078125 7.515625 
Q 37.359375 7.515625 41.375 12.890625 
Q 45.40625 18.265625 45.40625 27.984375 
z
M 54.390625 6.78125 
Q 54.390625 -7.171875 48.1875 -13.984375 
Q 42 -20.796875 29.203125 -20.796875 
Q 24.46875 -20.796875 20.265625 -20.09375 
Q 16.0625 -19.390625 12.109375 -17.921875 
L 12.109375 -9.1875 
Q 16.0625 -11.328125 19.921875 -12.34375 
Q 23.78125 -13.375 27.78125 -13.375 
Q 36.625 -13.375 41.015625 -8.765625 
Q 45.40625 -4.15625 45.40625 5.171875 
L 45.40625 9.625 
Q 42.625 4.78125 38.28125 2.390625 
Q 33.9375 0 27.875 0 
Q 17.828125 0 11.671875 7.65625 
Q 5.515625 15.328125 5.515625 27.984375 
Q 5.515625 40.671875 11.671875 48.328125 
Q 17.828125 56 27.875 56 
Q 33.9375 56 38.28125 53.609375 
Q 42.625 51.21875 45.40625 46.390625 
L 45.40625 54.6875 
L 54.390625 54.6875 
z
" id="DejaVuSans-103"/>
       </defs>
       <use xlink:href="#DejaVuSans-65"/>
       <use x="68.408203" xlink:href="#DejaVuSans-117"/>
       <use x="131.787109" xlink:href="#DejaVuSans-103"/>
      </g>
     </g>
    </g>
    <g id="xtick_9">
     <g id="line2d_9">
      <g>
       <use style="fill:#252627;stroke:#252627;stroke-width:0.8;" x="420.492857" xlink:href="#m1f6409e20d" y="437.3688"/>
      </g>
     </g>
     <g id="text_8">
      <!-- Sep -->
      <g style="fill:#252627;" transform="translate(405.412857 456.5263)scale(0.16 -0.16)">
       <defs>
        <path d="M 53.515625 70.515625 
L 53.515625 60.890625 
Q 47.90625 63.578125 42.921875 64.890625 
Q 37.9375 66.21875 33.296875 66.21875 
Q 25.25 66.21875 20.875 63.09375 
Q 16.5 59.96875 16.5 54.203125 
Q 16.5 49.359375 19.40625 46.890625 
Q 22.3125 44.4375 30.421875 42.921875 
L 36.375 41.703125 
Q 47.40625 39.59375 52.65625 34.296875 
Q 57.90625 29 57.90625 20.125 
Q 57.90625 9.515625 50.796875 4.046875 
Q 43.703125 -1.421875 29.984375 -1.421875 
Q 24.8125 -1.421875 18.96875 -0.25 
Q 13.140625 0.921875 6.890625 3.21875 
L 6.890625 13.375 
Q 12.890625 10.015625 18.65625 8.296875 
Q 24.421875 6.59375 29.984375 6.59375 
Q 38.421875 6.59375 43.015625 9.90625 
Q 47.609375 13.234375 47.609375 19.390625 
Q 47.609375 24.75 44.3125 27.78125 
Q 41.015625 30.8125 33.5 32.328125 
L 27.484375 33.5 
Q 16.453125 35.6875 11.515625 40.375 
Q 6.59375 45.0625 6.59375 53.421875 
Q 6.59375 63.09375 13.40625 68.65625 
Q 20.21875 74.21875 32.171875 74.21875 
Q 37.3125 74.21875 42.625 73.28125 
Q 47.953125 72.359375 53.515625 70.515625 
z
" id="DejaVuSans-83"/>
       </defs>
       <use xlink:href="#DejaVuSans-83"/>
       <use x="63.476562" xlink:href="#DejaVuSans-101"/>
       <use x="125" xlink:href="#DejaVuSans-112"/>
      </g>
     </g>
    </g>
    <g id="xtick_10">
     <g id="line2d_10">
      <g>
       <use style="fill:#252627;stroke:#252627;stroke-width:0.8;" x="470.314286" xlink:href="#m1f6409e20d" y="437.3688"/>
      </g>
     </g>
     <g id="text_9">
      <!-- Oct -->
      <g style="fill:#252627;" transform="translate(456.481786 456.5263)scale(0.16 -0.16)">
       <defs>
        <path d="M 39.40625 66.21875 
Q 28.65625 66.21875 22.328125 58.203125 
Q 16.015625 50.203125 16.015625 36.375 
Q 16.015625 22.609375 22.328125 14.59375 
Q 28.65625 6.59375 39.40625 6.59375 
Q 50.140625 6.59375 56.421875 14.59375 
Q 62.703125 22.609375 62.703125 36.375 
Q 62.703125 50.203125 56.421875 58.203125 
Q 50.140625 66.21875 39.40625 66.21875 
z
M 39.40625 74.21875 
Q 54.734375 74.21875 63.90625 63.9375 
Q 73.09375 53.65625 73.09375 36.375 
Q 73.09375 19.140625 63.90625 8.859375 
Q 54.734375 -1.421875 39.40625 -1.421875 
Q 24.03125 -1.421875 14.8125 8.828125 
Q 5.609375 19.09375 5.609375 36.375 
Q 5.609375 53.65625 14.8125 63.9375 
Q 24.03125 74.21875 39.40625 74.21875 
z
" id="DejaVuSans-79"/>
        <path d="M 48.78125 52.59375 
L 48.78125 44.1875 
Q 44.96875 46.296875 41.140625 47.34375 
Q 37.3125 48.390625 33.40625 48.390625 
Q 24.65625 48.390625 19.8125 42.84375 
Q 14.984375 37.3125 14.984375 27.296875 
Q 14.984375 17.28125 19.8125 11.734375 
Q 24.65625 6.203125 33.40625 6.203125 
Q 37.3125 6.203125 41.140625 7.25 
Q 44.96875 8.296875 48.78125 10.40625 
L 48.78125 2.09375 
Q 45.015625 0.34375 40.984375 -0.53125 
Q 36.96875 -1.421875 32.421875 -1.421875 
Q 20.0625 -1.421875 12.78125 6.34375 
Q 5.515625 14.109375 5.515625 27.296875 
Q 5.515625 40.671875 12.859375 48.328125 
Q 20.21875 56 33.015625 56 
Q 37.15625 56 41.109375 55.140625 
Q 45.0625 54.296875 48.78125 52.59375 
z
" id="DejaVuSans-99"/>
        <path d="M 18.3125 70.21875 
L 18.3125 54.6875 
L 36.8125 54.6875 
L 36.8125 47.703125 
L 18.3125 47.703125 
L 18.3125 18.015625 
Q 18.3125 11.328125 20.140625 9.421875 
Q 21.96875 7.515625 27.59375 7.515625 
L 36.8125 7.515625 
L 36.8125 0 
L 27.59375 0 
Q 17.1875 0 13.234375 3.875 
Q 9.28125 7.765625 9.28125 18.015625 
L 9.28125 47.703125 
L 2.6875 47.703125 
L 2.6875 54.6875 
L 9.28125 54.6875 
L 9.28125 70.21875 
z
" id="DejaVuSans-116"/>
       </defs>
       <use xlink:href="#DejaVuSans-79"/>
       <use x="78.710938" xlink:href="#DejaVuSans-99"/>
       <use x="133.691406" xlink:href="#DejaVuSans-116"/>
      </g>
     </g>
    </g>
    <g id="xtick_11">
     <g id="line2d_11">
      <g>
       <use style="fill:#252627;stroke:#252627;stroke-width:0.8;" x="521.796429" xlink:href="#m1f6409e20d" y="437.3688"/>
      </g>
     </g>
     <g id="text_10">
      <!-- Nov -->
      <g style="fill:#252627;" transform="translate(506.181429 456.5263)scale(0.16 -0.16)">
       <defs>
        <path d="M 9.8125 72.90625 
L 23.09375 72.90625 
L 55.421875 11.921875 
L 55.421875 72.90625 
L 64.984375 72.90625 
L 64.984375 0 
L 51.703125 0 
L 19.390625 60.984375 
L 19.390625 0 
L 9.8125 0 
z
" id="DejaVuSans-78"/>
        <path d="M 30.609375 48.390625 
Q 23.390625 48.390625 19.1875 42.75 
Q 14.984375 37.109375 14.984375 27.296875 
Q 14.984375 17.484375 19.15625 11.84375 
Q 23.34375 6.203125 30.609375 6.203125 
Q 37.796875 6.203125 41.984375 11.859375 
Q 46.1875 17.53125 46.1875 27.296875 
Q 46.1875 37.015625 41.984375 42.703125 
Q 37.796875 48.390625 30.609375 48.390625 
z
M 30.609375 56 
Q 42.328125 56 49.015625 48.375 
Q 55.71875 40.765625 55.71875 27.296875 
Q 55.71875 13.875 49.015625 6.21875 
Q 42.328125 -1.421875 30.609375 -1.421875 
Q 18.84375 -1.421875 12.171875 6.21875 
Q 5.515625 13.875 5.515625 27.296875 
Q 5.515625 40.765625 12.171875 48.375 
Q 18.84375 56 30.609375 56 
z
" id="DejaVuSans-111"/>
        <path d="M 2.984375 54.6875 
L 12.5 54.6875 
L 29.59375 8.796875 
L 46.6875 54.6875 
L 56.203125 54.6875 
L 35.6875 0 
L 23.484375 0 
z
" id="DejaVuSans-118"/>
       </defs>
       <use xlink:href="#DejaVuSans-78"/>
       <use x="74.804688" xlink:href="#DejaVuSans-111"/>
       <use x="135.986328" xlink:href="#DejaVuSans-118"/>
      </g>
     </g>
    </g>
    <g id="xtick_12">
     <g id="line2d_12">
      <g>
       <use style="fill:#252627;stroke:#252627;stroke-width:0.8;" x="571.617857" xlink:href="#m1f6409e20d" y="437.3688"/>
      </g>
     </g>
     <g id="text_11">
      <!-- Dec -->
      <g style="fill:#252627;" transform="translate(556.136607 456.5263)scale(0.16 -0.16)">
       <defs>
        <path d="M 19.671875 64.796875 
L 19.671875 8.109375 
L 31.59375 8.109375 
Q 46.6875 8.109375 53.6875 14.9375 
Q 60.6875 21.78125 60.6875 36.53125 
Q 60.6875 51.171875 53.6875 57.984375 
Q 46.6875 64.796875 31.59375 64.796875 
z
M 9.8125 72.90625 
L 30.078125 72.90625 
Q 51.265625 72.90625 61.171875 64.09375 
Q 71.09375 55.28125 71.09375 36.53125 
Q 71.09375 17.671875 61.125 8.828125 
Q 51.171875 0 30.078125 0 
L 9.8125 0 
z
" id="DejaVuSans-68"/>
       </defs>
       <use xlink:href="#DejaVuSans-68"/>
       <use x="77.001953" xlink:href="#DejaVuSans-101"/>
       <use x="138.525391" xlink:href="#DejaVuSans-99"/>
      </g>
     </g>
    </g>
    <g id="xtick_13">
     <g id="line2d_13">
      <g>
       <use style="fill:#252627;stroke:#252627;stroke-width:0.8;" x="623.1" xlink:href="#m1f6409e20d" y="437.3688"/>
      </g>
     </g>
     <g id="text_12">
      <!-- Jan -->
      <g style="fill:#252627;" transform="translate(610.7675 456.5263)scale(0.16 -0.16)">
       <use xlink:href="#DejaVuSans-74"/>
       <use x="29.492188" xlink:href="#DejaVuSans-97"/>
       <use x="90.771484" xlink:href="#DejaVuSans-110"/>
      </g>
      <!-- 2021 -->
      <g style="fill:#252627;" transform="translate(602.74 474.4428)scale(0.16 -0.16)">
       <defs>
        <path d="M 19.1875 8.296875 
L 53.609375 8.296875 
L 53.609375 0 
L 7.328125 0 
L 7.328125 8.296875 
Q 12.9375 14.109375 22.625 23.890625 
Q 32.328125 33.6875 34.8125 36.53125 
Q 39.546875 41.84375 41.421875 45.53125 
Q 43.3125 49.21875 43.3125 52.78125 
Q 43.3125 58.59375 39.234375 62.25 
Q 35.15625 65.921875 28.609375 65.921875 
Q 23.96875 65.921875 18.8125 64.3125 
Q 13.671875 62.703125 7.8125 59.421875 
L 7.8125 69.390625 
Q 13.765625 71.78125 18.9375 73 
Q 24.125 74.21875 28.421875 74.21875 
Q 39.75 74.21875 46.484375 68.546875 
Q 53.21875 62.890625 53.21875 53.421875 
Q 53.21875 48.921875 51.53125 44.890625 
Q 49.859375 40.875 45.40625 35.40625 
Q 44.1875 33.984375 37.640625 27.21875 
Q 31.109375 20.453125 19.1875 8.296875 
z
" id="DejaVuSans-50"/>
        <path d="M 31.78125 66.40625 
Q 24.171875 66.40625 20.328125 58.90625 
Q 16.5 51.421875 16.5 36.375 
Q 16.5 21.390625 20.328125 13.890625 
Q 24.171875 6.390625 31.78125 6.390625 
Q 39.453125 6.390625 43.28125 13.890625 
Q 47.125 21.390625 47.125 36.375 
Q 47.125 51.421875 43.28125 58.90625 
Q 39.453125 66.40625 31.78125 66.40625 
z
M 31.78125 74.21875 
Q 44.046875 74.21875 50.515625 64.515625 
Q 56.984375 54.828125 56.984375 36.375 
Q 56.984375 17.96875 50.515625 8.265625 
Q 44.046875 -1.421875 31.78125 -1.421875 
Q 19.53125 -1.421875 13.0625 8.265625 
Q 6.59375 17.96875 6.59375 36.375 
Q 6.59375 54.828125 13.0625 64.515625 
Q 19.53125 74.21875 31.78125 74.21875 
z
" id="DejaVuSans-48"/>
        <path d="M 12.40625 8.296875 
L 28.515625 8.296875 
L 28.515625 63.921875 
L 10.984375 60.40625 
L 10.984375 69.390625 
L 28.421875 72.90625 
L 38.28125 72.90625 
L 38.28125 8.296875 
L 54.390625 8.296875 
L 54.390625 0 
L 12.40625 0 
z
" id="DejaVuSans-49"/>
       </defs>
       <use xlink:href="#DejaVuSans-50"/>
       <use x="63.623047" xlink:href="#DejaVuSans-48"/>
       <use x="127.246094" xlink:href="#DejaVuSans-50"/>
       <use x="190.869141" xlink:href="#DejaVuSans-49"/>
      </g>
     </g>
    </g>
    <g id="xtick_14">
     <g id="line2d_14">
      <defs>
       <path d="M 0 0 
L 0 2 
" id="m158f4d9f39" style="stroke:#252627;stroke-width:0.6;"/>
      </defs>
      <g>
       <use style="fill:#252627;stroke:#252627;stroke-width:0.6;" x="70.082143" xlink:href="#m158f4d9f39" y="437.3688"/>
      </g>
     </g>
    </g>
    <g id="xtick_15">
     <g id="line2d_15">
      <g>
       <use style="fill:#252627;stroke:#252627;stroke-width:0.6;" x="81.707143" xlink:href="#m158f4d9f39" y="437.3688"/>
      </g>
     </g>
    </g>
    <g id="xtick_16">
     <g id="line2d_16">
      <g>
       <use style="fill:#252627;stroke:#252627;stroke-width:0.6;" x="93.332143" xlink:href="#m158f4d9f39" y="437.3688"/>
      </g>
     </g>
    </g>
    <g id="xtick_17">
     <g id="line2d_17">
      <g>
       <use style="fill:#252627;stroke:#252627;stroke-width:0.6;" x="104.957143" xlink:href="#m158f4d9f39" y="437.3688"/>
      </g>
     </g>
    </g>
    <g id="xtick_18">
     <g id="line2d_18">
      <g>
       <use style="fill:#252627;stroke:#252627;stroke-width:0.6;" x="116.582143" xlink:href="#m158f4d9f39" y="437.3688"/>
      </g>
     </g>
    </g>
    <g id="xtick_19">
     <g id="line2d_19">
      <g>
       <use style="fill:#252627;stroke:#252627;stroke-width:0.6;" x="128.207143" xlink:href="#m158f4d9f39" y="437.3688"/>
      </g>
     </g>
    </g>
    <g id="xtick_20">
     <g id="line2d_20">
      <g>
       <use style="fill:#252627;stroke:#252627;stroke-width:0.6;" x="139.832143" xlink:href="#m158f4d9f39" y="437.3688"/>
      </g>
     </g>
    </g>
    <g id="xtick_21">
     <g id="line2d_21">
      <g>
       <use style="fill:#252627;stroke:#252627;stroke-width:0.6;" x="151.457143" xlink:href="#m158f4d9f39" y="437.3688"/>
      </g>
     </g>
    </g>
    <g id="xtick_22">
     <g id="line2d_22">
      <g>
       <use style="fill:#252627;stroke:#252627;stroke-width:0.6;" x="163.082143" xlink:href="#m158f4d9f39" y="437.3688"/>
      </g>
     </g>
    </g>
    <g id="xtick_23">
     <g id="line2d_23">
      <g>
       <use style="fill:#252627;stroke:#252627;stroke-width:0.6;" x="174.707143" xlink:href="#m158f4d9f39" y="437.3688"/>
      </g>
     </g>
    </g>
    <g id="xtick_24">
     <g id="line2d_24">
      <g>
       <use style="fill:#252627;stroke:#252627;stroke-width:0.6;" x="186.332143" xlink:href="#m158f4d9f39" y="437.3688"/>
      </g>
     </g>
    </g>
    <g id="xtick_25">
     <g id="line2d_25">
      <g>
       <use style="fill:#252627;stroke:#252627;stroke-width:0.6;" x="197.957143" xlink:href="#m158f4d9f39" y="437.3688"/>
      </g>
     </g>
    </g>
    <g id="xtick_26">
     <g id="line2d_26">
      <g>
       <use style="fill:#252627;stroke:#252627;stroke-width:0.6;" x="209.582143" xlink:href="#m158f4d9f39" y="437.3688"/>
      </g>
     </g>
    </g>
    <g id="xtick_27">
     <g id="line2d_27">
      <g>
       <use style="fill:#252627;stroke:#252627;stroke-width:0.6;" x="221.207143" xlink:href="#m158f4d9f39" y="437.3688"/>
      </g>
     </g>
    </g>
    <g id="xtick_28">
     <g id="line2d_28">
      <g>
       <use style="fill:#252627;stroke:#252627;stroke-width:0.6;" x="232.832143" xlink:href="#m158f4d9f39" y="437.3688"/>
      </g>
     </g>
    </g>
    <g id="xtick_29">
     <g id="line2d_29">
      <g>
       <use style="fill:#252627;stroke:#252627;stroke-width:0.6;" x="244.457143" xlink:href="#m158f4d9f39" y="437.3688"/>
      </g>
     </g>
    </g>
    <g id="xtick_30">
     <g id="line2d_30">
      <g>
       <use style="fill:#252627;stroke:#252627;stroke-width:0.6;" x="256.082143" xlink:href="#m158f4d9f39" y="437.3688"/>
      </g>
     </g>
    </g>
    <g id="xtick_31">
     <g id="line2d_31">
      <g>
       <use style="fill:#252627;stroke:#252627;stroke-width:0.6;" x="279.332143" xlink:href="#m158f4d9f39" y="437.3688"/>
      </g>
     </g>
    </g>
    <g id="xtick_32">
     <g id="line2d_32">
      <g>
       <use style="fill:#252627;stroke:#252627;stroke-width:0.6;" x="290.957143" xlink:href="#m158f4d9f39" y="437.3688"/>
      </g>
     </g>
    </g>
    <g id="xtick_33">
     <g id="line2d_33">
      <g>
       <use style="fill:#252627;stroke:#252627;stroke-width:0.6;" x="302.582143" xlink:href="#m158f4d9f39" y="437.3688"/>
      </g>
     </g>
    </g>
    <g id="xtick_34">
     <g id="line2d_34">
      <g>
       <use style="fill:#252627;stroke:#252627;stroke-width:0.6;" x="314.207143" xlink:href="#m158f4d9f39" y="437.3688"/>
      </g>
     </g>
    </g>
    <g id="xtick_35">
     <g id="line2d_35">
      <g>
       <use style="fill:#252627;stroke:#252627;stroke-width:0.6;" x="325.832143" xlink:href="#m158f4d9f39" y="437.3688"/>
      </g>
     </g>
    </g>
    <g id="xtick_36">
     <g id="line2d_36">
      <g>
       <use style="fill:#252627;stroke:#252627;stroke-width:0.6;" x="337.457143" xlink:href="#m158f4d9f39" y="437.3688"/>
      </g>
     </g>
    </g>
    <g id="xtick_37">
     <g id="line2d_37">
      <g>
       <use style="fill:#252627;stroke:#252627;stroke-width:0.6;" x="349.082143" xlink:href="#m158f4d9f39" y="437.3688"/>
      </g>
     </g>
    </g>
    <g id="xtick_38">
     <g id="line2d_38">
      <g>
       <use style="fill:#252627;stroke:#252627;stroke-width:0.6;" x="360.707143" xlink:href="#m158f4d9f39" y="437.3688"/>
      </g>
     </g>
    </g>
    <g id="xtick_39">
     <g id="line2d_39">
      <g>
       <use style="fill:#252627;stroke:#252627;stroke-width:0.6;" x="372.332143" xlink:href="#m158f4d9f39" y="437.3688"/>
      </g>
     </g>
    </g>
    <g id="xtick_40">
     <g id="line2d_40">
      <g>
       <use style="fill:#252627;stroke:#252627;stroke-width:0.6;" x="383.957143" xlink:href="#m158f4d9f39" y="437.3688"/>
      </g>
     </g>
    </g>
    <g id="xtick_41">
     <g id="line2d_41">
      <g>
       <use style="fill:#252627;stroke:#252627;stroke-width:0.6;" x="395.582143" xlink:href="#m158f4d9f39" y="437.3688"/>
      </g>
     </g>
    </g>
    <g id="xtick_42">
     <g id="line2d_42">
      <g>
       <use style="fill:#252627;stroke:#252627;stroke-width:0.6;" x="407.207143" xlink:href="#m158f4d9f39" y="437.3688"/>
      </g>
     </g>
    </g>
    <g id="xtick_43">
     <g id="line2d_43">
      <g>
       <use style="fill:#252627;stroke:#252627;stroke-width:0.6;" x="418.832143" xlink:href="#m158f4d9f39" y="437.3688"/>
      </g>
     </g>
    </g>
    <g id="xtick_44">
     <g id="line2d_44">
      <g>
       <use style="fill:#252627;stroke:#252627;stroke-width:0.6;" x="430.457143" xlink:href="#m158f4d9f39" y="437.3688"/>
      </g>
     </g>
    </g>
    <g id="xtick_45">
     <g id="line2d_45">
      <g>
       <use style="fill:#252627;stroke:#252627;stroke-width:0.6;" x="442.082143" xlink:href="#m158f4d9f39" y="437.3688"/>
      </g>
     </g>
    </g>
    <g id="xtick_46">
     <g id="line2d_46">
      <g>
       <use style="fill:#252627;stroke:#252627;stroke-width:0.6;" x="453.707143" xlink:href="#m158f4d9f39" y="437.3688"/>
      </g>
     </g>
    </g>
    <g id="xtick_47">
     <g id="line2d_47">
      <g>
       <use style="fill:#252627;stroke:#252627;stroke-width:0.6;" x="465.332143" xlink:href="#m158f4d9f39" y="437.3688"/>
      </g>
     </g>
    </g>
    <g id="xtick_48">
     <g id="line2d_48">
      <g>
       <use style="fill:#252627;stroke:#252627;stroke-width:0.6;" x="476.957143" xlink:href="#m158f4d9f39" y="437.3688"/>
      </g>
     </g>
    </g>
    <g id="xtick_49">
     <g id="line2d_49">
      <g>
       <use style="fill:#252627;stroke:#252627;stroke-width:0.6;" x="488.582143" xlink:href="#m158f4d9f39" y="437.3688"/>
      </g>
     </g>
    </g>
    <g id="xtick_50">
     <g id="line2d_50">
      <g>
       <use style="fill:#252627;stroke:#252627;stroke-width:0.6;" x="500.207143" xlink:href="#m158f4d9f39" y="437.3688"/>
      </g>
     </g>
    </g>
    <g id="xtick_51">
     <g id="line2d_51">
      <g>
       <use style="fill:#252627;stroke:#252627;stroke-width:0.6;" x="511.832143" xlink:href="#m158f4d9f39" y="437.3688"/>
      </g>
     </g>
    </g>
    <g id="xtick_52">
     <g id="line2d_52">
      <g>
       <use style="fill:#252627;stroke:#252627;stroke-width:0.6;" x="523.457143" xlink:href="#m158f4d9f39" y="437.3688"/>
      </g>
     </g>
    </g>
    <g id="xtick_53">
     <g id="line2d_53">
      <g>
       <use style="fill:#252627;stroke:#252627;stroke-width:0.6;" x="535.082143" xlink:href="#m158f4d9f39" y="437.3688"/>
      </g>
     </g>
    </g>
    <g id="xtick_54">
     <g id="line2d_54">
      <g>
       <use style="fill:#252627;stroke:#252627;stroke-width:0.6;" x="546.707143" xlink:href="#m158f4d9f39" y="437.3688"/>
      </g>
     </g>
    </g>
    <g id="xtick_55">
     <g id="line2d_55">
      <g>
       <use style="fill:#252627;stroke:#252627;stroke-width:0.6;" x="558.332143" xlink:href="#m158f4d9f39" y="437.3688"/>
      </g>
     </g>
    </g>
    <g id="xtick_56">
     <g id="line2d_56">
      <g>
       <use style="fill:#252627;stroke:#252627;stroke-width:0.6;" x="569.957143" xlink:href="#m158f4d9f39" y="437.3688"/>
      </g>
     </g>
    </g>
    <g id="xtick_57">
     <g id="line2d_57">
      <g>
       <use style="fill:#252627;stroke:#252627;stroke-width:0.6;" x="581.582143" xlink:href="#m158f4d9f39" y="437.3688"/>
      </g>
     </g>
    </g>
    <g id="xtick_58">
     <g id="line2d_58">
      <g>
       <use style="fill:#252627;stroke:#252627;stroke-width:0.6;" x="593.207143" xlink:href="#m158f4d9f39" y="437.3688"/>
      </g>
     </g>
    </g>
    <g id="xtick_59">
     <g id="line2d_59">
      <g>
       <use style="fill:#252627;stroke:#252627;stroke-width:0.6;" x="604.832143" xlink:href="#m158f4d9f39" y="437.3688"/>
      </g>
     </g>
    </g>
    <g id="xtick_60">
     <g id="line2d_60">
      <g>
       <use style="fill:#252627;stroke:#252627;stroke-width:0.6;" x="616.457143" xlink:href="#m158f4d9f39" y="437.3688"/>
      </g>
     </g>
    </g>
    <g id="text_13">
     <!-- date -->
     <g style="fill:#252627;" transform="translate(326.06 493.9278)scale(0.16 -0.16)">
      <defs>
       <path d="M 45.40625 46.390625 
L 45.40625 75.984375 
L 54.390625 75.984375 
L 54.390625 0 
L 45.40625 0 
L 45.40625 8.203125 
Q 42.578125 3.328125 38.25 0.953125 
Q 33.9375 -1.421875 27.875 -1.421875 
Q 17.96875 -1.421875 11.734375 6.484375 
Q 5.515625 14.40625 5.515625 27.296875 
Q 5.515625 40.1875 11.734375 48.09375 
Q 17.96875 56 27.875 56 
Q 33.9375 56 38.25 53.625 
Q 42.578125 51.265625 45.40625 46.390625 
z
M 14.796875 27.296875 
Q 14.796875 17.390625 18.875 11.75 
Q 22.953125 6.109375 30.078125 6.109375 
Q 37.203125 6.109375 41.296875 11.75 
Q 45.40625 17.390625 45.40625 27.296875 
Q 45.40625 37.203125 41.296875 42.84375 
Q 37.203125 48.484375 30.078125 48.484375 
Q 22.953125 48.484375 18.875 42.84375 
Q 14.796875 37.203125 14.796875 27.296875 
z
" id="DejaVuSans-100"/>
      </defs>
      <use xlink:href="#DejaVuSans-100"/>
      <use x="63.476562" xlink:href="#DejaVuSans-97"/>
      <use x="124.755859" xlink:href="#DejaVuSans-116"/>
      <use x="163.964844" xlink:href="#DejaVuSans-101"/>
     </g>
    </g>
   </g>
   <g id="matplotlib.axis_2">
    <g id="ytick_1">
     <g id="line2d_61">
      <defs>
       <path d="M 0 0 
L -3.5 0 
" id="md4b7032122" style="stroke:#252627;stroke-width:0.8;"/>
      </defs>
      <g>
       <use style="fill:#252627;stroke:#252627;stroke-width:0.8;" x="65.1" xlink:href="#md4b7032122" y="419.7288"/>
      </g>
     </g>
     <g id="text_14">
      <!-- 0 -->
      <g style="fill:#252627;" transform="translate(47.92 425.80755)scale(0.16 -0.16)">
       <use xlink:href="#DejaVuSans-48"/>
      </g>
     </g>
    </g>
    <g id="ytick_2">
     <g id="line2d_62">
      <g>
       <use style="fill:#252627;stroke:#252627;stroke-width:0.8;" x="65.1" xlink:href="#md4b7032122" y="342.971647"/>
      </g>
     </g>
     <g id="text_15">
      <!-- 10000 -->
      <g style="fill:#252627;" transform="translate(7.2 349.050397)scale(0.16 -0.16)">
       <use xlink:href="#DejaVuSans-49"/>
       <use x="63.623047" xlink:href="#DejaVuSans-48"/>
       <use x="127.246094" xlink:href="#DejaVuSans-48"/>
       <use x="190.869141" xlink:href="#DejaVuSans-48"/>
       <use x="254.492188" xlink:href="#DejaVuSans-48"/>
      </g>
     </g>
    </g>
    <g id="ytick_3">
     <g id="line2d_63">
      <g>
       <use style="fill:#252627;stroke:#252627;stroke-width:0.8;" x="65.1" xlink:href="#md4b7032122" y="266.214494"/>
      </g>
     </g>
     <g id="text_16">
      <!-- 20000 -->
      <g style="fill:#252627;" transform="translate(7.2 272.293244)scale(0.16 -0.16)">
       <use xlink:href="#DejaVuSans-50"/>
       <use x="63.623047" xlink:href="#DejaVuSans-48"/>
       <use x="127.246094" xlink:href="#DejaVuSans-48"/>
       <use x="190.869141" xlink:href="#DejaVuSans-48"/>
       <use x="254.492188" xlink:href="#DejaVuSans-48"/>
      </g>
     </g>
    </g>
    <g id="ytick_4">
     <g id="line2d_64">
      <g>
       <use style="fill:#252627;stroke:#252627;stroke-width:0.8;" x="65.1" xlink:href="#md4b7032122" y="189.457341"/>
      </g>
     </g>
     <g id="text_17">
      <!-- 30000 -->
      <g style="fill:#252627;" transform="translate(7.2 195.536091)scale(0.16 -0.16)">
       <defs>
        <path d="M 40.578125 39.3125 
Q 47.65625 37.796875 51.625 33 
Q 55.609375 28.21875 55.609375 21.1875 
Q 55.609375 10.40625 48.1875 4.484375 
Q 40.765625 -1.421875 27.09375 -1.421875 
Q 22.515625 -1.421875 17.65625 -0.515625 
Q 12.796875 0.390625 7.625 2.203125 
L 7.625 11.71875 
Q 11.71875 9.328125 16.59375 8.109375 
Q 21.484375 6.890625 26.8125 6.890625 
Q 36.078125 6.890625 40.9375 10.546875 
Q 45.796875 14.203125 45.796875 21.1875 
Q 45.796875 27.640625 41.28125 31.265625 
Q 36.765625 34.90625 28.71875 34.90625 
L 20.21875 34.90625 
L 20.21875 43.015625 
L 29.109375 43.015625 
Q 36.375 43.015625 40.234375 45.921875 
Q 44.09375 48.828125 44.09375 54.296875 
Q 44.09375 59.90625 40.109375 62.90625 
Q 36.140625 65.921875 28.71875 65.921875 
Q 24.65625 65.921875 20.015625 65.03125 
Q 15.375 64.15625 9.8125 62.3125 
L 9.8125 71.09375 
Q 15.4375 72.65625 20.34375 73.4375 
Q 25.25 74.21875 29.59375 74.21875 
Q 40.828125 74.21875 47.359375 69.109375 
Q 53.90625 64.015625 53.90625 55.328125 
Q 53.90625 49.265625 50.4375 45.09375 
Q 46.96875 40.921875 40.578125 39.3125 
z
" id="DejaVuSans-51"/>
       </defs>
       <use xlink:href="#DejaVuSans-51"/>
       <use x="63.623047" xlink:href="#DejaVuSans-48"/>
       <use x="127.246094" xlink:href="#DejaVuSans-48"/>
       <use x="190.869141" xlink:href="#DejaVuSans-48"/>
       <use x="254.492188" xlink:href="#DejaVuSans-48"/>
      </g>
     </g>
    </g>
    <g id="ytick_5">
     <g id="line2d_65">
      <g>
       <use style="fill:#252627;stroke:#252627;stroke-width:0.8;" x="65.1" xlink:href="#md4b7032122" y="112.700188"/>
      </g>
     </g>
     <g id="text_18">
      <!-- 40000 -->
      <g style="fill:#252627;" transform="translate(7.2 118.778938)scale(0.16 -0.16)">
       <defs>
        <path d="M 37.796875 64.3125 
L 12.890625 25.390625 
L 37.796875 25.390625 
z
M 35.203125 72.90625 
L 47.609375 72.90625 
L 47.609375 25.390625 
L 58.015625 25.390625 
L 58.015625 17.1875 
L 47.609375 17.1875 
L 47.609375 0 
L 37.796875 0 
L 37.796875 17.1875 
L 4.890625 17.1875 
L 4.890625 26.703125 
z
" id="DejaVuSans-52"/>
       </defs>
       <use xlink:href="#DejaVuSans-52"/>
       <use x="63.623047" xlink:href="#DejaVuSans-48"/>
       <use x="127.246094" xlink:href="#DejaVuSans-48"/>
       <use x="190.869141" xlink:href="#DejaVuSans-48"/>
       <use x="254.492188" xlink:href="#DejaVuSans-48"/>
      </g>
     </g>
    </g>
   </g>
   <g id="line2d_66">
    <path clip-path="url(#p2a6ea25bc4)" d="M 75.064286 419.727702 
L 114.921429 419.638887 
L 121.564286 419.461248 
L 126.546429 419.082942 
L 128.207143 418.683805 
L 131.528571 417.475433 
L 133.189286 417.515999 
L 134.85 414.430361 
L 136.510714 413.269141 
L 138.171429 411.916019 
L 139.832143 410.003669 
L 141.492857 408.705375 
L 143.153571 406.972859 
L 144.814286 402.52862 
L 146.475 403.085654 
L 148.135714 398.913358 
L 149.796429 396.734552 
L 151.457143 392.102803 
L 153.117857 388.875717 
L 154.778571 380.686819 
L 156.439286 376.061656 
L 158.1 370.04609 
L 159.760714 367.247739 
L 161.421429 363.430721 
L 163.082143 361.810048 
L 164.742857 358.281406 
L 166.403571 359.854928 
L 168.064286 360.210206 
L 169.725 361.086335 
L 171.385714 361.686139 
L 173.046429 363.217989 
L 176.367857 369.26755 
L 178.028571 371.369598 
L 179.689286 374.598887 
L 183.010714 379.311776 
L 186.332143 383.078357 
L 187.992857 386.176053 
L 189.653571 387.464476 
L 191.314286 384.940263 
L 192.975 384.019177 
L 194.635714 388.259465 
L 196.296429 384.811971 
L 197.957143 386.711166 
L 199.617857 385.03786 
L 201.278571 386.015961 
L 202.939286 388.942604 
L 204.6 406.404856 
L 206.260714 404.181094 
L 207.921429 409.903884 
L 209.582143 409.580407 
L 211.242857 412.497179 
L 212.903571 414.76371 
L 214.564286 419.278128 
L 216.225 406.322618 
L 217.885714 408.021139 
L 219.546429 408.947713 
L 221.207143 410.357849 
L 222.867857 410.346881 
L 224.528571 411.605698 
L 226.189286 410.943399 
L 227.85 411.350212 
L 229.510714 412.057468 
L 231.171429 412.180279 
L 232.832143 409.393994 
L 234.492857 410.187886 
L 237.814286 410.854575 
L 239.475 411.695619 
L 241.135714 411.9215 
L 242.796429 412.768024 
L 244.457143 415.156269 
L 247.778571 415.491805 
L 249.439286 415.894235 
L 251.1 414.639801 
L 252.760714 414.693531 
L 254.421429 414.165004 
L 256.082143 415.568562 
L 257.742857 415.099246 
L 259.403571 415.667249 
L 261.064286 414.389795 
L 262.725 415.627773 
L 264.385714 415.410665 
L 266.046429 415.663964 
L 267.707143 415.081699 
L 269.367857 415.701245 
L 271.028571 415.269209 
L 272.689286 416.708951 
L 276.010714 417.44582 
L 284.314286 417.484198 
L 285.975 417.282442 
L 290.957143 417.105901 
L 294.278571 417.093834 
L 295.939286 416.920586 
L 297.6 417.134408 
L 300.921429 417.158533 
L 305.903571 417.093834 
L 307.564286 417.296696 
L 312.546429 416.989667 
L 315.867857 416.96664 
L 320.85 416.833958 
L 322.510714 417.452405 
L 324.171429 417.782461 
L 325.832143 416.637682 
L 330.814286 416.490746 
L 332.475 416.041164 
L 335.796429 416.041164 
L 337.457143 415.162847 
L 339.117857 414.806471 
L 340.778571 414.266984 
L 342.439286 413.370015 
L 344.1 412.769121 
L 347.421429 412.769121 
L 349.082143 409.988317 
L 350.742857 409.229519 
L 352.403571 408.700992 
L 354.064286 407.325942 
L 355.725 406.388407 
L 359.046429 406.388407 
L 360.707143 404.43658 
L 362.367857 403.921209 
L 364.028571 403.182153 
L 365.689286 402.991358 
L 367.35 402.073557 
L 370.671429 402.073557 
L 372.332143 399.692988 
L 373.992857 395.381431 
L 375.653571 394.370432 
L 378.975 391.394442 
L 383.957143 391.300146 
L 385.617857 393.633563 
L 387.278571 393.393421 
L 388.939286 389.597235 
L 390.6 388.5314 
L 393.921429 388.5314 
L 395.582143 380.141843 
L 397.242857 378.516787 
L 398.903571 374.680027 
L 400.564286 375.240354 
L 402.225 372.313711 
L 405.546429 372.313711 
L 407.207143 368.900213 
L 408.867857 366.703861 
L 410.528571 366.018527 
L 412.189286 363.14672 
L 413.85 361.358278 
L 417.171429 361.358278 
L 418.832143 356.76381 
L 420.492857 355.669475 
L 422.153571 354.260429 
L 423.814286 355.026903 
L 425.475 354.262624 
L 428.796429 354.262624 
L 430.457143 350.986191 
L 432.117857 350.055235 
L 433.778571 349.742726 
L 437.1 345.891712 
L 440.421429 345.891712 
L 442.082143 344.966235 
L 443.742857 344.44758 
L 445.403571 341.895949 
L 447.064286 341.318075 
L 448.725 338.899135 
L 452.046429 338.899135 
L 453.707143 334.486689 
L 455.367857 332.993217 
L 457.028571 332.887952 
L 458.689286 333.58754 
L 460.35 335.908891 
L 463.671429 335.908891 
L 465.332143 335.51743 
L 466.992857 347.358863 
L 468.653571 336.795989 
L 470.314286 338.149103 
L 471.975 339.187519 
L 475.296429 339.187519 
L 476.957143 348.294211 
L 478.617857 335.138035 
L 480.278571 346.57594 
L 481.939286 343.281968 
L 483.6 341.677744 
L 486.921429 341.677744 
L 488.582143 336.879324 
L 490.242857 342.230395 
L 491.903571 340.608624 
L 493.564286 339.62723 
L 495.225 336.997745 
L 498.546429 336.997745 
L 500.207143 325.996258 
L 501.867857 318.589192 
L 503.528571 313.103244 
L 505.189286 304.69505 
L 506.85 299.579731 
L 510.171429 299.579731 
L 511.832143 283.90044 
L 513.492857 278.916705 
L 516.814286 273.010795 
L 518.475 266.712318 
L 521.796429 266.712318 
L 523.457143 263.608044 
L 525.117857 263.332808 
L 526.778571 257.546416 
L 528.439286 259.379814 
L 530.1 262.756039 
L 533.421429 262.756039 
L 535.082143 265.643198 
L 536.742857 286.114331 
L 538.403571 273.560154 
L 540.064286 276.188541 
L 541.725 277.444065 
L 545.046429 277.444065 
L 546.707143 292.919405 
L 548.367857 278.490158 
L 550.028571 301.707002 
L 551.689286 305.301432 
L 553.35 312.116369 
L 556.671429 312.116369 
L 558.332143 325.699092 
L 559.992857 326.719962 
L 561.653571 332.307883 
L 563.314286 336.632604 
L 564.975 341.350973 
L 568.296429 341.350973 
L 569.957143 347.82818 
L 571.617857 352.182505 
L 573.278571 353.159516 
L 576.6 357.841703 
L 579.921429 357.841703 
L 581.582143 360.361525 
L 583.242857 369.415584 
L 584.903571 368.930916 
L 586.564286 371.312583 
L 588.225 369.367334 
L 591.546429 369.367334 
L 593.207143 365.389119 
L 594.867857 354.064153 
L 596.528571 352.633177 
L 598.189286 348.054068 
L 599.85 346.632963 
L 603.171429 346.632963 
L 604.832143 345.861009 
L 606.492857 345.503535 
L 608.153571 344.069274 
L 609.814286 343.487018 
L 611.475 356.442527 
L 614.796429 356.442527 
L 616.457143 353.757125 
L 618.117857 349.990544 
L 619.778571 345.242561 
L 621.439286 339.337741 
L 623.1 339.337741 
L 623.1 339.337741 
" style="fill:none;stroke:#bb0a21;stroke-linecap:square;stroke-width:2;"/>
   </g>
   <g id="line2d_67">
    <path clip-path="url(#p2a6ea25bc4)" d="M 73.403571 419.718929 
L 116.582143 419.614762 
L 128.207143 419.184922 
L 129.867857 418.961228 
L 133.189286 418.08949 
L 141.492857 415.810892 
L 144.814286 414.527958 
L 148.135714 412.741704 
L 149.796429 411.704385 
L 154.778571 406.158135 
L 158.1 401.714994 
L 161.421429 398.281754 
L 163.082143 396.112819 
L 166.403571 391.278216 
L 169.725 387.40307 
L 171.385714 386.054339 
L 173.046429 385.223167 
L 176.367857 383.094806 
L 178.028571 382.887562 
L 179.689286 382.912777 
L 181.35 383.586052 
L 183.010714 384.090454 
L 184.671429 384.212168 
L 187.992857 386.678268 
L 189.653571 386.747349 
L 191.314286 386.268162 
L 192.975 385.585023 
L 194.635714 384.353623 
L 196.296429 384.001638 
L 197.957143 383.276828 
L 201.278571 382.364516 
L 202.939286 382.556408 
L 204.6 382.566279 
L 206.260714 383.632106 
L 207.921429 384.056458 
L 209.582143 384.234097 
L 212.903571 384.347045 
L 216.225 384.845967 
L 219.546429 385.975387 
L 221.207143 387.42391 
L 222.867857 388.562103 
L 224.528571 390.331908 
L 226.189286 391.640065 
L 227.85 393.480049 
L 229.510714 394.664297 
L 231.171429 395.382529 
L 232.832143 395.15664 
L 234.492857 395.47902 
L 236.153571 396.066765 
L 237.814286 397.331063 
L 239.475 397.913319 
L 241.135714 397.99885 
L 242.796429 398.542728 
L 244.457143 399.652422 
L 246.117857 400.021946 
L 247.778571 400.666706 
L 249.439286 400.736885 
L 254.421429 402.398132 
L 256.082143 403.455186 
L 257.742857 404.989231 
L 261.064286 406.87636 
L 262.725 407.460812 
L 264.385714 407.900523 
L 266.046429 408.213032 
L 269.367857 408.605591 
L 274.35 410.092484 
L 282.653571 411.725224 
L 284.314286 411.978523 
L 285.975 412.039929 
L 289.296429 411.839262 
L 292.617857 411.991679 
L 294.278571 412.196728 
L 297.6 412.259231 
L 300.921429 412.703325 
L 304.242857 413.07615 
L 307.564286 413.673758 
L 309.225 414.052064 
L 310.885714 414.087149 
L 314.207143 414.623352 
L 315.867857 415.147496 
L 319.189286 416.688119 
L 320.85 416.838348 
L 322.510714 416.848212 
L 324.171429 416.7254 
L 325.832143 417.011597 
L 327.492857 416.814223 
L 330.814286 415.486325 
L 332.475 415.4622 
L 337.457143 414.90297 
L 339.117857 414.183641 
L 340.778571 414.292198 
L 342.439286 414.287815 
L 344.1 414.109079 
L 347.421429 414.022451 
L 349.082143 413.968721 
L 350.742857 414.840467 
L 352.403571 414.813049 
L 355.725 414.578395 
L 359.046429 414.616774 
L 362.367857 414.386502 
L 364.028571 414.12443 
L 372.332143 413.650731 
L 377.314286 413.274621 
L 380.635714 413.260367 
L 382.296429 412.859035 
L 383.957143 412.995002 
L 385.617857 412.474151 
L 388.939286 412.126549 
L 390.6 411.511402 
L 392.260714 411.207658 
L 395.582143 411.316216 
L 397.242857 411.35679 
L 398.903571 411.584866 
L 400.564286 411.533331 
L 402.225 411.973035 
L 403.885714 411.655045 
L 405.546429 411.724127 
L 407.207143 411.44341 
L 408.867857 411.346919 
L 413.85 410.361134 
L 415.510714 410.60457 
L 417.171429 409.832608 
L 418.832143 409.352331 
L 420.492857 409.208687 
L 422.153571 408.805159 
L 423.814286 408.545283 
L 427.135714 407.012335 
L 428.796429 405.658116 
L 430.457143 403.973849 
L 435.439286 400.171077 
L 438.760714 396.615026 
L 440.421429 396.230143 
L 442.082143 396.587616 
L 443.742857 395.892411 
L 445.403571 394.438416 
L 447.064286 393.913174 
L 448.725 393.052396 
L 450.385714 392.038112 
L 452.046429 391.422957 
L 455.367857 387.503952 
L 457.028571 385.113519 
L 458.689286 381.567339 
L 460.35 378.772281 
L 462.010714 376.9948 
L 463.671429 375.019954 
L 465.332143 375.373037 
L 466.992857 372.938737 
L 468.653571 371.918965 
L 470.314286 371.606448 
L 471.975 371.479254 
L 473.635714 363.984463 
L 475.296429 345.052863 
L 476.957143 335.680815 
L 480.278571 319.828268 
L 481.939286 308.182012 
L 483.6 300.62253 
L 485.260714 298.111474 
L 486.921429 309.167797 
L 488.582143 307.62388 
L 490.242857 304.670925 
L 491.903571 298.554478 
L 493.564286 296.96889 
L 495.225 295.029129 
L 496.885714 293.920533 
L 498.546429 289.411603 
L 500.207143 284.127418 
L 501.867857 279.615195 
L 503.528571 271.98773 
L 505.189286 269.508473 
L 506.85 264.133278 
L 508.510714 256.62533 
L 510.171429 253.551759 
L 511.832143 251.281935 
L 513.492857 249.572446 
L 515.153571 251.757829 
L 516.814286 249.761053 
L 518.475 245.529539 
L 520.135714 246.751075 
L 521.796429 242.952694 
L 523.457143 245.072281 
L 525.117857 248.193012 
L 526.778571 247.653517 
L 528.439286 246.462683 
L 530.1 247.664485 
L 531.760714 244.3091 
L 533.421429 247.248899 
L 535.082143 244.584328 
L 536.742857 244.17532 
L 538.403571 246.594268 
L 540.064286 236.338415 
L 541.725 231.958874 
L 543.385714 229.878755 
L 545.046429 225.057309 
L 546.707143 225.037574 
L 548.367857 225.466317 
L 550.028571 229.145172 
L 551.689286 240.747568 
L 555.010714 256.095706 
L 558.332143 269.539176 
L 559.992857 279.09654 
L 561.653571 280.614136 
L 564.975 292.49176 
L 566.635714 296.910777 
L 568.296429 304.041517 
L 569.957143 307.371679 
L 571.617857 305.010852 
L 573.278571 307.230224 
L 574.939286 310.087785 
L 576.6 308.376101 
L 578.260714 308.718222 
L 579.921429 303.00749 
L 581.582143 300.435028 
L 583.242857 301.653272 
L 584.903571 301.217951 
L 586.564286 294.512661 
L 588.225 288.589204 
L 589.885714 282.037436 
L 591.546429 280.755592 
L 593.207143 274.611727 
L 594.867857 267.831875 
L 596.528571 258.329339 
L 598.189286 242.466928 
L 599.85 235.036836 
L 601.510714 228.792089 
L 603.171429 209.555657 
L 604.832143 195.147241 
L 606.492857 175.012742 
L 608.153571 159.56591 
L 609.814286 155.600858 
L 611.475 150.948277 
L 613.135714 142.681532 
L 614.796429 146.619174 
L 616.457143 137.909432 
L 618.117857 119.987735 
L 619.778571 108.088181 
L 621.439286 89.577641 
L 623.1 66.9288 
L 623.1 66.9288 
" style="fill:none;stroke:#4b88a2;stroke-linecap:square;stroke-width:2;"/>
   </g>
   <g id="line2d_68">
    <path clip-path="url(#p2a6ea25bc4)" d="M 131.528571 419.716741 
L 143.153571 419.581864 
L 146.475 419.502911 
L 149.796429 419.377912 
L 156.439286 419.349397 
L 158.1 419.289089 
L 159.760714 419.341721 
L 163.082143 419.120223 
L 171.385714 418.550033 
L 173.046429 418.161856 
L 176.367857 417.657454 
L 178.028571 416.418371 
L 179.689286 415.51593 
L 181.35 415.011528 
L 183.010714 414.134301 
L 184.671429 413.98517 
L 186.332143 411.808559 
L 187.992857 411.670397 
L 189.653571 411.907246 
L 191.314286 411.795403 
L 192.975 411.403942 
L 194.635714 411.425871 
L 196.296429 410.837029 
L 197.957143 412.556389 
L 199.617857 411.467535 
L 201.278571 411.203276 
L 202.939286 410.492719 
L 204.6 410.782209 
L 206.260714 407.764555 
L 207.921429 406.692143 
L 209.582143 406.160331 
L 211.242857 405.086828 
L 214.564286 402.116326 
L 216.225 399.101958 
L 217.885714 400.865185 
L 219.546429 399.540571 
L 221.207143 399.253284 
L 222.867857 397.799281 
L 224.528571 396.826661 
L 226.189286 396.098565 
L 227.85 396.276197 
L 229.510714 395.077695 
L 231.171429 396.286068 
L 232.832143 396.208213 
L 234.492857 396.8442 
L 239.475 394.894568 
L 241.135714 393.931819 
L 242.796429 392.352816 
L 244.457143 391.097284 
L 246.117857 389.657543 
L 247.778571 389.339545 
L 249.439286 388.845015 
L 251.1 389.899873 
L 252.760714 389.888912 
L 254.421429 389.370248 
L 256.082143 387.878964 
L 257.742857 386.539007 
L 259.403571 384.765917 
L 261.064286 383.532322 
L 264.385714 375.958578 
L 266.046429 370.914544 
L 267.707143 369.222593 
L 269.367857 366.641358 
L 271.028571 372.568108 
L 272.689286 374.311593 
L 274.35 376.838001 
L 276.010714 380.158292 
L 277.671429 384.597051 
L 279.332143 387.20899 
L 280.992857 391.689412 
L 282.653571 386.932664 
L 284.314286 385.089394 
L 285.975 389.697019 
L 287.635714 387.93928 
L 289.296429 383.300953 
L 292.617857 383.08274 
L 294.278571 384.546614 
L 295.939286 387.271493 
L 297.6 383.393061 
L 299.260714 386.187022 
L 300.921429 392.096225 
L 304.242857 393.79146 
L 305.903571 393.6522 
L 307.564286 393.177403 
L 310.885714 392.698224 
L 312.546429 392.882441 
L 314.207143 392.405449 
L 319.189286 394.067786 
L 322.510714 394.40881 
L 324.171429 394.180727 
L 325.832143 394.137965 
L 327.492857 393.340788 
L 329.153571 392.936171 
L 330.814286 392.925202 
L 334.135714 393.81778 
L 335.796429 393.841905 
L 337.457143 392.951522 
L 340.778571 392.490979 
L 342.439286 392.164209 
L 344.1 391.338524 
L 345.760714 390.35274 
L 347.421429 389.832987 
L 349.082143 389.510606 
L 354.064286 387.37018 
L 355.725 386.367946 
L 359.046429 395.198312 
L 360.707143 384.600344 
L 362.367857 383.633204 
L 364.028571 382.300915 
L 365.689286 387.285747 
L 367.35 385.154085 
L 369.010714 385.154085 
L 370.671429 361.734388 
L 372.332143 372.158009 
L 373.992857 370.511016 
L 375.653571 368.256551 
L 377.314286 359.720058 
L 378.975 357.903109 
L 380.635714 357.903109 
L 382.296429 365.807998 
L 383.957143 364.86608 
L 385.617857 365.132535 
L 387.278571 373.613102 
L 388.939286 372.417886 
L 390.6 362.247563 
L 392.260714 362.247563 
L 393.921429 367.33766 
L 395.582143 361.817723 
L 397.242857 362.914253 
L 398.903571 354.330608 
L 400.564286 354.084985 
L 402.225 364.06561 
L 403.885714 354.188062 
L 405.546429 354.558684 
L 407.207143 355.713334 
L 408.867857 355.093797 
L 410.528571 356.063124 
L 412.189286 359.465662 
L 413.85 359.487591 
L 415.510714 360.63237 
L 417.171429 360.297932 
L 420.492857 363.148907 
L 422.153571 365.179687 
L 423.814286 371.754482 
L 425.475 366.933035 
L 427.135714 368.315761 
L 428.796429 371.188674 
L 430.457143 372.785223 
L 432.117857 376.374165 
L 433.778571 376.897211 
L 435.439286 369.675461 
L 437.1 375.953098 
L 438.760714 376.062753 
L 440.421429 376.821551 
L 442.082143 376.260127 
L 443.742857 373.361999 
L 445.403571 373.860921 
L 447.064286 374.086802 
L 448.725 375.833579 
L 450.385714 376.150471 
L 452.046429 375.831384 
L 453.707143 376.661459 
L 455.367857 381.311845 
L 457.028571 377.483858 
L 458.689286 377.737157 
L 460.35 370.948532 
L 462.010714 377.872027 
L 465.332143 379.807405 
L 466.992857 376.066038 
L 468.653571 381.106796 
L 470.314286 384.492884 
L 471.975 393.726769 
L 473.635714 390.144398 
L 475.296429 396.238916 
L 476.957143 394.654433 
L 478.617857 396.389145 
L 480.278571 396.525113 
L 481.939286 396.884774 
L 483.6 397.450581 
L 485.260714 392.837476 
L 486.921429 389.237566 
L 488.582143 394.5064 
L 490.242857 393.439475 
L 491.903571 396.652307 
L 493.564286 393.326535 
L 495.225 396.563491 
L 496.885714 401.823551 
L 498.546429 401.989124 
L 500.207143 400.535129 
L 501.867857 401.19524 
L 503.528571 397.640287 
L 506.85 397.64906 
L 508.510714 397.03171 
L 510.171429 394.326565 
L 511.832143 397.754325 
L 513.492857 398.129337 
L 515.153571 399.575665 
L 516.814286 403.223817 
L 518.475 400.300467 
L 520.135714 401.017601 
L 521.796429 404.609836 
L 523.457143 404.609836 
L 525.117857 406.648284 
L 526.778571 398.576724 
L 528.439286 398.024072 
L 530.1 400.947422 
L 533.421429 400.531836 
L 535.082143 397.984596 
L 536.742857 396.675334 
L 538.403571 404.767733 
L 540.064286 405.162488 
L 541.725 402.716122 
L 543.385714 403.11965 
L 546.707143 403.633923 
L 548.367857 403.564841 
L 550.028571 403.829101 
L 551.689286 406.652674 
L 555.010714 402.808231 
L 556.671429 405.27433 
L 558.332143 405.847814 
L 559.992857 406.253537 
L 561.653571 406.013394 
L 564.975 406.098925 
L 566.635714 406.255724 
L 568.296429 403.885026 
L 569.957143 405.627413 
L 571.617857 405.421267 
L 573.278571 407.484936 
L 574.939286 403.679977 
L 576.6 407.965221 
L 579.921429 408.590239 
L 581.582143 407.248087 
L 583.242857 408.426854 
L 584.903571 405.456352 
L 586.564286 406.530953 
L 588.225 406.530953 
L 591.546429 410.676936 
L 593.207143 407.600072 
L 594.867857 406.331384 
L 596.528571 409.301886 
L 598.189286 408.384093 
L 599.85 408.384093 
L 601.510714 410.392935 
L 603.171429 403.329089 
L 604.832143 405.973918 
L 606.492857 406.192131 
L 608.153571 404.352147 
L 609.814286 408.000307 
L 611.475 403.801691 
L 613.135714 402.086713 
L 614.796429 409.150567 
L 616.457143 408.609981 
L 618.117857 408.288691 
L 619.778571 408.387386 
L 621.439286 403.298386 
L 623.1 407.497003 
L 623.1 407.497003 
" style="fill:none;stroke:#d3d4d9;stroke-linecap:square;stroke-width:2;"/>
   </g>
   <g id="patch_3">
    <path d="M 65.1 437.3688 
L 65.1 49.2888 
" style="fill:none;stroke:#000000;stroke-linecap:square;stroke-linejoin:miter;stroke-width:0.8;"/>
   </g>
   <g id="patch_4">
    <path d="M 623.1 437.3688 
L 623.1 49.2888 
" style="fill:none;stroke:#000000;stroke-linecap:square;stroke-linejoin:miter;stroke-width:0.8;"/>
   </g>
   <g id="patch_5">
    <path d="M 65.1 437.3688 
L 623.1 437.3688 
" style="fill:none;stroke:#000000;stroke-linecap:square;stroke-linejoin:miter;stroke-width:0.8;"/>
   </g>
   <g id="patch_6">
    <path d="M 65.1 49.2888 
L 623.1 49.2888 
" style="fill:none;stroke:#000000;stroke-linecap:square;stroke-linejoin:miter;stroke-width:0.8;"/>
   </g>
   <g id="text_19">
    <!-- Latest update:  -->
    <g style="fill:#252627;" transform="translate(47.1 491.690987)scale(0.1 -0.1)">
     <defs>
      <path d="M 9.8125 72.90625 
L 19.671875 72.90625 
L 19.671875 8.296875 
L 55.171875 8.296875 
L 55.171875 0 
L 9.8125 0 
z
" id="DejaVuSans-76"/>
      <path d="M 44.28125 53.078125 
L 44.28125 44.578125 
Q 40.484375 46.53125 36.375 47.5 
Q 32.28125 48.484375 27.875 48.484375 
Q 21.1875 48.484375 17.84375 46.4375 
Q 14.5 44.390625 14.5 40.28125 
Q 14.5 37.15625 16.890625 35.375 
Q 19.28125 33.59375 26.515625 31.984375 
L 29.59375 31.296875 
Q 39.15625 29.25 43.1875 25.515625 
Q 47.21875 21.78125 47.21875 15.09375 
Q 47.21875 7.46875 41.1875 3.015625 
Q 35.15625 -1.421875 24.609375 -1.421875 
Q 20.21875 -1.421875 15.453125 -0.5625 
Q 10.6875 0.296875 5.421875 2 
L 5.421875 11.28125 
Q 10.40625 8.6875 15.234375 7.390625 
Q 20.0625 6.109375 24.8125 6.109375 
Q 31.15625 6.109375 34.5625 8.28125 
Q 37.984375 10.453125 37.984375 14.40625 
Q 37.984375 18.0625 35.515625 20.015625 
Q 33.0625 21.96875 24.703125 23.78125 
L 21.578125 24.515625 
Q 13.234375 26.265625 9.515625 29.90625 
Q 5.8125 33.546875 5.8125 39.890625 
Q 5.8125 47.609375 11.28125 51.796875 
Q 16.75 56 26.8125 56 
Q 31.78125 56 36.171875 55.265625 
Q 40.578125 54.546875 44.28125 53.078125 
z
" id="DejaVuSans-115"/>
      <path id="DejaVuSans-32"/>
      <path d="M 11.71875 12.40625 
L 22.015625 12.40625 
L 22.015625 0 
L 11.71875 0 
z
M 11.71875 51.703125 
L 22.015625 51.703125 
L 22.015625 39.3125 
L 11.71875 39.3125 
z
" id="DejaVuSans-58"/>
     </defs>
     <use xlink:href="#DejaVuSans-76"/>
     <use x="55.712891" xlink:href="#DejaVuSans-97"/>
     <use x="116.992188" xlink:href="#DejaVuSans-116"/>
     <use x="156.201172" xlink:href="#DejaVuSans-101"/>
     <use x="217.724609" xlink:href="#DejaVuSans-115"/>
     <use x="269.824219" xlink:href="#DejaVuSans-116"/>
     <use x="309.033203" xlink:href="#DejaVuSans-32"/>
     <use x="340.820312" xlink:href="#DejaVuSans-117"/>
     <use x="404.199219" xlink:href="#DejaVuSans-112"/>
     <use x="467.675781" xlink:href="#DejaVuSans-100"/>
     <use x="531.152344" xlink:href="#DejaVuSans-97"/>
     <use x="592.431641" xlink:href="#DejaVuSans-116"/>
     <use x="631.640625" xlink:href="#DejaVuSans-101"/>
     <use x="693.164062" xlink:href="#DejaVuSans-58"/>
     <use x="726.855469" xlink:href="#DejaVuSans-32"/>
    </g>
    <!-- 2-1-2021 -->
    <g style="fill:#252627;" transform="translate(47.1 502.8888)scale(0.1 -0.1)">
     <defs>
      <path d="M 4.890625 31.390625 
L 31.203125 31.390625 
L 31.203125 23.390625 
L 4.890625 23.390625 
z
" id="DejaVuSans-45"/>
     </defs>
     <use xlink:href="#DejaVuSans-50"/>
     <use x="63.623047" xlink:href="#DejaVuSans-45"/>
     <use x="99.707031" xlink:href="#DejaVuSans-49"/>
     <use x="163.330078" xlink:href="#DejaVuSans-45"/>
     <use x="199.414062" xlink:href="#DejaVuSans-50"/>
     <use x="263.037109" xlink:href="#DejaVuSans-48"/>
     <use x="326.660156" xlink:href="#DejaVuSans-50"/>
     <use x="390.283203" xlink:href="#DejaVuSans-49"/>
    </g>
   </g>
   <g id="text_20">
    <!-- Daily new cases - Since beginning -->
    <g style="fill:#252627;" transform="translate(180.3705 21.789)scale(0.192 -0.192)">
     <defs>
      <path d="M 9.421875 54.6875 
L 18.40625 54.6875 
L 18.40625 0 
L 9.421875 0 
z
M 9.421875 75.984375 
L 18.40625 75.984375 
L 18.40625 64.59375 
L 9.421875 64.59375 
z
" id="DejaVuSans-105"/>
      <path d="M 4.203125 54.6875 
L 13.1875 54.6875 
L 24.421875 12.015625 
L 35.59375 54.6875 
L 46.1875 54.6875 
L 57.421875 12.015625 
L 68.609375 54.6875 
L 77.59375 54.6875 
L 63.28125 0 
L 52.6875 0 
L 40.921875 44.828125 
L 29.109375 0 
L 18.5 0 
z
" id="DejaVuSans-119"/>
     </defs>
     <use xlink:href="#DejaVuSans-68"/>
     <use x="77.001953" xlink:href="#DejaVuSans-97"/>
     <use x="138.28125" xlink:href="#DejaVuSans-105"/>
     <use x="166.064453" xlink:href="#DejaVuSans-108"/>
     <use x="193.847656" xlink:href="#DejaVuSans-121"/>
     <use x="253.027344" xlink:href="#DejaVuSans-32"/>
     <use x="284.814453" xlink:href="#DejaVuSans-110"/>
     <use x="348.193359" xlink:href="#DejaVuSans-101"/>
     <use x="409.716797" xlink:href="#DejaVuSans-119"/>
     <use x="491.503906" xlink:href="#DejaVuSans-32"/>
     <use x="523.291016" xlink:href="#DejaVuSans-99"/>
     <use x="578.271484" xlink:href="#DejaVuSans-97"/>
     <use x="639.550781" xlink:href="#DejaVuSans-115"/>
     <use x="691.650391" xlink:href="#DejaVuSans-101"/>
     <use x="753.173828" xlink:href="#DejaVuSans-115"/>
     <use x="805.273438" xlink:href="#DejaVuSans-32"/>
     <use x="837.060547" xlink:href="#DejaVuSans-45"/>
     <use x="873.144531" xlink:href="#DejaVuSans-32"/>
     <use x="904.931641" xlink:href="#DejaVuSans-83"/>
     <use x="968.408203" xlink:href="#DejaVuSans-105"/>
     <use x="996.191406" xlink:href="#DejaVuSans-110"/>
     <use x="1059.570312" xlink:href="#DejaVuSans-99"/>
     <use x="1114.550781" xlink:href="#DejaVuSans-101"/>
     <use x="1176.074219" xlink:href="#DejaVuSans-32"/>
     <use x="1207.861328" xlink:href="#DejaVuSans-98"/>
     <use x="1271.337891" xlink:href="#DejaVuSans-101"/>
     <use x="1332.861328" xlink:href="#DejaVuSans-103"/>
     <use x="1396.337891" xlink:href="#DejaVuSans-105"/>
     <use x="1424.121094" xlink:href="#DejaVuSans-110"/>
     <use x="1487.5" xlink:href="#DejaVuSans-110"/>
     <use x="1550.878906" xlink:href="#DejaVuSans-105"/>
     <use x="1578.662109" xlink:href="#DejaVuSans-110"/>
     <use x="1642.041016" xlink:href="#DejaVuSans-103"/>
    </g>
    <!-- 7-day rolling average -->
    <g style="fill:#252627;" transform="translate(241.68 43.2888)scale(0.192 -0.192)">
     <defs>
      <path d="M 8.203125 72.90625 
L 55.078125 72.90625 
L 55.078125 68.703125 
L 28.609375 0 
L 18.3125 0 
L 43.21875 64.59375 
L 8.203125 64.59375 
z
" id="DejaVuSans-55"/>
     </defs>
     <use xlink:href="#DejaVuSans-55"/>
     <use x="63.623047" xlink:href="#DejaVuSans-45"/>
     <use x="99.707031" xlink:href="#DejaVuSans-100"/>
     <use x="163.183594" xlink:href="#DejaVuSans-97"/>
     <use x="224.462891" xlink:href="#DejaVuSans-121"/>
     <use x="283.642578" xlink:href="#DejaVuSans-32"/>
     <use x="315.429688" xlink:href="#DejaVuSans-114"/>
     <use x="354.292969" xlink:href="#DejaVuSans-111"/>
     <use x="415.474609" xlink:href="#DejaVuSans-108"/>
     <use x="443.257812" xlink:href="#DejaVuSans-108"/>
     <use x="471.041016" xlink:href="#DejaVuSans-105"/>
     <use x="498.824219" xlink:href="#DejaVuSans-110"/>
     <use x="562.203125" xlink:href="#DejaVuSans-103"/>
     <use x="625.679688" xlink:href="#DejaVuSans-32"/>
     <use x="657.466797" xlink:href="#DejaVuSans-97"/>
     <use x="718.746094" xlink:href="#DejaVuSans-118"/>
     <use x="777.925781" xlink:href="#DejaVuSans-101"/>
     <use x="839.449219" xlink:href="#DejaVuSans-114"/>
     <use x="880.5625" xlink:href="#DejaVuSans-97"/>
     <use x="941.841797" xlink:href="#DejaVuSans-103"/>
     <use x="1005.318359" xlink:href="#DejaVuSans-101"/>
    </g>
   </g>
   <g id="legend_1">
    <g id="patch_7">
     <path d="M 526.2075 132.5438 
L 611.9 132.5438 
Q 615.1 132.5438 615.1 129.3438 
L 615.1 60.4888 
Q 615.1 57.2888 611.9 57.2888 
L 526.2075 57.2888 
Q 523.0075 57.2888 523.0075 60.4888 
L 523.0075 129.3438 
Q 523.0075 132.5438 526.2075 132.5438 
z
" style="fill:#ffffff;opacity:0.2;stroke:#cccccc;stroke-linejoin:miter;"/>
    </g>
    <g id="line2d_69">
     <path d="M 529.4075 70.2463 
L 561.4075 70.2463 
" style="fill:none;stroke:#bb0a21;stroke-linecap:square;stroke-width:2;"/>
    </g>
    <g id="line2d_70"/>
    <g id="text_21">
     <!-- ESP -->
     <g style="fill:#252627;" transform="translate(574.2075 75.8463)scale(0.16 -0.16)">
      <defs>
       <path d="M 9.8125 72.90625 
L 55.90625 72.90625 
L 55.90625 64.59375 
L 19.671875 64.59375 
L 19.671875 43.015625 
L 54.390625 43.015625 
L 54.390625 34.71875 
L 19.671875 34.71875 
L 19.671875 8.296875 
L 56.78125 8.296875 
L 56.78125 0 
L 9.8125 0 
z
" id="DejaVuSans-69"/>
       <path d="M 19.671875 64.796875 
L 19.671875 37.40625 
L 32.078125 37.40625 
Q 38.96875 37.40625 42.71875 40.96875 
Q 46.484375 44.53125 46.484375 51.125 
Q 46.484375 57.671875 42.71875 61.234375 
Q 38.96875 64.796875 32.078125 64.796875 
z
M 9.8125 72.90625 
L 32.078125 72.90625 
Q 44.34375 72.90625 50.609375 67.359375 
Q 56.890625 61.8125 56.890625 51.125 
Q 56.890625 40.328125 50.609375 34.8125 
Q 44.34375 29.296875 32.078125 29.296875 
L 19.671875 29.296875 
L 19.671875 0 
L 9.8125 0 
z
" id="DejaVuSans-80"/>
      </defs>
      <use xlink:href="#DejaVuSans-69"/>
      <use x="63.183594" xlink:href="#DejaVuSans-83"/>
      <use x="126.660156" xlink:href="#DejaVuSans-80"/>
     </g>
    </g>
    <g id="line2d_71">
     <path d="M 529.4075 93.7313 
L 561.4075 93.7313 
" style="fill:none;stroke:#4b88a2;stroke-linecap:square;stroke-width:2;"/>
    </g>
    <g id="line2d_72"/>
    <g id="text_22">
     <!-- GBR -->
     <g style="fill:#252627;" transform="translate(574.2075 99.3313)scale(0.16 -0.16)">
      <defs>
       <path d="M 59.515625 10.40625 
L 59.515625 29.984375 
L 43.40625 29.984375 
L 43.40625 38.09375 
L 69.28125 38.09375 
L 69.28125 6.78125 
Q 63.578125 2.734375 56.6875 0.65625 
Q 49.8125 -1.421875 42 -1.421875 
Q 24.90625 -1.421875 15.25 8.5625 
Q 5.609375 18.5625 5.609375 36.375 
Q 5.609375 54.25 15.25 64.234375 
Q 24.90625 74.21875 42 74.21875 
Q 49.125 74.21875 55.546875 72.453125 
Q 61.96875 70.703125 67.390625 67.28125 
L 67.390625 56.78125 
Q 61.921875 61.421875 55.765625 63.765625 
Q 49.609375 66.109375 42.828125 66.109375 
Q 29.4375 66.109375 22.71875 58.640625 
Q 16.015625 51.171875 16.015625 36.375 
Q 16.015625 21.625 22.71875 14.15625 
Q 29.4375 6.6875 42.828125 6.6875 
Q 48.046875 6.6875 52.140625 7.59375 
Q 56.25 8.5 59.515625 10.40625 
z
" id="DejaVuSans-71"/>
       <path d="M 19.671875 34.8125 
L 19.671875 8.109375 
L 35.5 8.109375 
Q 43.453125 8.109375 47.28125 11.40625 
Q 51.125 14.703125 51.125 21.484375 
Q 51.125 28.328125 47.28125 31.5625 
Q 43.453125 34.8125 35.5 34.8125 
z
M 19.671875 64.796875 
L 19.671875 42.828125 
L 34.28125 42.828125 
Q 41.5 42.828125 45.03125 45.53125 
Q 48.578125 48.25 48.578125 53.8125 
Q 48.578125 59.328125 45.03125 62.0625 
Q 41.5 64.796875 34.28125 64.796875 
z
M 9.8125 72.90625 
L 35.015625 72.90625 
Q 46.296875 72.90625 52.390625 68.21875 
Q 58.5 63.53125 58.5 54.890625 
Q 58.5 48.1875 55.375 44.234375 
Q 52.25 40.28125 46.1875 39.3125 
Q 53.46875 37.75 57.5 32.78125 
Q 61.53125 27.828125 61.53125 20.40625 
Q 61.53125 10.640625 54.890625 5.3125 
Q 48.25 0 35.984375 0 
L 9.8125 0 
z
" id="DejaVuSans-66"/>
       <path d="M 44.390625 34.1875 
Q 47.5625 33.109375 50.5625 29.59375 
Q 53.5625 26.078125 56.59375 19.921875 
L 66.609375 0 
L 56 0 
L 46.6875 18.703125 
Q 43.0625 26.03125 39.671875 28.421875 
Q 36.28125 30.8125 30.421875 30.8125 
L 19.671875 30.8125 
L 19.671875 0 
L 9.8125 0 
L 9.8125 72.90625 
L 32.078125 72.90625 
Q 44.578125 72.90625 50.734375 67.671875 
Q 56.890625 62.453125 56.890625 51.90625 
Q 56.890625 45.015625 53.6875 40.46875 
Q 50.484375 35.9375 44.390625 34.1875 
z
M 19.671875 64.796875 
L 19.671875 38.921875 
L 32.078125 38.921875 
Q 39.203125 38.921875 42.84375 42.21875 
Q 46.484375 45.515625 46.484375 51.90625 
Q 46.484375 58.296875 42.84375 61.546875 
Q 39.203125 64.796875 32.078125 64.796875 
z
" id="DejaVuSans-82"/>
      </defs>
      <use xlink:href="#DejaVuSans-71"/>
      <use x="77.490234" xlink:href="#DejaVuSans-66"/>
      <use x="146.09375" xlink:href="#DejaVuSans-82"/>
     </g>
    </g>
    <g id="line2d_73">
     <path d="M 529.4075 117.2163 
L 561.4075 117.2163 
" style="fill:none;stroke:#d3d4d9;stroke-linecap:square;stroke-width:2;"/>
    </g>
    <g id="line2d_74"/>
    <g id="text_23">
     <!-- PER -->
     <g style="fill:#252627;" transform="translate(574.2075 122.8163)scale(0.16 -0.16)">
      <use xlink:href="#DejaVuSans-80"/>
      <use x="60.302734" xlink:href="#DejaVuSans-69"/>
      <use x="123.486328" xlink:href="#DejaVuSans-82"/>
     </g>
    </g>
   </g>
  </g>
 </g>
 <defs>
  <clipPath id="p2a6ea25bc4">
   <rect height="388.08" width="558" x="65.1" y="49.2888"/>
  </clipPath>
 </defs>
</svg>
