<?xml version="1.0" encoding="utf-8" standalone="no"?>
<!DOCTYPE svg PUBLIC "-//W3C//DTD SVG 1.1//EN"
  "http://www.w3.org/Graphics/SVG/1.1/DTD/svg11.dtd">
<!-- Created with matplotlib (https://matplotlib.org/) -->
<svg height="512.168487pt" version="1.1" viewBox="0 0 645.721947 512.168487" width="645.721947pt" xmlns="http://www.w3.org/2000/svg" xmlns:xlink="http://www.w3.org/1999/xlink">
 <metadata>
  <rdf:RDF xmlns:cc="http://creativecommons.org/ns#" xmlns:dc="http://purl.org/dc/elements/1.1/" xmlns:rdf="http://www.w3.org/1999/02/22-rdf-syntax-ns#">
   <cc:Work>
    <dc:type rdf:resource="http://purl.org/dc/dcmitype/StillImage"/>
    <dc:date>2021-01-05T09:00:16.864951</dc:date>
    <dc:format>image/svg+xml</dc:format>
    <dc:creator>
     <cc:Agent>
      <dc:title>Matplotlib v3.3.1, https://matplotlib.org/</dc:title>
     </cc:Agent>
    </dc:creator>
   </cc:Work>
  </rdf:RDF>
 </metadata>
 <defs>
  <style type="text/css">*{stroke-linecap:butt;stroke-linejoin:round;}</style>
 </defs>
 <g id="figure_1">
  <g id="patch_1">
   <path d="M 0 512.168487 
L 645.721947 512.168487 
L 645.721947 0 
L 0 0 
z
" style="fill:none;"/>
  </g>
  <g id="axes_1">
   <g id="patch_2">
    <path d="M 65.1 437.3688 
L 623.1 437.3688 
L 623.1 49.2888 
L 65.1 49.2888 
z
" style="fill:none;"/>
   </g>
   <g id="matplotlib.axis_1">
    <g id="xtick_1">
     <g id="line2d_1">
      <defs>
       <path d="M 0 0 
L 0 3.5 
" id="mfef4ef4a89" style="stroke:#252627;stroke-width:0.8;"/>
      </defs>
      <g>
       <use style="fill:#252627;stroke:#252627;stroke-width:0.8;" x="65.1" xlink:href="#mfef4ef4a89" y="437.3688"/>
      </g>
     </g>
    </g>
    <g id="xtick_2">
     <g id="line2d_2">
      <g>
       <use style="fill:#252627;stroke:#252627;stroke-width:0.8;" x="66.746018" xlink:href="#mfef4ef4a89" y="437.3688"/>
      </g>
     </g>
     <g id="text_1">
      <!-- Feb -->
      <g style="fill:#252627;" transform="translate(52.583518 456.5263)scale(0.16 -0.16)">
       <defs>
        <path d="M 9.8125 72.90625 
L 51.703125 72.90625 
L 51.703125 64.59375 
L 19.671875 64.59375 
L 19.671875 43.109375 
L 48.578125 43.109375 
L 48.578125 34.8125 
L 19.671875 34.8125 
L 19.671875 0 
L 9.8125 0 
z
" id="DejaVuSans-70"/>
        <path d="M 56.203125 29.59375 
L 56.203125 25.203125 
L 14.890625 25.203125 
Q 15.484375 15.921875 20.484375 11.0625 
Q 25.484375 6.203125 34.421875 6.203125 
Q 39.59375 6.203125 44.453125 7.46875 
Q 49.3125 8.734375 54.109375 11.28125 
L 54.109375 2.78125 
Q 49.265625 0.734375 44.1875 -0.34375 
Q 39.109375 -1.421875 33.890625 -1.421875 
Q 20.796875 -1.421875 13.15625 6.1875 
Q 5.515625 13.8125 5.515625 26.8125 
Q 5.515625 40.234375 12.765625 48.109375 
Q 20.015625 56 32.328125 56 
Q 43.359375 56 49.78125 48.890625 
Q 56.203125 41.796875 56.203125 29.59375 
z
M 47.21875 32.234375 
Q 47.125 39.59375 43.09375 43.984375 
Q 39.0625 48.390625 32.421875 48.390625 
Q 24.90625 48.390625 20.390625 44.140625 
Q 15.875 39.890625 15.1875 32.171875 
z
" id="DejaVuSans-101"/>
        <path d="M 48.6875 27.296875 
Q 48.6875 37.203125 44.609375 42.84375 
Q 40.53125 48.484375 33.40625 48.484375 
Q 26.265625 48.484375 22.1875 42.84375 
Q 18.109375 37.203125 18.109375 27.296875 
Q 18.109375 17.390625 22.1875 11.75 
Q 26.265625 6.109375 33.40625 6.109375 
Q 40.53125 6.109375 44.609375 11.75 
Q 48.6875 17.390625 48.6875 27.296875 
z
M 18.109375 46.390625 
Q 20.953125 51.265625 25.265625 53.625 
Q 29.59375 56 35.59375 56 
Q 45.5625 56 51.78125 48.09375 
Q 58.015625 40.1875 58.015625 27.296875 
Q 58.015625 14.40625 51.78125 6.484375 
Q 45.5625 -1.421875 35.59375 -1.421875 
Q 29.59375 -1.421875 25.265625 0.953125 
Q 20.953125 3.328125 18.109375 8.203125 
L 18.109375 0 
L 9.078125 0 
L 9.078125 75.984375 
L 18.109375 75.984375 
z
" id="DejaVuSans-98"/>
       </defs>
       <use xlink:href="#DejaVuSans-70"/>
       <use x="52.019531" xlink:href="#DejaVuSans-101"/>
       <use x="113.542969" xlink:href="#DejaVuSans-98"/>
      </g>
     </g>
    </g>
    <g id="xtick_3">
     <g id="line2d_3">
      <g>
       <use style="fill:#252627;stroke:#252627;stroke-width:0.8;" x="114.480531" xlink:href="#mfef4ef4a89" y="437.3688"/>
      </g>
     </g>
     <g id="text_2">
      <!-- Mar -->
      <g style="fill:#252627;" transform="translate(99.386781 456.5263)scale(0.16 -0.16)">
       <defs>
        <path d="M 9.8125 72.90625 
L 24.515625 72.90625 
L 43.109375 23.296875 
L 61.8125 72.90625 
L 76.515625 72.90625 
L 76.515625 0 
L 66.890625 0 
L 66.890625 64.015625 
L 48.09375 14.015625 
L 38.1875 14.015625 
L 19.390625 64.015625 
L 19.390625 0 
L 9.8125 0 
z
" id="DejaVuSans-77"/>
        <path d="M 34.28125 27.484375 
Q 23.390625 27.484375 19.1875 25 
Q 14.984375 22.515625 14.984375 16.5 
Q 14.984375 11.71875 18.140625 8.90625 
Q 21.296875 6.109375 26.703125 6.109375 
Q 34.1875 6.109375 38.703125 11.40625 
Q 43.21875 16.703125 43.21875 25.484375 
L 43.21875 27.484375 
z
M 52.203125 31.203125 
L 52.203125 0 
L 43.21875 0 
L 43.21875 8.296875 
Q 40.140625 3.328125 35.546875 0.953125 
Q 30.953125 -1.421875 24.3125 -1.421875 
Q 15.921875 -1.421875 10.953125 3.296875 
Q 6 8.015625 6 15.921875 
Q 6 25.140625 12.171875 29.828125 
Q 18.359375 34.515625 30.609375 34.515625 
L 43.21875 34.515625 
L 43.21875 35.40625 
Q 43.21875 41.609375 39.140625 45 
Q 35.0625 48.390625 27.6875 48.390625 
Q 23 48.390625 18.546875 47.265625 
Q 14.109375 46.140625 10.015625 43.890625 
L 10.015625 52.203125 
Q 14.9375 54.109375 19.578125 55.046875 
Q 24.21875 56 28.609375 56 
Q 40.484375 56 46.34375 49.84375 
Q 52.203125 43.703125 52.203125 31.203125 
z
" id="DejaVuSans-97"/>
        <path d="M 41.109375 46.296875 
Q 39.59375 47.171875 37.8125 47.578125 
Q 36.03125 48 33.890625 48 
Q 26.265625 48 22.1875 43.046875 
Q 18.109375 38.09375 18.109375 28.8125 
L 18.109375 0 
L 9.078125 0 
L 9.078125 54.6875 
L 18.109375 54.6875 
L 18.109375 46.1875 
Q 20.953125 51.171875 25.484375 53.578125 
Q 30.03125 56 36.53125 56 
Q 37.453125 56 38.578125 55.875 
Q 39.703125 55.765625 41.0625 55.515625 
z
" id="DejaVuSans-114"/>
       </defs>
       <use xlink:href="#DejaVuSans-77"/>
       <use x="86.279297" xlink:href="#DejaVuSans-97"/>
       <use x="147.558594" xlink:href="#DejaVuSans-114"/>
      </g>
     </g>
    </g>
    <g id="xtick_4">
     <g id="line2d_4">
      <g>
       <use style="fill:#252627;stroke:#252627;stroke-width:0.8;" x="165.50708" xlink:href="#mfef4ef4a89" y="437.3688"/>
      </g>
     </g>
     <g id="text_3">
      <!-- Apr -->
      <g style="fill:#252627;" transform="translate(151.66708 456.5263)scale(0.16 -0.16)">
       <defs>
        <path d="M 34.1875 63.1875 
L 20.796875 26.90625 
L 47.609375 26.90625 
z
M 28.609375 72.90625 
L 39.796875 72.90625 
L 67.578125 0 
L 57.328125 0 
L 50.6875 18.703125 
L 17.828125 18.703125 
L 11.1875 0 
L 0.78125 0 
z
" id="DejaVuSans-65"/>
        <path d="M 18.109375 8.203125 
L 18.109375 -20.796875 
L 9.078125 -20.796875 
L 9.078125 54.6875 
L 18.109375 54.6875 
L 18.109375 46.390625 
Q 20.953125 51.265625 25.265625 53.625 
Q 29.59375 56 35.59375 56 
Q 45.5625 56 51.78125 48.09375 
Q 58.015625 40.1875 58.015625 27.296875 
Q 58.015625 14.40625 51.78125 6.484375 
Q 45.5625 -1.421875 35.59375 -1.421875 
Q 29.59375 -1.421875 25.265625 0.953125 
Q 20.953125 3.328125 18.109375 8.203125 
z
M 48.6875 27.296875 
Q 48.6875 37.203125 44.609375 42.84375 
Q 40.53125 48.484375 33.40625 48.484375 
Q 26.265625 48.484375 22.1875 42.84375 
Q 18.109375 37.203125 18.109375 27.296875 
Q 18.109375 17.390625 22.1875 11.75 
Q 26.265625 6.109375 33.40625 6.109375 
Q 40.53125 6.109375 44.609375 11.75 
Q 48.6875 17.390625 48.6875 27.296875 
z
" id="DejaVuSans-112"/>
       </defs>
       <use xlink:href="#DejaVuSans-65"/>
       <use x="68.408203" xlink:href="#DejaVuSans-112"/>
       <use x="131.884766" xlink:href="#DejaVuSans-114"/>
      </g>
     </g>
    </g>
    <g id="xtick_5">
     <g id="line2d_5">
      <g>
       <use style="fill:#252627;stroke:#252627;stroke-width:0.8;" x="214.887611" xlink:href="#mfef4ef4a89" y="437.3688"/>
      </g>
     </g>
     <g id="text_4">
      <!-- May -->
      <g style="fill:#252627;" transform="translate(198.347611 456.5263)scale(0.16 -0.16)">
       <defs>
        <path d="M 32.171875 -5.078125 
Q 28.375 -14.84375 24.75 -17.8125 
Q 21.140625 -20.796875 15.09375 -20.796875 
L 7.90625 -20.796875 
L 7.90625 -13.28125 
L 13.1875 -13.28125 
Q 16.890625 -13.28125 18.9375 -11.515625 
Q 21 -9.765625 23.484375 -3.21875 
L 25.09375 0.875 
L 2.984375 54.6875 
L 12.5 54.6875 
L 29.59375 11.921875 
L 46.6875 54.6875 
L 56.203125 54.6875 
z
" id="DejaVuSans-121"/>
       </defs>
       <use xlink:href="#DejaVuSans-77"/>
       <use x="86.279297" xlink:href="#DejaVuSans-97"/>
       <use x="147.558594" xlink:href="#DejaVuSans-121"/>
      </g>
     </g>
    </g>
    <g id="xtick_6">
     <g id="line2d_6">
      <g>
       <use style="fill:#252627;stroke:#252627;stroke-width:0.8;" x="265.914159" xlink:href="#mfef4ef4a89" y="437.3688"/>
      </g>
     </g>
     <g id="text_5">
      <!-- Jun -->
      <g style="fill:#252627;" transform="translate(253.414159 456.5263)scale(0.16 -0.16)">
       <defs>
        <path d="M 9.8125 72.90625 
L 19.671875 72.90625 
L 19.671875 5.078125 
Q 19.671875 -8.109375 14.671875 -14.0625 
Q 9.671875 -20.015625 -1.421875 -20.015625 
L -5.171875 -20.015625 
L -5.171875 -11.71875 
L -2.09375 -11.71875 
Q 4.4375 -11.71875 7.125 -8.046875 
Q 9.8125 -4.390625 9.8125 5.078125 
z
" id="DejaVuSans-74"/>
        <path d="M 8.5 21.578125 
L 8.5 54.6875 
L 17.484375 54.6875 
L 17.484375 21.921875 
Q 17.484375 14.15625 20.5 10.265625 
Q 23.53125 6.390625 29.59375 6.390625 
Q 36.859375 6.390625 41.078125 11.03125 
Q 45.3125 15.671875 45.3125 23.6875 
L 45.3125 54.6875 
L 54.296875 54.6875 
L 54.296875 0 
L 45.3125 0 
L 45.3125 8.40625 
Q 42.046875 3.421875 37.71875 1 
Q 33.40625 -1.421875 27.6875 -1.421875 
Q 18.265625 -1.421875 13.375 4.4375 
Q 8.5 10.296875 8.5 21.578125 
z
M 31.109375 56 
z
" id="DejaVuSans-117"/>
        <path d="M 54.890625 33.015625 
L 54.890625 0 
L 45.90625 0 
L 45.90625 32.71875 
Q 45.90625 40.484375 42.875 44.328125 
Q 39.84375 48.1875 33.796875 48.1875 
Q 26.515625 48.1875 22.3125 43.546875 
Q 18.109375 38.921875 18.109375 30.90625 
L 18.109375 0 
L 9.078125 0 
L 9.078125 54.6875 
L 18.109375 54.6875 
L 18.109375 46.1875 
Q 21.34375 51.125 25.703125 53.5625 
Q 30.078125 56 35.796875 56 
Q 45.21875 56 50.046875 50.171875 
Q 54.890625 44.34375 54.890625 33.015625 
z
" id="DejaVuSans-110"/>
       </defs>
       <use xlink:href="#DejaVuSans-74"/>
       <use x="29.492188" xlink:href="#DejaVuSans-117"/>
       <use x="92.871094" xlink:href="#DejaVuSans-110"/>
      </g>
     </g>
    </g>
    <g id="xtick_7">
     <g id="line2d_7">
      <g>
       <use style="fill:#252627;stroke:#252627;stroke-width:0.8;" x="315.29469" xlink:href="#mfef4ef4a89" y="437.3688"/>
      </g>
     </g>
     <g id="text_6">
      <!-- Jul -->
      <g style="fill:#252627;" transform="translate(305.64219 456.5263)scale(0.16 -0.16)">
       <defs>
        <path d="M 9.421875 75.984375 
L 18.40625 75.984375 
L 18.40625 0 
L 9.421875 0 
z
" id="DejaVuSans-108"/>
       </defs>
       <use xlink:href="#DejaVuSans-74"/>
       <use x="29.492188" xlink:href="#DejaVuSans-117"/>
       <use x="92.871094" xlink:href="#DejaVuSans-108"/>
      </g>
     </g>
    </g>
    <g id="xtick_8">
     <g id="line2d_8">
      <g>
       <use style="fill:#252627;stroke:#252627;stroke-width:0.8;" x="366.321239" xlink:href="#mfef4ef4a89" y="437.3688"/>
      </g>
     </g>
     <g id="text_7">
      <!-- Aug -->
      <g style="fill:#252627;" transform="translate(350.699989 456.5263)scale(0.16 -0.16)">
       <defs>
        <path d="M 45.40625 27.984375 
Q 45.40625 37.75 41.375 43.109375 
Q 37.359375 48.484375 30.078125 48.484375 
Q 22.859375 48.484375 18.828125 43.109375 
Q 14.796875 37.75 14.796875 27.984375 
Q 14.796875 18.265625 18.828125 12.890625 
Q 22.859375 7.515625 30.078125 7.515625 
Q 37.359375 7.515625 41.375 12.890625 
Q 45.40625 18.265625 45.40625 27.984375 
z
M 54.390625 6.78125 
Q 54.390625 -7.171875 48.1875 -13.984375 
Q 42 -20.796875 29.203125 -20.796875 
Q 24.46875 -20.796875 20.265625 -20.09375 
Q 16.0625 -19.390625 12.109375 -17.921875 
L 12.109375 -9.1875 
Q 16.0625 -11.328125 19.921875 -12.34375 
Q 23.78125 -13.375 27.78125 -13.375 
Q 36.625 -13.375 41.015625 -8.765625 
Q 45.40625 -4.15625 45.40625 5.171875 
L 45.40625 9.625 
Q 42.625 4.78125 38.28125 2.390625 
Q 33.9375 0 27.875 0 
Q 17.828125 0 11.671875 7.65625 
Q 5.515625 15.328125 5.515625 27.984375 
Q 5.515625 40.671875 11.671875 48.328125 
Q 17.828125 56 27.875 56 
Q 33.9375 56 38.28125 53.609375 
Q 42.625 51.21875 45.40625 46.390625 
L 45.40625 54.6875 
L 54.390625 54.6875 
z
" id="DejaVuSans-103"/>
       </defs>
       <use xlink:href="#DejaVuSans-65"/>
       <use x="68.408203" xlink:href="#DejaVuSans-117"/>
       <use x="131.787109" xlink:href="#DejaVuSans-103"/>
      </g>
     </g>
    </g>
    <g id="xtick_9">
     <g id="line2d_9">
      <g>
       <use style="fill:#252627;stroke:#252627;stroke-width:0.8;" x="417.347788" xlink:href="#mfef4ef4a89" y="437.3688"/>
      </g>
     </g>
     <g id="text_8">
      <!-- Sep -->
      <g style="fill:#252627;" transform="translate(402.267788 456.5263)scale(0.16 -0.16)">
       <defs>
        <path d="M 53.515625 70.515625 
L 53.515625 60.890625 
Q 47.90625 63.578125 42.921875 64.890625 
Q 37.9375 66.21875 33.296875 66.21875 
Q 25.25 66.21875 20.875 63.09375 
Q 16.5 59.96875 16.5 54.203125 
Q 16.5 49.359375 19.40625 46.890625 
Q 22.3125 44.4375 30.421875 42.921875 
L 36.375 41.703125 
Q 47.40625 39.59375 52.65625 34.296875 
Q 57.90625 29 57.90625 20.125 
Q 57.90625 9.515625 50.796875 4.046875 
Q 43.703125 -1.421875 29.984375 -1.421875 
Q 24.8125 -1.421875 18.96875 -0.25 
Q 13.140625 0.921875 6.890625 3.21875 
L 6.890625 13.375 
Q 12.890625 10.015625 18.65625 8.296875 
Q 24.421875 6.59375 29.984375 6.59375 
Q 38.421875 6.59375 43.015625 9.90625 
Q 47.609375 13.234375 47.609375 19.390625 
Q 47.609375 24.75 44.3125 27.78125 
Q 41.015625 30.8125 33.5 32.328125 
L 27.484375 33.5 
Q 16.453125 35.6875 11.515625 40.375 
Q 6.59375 45.0625 6.59375 53.421875 
Q 6.59375 63.09375 13.40625 68.65625 
Q 20.21875 74.21875 32.171875 74.21875 
Q 37.3125 74.21875 42.625 73.28125 
Q 47.953125 72.359375 53.515625 70.515625 
z
" id="DejaVuSans-83"/>
       </defs>
       <use xlink:href="#DejaVuSans-83"/>
       <use x="63.476562" xlink:href="#DejaVuSans-101"/>
       <use x="125" xlink:href="#DejaVuSans-112"/>
      </g>
     </g>
    </g>
    <g id="xtick_10">
     <g id="line2d_10">
      <g>
       <use style="fill:#252627;stroke:#252627;stroke-width:0.8;" x="466.728319" xlink:href="#mfef4ef4a89" y="437.3688"/>
      </g>
     </g>
     <g id="text_9">
      <!-- Oct -->
      <g style="fill:#252627;" transform="translate(452.895819 456.5263)scale(0.16 -0.16)">
       <defs>
        <path d="M 39.40625 66.21875 
Q 28.65625 66.21875 22.328125 58.203125 
Q 16.015625 50.203125 16.015625 36.375 
Q 16.015625 22.609375 22.328125 14.59375 
Q 28.65625 6.59375 39.40625 6.59375 
Q 50.140625 6.59375 56.421875 14.59375 
Q 62.703125 22.609375 62.703125 36.375 
Q 62.703125 50.203125 56.421875 58.203125 
Q 50.140625 66.21875 39.40625 66.21875 
z
M 39.40625 74.21875 
Q 54.734375 74.21875 63.90625 63.9375 
Q 73.09375 53.65625 73.09375 36.375 
Q 73.09375 19.140625 63.90625 8.859375 
Q 54.734375 -1.421875 39.40625 -1.421875 
Q 24.03125 -1.421875 14.8125 8.828125 
Q 5.609375 19.09375 5.609375 36.375 
Q 5.609375 53.65625 14.8125 63.9375 
Q 24.03125 74.21875 39.40625 74.21875 
z
" id="DejaVuSans-79"/>
        <path d="M 48.78125 52.59375 
L 48.78125 44.1875 
Q 44.96875 46.296875 41.140625 47.34375 
Q 37.3125 48.390625 33.40625 48.390625 
Q 24.65625 48.390625 19.8125 42.84375 
Q 14.984375 37.3125 14.984375 27.296875 
Q 14.984375 17.28125 19.8125 11.734375 
Q 24.65625 6.203125 33.40625 6.203125 
Q 37.3125 6.203125 41.140625 7.25 
Q 44.96875 8.296875 48.78125 10.40625 
L 48.78125 2.09375 
Q 45.015625 0.34375 40.984375 -0.53125 
Q 36.96875 -1.421875 32.421875 -1.421875 
Q 20.0625 -1.421875 12.78125 6.34375 
Q 5.515625 14.109375 5.515625 27.296875 
Q 5.515625 40.671875 12.859375 48.328125 
Q 20.21875 56 33.015625 56 
Q 37.15625 56 41.109375 55.140625 
Q 45.0625 54.296875 48.78125 52.59375 
z
" id="DejaVuSans-99"/>
        <path d="M 18.3125 70.21875 
L 18.3125 54.6875 
L 36.8125 54.6875 
L 36.8125 47.703125 
L 18.3125 47.703125 
L 18.3125 18.015625 
Q 18.3125 11.328125 20.140625 9.421875 
Q 21.96875 7.515625 27.59375 7.515625 
L 36.8125 7.515625 
L 36.8125 0 
L 27.59375 0 
Q 17.1875 0 13.234375 3.875 
Q 9.28125 7.765625 9.28125 18.015625 
L 9.28125 47.703125 
L 2.6875 47.703125 
L 2.6875 54.6875 
L 9.28125 54.6875 
L 9.28125 70.21875 
z
" id="DejaVuSans-116"/>
       </defs>
       <use xlink:href="#DejaVuSans-79"/>
       <use x="78.710938" xlink:href="#DejaVuSans-99"/>
       <use x="133.691406" xlink:href="#DejaVuSans-116"/>
      </g>
     </g>
    </g>
    <g id="xtick_11">
     <g id="line2d_11">
      <g>
       <use style="fill:#252627;stroke:#252627;stroke-width:0.8;" x="517.754867" xlink:href="#mfef4ef4a89" y="437.3688"/>
      </g>
     </g>
     <g id="text_10">
      <!-- Nov -->
      <g style="fill:#252627;" transform="translate(502.139867 456.5263)scale(0.16 -0.16)">
       <defs>
        <path d="M 9.8125 72.90625 
L 23.09375 72.90625 
L 55.421875 11.921875 
L 55.421875 72.90625 
L 64.984375 72.90625 
L 64.984375 0 
L 51.703125 0 
L 19.390625 60.984375 
L 19.390625 0 
L 9.8125 0 
z
" id="DejaVuSans-78"/>
        <path d="M 30.609375 48.390625 
Q 23.390625 48.390625 19.1875 42.75 
Q 14.984375 37.109375 14.984375 27.296875 
Q 14.984375 17.484375 19.15625 11.84375 
Q 23.34375 6.203125 30.609375 6.203125 
Q 37.796875 6.203125 41.984375 11.859375 
Q 46.1875 17.53125 46.1875 27.296875 
Q 46.1875 37.015625 41.984375 42.703125 
Q 37.796875 48.390625 30.609375 48.390625 
z
M 30.609375 56 
Q 42.328125 56 49.015625 48.375 
Q 55.71875 40.765625 55.71875 27.296875 
Q 55.71875 13.875 49.015625 6.21875 
Q 42.328125 -1.421875 30.609375 -1.421875 
Q 18.84375 -1.421875 12.171875 6.21875 
Q 5.515625 13.875 5.515625 27.296875 
Q 5.515625 40.765625 12.171875 48.375 
Q 18.84375 56 30.609375 56 
z
" id="DejaVuSans-111"/>
        <path d="M 2.984375 54.6875 
L 12.5 54.6875 
L 29.59375 8.796875 
L 46.6875 54.6875 
L 56.203125 54.6875 
L 35.6875 0 
L 23.484375 0 
z
" id="DejaVuSans-118"/>
       </defs>
       <use xlink:href="#DejaVuSans-78"/>
       <use x="74.804688" xlink:href="#DejaVuSans-111"/>
       <use x="135.986328" xlink:href="#DejaVuSans-118"/>
      </g>
     </g>
    </g>
    <g id="xtick_12">
     <g id="line2d_12">
      <g>
       <use style="fill:#252627;stroke:#252627;stroke-width:0.8;" x="567.135398" xlink:href="#mfef4ef4a89" y="437.3688"/>
      </g>
     </g>
     <g id="text_11">
      <!-- Dec -->
      <g style="fill:#252627;" transform="translate(551.654148 456.5263)scale(0.16 -0.16)">
       <defs>
        <path d="M 19.671875 64.796875 
L 19.671875 8.109375 
L 31.59375 8.109375 
Q 46.6875 8.109375 53.6875 14.9375 
Q 60.6875 21.78125 60.6875 36.53125 
Q 60.6875 51.171875 53.6875 57.984375 
Q 46.6875 64.796875 31.59375 64.796875 
z
M 9.8125 72.90625 
L 30.078125 72.90625 
Q 51.265625 72.90625 61.171875 64.09375 
Q 71.09375 55.28125 71.09375 36.53125 
Q 71.09375 17.671875 61.125 8.828125 
Q 51.171875 0 30.078125 0 
L 9.8125 0 
z
" id="DejaVuSans-68"/>
       </defs>
       <use xlink:href="#DejaVuSans-68"/>
       <use x="77.001953" xlink:href="#DejaVuSans-101"/>
       <use x="138.525391" xlink:href="#DejaVuSans-99"/>
      </g>
     </g>
    </g>
    <g id="xtick_13">
     <g id="line2d_13">
      <g>
       <use style="fill:#252627;stroke:#252627;stroke-width:0.8;" x="618.161947" xlink:href="#mfef4ef4a89" y="437.3688"/>
      </g>
     </g>
     <g id="text_12">
      <!-- Jan -->
      <g style="fill:#252627;" transform="translate(605.829447 456.5263)scale(0.16 -0.16)">
       <use xlink:href="#DejaVuSans-74"/>
       <use x="29.492188" xlink:href="#DejaVuSans-97"/>
       <use x="90.771484" xlink:href="#DejaVuSans-110"/>
      </g>
      <!-- 2021 -->
      <g style="fill:#252627;" transform="translate(597.801947 474.4428)scale(0.16 -0.16)">
       <defs>
        <path d="M 19.1875 8.296875 
L 53.609375 8.296875 
L 53.609375 0 
L 7.328125 0 
L 7.328125 8.296875 
Q 12.9375 14.109375 22.625 23.890625 
Q 32.328125 33.6875 34.8125 36.53125 
Q 39.546875 41.84375 41.421875 45.53125 
Q 43.3125 49.21875 43.3125 52.78125 
Q 43.3125 58.59375 39.234375 62.25 
Q 35.15625 65.921875 28.609375 65.921875 
Q 23.96875 65.921875 18.8125 64.3125 
Q 13.671875 62.703125 7.8125 59.421875 
L 7.8125 69.390625 
Q 13.765625 71.78125 18.9375 73 
Q 24.125 74.21875 28.421875 74.21875 
Q 39.75 74.21875 46.484375 68.546875 
Q 53.21875 62.890625 53.21875 53.421875 
Q 53.21875 48.921875 51.53125 44.890625 
Q 49.859375 40.875 45.40625 35.40625 
Q 44.1875 33.984375 37.640625 27.21875 
Q 31.109375 20.453125 19.1875 8.296875 
z
" id="DejaVuSans-50"/>
        <path d="M 31.78125 66.40625 
Q 24.171875 66.40625 20.328125 58.90625 
Q 16.5 51.421875 16.5 36.375 
Q 16.5 21.390625 20.328125 13.890625 
Q 24.171875 6.390625 31.78125 6.390625 
Q 39.453125 6.390625 43.28125 13.890625 
Q 47.125 21.390625 47.125 36.375 
Q 47.125 51.421875 43.28125 58.90625 
Q 39.453125 66.40625 31.78125 66.40625 
z
M 31.78125 74.21875 
Q 44.046875 74.21875 50.515625 64.515625 
Q 56.984375 54.828125 56.984375 36.375 
Q 56.984375 17.96875 50.515625 8.265625 
Q 44.046875 -1.421875 31.78125 -1.421875 
Q 19.53125 -1.421875 13.0625 8.265625 
Q 6.59375 17.96875 6.59375 36.375 
Q 6.59375 54.828125 13.0625 64.515625 
Q 19.53125 74.21875 31.78125 74.21875 
z
" id="DejaVuSans-48"/>
        <path d="M 12.40625 8.296875 
L 28.515625 8.296875 
L 28.515625 63.921875 
L 10.984375 60.40625 
L 10.984375 69.390625 
L 28.421875 72.90625 
L 38.28125 72.90625 
L 38.28125 8.296875 
L 54.390625 8.296875 
L 54.390625 0 
L 12.40625 0 
z
" id="DejaVuSans-49"/>
       </defs>
       <use xlink:href="#DejaVuSans-50"/>
       <use x="63.623047" xlink:href="#DejaVuSans-48"/>
       <use x="127.246094" xlink:href="#DejaVuSans-50"/>
       <use x="190.869141" xlink:href="#DejaVuSans-49"/>
      </g>
     </g>
    </g>
    <g id="xtick_14">
     <g id="line2d_14">
      <g>
       <use style="fill:#252627;stroke:#252627;stroke-width:0.8;" x="623.1" xlink:href="#mfef4ef4a89" y="437.3688"/>
      </g>
     </g>
    </g>
    <g id="xtick_15">
     <g id="line2d_15">
      <defs>
       <path d="M 0 0 
L 0 2 
" id="ma1d7ab25f2" style="stroke:#252627;stroke-width:0.6;"/>
      </defs>
      <g>
       <use style="fill:#252627;stroke:#252627;stroke-width:0.6;" x="70.038053" xlink:href="#ma1d7ab25f2" y="437.3688"/>
      </g>
     </g>
    </g>
    <g id="xtick_16">
     <g id="line2d_16">
      <g>
       <use style="fill:#252627;stroke:#252627;stroke-width:0.6;" x="81.560177" xlink:href="#ma1d7ab25f2" y="437.3688"/>
      </g>
     </g>
    </g>
    <g id="xtick_17">
     <g id="line2d_17">
      <g>
       <use style="fill:#252627;stroke:#252627;stroke-width:0.6;" x="93.082301" xlink:href="#ma1d7ab25f2" y="437.3688"/>
      </g>
     </g>
    </g>
    <g id="xtick_18">
     <g id="line2d_18">
      <g>
       <use style="fill:#252627;stroke:#252627;stroke-width:0.6;" x="104.604425" xlink:href="#ma1d7ab25f2" y="437.3688"/>
      </g>
     </g>
    </g>
    <g id="xtick_19">
     <g id="line2d_19">
      <g>
       <use style="fill:#252627;stroke:#252627;stroke-width:0.6;" x="116.126549" xlink:href="#ma1d7ab25f2" y="437.3688"/>
      </g>
     </g>
    </g>
    <g id="xtick_20">
     <g id="line2d_20">
      <g>
       <use style="fill:#252627;stroke:#252627;stroke-width:0.6;" x="127.648673" xlink:href="#ma1d7ab25f2" y="437.3688"/>
      </g>
     </g>
    </g>
    <g id="xtick_21">
     <g id="line2d_21">
      <g>
       <use style="fill:#252627;stroke:#252627;stroke-width:0.6;" x="139.170796" xlink:href="#ma1d7ab25f2" y="437.3688"/>
      </g>
     </g>
    </g>
    <g id="xtick_22">
     <g id="line2d_22">
      <g>
       <use style="fill:#252627;stroke:#252627;stroke-width:0.6;" x="150.69292" xlink:href="#ma1d7ab25f2" y="437.3688"/>
      </g>
     </g>
    </g>
    <g id="xtick_23">
     <g id="line2d_23">
      <g>
       <use style="fill:#252627;stroke:#252627;stroke-width:0.6;" x="162.215044" xlink:href="#ma1d7ab25f2" y="437.3688"/>
      </g>
     </g>
    </g>
    <g id="xtick_24">
     <g id="line2d_24">
      <g>
       <use style="fill:#252627;stroke:#252627;stroke-width:0.6;" x="173.737168" xlink:href="#ma1d7ab25f2" y="437.3688"/>
      </g>
     </g>
    </g>
    <g id="xtick_25">
     <g id="line2d_25">
      <g>
       <use style="fill:#252627;stroke:#252627;stroke-width:0.6;" x="185.259292" xlink:href="#ma1d7ab25f2" y="437.3688"/>
      </g>
     </g>
    </g>
    <g id="xtick_26">
     <g id="line2d_26">
      <g>
       <use style="fill:#252627;stroke:#252627;stroke-width:0.6;" x="196.781416" xlink:href="#ma1d7ab25f2" y="437.3688"/>
      </g>
     </g>
    </g>
    <g id="xtick_27">
     <g id="line2d_27">
      <g>
       <use style="fill:#252627;stroke:#252627;stroke-width:0.6;" x="208.30354" xlink:href="#ma1d7ab25f2" y="437.3688"/>
      </g>
     </g>
    </g>
    <g id="xtick_28">
     <g id="line2d_28">
      <g>
       <use style="fill:#252627;stroke:#252627;stroke-width:0.6;" x="219.825664" xlink:href="#ma1d7ab25f2" y="437.3688"/>
      </g>
     </g>
    </g>
    <g id="xtick_29">
     <g id="line2d_29">
      <g>
       <use style="fill:#252627;stroke:#252627;stroke-width:0.6;" x="231.347788" xlink:href="#ma1d7ab25f2" y="437.3688"/>
      </g>
     </g>
    </g>
    <g id="xtick_30">
     <g id="line2d_30">
      <g>
       <use style="fill:#252627;stroke:#252627;stroke-width:0.6;" x="242.869912" xlink:href="#ma1d7ab25f2" y="437.3688"/>
      </g>
     </g>
    </g>
    <g id="xtick_31">
     <g id="line2d_31">
      <g>
       <use style="fill:#252627;stroke:#252627;stroke-width:0.6;" x="254.392035" xlink:href="#ma1d7ab25f2" y="437.3688"/>
      </g>
     </g>
    </g>
    <g id="xtick_32">
     <g id="line2d_32">
      <g>
       <use style="fill:#252627;stroke:#252627;stroke-width:0.6;" x="277.436283" xlink:href="#ma1d7ab25f2" y="437.3688"/>
      </g>
     </g>
    </g>
    <g id="xtick_33">
     <g id="line2d_33">
      <g>
       <use style="fill:#252627;stroke:#252627;stroke-width:0.6;" x="288.958407" xlink:href="#ma1d7ab25f2" y="437.3688"/>
      </g>
     </g>
    </g>
    <g id="xtick_34">
     <g id="line2d_34">
      <g>
       <use style="fill:#252627;stroke:#252627;stroke-width:0.6;" x="300.480531" xlink:href="#ma1d7ab25f2" y="437.3688"/>
      </g>
     </g>
    </g>
    <g id="xtick_35">
     <g id="line2d_35">
      <g>
       <use style="fill:#252627;stroke:#252627;stroke-width:0.6;" x="312.002655" xlink:href="#ma1d7ab25f2" y="437.3688"/>
      </g>
     </g>
    </g>
    <g id="xtick_36">
     <g id="line2d_36">
      <g>
       <use style="fill:#252627;stroke:#252627;stroke-width:0.6;" x="323.524779" xlink:href="#ma1d7ab25f2" y="437.3688"/>
      </g>
     </g>
    </g>
    <g id="xtick_37">
     <g id="line2d_37">
      <g>
       <use style="fill:#252627;stroke:#252627;stroke-width:0.6;" x="335.046903" xlink:href="#ma1d7ab25f2" y="437.3688"/>
      </g>
     </g>
    </g>
    <g id="xtick_38">
     <g id="line2d_38">
      <g>
       <use style="fill:#252627;stroke:#252627;stroke-width:0.6;" x="346.569027" xlink:href="#ma1d7ab25f2" y="437.3688"/>
      </g>
     </g>
    </g>
    <g id="xtick_39">
     <g id="line2d_39">
      <g>
       <use style="fill:#252627;stroke:#252627;stroke-width:0.6;" x="358.09115" xlink:href="#ma1d7ab25f2" y="437.3688"/>
      </g>
     </g>
    </g>
    <g id="xtick_40">
     <g id="line2d_40">
      <g>
       <use style="fill:#252627;stroke:#252627;stroke-width:0.6;" x="369.613274" xlink:href="#ma1d7ab25f2" y="437.3688"/>
      </g>
     </g>
    </g>
    <g id="xtick_41">
     <g id="line2d_41">
      <g>
       <use style="fill:#252627;stroke:#252627;stroke-width:0.6;" x="381.135398" xlink:href="#ma1d7ab25f2" y="437.3688"/>
      </g>
     </g>
    </g>
    <g id="xtick_42">
     <g id="line2d_42">
      <g>
       <use style="fill:#252627;stroke:#252627;stroke-width:0.6;" x="392.657522" xlink:href="#ma1d7ab25f2" y="437.3688"/>
      </g>
     </g>
    </g>
    <g id="xtick_43">
     <g id="line2d_43">
      <g>
       <use style="fill:#252627;stroke:#252627;stroke-width:0.6;" x="404.179646" xlink:href="#ma1d7ab25f2" y="437.3688"/>
      </g>
     </g>
    </g>
    <g id="xtick_44">
     <g id="line2d_44">
      <g>
       <use style="fill:#252627;stroke:#252627;stroke-width:0.6;" x="415.70177" xlink:href="#ma1d7ab25f2" y="437.3688"/>
      </g>
     </g>
    </g>
    <g id="xtick_45">
     <g id="line2d_45">
      <g>
       <use style="fill:#252627;stroke:#252627;stroke-width:0.6;" x="427.223894" xlink:href="#ma1d7ab25f2" y="437.3688"/>
      </g>
     </g>
    </g>
    <g id="xtick_46">
     <g id="line2d_46">
      <g>
       <use style="fill:#252627;stroke:#252627;stroke-width:0.6;" x="438.746018" xlink:href="#ma1d7ab25f2" y="437.3688"/>
      </g>
     </g>
    </g>
    <g id="xtick_47">
     <g id="line2d_47">
      <g>
       <use style="fill:#252627;stroke:#252627;stroke-width:0.6;" x="450.268142" xlink:href="#ma1d7ab25f2" y="437.3688"/>
      </g>
     </g>
    </g>
    <g id="xtick_48">
     <g id="line2d_48">
      <g>
       <use style="fill:#252627;stroke:#252627;stroke-width:0.6;" x="461.790265" xlink:href="#ma1d7ab25f2" y="437.3688"/>
      </g>
     </g>
    </g>
    <g id="xtick_49">
     <g id="line2d_49">
      <g>
       <use style="fill:#252627;stroke:#252627;stroke-width:0.6;" x="473.312389" xlink:href="#ma1d7ab25f2" y="437.3688"/>
      </g>
     </g>
    </g>
    <g id="xtick_50">
     <g id="line2d_50">
      <g>
       <use style="fill:#252627;stroke:#252627;stroke-width:0.6;" x="484.834513" xlink:href="#ma1d7ab25f2" y="437.3688"/>
      </g>
     </g>
    </g>
    <g id="xtick_51">
     <g id="line2d_51">
      <g>
       <use style="fill:#252627;stroke:#252627;stroke-width:0.6;" x="496.356637" xlink:href="#ma1d7ab25f2" y="437.3688"/>
      </g>
     </g>
    </g>
    <g id="xtick_52">
     <g id="line2d_52">
      <g>
       <use style="fill:#252627;stroke:#252627;stroke-width:0.6;" x="507.878761" xlink:href="#ma1d7ab25f2" y="437.3688"/>
      </g>
     </g>
    </g>
    <g id="xtick_53">
     <g id="line2d_53">
      <g>
       <use style="fill:#252627;stroke:#252627;stroke-width:0.6;" x="519.400885" xlink:href="#ma1d7ab25f2" y="437.3688"/>
      </g>
     </g>
    </g>
    <g id="xtick_54">
     <g id="line2d_54">
      <g>
       <use style="fill:#252627;stroke:#252627;stroke-width:0.6;" x="530.923009" xlink:href="#ma1d7ab25f2" y="437.3688"/>
      </g>
     </g>
    </g>
    <g id="xtick_55">
     <g id="line2d_55">
      <g>
       <use style="fill:#252627;stroke:#252627;stroke-width:0.6;" x="542.445133" xlink:href="#ma1d7ab25f2" y="437.3688"/>
      </g>
     </g>
    </g>
    <g id="xtick_56">
     <g id="line2d_56">
      <g>
       <use style="fill:#252627;stroke:#252627;stroke-width:0.6;" x="553.967257" xlink:href="#ma1d7ab25f2" y="437.3688"/>
      </g>
     </g>
    </g>
    <g id="xtick_57">
     <g id="line2d_57">
      <g>
       <use style="fill:#252627;stroke:#252627;stroke-width:0.6;" x="565.489381" xlink:href="#ma1d7ab25f2" y="437.3688"/>
      </g>
     </g>
    </g>
    <g id="xtick_58">
     <g id="line2d_58">
      <g>
       <use style="fill:#252627;stroke:#252627;stroke-width:0.6;" x="577.011504" xlink:href="#ma1d7ab25f2" y="437.3688"/>
      </g>
     </g>
    </g>
    <g id="xtick_59">
     <g id="line2d_59">
      <g>
       <use style="fill:#252627;stroke:#252627;stroke-width:0.6;" x="588.533628" xlink:href="#ma1d7ab25f2" y="437.3688"/>
      </g>
     </g>
    </g>
    <g id="xtick_60">
     <g id="line2d_60">
      <g>
       <use style="fill:#252627;stroke:#252627;stroke-width:0.6;" x="600.055752" xlink:href="#ma1d7ab25f2" y="437.3688"/>
      </g>
     </g>
    </g>
    <g id="xtick_61">
     <g id="line2d_61">
      <g>
       <use style="fill:#252627;stroke:#252627;stroke-width:0.6;" x="611.577876" xlink:href="#ma1d7ab25f2" y="437.3688"/>
      </g>
     </g>
    </g>
    <g id="text_13">
     <!-- date -->
     <g style="fill:#252627;" transform="translate(326.06 493.9278)scale(0.16 -0.16)">
      <defs>
       <path d="M 45.40625 46.390625 
L 45.40625 75.984375 
L 54.390625 75.984375 
L 54.390625 0 
L 45.40625 0 
L 45.40625 8.203125 
Q 42.578125 3.328125 38.25 0.953125 
Q 33.9375 -1.421875 27.875 -1.421875 
Q 17.96875 -1.421875 11.734375 6.484375 
Q 5.515625 14.40625 5.515625 27.296875 
Q 5.515625 40.1875 11.734375 48.09375 
Q 17.96875 56 27.875 56 
Q 33.9375 56 38.25 53.625 
Q 42.578125 51.265625 45.40625 46.390625 
z
M 14.796875 27.296875 
Q 14.796875 17.390625 18.875 11.75 
Q 22.953125 6.109375 30.078125 6.109375 
Q 37.203125 6.109375 41.296875 11.75 
Q 45.40625 17.390625 45.40625 27.296875 
Q 45.40625 37.203125 41.296875 42.84375 
Q 37.203125 48.484375 30.078125 48.484375 
Q 22.953125 48.484375 18.875 42.84375 
Q 14.796875 37.203125 14.796875 27.296875 
z
" id="DejaVuSans-100"/>
      </defs>
      <use xlink:href="#DejaVuSans-100"/>
      <use x="63.476562" xlink:href="#DejaVuSans-97"/>
      <use x="124.755859" xlink:href="#DejaVuSans-116"/>
      <use x="163.964844" xlink:href="#DejaVuSans-101"/>
     </g>
    </g>
   </g>
   <g id="matplotlib.axis_2">
    <g id="ytick_1">
     <g id="line2d_62">
      <defs>
       <path d="M 0 0 
L -3.5 0 
" id="mbf0ef933a1" style="stroke:#252627;stroke-width:0.8;"/>
      </defs>
      <g>
       <use style="fill:#252627;stroke:#252627;stroke-width:0.8;" x="65.1" xlink:href="#mbf0ef933a1" y="419.7288"/>
      </g>
     </g>
     <g id="text_14">
      <!-- 0 -->
      <g style="fill:#252627;" transform="translate(47.92 425.80755)scale(0.16 -0.16)">
       <use xlink:href="#DejaVuSans-48"/>
      </g>
     </g>
    </g>
    <g id="ytick_2">
     <g id="line2d_63">
      <g>
       <use style="fill:#252627;stroke:#252627;stroke-width:0.8;" x="65.1" xlink:href="#mbf0ef933a1" y="355.572347"/>
      </g>
     </g>
     <g id="text_15">
      <!-- 10000 -->
      <g style="fill:#252627;" transform="translate(7.2 361.651097)scale(0.16 -0.16)">
       <use xlink:href="#DejaVuSans-49"/>
       <use x="63.623047" xlink:href="#DejaVuSans-48"/>
       <use x="127.246094" xlink:href="#DejaVuSans-48"/>
       <use x="190.869141" xlink:href="#DejaVuSans-48"/>
       <use x="254.492188" xlink:href="#DejaVuSans-48"/>
      </g>
     </g>
    </g>
    <g id="ytick_3">
     <g id="line2d_64">
      <g>
       <use style="fill:#252627;stroke:#252627;stroke-width:0.8;" x="65.1" xlink:href="#mbf0ef933a1" y="291.415893"/>
      </g>
     </g>
     <g id="text_16">
      <!-- 20000 -->
      <g style="fill:#252627;" transform="translate(7.2 297.494643)scale(0.16 -0.16)">
       <use xlink:href="#DejaVuSans-50"/>
       <use x="63.623047" xlink:href="#DejaVuSans-48"/>
       <use x="127.246094" xlink:href="#DejaVuSans-48"/>
       <use x="190.869141" xlink:href="#DejaVuSans-48"/>
       <use x="254.492188" xlink:href="#DejaVuSans-48"/>
      </g>
     </g>
    </g>
    <g id="ytick_4">
     <g id="line2d_65">
      <g>
       <use style="fill:#252627;stroke:#252627;stroke-width:0.8;" x="65.1" xlink:href="#mbf0ef933a1" y="227.25944"/>
      </g>
     </g>
     <g id="text_17">
      <!-- 30000 -->
      <g style="fill:#252627;" transform="translate(7.2 233.33819)scale(0.16 -0.16)">
       <defs>
        <path d="M 40.578125 39.3125 
Q 47.65625 37.796875 51.625 33 
Q 55.609375 28.21875 55.609375 21.1875 
Q 55.609375 10.40625 48.1875 4.484375 
Q 40.765625 -1.421875 27.09375 -1.421875 
Q 22.515625 -1.421875 17.65625 -0.515625 
Q 12.796875 0.390625 7.625 2.203125 
L 7.625 11.71875 
Q 11.71875 9.328125 16.59375 8.109375 
Q 21.484375 6.890625 26.8125 6.890625 
Q 36.078125 6.890625 40.9375 10.546875 
Q 45.796875 14.203125 45.796875 21.1875 
Q 45.796875 27.640625 41.28125 31.265625 
Q 36.765625 34.90625 28.71875 34.90625 
L 20.21875 34.90625 
L 20.21875 43.015625 
L 29.109375 43.015625 
Q 36.375 43.015625 40.234375 45.921875 
Q 44.09375 48.828125 44.09375 54.296875 
Q 44.09375 59.90625 40.109375 62.90625 
Q 36.140625 65.921875 28.71875 65.921875 
Q 24.65625 65.921875 20.015625 65.03125 
Q 15.375 64.15625 9.8125 62.3125 
L 9.8125 71.09375 
Q 15.4375 72.65625 20.34375 73.4375 
Q 25.25 74.21875 29.59375 74.21875 
Q 40.828125 74.21875 47.359375 69.109375 
Q 53.90625 64.015625 53.90625 55.328125 
Q 53.90625 49.265625 50.4375 45.09375 
Q 46.96875 40.921875 40.578125 39.3125 
z
" id="DejaVuSans-51"/>
       </defs>
       <use xlink:href="#DejaVuSans-51"/>
       <use x="63.623047" xlink:href="#DejaVuSans-48"/>
       <use x="127.246094" xlink:href="#DejaVuSans-48"/>
       <use x="190.869141" xlink:href="#DejaVuSans-48"/>
       <use x="254.492188" xlink:href="#DejaVuSans-48"/>
      </g>
     </g>
    </g>
    <g id="ytick_5">
     <g id="line2d_66">
      <g>
       <use style="fill:#252627;stroke:#252627;stroke-width:0.8;" x="65.1" xlink:href="#mbf0ef933a1" y="163.102987"/>
      </g>
     </g>
     <g id="text_18">
      <!-- 40000 -->
      <g style="fill:#252627;" transform="translate(7.2 169.181737)scale(0.16 -0.16)">
       <defs>
        <path d="M 37.796875 64.3125 
L 12.890625 25.390625 
L 37.796875 25.390625 
z
M 35.203125 72.90625 
L 47.609375 72.90625 
L 47.609375 25.390625 
L 58.015625 25.390625 
L 58.015625 17.1875 
L 47.609375 17.1875 
L 47.609375 0 
L 37.796875 0 
L 37.796875 17.1875 
L 4.890625 17.1875 
L 4.890625 26.703125 
z
" id="DejaVuSans-52"/>
       </defs>
       <use xlink:href="#DejaVuSans-52"/>
       <use x="63.623047" xlink:href="#DejaVuSans-48"/>
       <use x="127.246094" xlink:href="#DejaVuSans-48"/>
       <use x="190.869141" xlink:href="#DejaVuSans-48"/>
       <use x="254.492188" xlink:href="#DejaVuSans-48"/>
      </g>
     </g>
    </g>
    <g id="ytick_6">
     <g id="line2d_67">
      <g>
       <use style="fill:#252627;stroke:#252627;stroke-width:0.8;" x="65.1" xlink:href="#mbf0ef933a1" y="98.946534"/>
      </g>
     </g>
     <g id="text_19">
      <!-- 50000 -->
      <g style="fill:#252627;" transform="translate(7.2 105.025284)scale(0.16 -0.16)">
       <defs>
        <path d="M 10.796875 72.90625 
L 49.515625 72.90625 
L 49.515625 64.59375 
L 19.828125 64.59375 
L 19.828125 46.734375 
Q 21.96875 47.46875 24.109375 47.828125 
Q 26.265625 48.1875 28.421875 48.1875 
Q 40.625 48.1875 47.75 41.5 
Q 54.890625 34.8125 54.890625 23.390625 
Q 54.890625 11.625 47.5625 5.09375 
Q 40.234375 -1.421875 26.90625 -1.421875 
Q 22.3125 -1.421875 17.546875 -0.640625 
Q 12.796875 0.140625 7.71875 1.703125 
L 7.71875 11.625 
Q 12.109375 9.234375 16.796875 8.0625 
Q 21.484375 6.890625 26.703125 6.890625 
Q 35.15625 6.890625 40.078125 11.328125 
Q 45.015625 15.765625 45.015625 23.390625 
Q 45.015625 31 40.078125 35.4375 
Q 35.15625 39.890625 26.703125 39.890625 
Q 22.75 39.890625 18.8125 39.015625 
Q 14.890625 38.140625 10.796875 36.28125 
z
" id="DejaVuSans-53"/>
       </defs>
       <use xlink:href="#DejaVuSans-53"/>
       <use x="63.623047" xlink:href="#DejaVuSans-48"/>
       <use x="127.246094" xlink:href="#DejaVuSans-48"/>
       <use x="190.869141" xlink:href="#DejaVuSans-48"/>
       <use x="254.492188" xlink:href="#DejaVuSans-48"/>
      </g>
     </g>
    </g>
   </g>
   <g id="line2d_68">
    <path clip-path="url(#pf336608e1e)" d="M 74.976106 419.727883 
L 116.126549 419.620651 
L 122.710619 419.391523 
L 126.002655 419.188968 
L 127.648673 418.855355 
L 130.940708 417.845353 
L 132.586726 417.879259 
L 134.232743 415.30017 
L 135.878761 414.329579 
L 137.524779 413.19859 
L 139.170796 411.600177 
L 140.816814 410.515016 
L 142.462832 409.066915 
L 144.10885 405.352256 
L 145.754867 405.817846 
L 147.400885 402.330487 
L 149.046903 400.509361 
L 150.69292 396.637975 
L 152.338938 393.940658 
L 153.984956 387.096076 
L 155.630973 383.230194 
L 157.276991 378.202163 
L 158.923009 375.863198 
L 160.569027 372.672794 
L 162.215044 371.318175 
L 163.861062 368.368807 
L 165.50708 369.684014 
L 167.153097 369.980969 
L 168.799115 370.71327 
L 170.445133 371.214607 
L 172.09115 372.494984 
L 175.383186 377.55143 
L 177.029204 379.3084 
L 178.675221 382.007558 
L 181.967257 385.946764 
L 185.259292 389.095011 
L 186.90531 391.684179 
L 188.551327 392.76109 
L 190.197345 390.65126 
L 191.843363 389.881383 
L 193.489381 393.425572 
L 195.135398 390.544029 
L 196.781416 392.131446 
L 198.427434 390.732835 
L 200.073451 391.550368 
L 201.719469 393.996564 
L 203.365487 408.592157 
L 205.011504 406.733455 
L 206.657522 411.516774 
L 208.30354 411.246399 
L 209.949558 413.684345 
L 211.595575 415.578795 
L 213.241593 419.352112 
L 214.887611 408.52342 
L 216.533628 409.943106 
L 218.179646 410.717571 
L 219.825664 411.896214 
L 221.471681 411.887047 
L 223.117699 412.939212 
L 224.763717 412.385638 
L 226.409735 412.725668 
L 228.055752 413.316818 
L 229.70177 413.419468 
L 231.347788 411.090589 
L 232.993805 411.754153 
L 236.285841 412.311397 
L 237.931858 413.014372 
L 239.577876 413.203171 
L 241.223894 413.910727 
L 242.869912 415.90691 
L 246.161947 416.187364 
L 247.807965 416.52373 
L 249.453982 415.475227 
L 251.1 415.520137 
L 252.746018 415.078375 
L 254.392035 416.25152 
L 256.038053 415.859248 
L 257.684071 416.334006 
L 259.330088 415.266263 
L 260.976106 416.301011 
L 262.622124 416.119544 
L 264.268142 416.33126 
L 265.914159 415.844582 
L 267.560177 416.362421 
L 269.206195 416.00131 
L 270.852212 417.204699 
L 274.144248 417.820601 
L 282.374336 417.852679 
L 285.666372 417.625386 
L 288.958407 417.536484 
L 292.250442 417.526399 
L 293.89646 417.381591 
L 295.542478 417.560312 
L 298.834513 417.580476 
L 303.772566 417.526399 
L 305.418584 417.695958 
L 310.356637 417.439332 
L 313.648673 417.420085 
L 318.586726 417.309184 
L 320.232743 417.826106 
L 321.878761 418.101978 
L 323.524779 417.14513 
L 328.462832 417.022315 
L 330.10885 416.646538 
L 333.400885 416.646538 
L 335.046903 415.912408 
L 336.69292 415.614536 
L 338.338938 415.163613 
L 339.984956 414.413893 
L 341.630973 413.911645 
L 344.923009 413.911645 
L 346.569027 411.587346 
L 348.215044 410.953115 
L 349.861062 410.511353 
L 351.50708 409.362035 
L 353.153097 408.578408 
L 356.445133 408.578408 
L 358.09115 406.947 
L 359.737168 406.516234 
L 361.383186 405.898504 
L 363.029204 405.73903 
L 364.675221 404.971898 
L 367.967257 404.971898 
L 369.613274 402.982131 
L 371.259292 399.378373 
L 372.90531 398.533343 
L 376.197345 396.045901 
L 381.135398 395.967085 
L 382.781416 397.917441 
L 384.427434 397.716721 
L 386.073451 394.543729 
L 387.719469 393.652865 
L 391.011504 393.652865 
L 392.657522 386.640565 
L 394.30354 385.282283 
L 395.949558 382.075378 
L 397.595575 382.54372 
L 399.241593 380.097524 
L 402.533628 380.097524 
L 404.179646 377.244397 
L 405.825664 375.408605 
L 407.471681 374.835777 
L 409.117699 372.435415 
L 410.763717 370.94057 
L 414.055752 370.94057 
L 415.70177 367.100344 
L 417.347788 366.185659 
L 418.993805 365.007926 
L 420.639823 365.648573 
L 422.285841 365.009761 
L 425.577876 365.009761 
L 427.223894 362.271198 
L 428.869912 361.49307 
L 430.515929 361.231863 
L 433.807965 358.013044 
L 437.1 358.013044 
L 438.746018 357.239497 
L 440.392035 356.805985 
L 442.038053 354.673239 
L 443.684071 354.190231 
L 445.330088 352.168391 
L 448.622124 352.168391 
L 450.268142 348.480306 
L 451.914159 347.232008 
L 453.560177 347.144024 
L 455.206195 347.728765 
L 456.852212 349.669036 
L 460.144248 349.669036 
L 461.790265 349.341838 
L 463.436283 359.239344 
L 465.082301 350.410505 
L 466.728319 351.541487 
L 468.374336 352.409434 
L 471.666372 352.409434 
L 473.312389 360.021141 
L 474.958407 349.024725 
L 476.604425 358.584948 
L 478.250442 355.831725 
L 479.89646 354.490855 
L 483.188496 354.490855 
L 484.834513 350.480159 
L 486.480531 354.952781 
L 488.126549 353.597245 
L 489.772566 352.77696 
L 491.418584 350.57914 
L 494.710619 350.57914 
L 496.356637 341.383692 
L 498.002655 335.192594 
L 499.648673 330.607236 
L 501.29469 323.579358 
L 502.940708 319.303786 
L 506.232743 319.303786 
L 507.878761 306.198458 
L 509.524779 302.032869 
L 512.816814 297.096492 
L 514.462832 291.831993 
L 517.754867 291.831993 
L 519.400885 289.237326 
L 521.046903 289.007274 
L 522.69292 284.170795 
L 524.338938 285.703217 
L 525.984956 288.52519 
L 529.276991 288.52519 
L 530.923009 290.938383 
L 532.569027 308.048909 
L 534.215044 297.555666 
L 535.861062 299.752569 
L 537.50708 300.801983 
L 540.799115 300.801983 
L 542.445133 313.736841 
L 544.09115 301.676345 
L 545.737168 321.081837 
L 547.383186 324.086194 
L 549.029204 329.78237 
L 552.321239 329.78237 
L 553.967257 341.13531 
L 555.613274 341.988591 
L 557.259292 346.65918 
L 558.90531 350.273941 
L 560.551327 354.217728 
L 563.843363 354.217728 
L 565.489381 359.631615 
L 567.135398 363.271121 
L 568.781416 364.087743 
L 572.073451 368.001287 
L 575.365487 368.001287 
L 577.011504 370.107447 
L 578.657522 377.675162 
L 580.30354 377.270059 
L 581.949558 379.260744 
L 583.595575 377.634834 
L 586.887611 377.634834 
L 588.533628 374.309694 
L 590.179646 364.843872 
L 591.825664 363.647809 
L 593.471681 359.820421 
L 595.117699 358.63261 
L 598.409735 358.63261 
L 600.055752 357.987382 
L 601.70177 357.688592 
L 603.347788 356.489784 
L 604.993805 356.003112 
L 606.639823 366.831804 
L 609.931858 366.831804 
L 611.577876 364.587246 
L 613.223894 361.438999 
L 614.869912 357.47046 
L 616.515929 352.534994 
L 621.453982 352.534994 
L 623.1 346.928638 
L 623.1 346.928638 
" style="fill:none;stroke:#bb0a21;stroke-linecap:square;stroke-width:2;"/>
   </g>
   <g id="line2d_69">
    <path clip-path="url(#pf336608e1e)" d="M 73.330088 419.720549 
L 116.126549 419.633483 
L 127.648673 419.274207 
L 129.29469 419.087235 
L 132.586726 418.358604 
L 140.816814 416.454069 
L 144.10885 415.381745 
L 147.400885 413.888728 
L 149.046903 413.021698 
L 153.984956 408.385939 
L 157.276991 404.672198 
L 160.569027 401.80257 
L 163.861062 398.017339 
L 165.50708 395.948755 
L 168.799115 392.709765 
L 170.445133 391.582447 
L 172.09115 390.887722 
L 175.383186 389.10876 
L 177.029204 388.935537 
L 178.675221 388.956613 
L 180.321239 389.519361 
L 181.967257 389.940959 
L 183.613274 390.042692 
L 186.90531 392.103949 
L 188.551327 392.161689 
L 190.197345 391.761167 
L 191.843363 391.190175 
L 193.489381 390.160926 
L 195.135398 389.866723 
L 196.781416 389.2609 
L 200.073451 388.498356 
L 201.719469 388.658747 
L 203.365487 388.666998 
L 205.011504 389.557855 
L 206.657522 389.912544 
L 209.949558 390.105013 
L 211.595575 390.155427 
L 214.887611 390.572444 
L 218.179646 391.516455 
L 219.825664 392.727184 
L 221.471681 393.678528 
L 223.117699 395.157796 
L 224.763717 396.251201 
L 226.409735 397.789128 
L 228.055752 398.778966 
L 229.70177 399.37929 
L 231.347788 399.190484 
L 232.993805 399.459942 
L 234.639823 399.9512 
L 236.285841 401.007947 
L 237.931858 401.494619 
L 239.577876 401.566108 
L 241.223894 402.020701 
L 242.869912 402.948224 
L 244.515929 403.257086 
L 246.161947 403.796 
L 247.807965 403.854659 
L 252.746018 405.24319 
L 254.392035 406.126714 
L 256.038053 407.408926 
L 259.330088 408.986257 
L 260.976106 409.474764 
L 264.268142 410.103497 
L 267.560177 410.431612 
L 272.49823 411.674413 
L 280.728319 413.039117 
L 282.374336 413.250833 
L 284.020354 413.302158 
L 287.312389 413.134434 
L 290.604425 413.26183 
L 292.250442 413.433217 
L 295.542478 413.48546 
L 300.480531 413.984045 
L 303.772566 414.371736 
L 307.064602 414.983975 
L 308.710619 415.013301 
L 312.002655 415.461478 
L 313.648673 415.899577 
L 316.940708 417.187287 
L 318.586726 417.312854 
L 321.878761 417.218448 
L 323.524779 417.457662 
L 325.170796 417.29269 
L 328.462832 416.182783 
L 330.10885 416.162619 
L 335.046903 415.695194 
L 336.69292 415.093952 
L 339.984956 415.181025 
L 341.630973 415.03163 
L 346.569027 414.914314 
L 348.215044 415.642951 
L 351.50708 415.499055 
L 353.153097 415.423902 
L 356.445133 415.45598 
L 359.737168 415.263511 
L 361.383186 415.044461 
L 369.613274 414.648526 
L 374.551327 414.33416 
L 377.843363 414.322246 
L 379.489381 413.986797 
L 381.135398 414.100444 
L 382.781416 413.665098 
L 386.073451 413.374559 
L 387.719469 412.860396 
L 389.365487 412.606516 
L 392.657522 412.697253 
L 394.30354 412.731166 
L 395.949558 412.9218 
L 397.595575 412.878726 
L 399.241593 413.246246 
L 400.887611 412.980459 
L 402.533628 413.038199 
L 404.179646 412.803566 
L 405.825664 412.722915 
L 410.763717 411.89896 
L 412.409735 412.102433 
L 414.055752 411.457198 
L 415.70177 411.055765 
L 417.347788 410.935703 
L 418.993805 410.598419 
L 420.639823 410.381205 
L 423.931858 409.099911 
L 425.577876 407.968005 
L 427.223894 406.560232 
L 432.161947 403.381736 
L 435.453982 400.409457 
L 437.1 400.087757 
L 438.746018 400.386547 
L 440.392035 399.805469 
L 442.038053 398.590166 
L 443.684071 398.15115 
L 445.330088 397.43168 
L 446.976106 396.583904 
L 448.622124 396.069735 
L 451.914159 392.794086 
L 453.560177 390.796074 
L 455.206195 387.832046 
L 456.852212 385.495834 
L 458.49823 384.01015 
L 460.144248 382.359501 
L 461.790265 382.654621 
L 463.436283 380.619944 
L 465.082301 379.76758 
L 466.728319 379.506367 
L 468.374336 379.400053 
L 470.020354 373.135631 
L 471.666372 357.311904 
L 473.312389 349.478401 
L 476.604425 336.228259 
L 478.250442 326.49389 
L 479.89646 320.175397 
L 481.542478 318.076563 
L 483.188496 327.317845 
L 484.834513 326.027383 
L 486.480531 323.559194 
L 488.126549 318.446842 
L 489.772566 317.121549 
L 491.418584 315.500226 
L 493.064602 314.573621 
L 494.710619 310.804891 
L 496.356637 306.388175 
L 498.002655 302.616693 
L 499.648673 296.241376 
L 501.29469 294.169123 
L 502.940708 289.676336 
L 504.586726 283.400918 
L 506.232743 280.831913 
L 507.878761 278.934711 
L 509.524779 277.505857 
L 511.170796 279.332481 
L 512.816814 277.663502 
L 514.462832 274.126647 
L 516.10885 275.147652 
L 517.754867 271.972825 
L 519.400885 273.744454 
L 521.046903 276.352876 
L 522.69292 275.901946 
L 524.338938 274.906603 
L 525.984956 275.911114 
L 527.630973 273.106559 
L 529.276991 275.563751 
L 530.923009 273.336605 
L 532.569027 272.994741 
L 534.215044 275.016587 
L 535.861062 266.444367 
L 537.50708 262.783786 
L 539.153097 261.045146 
L 540.799115 257.015203 
L 542.445133 256.998709 
L 544.09115 257.357067 
L 545.737168 260.43199 
L 547.383186 270.1297 
L 550.675221 282.958238 
L 553.967257 294.194785 
L 555.613274 302.183181 
L 557.259292 303.451644 
L 560.551327 313.3794 
L 562.197345 317.072977 
L 563.843363 323.033111 
L 565.489381 325.816584 
L 567.135398 323.843317 
L 568.781416 325.69835 
L 570.427434 328.086805 
L 572.073451 326.656116 
L 573.719469 326.942074 
L 575.365487 322.168834 
L 577.011504 320.018675 
L 578.657522 321.036928 
L 580.30354 320.673071 
L 581.949558 315.068543 
L 583.595575 310.1175 
L 585.241593 304.641291 
L 586.887611 303.569878 
L 588.533628 298.434609 
L 590.179646 292.76776 
L 591.825664 284.825191 
L 593.471681 271.566804 
L 595.117699 265.35646 
L 596.763717 260.13687 
L 598.409735 244.058352 
L 600.055752 232.015268 
L 601.70177 215.186113 
L 603.347788 202.275082 
L 604.993805 198.960946 
L 606.639823 195.072147 
L 608.285841 188.162497 
L 609.931858 191.453724 
L 611.577876 184.173801 
L 613.223894 169.194187 
L 614.869912 159.248101 
L 616.515929 143.776311 
L 618.161947 124.845576 
L 621.453982 82.934 
L 623.1 66.9288 
L 623.1 66.9288 
" style="fill:none;stroke:#4b88a2;stroke-linecap:square;stroke-width:2;"/>
   </g>
   <g id="line2d_70">
    <path clip-path="url(#pf336608e1e)" d="M 130.940708 419.718721 
L 142.462832 419.605985 
L 147.400885 419.472174 
L 153.984956 419.421766 
L 160.569027 419.280622 
L 163.861062 419.13398 
L 165.50708 418.95617 
L 167.153097 418.964421 
L 170.445133 418.743543 
L 172.09115 418.419091 
L 175.383186 417.997493 
L 177.029204 416.961822 
L 178.675221 416.207528 
L 180.321239 415.78593 
L 181.967257 415.052712 
L 183.613274 414.928062 
L 185.259292 413.108771 
L 186.90531 412.99329 
L 188.551327 413.191257 
L 190.197345 413.097775 
L 191.843363 412.770577 
L 193.489381 412.788907 
L 195.135398 412.29673 
L 196.781416 413.733835 
L 198.427434 412.823731 
L 200.073451 412.602853 
L 201.719469 412.008944 
L 203.365487 412.25091 
L 205.011504 409.728644 
L 206.657522 408.832282 
L 208.30354 408.387774 
L 209.949558 407.490501 
L 213.241593 405.007646 
L 214.887611 402.488126 
L 216.533628 403.961896 
L 218.179646 402.854735 
L 219.825664 402.614611 
L 221.471681 401.399301 
L 223.117699 400.586349 
L 224.763717 399.97778 
L 226.409735 400.126251 
L 228.055752 399.1245 
L 229.70177 400.134502 
L 231.347788 400.069428 
L 232.993805 400.601009 
L 237.931858 398.971435 
L 239.577876 398.166733 
L 241.223894 396.846945 
L 242.869912 395.797525 
L 244.515929 394.594136 
L 246.161947 394.328343 
L 247.807965 393.914996 
L 249.453982 394.796685 
L 251.1 394.787523 
L 252.746018 394.354005 
L 259.330088 389.474452 
L 262.622124 383.144038 
L 264.268142 378.928048 
L 265.914159 377.513854 
L 267.560177 375.356362 
L 269.206195 380.310158 
L 270.852212 381.767427 
L 272.49823 383.879091 
L 274.144248 386.654313 
L 275.790265 390.364391 
L 277.436283 392.547546 
L 279.082301 396.292448 
L 280.728319 392.316582 
L 282.374336 390.77591 
L 284.020354 394.627132 
L 285.666372 393.157949 
L 287.312389 389.281065 
L 290.604425 389.098674 
L 292.250442 390.322234 
L 293.89646 392.599788 
L 295.542478 389.358052 
L 297.188496 391.693347 
L 298.834513 396.632477 
L 302.126549 398.049417 
L 303.772566 397.933018 
L 305.418584 397.536165 
L 308.710619 397.135649 
L 310.356637 397.289625 
L 312.002655 396.890938 
L 316.940708 398.28038 
L 320.232743 398.565421 
L 321.878761 398.37478 
L 323.524779 398.339038 
L 325.170796 397.672729 
L 326.816814 397.334534 
L 328.462832 397.325367 
L 331.754867 398.071416 
L 333.400885 398.091581 
L 335.046903 397.347366 
L 338.338938 396.962427 
L 339.984956 396.6893 
L 341.630973 395.999163 
L 343.276991 395.175208 
L 344.923009 394.740779 
L 346.569027 394.471322 
L 351.50708 392.682274 
L 353.153097 391.844571 
L 356.445133 399.225315 
L 358.09115 390.367144 
L 359.737168 389.558772 
L 361.383186 388.445196 
L 363.029204 392.611702 
L 364.675221 390.829981 
L 366.321239 390.829981 
L 367.967257 371.254936 
L 369.613274 379.967383 
L 371.259292 378.590765 
L 372.90531 376.7064 
L 374.551327 369.571285 
L 376.197345 368.052612 
L 377.843363 368.052612 
L 379.489381 374.659809 
L 381.135398 373.872519 
L 382.781416 374.095232 
L 384.427434 381.183603 
L 386.073451 380.184597 
L 387.719469 371.683867 
L 389.365487 371.683867 
L 391.011504 375.938357 
L 392.657522 371.324591 
L 394.30354 372.241111 
L 395.949558 365.066584 
L 397.595575 364.861284 
L 399.241593 373.203458 
L 400.887611 364.947439 
L 402.533628 365.257219 
L 404.179646 366.222318 
L 405.825664 365.704486 
L 407.471681 366.514685 
L 409.117699 369.358651 
L 410.763717 369.376981 
L 412.409735 370.333829 
L 414.055752 370.054293 
L 417.347788 372.437243 
L 418.993805 374.134644 
L 420.639823 379.630099 
L 422.285841 375.600157 
L 423.931858 376.75589 
L 425.577876 379.157176 
L 427.223894 380.491631 
L 428.869912 383.4914 
L 430.515929 383.928582 
L 432.161947 377.892377 
L 433.807965 383.139457 
L 435.453982 383.231111 
L 437.1 383.865343 
L 438.746018 383.396083 
L 440.392035 380.973721 
L 442.038053 381.390738 
L 443.684071 381.579538 
L 445.330088 383.039559 
L 446.976106 383.304429 
L 448.622124 383.037724 
L 450.268142 383.731531 
L 451.914159 387.618495 
L 453.560177 384.418923 
L 455.206195 384.630639 
L 456.852212 378.956456 
L 458.49823 384.743369 
L 461.790265 386.361029 
L 463.436283 383.233857 
L 465.082301 387.447108 
L 466.728319 390.277325 
L 468.374336 397.995346 
L 470.020354 395.001068 
L 471.666372 400.09509 
L 473.312389 398.770722 
L 474.958407 400.220657 
L 476.604425 400.334304 
L 478.250442 400.634922 
L 479.89646 401.107845 
L 481.542478 397.252042 
L 483.188496 394.243104 
L 484.834513 398.646989 
L 486.480531 397.755215 
L 488.126549 400.440618 
L 489.772566 397.660815 
L 491.418584 400.366382 
L 493.064602 404.762934 
L 494.710619 404.901326 
L 496.356637 403.686023 
L 498.002655 404.237769 
L 499.648673 401.266408 
L 502.940708 401.273741 
L 504.586726 400.757737 
L 506.232743 398.496677 
L 507.878761 401.361725 
L 509.524779 401.675174 
L 511.170796 402.884068 
L 512.816814 405.933328 
L 514.462832 403.489884 
L 516.10885 404.089292 
L 517.754867 407.091814 
L 519.400885 407.091814 
L 521.046903 408.795623 
L 522.69292 402.049116 
L 524.338938 401.58719 
L 525.984956 404.030633 
L 529.276991 403.683271 
L 530.923009 401.554194 
L 532.569027 400.459865 
L 534.215044 407.22379 
L 535.861062 407.55374 
L 537.50708 405.508978 
L 540.799115 406.082722 
L 542.445133 406.276109 
L 544.09115 406.218368 
L 545.737168 406.439246 
L 547.383186 408.799293 
L 550.675221 405.585965 
L 552.321239 407.647222 
L 553.967257 408.126561 
L 555.613274 408.465679 
L 557.259292 408.264959 
L 560.551327 408.336449 
L 562.197345 408.467508 
L 563.843363 406.485991 
L 565.489381 407.942342 
L 567.135398 407.770037 
L 568.781416 409.494928 
L 570.427434 406.314603 
L 572.073451 409.896368 
L 575.365487 410.418781 
L 577.011504 409.296961 
L 578.657522 410.282218 
L 580.30354 407.799363 
L 581.949558 408.697553 
L 583.595575 408.697553 
L 586.887611 412.162919 
L 588.533628 409.591163 
L 590.179646 408.530747 
L 591.825664 411.013601 
L 593.471681 410.246476 
L 595.117699 410.246476 
L 596.763717 411.92554 
L 598.409735 406.021318 
L 600.055752 408.231964 
L 601.70177 408.414354 
L 603.347788 406.876428 
L 604.993805 409.925694 
L 606.639823 406.416336 
L 608.285841 404.982895 
L 609.931858 410.887123 
L 611.577876 410.435282 
L 613.223894 410.166736 
L 614.869912 410.249229 
L 616.515929 405.995656 
L 618.161947 409.505014 
L 619.807965 410.938448 
L 621.453982 408.223713 
L 623.1 408.897356 
L 623.1 408.897356 
" style="fill:none;stroke:#d3d4d9;stroke-linecap:square;stroke-width:2;"/>
   </g>
   <g id="patch_3">
    <path d="M 65.1 437.3688 
L 65.1 49.2888 
" style="fill:none;stroke:#000000;stroke-linecap:square;stroke-linejoin:miter;stroke-width:0.8;"/>
   </g>
   <g id="patch_4">
    <path d="M 623.1 437.3688 
L 623.1 49.2888 
" style="fill:none;stroke:#000000;stroke-linecap:square;stroke-linejoin:miter;stroke-width:0.8;"/>
   </g>
   <g id="patch_5">
    <path d="M 65.1 437.3688 
L 623.1 437.3688 
" style="fill:none;stroke:#000000;stroke-linecap:square;stroke-linejoin:miter;stroke-width:0.8;"/>
   </g>
   <g id="patch_6">
    <path d="M 65.1 49.2888 
L 623.1 49.2888 
" style="fill:none;stroke:#000000;stroke-linecap:square;stroke-linejoin:miter;stroke-width:0.8;"/>
   </g>
   <g id="text_20">
    <!-- Latest update:  -->
    <g style="fill:#252627;" transform="translate(47.1 491.690987)scale(0.1 -0.1)">
     <defs>
      <path d="M 9.8125 72.90625 
L 19.671875 72.90625 
L 19.671875 8.296875 
L 55.171875 8.296875 
L 55.171875 0 
L 9.8125 0 
z
" id="DejaVuSans-76"/>
      <path d="M 44.28125 53.078125 
L 44.28125 44.578125 
Q 40.484375 46.53125 36.375 47.5 
Q 32.28125 48.484375 27.875 48.484375 
Q 21.1875 48.484375 17.84375 46.4375 
Q 14.5 44.390625 14.5 40.28125 
Q 14.5 37.15625 16.890625 35.375 
Q 19.28125 33.59375 26.515625 31.984375 
L 29.59375 31.296875 
Q 39.15625 29.25 43.1875 25.515625 
Q 47.21875 21.78125 47.21875 15.09375 
Q 47.21875 7.46875 41.1875 3.015625 
Q 35.15625 -1.421875 24.609375 -1.421875 
Q 20.21875 -1.421875 15.453125 -0.5625 
Q 10.6875 0.296875 5.421875 2 
L 5.421875 11.28125 
Q 10.40625 8.6875 15.234375 7.390625 
Q 20.0625 6.109375 24.8125 6.109375 
Q 31.15625 6.109375 34.5625 8.28125 
Q 37.984375 10.453125 37.984375 14.40625 
Q 37.984375 18.0625 35.515625 20.015625 
Q 33.0625 21.96875 24.703125 23.78125 
L 21.578125 24.515625 
Q 13.234375 26.265625 9.515625 29.90625 
Q 5.8125 33.546875 5.8125 39.890625 
Q 5.8125 47.609375 11.28125 51.796875 
Q 16.75 56 26.8125 56 
Q 31.78125 56 36.171875 55.265625 
Q 40.578125 54.546875 44.28125 53.078125 
z
" id="DejaVuSans-115"/>
      <path id="DejaVuSans-32"/>
      <path d="M 11.71875 12.40625 
L 22.015625 12.40625 
L 22.015625 0 
L 11.71875 0 
z
M 11.71875 51.703125 
L 22.015625 51.703125 
L 22.015625 39.3125 
L 11.71875 39.3125 
z
" id="DejaVuSans-58"/>
     </defs>
     <use xlink:href="#DejaVuSans-76"/>
     <use x="55.712891" xlink:href="#DejaVuSans-97"/>
     <use x="116.992188" xlink:href="#DejaVuSans-116"/>
     <use x="156.201172" xlink:href="#DejaVuSans-101"/>
     <use x="217.724609" xlink:href="#DejaVuSans-115"/>
     <use x="269.824219" xlink:href="#DejaVuSans-116"/>
     <use x="309.033203" xlink:href="#DejaVuSans-32"/>
     <use x="340.820312" xlink:href="#DejaVuSans-117"/>
     <use x="404.199219" xlink:href="#DejaVuSans-112"/>
     <use x="467.675781" xlink:href="#DejaVuSans-100"/>
     <use x="531.152344" xlink:href="#DejaVuSans-97"/>
     <use x="592.431641" xlink:href="#DejaVuSans-116"/>
     <use x="631.640625" xlink:href="#DejaVuSans-101"/>
     <use x="693.164062" xlink:href="#DejaVuSans-58"/>
     <use x="726.855469" xlink:href="#DejaVuSans-32"/>
    </g>
    <!-- 5-1-2021 -->
    <g style="fill:#252627;" transform="translate(47.1 502.8888)scale(0.1 -0.1)">
     <defs>
      <path d="M 4.890625 31.390625 
L 31.203125 31.390625 
L 31.203125 23.390625 
L 4.890625 23.390625 
z
" id="DejaVuSans-45"/>
     </defs>
     <use xlink:href="#DejaVuSans-53"/>
     <use x="63.623047" xlink:href="#DejaVuSans-45"/>
     <use x="99.707031" xlink:href="#DejaVuSans-49"/>
     <use x="163.330078" xlink:href="#DejaVuSans-45"/>
     <use x="199.414062" xlink:href="#DejaVuSans-50"/>
     <use x="263.037109" xlink:href="#DejaVuSans-48"/>
     <use x="326.660156" xlink:href="#DejaVuSans-50"/>
     <use x="390.283203" xlink:href="#DejaVuSans-49"/>
    </g>
   </g>
   <g id="text_21">
    <!-- Daily new cases - Since beginning -->
    <g style="fill:#252627;" transform="translate(180.3705 21.789)scale(0.192 -0.192)">
     <defs>
      <path d="M 9.421875 54.6875 
L 18.40625 54.6875 
L 18.40625 0 
L 9.421875 0 
z
M 9.421875 75.984375 
L 18.40625 75.984375 
L 18.40625 64.59375 
L 9.421875 64.59375 
z
" id="DejaVuSans-105"/>
      <path d="M 4.203125 54.6875 
L 13.1875 54.6875 
L 24.421875 12.015625 
L 35.59375 54.6875 
L 46.1875 54.6875 
L 57.421875 12.015625 
L 68.609375 54.6875 
L 77.59375 54.6875 
L 63.28125 0 
L 52.6875 0 
L 40.921875 44.828125 
L 29.109375 0 
L 18.5 0 
z
" id="DejaVuSans-119"/>
     </defs>
     <use xlink:href="#DejaVuSans-68"/>
     <use x="77.001953" xlink:href="#DejaVuSans-97"/>
     <use x="138.28125" xlink:href="#DejaVuSans-105"/>
     <use x="166.064453" xlink:href="#DejaVuSans-108"/>
     <use x="193.847656" xlink:href="#DejaVuSans-121"/>
     <use x="253.027344" xlink:href="#DejaVuSans-32"/>
     <use x="284.814453" xlink:href="#DejaVuSans-110"/>
     <use x="348.193359" xlink:href="#DejaVuSans-101"/>
     <use x="409.716797" xlink:href="#DejaVuSans-119"/>
     <use x="491.503906" xlink:href="#DejaVuSans-32"/>
     <use x="523.291016" xlink:href="#DejaVuSans-99"/>
     <use x="578.271484" xlink:href="#DejaVuSans-97"/>
     <use x="639.550781" xlink:href="#DejaVuSans-115"/>
     <use x="691.650391" xlink:href="#DejaVuSans-101"/>
     <use x="753.173828" xlink:href="#DejaVuSans-115"/>
     <use x="805.273438" xlink:href="#DejaVuSans-32"/>
     <use x="837.060547" xlink:href="#DejaVuSans-45"/>
     <use x="873.144531" xlink:href="#DejaVuSans-32"/>
     <use x="904.931641" xlink:href="#DejaVuSans-83"/>
     <use x="968.408203" xlink:href="#DejaVuSans-105"/>
     <use x="996.191406" xlink:href="#DejaVuSans-110"/>
     <use x="1059.570312" xlink:href="#DejaVuSans-99"/>
     <use x="1114.550781" xlink:href="#DejaVuSans-101"/>
     <use x="1176.074219" xlink:href="#DejaVuSans-32"/>
     <use x="1207.861328" xlink:href="#DejaVuSans-98"/>
     <use x="1271.337891" xlink:href="#DejaVuSans-101"/>
     <use x="1332.861328" xlink:href="#DejaVuSans-103"/>
     <use x="1396.337891" xlink:href="#DejaVuSans-105"/>
     <use x="1424.121094" xlink:href="#DejaVuSans-110"/>
     <use x="1487.5" xlink:href="#DejaVuSans-110"/>
     <use x="1550.878906" xlink:href="#DejaVuSans-105"/>
     <use x="1578.662109" xlink:href="#DejaVuSans-110"/>
     <use x="1642.041016" xlink:href="#DejaVuSans-103"/>
    </g>
    <!-- 7-day rolling average -->
    <g style="fill:#252627;" transform="translate(241.68 43.2888)scale(0.192 -0.192)">
     <defs>
      <path d="M 8.203125 72.90625 
L 55.078125 72.90625 
L 55.078125 68.703125 
L 28.609375 0 
L 18.3125 0 
L 43.21875 64.59375 
L 8.203125 64.59375 
z
" id="DejaVuSans-55"/>
     </defs>
     <use xlink:href="#DejaVuSans-55"/>
     <use x="63.623047" xlink:href="#DejaVuSans-45"/>
     <use x="99.707031" xlink:href="#DejaVuSans-100"/>
     <use x="163.183594" xlink:href="#DejaVuSans-97"/>
     <use x="224.462891" xlink:href="#DejaVuSans-121"/>
     <use x="283.642578" xlink:href="#DejaVuSans-32"/>
     <use x="315.429688" xlink:href="#DejaVuSans-114"/>
     <use x="354.292969" xlink:href="#DejaVuSans-111"/>
     <use x="415.474609" xlink:href="#DejaVuSans-108"/>
     <use x="443.257812" xlink:href="#DejaVuSans-108"/>
     <use x="471.041016" xlink:href="#DejaVuSans-105"/>
     <use x="498.824219" xlink:href="#DejaVuSans-110"/>
     <use x="562.203125" xlink:href="#DejaVuSans-103"/>
     <use x="625.679688" xlink:href="#DejaVuSans-32"/>
     <use x="657.466797" xlink:href="#DejaVuSans-97"/>
     <use x="718.746094" xlink:href="#DejaVuSans-118"/>
     <use x="777.925781" xlink:href="#DejaVuSans-101"/>
     <use x="839.449219" xlink:href="#DejaVuSans-114"/>
     <use x="880.5625" xlink:href="#DejaVuSans-97"/>
     <use x="941.841797" xlink:href="#DejaVuSans-103"/>
     <use x="1005.318359" xlink:href="#DejaVuSans-101"/>
    </g>
   </g>
   <g id="legend_1">
    <g id="patch_7">
     <path d="M 526.2075 132.5438 
L 611.9 132.5438 
Q 615.1 132.5438 615.1 129.3438 
L 615.1 60.4888 
Q 615.1 57.2888 611.9 57.2888 
L 526.2075 57.2888 
Q 523.0075 57.2888 523.0075 60.4888 
L 523.0075 129.3438 
Q 523.0075 132.5438 526.2075 132.5438 
z
" style="fill:#ffffff;opacity:0.2;stroke:#cccccc;stroke-linejoin:miter;"/>
    </g>
    <g id="line2d_71">
     <path d="M 529.4075 70.2463 
L 561.4075 70.2463 
" style="fill:none;stroke:#bb0a21;stroke-linecap:square;stroke-width:2;"/>
    </g>
    <g id="line2d_72"/>
    <g id="text_22">
     <!-- ESP -->
     <g style="fill:#252627;" transform="translate(574.2075 75.8463)scale(0.16 -0.16)">
      <defs>
       <path d="M 9.8125 72.90625 
L 55.90625 72.90625 
L 55.90625 64.59375 
L 19.671875 64.59375 
L 19.671875 43.015625 
L 54.390625 43.015625 
L 54.390625 34.71875 
L 19.671875 34.71875 
L 19.671875 8.296875 
L 56.78125 8.296875 
L 56.78125 0 
L 9.8125 0 
z
" id="DejaVuSans-69"/>
       <path d="M 19.671875 64.796875 
L 19.671875 37.40625 
L 32.078125 37.40625 
Q 38.96875 37.40625 42.71875 40.96875 
Q 46.484375 44.53125 46.484375 51.125 
Q 46.484375 57.671875 42.71875 61.234375 
Q 38.96875 64.796875 32.078125 64.796875 
z
M 9.8125 72.90625 
L 32.078125 72.90625 
Q 44.34375 72.90625 50.609375 67.359375 
Q 56.890625 61.8125 56.890625 51.125 
Q 56.890625 40.328125 50.609375 34.8125 
Q 44.34375 29.296875 32.078125 29.296875 
L 19.671875 29.296875 
L 19.671875 0 
L 9.8125 0 
z
" id="DejaVuSans-80"/>
      </defs>
      <use xlink:href="#DejaVuSans-69"/>
      <use x="63.183594" xlink:href="#DejaVuSans-83"/>
      <use x="126.660156" xlink:href="#DejaVuSans-80"/>
     </g>
    </g>
    <g id="line2d_73">
     <path d="M 529.4075 93.7313 
L 561.4075 93.7313 
" style="fill:none;stroke:#4b88a2;stroke-linecap:square;stroke-width:2;"/>
    </g>
    <g id="line2d_74"/>
    <g id="text_23">
     <!-- GBR -->
     <g style="fill:#252627;" transform="translate(574.2075 99.3313)scale(0.16 -0.16)">
      <defs>
       <path d="M 59.515625 10.40625 
L 59.515625 29.984375 
L 43.40625 29.984375 
L 43.40625 38.09375 
L 69.28125 38.09375 
L 69.28125 6.78125 
Q 63.578125 2.734375 56.6875 0.65625 
Q 49.8125 -1.421875 42 -1.421875 
Q 24.90625 -1.421875 15.25 8.5625 
Q 5.609375 18.5625 5.609375 36.375 
Q 5.609375 54.25 15.25 64.234375 
Q 24.90625 74.21875 42 74.21875 
Q 49.125 74.21875 55.546875 72.453125 
Q 61.96875 70.703125 67.390625 67.28125 
L 67.390625 56.78125 
Q 61.921875 61.421875 55.765625 63.765625 
Q 49.609375 66.109375 42.828125 66.109375 
Q 29.4375 66.109375 22.71875 58.640625 
Q 16.015625 51.171875 16.015625 36.375 
Q 16.015625 21.625 22.71875 14.15625 
Q 29.4375 6.6875 42.828125 6.6875 
Q 48.046875 6.6875 52.140625 7.59375 
Q 56.25 8.5 59.515625 10.40625 
z
" id="DejaVuSans-71"/>
       <path d="M 19.671875 34.8125 
L 19.671875 8.109375 
L 35.5 8.109375 
Q 43.453125 8.109375 47.28125 11.40625 
Q 51.125 14.703125 51.125 21.484375 
Q 51.125 28.328125 47.28125 31.5625 
Q 43.453125 34.8125 35.5 34.8125 
z
M 19.671875 64.796875 
L 19.671875 42.828125 
L 34.28125 42.828125 
Q 41.5 42.828125 45.03125 45.53125 
Q 48.578125 48.25 48.578125 53.8125 
Q 48.578125 59.328125 45.03125 62.0625 
Q 41.5 64.796875 34.28125 64.796875 
z
M 9.8125 72.90625 
L 35.015625 72.90625 
Q 46.296875 72.90625 52.390625 68.21875 
Q 58.5 63.53125 58.5 54.890625 
Q 58.5 48.1875 55.375 44.234375 
Q 52.25 40.28125 46.1875 39.3125 
Q 53.46875 37.75 57.5 32.78125 
Q 61.53125 27.828125 61.53125 20.40625 
Q 61.53125 10.640625 54.890625 5.3125 
Q 48.25 0 35.984375 0 
L 9.8125 0 
z
" id="DejaVuSans-66"/>
       <path d="M 44.390625 34.1875 
Q 47.5625 33.109375 50.5625 29.59375 
Q 53.5625 26.078125 56.59375 19.921875 
L 66.609375 0 
L 56 0 
L 46.6875 18.703125 
Q 43.0625 26.03125 39.671875 28.421875 
Q 36.28125 30.8125 30.421875 30.8125 
L 19.671875 30.8125 
L 19.671875 0 
L 9.8125 0 
L 9.8125 72.90625 
L 32.078125 72.90625 
Q 44.578125 72.90625 50.734375 67.671875 
Q 56.890625 62.453125 56.890625 51.90625 
Q 56.890625 45.015625 53.6875 40.46875 
Q 50.484375 35.9375 44.390625 34.1875 
z
M 19.671875 64.796875 
L 19.671875 38.921875 
L 32.078125 38.921875 
Q 39.203125 38.921875 42.84375 42.21875 
Q 46.484375 45.515625 46.484375 51.90625 
Q 46.484375 58.296875 42.84375 61.546875 
Q 39.203125 64.796875 32.078125 64.796875 
z
" id="DejaVuSans-82"/>
      </defs>
      <use xlink:href="#DejaVuSans-71"/>
      <use x="77.490234" xlink:href="#DejaVuSans-66"/>
      <use x="146.09375" xlink:href="#DejaVuSans-82"/>
     </g>
    </g>
    <g id="line2d_75">
     <path d="M 529.4075 117.2163 
L 561.4075 117.2163 
" style="fill:none;stroke:#d3d4d9;stroke-linecap:square;stroke-width:2;"/>
    </g>
    <g id="line2d_76"/>
    <g id="text_24">
     <!-- PER -->
     <g style="fill:#252627;" transform="translate(574.2075 122.8163)scale(0.16 -0.16)">
      <use xlink:href="#DejaVuSans-80"/>
      <use x="60.302734" xlink:href="#DejaVuSans-69"/>
      <use x="123.486328" xlink:href="#DejaVuSans-82"/>
     </g>
    </g>
   </g>
  </g>
 </g>
 <defs>
  <clipPath id="pf336608e1e">
   <rect height="388.08" width="558" x="65.1" y="49.2888"/>
  </clipPath>
 </defs>
</svg>
