<?xml version="1.0" encoding="utf-8" standalone="no"?>
<!DOCTYPE svg PUBLIC "-//W3C//DTD SVG 1.1//EN"
  "http://www.w3.org/Graphics/SVG/1.1/DTD/svg11.dtd">
<!-- Created with matplotlib (https://matplotlib.org/) -->
<svg height="512.168487pt" version="1.1" viewBox="0 0 630.3 512.168487" width="630.3pt" xmlns="http://www.w3.org/2000/svg" xmlns:xlink="http://www.w3.org/1999/xlink">
 <metadata>
  <rdf:RDF xmlns:cc="http://creativecommons.org/ns#" xmlns:dc="http://purl.org/dc/elements/1.1/" xmlns:rdf="http://www.w3.org/1999/02/22-rdf-syntax-ns#">
   <cc:Work>
    <dc:type rdf:resource="http://purl.org/dc/dcmitype/StillImage"/>
    <dc:date>2020-10-25T09:00:13.243660</dc:date>
    <dc:format>image/svg+xml</dc:format>
    <dc:creator>
     <cc:Agent>
      <dc:title>Matplotlib v3.3.1, https://matplotlib.org/</dc:title>
     </cc:Agent>
    </dc:creator>
   </cc:Work>
  </rdf:RDF>
 </metadata>
 <defs>
  <style type="text/css">*{stroke-linecap:butt;stroke-linejoin:round;}</style>
 </defs>
 <g id="figure_1">
  <g id="patch_1">
   <path d="M 0 512.168487 
L 630.3 512.168487 
L 630.3 0 
L 0 0 
z
" style="fill:none;"/>
  </g>
  <g id="axes_1">
   <g id="patch_2">
    <path d="M 65.1 437.3688 
L 623.1 437.3688 
L 623.1 49.2888 
L 65.1 49.2888 
z
" style="fill:none;"/>
   </g>
   <g id="matplotlib.axis_1">
    <g id="xtick_1">
     <g id="line2d_1">
      <defs>
       <path d="M 0 0 
L 0 3.5 
" id="m08a3260cf4" style="stroke:#252627;stroke-width:0.8;"/>
      </defs>
      <g>
       <use style="fill:#252627;stroke:#252627;stroke-width:0.8;" x="65.1" xlink:href="#m08a3260cf4" y="437.3688"/>
      </g>
     </g>
    </g>
    <g id="xtick_2">
     <g id="line2d_2">
      <g>
       <use style="fill:#252627;stroke:#252627;stroke-width:0.8;" x="66.972483" xlink:href="#m08a3260cf4" y="437.3688"/>
      </g>
     </g>
     <g id="text_1">
      <!-- Jan -->
      <g style="fill:#252627;" transform="translate(54.639983 456.5263)scale(0.16 -0.16)">
       <defs>
        <path d="M 9.8125 72.90625 
L 19.671875 72.90625 
L 19.671875 5.078125 
Q 19.671875 -8.109375 14.671875 -14.0625 
Q 9.671875 -20.015625 -1.421875 -20.015625 
L -5.171875 -20.015625 
L -5.171875 -11.71875 
L -2.09375 -11.71875 
Q 4.4375 -11.71875 7.125 -8.046875 
Q 9.8125 -4.390625 9.8125 5.078125 
z
" id="DejaVuSans-74"/>
        <path d="M 34.28125 27.484375 
Q 23.390625 27.484375 19.1875 25 
Q 14.984375 22.515625 14.984375 16.5 
Q 14.984375 11.71875 18.140625 8.90625 
Q 21.296875 6.109375 26.703125 6.109375 
Q 34.1875 6.109375 38.703125 11.40625 
Q 43.21875 16.703125 43.21875 25.484375 
L 43.21875 27.484375 
z
M 52.203125 31.203125 
L 52.203125 0 
L 43.21875 0 
L 43.21875 8.296875 
Q 40.140625 3.328125 35.546875 0.953125 
Q 30.953125 -1.421875 24.3125 -1.421875 
Q 15.921875 -1.421875 10.953125 3.296875 
Q 6 8.015625 6 15.921875 
Q 6 25.140625 12.171875 29.828125 
Q 18.359375 34.515625 30.609375 34.515625 
L 43.21875 34.515625 
L 43.21875 35.40625 
Q 43.21875 41.609375 39.140625 45 
Q 35.0625 48.390625 27.6875 48.390625 
Q 23 48.390625 18.546875 47.265625 
Q 14.109375 46.140625 10.015625 43.890625 
L 10.015625 52.203125 
Q 14.9375 54.109375 19.578125 55.046875 
Q 24.21875 56 28.609375 56 
Q 40.484375 56 46.34375 49.84375 
Q 52.203125 43.703125 52.203125 31.203125 
z
" id="DejaVuSans-97"/>
        <path d="M 54.890625 33.015625 
L 54.890625 0 
L 45.90625 0 
L 45.90625 32.71875 
Q 45.90625 40.484375 42.875 44.328125 
Q 39.84375 48.1875 33.796875 48.1875 
Q 26.515625 48.1875 22.3125 43.546875 
Q 18.109375 38.921875 18.109375 30.90625 
L 18.109375 0 
L 9.078125 0 
L 9.078125 54.6875 
L 18.109375 54.6875 
L 18.109375 46.1875 
Q 21.34375 51.125 25.703125 53.5625 
Q 30.078125 56 35.796875 56 
Q 45.21875 56 50.046875 50.171875 
Q 54.890625 44.34375 54.890625 33.015625 
z
" id="DejaVuSans-110"/>
       </defs>
       <use xlink:href="#DejaVuSans-74"/>
       <use x="29.492188" xlink:href="#DejaVuSans-97"/>
       <use x="90.771484" xlink:href="#DejaVuSans-110"/>
      </g>
      <!-- 2020 -->
      <g style="fill:#252627;" transform="translate(46.612483 474.4428)scale(0.16 -0.16)">
       <defs>
        <path d="M 19.1875 8.296875 
L 53.609375 8.296875 
L 53.609375 0 
L 7.328125 0 
L 7.328125 8.296875 
Q 12.9375 14.109375 22.625 23.890625 
Q 32.328125 33.6875 34.8125 36.53125 
Q 39.546875 41.84375 41.421875 45.53125 
Q 43.3125 49.21875 43.3125 52.78125 
Q 43.3125 58.59375 39.234375 62.25 
Q 35.15625 65.921875 28.609375 65.921875 
Q 23.96875 65.921875 18.8125 64.3125 
Q 13.671875 62.703125 7.8125 59.421875 
L 7.8125 69.390625 
Q 13.765625 71.78125 18.9375 73 
Q 24.125 74.21875 28.421875 74.21875 
Q 39.75 74.21875 46.484375 68.546875 
Q 53.21875 62.890625 53.21875 53.421875 
Q 53.21875 48.921875 51.53125 44.890625 
Q 49.859375 40.875 45.40625 35.40625 
Q 44.1875 33.984375 37.640625 27.21875 
Q 31.109375 20.453125 19.1875 8.296875 
z
" id="DejaVuSans-50"/>
        <path d="M 31.78125 66.40625 
Q 24.171875 66.40625 20.328125 58.90625 
Q 16.5 51.421875 16.5 36.375 
Q 16.5 21.390625 20.328125 13.890625 
Q 24.171875 6.390625 31.78125 6.390625 
Q 39.453125 6.390625 43.28125 13.890625 
Q 47.125 21.390625 47.125 36.375 
Q 47.125 51.421875 43.28125 58.90625 
Q 39.453125 66.40625 31.78125 66.40625 
z
M 31.78125 74.21875 
Q 44.046875 74.21875 50.515625 64.515625 
Q 56.984375 54.828125 56.984375 36.375 
Q 56.984375 17.96875 50.515625 8.265625 
Q 44.046875 -1.421875 31.78125 -1.421875 
Q 19.53125 -1.421875 13.0625 8.265625 
Q 6.59375 17.96875 6.59375 36.375 
Q 6.59375 54.828125 13.0625 64.515625 
Q 19.53125 74.21875 31.78125 74.21875 
z
" id="DejaVuSans-48"/>
       </defs>
       <use xlink:href="#DejaVuSans-50"/>
       <use x="63.623047" xlink:href="#DejaVuSans-48"/>
       <use x="127.246094" xlink:href="#DejaVuSans-50"/>
       <use x="190.869141" xlink:href="#DejaVuSans-48"/>
      </g>
     </g>
    </g>
    <g id="xtick_3">
     <g id="line2d_3">
      <g>
       <use style="fill:#252627;stroke:#252627;stroke-width:0.8;" x="125.019463" xlink:href="#m08a3260cf4" y="437.3688"/>
      </g>
     </g>
     <g id="text_2">
      <!-- Feb -->
      <g style="fill:#252627;" transform="translate(110.856963 456.5263)scale(0.16 -0.16)">
       <defs>
        <path d="M 9.8125 72.90625 
L 51.703125 72.90625 
L 51.703125 64.59375 
L 19.671875 64.59375 
L 19.671875 43.109375 
L 48.578125 43.109375 
L 48.578125 34.8125 
L 19.671875 34.8125 
L 19.671875 0 
L 9.8125 0 
z
" id="DejaVuSans-70"/>
        <path d="M 56.203125 29.59375 
L 56.203125 25.203125 
L 14.890625 25.203125 
Q 15.484375 15.921875 20.484375 11.0625 
Q 25.484375 6.203125 34.421875 6.203125 
Q 39.59375 6.203125 44.453125 7.46875 
Q 49.3125 8.734375 54.109375 11.28125 
L 54.109375 2.78125 
Q 49.265625 0.734375 44.1875 -0.34375 
Q 39.109375 -1.421875 33.890625 -1.421875 
Q 20.796875 -1.421875 13.15625 6.1875 
Q 5.515625 13.8125 5.515625 26.8125 
Q 5.515625 40.234375 12.765625 48.109375 
Q 20.015625 56 32.328125 56 
Q 43.359375 56 49.78125 48.890625 
Q 56.203125 41.796875 56.203125 29.59375 
z
M 47.21875 32.234375 
Q 47.125 39.59375 43.09375 43.984375 
Q 39.0625 48.390625 32.421875 48.390625 
Q 24.90625 48.390625 20.390625 44.140625 
Q 15.875 39.890625 15.1875 32.171875 
z
" id="DejaVuSans-101"/>
        <path d="M 48.6875 27.296875 
Q 48.6875 37.203125 44.609375 42.84375 
Q 40.53125 48.484375 33.40625 48.484375 
Q 26.265625 48.484375 22.1875 42.84375 
Q 18.109375 37.203125 18.109375 27.296875 
Q 18.109375 17.390625 22.1875 11.75 
Q 26.265625 6.109375 33.40625 6.109375 
Q 40.53125 6.109375 44.609375 11.75 
Q 48.6875 17.390625 48.6875 27.296875 
z
M 18.109375 46.390625 
Q 20.953125 51.265625 25.265625 53.625 
Q 29.59375 56 35.59375 56 
Q 45.5625 56 51.78125 48.09375 
Q 58.015625 40.1875 58.015625 27.296875 
Q 58.015625 14.40625 51.78125 6.484375 
Q 45.5625 -1.421875 35.59375 -1.421875 
Q 29.59375 -1.421875 25.265625 0.953125 
Q 20.953125 3.328125 18.109375 8.203125 
L 18.109375 0 
L 9.078125 0 
L 9.078125 75.984375 
L 18.109375 75.984375 
z
" id="DejaVuSans-98"/>
       </defs>
       <use xlink:href="#DejaVuSans-70"/>
       <use x="52.019531" xlink:href="#DejaVuSans-101"/>
       <use x="113.542969" xlink:href="#DejaVuSans-98"/>
      </g>
     </g>
    </g>
    <g id="xtick_4">
     <g id="line2d_4">
      <g>
       <use style="fill:#252627;stroke:#252627;stroke-width:0.8;" x="179.321477" xlink:href="#m08a3260cf4" y="437.3688"/>
      </g>
     </g>
     <g id="text_3">
      <!-- Mar -->
      <g style="fill:#252627;" transform="translate(164.227727 456.5263)scale(0.16 -0.16)">
       <defs>
        <path d="M 9.8125 72.90625 
L 24.515625 72.90625 
L 43.109375 23.296875 
L 61.8125 72.90625 
L 76.515625 72.90625 
L 76.515625 0 
L 66.890625 0 
L 66.890625 64.015625 
L 48.09375 14.015625 
L 38.1875 14.015625 
L 19.390625 64.015625 
L 19.390625 0 
L 9.8125 0 
z
" id="DejaVuSans-77"/>
        <path d="M 41.109375 46.296875 
Q 39.59375 47.171875 37.8125 47.578125 
Q 36.03125 48 33.890625 48 
Q 26.265625 48 22.1875 43.046875 
Q 18.109375 38.09375 18.109375 28.8125 
L 18.109375 0 
L 9.078125 0 
L 9.078125 54.6875 
L 18.109375 54.6875 
L 18.109375 46.1875 
Q 20.953125 51.171875 25.484375 53.578125 
Q 30.03125 56 36.53125 56 
Q 37.453125 56 38.578125 55.875 
Q 39.703125 55.765625 41.0625 55.515625 
z
" id="DejaVuSans-114"/>
       </defs>
       <use xlink:href="#DejaVuSans-77"/>
       <use x="86.279297" xlink:href="#DejaVuSans-97"/>
       <use x="147.558594" xlink:href="#DejaVuSans-114"/>
      </g>
     </g>
    </g>
    <g id="xtick_5">
     <g id="line2d_5">
      <g>
       <use style="fill:#252627;stroke:#252627;stroke-width:0.8;" x="237.368456" xlink:href="#m08a3260cf4" y="437.3688"/>
      </g>
     </g>
     <g id="text_4">
      <!-- Apr -->
      <g style="fill:#252627;" transform="translate(223.528456 456.5263)scale(0.16 -0.16)">
       <defs>
        <path d="M 34.1875 63.1875 
L 20.796875 26.90625 
L 47.609375 26.90625 
z
M 28.609375 72.90625 
L 39.796875 72.90625 
L 67.578125 0 
L 57.328125 0 
L 50.6875 18.703125 
L 17.828125 18.703125 
L 11.1875 0 
L 0.78125 0 
z
" id="DejaVuSans-65"/>
        <path d="M 18.109375 8.203125 
L 18.109375 -20.796875 
L 9.078125 -20.796875 
L 9.078125 54.6875 
L 18.109375 54.6875 
L 18.109375 46.390625 
Q 20.953125 51.265625 25.265625 53.625 
Q 29.59375 56 35.59375 56 
Q 45.5625 56 51.78125 48.09375 
Q 58.015625 40.1875 58.015625 27.296875 
Q 58.015625 14.40625 51.78125 6.484375 
Q 45.5625 -1.421875 35.59375 -1.421875 
Q 29.59375 -1.421875 25.265625 0.953125 
Q 20.953125 3.328125 18.109375 8.203125 
z
M 48.6875 27.296875 
Q 48.6875 37.203125 44.609375 42.84375 
Q 40.53125 48.484375 33.40625 48.484375 
Q 26.265625 48.484375 22.1875 42.84375 
Q 18.109375 37.203125 18.109375 27.296875 
Q 18.109375 17.390625 22.1875 11.75 
Q 26.265625 6.109375 33.40625 6.109375 
Q 40.53125 6.109375 44.609375 11.75 
Q 48.6875 17.390625 48.6875 27.296875 
z
" id="DejaVuSans-112"/>
       </defs>
       <use xlink:href="#DejaVuSans-65"/>
       <use x="68.408203" xlink:href="#DejaVuSans-112"/>
       <use x="131.884766" xlink:href="#DejaVuSans-114"/>
      </g>
     </g>
    </g>
    <g id="xtick_6">
     <g id="line2d_6">
      <g>
       <use style="fill:#252627;stroke:#252627;stroke-width:0.8;" x="293.542953" xlink:href="#m08a3260cf4" y="437.3688"/>
      </g>
     </g>
     <g id="text_5">
      <!-- May -->
      <g style="fill:#252627;" transform="translate(277.002953 456.5263)scale(0.16 -0.16)">
       <defs>
        <path d="M 32.171875 -5.078125 
Q 28.375 -14.84375 24.75 -17.8125 
Q 21.140625 -20.796875 15.09375 -20.796875 
L 7.90625 -20.796875 
L 7.90625 -13.28125 
L 13.1875 -13.28125 
Q 16.890625 -13.28125 18.9375 -11.515625 
Q 21 -9.765625 23.484375 -3.21875 
L 25.09375 0.875 
L 2.984375 54.6875 
L 12.5 54.6875 
L 29.59375 11.921875 
L 46.6875 54.6875 
L 56.203125 54.6875 
z
" id="DejaVuSans-121"/>
       </defs>
       <use xlink:href="#DejaVuSans-77"/>
       <use x="86.279297" xlink:href="#DejaVuSans-97"/>
       <use x="147.558594" xlink:href="#DejaVuSans-121"/>
      </g>
     </g>
    </g>
    <g id="xtick_7">
     <g id="line2d_7">
      <g>
       <use style="fill:#252627;stroke:#252627;stroke-width:0.8;" x="351.589933" xlink:href="#m08a3260cf4" y="437.3688"/>
      </g>
     </g>
     <g id="text_6">
      <!-- Jun -->
      <g style="fill:#252627;" transform="translate(339.089933 456.5263)scale(0.16 -0.16)">
       <defs>
        <path d="M 8.5 21.578125 
L 8.5 54.6875 
L 17.484375 54.6875 
L 17.484375 21.921875 
Q 17.484375 14.15625 20.5 10.265625 
Q 23.53125 6.390625 29.59375 6.390625 
Q 36.859375 6.390625 41.078125 11.03125 
Q 45.3125 15.671875 45.3125 23.6875 
L 45.3125 54.6875 
L 54.296875 54.6875 
L 54.296875 0 
L 45.3125 0 
L 45.3125 8.40625 
Q 42.046875 3.421875 37.71875 1 
Q 33.40625 -1.421875 27.6875 -1.421875 
Q 18.265625 -1.421875 13.375 4.4375 
Q 8.5 10.296875 8.5 21.578125 
z
M 31.109375 56 
z
" id="DejaVuSans-117"/>
       </defs>
       <use xlink:href="#DejaVuSans-74"/>
       <use x="29.492188" xlink:href="#DejaVuSans-117"/>
       <use x="92.871094" xlink:href="#DejaVuSans-110"/>
      </g>
     </g>
    </g>
    <g id="xtick_8">
     <g id="line2d_8">
      <g>
       <use style="fill:#252627;stroke:#252627;stroke-width:0.8;" x="407.76443" xlink:href="#m08a3260cf4" y="437.3688"/>
      </g>
     </g>
     <g id="text_7">
      <!-- Jul -->
      <g style="fill:#252627;" transform="translate(398.11193 456.5263)scale(0.16 -0.16)">
       <defs>
        <path d="M 9.421875 75.984375 
L 18.40625 75.984375 
L 18.40625 0 
L 9.421875 0 
z
" id="DejaVuSans-108"/>
       </defs>
       <use xlink:href="#DejaVuSans-74"/>
       <use x="29.492188" xlink:href="#DejaVuSans-117"/>
       <use x="92.871094" xlink:href="#DejaVuSans-108"/>
      </g>
     </g>
    </g>
    <g id="xtick_9">
     <g id="line2d_9">
      <g>
       <use style="fill:#252627;stroke:#252627;stroke-width:0.8;" x="465.811409" xlink:href="#m08a3260cf4" y="437.3688"/>
      </g>
     </g>
     <g id="text_8">
      <!-- Aug -->
      <g style="fill:#252627;" transform="translate(450.190159 456.5263)scale(0.16 -0.16)">
       <defs>
        <path d="M 45.40625 27.984375 
Q 45.40625 37.75 41.375 43.109375 
Q 37.359375 48.484375 30.078125 48.484375 
Q 22.859375 48.484375 18.828125 43.109375 
Q 14.796875 37.75 14.796875 27.984375 
Q 14.796875 18.265625 18.828125 12.890625 
Q 22.859375 7.515625 30.078125 7.515625 
Q 37.359375 7.515625 41.375 12.890625 
Q 45.40625 18.265625 45.40625 27.984375 
z
M 54.390625 6.78125 
Q 54.390625 -7.171875 48.1875 -13.984375 
Q 42 -20.796875 29.203125 -20.796875 
Q 24.46875 -20.796875 20.265625 -20.09375 
Q 16.0625 -19.390625 12.109375 -17.921875 
L 12.109375 -9.1875 
Q 16.0625 -11.328125 19.921875 -12.34375 
Q 23.78125 -13.375 27.78125 -13.375 
Q 36.625 -13.375 41.015625 -8.765625 
Q 45.40625 -4.15625 45.40625 5.171875 
L 45.40625 9.625 
Q 42.625 4.78125 38.28125 2.390625 
Q 33.9375 0 27.875 0 
Q 17.828125 0 11.671875 7.65625 
Q 5.515625 15.328125 5.515625 27.984375 
Q 5.515625 40.671875 11.671875 48.328125 
Q 17.828125 56 27.875 56 
Q 33.9375 56 38.28125 53.609375 
Q 42.625 51.21875 45.40625 46.390625 
L 45.40625 54.6875 
L 54.390625 54.6875 
z
" id="DejaVuSans-103"/>
       </defs>
       <use xlink:href="#DejaVuSans-65"/>
       <use x="68.408203" xlink:href="#DejaVuSans-117"/>
       <use x="131.787109" xlink:href="#DejaVuSans-103"/>
      </g>
     </g>
    </g>
    <g id="xtick_10">
     <g id="line2d_10">
      <g>
       <use style="fill:#252627;stroke:#252627;stroke-width:0.8;" x="523.858389" xlink:href="#m08a3260cf4" y="437.3688"/>
      </g>
     </g>
     <g id="text_9">
      <!-- Sep -->
      <g style="fill:#252627;" transform="translate(508.778389 456.5263)scale(0.16 -0.16)">
       <defs>
        <path d="M 53.515625 70.515625 
L 53.515625 60.890625 
Q 47.90625 63.578125 42.921875 64.890625 
Q 37.9375 66.21875 33.296875 66.21875 
Q 25.25 66.21875 20.875 63.09375 
Q 16.5 59.96875 16.5 54.203125 
Q 16.5 49.359375 19.40625 46.890625 
Q 22.3125 44.4375 30.421875 42.921875 
L 36.375 41.703125 
Q 47.40625 39.59375 52.65625 34.296875 
Q 57.90625 29 57.90625 20.125 
Q 57.90625 9.515625 50.796875 4.046875 
Q 43.703125 -1.421875 29.984375 -1.421875 
Q 24.8125 -1.421875 18.96875 -0.25 
Q 13.140625 0.921875 6.890625 3.21875 
L 6.890625 13.375 
Q 12.890625 10.015625 18.65625 8.296875 
Q 24.421875 6.59375 29.984375 6.59375 
Q 38.421875 6.59375 43.015625 9.90625 
Q 47.609375 13.234375 47.609375 19.390625 
Q 47.609375 24.75 44.3125 27.78125 
Q 41.015625 30.8125 33.5 32.328125 
L 27.484375 33.5 
Q 16.453125 35.6875 11.515625 40.375 
Q 6.59375 45.0625 6.59375 53.421875 
Q 6.59375 63.09375 13.40625 68.65625 
Q 20.21875 74.21875 32.171875 74.21875 
Q 37.3125 74.21875 42.625 73.28125 
Q 47.953125 72.359375 53.515625 70.515625 
z
" id="DejaVuSans-83"/>
       </defs>
       <use xlink:href="#DejaVuSans-83"/>
       <use x="63.476562" xlink:href="#DejaVuSans-101"/>
       <use x="125" xlink:href="#DejaVuSans-112"/>
      </g>
     </g>
    </g>
    <g id="xtick_11">
     <g id="line2d_11">
      <g>
       <use style="fill:#252627;stroke:#252627;stroke-width:0.8;" x="580.032886" xlink:href="#m08a3260cf4" y="437.3688"/>
      </g>
     </g>
     <g id="text_10">
      <!-- Oct -->
      <g style="fill:#252627;" transform="translate(566.200386 456.5263)scale(0.16 -0.16)">
       <defs>
        <path d="M 39.40625 66.21875 
Q 28.65625 66.21875 22.328125 58.203125 
Q 16.015625 50.203125 16.015625 36.375 
Q 16.015625 22.609375 22.328125 14.59375 
Q 28.65625 6.59375 39.40625 6.59375 
Q 50.140625 6.59375 56.421875 14.59375 
Q 62.703125 22.609375 62.703125 36.375 
Q 62.703125 50.203125 56.421875 58.203125 
Q 50.140625 66.21875 39.40625 66.21875 
z
M 39.40625 74.21875 
Q 54.734375 74.21875 63.90625 63.9375 
Q 73.09375 53.65625 73.09375 36.375 
Q 73.09375 19.140625 63.90625 8.859375 
Q 54.734375 -1.421875 39.40625 -1.421875 
Q 24.03125 -1.421875 14.8125 8.828125 
Q 5.609375 19.09375 5.609375 36.375 
Q 5.609375 53.65625 14.8125 63.9375 
Q 24.03125 74.21875 39.40625 74.21875 
z
" id="DejaVuSans-79"/>
        <path d="M 48.78125 52.59375 
L 48.78125 44.1875 
Q 44.96875 46.296875 41.140625 47.34375 
Q 37.3125 48.390625 33.40625 48.390625 
Q 24.65625 48.390625 19.8125 42.84375 
Q 14.984375 37.3125 14.984375 27.296875 
Q 14.984375 17.28125 19.8125 11.734375 
Q 24.65625 6.203125 33.40625 6.203125 
Q 37.3125 6.203125 41.140625 7.25 
Q 44.96875 8.296875 48.78125 10.40625 
L 48.78125 2.09375 
Q 45.015625 0.34375 40.984375 -0.53125 
Q 36.96875 -1.421875 32.421875 -1.421875 
Q 20.0625 -1.421875 12.78125 6.34375 
Q 5.515625 14.109375 5.515625 27.296875 
Q 5.515625 40.671875 12.859375 48.328125 
Q 20.21875 56 33.015625 56 
Q 37.15625 56 41.109375 55.140625 
Q 45.0625 54.296875 48.78125 52.59375 
z
" id="DejaVuSans-99"/>
        <path d="M 18.3125 70.21875 
L 18.3125 54.6875 
L 36.8125 54.6875 
L 36.8125 47.703125 
L 18.3125 47.703125 
L 18.3125 18.015625 
Q 18.3125 11.328125 20.140625 9.421875 
Q 21.96875 7.515625 27.59375 7.515625 
L 36.8125 7.515625 
L 36.8125 0 
L 27.59375 0 
Q 17.1875 0 13.234375 3.875 
Q 9.28125 7.765625 9.28125 18.015625 
L 9.28125 47.703125 
L 2.6875 47.703125 
L 2.6875 54.6875 
L 9.28125 54.6875 
L 9.28125 70.21875 
z
" id="DejaVuSans-116"/>
       </defs>
       <use xlink:href="#DejaVuSans-79"/>
       <use x="78.710938" xlink:href="#DejaVuSans-99"/>
       <use x="133.691406" xlink:href="#DejaVuSans-116"/>
      </g>
     </g>
    </g>
    <g id="xtick_12">
     <g id="line2d_12">
      <g>
       <use style="fill:#252627;stroke:#252627;stroke-width:0.8;" x="623.1" xlink:href="#m08a3260cf4" y="437.3688"/>
      </g>
     </g>
    </g>
    <g id="xtick_13">
     <g id="line2d_13">
      <defs>
       <path d="M 0 0 
L 0 2 
" id="m2d486253df" style="stroke:#252627;stroke-width:0.6;"/>
      </defs>
      <g>
       <use style="fill:#252627;stroke:#252627;stroke-width:0.6;" x="76.334899" xlink:href="#m2d486253df" y="437.3688"/>
      </g>
     </g>
    </g>
    <g id="xtick_14">
     <g id="line2d_14">
      <g>
       <use style="fill:#252627;stroke:#252627;stroke-width:0.6;" x="89.442282" xlink:href="#m2d486253df" y="437.3688"/>
      </g>
     </g>
    </g>
    <g id="xtick_15">
     <g id="line2d_15">
      <g>
       <use style="fill:#252627;stroke:#252627;stroke-width:0.6;" x="102.549664" xlink:href="#m2d486253df" y="437.3688"/>
      </g>
     </g>
    </g>
    <g id="xtick_16">
     <g id="line2d_16">
      <g>
       <use style="fill:#252627;stroke:#252627;stroke-width:0.6;" x="115.657047" xlink:href="#m2d486253df" y="437.3688"/>
      </g>
     </g>
    </g>
    <g id="xtick_17">
     <g id="line2d_17">
      <g>
       <use style="fill:#252627;stroke:#252627;stroke-width:0.6;" x="128.76443" xlink:href="#m2d486253df" y="437.3688"/>
      </g>
     </g>
    </g>
    <g id="xtick_18">
     <g id="line2d_18">
      <g>
       <use style="fill:#252627;stroke:#252627;stroke-width:0.6;" x="141.871812" xlink:href="#m2d486253df" y="437.3688"/>
      </g>
     </g>
    </g>
    <g id="xtick_19">
     <g id="line2d_19">
      <g>
       <use style="fill:#252627;stroke:#252627;stroke-width:0.6;" x="154.979195" xlink:href="#m2d486253df" y="437.3688"/>
      </g>
     </g>
    </g>
    <g id="xtick_20">
     <g id="line2d_20">
      <g>
       <use style="fill:#252627;stroke:#252627;stroke-width:0.6;" x="168.086577" xlink:href="#m2d486253df" y="437.3688"/>
      </g>
     </g>
    </g>
    <g id="xtick_21">
     <g id="line2d_21">
      <g>
       <use style="fill:#252627;stroke:#252627;stroke-width:0.6;" x="181.19396" xlink:href="#m2d486253df" y="437.3688"/>
      </g>
     </g>
    </g>
    <g id="xtick_22">
     <g id="line2d_22">
      <g>
       <use style="fill:#252627;stroke:#252627;stroke-width:0.6;" x="194.301342" xlink:href="#m2d486253df" y="437.3688"/>
      </g>
     </g>
    </g>
    <g id="xtick_23">
     <g id="line2d_23">
      <g>
       <use style="fill:#252627;stroke:#252627;stroke-width:0.6;" x="207.408725" xlink:href="#m2d486253df" y="437.3688"/>
      </g>
     </g>
    </g>
    <g id="xtick_24">
     <g id="line2d_24">
      <g>
       <use style="fill:#252627;stroke:#252627;stroke-width:0.6;" x="220.516107" xlink:href="#m2d486253df" y="437.3688"/>
      </g>
     </g>
    </g>
    <g id="xtick_25">
     <g id="line2d_25">
      <g>
       <use style="fill:#252627;stroke:#252627;stroke-width:0.6;" x="233.62349" xlink:href="#m2d486253df" y="437.3688"/>
      </g>
     </g>
    </g>
    <g id="xtick_26">
     <g id="line2d_26">
      <g>
       <use style="fill:#252627;stroke:#252627;stroke-width:0.6;" x="246.730872" xlink:href="#m2d486253df" y="437.3688"/>
      </g>
     </g>
    </g>
    <g id="xtick_27">
     <g id="line2d_27">
      <g>
       <use style="fill:#252627;stroke:#252627;stroke-width:0.6;" x="259.838255" xlink:href="#m2d486253df" y="437.3688"/>
      </g>
     </g>
    </g>
    <g id="xtick_28">
     <g id="line2d_28">
      <g>
       <use style="fill:#252627;stroke:#252627;stroke-width:0.6;" x="272.945638" xlink:href="#m2d486253df" y="437.3688"/>
      </g>
     </g>
    </g>
    <g id="xtick_29">
     <g id="line2d_29">
      <g>
       <use style="fill:#252627;stroke:#252627;stroke-width:0.6;" x="286.05302" xlink:href="#m2d486253df" y="437.3688"/>
      </g>
     </g>
    </g>
    <g id="xtick_30">
     <g id="line2d_30">
      <g>
       <use style="fill:#252627;stroke:#252627;stroke-width:0.6;" x="299.160403" xlink:href="#m2d486253df" y="437.3688"/>
      </g>
     </g>
    </g>
    <g id="xtick_31">
     <g id="line2d_31">
      <g>
       <use style="fill:#252627;stroke:#252627;stroke-width:0.6;" x="312.267785" xlink:href="#m2d486253df" y="437.3688"/>
      </g>
     </g>
    </g>
    <g id="xtick_32">
     <g id="line2d_32">
      <g>
       <use style="fill:#252627;stroke:#252627;stroke-width:0.6;" x="325.375168" xlink:href="#m2d486253df" y="437.3688"/>
      </g>
     </g>
    </g>
    <g id="xtick_33">
     <g id="line2d_33">
      <g>
       <use style="fill:#252627;stroke:#252627;stroke-width:0.6;" x="338.48255" xlink:href="#m2d486253df" y="437.3688"/>
      </g>
     </g>
    </g>
    <g id="xtick_34">
     <g id="line2d_34">
      <g>
       <use style="fill:#252627;stroke:#252627;stroke-width:0.6;" x="364.697315" xlink:href="#m2d486253df" y="437.3688"/>
      </g>
     </g>
    </g>
    <g id="xtick_35">
     <g id="line2d_35">
      <g>
       <use style="fill:#252627;stroke:#252627;stroke-width:0.6;" x="377.804698" xlink:href="#m2d486253df" y="437.3688"/>
      </g>
     </g>
    </g>
    <g id="xtick_36">
     <g id="line2d_36">
      <g>
       <use style="fill:#252627;stroke:#252627;stroke-width:0.6;" x="390.912081" xlink:href="#m2d486253df" y="437.3688"/>
      </g>
     </g>
    </g>
    <g id="xtick_37">
     <g id="line2d_37">
      <g>
       <use style="fill:#252627;stroke:#252627;stroke-width:0.6;" x="404.019463" xlink:href="#m2d486253df" y="437.3688"/>
      </g>
     </g>
    </g>
    <g id="xtick_38">
     <g id="line2d_38">
      <g>
       <use style="fill:#252627;stroke:#252627;stroke-width:0.6;" x="417.126846" xlink:href="#m2d486253df" y="437.3688"/>
      </g>
     </g>
    </g>
    <g id="xtick_39">
     <g id="line2d_39">
      <g>
       <use style="fill:#252627;stroke:#252627;stroke-width:0.6;" x="430.234228" xlink:href="#m2d486253df" y="437.3688"/>
      </g>
     </g>
    </g>
    <g id="xtick_40">
     <g id="line2d_40">
      <g>
       <use style="fill:#252627;stroke:#252627;stroke-width:0.6;" x="443.341611" xlink:href="#m2d486253df" y="437.3688"/>
      </g>
     </g>
    </g>
    <g id="xtick_41">
     <g id="line2d_41">
      <g>
       <use style="fill:#252627;stroke:#252627;stroke-width:0.6;" x="456.448993" xlink:href="#m2d486253df" y="437.3688"/>
      </g>
     </g>
    </g>
    <g id="xtick_42">
     <g id="line2d_42">
      <g>
       <use style="fill:#252627;stroke:#252627;stroke-width:0.6;" x="469.556376" xlink:href="#m2d486253df" y="437.3688"/>
      </g>
     </g>
    </g>
    <g id="xtick_43">
     <g id="line2d_43">
      <g>
       <use style="fill:#252627;stroke:#252627;stroke-width:0.6;" x="482.663758" xlink:href="#m2d486253df" y="437.3688"/>
      </g>
     </g>
    </g>
    <g id="xtick_44">
     <g id="line2d_44">
      <g>
       <use style="fill:#252627;stroke:#252627;stroke-width:0.6;" x="495.771141" xlink:href="#m2d486253df" y="437.3688"/>
      </g>
     </g>
    </g>
    <g id="xtick_45">
     <g id="line2d_45">
      <g>
       <use style="fill:#252627;stroke:#252627;stroke-width:0.6;" x="508.878523" xlink:href="#m2d486253df" y="437.3688"/>
      </g>
     </g>
    </g>
    <g id="xtick_46">
     <g id="line2d_46">
      <g>
       <use style="fill:#252627;stroke:#252627;stroke-width:0.6;" x="521.985906" xlink:href="#m2d486253df" y="437.3688"/>
      </g>
     </g>
    </g>
    <g id="xtick_47">
     <g id="line2d_47">
      <g>
       <use style="fill:#252627;stroke:#252627;stroke-width:0.6;" x="535.093289" xlink:href="#m2d486253df" y="437.3688"/>
      </g>
     </g>
    </g>
    <g id="xtick_48">
     <g id="line2d_48">
      <g>
       <use style="fill:#252627;stroke:#252627;stroke-width:0.6;" x="548.200671" xlink:href="#m2d486253df" y="437.3688"/>
      </g>
     </g>
    </g>
    <g id="xtick_49">
     <g id="line2d_49">
      <g>
       <use style="fill:#252627;stroke:#252627;stroke-width:0.6;" x="561.308054" xlink:href="#m2d486253df" y="437.3688"/>
      </g>
     </g>
    </g>
    <g id="xtick_50">
     <g id="line2d_50">
      <g>
       <use style="fill:#252627;stroke:#252627;stroke-width:0.6;" x="574.415436" xlink:href="#m2d486253df" y="437.3688"/>
      </g>
     </g>
    </g>
    <g id="xtick_51">
     <g id="line2d_51">
      <g>
       <use style="fill:#252627;stroke:#252627;stroke-width:0.6;" x="587.522819" xlink:href="#m2d486253df" y="437.3688"/>
      </g>
     </g>
    </g>
    <g id="xtick_52">
     <g id="line2d_52">
      <g>
       <use style="fill:#252627;stroke:#252627;stroke-width:0.6;" x="600.630201" xlink:href="#m2d486253df" y="437.3688"/>
      </g>
     </g>
    </g>
    <g id="xtick_53">
     <g id="line2d_53">
      <g>
       <use style="fill:#252627;stroke:#252627;stroke-width:0.6;" x="613.737584" xlink:href="#m2d486253df" y="437.3688"/>
      </g>
     </g>
    </g>
    <g id="text_11">
     <!-- date -->
     <g style="fill:#252627;" transform="translate(326.06 493.9278)scale(0.16 -0.16)">
      <defs>
       <path d="M 45.40625 46.390625 
L 45.40625 75.984375 
L 54.390625 75.984375 
L 54.390625 0 
L 45.40625 0 
L 45.40625 8.203125 
Q 42.578125 3.328125 38.25 0.953125 
Q 33.9375 -1.421875 27.875 -1.421875 
Q 17.96875 -1.421875 11.734375 6.484375 
Q 5.515625 14.40625 5.515625 27.296875 
Q 5.515625 40.1875 11.734375 48.09375 
Q 17.96875 56 27.875 56 
Q 33.9375 56 38.25 53.625 
Q 42.578125 51.265625 45.40625 46.390625 
z
M 14.796875 27.296875 
Q 14.796875 17.390625 18.875 11.75 
Q 22.953125 6.109375 30.078125 6.109375 
Q 37.203125 6.109375 41.296875 11.75 
Q 45.40625 17.390625 45.40625 27.296875 
Q 45.40625 37.203125 41.296875 42.84375 
Q 37.203125 48.484375 30.078125 48.484375 
Q 22.953125 48.484375 18.875 42.84375 
Q 14.796875 37.203125 14.796875 27.296875 
z
" id="DejaVuSans-100"/>
      </defs>
      <use xlink:href="#DejaVuSans-100"/>
      <use x="63.476562" xlink:href="#DejaVuSans-97"/>
      <use x="124.755859" xlink:href="#DejaVuSans-116"/>
      <use x="163.964844" xlink:href="#DejaVuSans-101"/>
     </g>
    </g>
   </g>
   <g id="matplotlib.axis_2">
    <g id="ytick_1">
     <g id="line2d_54">
      <defs>
       <path d="M 0 0 
L -3.5 0 
" id="m9cd1ac3fcd" style="stroke:#252627;stroke-width:0.8;"/>
      </defs>
      <g>
       <use style="fill:#252627;stroke:#252627;stroke-width:0.8;" x="65.1" xlink:href="#m9cd1ac3fcd" y="419.7288"/>
      </g>
     </g>
     <g id="text_12">
      <!-- 0 -->
      <g style="fill:#252627;" transform="translate(47.92 425.80755)scale(0.16 -0.16)">
       <use xlink:href="#DejaVuSans-48"/>
      </g>
     </g>
    </g>
    <g id="ytick_2">
     <g id="line2d_55">
      <g>
       <use style="fill:#252627;stroke:#252627;stroke-width:0.8;" x="65.1" xlink:href="#m9cd1ac3fcd" y="376.170478"/>
      </g>
     </g>
     <g id="text_13">
      <!-- 2500 -->
      <g style="fill:#252627;" transform="translate(17.38 382.249228)scale(0.16 -0.16)">
       <defs>
        <path d="M 10.796875 72.90625 
L 49.515625 72.90625 
L 49.515625 64.59375 
L 19.828125 64.59375 
L 19.828125 46.734375 
Q 21.96875 47.46875 24.109375 47.828125 
Q 26.265625 48.1875 28.421875 48.1875 
Q 40.625 48.1875 47.75 41.5 
Q 54.890625 34.8125 54.890625 23.390625 
Q 54.890625 11.625 47.5625 5.09375 
Q 40.234375 -1.421875 26.90625 -1.421875 
Q 22.3125 -1.421875 17.546875 -0.640625 
Q 12.796875 0.140625 7.71875 1.703125 
L 7.71875 11.625 
Q 12.109375 9.234375 16.796875 8.0625 
Q 21.484375 6.890625 26.703125 6.890625 
Q 35.15625 6.890625 40.078125 11.328125 
Q 45.015625 15.765625 45.015625 23.390625 
Q 45.015625 31 40.078125 35.4375 
Q 35.15625 39.890625 26.703125 39.890625 
Q 22.75 39.890625 18.8125 39.015625 
Q 14.890625 38.140625 10.796875 36.28125 
z
" id="DejaVuSans-53"/>
       </defs>
       <use xlink:href="#DejaVuSans-50"/>
       <use x="63.623047" xlink:href="#DejaVuSans-53"/>
       <use x="127.246094" xlink:href="#DejaVuSans-48"/>
       <use x="190.869141" xlink:href="#DejaVuSans-48"/>
      </g>
     </g>
    </g>
    <g id="ytick_3">
     <g id="line2d_56">
      <g>
       <use style="fill:#252627;stroke:#252627;stroke-width:0.8;" x="65.1" xlink:href="#m9cd1ac3fcd" y="332.612156"/>
      </g>
     </g>
     <g id="text_14">
      <!-- 5000 -->
      <g style="fill:#252627;" transform="translate(17.38 338.690906)scale(0.16 -0.16)">
       <use xlink:href="#DejaVuSans-53"/>
       <use x="63.623047" xlink:href="#DejaVuSans-48"/>
       <use x="127.246094" xlink:href="#DejaVuSans-48"/>
       <use x="190.869141" xlink:href="#DejaVuSans-48"/>
      </g>
     </g>
    </g>
    <g id="ytick_4">
     <g id="line2d_57">
      <g>
       <use style="fill:#252627;stroke:#252627;stroke-width:0.8;" x="65.1" xlink:href="#m9cd1ac3fcd" y="289.053835"/>
      </g>
     </g>
     <g id="text_15">
      <!-- 7500 -->
      <g style="fill:#252627;" transform="translate(17.38 295.132585)scale(0.16 -0.16)">
       <defs>
        <path d="M 8.203125 72.90625 
L 55.078125 72.90625 
L 55.078125 68.703125 
L 28.609375 0 
L 18.3125 0 
L 43.21875 64.59375 
L 8.203125 64.59375 
z
" id="DejaVuSans-55"/>
       </defs>
       <use xlink:href="#DejaVuSans-55"/>
       <use x="63.623047" xlink:href="#DejaVuSans-53"/>
       <use x="127.246094" xlink:href="#DejaVuSans-48"/>
       <use x="190.869141" xlink:href="#DejaVuSans-48"/>
      </g>
     </g>
    </g>
    <g id="ytick_5">
     <g id="line2d_58">
      <g>
       <use style="fill:#252627;stroke:#252627;stroke-width:0.8;" x="65.1" xlink:href="#m9cd1ac3fcd" y="245.495513"/>
      </g>
     </g>
     <g id="text_16">
      <!-- 10000 -->
      <g style="fill:#252627;" transform="translate(7.2 251.574263)scale(0.16 -0.16)">
       <defs>
        <path d="M 12.40625 8.296875 
L 28.515625 8.296875 
L 28.515625 63.921875 
L 10.984375 60.40625 
L 10.984375 69.390625 
L 28.421875 72.90625 
L 38.28125 72.90625 
L 38.28125 8.296875 
L 54.390625 8.296875 
L 54.390625 0 
L 12.40625 0 
z
" id="DejaVuSans-49"/>
       </defs>
       <use xlink:href="#DejaVuSans-49"/>
       <use x="63.623047" xlink:href="#DejaVuSans-48"/>
       <use x="127.246094" xlink:href="#DejaVuSans-48"/>
       <use x="190.869141" xlink:href="#DejaVuSans-48"/>
       <use x="254.492188" xlink:href="#DejaVuSans-48"/>
      </g>
     </g>
    </g>
    <g id="ytick_6">
     <g id="line2d_59">
      <g>
       <use style="fill:#252627;stroke:#252627;stroke-width:0.8;" x="65.1" xlink:href="#m9cd1ac3fcd" y="201.937191"/>
      </g>
     </g>
     <g id="text_17">
      <!-- 12500 -->
      <g style="fill:#252627;" transform="translate(7.2 208.015941)scale(0.16 -0.16)">
       <use xlink:href="#DejaVuSans-49"/>
       <use x="63.623047" xlink:href="#DejaVuSans-50"/>
       <use x="127.246094" xlink:href="#DejaVuSans-53"/>
       <use x="190.869141" xlink:href="#DejaVuSans-48"/>
       <use x="254.492188" xlink:href="#DejaVuSans-48"/>
      </g>
     </g>
    </g>
    <g id="ytick_7">
     <g id="line2d_60">
      <g>
       <use style="fill:#252627;stroke:#252627;stroke-width:0.8;" x="65.1" xlink:href="#m9cd1ac3fcd" y="158.378869"/>
      </g>
     </g>
     <g id="text_18">
      <!-- 15000 -->
      <g style="fill:#252627;" transform="translate(7.2 164.457619)scale(0.16 -0.16)">
       <use xlink:href="#DejaVuSans-49"/>
       <use x="63.623047" xlink:href="#DejaVuSans-53"/>
       <use x="127.246094" xlink:href="#DejaVuSans-48"/>
       <use x="190.869141" xlink:href="#DejaVuSans-48"/>
       <use x="254.492188" xlink:href="#DejaVuSans-48"/>
      </g>
     </g>
    </g>
    <g id="ytick_8">
     <g id="line2d_61">
      <g>
       <use style="fill:#252627;stroke:#252627;stroke-width:0.8;" x="65.1" xlink:href="#m9cd1ac3fcd" y="114.820548"/>
      </g>
     </g>
     <g id="text_19">
      <!-- 17500 -->
      <g style="fill:#252627;" transform="translate(7.2 120.899298)scale(0.16 -0.16)">
       <use xlink:href="#DejaVuSans-49"/>
       <use x="63.623047" xlink:href="#DejaVuSans-55"/>
       <use x="127.246094" xlink:href="#DejaVuSans-53"/>
       <use x="190.869141" xlink:href="#DejaVuSans-48"/>
       <use x="254.492188" xlink:href="#DejaVuSans-48"/>
      </g>
     </g>
    </g>
    <g id="ytick_9">
     <g id="line2d_62">
      <g>
       <use style="fill:#252627;stroke:#252627;stroke-width:0.8;" x="65.1" xlink:href="#m9cd1ac3fcd" y="71.262226"/>
      </g>
     </g>
     <g id="text_20">
      <!-- 20000 -->
      <g style="fill:#252627;" transform="translate(7.2 77.340976)scale(0.16 -0.16)">
       <use xlink:href="#DejaVuSans-50"/>
       <use x="63.623047" xlink:href="#DejaVuSans-48"/>
       <use x="127.246094" xlink:href="#DejaVuSans-48"/>
       <use x="190.869141" xlink:href="#DejaVuSans-48"/>
       <use x="254.492188" xlink:href="#DejaVuSans-48"/>
      </g>
     </g>
    </g>
   </g>
   <g id="line2d_63">
    <path clip-path="url(#pda3f71ca8c)" d="M 76.334899 419.7288 
L 175.57651 419.646666 
L 181.19396 419.395265 
L 186.811409 418.90492 
L 188.683893 418.494235 
L 190.556376 417.961569 
L 192.428859 417.209892 
L 194.301342 416.266541 
L 196.173826 414.484378 
L 198.046309 412.244243 
L 199.918792 409.575982 
L 201.791275 406.220737 
L 203.663758 402.611617 
L 205.536242 398.0965 
L 207.408725 394.927929 
L 209.281208 390.619401 
L 211.153691 383.851675 
L 214.898658 369.086658 
L 216.771141 359.720364 
L 218.643624 352.945181 
L 220.516107 345.627383 
L 222.388591 332.714205 
L 228.00604 296.926688 
L 229.878523 289.962339 
L 231.751007 286.084394 
L 233.62349 283.179681 
L 235.495973 282.049657 
L 237.368456 284.887168 
L 239.24094 288.299648 
L 241.113423 293.051252 
L 242.985906 296.986432 
L 244.858389 299.204161 
L 246.730872 304.545665 
L 248.603356 311.853497 
L 252.348322 320.983322 
L 254.220805 327.790877 
L 256.093289 333.050231 
L 257.965772 337.117324 
L 259.838255 338.702847 
L 261.710738 343.912422 
L 263.583221 346.797238 
L 265.455705 351.588653 
L 269.200671 355.155452 
L 271.073154 366.634934 
L 272.945638 368.65604 
L 274.818121 369.066743 
L 276.690604 374.323605 
L 278.563087 376.573706 
L 280.43557 380.815032 
L 282.308054 384.125465 
L 284.180537 378.266261 
L 286.05302 379.655144 
L 289.797987 386.850979 
L 291.67047 391.020137 
L 293.542953 392.829672 
L 295.415436 395.995735 
L 297.287919 397.752999 
L 299.160403 400.724931 
L 301.032886 401.934598 
L 302.905369 401.852465 
L 304.777852 402.648955 
L 306.650336 403.181621 
L 308.522819 404.403745 
L 310.395302 398.228412 
L 312.267785 398.41012 
L 314.140268 399.796512 
L 316.012752 400.894182 
L 317.885235 401.073398 
L 319.757718 402.392588 
L 321.630201 402.960083 
L 323.502685 409.839824 
L 325.375168 410.180816 
L 327.247651 410.307762 
L 329.120134 410.111123 
L 330.992617 411.02461 
L 332.865101 408.177133 
L 334.737584 408.299096 
L 336.610067 408.722239 
L 338.48255 410.285356 
L 340.355034 409.220041 
L 342.227517 409.239956 
L 344.1 407.609638 
L 345.972483 410.419759 
L 347.844966 409.926941 
L 349.71745 410.626348 
L 351.589933 409.180212 
L 353.462416 410.586535 
L 355.334899 410.875257 
L 357.207383 412.873957 
L 360.952349 414.546597 
L 362.824832 414.449531 
L 368.442282 414.8652 
L 370.314765 414.633713 
L 372.187248 414.175741 
L 377.804698 413.775005 
L 379.677181 413.849664 
L 381.549664 413.747615 
L 383.422148 413.354353 
L 385.294631 413.839715 
L 389.039597 413.894476 
L 392.784564 413.695345 
L 394.657047 413.747615 
L 396.52953 414.208096 
L 398.402013 413.929323 
L 400.274497 413.42903 
L 404.019463 413.590805 
L 411.509396 413.157714 
L 413.381879 414.561546 
L 415.254362 415.310749 
L 417.126846 412.712182 
L 418.999329 412.612607 
L 420.871812 412.625065 
L 422.744295 412.378647 
L 424.616779 411.358128 
L 428.361745 411.358128 
L 430.234228 409.364411 
L 432.106711 408.555463 
L 433.979195 407.330865 
L 435.851678 405.294809 
L 437.724161 403.930824 
L 441.469128 403.930824 
L 443.341611 397.618596 
L 445.214094 395.896178 
L 447.086577 394.69646 
L 448.95906 391.575192 
L 450.831544 389.447055 
L 454.57651 389.447055 
L 456.448993 385.016546 
L 458.321477 383.846692 
L 460.19396 382.169086 
L 462.066443 381.735995 
L 463.938926 379.652652 
L 467.683893 379.652652 
L 469.556376 374.248929 
L 471.428859 364.462001 
L 473.301342 362.167105 
L 475.173826 358.933823 
L 477.046309 355.411819 
L 480.791275 355.411819 
L 482.663758 355.197774 
L 484.536242 360.494465 
L 486.408725 359.949359 
L 488.281208 351.332286 
L 490.153691 348.912918 
L 493.898658 348.912918 
L 495.771141 329.869219 
L 497.643624 326.180457 
L 499.516107 317.471284 
L 501.388591 318.743187 
L 503.261074 312.099915 
L 507.00604 312.099915 
L 508.878523 304.351517 
L 510.751007 299.365954 
L 512.62349 297.810294 
L 514.495973 291.291495 
L 516.368456 287.23186 
L 520.113423 287.23186 
L 521.985906 276.802743 
L 523.858389 274.318682 
L 525.730872 271.120246 
L 527.603356 272.860088 
L 529.475839 271.125229 
L 533.220805 271.125229 
L 535.093289 263.68796 
L 536.965772 261.574754 
L 538.838255 260.86538 
L 542.583221 252.123852 
L 546.328188 252.123852 
L 548.200671 250.023087 
L 550.073154 248.845775 
L 551.945638 243.053755 
L 553.818121 241.742023 
L 555.690604 236.2512 
L 559.43557 236.2512 
L 561.308054 226.23526 
L 563.180537 222.845186 
L 565.05302 222.606242 
L 566.925503 224.194256 
L 568.797987 229.463559 
L 572.542953 229.463559 
L 574.415436 228.574969 
L 576.287919 230.797698 
L 578.160403 231.477208 
L 580.032886 234.548679 
L 581.905369 236.905812 
L 585.650336 236.905812 
L 587.522819 257.577354 
L 589.395302 252.370253 
L 591.267785 253.677003 
L 593.140268 246.199921 
L 595.012752 242.558445 
L 598.757718 242.558445 
L 600.630201 231.666373 
L 602.502685 243.812925 
L 604.375168 240.131619 
L 606.247651 237.903925 
L 608.120134 231.93518 
L 611.865101 231.93518 
L 613.737584 206.962584 
L 615.610067 190.149072 
L 617.48255 177.696358 
L 619.355034 158.610356 
L 621.227517 146.998944 
L 621.227517 146.998944 
" style="fill:none;stroke:#bb0a21;stroke-linecap:square;stroke-width:2;"/>
   </g>
   <g id="line2d_64">
    <path clip-path="url(#pda3f71ca8c)" d="M 76.334899 419.7288 
L 181.19396 419.639192 
L 186.811409 419.365402 
L 196.173826 418.733179 
L 198.046309 418.464372 
L 199.918792 417.956604 
L 201.791275 417.085437 
L 205.536242 415.019518 
L 207.408725 414.270315 
L 209.281208 413.312032 
L 213.026174 410.890189 
L 216.771141 407.992951 
L 220.516107 403.975619 
L 222.388591 401.645876 
L 224.261074 397.347297 
L 228.00604 389.135926 
L 231.751007 379.244459 
L 233.62349 375.202246 
L 235.495973 371.518449 
L 237.368456 366.702136 
L 241.113423 355.849894 
L 244.858389 347.150687 
L 246.730872 344.168806 
L 248.603356 342.341848 
L 252.348322 337.500637 
L 254.220805 336.95804 
L 256.093289 336.98292 
L 257.965772 338.471378 
L 259.838255 339.569048 
L 261.710738 339.825415 
L 265.455705 345.371016 
L 267.328188 345.535283 
L 269.200671 344.455037 
L 271.073154 342.854582 
L 272.945638 340.012088 
L 274.818121 339.106075 
L 276.690604 337.423487 
L 280.43557 335.292858 
L 282.308054 335.626392 
L 284.180537 335.591546 
L 286.05302 338.013388 
L 287.925503 338.959231 
L 289.797987 339.327613 
L 293.542953 339.516778 
L 297.287919 340.574618 
L 301.032886 343.08856 
L 302.905369 346.366637 
L 304.777852 348.972662 
L 306.650336 352.992468 
L 308.522819 355.97684 
L 310.395302 360.143507 
L 312.267785 362.811768 
L 314.140268 364.437103 
L 316.012752 363.946776 
L 317.885235 364.643709 
L 319.757718 365.938001 
L 321.630201 368.773038 
L 323.502685 370.109651 
L 325.375168 370.3038 
L 327.247651 371.525924 
L 329.120134 374.007494 
L 330.992617 374.87866 
L 332.865101 376.344712 
L 334.737584 376.479115 
L 336.610067 377.634038 
L 338.48255 379.007989 
L 340.355034 380.187793 
L 342.227517 382.589738 
L 344.1 386.024608 
L 345.972483 388.222439 
L 347.844966 390.248528 
L 349.71745 391.580175 
L 351.589933 392.580762 
L 353.462416 393.290136 
L 357.207383 394.213572 
L 362.824832 397.705713 
L 366.569799 399.40325 
L 370.314765 401.065923 
L 372.187248 401.456711 
L 374.059732 402.019223 
L 375.932215 402.188491 
L 379.677181 401.71557 
L 383.422148 401.994343 
L 385.294631 402.457298 
L 387.167114 402.432418 
L 389.039597 402.596685 
L 392.784564 403.557459 
L 394.657047 403.923349 
L 398.402013 405.045917 
L 402.14698 406.59161 
L 404.019463 406.686201 
L 407.76443 407.579757 
L 409.636913 408.249318 
L 415.254362 409.090621 
L 417.126846 409.707894 
L 418.999329 409.436596 
L 422.744295 409.551084 
L 424.616779 409.446545 
L 426.489262 409.16528 
L 428.361745 409.200126 
L 430.234228 409.098078 
L 432.106711 409.580948 
L 433.979195 409.526204 
L 437.724161 409.110518 
L 441.469128 409.127942 
L 454.57651 408.226912 
L 458.321477 408.510668 
L 460.19396 410.310254 
L 462.066443 410.280373 
L 463.938926 410.098682 
L 467.683893 409.468951 
L 469.556376 408.667478 
L 473.301342 405.787645 
L 477.046309 405.210184 
L 480.791275 405.264946 
L 482.663758 404.470947 
L 484.536242 404.74972 
L 486.408725 403.559951 
L 488.281208 403.266246 
L 490.153691 402.820697 
L 492.026174 401.404441 
L 493.898658 400.610425 
L 495.771141 400.665187 
L 499.516107 401.068415 
L 501.388591 401.55876 
L 503.261074 401.42683 
L 505.133557 402.439875 
L 507.00604 401.914683 
L 508.878523 401.912209 
L 510.751007 401.267546 
L 512.62349 401.031077 
L 514.495973 400.443667 
L 516.368456 399.597381 
L 518.24094 398.992547 
L 520.113423 399.440571 
L 521.985906 397.762966 
L 523.858389 396.682719 
L 525.730872 396.406437 
L 527.603356 395.261463 
L 529.475839 394.731306 
L 533.220805 391.323791 
L 535.093289 388.155237 
L 536.965772 384.317121 
L 542.583221 375.605457 
L 546.328188 367.433916 
L 548.200671 366.582664 
L 550.073154 367.396595 
L 551.945638 365.796123 
L 553.818121 362.480725 
L 555.690604 361.295939 
L 557.563087 359.347017 
L 559.43557 357.044646 
L 561.308054 355.628374 
L 565.05302 346.742476 
L 566.925503 341.298923 
L 568.797987 333.236905 
L 570.67047 326.887356 
L 572.542953 322.857584 
L 574.415436 318.39472 
L 576.287919 319.201176 
L 578.160403 313.682947 
L 580.032886 311.368136 
L 581.905369 310.671203 
L 583.777852 310.434751 
L 585.650336 293.434565 
L 587.522819 250.451213 
L 589.395302 229.172345 
L 593.140268 193.198155 
L 595.012752 166.749542 
L 596.885235 149.585071 
L 598.757718 143.875185 
L 600.630201 168.987185 
L 602.502685 165.554789 
L 604.375168 158.859248 
L 606.247651 145.015176 
L 608.120134 141.435919 
L 609.992617 137.027817 
L 611.865101 134.523841 
L 613.737584 124.296347 
L 615.610067 112.271758 
L 617.48255 102.071654 
L 619.355034 84.740408 
L 621.227517 79.115164 
L 623.1 66.9288 
L 623.1 66.9288 
" style="fill:none;stroke:#4b88a2;stroke-linecap:square;stroke-width:2;"/>
   </g>
   <g id="line2d_65">
    <path clip-path="url(#pda3f71ca8c)" d="M 201.791275 419.674038 
L 213.026174 419.410197 
L 214.898658 419.201117 
L 220.516107 419.002003 
L 224.261074 418.98458 
L 226.133557 418.700824 
L 228.00604 418.867582 
L 229.878523 418.802872 
L 231.751007 418.850159 
L 233.62349 418.511659 
L 237.368456 418.113414 
L 239.24094 417.824674 
L 241.113423 417.652932 
L 244.858389 417.053082 
L 246.730872 416.171949 
L 248.603356 415.718943 
L 250.475839 415.026993 
L 252.348322 412.214362 
L 254.220805 410.165884 
L 256.093289 409.020927 
L 257.965772 407.029685 
L 259.838255 406.691167 
L 261.710738 407.3881 
L 263.583221 401.436796 
L 265.455705 401.974428 
L 267.328188 401.720553 
L 269.200671 400.831963 
L 271.073154 400.881741 
L 272.945638 399.545111 
L 274.818121 397.810252 
L 276.690604 400.976315 
L 278.563087 400.376465 
L 280.43557 398.763552 
L 282.308054 399.420673 
L 284.180537 392.570814 
L 286.05302 390.136513 
L 287.925503 388.929338 
L 289.797987 386.492563 
L 293.542953 379.749735 
L 295.415436 372.907333 
L 297.287919 376.909733 
L 299.160403 373.902954 
L 301.032886 373.250834 
L 302.905369 369.95035 
L 304.777852 367.74257 
L 306.650336 366.089846 
L 308.522819 366.493056 
L 310.395302 363.772543 
L 312.267785 366.515463 
L 314.140268 366.338738 
L 316.012752 367.782383 
L 319.757718 364.775621 
L 321.630201 363.356857 
L 323.502685 361.171484 
L 325.375168 357.587261 
L 327.247651 354.737292 
L 329.120134 351.469181 
L 330.992617 350.74735 
L 332.865101 349.6248 
L 334.737584 352.019253 
L 336.610067 351.994373 
L 338.48255 350.817043 
L 340.355034 347.431935 
L 342.227517 344.390327 
L 344.1 340.365538 
L 345.972483 337.565365 
L 347.844966 328.662044 
L 349.71745 320.373505 
L 351.589933 308.923904 
L 353.462416 305.083297 
L 355.334899 319.450069 
L 357.207383 312.677377 
L 359.079866 316.634964 
L 360.952349 322.369731 
L 362.824832 329.906557 
L 364.697315 339.982224 
L 366.569799 345.911139 
L 368.442282 335.855387 
L 370.314765 345.283899 
L 374.059732 336.72157 
L 375.932215 336.659352 
L 377.804698 337.040173 
L 379.677181 336.8535 
L 381.549664 336.544846 
L 383.422148 339.867736 
L 387.167114 352.086455 
L 390.912081 357.004817 
L 392.784564 365.109156 
L 394.657047 360.852881 
L 396.52953 360.536769 
L 398.402013 359.459014 
L 402.14698 358.371311 
L 404.019463 358.789471 
L 405.891946 351.456724 
L 407.76443 358.988585 
L 409.636913 360.519346 
L 411.509396 361.480121 
L 415.254362 362.254222 
L 417.126846 361.736487 
L 418.999329 361.639422 
L 420.871812 359.829887 
L 422.744295 358.911434 
L 424.616779 358.886536 
L 428.361745 360.912625 
L 430.234228 360.967387 
L 432.106711 358.946281 
L 433.979195 358.525629 
L 435.851678 357.968083 
L 437.724161 357.159135 
L 439.596644 355.28489 
L 441.469128 353.047229 
L 443.341611 351.867426 
L 445.214094 351.135646 
L 450.831544 346.277029 
L 452.704027 344.00203 
L 454.57651 344.101605 
L 460.19396 337.79436 
L 462.066443 334.770158 
L 465.811409 323.218491 
L 467.683893 314.444608 
L 469.556376 310.078809 
L 471.428859 311.746483 
L 473.301342 308.007925 
L 475.173826 302.890449 
L 477.046309 300.461132 
L 478.918792 297.417032 
L 480.791275 298.191134 
L 482.663758 297.332407 
L 484.536242 295.194321 
L 486.408725 295.799154 
L 488.281208 292.959152 
L 490.153691 288.83728 
L 492.026174 289.250474 
L 493.898658 283.351423 
L 495.771141 275.55823 
L 497.643624 274.468017 
L 499.516107 271.279548 
L 501.388591 270.722001 
L 503.261074 272.718227 
L 505.133557 270.955979 
L 507.00604 271.797265 
L 508.878523 274.418239 
L 510.751007 273.011932 
L 512.62349 275.212237 
L 514.495973 282.935755 
L 516.368456 282.985533 
L 518.24094 285.584101 
L 520.113423 284.824949 
L 521.985906 288.207566 
L 523.858389 291.296461 
L 525.730872 295.906186 
L 527.603356 295.129593 
L 529.475839 299.886162 
L 531.348322 303.024853 
L 533.220805 309.546161 
L 535.093289 313.170213 
L 536.965772 321.316856 
L 538.838255 322.504134 
L 540.710738 321.812184 
L 542.583221 320.361065 
L 544.455705 320.609974 
L 546.328188 322.332393 
L 548.200671 321.057998 
L 550.073154 314.479454 
L 551.945638 315.611971 
L 553.818121 316.124704 
L 555.690604 320.089766 
L 557.563087 320.809088 
L 559.43557 320.084783 
L 561.308054 321.968994 
L 563.180537 322.56637 
L 565.05302 323.835782 
L 566.925503 324.410752 
L 568.797987 323.074121 
L 570.67047 324.716897 
L 574.415436 329.110067 
L 578.160403 332.059593 
L 580.032886 339.745772 
L 581.905369 346.632953 
L 583.777852 352.574308 
L 585.650336 357.893406 
L 587.522819 362.811768 
L 589.395302 366.74944 
L 591.267785 367.058077 
L 593.140268 367.874482 
L 595.012752 369.158825 
L 596.885235 365.489978 
L 598.757718 367.202447 
L 600.630201 366.956029 
L 602.502685 367.030705 
L 604.375168 367.346799 
L 606.247651 366.739474 
L 608.120134 367.145194 
L 609.992617 372.282584 
L 611.865101 371.289455 
L 613.737584 371.680242 
L 617.48255 369.589443 
L 619.355034 370.112143 
L 621.227517 369.609358 
L 623.1 368.208017 
L 623.1 368.208017 
" style="fill:none;stroke:#d3d4d9;stroke-linecap:square;stroke-width:2;"/>
   </g>
   <g id="patch_3">
    <path d="M 65.1 437.3688 
L 65.1 49.2888 
" style="fill:none;stroke:#000000;stroke-linecap:square;stroke-linejoin:miter;stroke-width:0.8;"/>
   </g>
   <g id="patch_4">
    <path d="M 623.1 437.3688 
L 623.1 49.2888 
" style="fill:none;stroke:#000000;stroke-linecap:square;stroke-linejoin:miter;stroke-width:0.8;"/>
   </g>
   <g id="patch_5">
    <path d="M 65.1 437.3688 
L 623.1 437.3688 
" style="fill:none;stroke:#000000;stroke-linecap:square;stroke-linejoin:miter;stroke-width:0.8;"/>
   </g>
   <g id="patch_6">
    <path d="M 65.1 49.2888 
L 623.1 49.2888 
" style="fill:none;stroke:#000000;stroke-linecap:square;stroke-linejoin:miter;stroke-width:0.8;"/>
   </g>
   <g id="text_21">
    <!-- Latest update:  -->
    <g style="fill:#252627;" transform="translate(47.1 491.690987)scale(0.1 -0.1)">
     <defs>
      <path d="M 9.8125 72.90625 
L 19.671875 72.90625 
L 19.671875 8.296875 
L 55.171875 8.296875 
L 55.171875 0 
L 9.8125 0 
z
" id="DejaVuSans-76"/>
      <path d="M 44.28125 53.078125 
L 44.28125 44.578125 
Q 40.484375 46.53125 36.375 47.5 
Q 32.28125 48.484375 27.875 48.484375 
Q 21.1875 48.484375 17.84375 46.4375 
Q 14.5 44.390625 14.5 40.28125 
Q 14.5 37.15625 16.890625 35.375 
Q 19.28125 33.59375 26.515625 31.984375 
L 29.59375 31.296875 
Q 39.15625 29.25 43.1875 25.515625 
Q 47.21875 21.78125 47.21875 15.09375 
Q 47.21875 7.46875 41.1875 3.015625 
Q 35.15625 -1.421875 24.609375 -1.421875 
Q 20.21875 -1.421875 15.453125 -0.5625 
Q 10.6875 0.296875 5.421875 2 
L 5.421875 11.28125 
Q 10.40625 8.6875 15.234375 7.390625 
Q 20.0625 6.109375 24.8125 6.109375 
Q 31.15625 6.109375 34.5625 8.28125 
Q 37.984375 10.453125 37.984375 14.40625 
Q 37.984375 18.0625 35.515625 20.015625 
Q 33.0625 21.96875 24.703125 23.78125 
L 21.578125 24.515625 
Q 13.234375 26.265625 9.515625 29.90625 
Q 5.8125 33.546875 5.8125 39.890625 
Q 5.8125 47.609375 11.28125 51.796875 
Q 16.75 56 26.8125 56 
Q 31.78125 56 36.171875 55.265625 
Q 40.578125 54.546875 44.28125 53.078125 
z
" id="DejaVuSans-115"/>
      <path id="DejaVuSans-32"/>
      <path d="M 11.71875 12.40625 
L 22.015625 12.40625 
L 22.015625 0 
L 11.71875 0 
z
M 11.71875 51.703125 
L 22.015625 51.703125 
L 22.015625 39.3125 
L 11.71875 39.3125 
z
" id="DejaVuSans-58"/>
     </defs>
     <use xlink:href="#DejaVuSans-76"/>
     <use x="55.712891" xlink:href="#DejaVuSans-97"/>
     <use x="116.992188" xlink:href="#DejaVuSans-116"/>
     <use x="156.201172" xlink:href="#DejaVuSans-101"/>
     <use x="217.724609" xlink:href="#DejaVuSans-115"/>
     <use x="269.824219" xlink:href="#DejaVuSans-116"/>
     <use x="309.033203" xlink:href="#DejaVuSans-32"/>
     <use x="340.820312" xlink:href="#DejaVuSans-117"/>
     <use x="404.199219" xlink:href="#DejaVuSans-112"/>
     <use x="467.675781" xlink:href="#DejaVuSans-100"/>
     <use x="531.152344" xlink:href="#DejaVuSans-97"/>
     <use x="592.431641" xlink:href="#DejaVuSans-116"/>
     <use x="631.640625" xlink:href="#DejaVuSans-101"/>
     <use x="693.164062" xlink:href="#DejaVuSans-58"/>
     <use x="726.855469" xlink:href="#DejaVuSans-32"/>
    </g>
    <!-- 25-10-2020 -->
    <g style="fill:#252627;" transform="translate(47.1 502.8888)scale(0.1 -0.1)">
     <defs>
      <path d="M 4.890625 31.390625 
L 31.203125 31.390625 
L 31.203125 23.390625 
L 4.890625 23.390625 
z
" id="DejaVuSans-45"/>
     </defs>
     <use xlink:href="#DejaVuSans-50"/>
     <use x="63.623047" xlink:href="#DejaVuSans-53"/>
     <use x="127.246094" xlink:href="#DejaVuSans-45"/>
     <use x="163.330078" xlink:href="#DejaVuSans-49"/>
     <use x="226.953125" xlink:href="#DejaVuSans-48"/>
     <use x="290.576172" xlink:href="#DejaVuSans-45"/>
     <use x="326.660156" xlink:href="#DejaVuSans-50"/>
     <use x="390.283203" xlink:href="#DejaVuSans-48"/>
     <use x="453.90625" xlink:href="#DejaVuSans-50"/>
     <use x="517.529297" xlink:href="#DejaVuSans-48"/>
    </g>
   </g>
   <g id="text_22">
    <!-- Daily new cases - Since beginning -->
    <g style="fill:#252627;" transform="translate(180.3705 21.789)scale(0.192 -0.192)">
     <defs>
      <path d="M 19.671875 64.796875 
L 19.671875 8.109375 
L 31.59375 8.109375 
Q 46.6875 8.109375 53.6875 14.9375 
Q 60.6875 21.78125 60.6875 36.53125 
Q 60.6875 51.171875 53.6875 57.984375 
Q 46.6875 64.796875 31.59375 64.796875 
z
M 9.8125 72.90625 
L 30.078125 72.90625 
Q 51.265625 72.90625 61.171875 64.09375 
Q 71.09375 55.28125 71.09375 36.53125 
Q 71.09375 17.671875 61.125 8.828125 
Q 51.171875 0 30.078125 0 
L 9.8125 0 
z
" id="DejaVuSans-68"/>
      <path d="M 9.421875 54.6875 
L 18.40625 54.6875 
L 18.40625 0 
L 9.421875 0 
z
M 9.421875 75.984375 
L 18.40625 75.984375 
L 18.40625 64.59375 
L 9.421875 64.59375 
z
" id="DejaVuSans-105"/>
      <path d="M 4.203125 54.6875 
L 13.1875 54.6875 
L 24.421875 12.015625 
L 35.59375 54.6875 
L 46.1875 54.6875 
L 57.421875 12.015625 
L 68.609375 54.6875 
L 77.59375 54.6875 
L 63.28125 0 
L 52.6875 0 
L 40.921875 44.828125 
L 29.109375 0 
L 18.5 0 
z
" id="DejaVuSans-119"/>
     </defs>
     <use xlink:href="#DejaVuSans-68"/>
     <use x="77.001953" xlink:href="#DejaVuSans-97"/>
     <use x="138.28125" xlink:href="#DejaVuSans-105"/>
     <use x="166.064453" xlink:href="#DejaVuSans-108"/>
     <use x="193.847656" xlink:href="#DejaVuSans-121"/>
     <use x="253.027344" xlink:href="#DejaVuSans-32"/>
     <use x="284.814453" xlink:href="#DejaVuSans-110"/>
     <use x="348.193359" xlink:href="#DejaVuSans-101"/>
     <use x="409.716797" xlink:href="#DejaVuSans-119"/>
     <use x="491.503906" xlink:href="#DejaVuSans-32"/>
     <use x="523.291016" xlink:href="#DejaVuSans-99"/>
     <use x="578.271484" xlink:href="#DejaVuSans-97"/>
     <use x="639.550781" xlink:href="#DejaVuSans-115"/>
     <use x="691.650391" xlink:href="#DejaVuSans-101"/>
     <use x="753.173828" xlink:href="#DejaVuSans-115"/>
     <use x="805.273438" xlink:href="#DejaVuSans-32"/>
     <use x="837.060547" xlink:href="#DejaVuSans-45"/>
     <use x="873.144531" xlink:href="#DejaVuSans-32"/>
     <use x="904.931641" xlink:href="#DejaVuSans-83"/>
     <use x="968.408203" xlink:href="#DejaVuSans-105"/>
     <use x="996.191406" xlink:href="#DejaVuSans-110"/>
     <use x="1059.570312" xlink:href="#DejaVuSans-99"/>
     <use x="1114.550781" xlink:href="#DejaVuSans-101"/>
     <use x="1176.074219" xlink:href="#DejaVuSans-32"/>
     <use x="1207.861328" xlink:href="#DejaVuSans-98"/>
     <use x="1271.337891" xlink:href="#DejaVuSans-101"/>
     <use x="1332.861328" xlink:href="#DejaVuSans-103"/>
     <use x="1396.337891" xlink:href="#DejaVuSans-105"/>
     <use x="1424.121094" xlink:href="#DejaVuSans-110"/>
     <use x="1487.5" xlink:href="#DejaVuSans-110"/>
     <use x="1550.878906" xlink:href="#DejaVuSans-105"/>
     <use x="1578.662109" xlink:href="#DejaVuSans-110"/>
     <use x="1642.041016" xlink:href="#DejaVuSans-103"/>
    </g>
    <!-- 7-day rolling average -->
    <g style="fill:#252627;" transform="translate(241.68 43.2888)scale(0.192 -0.192)">
     <defs>
      <path d="M 30.609375 48.390625 
Q 23.390625 48.390625 19.1875 42.75 
Q 14.984375 37.109375 14.984375 27.296875 
Q 14.984375 17.484375 19.15625 11.84375 
Q 23.34375 6.203125 30.609375 6.203125 
Q 37.796875 6.203125 41.984375 11.859375 
Q 46.1875 17.53125 46.1875 27.296875 
Q 46.1875 37.015625 41.984375 42.703125 
Q 37.796875 48.390625 30.609375 48.390625 
z
M 30.609375 56 
Q 42.328125 56 49.015625 48.375 
Q 55.71875 40.765625 55.71875 27.296875 
Q 55.71875 13.875 49.015625 6.21875 
Q 42.328125 -1.421875 30.609375 -1.421875 
Q 18.84375 -1.421875 12.171875 6.21875 
Q 5.515625 13.875 5.515625 27.296875 
Q 5.515625 40.765625 12.171875 48.375 
Q 18.84375 56 30.609375 56 
z
" id="DejaVuSans-111"/>
      <path d="M 2.984375 54.6875 
L 12.5 54.6875 
L 29.59375 8.796875 
L 46.6875 54.6875 
L 56.203125 54.6875 
L 35.6875 0 
L 23.484375 0 
z
" id="DejaVuSans-118"/>
     </defs>
     <use xlink:href="#DejaVuSans-55"/>
     <use x="63.623047" xlink:href="#DejaVuSans-45"/>
     <use x="99.707031" xlink:href="#DejaVuSans-100"/>
     <use x="163.183594" xlink:href="#DejaVuSans-97"/>
     <use x="224.462891" xlink:href="#DejaVuSans-121"/>
     <use x="283.642578" xlink:href="#DejaVuSans-32"/>
     <use x="315.429688" xlink:href="#DejaVuSans-114"/>
     <use x="354.292969" xlink:href="#DejaVuSans-111"/>
     <use x="415.474609" xlink:href="#DejaVuSans-108"/>
     <use x="443.257812" xlink:href="#DejaVuSans-108"/>
     <use x="471.041016" xlink:href="#DejaVuSans-105"/>
     <use x="498.824219" xlink:href="#DejaVuSans-110"/>
     <use x="562.203125" xlink:href="#DejaVuSans-103"/>
     <use x="625.679688" xlink:href="#DejaVuSans-32"/>
     <use x="657.466797" xlink:href="#DejaVuSans-97"/>
     <use x="718.746094" xlink:href="#DejaVuSans-118"/>
     <use x="777.925781" xlink:href="#DejaVuSans-101"/>
     <use x="839.449219" xlink:href="#DejaVuSans-114"/>
     <use x="880.5625" xlink:href="#DejaVuSans-97"/>
     <use x="941.841797" xlink:href="#DejaVuSans-103"/>
     <use x="1005.318359" xlink:href="#DejaVuSans-101"/>
    </g>
   </g>
   <g id="legend_1">
    <g id="patch_7">
     <path d="M 76.3 132.5438 
L 161.9925 132.5438 
Q 165.1925 132.5438 165.1925 129.3438 
L 165.1925 60.4888 
Q 165.1925 57.2888 161.9925 57.2888 
L 76.3 57.2888 
Q 73.1 57.2888 73.1 60.4888 
L 73.1 129.3438 
Q 73.1 132.5438 76.3 132.5438 
z
" style="fill:#ffffff;opacity:0.2;stroke:#cccccc;stroke-linejoin:miter;"/>
    </g>
    <g id="line2d_66">
     <path d="M 79.5 70.2463 
L 111.5 70.2463 
" style="fill:none;stroke:#bb0a21;stroke-linecap:square;stroke-width:2;"/>
    </g>
    <g id="line2d_67"/>
    <g id="text_23">
     <!-- ESP -->
     <g style="fill:#252627;" transform="translate(124.3 75.8463)scale(0.16 -0.16)">
      <defs>
       <path d="M 9.8125 72.90625 
L 55.90625 72.90625 
L 55.90625 64.59375 
L 19.671875 64.59375 
L 19.671875 43.015625 
L 54.390625 43.015625 
L 54.390625 34.71875 
L 19.671875 34.71875 
L 19.671875 8.296875 
L 56.78125 8.296875 
L 56.78125 0 
L 9.8125 0 
z
" id="DejaVuSans-69"/>
       <path d="M 19.671875 64.796875 
L 19.671875 37.40625 
L 32.078125 37.40625 
Q 38.96875 37.40625 42.71875 40.96875 
Q 46.484375 44.53125 46.484375 51.125 
Q 46.484375 57.671875 42.71875 61.234375 
Q 38.96875 64.796875 32.078125 64.796875 
z
M 9.8125 72.90625 
L 32.078125 72.90625 
Q 44.34375 72.90625 50.609375 67.359375 
Q 56.890625 61.8125 56.890625 51.125 
Q 56.890625 40.328125 50.609375 34.8125 
Q 44.34375 29.296875 32.078125 29.296875 
L 19.671875 29.296875 
L 19.671875 0 
L 9.8125 0 
z
" id="DejaVuSans-80"/>
      </defs>
      <use xlink:href="#DejaVuSans-69"/>
      <use x="63.183594" xlink:href="#DejaVuSans-83"/>
      <use x="126.660156" xlink:href="#DejaVuSans-80"/>
     </g>
    </g>
    <g id="line2d_68">
     <path d="M 79.5 93.7313 
L 111.5 93.7313 
" style="fill:none;stroke:#4b88a2;stroke-linecap:square;stroke-width:2;"/>
    </g>
    <g id="line2d_69"/>
    <g id="text_24">
     <!-- GBR -->
     <g style="fill:#252627;" transform="translate(124.3 99.3313)scale(0.16 -0.16)">
      <defs>
       <path d="M 59.515625 10.40625 
L 59.515625 29.984375 
L 43.40625 29.984375 
L 43.40625 38.09375 
L 69.28125 38.09375 
L 69.28125 6.78125 
Q 63.578125 2.734375 56.6875 0.65625 
Q 49.8125 -1.421875 42 -1.421875 
Q 24.90625 -1.421875 15.25 8.5625 
Q 5.609375 18.5625 5.609375 36.375 
Q 5.609375 54.25 15.25 64.234375 
Q 24.90625 74.21875 42 74.21875 
Q 49.125 74.21875 55.546875 72.453125 
Q 61.96875 70.703125 67.390625 67.28125 
L 67.390625 56.78125 
Q 61.921875 61.421875 55.765625 63.765625 
Q 49.609375 66.109375 42.828125 66.109375 
Q 29.4375 66.109375 22.71875 58.640625 
Q 16.015625 51.171875 16.015625 36.375 
Q 16.015625 21.625 22.71875 14.15625 
Q 29.4375 6.6875 42.828125 6.6875 
Q 48.046875 6.6875 52.140625 7.59375 
Q 56.25 8.5 59.515625 10.40625 
z
" id="DejaVuSans-71"/>
       <path d="M 19.671875 34.8125 
L 19.671875 8.109375 
L 35.5 8.109375 
Q 43.453125 8.109375 47.28125 11.40625 
Q 51.125 14.703125 51.125 21.484375 
Q 51.125 28.328125 47.28125 31.5625 
Q 43.453125 34.8125 35.5 34.8125 
z
M 19.671875 64.796875 
L 19.671875 42.828125 
L 34.28125 42.828125 
Q 41.5 42.828125 45.03125 45.53125 
Q 48.578125 48.25 48.578125 53.8125 
Q 48.578125 59.328125 45.03125 62.0625 
Q 41.5 64.796875 34.28125 64.796875 
z
M 9.8125 72.90625 
L 35.015625 72.90625 
Q 46.296875 72.90625 52.390625 68.21875 
Q 58.5 63.53125 58.5 54.890625 
Q 58.5 48.1875 55.375 44.234375 
Q 52.25 40.28125 46.1875 39.3125 
Q 53.46875 37.75 57.5 32.78125 
Q 61.53125 27.828125 61.53125 20.40625 
Q 61.53125 10.640625 54.890625 5.3125 
Q 48.25 0 35.984375 0 
L 9.8125 0 
z
" id="DejaVuSans-66"/>
       <path d="M 44.390625 34.1875 
Q 47.5625 33.109375 50.5625 29.59375 
Q 53.5625 26.078125 56.59375 19.921875 
L 66.609375 0 
L 56 0 
L 46.6875 18.703125 
Q 43.0625 26.03125 39.671875 28.421875 
Q 36.28125 30.8125 30.421875 30.8125 
L 19.671875 30.8125 
L 19.671875 0 
L 9.8125 0 
L 9.8125 72.90625 
L 32.078125 72.90625 
Q 44.578125 72.90625 50.734375 67.671875 
Q 56.890625 62.453125 56.890625 51.90625 
Q 56.890625 45.015625 53.6875 40.46875 
Q 50.484375 35.9375 44.390625 34.1875 
z
M 19.671875 64.796875 
L 19.671875 38.921875 
L 32.078125 38.921875 
Q 39.203125 38.921875 42.84375 42.21875 
Q 46.484375 45.515625 46.484375 51.90625 
Q 46.484375 58.296875 42.84375 61.546875 
Q 39.203125 64.796875 32.078125 64.796875 
z
" id="DejaVuSans-82"/>
      </defs>
      <use xlink:href="#DejaVuSans-71"/>
      <use x="77.490234" xlink:href="#DejaVuSans-66"/>
      <use x="146.09375" xlink:href="#DejaVuSans-82"/>
     </g>
    </g>
    <g id="line2d_70">
     <path d="M 79.5 117.2163 
L 111.5 117.2163 
" style="fill:none;stroke:#d3d4d9;stroke-linecap:square;stroke-width:2;"/>
    </g>
    <g id="line2d_71"/>
    <g id="text_25">
     <!-- PER -->
     <g style="fill:#252627;" transform="translate(124.3 122.8163)scale(0.16 -0.16)">
      <use xlink:href="#DejaVuSans-80"/>
      <use x="60.302734" xlink:href="#DejaVuSans-69"/>
      <use x="123.486328" xlink:href="#DejaVuSans-82"/>
     </g>
    </g>
   </g>
  </g>
 </g>
 <defs>
  <clipPath id="pda3f71ca8c">
   <rect height="388.08" width="558" x="65.1" y="49.2888"/>
  </clipPath>
 </defs>
</svg>
