<?xml version="1.0" encoding="utf-8" standalone="no"?>
<!DOCTYPE svg PUBLIC "-//W3C//DTD SVG 1.1//EN"
  "http://www.w3.org/Graphics/SVG/1.1/DTD/svg11.dtd">
<!-- Created with matplotlib (https://matplotlib.org/) -->
<svg height="521.83255pt" version="1.1" viewBox="0 0 623.3475 521.83255" width="623.3475pt" xmlns="http://www.w3.org/2000/svg" xmlns:xlink="http://www.w3.org/1999/xlink">
 <metadata>
  <rdf:RDF xmlns:cc="http://creativecommons.org/ns#" xmlns:dc="http://purl.org/dc/elements/1.1/" xmlns:rdf="http://www.w3.org/1999/02/22-rdf-syntax-ns#">
   <cc:Work>
    <dc:type rdf:resource="http://purl.org/dc/dcmitype/StillImage"/>
    <dc:date>2021-03-16T09:00:06.341447</dc:date>
    <dc:format>image/svg+xml</dc:format>
    <dc:creator>
     <cc:Agent>
      <dc:title>Matplotlib v3.3.1, https://matplotlib.org/</dc:title>
     </cc:Agent>
    </dc:creator>
   </cc:Work>
  </rdf:RDF>
 </metadata>
 <defs>
  <style type="text/css">*{stroke-linecap:butt;stroke-linejoin:round;}</style>
 </defs>
 <g id="figure_1">
  <g id="patch_1">
   <path d="M 0 521.83255 
L 623.3475 521.83255 
L 623.3475 0 
L 0 0 
z
" style="fill:none;"/>
  </g>
  <g id="axes_1">
   <g id="patch_2">
    <path d="M 58.1475 437.3688 
L 616.1475 437.3688 
L 616.1475 49.2888 
L 58.1475 49.2888 
z
" style="fill:none;"/>
   </g>
   <g id="matplotlib.axis_1">
    <g id="xtick_1">
     <g id="line2d_1">
      <defs>
       <path d="M 0 0 
L 0 3.5 
" id="me460bafc42" style="stroke:#252627;stroke-width:0.8;"/>
      </defs>
      <g>
       <use style="fill:#252627;stroke:#252627;stroke-width:0.8;" x="58.1475" xlink:href="#me460bafc42" y="437.3688"/>
      </g>
     </g>
    </g>
    <g id="xtick_2">
     <g id="line2d_2">
      <g>
       <use style="fill:#252627;stroke:#252627;stroke-width:0.8;" x="59.511803" xlink:href="#me460bafc42" y="437.3688"/>
      </g>
     </g>
     <g id="text_1">
      <!-- Feb -->
      <g style="fill:#252627;" transform="translate(45.349303 456.5263)scale(0.16 -0.16)">
       <defs>
        <path d="M 9.8125 72.90625 
L 51.703125 72.90625 
L 51.703125 64.59375 
L 19.671875 64.59375 
L 19.671875 43.109375 
L 48.578125 43.109375 
L 48.578125 34.8125 
L 19.671875 34.8125 
L 19.671875 0 
L 9.8125 0 
z
" id="DejaVuSans-70"/>
        <path d="M 56.203125 29.59375 
L 56.203125 25.203125 
L 14.890625 25.203125 
Q 15.484375 15.921875 20.484375 11.0625 
Q 25.484375 6.203125 34.421875 6.203125 
Q 39.59375 6.203125 44.453125 7.46875 
Q 49.3125 8.734375 54.109375 11.28125 
L 54.109375 2.78125 
Q 49.265625 0.734375 44.1875 -0.34375 
Q 39.109375 -1.421875 33.890625 -1.421875 
Q 20.796875 -1.421875 13.15625 6.1875 
Q 5.515625 13.8125 5.515625 26.8125 
Q 5.515625 40.234375 12.765625 48.109375 
Q 20.015625 56 32.328125 56 
Q 43.359375 56 49.78125 48.890625 
Q 56.203125 41.796875 56.203125 29.59375 
z
M 47.21875 32.234375 
Q 47.125 39.59375 43.09375 43.984375 
Q 39.0625 48.390625 32.421875 48.390625 
Q 24.90625 48.390625 20.390625 44.140625 
Q 15.875 39.890625 15.1875 32.171875 
z
" id="DejaVuSans-101"/>
        <path d="M 48.6875 27.296875 
Q 48.6875 37.203125 44.609375 42.84375 
Q 40.53125 48.484375 33.40625 48.484375 
Q 26.265625 48.484375 22.1875 42.84375 
Q 18.109375 37.203125 18.109375 27.296875 
Q 18.109375 17.390625 22.1875 11.75 
Q 26.265625 6.109375 33.40625 6.109375 
Q 40.53125 6.109375 44.609375 11.75 
Q 48.6875 17.390625 48.6875 27.296875 
z
M 18.109375 46.390625 
Q 20.953125 51.265625 25.265625 53.625 
Q 29.59375 56 35.59375 56 
Q 45.5625 56 51.78125 48.09375 
Q 58.015625 40.1875 58.015625 27.296875 
Q 58.015625 14.40625 51.78125 6.484375 
Q 45.5625 -1.421875 35.59375 -1.421875 
Q 29.59375 -1.421875 25.265625 0.953125 
Q 20.953125 3.328125 18.109375 8.203125 
L 18.109375 0 
L 9.078125 0 
L 9.078125 75.984375 
L 18.109375 75.984375 
z
" id="DejaVuSans-98"/>
       </defs>
       <use xlink:href="#DejaVuSans-70"/>
       <use x="52.019531" xlink:href="#DejaVuSans-101"/>
       <use x="113.542969" xlink:href="#DejaVuSans-98"/>
      </g>
     </g>
    </g>
    <g id="xtick_3">
     <g id="line2d_3">
      <g>
       <use style="fill:#252627;stroke:#252627;stroke-width:0.8;" x="99.076595" xlink:href="#me460bafc42" y="437.3688"/>
      </g>
     </g>
     <g id="text_2">
      <!-- Mar -->
      <g style="fill:#252627;" transform="translate(83.982845 456.5263)scale(0.16 -0.16)">
       <defs>
        <path d="M 9.8125 72.90625 
L 24.515625 72.90625 
L 43.109375 23.296875 
L 61.8125 72.90625 
L 76.515625 72.90625 
L 76.515625 0 
L 66.890625 0 
L 66.890625 64.015625 
L 48.09375 14.015625 
L 38.1875 14.015625 
L 19.390625 64.015625 
L 19.390625 0 
L 9.8125 0 
z
" id="DejaVuSans-77"/>
        <path d="M 34.28125 27.484375 
Q 23.390625 27.484375 19.1875 25 
Q 14.984375 22.515625 14.984375 16.5 
Q 14.984375 11.71875 18.140625 8.90625 
Q 21.296875 6.109375 26.703125 6.109375 
Q 34.1875 6.109375 38.703125 11.40625 
Q 43.21875 16.703125 43.21875 25.484375 
L 43.21875 27.484375 
z
M 52.203125 31.203125 
L 52.203125 0 
L 43.21875 0 
L 43.21875 8.296875 
Q 40.140625 3.328125 35.546875 0.953125 
Q 30.953125 -1.421875 24.3125 -1.421875 
Q 15.921875 -1.421875 10.953125 3.296875 
Q 6 8.015625 6 15.921875 
Q 6 25.140625 12.171875 29.828125 
Q 18.359375 34.515625 30.609375 34.515625 
L 43.21875 34.515625 
L 43.21875 35.40625 
Q 43.21875 41.609375 39.140625 45 
Q 35.0625 48.390625 27.6875 48.390625 
Q 23 48.390625 18.546875 47.265625 
Q 14.109375 46.140625 10.015625 43.890625 
L 10.015625 52.203125 
Q 14.9375 54.109375 19.578125 55.046875 
Q 24.21875 56 28.609375 56 
Q 40.484375 56 46.34375 49.84375 
Q 52.203125 43.703125 52.203125 31.203125 
z
" id="DejaVuSans-97"/>
        <path d="M 41.109375 46.296875 
Q 39.59375 47.171875 37.8125 47.578125 
Q 36.03125 48 33.890625 48 
Q 26.265625 48 22.1875 43.046875 
Q 18.109375 38.09375 18.109375 28.8125 
L 18.109375 0 
L 9.078125 0 
L 9.078125 54.6875 
L 18.109375 54.6875 
L 18.109375 46.1875 
Q 20.953125 51.171875 25.484375 53.578125 
Q 30.03125 56 36.53125 56 
Q 37.453125 56 38.578125 55.875 
Q 39.703125 55.765625 41.0625 55.515625 
z
" id="DejaVuSans-114"/>
       </defs>
       <use xlink:href="#DejaVuSans-77"/>
       <use x="86.279297" xlink:href="#DejaVuSans-97"/>
       <use x="147.558594" xlink:href="#DejaVuSans-114"/>
      </g>
     </g>
    </g>
    <g id="xtick_4">
     <g id="line2d_4">
      <g>
       <use style="fill:#252627;stroke:#252627;stroke-width:0.8;" x="141.369994" xlink:href="#me460bafc42" y="437.3688"/>
      </g>
     </g>
     <g id="text_3">
      <!-- Apr -->
      <g style="fill:#252627;" transform="translate(127.529994 456.5263)scale(0.16 -0.16)">
       <defs>
        <path d="M 34.1875 63.1875 
L 20.796875 26.90625 
L 47.609375 26.90625 
z
M 28.609375 72.90625 
L 39.796875 72.90625 
L 67.578125 0 
L 57.328125 0 
L 50.6875 18.703125 
L 17.828125 18.703125 
L 11.1875 0 
L 0.78125 0 
z
" id="DejaVuSans-65"/>
        <path d="M 18.109375 8.203125 
L 18.109375 -20.796875 
L 9.078125 -20.796875 
L 9.078125 54.6875 
L 18.109375 54.6875 
L 18.109375 46.390625 
Q 20.953125 51.265625 25.265625 53.625 
Q 29.59375 56 35.59375 56 
Q 45.5625 56 51.78125 48.09375 
Q 58.015625 40.1875 58.015625 27.296875 
Q 58.015625 14.40625 51.78125 6.484375 
Q 45.5625 -1.421875 35.59375 -1.421875 
Q 29.59375 -1.421875 25.265625 0.953125 
Q 20.953125 3.328125 18.109375 8.203125 
z
M 48.6875 27.296875 
Q 48.6875 37.203125 44.609375 42.84375 
Q 40.53125 48.484375 33.40625 48.484375 
Q 26.265625 48.484375 22.1875 42.84375 
Q 18.109375 37.203125 18.109375 27.296875 
Q 18.109375 17.390625 22.1875 11.75 
Q 26.265625 6.109375 33.40625 6.109375 
Q 40.53125 6.109375 44.609375 11.75 
Q 48.6875 17.390625 48.6875 27.296875 
z
" id="DejaVuSans-112"/>
       </defs>
       <use xlink:href="#DejaVuSans-65"/>
       <use x="68.408203" xlink:href="#DejaVuSans-112"/>
       <use x="131.884766" xlink:href="#DejaVuSans-114"/>
      </g>
     </g>
    </g>
    <g id="xtick_5">
     <g id="line2d_5">
      <g>
       <use style="fill:#252627;stroke:#252627;stroke-width:0.8;" x="182.299089" xlink:href="#me460bafc42" y="437.3688"/>
      </g>
     </g>
     <g id="text_4">
      <!-- May -->
      <g style="fill:#252627;" transform="translate(165.759089 456.5263)scale(0.16 -0.16)">
       <defs>
        <path d="M 32.171875 -5.078125 
Q 28.375 -14.84375 24.75 -17.8125 
Q 21.140625 -20.796875 15.09375 -20.796875 
L 7.90625 -20.796875 
L 7.90625 -13.28125 
L 13.1875 -13.28125 
Q 16.890625 -13.28125 18.9375 -11.515625 
Q 21 -9.765625 23.484375 -3.21875 
L 25.09375 0.875 
L 2.984375 54.6875 
L 12.5 54.6875 
L 29.59375 11.921875 
L 46.6875 54.6875 
L 56.203125 54.6875 
z
" id="DejaVuSans-121"/>
       </defs>
       <use xlink:href="#DejaVuSans-77"/>
       <use x="86.279297" xlink:href="#DejaVuSans-97"/>
       <use x="147.558594" xlink:href="#DejaVuSans-121"/>
      </g>
     </g>
    </g>
    <g id="xtick_6">
     <g id="line2d_6">
      <g>
       <use style="fill:#252627;stroke:#252627;stroke-width:0.8;" x="224.592488" xlink:href="#me460bafc42" y="437.3688"/>
      </g>
     </g>
     <g id="text_5">
      <!-- Jun -->
      <g style="fill:#252627;" transform="translate(212.092488 456.5263)scale(0.16 -0.16)">
       <defs>
        <path d="M 9.8125 72.90625 
L 19.671875 72.90625 
L 19.671875 5.078125 
Q 19.671875 -8.109375 14.671875 -14.0625 
Q 9.671875 -20.015625 -1.421875 -20.015625 
L -5.171875 -20.015625 
L -5.171875 -11.71875 
L -2.09375 -11.71875 
Q 4.4375 -11.71875 7.125 -8.046875 
Q 9.8125 -4.390625 9.8125 5.078125 
z
" id="DejaVuSans-74"/>
        <path d="M 8.5 21.578125 
L 8.5 54.6875 
L 17.484375 54.6875 
L 17.484375 21.921875 
Q 17.484375 14.15625 20.5 10.265625 
Q 23.53125 6.390625 29.59375 6.390625 
Q 36.859375 6.390625 41.078125 11.03125 
Q 45.3125 15.671875 45.3125 23.6875 
L 45.3125 54.6875 
L 54.296875 54.6875 
L 54.296875 0 
L 45.3125 0 
L 45.3125 8.40625 
Q 42.046875 3.421875 37.71875 1 
Q 33.40625 -1.421875 27.6875 -1.421875 
Q 18.265625 -1.421875 13.375 4.4375 
Q 8.5 10.296875 8.5 21.578125 
z
M 31.109375 56 
z
" id="DejaVuSans-117"/>
        <path d="M 54.890625 33.015625 
L 54.890625 0 
L 45.90625 0 
L 45.90625 32.71875 
Q 45.90625 40.484375 42.875 44.328125 
Q 39.84375 48.1875 33.796875 48.1875 
Q 26.515625 48.1875 22.3125 43.546875 
Q 18.109375 38.921875 18.109375 30.90625 
L 18.109375 0 
L 9.078125 0 
L 9.078125 54.6875 
L 18.109375 54.6875 
L 18.109375 46.1875 
Q 21.34375 51.125 25.703125 53.5625 
Q 30.078125 56 35.796875 56 
Q 45.21875 56 50.046875 50.171875 
Q 54.890625 44.34375 54.890625 33.015625 
z
" id="DejaVuSans-110"/>
       </defs>
       <use xlink:href="#DejaVuSans-74"/>
       <use x="29.492188" xlink:href="#DejaVuSans-117"/>
       <use x="92.871094" xlink:href="#DejaVuSans-110"/>
      </g>
     </g>
    </g>
    <g id="xtick_7">
     <g id="line2d_7">
      <g>
       <use style="fill:#252627;stroke:#252627;stroke-width:0.8;" x="265.521583" xlink:href="#me460bafc42" y="437.3688"/>
      </g>
     </g>
     <g id="text_6">
      <!-- Jul -->
      <g style="fill:#252627;" transform="translate(255.869083 456.5263)scale(0.16 -0.16)">
       <defs>
        <path d="M 9.421875 75.984375 
L 18.40625 75.984375 
L 18.40625 0 
L 9.421875 0 
z
" id="DejaVuSans-108"/>
       </defs>
       <use xlink:href="#DejaVuSans-74"/>
       <use x="29.492188" xlink:href="#DejaVuSans-117"/>
       <use x="92.871094" xlink:href="#DejaVuSans-108"/>
      </g>
     </g>
    </g>
    <g id="xtick_8">
     <g id="line2d_8">
      <g>
       <use style="fill:#252627;stroke:#252627;stroke-width:0.8;" x="307.814982" xlink:href="#me460bafc42" y="437.3688"/>
      </g>
     </g>
     <g id="text_7">
      <!-- Aug -->
      <g style="fill:#252627;" transform="translate(292.193732 456.5263)scale(0.16 -0.16)">
       <defs>
        <path d="M 45.40625 27.984375 
Q 45.40625 37.75 41.375 43.109375 
Q 37.359375 48.484375 30.078125 48.484375 
Q 22.859375 48.484375 18.828125 43.109375 
Q 14.796875 37.75 14.796875 27.984375 
Q 14.796875 18.265625 18.828125 12.890625 
Q 22.859375 7.515625 30.078125 7.515625 
Q 37.359375 7.515625 41.375 12.890625 
Q 45.40625 18.265625 45.40625 27.984375 
z
M 54.390625 6.78125 
Q 54.390625 -7.171875 48.1875 -13.984375 
Q 42 -20.796875 29.203125 -20.796875 
Q 24.46875 -20.796875 20.265625 -20.09375 
Q 16.0625 -19.390625 12.109375 -17.921875 
L 12.109375 -9.1875 
Q 16.0625 -11.328125 19.921875 -12.34375 
Q 23.78125 -13.375 27.78125 -13.375 
Q 36.625 -13.375 41.015625 -8.765625 
Q 45.40625 -4.15625 45.40625 5.171875 
L 45.40625 9.625 
Q 42.625 4.78125 38.28125 2.390625 
Q 33.9375 0 27.875 0 
Q 17.828125 0 11.671875 7.65625 
Q 5.515625 15.328125 5.515625 27.984375 
Q 5.515625 40.671875 11.671875 48.328125 
Q 17.828125 56 27.875 56 
Q 33.9375 56 38.28125 53.609375 
Q 42.625 51.21875 45.40625 46.390625 
L 45.40625 54.6875 
L 54.390625 54.6875 
z
" id="DejaVuSans-103"/>
       </defs>
       <use xlink:href="#DejaVuSans-65"/>
       <use x="68.408203" xlink:href="#DejaVuSans-117"/>
       <use x="131.787109" xlink:href="#DejaVuSans-103"/>
      </g>
     </g>
    </g>
    <g id="xtick_9">
     <g id="line2d_9">
      <g>
       <use style="fill:#252627;stroke:#252627;stroke-width:0.8;" x="350.10838" xlink:href="#me460bafc42" y="437.3688"/>
      </g>
     </g>
     <g id="text_8">
      <!-- Sep -->
      <g style="fill:#252627;" transform="translate(335.02838 456.5263)scale(0.16 -0.16)">
       <defs>
        <path d="M 53.515625 70.515625 
L 53.515625 60.890625 
Q 47.90625 63.578125 42.921875 64.890625 
Q 37.9375 66.21875 33.296875 66.21875 
Q 25.25 66.21875 20.875 63.09375 
Q 16.5 59.96875 16.5 54.203125 
Q 16.5 49.359375 19.40625 46.890625 
Q 22.3125 44.4375 30.421875 42.921875 
L 36.375 41.703125 
Q 47.40625 39.59375 52.65625 34.296875 
Q 57.90625 29 57.90625 20.125 
Q 57.90625 9.515625 50.796875 4.046875 
Q 43.703125 -1.421875 29.984375 -1.421875 
Q 24.8125 -1.421875 18.96875 -0.25 
Q 13.140625 0.921875 6.890625 3.21875 
L 6.890625 13.375 
Q 12.890625 10.015625 18.65625 8.296875 
Q 24.421875 6.59375 29.984375 6.59375 
Q 38.421875 6.59375 43.015625 9.90625 
Q 47.609375 13.234375 47.609375 19.390625 
Q 47.609375 24.75 44.3125 27.78125 
Q 41.015625 30.8125 33.5 32.328125 
L 27.484375 33.5 
Q 16.453125 35.6875 11.515625 40.375 
Q 6.59375 45.0625 6.59375 53.421875 
Q 6.59375 63.09375 13.40625 68.65625 
Q 20.21875 74.21875 32.171875 74.21875 
Q 37.3125 74.21875 42.625 73.28125 
Q 47.953125 72.359375 53.515625 70.515625 
z
" id="DejaVuSans-83"/>
       </defs>
       <use xlink:href="#DejaVuSans-83"/>
       <use x="63.476562" xlink:href="#DejaVuSans-101"/>
       <use x="125" xlink:href="#DejaVuSans-112"/>
      </g>
     </g>
    </g>
    <g id="xtick_10">
     <g id="line2d_10">
      <g>
       <use style="fill:#252627;stroke:#252627;stroke-width:0.8;" x="391.037476" xlink:href="#me460bafc42" y="437.3688"/>
      </g>
     </g>
     <g id="text_9">
      <!-- Oct -->
      <g style="fill:#252627;" transform="translate(377.204976 456.5263)scale(0.16 -0.16)">
       <defs>
        <path d="M 39.40625 66.21875 
Q 28.65625 66.21875 22.328125 58.203125 
Q 16.015625 50.203125 16.015625 36.375 
Q 16.015625 22.609375 22.328125 14.59375 
Q 28.65625 6.59375 39.40625 6.59375 
Q 50.140625 6.59375 56.421875 14.59375 
Q 62.703125 22.609375 62.703125 36.375 
Q 62.703125 50.203125 56.421875 58.203125 
Q 50.140625 66.21875 39.40625 66.21875 
z
M 39.40625 74.21875 
Q 54.734375 74.21875 63.90625 63.9375 
Q 73.09375 53.65625 73.09375 36.375 
Q 73.09375 19.140625 63.90625 8.859375 
Q 54.734375 -1.421875 39.40625 -1.421875 
Q 24.03125 -1.421875 14.8125 8.828125 
Q 5.609375 19.09375 5.609375 36.375 
Q 5.609375 53.65625 14.8125 63.9375 
Q 24.03125 74.21875 39.40625 74.21875 
z
" id="DejaVuSans-79"/>
        <path d="M 48.78125 52.59375 
L 48.78125 44.1875 
Q 44.96875 46.296875 41.140625 47.34375 
Q 37.3125 48.390625 33.40625 48.390625 
Q 24.65625 48.390625 19.8125 42.84375 
Q 14.984375 37.3125 14.984375 27.296875 
Q 14.984375 17.28125 19.8125 11.734375 
Q 24.65625 6.203125 33.40625 6.203125 
Q 37.3125 6.203125 41.140625 7.25 
Q 44.96875 8.296875 48.78125 10.40625 
L 48.78125 2.09375 
Q 45.015625 0.34375 40.984375 -0.53125 
Q 36.96875 -1.421875 32.421875 -1.421875 
Q 20.0625 -1.421875 12.78125 6.34375 
Q 5.515625 14.109375 5.515625 27.296875 
Q 5.515625 40.671875 12.859375 48.328125 
Q 20.21875 56 33.015625 56 
Q 37.15625 56 41.109375 55.140625 
Q 45.0625 54.296875 48.78125 52.59375 
z
" id="DejaVuSans-99"/>
        <path d="M 18.3125 70.21875 
L 18.3125 54.6875 
L 36.8125 54.6875 
L 36.8125 47.703125 
L 18.3125 47.703125 
L 18.3125 18.015625 
Q 18.3125 11.328125 20.140625 9.421875 
Q 21.96875 7.515625 27.59375 7.515625 
L 36.8125 7.515625 
L 36.8125 0 
L 27.59375 0 
Q 17.1875 0 13.234375 3.875 
Q 9.28125 7.765625 9.28125 18.015625 
L 9.28125 47.703125 
L 2.6875 47.703125 
L 2.6875 54.6875 
L 9.28125 54.6875 
L 9.28125 70.21875 
z
" id="DejaVuSans-116"/>
       </defs>
       <use xlink:href="#DejaVuSans-79"/>
       <use x="78.710938" xlink:href="#DejaVuSans-99"/>
       <use x="133.691406" xlink:href="#DejaVuSans-116"/>
      </g>
     </g>
    </g>
    <g id="xtick_11">
     <g id="line2d_11">
      <g>
       <use style="fill:#252627;stroke:#252627;stroke-width:0.8;" x="433.330874" xlink:href="#me460bafc42" y="437.3688"/>
      </g>
     </g>
     <g id="text_10">
      <!-- Nov -->
      <g style="fill:#252627;" transform="translate(417.715874 456.5263)scale(0.16 -0.16)">
       <defs>
        <path d="M 9.8125 72.90625 
L 23.09375 72.90625 
L 55.421875 11.921875 
L 55.421875 72.90625 
L 64.984375 72.90625 
L 64.984375 0 
L 51.703125 0 
L 19.390625 60.984375 
L 19.390625 0 
L 9.8125 0 
z
" id="DejaVuSans-78"/>
        <path d="M 30.609375 48.390625 
Q 23.390625 48.390625 19.1875 42.75 
Q 14.984375 37.109375 14.984375 27.296875 
Q 14.984375 17.484375 19.15625 11.84375 
Q 23.34375 6.203125 30.609375 6.203125 
Q 37.796875 6.203125 41.984375 11.859375 
Q 46.1875 17.53125 46.1875 27.296875 
Q 46.1875 37.015625 41.984375 42.703125 
Q 37.796875 48.390625 30.609375 48.390625 
z
M 30.609375 56 
Q 42.328125 56 49.015625 48.375 
Q 55.71875 40.765625 55.71875 27.296875 
Q 55.71875 13.875 49.015625 6.21875 
Q 42.328125 -1.421875 30.609375 -1.421875 
Q 18.84375 -1.421875 12.171875 6.21875 
Q 5.515625 13.875 5.515625 27.296875 
Q 5.515625 40.765625 12.171875 48.375 
Q 18.84375 56 30.609375 56 
z
" id="DejaVuSans-111"/>
        <path d="M 2.984375 54.6875 
L 12.5 54.6875 
L 29.59375 8.796875 
L 46.6875 54.6875 
L 56.203125 54.6875 
L 35.6875 0 
L 23.484375 0 
z
" id="DejaVuSans-118"/>
       </defs>
       <use xlink:href="#DejaVuSans-78"/>
       <use x="74.804688" xlink:href="#DejaVuSans-111"/>
       <use x="135.986328" xlink:href="#DejaVuSans-118"/>
      </g>
     </g>
    </g>
    <g id="xtick_12">
     <g id="line2d_12">
      <g>
       <use style="fill:#252627;stroke:#252627;stroke-width:0.8;" x="474.259969" xlink:href="#me460bafc42" y="437.3688"/>
      </g>
     </g>
     <g id="text_11">
      <!-- Dec -->
      <g style="fill:#252627;" transform="translate(458.778719 456.5263)scale(0.16 -0.16)">
       <defs>
        <path d="M 19.671875 64.796875 
L 19.671875 8.109375 
L 31.59375 8.109375 
Q 46.6875 8.109375 53.6875 14.9375 
Q 60.6875 21.78125 60.6875 36.53125 
Q 60.6875 51.171875 53.6875 57.984375 
Q 46.6875 64.796875 31.59375 64.796875 
z
M 9.8125 72.90625 
L 30.078125 72.90625 
Q 51.265625 72.90625 61.171875 64.09375 
Q 71.09375 55.28125 71.09375 36.53125 
Q 71.09375 17.671875 61.125 8.828125 
Q 51.171875 0 30.078125 0 
L 9.8125 0 
z
" id="DejaVuSans-68"/>
       </defs>
       <use xlink:href="#DejaVuSans-68"/>
       <use x="77.001953" xlink:href="#DejaVuSans-101"/>
       <use x="138.525391" xlink:href="#DejaVuSans-99"/>
      </g>
     </g>
    </g>
    <g id="xtick_13">
     <g id="line2d_13">
      <g>
       <use style="fill:#252627;stroke:#252627;stroke-width:0.8;" x="516.553368" xlink:href="#me460bafc42" y="437.3688"/>
      </g>
     </g>
     <g id="text_12">
      <!-- Jan -->
      <g style="fill:#252627;" transform="translate(504.220868 456.5263)scale(0.16 -0.16)">
       <use xlink:href="#DejaVuSans-74"/>
       <use x="29.492188" xlink:href="#DejaVuSans-97"/>
       <use x="90.771484" xlink:href="#DejaVuSans-110"/>
      </g>
      <!-- 2021 -->
      <g style="fill:#252627;" transform="translate(496.193368 474.4428)scale(0.16 -0.16)">
       <defs>
        <path d="M 19.1875 8.296875 
L 53.609375 8.296875 
L 53.609375 0 
L 7.328125 0 
L 7.328125 8.296875 
Q 12.9375 14.109375 22.625 23.890625 
Q 32.328125 33.6875 34.8125 36.53125 
Q 39.546875 41.84375 41.421875 45.53125 
Q 43.3125 49.21875 43.3125 52.78125 
Q 43.3125 58.59375 39.234375 62.25 
Q 35.15625 65.921875 28.609375 65.921875 
Q 23.96875 65.921875 18.8125 64.3125 
Q 13.671875 62.703125 7.8125 59.421875 
L 7.8125 69.390625 
Q 13.765625 71.78125 18.9375 73 
Q 24.125 74.21875 28.421875 74.21875 
Q 39.75 74.21875 46.484375 68.546875 
Q 53.21875 62.890625 53.21875 53.421875 
Q 53.21875 48.921875 51.53125 44.890625 
Q 49.859375 40.875 45.40625 35.40625 
Q 44.1875 33.984375 37.640625 27.21875 
Q 31.109375 20.453125 19.1875 8.296875 
z
" id="DejaVuSans-50"/>
        <path d="M 31.78125 66.40625 
Q 24.171875 66.40625 20.328125 58.90625 
Q 16.5 51.421875 16.5 36.375 
Q 16.5 21.390625 20.328125 13.890625 
Q 24.171875 6.390625 31.78125 6.390625 
Q 39.453125 6.390625 43.28125 13.890625 
Q 47.125 21.390625 47.125 36.375 
Q 47.125 51.421875 43.28125 58.90625 
Q 39.453125 66.40625 31.78125 66.40625 
z
M 31.78125 74.21875 
Q 44.046875 74.21875 50.515625 64.515625 
Q 56.984375 54.828125 56.984375 36.375 
Q 56.984375 17.96875 50.515625 8.265625 
Q 44.046875 -1.421875 31.78125 -1.421875 
Q 19.53125 -1.421875 13.0625 8.265625 
Q 6.59375 17.96875 6.59375 36.375 
Q 6.59375 54.828125 13.0625 64.515625 
Q 19.53125 74.21875 31.78125 74.21875 
z
" id="DejaVuSans-48"/>
        <path d="M 12.40625 8.296875 
L 28.515625 8.296875 
L 28.515625 63.921875 
L 10.984375 60.40625 
L 10.984375 69.390625 
L 28.421875 72.90625 
L 38.28125 72.90625 
L 38.28125 8.296875 
L 54.390625 8.296875 
L 54.390625 0 
L 12.40625 0 
z
" id="DejaVuSans-49"/>
       </defs>
       <use xlink:href="#DejaVuSans-50"/>
       <use x="63.623047" xlink:href="#DejaVuSans-48"/>
       <use x="127.246094" xlink:href="#DejaVuSans-50"/>
       <use x="190.869141" xlink:href="#DejaVuSans-49"/>
      </g>
     </g>
    </g>
    <g id="xtick_14">
     <g id="line2d_14">
      <g>
       <use style="fill:#252627;stroke:#252627;stroke-width:0.8;" x="558.846767" xlink:href="#me460bafc42" y="437.3688"/>
      </g>
     </g>
     <g id="text_13">
      <!-- Feb -->
      <g style="fill:#252627;" transform="translate(544.684267 456.5263)scale(0.16 -0.16)">
       <use xlink:href="#DejaVuSans-70"/>
       <use x="52.019531" xlink:href="#DejaVuSans-101"/>
       <use x="113.542969" xlink:href="#DejaVuSans-98"/>
      </g>
     </g>
    </g>
    <g id="xtick_15">
     <g id="line2d_15">
      <g>
       <use style="fill:#252627;stroke:#252627;stroke-width:0.8;" x="597.047256" xlink:href="#me460bafc42" y="437.3688"/>
      </g>
     </g>
     <g id="text_14">
      <!-- Mar -->
      <g style="fill:#252627;" transform="translate(581.953506 456.5263)scale(0.16 -0.16)">
       <use xlink:href="#DejaVuSans-77"/>
       <use x="86.279297" xlink:href="#DejaVuSans-97"/>
       <use x="147.558594" xlink:href="#DejaVuSans-114"/>
      </g>
     </g>
    </g>
    <g id="xtick_16">
     <g id="line2d_16">
      <g>
       <use style="fill:#252627;stroke:#252627;stroke-width:0.8;" x="616.1475" xlink:href="#me460bafc42" y="437.3688"/>
      </g>
     </g>
    </g>
    <g id="xtick_17">
     <g id="line2d_17">
      <defs>
       <path d="M 0 0 
L 0 2 
" id="md235f0c6f5" style="stroke:#252627;stroke-width:0.6;"/>
      </defs>
      <g>
       <use style="fill:#252627;stroke:#252627;stroke-width:0.6;" x="62.24041" xlink:href="#md235f0c6f5" y="437.3688"/>
      </g>
     </g>
    </g>
    <g id="xtick_18">
     <g id="line2d_18">
      <g>
       <use style="fill:#252627;stroke:#252627;stroke-width:0.6;" x="71.790532" xlink:href="#md235f0c6f5" y="437.3688"/>
      </g>
     </g>
    </g>
    <g id="xtick_19">
     <g id="line2d_19">
      <g>
       <use style="fill:#252627;stroke:#252627;stroke-width:0.6;" x="81.340654" xlink:href="#md235f0c6f5" y="437.3688"/>
      </g>
     </g>
    </g>
    <g id="xtick_20">
     <g id="line2d_20">
      <g>
       <use style="fill:#252627;stroke:#252627;stroke-width:0.6;" x="90.890776" xlink:href="#md235f0c6f5" y="437.3688"/>
      </g>
     </g>
    </g>
    <g id="xtick_21">
     <g id="line2d_21">
      <g>
       <use style="fill:#252627;stroke:#252627;stroke-width:0.6;" x="100.440899" xlink:href="#md235f0c6f5" y="437.3688"/>
      </g>
     </g>
    </g>
    <g id="xtick_22">
     <g id="line2d_22">
      <g>
       <use style="fill:#252627;stroke:#252627;stroke-width:0.6;" x="109.991021" xlink:href="#md235f0c6f5" y="437.3688"/>
      </g>
     </g>
    </g>
    <g id="xtick_23">
     <g id="line2d_23">
      <g>
       <use style="fill:#252627;stroke:#252627;stroke-width:0.6;" x="119.541143" xlink:href="#md235f0c6f5" y="437.3688"/>
      </g>
     </g>
    </g>
    <g id="xtick_24">
     <g id="line2d_24">
      <g>
       <use style="fill:#252627;stroke:#252627;stroke-width:0.6;" x="129.091265" xlink:href="#md235f0c6f5" y="437.3688"/>
      </g>
     </g>
    </g>
    <g id="xtick_25">
     <g id="line2d_25">
      <g>
       <use style="fill:#252627;stroke:#252627;stroke-width:0.6;" x="138.641388" xlink:href="#md235f0c6f5" y="437.3688"/>
      </g>
     </g>
    </g>
    <g id="xtick_26">
     <g id="line2d_26">
      <g>
       <use style="fill:#252627;stroke:#252627;stroke-width:0.6;" x="148.19151" xlink:href="#md235f0c6f5" y="437.3688"/>
      </g>
     </g>
    </g>
    <g id="xtick_27">
     <g id="line2d_27">
      <g>
       <use style="fill:#252627;stroke:#252627;stroke-width:0.6;" x="157.741632" xlink:href="#md235f0c6f5" y="437.3688"/>
      </g>
     </g>
    </g>
    <g id="xtick_28">
     <g id="line2d_28">
      <g>
       <use style="fill:#252627;stroke:#252627;stroke-width:0.6;" x="167.291754" xlink:href="#md235f0c6f5" y="437.3688"/>
      </g>
     </g>
    </g>
    <g id="xtick_29">
     <g id="line2d_29">
      <g>
       <use style="fill:#252627;stroke:#252627;stroke-width:0.6;" x="176.841877" xlink:href="#md235f0c6f5" y="437.3688"/>
      </g>
     </g>
    </g>
    <g id="xtick_30">
     <g id="line2d_30">
      <g>
       <use style="fill:#252627;stroke:#252627;stroke-width:0.6;" x="186.391999" xlink:href="#md235f0c6f5" y="437.3688"/>
      </g>
     </g>
    </g>
    <g id="xtick_31">
     <g id="line2d_31">
      <g>
       <use style="fill:#252627;stroke:#252627;stroke-width:0.6;" x="195.942121" xlink:href="#md235f0c6f5" y="437.3688"/>
      </g>
     </g>
    </g>
    <g id="xtick_32">
     <g id="line2d_32">
      <g>
       <use style="fill:#252627;stroke:#252627;stroke-width:0.6;" x="205.492243" xlink:href="#md235f0c6f5" y="437.3688"/>
      </g>
     </g>
    </g>
    <g id="xtick_33">
     <g id="line2d_33">
      <g>
       <use style="fill:#252627;stroke:#252627;stroke-width:0.6;" x="215.042366" xlink:href="#md235f0c6f5" y="437.3688"/>
      </g>
     </g>
    </g>
    <g id="xtick_34">
     <g id="line2d_34">
      <g>
       <use style="fill:#252627;stroke:#252627;stroke-width:0.6;" x="234.14261" xlink:href="#md235f0c6f5" y="437.3688"/>
      </g>
     </g>
    </g>
    <g id="xtick_35">
     <g id="line2d_35">
      <g>
       <use style="fill:#252627;stroke:#252627;stroke-width:0.6;" x="243.692732" xlink:href="#md235f0c6f5" y="437.3688"/>
      </g>
     </g>
    </g>
    <g id="xtick_36">
     <g id="line2d_36">
      <g>
       <use style="fill:#252627;stroke:#252627;stroke-width:0.6;" x="253.242855" xlink:href="#md235f0c6f5" y="437.3688"/>
      </g>
     </g>
    </g>
    <g id="xtick_37">
     <g id="line2d_37">
      <g>
       <use style="fill:#252627;stroke:#252627;stroke-width:0.6;" x="262.792977" xlink:href="#md235f0c6f5" y="437.3688"/>
      </g>
     </g>
    </g>
    <g id="xtick_38">
     <g id="line2d_38">
      <g>
       <use style="fill:#252627;stroke:#252627;stroke-width:0.6;" x="272.343099" xlink:href="#md235f0c6f5" y="437.3688"/>
      </g>
     </g>
    </g>
    <g id="xtick_39">
     <g id="line2d_39">
      <g>
       <use style="fill:#252627;stroke:#252627;stroke-width:0.6;" x="281.893221" xlink:href="#md235f0c6f5" y="437.3688"/>
      </g>
     </g>
    </g>
    <g id="xtick_40">
     <g id="line2d_40">
      <g>
       <use style="fill:#252627;stroke:#252627;stroke-width:0.6;" x="291.443344" xlink:href="#md235f0c6f5" y="437.3688"/>
      </g>
     </g>
    </g>
    <g id="xtick_41">
     <g id="line2d_41">
      <g>
       <use style="fill:#252627;stroke:#252627;stroke-width:0.6;" x="300.993466" xlink:href="#md235f0c6f5" y="437.3688"/>
      </g>
     </g>
    </g>
    <g id="xtick_42">
     <g id="line2d_42">
      <g>
       <use style="fill:#252627;stroke:#252627;stroke-width:0.6;" x="310.543588" xlink:href="#md235f0c6f5" y="437.3688"/>
      </g>
     </g>
    </g>
    <g id="xtick_43">
     <g id="line2d_43">
      <g>
       <use style="fill:#252627;stroke:#252627;stroke-width:0.6;" x="320.09371" xlink:href="#md235f0c6f5" y="437.3688"/>
      </g>
     </g>
    </g>
    <g id="xtick_44">
     <g id="line2d_44">
      <g>
       <use style="fill:#252627;stroke:#252627;stroke-width:0.6;" x="329.643833" xlink:href="#md235f0c6f5" y="437.3688"/>
      </g>
     </g>
    </g>
    <g id="xtick_45">
     <g id="line2d_45">
      <g>
       <use style="fill:#252627;stroke:#252627;stroke-width:0.6;" x="339.193955" xlink:href="#md235f0c6f5" y="437.3688"/>
      </g>
     </g>
    </g>
    <g id="xtick_46">
     <g id="line2d_46">
      <g>
       <use style="fill:#252627;stroke:#252627;stroke-width:0.6;" x="348.744077" xlink:href="#md235f0c6f5" y="437.3688"/>
      </g>
     </g>
    </g>
    <g id="xtick_47">
     <g id="line2d_47">
      <g>
       <use style="fill:#252627;stroke:#252627;stroke-width:0.6;" x="358.294199" xlink:href="#md235f0c6f5" y="437.3688"/>
      </g>
     </g>
    </g>
    <g id="xtick_48">
     <g id="line2d_48">
      <g>
       <use style="fill:#252627;stroke:#252627;stroke-width:0.6;" x="367.844322" xlink:href="#md235f0c6f5" y="437.3688"/>
      </g>
     </g>
    </g>
    <g id="xtick_49">
     <g id="line2d_49">
      <g>
       <use style="fill:#252627;stroke:#252627;stroke-width:0.6;" x="377.394444" xlink:href="#md235f0c6f5" y="437.3688"/>
      </g>
     </g>
    </g>
    <g id="xtick_50">
     <g id="line2d_50">
      <g>
       <use style="fill:#252627;stroke:#252627;stroke-width:0.6;" x="386.944566" xlink:href="#md235f0c6f5" y="437.3688"/>
      </g>
     </g>
    </g>
    <g id="xtick_51">
     <g id="line2d_51">
      <g>
       <use style="fill:#252627;stroke:#252627;stroke-width:0.6;" x="396.494688" xlink:href="#md235f0c6f5" y="437.3688"/>
      </g>
     </g>
    </g>
    <g id="xtick_52">
     <g id="line2d_52">
      <g>
       <use style="fill:#252627;stroke:#252627;stroke-width:0.6;" x="406.044811" xlink:href="#md235f0c6f5" y="437.3688"/>
      </g>
     </g>
    </g>
    <g id="xtick_53">
     <g id="line2d_53">
      <g>
       <use style="fill:#252627;stroke:#252627;stroke-width:0.6;" x="415.594933" xlink:href="#md235f0c6f5" y="437.3688"/>
      </g>
     </g>
    </g>
    <g id="xtick_54">
     <g id="line2d_54">
      <g>
       <use style="fill:#252627;stroke:#252627;stroke-width:0.6;" x="425.145055" xlink:href="#md235f0c6f5" y="437.3688"/>
      </g>
     </g>
    </g>
    <g id="xtick_55">
     <g id="line2d_55">
      <g>
       <use style="fill:#252627;stroke:#252627;stroke-width:0.6;" x="434.695177" xlink:href="#md235f0c6f5" y="437.3688"/>
      </g>
     </g>
    </g>
    <g id="xtick_56">
     <g id="line2d_56">
      <g>
       <use style="fill:#252627;stroke:#252627;stroke-width:0.6;" x="444.2453" xlink:href="#md235f0c6f5" y="437.3688"/>
      </g>
     </g>
    </g>
    <g id="xtick_57">
     <g id="line2d_57">
      <g>
       <use style="fill:#252627;stroke:#252627;stroke-width:0.6;" x="453.795422" xlink:href="#md235f0c6f5" y="437.3688"/>
      </g>
     </g>
    </g>
    <g id="xtick_58">
     <g id="line2d_58">
      <g>
       <use style="fill:#252627;stroke:#252627;stroke-width:0.6;" x="463.345544" xlink:href="#md235f0c6f5" y="437.3688"/>
      </g>
     </g>
    </g>
    <g id="xtick_59">
     <g id="line2d_59">
      <g>
       <use style="fill:#252627;stroke:#252627;stroke-width:0.6;" x="472.895666" xlink:href="#md235f0c6f5" y="437.3688"/>
      </g>
     </g>
    </g>
    <g id="xtick_60">
     <g id="line2d_60">
      <g>
       <use style="fill:#252627;stroke:#252627;stroke-width:0.6;" x="482.445789" xlink:href="#md235f0c6f5" y="437.3688"/>
      </g>
     </g>
    </g>
    <g id="xtick_61">
     <g id="line2d_61">
      <g>
       <use style="fill:#252627;stroke:#252627;stroke-width:0.6;" x="491.995911" xlink:href="#md235f0c6f5" y="437.3688"/>
      </g>
     </g>
    </g>
    <g id="xtick_62">
     <g id="line2d_62">
      <g>
       <use style="fill:#252627;stroke:#252627;stroke-width:0.6;" x="501.546033" xlink:href="#md235f0c6f5" y="437.3688"/>
      </g>
     </g>
    </g>
    <g id="xtick_63">
     <g id="line2d_63">
      <g>
       <use style="fill:#252627;stroke:#252627;stroke-width:0.6;" x="511.096155" xlink:href="#md235f0c6f5" y="437.3688"/>
      </g>
     </g>
    </g>
    <g id="xtick_64">
     <g id="line2d_64">
      <g>
       <use style="fill:#252627;stroke:#252627;stroke-width:0.6;" x="520.646278" xlink:href="#md235f0c6f5" y="437.3688"/>
      </g>
     </g>
    </g>
    <g id="xtick_65">
     <g id="line2d_65">
      <g>
       <use style="fill:#252627;stroke:#252627;stroke-width:0.6;" x="530.1964" xlink:href="#md235f0c6f5" y="437.3688"/>
      </g>
     </g>
    </g>
    <g id="xtick_66">
     <g id="line2d_66">
      <g>
       <use style="fill:#252627;stroke:#252627;stroke-width:0.6;" x="539.746522" xlink:href="#md235f0c6f5" y="437.3688"/>
      </g>
     </g>
    </g>
    <g id="xtick_67">
     <g id="line2d_67">
      <g>
       <use style="fill:#252627;stroke:#252627;stroke-width:0.6;" x="549.296644" xlink:href="#md235f0c6f5" y="437.3688"/>
      </g>
     </g>
    </g>
    <g id="xtick_68">
     <g id="line2d_68">
      <g>
       <use style="fill:#252627;stroke:#252627;stroke-width:0.6;" x="568.396889" xlink:href="#md235f0c6f5" y="437.3688"/>
      </g>
     </g>
    </g>
    <g id="xtick_69">
     <g id="line2d_69">
      <g>
       <use style="fill:#252627;stroke:#252627;stroke-width:0.6;" x="577.947011" xlink:href="#md235f0c6f5" y="437.3688"/>
      </g>
     </g>
    </g>
    <g id="xtick_70">
     <g id="line2d_70">
      <g>
       <use style="fill:#252627;stroke:#252627;stroke-width:0.6;" x="587.497133" xlink:href="#md235f0c6f5" y="437.3688"/>
      </g>
     </g>
    </g>
    <g id="xtick_71">
     <g id="line2d_71">
      <g>
       <use style="fill:#252627;stroke:#252627;stroke-width:0.6;" x="606.597378" xlink:href="#md235f0c6f5" y="437.3688"/>
      </g>
     </g>
    </g>
    <g id="text_15">
     <!-- date -->
     <g style="fill:#252627;" transform="translate(319.1075 493.9278)scale(0.16 -0.16)">
      <defs>
       <path d="M 45.40625 46.390625 
L 45.40625 75.984375 
L 54.390625 75.984375 
L 54.390625 0 
L 45.40625 0 
L 45.40625 8.203125 
Q 42.578125 3.328125 38.25 0.953125 
Q 33.9375 -1.421875 27.875 -1.421875 
Q 17.96875 -1.421875 11.734375 6.484375 
Q 5.515625 14.40625 5.515625 27.296875 
Q 5.515625 40.1875 11.734375 48.09375 
Q 17.96875 56 27.875 56 
Q 33.9375 56 38.25 53.625 
Q 42.578125 51.265625 45.40625 46.390625 
z
M 14.796875 27.296875 
Q 14.796875 17.390625 18.875 11.75 
Q 22.953125 6.109375 30.078125 6.109375 
Q 37.203125 6.109375 41.296875 11.75 
Q 45.40625 17.390625 45.40625 27.296875 
Q 45.40625 37.203125 41.296875 42.84375 
Q 37.203125 48.484375 30.078125 48.484375 
Q 22.953125 48.484375 18.875 42.84375 
Q 14.796875 37.203125 14.796875 27.296875 
z
" id="DejaVuSans-100"/>
      </defs>
      <use xlink:href="#DejaVuSans-100"/>
      <use x="63.476562" xlink:href="#DejaVuSans-97"/>
      <use x="124.755859" xlink:href="#DejaVuSans-116"/>
      <use x="163.964844" xlink:href="#DejaVuSans-101"/>
     </g>
    </g>
   </g>
   <g id="matplotlib.axis_2">
    <g id="ytick_1">
     <g id="line2d_72">
      <defs>
       <path d="M 0 0 
L -3.5 0 
" id="m0e5bd3320b" style="stroke:#252627;stroke-width:0.8;"/>
      </defs>
      <g>
       <use style="fill:#252627;stroke:#252627;stroke-width:0.8;" x="58.1475" xlink:href="#m0e5bd3320b" y="412.093138"/>
      </g>
     </g>
     <g id="text_16">
      <!-- −200 -->
      <g style="fill:#252627;" transform="translate(7.2 418.171888)scale(0.16 -0.16)">
       <defs>
        <path d="M 10.59375 35.5 
L 73.1875 35.5 
L 73.1875 27.203125 
L 10.59375 27.203125 
z
" id="DejaVuSans-8722"/>
       </defs>
       <use xlink:href="#DejaVuSans-8722"/>
       <use x="83.789062" xlink:href="#DejaVuSans-50"/>
       <use x="147.412109" xlink:href="#DejaVuSans-48"/>
       <use x="211.035156" xlink:href="#DejaVuSans-48"/>
      </g>
     </g>
    </g>
    <g id="ytick_2">
     <g id="line2d_73">
      <g>
       <use style="fill:#252627;stroke:#252627;stroke-width:0.8;" x="58.1475" xlink:href="#m0e5bd3320b" y="364.582561"/>
      </g>
     </g>
     <g id="text_17">
      <!-- 0 -->
      <g style="fill:#252627;" transform="translate(40.9675 370.661311)scale(0.16 -0.16)">
       <use xlink:href="#DejaVuSans-48"/>
      </g>
     </g>
    </g>
    <g id="ytick_3">
     <g id="line2d_74">
      <g>
       <use style="fill:#252627;stroke:#252627;stroke-width:0.8;" x="58.1475" xlink:href="#m0e5bd3320b" y="317.071985"/>
      </g>
     </g>
     <g id="text_18">
      <!-- 200 -->
      <g style="fill:#252627;" transform="translate(20.6075 323.150735)scale(0.16 -0.16)">
       <use xlink:href="#DejaVuSans-50"/>
       <use x="63.623047" xlink:href="#DejaVuSans-48"/>
       <use x="127.246094" xlink:href="#DejaVuSans-48"/>
      </g>
     </g>
    </g>
    <g id="ytick_4">
     <g id="line2d_75">
      <g>
       <use style="fill:#252627;stroke:#252627;stroke-width:0.8;" x="58.1475" xlink:href="#m0e5bd3320b" y="269.561408"/>
      </g>
     </g>
     <g id="text_19">
      <!-- 400 -->
      <g style="fill:#252627;" transform="translate(20.6075 275.640158)scale(0.16 -0.16)">
       <defs>
        <path d="M 37.796875 64.3125 
L 12.890625 25.390625 
L 37.796875 25.390625 
z
M 35.203125 72.90625 
L 47.609375 72.90625 
L 47.609375 25.390625 
L 58.015625 25.390625 
L 58.015625 17.1875 
L 47.609375 17.1875 
L 47.609375 0 
L 37.796875 0 
L 37.796875 17.1875 
L 4.890625 17.1875 
L 4.890625 26.703125 
z
" id="DejaVuSans-52"/>
       </defs>
       <use xlink:href="#DejaVuSans-52"/>
       <use x="63.623047" xlink:href="#DejaVuSans-48"/>
       <use x="127.246094" xlink:href="#DejaVuSans-48"/>
      </g>
     </g>
    </g>
    <g id="ytick_5">
     <g id="line2d_76">
      <g>
       <use style="fill:#252627;stroke:#252627;stroke-width:0.8;" x="58.1475" xlink:href="#m0e5bd3320b" y="222.050832"/>
      </g>
     </g>
     <g id="text_20">
      <!-- 600 -->
      <g style="fill:#252627;" transform="translate(20.6075 228.129582)scale(0.16 -0.16)">
       <defs>
        <path d="M 33.015625 40.375 
Q 26.375 40.375 22.484375 35.828125 
Q 18.609375 31.296875 18.609375 23.390625 
Q 18.609375 15.53125 22.484375 10.953125 
Q 26.375 6.390625 33.015625 6.390625 
Q 39.65625 6.390625 43.53125 10.953125 
Q 47.40625 15.53125 47.40625 23.390625 
Q 47.40625 31.296875 43.53125 35.828125 
Q 39.65625 40.375 33.015625 40.375 
z
M 52.59375 71.296875 
L 52.59375 62.3125 
Q 48.875 64.0625 45.09375 64.984375 
Q 41.3125 65.921875 37.59375 65.921875 
Q 27.828125 65.921875 22.671875 59.328125 
Q 17.53125 52.734375 16.796875 39.40625 
Q 19.671875 43.65625 24.015625 45.921875 
Q 28.375 48.1875 33.59375 48.1875 
Q 44.578125 48.1875 50.953125 41.515625 
Q 57.328125 34.859375 57.328125 23.390625 
Q 57.328125 12.15625 50.6875 5.359375 
Q 44.046875 -1.421875 33.015625 -1.421875 
Q 20.359375 -1.421875 13.671875 8.265625 
Q 6.984375 17.96875 6.984375 36.375 
Q 6.984375 53.65625 15.1875 63.9375 
Q 23.390625 74.21875 37.203125 74.21875 
Q 40.921875 74.21875 44.703125 73.484375 
Q 48.484375 72.75 52.59375 71.296875 
z
" id="DejaVuSans-54"/>
       </defs>
       <use xlink:href="#DejaVuSans-54"/>
       <use x="63.623047" xlink:href="#DejaVuSans-48"/>
       <use x="127.246094" xlink:href="#DejaVuSans-48"/>
      </g>
     </g>
    </g>
    <g id="ytick_6">
     <g id="line2d_77">
      <g>
       <use style="fill:#252627;stroke:#252627;stroke-width:0.8;" x="58.1475" xlink:href="#m0e5bd3320b" y="174.540256"/>
      </g>
     </g>
     <g id="text_21">
      <!-- 800 -->
      <g style="fill:#252627;" transform="translate(20.6075 180.619006)scale(0.16 -0.16)">
       <defs>
        <path d="M 31.78125 34.625 
Q 24.75 34.625 20.71875 30.859375 
Q 16.703125 27.09375 16.703125 20.515625 
Q 16.703125 13.921875 20.71875 10.15625 
Q 24.75 6.390625 31.78125 6.390625 
Q 38.8125 6.390625 42.859375 10.171875 
Q 46.921875 13.96875 46.921875 20.515625 
Q 46.921875 27.09375 42.890625 30.859375 
Q 38.875 34.625 31.78125 34.625 
z
M 21.921875 38.8125 
Q 15.578125 40.375 12.03125 44.71875 
Q 8.5 49.078125 8.5 55.328125 
Q 8.5 64.0625 14.71875 69.140625 
Q 20.953125 74.21875 31.78125 74.21875 
Q 42.671875 74.21875 48.875 69.140625 
Q 55.078125 64.0625 55.078125 55.328125 
Q 55.078125 49.078125 51.53125 44.71875 
Q 48 40.375 41.703125 38.8125 
Q 48.828125 37.15625 52.796875 32.3125 
Q 56.78125 27.484375 56.78125 20.515625 
Q 56.78125 9.90625 50.3125 4.234375 
Q 43.84375 -1.421875 31.78125 -1.421875 
Q 19.734375 -1.421875 13.25 4.234375 
Q 6.78125 9.90625 6.78125 20.515625 
Q 6.78125 27.484375 10.78125 32.3125 
Q 14.796875 37.15625 21.921875 38.8125 
z
M 18.3125 54.390625 
Q 18.3125 48.734375 21.84375 45.5625 
Q 25.390625 42.390625 31.78125 42.390625 
Q 38.140625 42.390625 41.71875 45.5625 
Q 45.3125 48.734375 45.3125 54.390625 
Q 45.3125 60.0625 41.71875 63.234375 
Q 38.140625 66.40625 31.78125 66.40625 
Q 25.390625 66.40625 21.84375 63.234375 
Q 18.3125 60.0625 18.3125 54.390625 
z
" id="DejaVuSans-56"/>
       </defs>
       <use xlink:href="#DejaVuSans-56"/>
       <use x="63.623047" xlink:href="#DejaVuSans-48"/>
       <use x="127.246094" xlink:href="#DejaVuSans-48"/>
      </g>
     </g>
    </g>
    <g id="ytick_7">
     <g id="line2d_78">
      <g>
       <use style="fill:#252627;stroke:#252627;stroke-width:0.8;" x="58.1475" xlink:href="#m0e5bd3320b" y="127.029679"/>
      </g>
     </g>
     <g id="text_22">
      <!-- 1000 -->
      <g style="fill:#252627;" transform="translate(10.4275 133.108429)scale(0.16 -0.16)">
       <use xlink:href="#DejaVuSans-49"/>
       <use x="63.623047" xlink:href="#DejaVuSans-48"/>
       <use x="127.246094" xlink:href="#DejaVuSans-48"/>
       <use x="190.869141" xlink:href="#DejaVuSans-48"/>
      </g>
     </g>
    </g>
    <g id="ytick_8">
     <g id="line2d_79">
      <g>
       <use style="fill:#252627;stroke:#252627;stroke-width:0.8;" x="58.1475" xlink:href="#m0e5bd3320b" y="79.519103"/>
      </g>
     </g>
     <g id="text_23">
      <!-- 1200 -->
      <g style="fill:#252627;" transform="translate(10.4275 85.597853)scale(0.16 -0.16)">
       <use xlink:href="#DejaVuSans-49"/>
       <use x="63.623047" xlink:href="#DejaVuSans-50"/>
       <use x="127.246094" xlink:href="#DejaVuSans-48"/>
       <use x="190.869141" xlink:href="#DejaVuSans-48"/>
      </g>
     </g>
    </g>
   </g>
   <g id="line2d_80">
    <path clip-path="url(#p793b1a9f74)" d="M 66.333319 364.582561 
L 104.533808 364.480651 
L 107.262414 364.243098 
L 108.626718 364.005545 
L 109.991021 363.63235 
L 111.355324 363.428767 
L 112.719627 362.817781 
L 114.08393 362.817781 
L 115.448233 360.238669 
L 116.812537 358.304276 
L 118.17684 355.351969 
L 119.541143 353.926652 
L 120.905446 347.682337 
L 122.269749 345.272838 
L 123.634053 338.282131 
L 124.998356 333.700687 
L 126.362659 324.538034 
L 127.726962 314.25532 
L 129.091265 297.762261 
L 130.455568 287.377875 
L 131.819872 261.959716 
L 133.184175 244.618356 
L 134.548478 225.614125 
L 135.912781 208.238795 
L 137.277084 193.849979 
L 138.641388 181.157766 
L 140.005691 172.639833 
L 141.369994 169.789198 
L 142.734297 161.542787 
L 144.0986 158.929706 
L 145.462903 162.153536 
L 146.827207 166.463458 
L 148.19151 173.691954 
L 149.555813 175.184974 
L 150.920116 181.157766 
L 152.284419 191.542153 
L 155.013026 206.474252 
L 156.377329 209.562439 
L 157.741632 214.754633 
L 159.105935 228.46476 
L 160.470238 231.68859 
L 161.834542 233.317728 
L 163.198845 231.518977 
L 164.563148 247.944096 
L 165.927451 254.493667 
L 167.291754 259.516247 
L 168.656057 255.104653 
L 170.020361 262.468792 
L 171.384664 268.136091 
L 172.748967 278.995584 
L 174.11327 267.559075 
L 175.477573 271.699384 
L 176.841877 274.006973 
L 178.20618 278.384835 
L 179.570483 277.773849 
L 180.934786 283.610999 
L 182.299089 296.065421 
L 183.663392 289.990956 
L 185.027696 294.198968 
L 186.391999 299.866267 
L 187.756302 303.802994 
L 189.120605 310.89561 
L 190.484908 312.762063 
L 191.849211 304.990758 
L 193.213515 317.818614 
L 194.577818 318.531272 
L 195.942121 319.922619 
L 197.306424 320.228112 
L 198.670727 322.264178 
L 200.035031 322.128536 
L 201.399334 325.216723 
L 202.763637 327.761865 
L 204.12794 332.614832 
L 205.492243 331.834234 
L 206.856546 335.465467 
L 208.22085 337.976638 
L 209.585153 343.575997 
L 210.949456 324.91123 
L 212.313759 326.743713 
L 213.678062 324.232541 
L 215.042366 394.276672 
L 216.406669 387.014442 
L 217.770972 390.747348 
L 219.135275 392.444189 
L 220.499578 415.724371 
L 221.863881 417.285331 
L 223.228185 419.7288 
L 224.592488 354.63931 
L 225.956791 364.243098 
L 230.0497 364.141426 
L 232.778307 364.277068 
L 236.871216 364.311038 
L 238.23552 364.480651 
L 246.421339 364.582561 
L 247.785642 364.582561 
L 249.149945 324.571767 
L 250.514248 324.334214 
L 257.335764 324.062929 
L 258.700067 363.801963 
L 260.06437 363.937843 
L 262.792977 363.835933 
L 265.521583 363.326857 
L 266.885886 363.292887 
L 268.250189 362.987631 
L 270.978796 363.157244 
L 272.343099 363.157244 
L 275.071705 363.496707 
L 276.436009 363.462737 
L 277.800312 363.971813 
L 292.807647 364.073485 
L 296.900556 364.175396 
L 309.179285 364.141426 
L 311.907891 362.478555 
L 314.636498 362.648168 
L 318.729407 362.614198 
L 320.09371 361.053238 
L 321.458013 361.765897 
L 322.822317 361.867569 
L 324.18662 361.019268 
L 325.550923 360.713775 
L 328.279529 360.713775 
L 329.643833 362.207032 
L 331.008136 361.562314 
L 332.372439 357.184452 
L 333.736742 357.523915 
L 335.101045 357.082779 
L 337.829652 357.082779 
L 339.193955 356.912929 
L 340.558258 355.962717 
L 341.922561 358.677709 
L 343.286864 358.372216 
L 344.651167 358.711679 
L 347.379774 358.711679 
L 348.744077 357.048809 
L 350.10838 356.845226 
L 351.472683 357.014839 
L 352.836987 356.505763 
L 354.20129 350.770524 
L 356.929896 350.770524 
L 358.294199 350.261448 
L 359.658502 349.58276 
L 361.022806 349.854283 
L 362.387109 348.802161 
L 363.751412 353.417576 
L 367.844322 353.315666 
L 369.208625 350.668851 
L 370.572928 343.711878 
L 371.937231 340.62369 
L 373.301534 339.198373 
L 376.030141 339.198373 
L 377.394444 336.924517 
L 378.758747 334.04015 
L 380.12305 337.739086 
L 381.487353 340.386137 
L 382.851656 339.571569 
L 385.580263 339.571569 
L 386.944566 339.198373 
L 388.308869 347.376844 
L 389.673172 338.89288 
L 391.037476 335.56714 
L 395.130385 335.60111 
L 396.494688 336.958487 
L 397.858991 328.101328 
L 399.223295 338.417774 
L 400.587598 340.318197 
L 401.951901 335.974305 
L 404.680507 335.974305 
L 406.044811 334.073882 
L 407.409114 340.216525 
L 408.773417 335.70302 
L 410.13772 335.227914 
L 411.502023 335.872633 
L 414.23063 335.872633 
L 415.594933 335.126004 
L 416.959236 330.442886 
L 418.323539 332.241399 
L 419.687842 331.732323 
L 421.052145 331.427068 
L 423.780752 331.427068 
L 425.145055 329.322825 
L 426.509358 327.659954 
L 427.873661 327.252789 
L 429.237965 326.64204 
L 430.602268 326.370517 
L 433.330874 326.370517 
L 434.695177 322.976837 
L 436.05948 323.961018 
L 437.423784 274.583989 
L 438.788087 267.966478 
L 440.15239 264.301275 
L 442.880996 264.301275 
L 444.2453 259.78777 
L 445.609603 267.864568 
L 446.973906 297.151513 
L 448.338209 297.558678 
L 449.702512 298.882323 
L 452.431119 298.882323 
L 453.795422 299.832535 
L 455.159725 285.070286 
L 456.524028 298.950026 
L 457.888331 302.479349 
L 459.252634 301.80066 
L 461.981241 301.80066 
L 463.345544 300.850449 
L 464.709847 297.389066 
L 466.07415 296.77808 
L 467.438454 293.893713 
L 468.802757 295.047507 
L 471.531363 295.047507 
L 472.895666 298.814383 
L 475.624273 305.296251 
L 478.352879 310.82767 
L 481.081485 310.82767 
L 482.445789 311.065223 
L 483.810092 326.065024 
L 485.174395 322.671344 
L 487.903001 318.022196 
L 490.631608 318.022196 
L 491.995911 318.191809 
L 493.360214 305.024728 
L 494.724517 311.065223 
L 496.08882 315.952161 
L 497.453123 320.397725 
L 500.18173 320.397725 
L 501.546033 322.264178 
L 502.910336 326.60807 
L 504.274639 327.184849 
L 505.638943 329.051539 
L 507.003246 334.107852 
L 509.731852 334.107852 
L 511.096155 335.329587 
L 512.460458 333.293521 
L 513.824762 330.951962 
L 515.189065 330.205334 
L 519.281974 330.205334 
L 520.646278 332.139727 
L 522.010581 331.053635 
L 523.374884 339.435926 
L 524.739187 336.144156 
L 526.10349 329.390765 
L 528.832097 329.390765 
L 530.1964 323.961018 
L 531.560703 322.060595 
L 532.925006 315.443085 
L 534.289309 316.936342 
L 535.653612 315.714608 
L 538.382219 315.714608 
L 539.746522 313.881887 
L 541.110825 314.017767 
L 542.475128 304.888848 
L 543.839432 297.999814 
L 545.203735 292.400455 
L 547.932341 292.400455 
L 549.296644 281.812248 
L 550.660947 275.635873 
L 552.025251 274.516049 
L 554.753857 266.914357 
L 557.482463 266.914357 
L 558.846767 267.083969 
L 560.21107 262.400852 
L 561.575373 260.093263 
L 562.939676 262.909928 
L 564.303979 260.500429 
L 567.032586 260.500429 
L 568.396889 255.511818 
L 569.761192 254.086501 
L 572.489798 248.690725 
L 573.854101 250.523208 
L 576.582708 250.523208 
L 577.947011 257.548122 
L 579.311314 265.55698 
L 580.675617 275.941366 
L 583.404224 284.696853 
L 586.13283 284.696853 
L 587.497133 290.364152 
L 588.861436 293.316697 
L 590.22574 291.551916 
L 591.590043 293.011204 
L 592.954346 295.31903 
L 595.682952 295.31903 
L 597.047256 297.626619 
L 598.411559 306.144552 
L 599.775862 304.210159 
L 601.140165 307.298347 
L 602.504468 296.84602 
L 605.233075 296.84602 
L 606.597378 302.581259 
L 607.961681 299.221549 
L 609.325984 306.416075 
L 610.690287 310.82767 
L 612.05459 326.5741 
L 614.783197 326.5741 
L 616.1475 331.053635 
L 616.1475 331.053635 
" style="fill:none;stroke:#bb0a21;stroke-linecap:square;stroke-width:2;"/>
   </g>
   <g id="line2d_81">
    <path clip-path="url(#p793b1a9f74)" d="M 64.969016 364.582561 
L 109.991021 364.480651 
L 111.355324 364.345008 
L 115.448233 364.277068 
L 116.812537 363.66632 
L 118.17684 363.191214 
L 119.541143 362.444585 
L 120.905446 362.00345 
L 122.269749 360.815685 
L 123.634053 359.322428 
L 124.998356 358.270544 
L 126.362659 356.946899 
L 127.726962 356.23424 
L 129.091265 354.435727 
L 130.455568 349.989925 
L 131.819872 344.696059 
L 133.184175 340.080644 
L 134.548478 331.393098 
L 135.912781 323.451943 
L 137.277084 317.411448 
L 138.641388 307.298347 
L 140.005691 298.6108 
L 142.734297 266.133758 
L 145.462903 235.116241 
L 146.827207 221.948922 
L 148.19151 215.297441 
L 149.555813 191.50842 
L 150.920116 179.325283 
L 152.284419 163.714733 
L 153.648722 150.615355 
L 155.013026 147.66281 
L 156.377329 145.762387 
L 157.741632 140.502253 
L 159.105935 141.350792 
L 160.470238 146.373373 
L 161.834542 148.986455 
L 163.198845 156.079071 
L 164.563148 147.119764 
L 165.927451 154.721456 
L 167.291754 159.778007 
L 168.656057 154.891307 
L 170.020361 155.807548 
L 171.384664 167.888775 
L 172.748967 164.359452 
L 174.11327 174.268733 
L 175.477573 176.610291 
L 178.20618 193.782039 
L 179.570483 196.700614 
L 180.934786 198.329514 
L 182.299089 209.121066 
L 183.663392 216.960311 
L 185.027696 220.727425 
L 186.391999 222.424028 
L 187.756302 230.772349 
L 189.120605 234.980598 
L 190.484908 241.021093 
L 191.849211 245.093462 
L 193.213515 255.613729 
L 194.577818 256.835463 
L 195.942121 259.71983 
L 197.306424 263.452974 
L 198.670727 270.206127 
L 200.035031 273.76942 
L 201.399334 281.540963 
L 202.763637 276.925548 
L 204.12794 282.016068 
L 205.492243 283.441386 
L 208.22085 291.348333 
L 209.585153 294.063325 
L 210.949456 296.099391 
L 212.313759 302.581259 
L 213.678062 291.99329 
L 215.042366 293.418607 
L 216.406669 305.97494 
L 217.770972 302.818812 
L 219.135275 300.443283 
L 220.499578 301.020299 
L 221.863881 303.259948 
L 223.228185 314.085708 
L 224.592488 314.696456 
L 225.956791 310.658057 
L 227.321094 316.359326 
L 228.685397 323.587823 
L 230.0497 324.130631 
L 231.414004 324.504064 
L 232.778307 324.707647 
L 234.14261 326.031054 
L 235.506913 327.829805 
L 236.871216 330.884022 
L 238.23552 332.716505 
L 239.599823 337.026427 
L 240.964126 338.248161 
L 242.328429 339.164403 
L 243.692732 339.775151 
L 245.057035 342.388233 
L 246.421339 344.220954 
L 247.785642 344.526209 
L 249.149945 346.121377 
L 250.514248 347.343111 
L 251.878551 347.207231 
L 253.242855 347.750277 
L 255.971461 349.413147 
L 257.335764 348.327055 
L 258.700067 348.564608 
L 260.06437 349.61673 
L 261.428674 349.61673 
L 262.792977 349.345207 
L 264.15728 350.702584 
L 265.521583 350.363358 
L 266.885886 352.331722 
L 268.250189 353.281933 
L 269.614493 353.553219 
L 272.343099 354.299847 
L 273.707402 354.299847 
L 275.071705 355.657462 
L 276.436009 355.996687 
L 279.164615 357.014839 
L 280.528918 357.354065 
L 281.893221 357.388035 
L 283.257524 357.727498 
L 284.621828 358.779382 
L 288.714737 359.559981 
L 291.443344 359.492041 
L 292.807647 360.136997 
L 294.17195 360.442252 
L 295.536253 360.951328 
L 298.264859 360.544162 
L 299.629163 360.646072 
L 302.357769 361.019268 
L 303.722072 360.442252 
L 306.450678 361.154911 
L 311.907891 361.494374 
L 313.272194 362.173062 
L 314.636498 361.562314 
L 317.365104 362.173062 
L 318.729407 362.173062 
L 320.09371 361.596284 
L 321.458013 361.765897 
L 322.822317 361.562314 
L 328.279529 361.596284 
L 329.643833 362.105122 
L 332.372439 362.241003 
L 335.101045 362.953661 
L 336.465348 362.444585 
L 341.922561 362.241003 
L 344.651167 361.799867 
L 347.379774 362.173062 
L 348.744077 362.207032 
L 350.10838 362.648168 
L 351.472683 362.885721 
L 355.565593 362.784048 
L 358.294199 362.750078 
L 359.658502 361.765897 
L 365.115715 362.07139 
L 367.844322 361.765897 
L 369.208625 361.93551 
L 370.572928 361.528344 
L 371.937231 361.290791 
L 374.665837 359.967146 
L 376.030141 359.526011 
L 377.394444 359.458308 
L 378.758747 359.118845 
L 381.487353 357.897111 
L 384.21596 357.388035 
L 386.944566 357.354065 
L 389.673172 355.012506 
L 391.037476 354.367787 
L 392.401779 353.281933 
L 395.130385 352.263781 
L 397.858991 351.924318 
L 399.223295 351.958288 
L 401.951901 350.634881 
L 406.044811 347.410814 
L 410.13772 340.793303 
L 411.502023 339.130433 
L 412.866326 336.788874 
L 414.23063 336.720934 
L 415.594933 335.70302 
L 416.959236 332.37728 
L 419.687842 328.813986 
L 421.052145 325.827471 
L 422.416449 325.01314 
L 423.780752 322.162506 
L 425.145055 321.415877 
L 427.873661 313.101526 
L 429.237965 310.013339 
L 430.602268 308.316498 
L 431.966571 303.158275 
L 433.330874 302.784842 
L 436.05948 300.612896 
L 437.423784 294.436521 
L 438.788087 291.110781 
L 441.516693 285.409511 
L 442.880996 285.613094 
L 444.2453 283.610999 
L 445.609603 279.029554 
L 446.973906 275.50023 
L 448.338209 269.221945 
L 449.702512 268.509287 
L 451.066815 266.846417 
L 452.431119 266.439251 
L 453.795422 265.794532 
L 455.159725 263.520676 
L 457.888331 267.864568 
L 459.252634 263.283123 
L 460.616938 267.423433 
L 461.981241 259.584187 
L 463.345544 259.82174 
L 464.709847 259.516247 
L 466.07415 253.882918 
L 467.438454 254.018561 
L 468.802757 253.713305 
L 470.16706 248.996218 
L 471.531363 255.240295 
L 474.259969 255.545788 
L 475.624273 257.140718 
L 476.988576 259.991353 
L 478.352879 260.534399 
L 479.717182 263.317093 
L 481.081485 262.774285 
L 482.445789 263.249391 
L 483.810092 263.385034 
L 485.174395 267.28779 
L 486.538698 263.826169 
L 487.903001 266.541161 
L 489.267304 262.366882 
L 490.631608 265.319427 
L 491.995911 263.826169 
L 493.360214 266.982297 
L 494.724517 264.301275 
L 496.08882 263.758229 
L 497.453123 261.518581 
L 498.817427 260.941565 
L 500.18173 254.76519 
L 501.546033 255.376176 
L 502.910336 249.097891 
L 504.274639 244.482713 
L 505.638943 243.023426 
L 507.003246 240.308434 
L 508.367549 251.371747 
L 509.731852 250.659088 
L 511.096155 245.84009 
L 512.460458 253.747276 
L 513.824762 245.80612 
L 515.189065 232.571099 
L 516.553368 231.043871 
L 517.917671 223.102954 
L 519.281974 219.43775 
L 520.646278 217.639237 
L 522.010581 203.284154 
L 523.374884 201.248089 
L 524.739187 194.562638 
L 526.10349 170.196364 
L 527.467793 150.174219 
L 530.1964 142.334974 
L 531.560703 129.948254 
L 532.925006 112.097818 
L 534.289309 109.00963 
L 535.653612 110.63853 
L 537.017916 101.679461 
L 538.382219 97.776705 
L 539.746522 95.299503 
L 541.110825 82.878813 
L 542.475128 74.123327 
L 543.839432 72.664039 
L 545.203735 68.727313 
L 546.568038 66.9288 
L 547.932341 69.338299 
L 549.296644 69.609822 
L 550.660947 68.795253 
L 552.025251 72.188933 
L 553.389554 74.123327 
L 556.11816 84.30413 
L 557.482463 85.016789 
L 560.21107 97.641062 
L 561.575373 111.351189 
L 562.939676 122.346562 
L 564.303979 130.253509 
L 565.668282 143.047632 
L 567.032586 150.309862 
L 568.396889 152.821033 
L 569.761192 166.361547 
L 571.125495 177.221277 
L 572.489798 185.196165 
L 573.854101 193.883949 
L 575.218405 200.908626 
L 576.582708 204.879084 
L 577.947011 208.204825 
L 582.039921 233.38543 
L 583.404224 241.055063 
L 584.768527 246.993885 
L 586.13283 248.419202 
L 587.497133 250.353595 
L 588.861436 258.871529 
L 590.22574 268.88272 
L 591.590043 273.328284 
L 592.954346 279.708242 
L 594.318649 284.968376 
L 597.047256 289.956986 
L 598.411559 296.91396 
L 599.775862 295.420703 
L 601.140165 298.203397 
L 602.504468 301.90257 
L 603.868771 306.382105 
L 605.233075 308.486111 
L 606.597378 309.809756 
L 607.961681 313.610602 
L 609.325984 323.689496 
L 612.05459 327.795835 
L 613.418894 329.051539 
L 614.783197 330.069453 
L 616.1475 330.103423 
L 616.1475 330.103423 
" style="fill:none;stroke:#4b88a2;stroke-linecap:square;stroke-width:2;"/>
   </g>
   <g id="line2d_82">
    <path clip-path="url(#p793b1a9f74)" d="M 112.719627 364.582561 
L 124.998356 364.480651 
L 127.726962 364.412949 
L 130.455568 364.345008 
L 133.184175 364.277068 
L 134.548478 364.311038 
L 140.005691 363.801963 
L 141.369994 363.59838 
L 142.734297 363.021601 
L 145.462903 362.648168 
L 146.827207 362.376645 
L 148.19151 362.274973 
L 150.920116 361.765897 
L 152.284419 361.765897 
L 153.648722 360.917358 
L 156.377329 360.849655 
L 157.741632 360.37455 
L 159.105935 360.40852 
L 160.470238 360.069057 
L 161.834542 359.967146 
L 163.198845 360.136997 
L 165.927451 357.557885 
L 171.384664 354.469698 
L 172.748967 353.247963 
L 174.11327 352.636977 
L 175.477573 353.451546 
L 176.841877 353.146053 
L 178.20618 352.026229 
L 179.570483 350.566941 
L 180.934786 348.327055 
L 183.663392 347.614396 
L 185.027696 345.646271 
L 186.391999 345.510391 
L 187.756302 344.560179 
L 189.120605 344.560179 
L 190.484908 345.035285 
L 191.849211 344.560179 
L 193.213515 343.745848 
L 194.577818 344.119043 
L 195.942121 343.643938 
L 197.306424 343.779818 
L 198.670727 342.999219 
L 200.035031 342.863339 
L 201.399334 341.573902 
L 202.763637 340.52178 
L 204.12794 338.82494 
L 205.492243 336.483381 
L 206.856546 335.499199 
L 208.22085 335.56714 
L 209.585153 334.684868 
L 210.949456 335.66905 
L 212.313759 335.736752 
L 213.678062 337.16207 
L 216.406669 334.922421 
L 217.770972 332.037816 
L 219.135275 332.309339 
L 220.499578 331.121575 
L 221.863881 330.714409 
L 223.228185 328.949629 
L 224.592488 330.476856 
L 225.956791 331.359128 
L 227.321094 333.666717 
L 228.685397 332.954058 
L 231.414004 333.021998 
L 232.778307 332.037816 
L 234.14261 332.784445 
L 236.871216 330.340976 
L 238.23552 328.712076 
L 239.599823 333.157641 
L 240.964126 330.408916 
L 242.328429 323.078747 
L 243.692732 320.838861 
L 245.057035 319.854679 
L 246.421339 318.632945 
L 247.785642 317.988226 
L 249.149945 311.235073 
L 250.514248 311.879792 
L 251.878551 318.531272 
L 253.242855 318.327689 
L 254.607158 318.836765 
L 255.971461 319.481484 
L 257.335764 320.465665 
L 258.700067 321.178324 
L 261.428674 321.415877 
L 262.792977 321.110384 
L 264.15728 321.381907 
L 265.521583 321.347937 
L 266.885886 321.008474 
L 268.250189 320.906801 
L 269.614493 321.246027 
L 272.343099 321.55152 
L 273.707402 321.313967 
L 276.436009 321.51755 
L 277.800312 321.347937 
L 279.164615 321.483579 
L 280.528918 321.110384 
L 281.893221 321.076414 
L 283.257524 321.246027 
L 284.621828 321.008474 
L 285.986131 320.431695 
L 287.350434 320.499635 
L 288.714737 319.922619 
L 290.07904 319.888649 
L 291.443344 319.447514 
L 292.807647 318.768825 
L 294.17195 318.768825 
L 295.536253 193.578456 
L 296.900556 193.408843 
L 299.629163 206.575925 
L 300.993466 193.748069 
L 302.357769 193.782039 
L 303.722072 193.238993 
L 305.086375 325.148783 
L 306.450678 324.605737 
L 307.814982 324.605737 
L 309.179285 304.481682 
L 310.543588 317.309538 
L 311.907891 317.241598 
L 313.272194 316.664819 
L 314.636498 310.013339 
L 316.000801 309.33465 
L 317.365104 309.33465 
L 318.729407 315.103622 
L 320.09371 314.866069 
L 321.458013 313.881887 
L 322.822317 321.381907 
L 324.18662 320.838861 
L 325.550923 187.877187 
L 326.915226 187.877187 
L 328.279529 194.800191 
L 329.643833 194.732251 
L 331.008136 195.580552 
L 332.372439 189.574027 
L 333.736742 190.795762 
L 335.101045 324.605737 
L 336.465348 317.44518 
L 337.829652 317.818614 
L 339.193955 317.682733 
L 340.558258 319.379574 
L 341.922561 319.006378 
L 343.286864 320.804891 
L 344.651167 322.400058 
L 346.015471 322.976837 
L 347.379774 325.420306 
L 348.744077 326.404487 
L 350.10838 326.200905 
L 351.472683 328.372613 
L 352.836987 332.546892 
L 354.20129 326.302577 
L 355.565593 327.829805 
L 356.929896 327.931477 
L 358.294199 328.949629 
L 359.658502 329.560377 
L 361.022806 328.780016 
L 362.387109 324.9452 
L 363.751412 332.716505 
L 365.115715 333.497104 
L 366.480018 336.110185 
L 367.844322 334.990361 
L 370.572928 337.29795 
L 371.937231 336.924517 
L 373.301534 337.36589 
L 374.665837 336.992457 
L 376.030141 335.974305 
L 377.394444 342.21862 
L 378.758747 345.680241 
L 380.12305 342.829606 
L 381.487353 336.788874 
L 382.851656 334.345405 
L 384.21596 338.99479 
L 385.580263 338.349834 
L 386.944566 334.277703 
L 388.308869 332.173459 
L 389.673172 336.483381 
L 391.037476 344.458506 
L 392.401779 347.682337 
L 393.766082 345.171165 
L 395.130385 348.734458 
L 396.494688 348.293323 
L 397.858991 347.275171 
L 399.223295 347.003648 
L 400.587598 346.053436 
L 401.951901 345.476421 
L 403.316204 343.745848 
L 404.680507 340.962916 
L 406.044811 343.711878 
L 407.409114 344.730029 
L 408.773417 347.444784 
L 410.13772 345.306808 
L 411.502023 348.327055 
L 412.866326 350.159776 
L 414.23063 351.109987 
L 415.594933 350.940137 
L 416.959236 350.974107 
L 418.323539 349.107654 
L 419.687842 350.770524 
L 421.052145 350.770524 
L 422.416449 351.517153 
L 423.780752 349.413147 
L 425.145055 351.34754 
L 426.509358 351.788676 
L 427.873661 351.619063 
L 429.237965 353.349636 
L 430.602268 351.754706 
L 431.966571 351.754706 
L 433.330874 353.485516 
L 434.695177 353.485516 
L 436.05948 355.114416 
L 437.423784 350.532971 
L 438.788087 350.499001 
L 440.15239 352.094169 
L 441.516693 351.958288 
L 442.880996 352.87453 
L 444.2453 350.906404 
L 445.609603 348.734458 
L 446.973906 353.689099 
L 448.338209 354.367787 
L 449.702512 353.146053 
L 451.066815 353.621159 
L 452.431119 352.501334 
L 453.795422 352.636977 
L 455.159725 353.451546 
L 456.524028 353.553219 
L 457.888331 354.876863 
L 459.252634 351.720736 
L 460.616938 349.54879 
L 461.981241 351.958288 
L 463.345544 352.229811 
L 464.709847 352.026229 
L 467.438454 352.094169 
L 468.802757 353.078113 
L 470.16706 353.383606 
L 471.531363 351.890348 
L 472.895666 353.451546 
L 474.259969 353.553219 
L 475.624273 355.046476 
L 476.988576 351.31357 
L 478.352879 354.70725 
L 479.717182 353.858712 
L 481.081485 354.130234 
L 482.445789 352.670947 
L 483.810092 354.130234 
L 485.174395 349.820313 
L 486.538698 350.227478 
L 487.903001 350.227478 
L 489.267304 352.738887 
L 490.631608 353.960622 
L 491.995911 350.906404 
L 493.360214 348.293323 
L 494.724517 352.603007 
L 496.08882 352.399424 
L 497.453123 352.399424 
L 498.817427 353.926652 
L 500.18173 347.95386 
L 501.546033 350.125806 
L 502.910336 350.363358 
L 504.274639 348.836131 
L 505.638943 352.365454 
L 507.003246 349.005981 
L 508.367549 347.275171 
L 509.731852 353.247963 
L 511.096155 351.992259 
L 512.460458 352.636977 
L 513.824762 352.501334 
L 515.189065 348.904071 
L 516.553368 352.263781 
L 517.917671 353.994592 
L 519.281974 350.838464 
L 522.010581 354.232145 
L 523.374884 352.670947 
L 524.739187 356.26821 
L 526.10349 352.060199 
L 527.467793 352.060199 
L 528.832097 355.216089 
L 530.1964 349.311237 
L 531.560703 347.444784 
L 532.925006 348.496905 
L 534.289309 348.496905 
L 535.653612 344.051103 
L 537.017916 344.051103 
L 538.382219 340.114614 
L 539.746522 347.95386 
L 541.110825 349.820313 
L 542.475128 342.693726 
L 543.839432 342.693726 
L 545.203735 343.542265 
L 546.568038 343.542265 
L 547.932341 336.144156 
L 549.296644 336.144156 
L 550.660947 319.209961 
L 552.025251 328.508493 
L 553.389554 322.908897 
L 554.753857 323.519883 
L 556.11816 310.86164 
L 557.482463 316.461236 
L 558.846767 316.461236 
L 560.21107 328.13506 
L 561.575373 316.019863 
L 562.939676 321.61946 
L 564.303979 321.51755 
L 565.668282 328.067358 
L 567.032586 321.076414 
L 568.396889 321.076414 
L 569.761192 315.544757 
L 571.125495 327.659954 
L 572.489798 313.440752 
L 573.854101 320.737188 
L 575.218405 319.719037 
L 576.582708 317.241598 
L 577.947011 311.235073 
L 579.311314 322.026625 
L 580.675617 316.053833 
L 582.039921 321.721132 
L 583.404224 315.578727 
L 584.768527 315.88422 
L 586.13283 317.275568 
L 587.497133 323.28233 
L 588.861436 317.649001 
L 590.22574 316.019863 
L 591.590043 317.920286 
L 592.954346 310.115011 
L 594.318649 309.979368 
L 595.682952 323.791406 
L 597.047256 317.173895 
L 598.411559 309.23274 
L 599.775862 316.834432 
L 601.140165 316.868402 
L 602.504468 323.451943 
L 603.868771 324.130631 
L 605.233075 317.682733 
L 606.597378 318.429362 
L 607.961681 321.51755 
L 609.325984 321.51755 
L 610.690287 322.705314 
L 612.05459 324.605737 
L 613.418894 324.775587 
L 616.1475 325.589919 
L 616.1475 325.589919 
" style="fill:none;stroke:#d3d4d9;stroke-linecap:square;stroke-width:2;"/>
   </g>
   <g id="patch_3">
    <path d="M 58.1475 437.3688 
L 58.1475 49.2888 
" style="fill:none;stroke:#000000;stroke-linecap:square;stroke-linejoin:miter;stroke-width:0.8;"/>
   </g>
   <g id="patch_4">
    <path d="M 616.1475 437.3688 
L 616.1475 49.2888 
" style="fill:none;stroke:#000000;stroke-linecap:square;stroke-linejoin:miter;stroke-width:0.8;"/>
   </g>
   <g id="patch_5">
    <path d="M 58.1475 437.3688 
L 616.1475 437.3688 
" style="fill:none;stroke:#000000;stroke-linecap:square;stroke-linejoin:miter;stroke-width:0.8;"/>
   </g>
   <g id="patch_6">
    <path d="M 58.1475 49.2888 
L 616.1475 49.2888 
" style="fill:none;stroke:#000000;stroke-linecap:square;stroke-linejoin:miter;stroke-width:0.8;"/>
   </g>
   <g id="text_24">
    <!-- Latest update:  -->
    <g style="fill:#252627;" transform="translate(40.1475 491.690987)scale(0.1 -0.1)">
     <defs>
      <path d="M 9.8125 72.90625 
L 19.671875 72.90625 
L 19.671875 8.296875 
L 55.171875 8.296875 
L 55.171875 0 
L 9.8125 0 
z
" id="DejaVuSans-76"/>
      <path d="M 44.28125 53.078125 
L 44.28125 44.578125 
Q 40.484375 46.53125 36.375 47.5 
Q 32.28125 48.484375 27.875 48.484375 
Q 21.1875 48.484375 17.84375 46.4375 
Q 14.5 44.390625 14.5 40.28125 
Q 14.5 37.15625 16.890625 35.375 
Q 19.28125 33.59375 26.515625 31.984375 
L 29.59375 31.296875 
Q 39.15625 29.25 43.1875 25.515625 
Q 47.21875 21.78125 47.21875 15.09375 
Q 47.21875 7.46875 41.1875 3.015625 
Q 35.15625 -1.421875 24.609375 -1.421875 
Q 20.21875 -1.421875 15.453125 -0.5625 
Q 10.6875 0.296875 5.421875 2 
L 5.421875 11.28125 
Q 10.40625 8.6875 15.234375 7.390625 
Q 20.0625 6.109375 24.8125 6.109375 
Q 31.15625 6.109375 34.5625 8.28125 
Q 37.984375 10.453125 37.984375 14.40625 
Q 37.984375 18.0625 35.515625 20.015625 
Q 33.0625 21.96875 24.703125 23.78125 
L 21.578125 24.515625 
Q 13.234375 26.265625 9.515625 29.90625 
Q 5.8125 33.546875 5.8125 39.890625 
Q 5.8125 47.609375 11.28125 51.796875 
Q 16.75 56 26.8125 56 
Q 31.78125 56 36.171875 55.265625 
Q 40.578125 54.546875 44.28125 53.078125 
z
" id="DejaVuSans-115"/>
      <path id="DejaVuSans-32"/>
      <path d="M 11.71875 12.40625 
L 22.015625 12.40625 
L 22.015625 0 
L 11.71875 0 
z
M 11.71875 51.703125 
L 22.015625 51.703125 
L 22.015625 39.3125 
L 11.71875 39.3125 
z
" id="DejaVuSans-58"/>
     </defs>
     <use xlink:href="#DejaVuSans-76"/>
     <use x="55.712891" xlink:href="#DejaVuSans-97"/>
     <use x="116.992188" xlink:href="#DejaVuSans-116"/>
     <use x="156.201172" xlink:href="#DejaVuSans-101"/>
     <use x="217.724609" xlink:href="#DejaVuSans-115"/>
     <use x="269.824219" xlink:href="#DejaVuSans-116"/>
     <use x="309.033203" xlink:href="#DejaVuSans-32"/>
     <use x="340.820312" xlink:href="#DejaVuSans-117"/>
     <use x="404.199219" xlink:href="#DejaVuSans-112"/>
     <use x="467.675781" xlink:href="#DejaVuSans-100"/>
     <use x="531.152344" xlink:href="#DejaVuSans-97"/>
     <use x="592.431641" xlink:href="#DejaVuSans-116"/>
     <use x="631.640625" xlink:href="#DejaVuSans-101"/>
     <use x="693.164062" xlink:href="#DejaVuSans-58"/>
     <use x="726.855469" xlink:href="#DejaVuSans-32"/>
    </g>
    <!-- 16-3-2021 -->
    <g style="fill:#252627;" transform="translate(40.1475 502.8888)scale(0.1 -0.1)">
     <defs>
      <path d="M 4.890625 31.390625 
L 31.203125 31.390625 
L 31.203125 23.390625 
L 4.890625 23.390625 
z
" id="DejaVuSans-45"/>
      <path d="M 40.578125 39.3125 
Q 47.65625 37.796875 51.625 33 
Q 55.609375 28.21875 55.609375 21.1875 
Q 55.609375 10.40625 48.1875 4.484375 
Q 40.765625 -1.421875 27.09375 -1.421875 
Q 22.515625 -1.421875 17.65625 -0.515625 
Q 12.796875 0.390625 7.625 2.203125 
L 7.625 11.71875 
Q 11.71875 9.328125 16.59375 8.109375 
Q 21.484375 6.890625 26.8125 6.890625 
Q 36.078125 6.890625 40.9375 10.546875 
Q 45.796875 14.203125 45.796875 21.1875 
Q 45.796875 27.640625 41.28125 31.265625 
Q 36.765625 34.90625 28.71875 34.90625 
L 20.21875 34.90625 
L 20.21875 43.015625 
L 29.109375 43.015625 
Q 36.375 43.015625 40.234375 45.921875 
Q 44.09375 48.828125 44.09375 54.296875 
Q 44.09375 59.90625 40.109375 62.90625 
Q 36.140625 65.921875 28.71875 65.921875 
Q 24.65625 65.921875 20.015625 65.03125 
Q 15.375 64.15625 9.8125 62.3125 
L 9.8125 71.09375 
Q 15.4375 72.65625 20.34375 73.4375 
Q 25.25 74.21875 29.59375 74.21875 
Q 40.828125 74.21875 47.359375 69.109375 
Q 53.90625 64.015625 53.90625 55.328125 
Q 53.90625 49.265625 50.4375 45.09375 
Q 46.96875 40.921875 40.578125 39.3125 
z
" id="DejaVuSans-51"/>
     </defs>
     <use xlink:href="#DejaVuSans-49"/>
     <use x="63.623047" xlink:href="#DejaVuSans-54"/>
     <use x="127.246094" xlink:href="#DejaVuSans-45"/>
     <use x="163.330078" xlink:href="#DejaVuSans-51"/>
     <use x="226.953125" xlink:href="#DejaVuSans-45"/>
     <use x="263.037109" xlink:href="#DejaVuSans-50"/>
     <use x="326.660156" xlink:href="#DejaVuSans-48"/>
     <use x="390.283203" xlink:href="#DejaVuSans-50"/>
     <use x="453.90625" xlink:href="#DejaVuSans-49"/>
    </g>
   </g>
   <g id="text_25">
    <!-- Note: Negative deaths numbers can come from country data corrections -->
    <g style="fill:#252627;" transform="translate(40.1475 512.9688)scale(0.08 -0.08)">
     <defs>
      <path d="M 9.421875 54.6875 
L 18.40625 54.6875 
L 18.40625 0 
L 9.421875 0 
z
M 9.421875 75.984375 
L 18.40625 75.984375 
L 18.40625 64.59375 
L 9.421875 64.59375 
z
" id="DejaVuSans-105"/>
      <path d="M 54.890625 33.015625 
L 54.890625 0 
L 45.90625 0 
L 45.90625 32.71875 
Q 45.90625 40.484375 42.875 44.328125 
Q 39.84375 48.1875 33.796875 48.1875 
Q 26.515625 48.1875 22.3125 43.546875 
Q 18.109375 38.921875 18.109375 30.90625 
L 18.109375 0 
L 9.078125 0 
L 9.078125 75.984375 
L 18.109375 75.984375 
L 18.109375 46.1875 
Q 21.34375 51.125 25.703125 53.5625 
Q 30.078125 56 35.796875 56 
Q 45.21875 56 50.046875 50.171875 
Q 54.890625 44.34375 54.890625 33.015625 
z
" id="DejaVuSans-104"/>
      <path d="M 52 44.1875 
Q 55.375 50.25 60.0625 53.125 
Q 64.75 56 71.09375 56 
Q 79.640625 56 84.28125 50.015625 
Q 88.921875 44.046875 88.921875 33.015625 
L 88.921875 0 
L 79.890625 0 
L 79.890625 32.71875 
Q 79.890625 40.578125 77.09375 44.375 
Q 74.3125 48.1875 68.609375 48.1875 
Q 61.625 48.1875 57.5625 43.546875 
Q 53.515625 38.921875 53.515625 30.90625 
L 53.515625 0 
L 44.484375 0 
L 44.484375 32.71875 
Q 44.484375 40.625 41.703125 44.40625 
Q 38.921875 48.1875 33.109375 48.1875 
Q 26.21875 48.1875 22.15625 43.53125 
Q 18.109375 38.875 18.109375 30.90625 
L 18.109375 0 
L 9.078125 0 
L 9.078125 54.6875 
L 18.109375 54.6875 
L 18.109375 46.1875 
Q 21.1875 51.21875 25.484375 53.609375 
Q 29.78125 56 35.6875 56 
Q 41.65625 56 45.828125 52.96875 
Q 50 49.953125 52 44.1875 
z
" id="DejaVuSans-109"/>
      <path d="M 37.109375 75.984375 
L 37.109375 68.5 
L 28.515625 68.5 
Q 23.6875 68.5 21.796875 66.546875 
Q 19.921875 64.59375 19.921875 59.515625 
L 19.921875 54.6875 
L 34.71875 54.6875 
L 34.71875 47.703125 
L 19.921875 47.703125 
L 19.921875 0 
L 10.890625 0 
L 10.890625 47.703125 
L 2.296875 47.703125 
L 2.296875 54.6875 
L 10.890625 54.6875 
L 10.890625 58.5 
Q 10.890625 67.625 15.140625 71.796875 
Q 19.390625 75.984375 28.609375 75.984375 
z
" id="DejaVuSans-102"/>
     </defs>
     <use xlink:href="#DejaVuSans-78"/>
     <use x="74.804688" xlink:href="#DejaVuSans-111"/>
     <use x="135.986328" xlink:href="#DejaVuSans-116"/>
     <use x="175.195312" xlink:href="#DejaVuSans-101"/>
     <use x="236.71875" xlink:href="#DejaVuSans-58"/>
     <use x="270.410156" xlink:href="#DejaVuSans-32"/>
     <use x="302.197266" xlink:href="#DejaVuSans-78"/>
     <use x="377.001953" xlink:href="#DejaVuSans-101"/>
     <use x="438.525391" xlink:href="#DejaVuSans-103"/>
     <use x="502.001953" xlink:href="#DejaVuSans-97"/>
     <use x="563.28125" xlink:href="#DejaVuSans-116"/>
     <use x="602.490234" xlink:href="#DejaVuSans-105"/>
     <use x="630.273438" xlink:href="#DejaVuSans-118"/>
     <use x="689.453125" xlink:href="#DejaVuSans-101"/>
     <use x="750.976562" xlink:href="#DejaVuSans-32"/>
     <use x="782.763672" xlink:href="#DejaVuSans-100"/>
     <use x="846.240234" xlink:href="#DejaVuSans-101"/>
     <use x="907.763672" xlink:href="#DejaVuSans-97"/>
     <use x="969.042969" xlink:href="#DejaVuSans-116"/>
     <use x="1008.251953" xlink:href="#DejaVuSans-104"/>
     <use x="1071.630859" xlink:href="#DejaVuSans-115"/>
     <use x="1123.730469" xlink:href="#DejaVuSans-32"/>
     <use x="1155.517578" xlink:href="#DejaVuSans-110"/>
     <use x="1218.896484" xlink:href="#DejaVuSans-117"/>
     <use x="1282.275391" xlink:href="#DejaVuSans-109"/>
     <use x="1379.6875" xlink:href="#DejaVuSans-98"/>
     <use x="1443.164062" xlink:href="#DejaVuSans-101"/>
     <use x="1504.6875" xlink:href="#DejaVuSans-114"/>
     <use x="1545.800781" xlink:href="#DejaVuSans-115"/>
     <use x="1597.900391" xlink:href="#DejaVuSans-32"/>
     <use x="1629.6875" xlink:href="#DejaVuSans-99"/>
     <use x="1684.667969" xlink:href="#DejaVuSans-97"/>
     <use x="1745.947266" xlink:href="#DejaVuSans-110"/>
     <use x="1809.326172" xlink:href="#DejaVuSans-32"/>
     <use x="1841.113281" xlink:href="#DejaVuSans-99"/>
     <use x="1896.09375" xlink:href="#DejaVuSans-111"/>
     <use x="1957.275391" xlink:href="#DejaVuSans-109"/>
     <use x="2054.6875" xlink:href="#DejaVuSans-101"/>
     <use x="2116.210938" xlink:href="#DejaVuSans-32"/>
     <use x="2147.998047" xlink:href="#DejaVuSans-102"/>
     <use x="2183.203125" xlink:href="#DejaVuSans-114"/>
     <use x="2222.066406" xlink:href="#DejaVuSans-111"/>
     <use x="2283.248047" xlink:href="#DejaVuSans-109"/>
     <use x="2380.660156" xlink:href="#DejaVuSans-32"/>
     <use x="2412.447266" xlink:href="#DejaVuSans-99"/>
     <use x="2467.427734" xlink:href="#DejaVuSans-111"/>
     <use x="2528.609375" xlink:href="#DejaVuSans-117"/>
     <use x="2591.988281" xlink:href="#DejaVuSans-110"/>
     <use x="2655.367188" xlink:href="#DejaVuSans-116"/>
     <use x="2694.576172" xlink:href="#DejaVuSans-114"/>
     <use x="2735.689453" xlink:href="#DejaVuSans-121"/>
     <use x="2794.869141" xlink:href="#DejaVuSans-32"/>
     <use x="2826.65625" xlink:href="#DejaVuSans-100"/>
     <use x="2890.132812" xlink:href="#DejaVuSans-97"/>
     <use x="2951.412109" xlink:href="#DejaVuSans-116"/>
     <use x="2990.621094" xlink:href="#DejaVuSans-97"/>
     <use x="3051.900391" xlink:href="#DejaVuSans-32"/>
     <use x="3083.6875" xlink:href="#DejaVuSans-99"/>
     <use x="3138.667969" xlink:href="#DejaVuSans-111"/>
     <use x="3199.849609" xlink:href="#DejaVuSans-114"/>
     <use x="3239.212891" xlink:href="#DejaVuSans-114"/>
     <use x="3278.076172" xlink:href="#DejaVuSans-101"/>
     <use x="3339.599609" xlink:href="#DejaVuSans-99"/>
     <use x="3394.580078" xlink:href="#DejaVuSans-116"/>
     <use x="3433.789062" xlink:href="#DejaVuSans-105"/>
     <use x="3461.572266" xlink:href="#DejaVuSans-111"/>
     <use x="3522.753906" xlink:href="#DejaVuSans-110"/>
     <use x="3586.132812" xlink:href="#DejaVuSans-115"/>
    </g>
   </g>
   <g id="text_26">
    <!-- Daily deaths - Since beginning -->
    <g style="fill:#252627;" transform="translate(190.6485 21.789)scale(0.192 -0.192)">
     <use xlink:href="#DejaVuSans-68"/>
     <use x="77.001953" xlink:href="#DejaVuSans-97"/>
     <use x="138.28125" xlink:href="#DejaVuSans-105"/>
     <use x="166.064453" xlink:href="#DejaVuSans-108"/>
     <use x="193.847656" xlink:href="#DejaVuSans-121"/>
     <use x="253.027344" xlink:href="#DejaVuSans-32"/>
     <use x="284.814453" xlink:href="#DejaVuSans-100"/>
     <use x="348.291016" xlink:href="#DejaVuSans-101"/>
     <use x="409.814453" xlink:href="#DejaVuSans-97"/>
     <use x="471.09375" xlink:href="#DejaVuSans-116"/>
     <use x="510.302734" xlink:href="#DejaVuSans-104"/>
     <use x="573.681641" xlink:href="#DejaVuSans-115"/>
     <use x="625.78125" xlink:href="#DejaVuSans-32"/>
     <use x="657.568359" xlink:href="#DejaVuSans-45"/>
     <use x="693.652344" xlink:href="#DejaVuSans-32"/>
     <use x="725.439453" xlink:href="#DejaVuSans-83"/>
     <use x="788.916016" xlink:href="#DejaVuSans-105"/>
     <use x="816.699219" xlink:href="#DejaVuSans-110"/>
     <use x="880.078125" xlink:href="#DejaVuSans-99"/>
     <use x="935.058594" xlink:href="#DejaVuSans-101"/>
     <use x="996.582031" xlink:href="#DejaVuSans-32"/>
     <use x="1028.369141" xlink:href="#DejaVuSans-98"/>
     <use x="1091.845703" xlink:href="#DejaVuSans-101"/>
     <use x="1153.369141" xlink:href="#DejaVuSans-103"/>
     <use x="1216.845703" xlink:href="#DejaVuSans-105"/>
     <use x="1244.628906" xlink:href="#DejaVuSans-110"/>
     <use x="1308.007812" xlink:href="#DejaVuSans-110"/>
     <use x="1371.386719" xlink:href="#DejaVuSans-105"/>
     <use x="1399.169922" xlink:href="#DejaVuSans-110"/>
     <use x="1462.548828" xlink:href="#DejaVuSans-103"/>
    </g>
    <!-- 7-day rolling average -->
    <g style="fill:#252627;" transform="translate(234.7275 43.2888)scale(0.192 -0.192)">
     <defs>
      <path d="M 8.203125 72.90625 
L 55.078125 72.90625 
L 55.078125 68.703125 
L 28.609375 0 
L 18.3125 0 
L 43.21875 64.59375 
L 8.203125 64.59375 
z
" id="DejaVuSans-55"/>
     </defs>
     <use xlink:href="#DejaVuSans-55"/>
     <use x="63.623047" xlink:href="#DejaVuSans-45"/>
     <use x="99.707031" xlink:href="#DejaVuSans-100"/>
     <use x="163.183594" xlink:href="#DejaVuSans-97"/>
     <use x="224.462891" xlink:href="#DejaVuSans-121"/>
     <use x="283.642578" xlink:href="#DejaVuSans-32"/>
     <use x="315.429688" xlink:href="#DejaVuSans-114"/>
     <use x="354.292969" xlink:href="#DejaVuSans-111"/>
     <use x="415.474609" xlink:href="#DejaVuSans-108"/>
     <use x="443.257812" xlink:href="#DejaVuSans-108"/>
     <use x="471.041016" xlink:href="#DejaVuSans-105"/>
     <use x="498.824219" xlink:href="#DejaVuSans-110"/>
     <use x="562.203125" xlink:href="#DejaVuSans-103"/>
     <use x="625.679688" xlink:href="#DejaVuSans-32"/>
     <use x="657.466797" xlink:href="#DejaVuSans-97"/>
     <use x="718.746094" xlink:href="#DejaVuSans-118"/>
     <use x="777.925781" xlink:href="#DejaVuSans-101"/>
     <use x="839.449219" xlink:href="#DejaVuSans-114"/>
     <use x="880.5625" xlink:href="#DejaVuSans-97"/>
     <use x="941.841797" xlink:href="#DejaVuSans-103"/>
     <use x="1005.318359" xlink:href="#DejaVuSans-101"/>
    </g>
   </g>
   <g id="legend_1">
    <g id="patch_7">
     <path d="M 69.3475 132.5438 
L 155.04 132.5438 
Q 158.24 132.5438 158.24 129.3438 
L 158.24 60.4888 
Q 158.24 57.2888 155.04 57.2888 
L 69.3475 57.2888 
Q 66.1475 57.2888 66.1475 60.4888 
L 66.1475 129.3438 
Q 66.1475 132.5438 69.3475 132.5438 
z
" style="fill:#ffffff;opacity:0.2;stroke:#cccccc;stroke-linejoin:miter;"/>
    </g>
    <g id="line2d_83">
     <path d="M 72.5475 70.2463 
L 104.5475 70.2463 
" style="fill:none;stroke:#bb0a21;stroke-linecap:square;stroke-width:2;"/>
    </g>
    <g id="line2d_84"/>
    <g id="text_27">
     <!-- ESP -->
     <g style="fill:#252627;" transform="translate(117.3475 75.8463)scale(0.16 -0.16)">
      <defs>
       <path d="M 9.8125 72.90625 
L 55.90625 72.90625 
L 55.90625 64.59375 
L 19.671875 64.59375 
L 19.671875 43.015625 
L 54.390625 43.015625 
L 54.390625 34.71875 
L 19.671875 34.71875 
L 19.671875 8.296875 
L 56.78125 8.296875 
L 56.78125 0 
L 9.8125 0 
z
" id="DejaVuSans-69"/>
       <path d="M 19.671875 64.796875 
L 19.671875 37.40625 
L 32.078125 37.40625 
Q 38.96875 37.40625 42.71875 40.96875 
Q 46.484375 44.53125 46.484375 51.125 
Q 46.484375 57.671875 42.71875 61.234375 
Q 38.96875 64.796875 32.078125 64.796875 
z
M 9.8125 72.90625 
L 32.078125 72.90625 
Q 44.34375 72.90625 50.609375 67.359375 
Q 56.890625 61.8125 56.890625 51.125 
Q 56.890625 40.328125 50.609375 34.8125 
Q 44.34375 29.296875 32.078125 29.296875 
L 19.671875 29.296875 
L 19.671875 0 
L 9.8125 0 
z
" id="DejaVuSans-80"/>
      </defs>
      <use xlink:href="#DejaVuSans-69"/>
      <use x="63.183594" xlink:href="#DejaVuSans-83"/>
      <use x="126.660156" xlink:href="#DejaVuSans-80"/>
     </g>
    </g>
    <g id="line2d_85">
     <path d="M 72.5475 93.7313 
L 104.5475 93.7313 
" style="fill:none;stroke:#4b88a2;stroke-linecap:square;stroke-width:2;"/>
    </g>
    <g id="line2d_86"/>
    <g id="text_28">
     <!-- GBR -->
     <g style="fill:#252627;" transform="translate(117.3475 99.3313)scale(0.16 -0.16)">
      <defs>
       <path d="M 59.515625 10.40625 
L 59.515625 29.984375 
L 43.40625 29.984375 
L 43.40625 38.09375 
L 69.28125 38.09375 
L 69.28125 6.78125 
Q 63.578125 2.734375 56.6875 0.65625 
Q 49.8125 -1.421875 42 -1.421875 
Q 24.90625 -1.421875 15.25 8.5625 
Q 5.609375 18.5625 5.609375 36.375 
Q 5.609375 54.25 15.25 64.234375 
Q 24.90625 74.21875 42 74.21875 
Q 49.125 74.21875 55.546875 72.453125 
Q 61.96875 70.703125 67.390625 67.28125 
L 67.390625 56.78125 
Q 61.921875 61.421875 55.765625 63.765625 
Q 49.609375 66.109375 42.828125 66.109375 
Q 29.4375 66.109375 22.71875 58.640625 
Q 16.015625 51.171875 16.015625 36.375 
Q 16.015625 21.625 22.71875 14.15625 
Q 29.4375 6.6875 42.828125 6.6875 
Q 48.046875 6.6875 52.140625 7.59375 
Q 56.25 8.5 59.515625 10.40625 
z
" id="DejaVuSans-71"/>
       <path d="M 19.671875 34.8125 
L 19.671875 8.109375 
L 35.5 8.109375 
Q 43.453125 8.109375 47.28125 11.40625 
Q 51.125 14.703125 51.125 21.484375 
Q 51.125 28.328125 47.28125 31.5625 
Q 43.453125 34.8125 35.5 34.8125 
z
M 19.671875 64.796875 
L 19.671875 42.828125 
L 34.28125 42.828125 
Q 41.5 42.828125 45.03125 45.53125 
Q 48.578125 48.25 48.578125 53.8125 
Q 48.578125 59.328125 45.03125 62.0625 
Q 41.5 64.796875 34.28125 64.796875 
z
M 9.8125 72.90625 
L 35.015625 72.90625 
Q 46.296875 72.90625 52.390625 68.21875 
Q 58.5 63.53125 58.5 54.890625 
Q 58.5 48.1875 55.375 44.234375 
Q 52.25 40.28125 46.1875 39.3125 
Q 53.46875 37.75 57.5 32.78125 
Q 61.53125 27.828125 61.53125 20.40625 
Q 61.53125 10.640625 54.890625 5.3125 
Q 48.25 0 35.984375 0 
L 9.8125 0 
z
" id="DejaVuSans-66"/>
       <path d="M 44.390625 34.1875 
Q 47.5625 33.109375 50.5625 29.59375 
Q 53.5625 26.078125 56.59375 19.921875 
L 66.609375 0 
L 56 0 
L 46.6875 18.703125 
Q 43.0625 26.03125 39.671875 28.421875 
Q 36.28125 30.8125 30.421875 30.8125 
L 19.671875 30.8125 
L 19.671875 0 
L 9.8125 0 
L 9.8125 72.90625 
L 32.078125 72.90625 
Q 44.578125 72.90625 50.734375 67.671875 
Q 56.890625 62.453125 56.890625 51.90625 
Q 56.890625 45.015625 53.6875 40.46875 
Q 50.484375 35.9375 44.390625 34.1875 
z
M 19.671875 64.796875 
L 19.671875 38.921875 
L 32.078125 38.921875 
Q 39.203125 38.921875 42.84375 42.21875 
Q 46.484375 45.515625 46.484375 51.90625 
Q 46.484375 58.296875 42.84375 61.546875 
Q 39.203125 64.796875 32.078125 64.796875 
z
" id="DejaVuSans-82"/>
      </defs>
      <use xlink:href="#DejaVuSans-71"/>
      <use x="77.490234" xlink:href="#DejaVuSans-66"/>
      <use x="146.09375" xlink:href="#DejaVuSans-82"/>
     </g>
    </g>
    <g id="line2d_87">
     <path d="M 72.5475 117.2163 
L 104.5475 117.2163 
" style="fill:none;stroke:#d3d4d9;stroke-linecap:square;stroke-width:2;"/>
    </g>
    <g id="line2d_88"/>
    <g id="text_29">
     <!-- PER -->
     <g style="fill:#252627;" transform="translate(117.3475 122.8163)scale(0.16 -0.16)">
      <use xlink:href="#DejaVuSans-80"/>
      <use x="60.302734" xlink:href="#DejaVuSans-69"/>
      <use x="123.486328" xlink:href="#DejaVuSans-82"/>
     </g>
    </g>
   </g>
  </g>
 </g>
 <defs>
  <clipPath id="p793b1a9f74">
   <rect height="388.08" width="558" x="58.1475" y="49.2888"/>
  </clipPath>
 </defs>
</svg>
