<?xml version="1.0" encoding="utf-8" standalone="no"?>
<!DOCTYPE svg PUBLIC "-//W3C//DTD SVG 1.1//EN"
  "http://www.w3.org/Graphics/SVG/1.1/DTD/svg11.dtd">
<!-- Created with matplotlib (https://matplotlib.org/) -->
<svg height="521.83255pt" version="1.1" viewBox="0 0 623.3475 521.83255" width="623.3475pt" xmlns="http://www.w3.org/2000/svg" xmlns:xlink="http://www.w3.org/1999/xlink">
 <metadata>
  <rdf:RDF xmlns:cc="http://creativecommons.org/ns#" xmlns:dc="http://purl.org/dc/elements/1.1/" xmlns:rdf="http://www.w3.org/1999/02/22-rdf-syntax-ns#">
   <cc:Work>
    <dc:type rdf:resource="http://purl.org/dc/dcmitype/StillImage"/>
    <dc:date>2021-01-24T09:00:16.140381</dc:date>
    <dc:format>image/svg+xml</dc:format>
    <dc:creator>
     <cc:Agent>
      <dc:title>Matplotlib v3.3.1, https://matplotlib.org/</dc:title>
     </cc:Agent>
    </dc:creator>
   </cc:Work>
  </rdf:RDF>
 </metadata>
 <defs>
  <style type="text/css">*{stroke-linecap:butt;stroke-linejoin:round;}</style>
 </defs>
 <g id="figure_1">
  <g id="patch_1">
   <path d="M 0 521.83255 
L 623.3475 521.83255 
L 623.3475 0 
L 0 0 
z
" style="fill:none;"/>
  </g>
  <g id="axes_1">
   <g id="patch_2">
    <path d="M 58.1475 437.3688 
L 616.1475 437.3688 
L 616.1475 49.2888 
L 58.1475 49.2888 
z
" style="fill:none;"/>
   </g>
   <g id="matplotlib.axis_1">
    <g id="xtick_1">
     <g id="line2d_1">
      <defs>
       <path d="M 0 0 
L 0 3.5 
" id="m89d1bf16a4" style="stroke:#252627;stroke-width:0.8;"/>
      </defs>
      <g>
       <use style="fill:#252627;stroke:#252627;stroke-width:0.8;" x="58.1475" xlink:href="#m89d1bf16a4" y="437.3688"/>
      </g>
     </g>
    </g>
    <g id="xtick_2">
     <g id="line2d_2">
      <g>
       <use style="fill:#252627;stroke:#252627;stroke-width:0.8;" x="59.706159" xlink:href="#m89d1bf16a4" y="437.3688"/>
      </g>
     </g>
     <g id="text_1">
      <!-- Feb -->
      <g style="fill:#252627;" transform="translate(45.543659 456.5263)scale(0.16 -0.16)">
       <defs>
        <path d="M 9.8125 72.90625 
L 51.703125 72.90625 
L 51.703125 64.59375 
L 19.671875 64.59375 
L 19.671875 43.109375 
L 48.578125 43.109375 
L 48.578125 34.8125 
L 19.671875 34.8125 
L 19.671875 0 
L 9.8125 0 
z
" id="DejaVuSans-70"/>
        <path d="M 56.203125 29.59375 
L 56.203125 25.203125 
L 14.890625 25.203125 
Q 15.484375 15.921875 20.484375 11.0625 
Q 25.484375 6.203125 34.421875 6.203125 
Q 39.59375 6.203125 44.453125 7.46875 
Q 49.3125 8.734375 54.109375 11.28125 
L 54.109375 2.78125 
Q 49.265625 0.734375 44.1875 -0.34375 
Q 39.109375 -1.421875 33.890625 -1.421875 
Q 20.796875 -1.421875 13.15625 6.1875 
Q 5.515625 13.8125 5.515625 26.8125 
Q 5.515625 40.234375 12.765625 48.109375 
Q 20.015625 56 32.328125 56 
Q 43.359375 56 49.78125 48.890625 
Q 56.203125 41.796875 56.203125 29.59375 
z
M 47.21875 32.234375 
Q 47.125 39.59375 43.09375 43.984375 
Q 39.0625 48.390625 32.421875 48.390625 
Q 24.90625 48.390625 20.390625 44.140625 
Q 15.875 39.890625 15.1875 32.171875 
z
" id="DejaVuSans-101"/>
        <path d="M 48.6875 27.296875 
Q 48.6875 37.203125 44.609375 42.84375 
Q 40.53125 48.484375 33.40625 48.484375 
Q 26.265625 48.484375 22.1875 42.84375 
Q 18.109375 37.203125 18.109375 27.296875 
Q 18.109375 17.390625 22.1875 11.75 
Q 26.265625 6.109375 33.40625 6.109375 
Q 40.53125 6.109375 44.609375 11.75 
Q 48.6875 17.390625 48.6875 27.296875 
z
M 18.109375 46.390625 
Q 20.953125 51.265625 25.265625 53.625 
Q 29.59375 56 35.59375 56 
Q 45.5625 56 51.78125 48.09375 
Q 58.015625 40.1875 58.015625 27.296875 
Q 58.015625 14.40625 51.78125 6.484375 
Q 45.5625 -1.421875 35.59375 -1.421875 
Q 29.59375 -1.421875 25.265625 0.953125 
Q 20.953125 3.328125 18.109375 8.203125 
L 18.109375 0 
L 9.078125 0 
L 9.078125 75.984375 
L 18.109375 75.984375 
z
" id="DejaVuSans-98"/>
       </defs>
       <use xlink:href="#DejaVuSans-70"/>
       <use x="52.019531" xlink:href="#DejaVuSans-101"/>
       <use x="113.542969" xlink:href="#DejaVuSans-98"/>
      </g>
     </g>
    </g>
    <g id="xtick_3">
     <g id="line2d_3">
      <g>
       <use style="fill:#252627;stroke:#252627;stroke-width:0.8;" x="104.907277" xlink:href="#m89d1bf16a4" y="437.3688"/>
      </g>
     </g>
     <g id="text_2">
      <!-- Mar -->
      <g style="fill:#252627;" transform="translate(89.813527 456.5263)scale(0.16 -0.16)">
       <defs>
        <path d="M 9.8125 72.90625 
L 24.515625 72.90625 
L 43.109375 23.296875 
L 61.8125 72.90625 
L 76.515625 72.90625 
L 76.515625 0 
L 66.890625 0 
L 66.890625 64.015625 
L 48.09375 14.015625 
L 38.1875 14.015625 
L 19.390625 64.015625 
L 19.390625 0 
L 9.8125 0 
z
" id="DejaVuSans-77"/>
        <path d="M 34.28125 27.484375 
Q 23.390625 27.484375 19.1875 25 
Q 14.984375 22.515625 14.984375 16.5 
Q 14.984375 11.71875 18.140625 8.90625 
Q 21.296875 6.109375 26.703125 6.109375 
Q 34.1875 6.109375 38.703125 11.40625 
Q 43.21875 16.703125 43.21875 25.484375 
L 43.21875 27.484375 
z
M 52.203125 31.203125 
L 52.203125 0 
L 43.21875 0 
L 43.21875 8.296875 
Q 40.140625 3.328125 35.546875 0.953125 
Q 30.953125 -1.421875 24.3125 -1.421875 
Q 15.921875 -1.421875 10.953125 3.296875 
Q 6 8.015625 6 15.921875 
Q 6 25.140625 12.171875 29.828125 
Q 18.359375 34.515625 30.609375 34.515625 
L 43.21875 34.515625 
L 43.21875 35.40625 
Q 43.21875 41.609375 39.140625 45 
Q 35.0625 48.390625 27.6875 48.390625 
Q 23 48.390625 18.546875 47.265625 
Q 14.109375 46.140625 10.015625 43.890625 
L 10.015625 52.203125 
Q 14.9375 54.109375 19.578125 55.046875 
Q 24.21875 56 28.609375 56 
Q 40.484375 56 46.34375 49.84375 
Q 52.203125 43.703125 52.203125 31.203125 
z
" id="DejaVuSans-97"/>
        <path d="M 41.109375 46.296875 
Q 39.59375 47.171875 37.8125 47.578125 
Q 36.03125 48 33.890625 48 
Q 26.265625 48 22.1875 43.046875 
Q 18.109375 38.09375 18.109375 28.8125 
L 18.109375 0 
L 9.078125 0 
L 9.078125 54.6875 
L 18.109375 54.6875 
L 18.109375 46.1875 
Q 20.953125 51.171875 25.484375 53.578125 
Q 30.03125 56 36.53125 56 
Q 37.453125 56 38.578125 55.875 
Q 39.703125 55.765625 41.0625 55.515625 
z
" id="DejaVuSans-114"/>
       </defs>
       <use xlink:href="#DejaVuSans-77"/>
       <use x="86.279297" xlink:href="#DejaVuSans-97"/>
       <use x="147.558594" xlink:href="#DejaVuSans-114"/>
      </g>
     </g>
    </g>
    <g id="xtick_4">
     <g id="line2d_4">
      <g>
       <use style="fill:#252627;stroke:#252627;stroke-width:0.8;" x="153.225712" xlink:href="#m89d1bf16a4" y="437.3688"/>
      </g>
     </g>
     <g id="text_3">
      <!-- Apr -->
      <g style="fill:#252627;" transform="translate(139.385712 456.5263)scale(0.16 -0.16)">
       <defs>
        <path d="M 34.1875 63.1875 
L 20.796875 26.90625 
L 47.609375 26.90625 
z
M 28.609375 72.90625 
L 39.796875 72.90625 
L 67.578125 0 
L 57.328125 0 
L 50.6875 18.703125 
L 17.828125 18.703125 
L 11.1875 0 
L 0.78125 0 
z
" id="DejaVuSans-65"/>
        <path d="M 18.109375 8.203125 
L 18.109375 -20.796875 
L 9.078125 -20.796875 
L 9.078125 54.6875 
L 18.109375 54.6875 
L 18.109375 46.390625 
Q 20.953125 51.265625 25.265625 53.625 
Q 29.59375 56 35.59375 56 
Q 45.5625 56 51.78125 48.09375 
Q 58.015625 40.1875 58.015625 27.296875 
Q 58.015625 14.40625 51.78125 6.484375 
Q 45.5625 -1.421875 35.59375 -1.421875 
Q 29.59375 -1.421875 25.265625 0.953125 
Q 20.953125 3.328125 18.109375 8.203125 
z
M 48.6875 27.296875 
Q 48.6875 37.203125 44.609375 42.84375 
Q 40.53125 48.484375 33.40625 48.484375 
Q 26.265625 48.484375 22.1875 42.84375 
Q 18.109375 37.203125 18.109375 27.296875 
Q 18.109375 17.390625 22.1875 11.75 
Q 26.265625 6.109375 33.40625 6.109375 
Q 40.53125 6.109375 44.609375 11.75 
Q 48.6875 17.390625 48.6875 27.296875 
z
" id="DejaVuSans-112"/>
       </defs>
       <use xlink:href="#DejaVuSans-65"/>
       <use x="68.408203" xlink:href="#DejaVuSans-112"/>
       <use x="131.884766" xlink:href="#DejaVuSans-114"/>
      </g>
     </g>
    </g>
    <g id="xtick_5">
     <g id="line2d_5">
      <g>
       <use style="fill:#252627;stroke:#252627;stroke-width:0.8;" x="199.985489" xlink:href="#m89d1bf16a4" y="437.3688"/>
      </g>
     </g>
     <g id="text_4">
      <!-- May -->
      <g style="fill:#252627;" transform="translate(183.445489 456.5263)scale(0.16 -0.16)">
       <defs>
        <path d="M 32.171875 -5.078125 
Q 28.375 -14.84375 24.75 -17.8125 
Q 21.140625 -20.796875 15.09375 -20.796875 
L 7.90625 -20.796875 
L 7.90625 -13.28125 
L 13.1875 -13.28125 
Q 16.890625 -13.28125 18.9375 -11.515625 
Q 21 -9.765625 23.484375 -3.21875 
L 25.09375 0.875 
L 2.984375 54.6875 
L 12.5 54.6875 
L 29.59375 11.921875 
L 46.6875 54.6875 
L 56.203125 54.6875 
z
" id="DejaVuSans-121"/>
       </defs>
       <use xlink:href="#DejaVuSans-77"/>
       <use x="86.279297" xlink:href="#DejaVuSans-97"/>
       <use x="147.558594" xlink:href="#DejaVuSans-121"/>
      </g>
     </g>
    </g>
    <g id="xtick_6">
     <g id="line2d_6">
      <g>
       <use style="fill:#252627;stroke:#252627;stroke-width:0.8;" x="248.303925" xlink:href="#m89d1bf16a4" y="437.3688"/>
      </g>
     </g>
     <g id="text_5">
      <!-- Jun -->
      <g style="fill:#252627;" transform="translate(235.803925 456.5263)scale(0.16 -0.16)">
       <defs>
        <path d="M 9.8125 72.90625 
L 19.671875 72.90625 
L 19.671875 5.078125 
Q 19.671875 -8.109375 14.671875 -14.0625 
Q 9.671875 -20.015625 -1.421875 -20.015625 
L -5.171875 -20.015625 
L -5.171875 -11.71875 
L -2.09375 -11.71875 
Q 4.4375 -11.71875 7.125 -8.046875 
Q 9.8125 -4.390625 9.8125 5.078125 
z
" id="DejaVuSans-74"/>
        <path d="M 8.5 21.578125 
L 8.5 54.6875 
L 17.484375 54.6875 
L 17.484375 21.921875 
Q 17.484375 14.15625 20.5 10.265625 
Q 23.53125 6.390625 29.59375 6.390625 
Q 36.859375 6.390625 41.078125 11.03125 
Q 45.3125 15.671875 45.3125 23.6875 
L 45.3125 54.6875 
L 54.296875 54.6875 
L 54.296875 0 
L 45.3125 0 
L 45.3125 8.40625 
Q 42.046875 3.421875 37.71875 1 
Q 33.40625 -1.421875 27.6875 -1.421875 
Q 18.265625 -1.421875 13.375 4.4375 
Q 8.5 10.296875 8.5 21.578125 
z
M 31.109375 56 
z
" id="DejaVuSans-117"/>
        <path d="M 54.890625 33.015625 
L 54.890625 0 
L 45.90625 0 
L 45.90625 32.71875 
Q 45.90625 40.484375 42.875 44.328125 
Q 39.84375 48.1875 33.796875 48.1875 
Q 26.515625 48.1875 22.3125 43.546875 
Q 18.109375 38.921875 18.109375 30.90625 
L 18.109375 0 
L 9.078125 0 
L 9.078125 54.6875 
L 18.109375 54.6875 
L 18.109375 46.1875 
Q 21.34375 51.125 25.703125 53.5625 
Q 30.078125 56 35.796875 56 
Q 45.21875 56 50.046875 50.171875 
Q 54.890625 44.34375 54.890625 33.015625 
z
" id="DejaVuSans-110"/>
       </defs>
       <use xlink:href="#DejaVuSans-74"/>
       <use x="29.492188" xlink:href="#DejaVuSans-117"/>
       <use x="92.871094" xlink:href="#DejaVuSans-110"/>
      </g>
     </g>
    </g>
    <g id="xtick_7">
     <g id="line2d_7">
      <g>
       <use style="fill:#252627;stroke:#252627;stroke-width:0.8;" x="295.063701" xlink:href="#m89d1bf16a4" y="437.3688"/>
      </g>
     </g>
     <g id="text_6">
      <!-- Jul -->
      <g style="fill:#252627;" transform="translate(285.411201 456.5263)scale(0.16 -0.16)">
       <defs>
        <path d="M 9.421875 75.984375 
L 18.40625 75.984375 
L 18.40625 0 
L 9.421875 0 
z
" id="DejaVuSans-108"/>
       </defs>
       <use xlink:href="#DejaVuSans-74"/>
       <use x="29.492188" xlink:href="#DejaVuSans-117"/>
       <use x="92.871094" xlink:href="#DejaVuSans-108"/>
      </g>
     </g>
    </g>
    <g id="xtick_8">
     <g id="line2d_8">
      <g>
       <use style="fill:#252627;stroke:#252627;stroke-width:0.8;" x="343.382137" xlink:href="#m89d1bf16a4" y="437.3688"/>
      </g>
     </g>
     <g id="text_7">
      <!-- Aug -->
      <g style="fill:#252627;" transform="translate(327.760887 456.5263)scale(0.16 -0.16)">
       <defs>
        <path d="M 45.40625 27.984375 
Q 45.40625 37.75 41.375 43.109375 
Q 37.359375 48.484375 30.078125 48.484375 
Q 22.859375 48.484375 18.828125 43.109375 
Q 14.796875 37.75 14.796875 27.984375 
Q 14.796875 18.265625 18.828125 12.890625 
Q 22.859375 7.515625 30.078125 7.515625 
Q 37.359375 7.515625 41.375 12.890625 
Q 45.40625 18.265625 45.40625 27.984375 
z
M 54.390625 6.78125 
Q 54.390625 -7.171875 48.1875 -13.984375 
Q 42 -20.796875 29.203125 -20.796875 
Q 24.46875 -20.796875 20.265625 -20.09375 
Q 16.0625 -19.390625 12.109375 -17.921875 
L 12.109375 -9.1875 
Q 16.0625 -11.328125 19.921875 -12.34375 
Q 23.78125 -13.375 27.78125 -13.375 
Q 36.625 -13.375 41.015625 -8.765625 
Q 45.40625 -4.15625 45.40625 5.171875 
L 45.40625 9.625 
Q 42.625 4.78125 38.28125 2.390625 
Q 33.9375 0 27.875 0 
Q 17.828125 0 11.671875 7.65625 
Q 5.515625 15.328125 5.515625 27.984375 
Q 5.515625 40.671875 11.671875 48.328125 
Q 17.828125 56 27.875 56 
Q 33.9375 56 38.28125 53.609375 
Q 42.625 51.21875 45.40625 46.390625 
L 45.40625 54.6875 
L 54.390625 54.6875 
z
" id="DejaVuSans-103"/>
       </defs>
       <use xlink:href="#DejaVuSans-65"/>
       <use x="68.408203" xlink:href="#DejaVuSans-117"/>
       <use x="131.787109" xlink:href="#DejaVuSans-103"/>
      </g>
     </g>
    </g>
    <g id="xtick_9">
     <g id="line2d_9">
      <g>
       <use style="fill:#252627;stroke:#252627;stroke-width:0.8;" x="391.700573" xlink:href="#m89d1bf16a4" y="437.3688"/>
      </g>
     </g>
     <g id="text_8">
      <!-- Sep -->
      <g style="fill:#252627;" transform="translate(376.620573 456.5263)scale(0.16 -0.16)">
       <defs>
        <path d="M 53.515625 70.515625 
L 53.515625 60.890625 
Q 47.90625 63.578125 42.921875 64.890625 
Q 37.9375 66.21875 33.296875 66.21875 
Q 25.25 66.21875 20.875 63.09375 
Q 16.5 59.96875 16.5 54.203125 
Q 16.5 49.359375 19.40625 46.890625 
Q 22.3125 44.4375 30.421875 42.921875 
L 36.375 41.703125 
Q 47.40625 39.59375 52.65625 34.296875 
Q 57.90625 29 57.90625 20.125 
Q 57.90625 9.515625 50.796875 4.046875 
Q 43.703125 -1.421875 29.984375 -1.421875 
Q 24.8125 -1.421875 18.96875 -0.25 
Q 13.140625 0.921875 6.890625 3.21875 
L 6.890625 13.375 
Q 12.890625 10.015625 18.65625 8.296875 
Q 24.421875 6.59375 29.984375 6.59375 
Q 38.421875 6.59375 43.015625 9.90625 
Q 47.609375 13.234375 47.609375 19.390625 
Q 47.609375 24.75 44.3125 27.78125 
Q 41.015625 30.8125 33.5 32.328125 
L 27.484375 33.5 
Q 16.453125 35.6875 11.515625 40.375 
Q 6.59375 45.0625 6.59375 53.421875 
Q 6.59375 63.09375 13.40625 68.65625 
Q 20.21875 74.21875 32.171875 74.21875 
Q 37.3125 74.21875 42.625 73.28125 
Q 47.953125 72.359375 53.515625 70.515625 
z
" id="DejaVuSans-83"/>
       </defs>
       <use xlink:href="#DejaVuSans-83"/>
       <use x="63.476562" xlink:href="#DejaVuSans-101"/>
       <use x="125" xlink:href="#DejaVuSans-112"/>
      </g>
     </g>
    </g>
    <g id="xtick_10">
     <g id="line2d_10">
      <g>
       <use style="fill:#252627;stroke:#252627;stroke-width:0.8;" x="438.460349" xlink:href="#m89d1bf16a4" y="437.3688"/>
      </g>
     </g>
     <g id="text_9">
      <!-- Oct -->
      <g style="fill:#252627;" transform="translate(424.627849 456.5263)scale(0.16 -0.16)">
       <defs>
        <path d="M 39.40625 66.21875 
Q 28.65625 66.21875 22.328125 58.203125 
Q 16.015625 50.203125 16.015625 36.375 
Q 16.015625 22.609375 22.328125 14.59375 
Q 28.65625 6.59375 39.40625 6.59375 
Q 50.140625 6.59375 56.421875 14.59375 
Q 62.703125 22.609375 62.703125 36.375 
Q 62.703125 50.203125 56.421875 58.203125 
Q 50.140625 66.21875 39.40625 66.21875 
z
M 39.40625 74.21875 
Q 54.734375 74.21875 63.90625 63.9375 
Q 73.09375 53.65625 73.09375 36.375 
Q 73.09375 19.140625 63.90625 8.859375 
Q 54.734375 -1.421875 39.40625 -1.421875 
Q 24.03125 -1.421875 14.8125 8.828125 
Q 5.609375 19.09375 5.609375 36.375 
Q 5.609375 53.65625 14.8125 63.9375 
Q 24.03125 74.21875 39.40625 74.21875 
z
" id="DejaVuSans-79"/>
        <path d="M 48.78125 52.59375 
L 48.78125 44.1875 
Q 44.96875 46.296875 41.140625 47.34375 
Q 37.3125 48.390625 33.40625 48.390625 
Q 24.65625 48.390625 19.8125 42.84375 
Q 14.984375 37.3125 14.984375 27.296875 
Q 14.984375 17.28125 19.8125 11.734375 
Q 24.65625 6.203125 33.40625 6.203125 
Q 37.3125 6.203125 41.140625 7.25 
Q 44.96875 8.296875 48.78125 10.40625 
L 48.78125 2.09375 
Q 45.015625 0.34375 40.984375 -0.53125 
Q 36.96875 -1.421875 32.421875 -1.421875 
Q 20.0625 -1.421875 12.78125 6.34375 
Q 5.515625 14.109375 5.515625 27.296875 
Q 5.515625 40.671875 12.859375 48.328125 
Q 20.21875 56 33.015625 56 
Q 37.15625 56 41.109375 55.140625 
Q 45.0625 54.296875 48.78125 52.59375 
z
" id="DejaVuSans-99"/>
        <path d="M 18.3125 70.21875 
L 18.3125 54.6875 
L 36.8125 54.6875 
L 36.8125 47.703125 
L 18.3125 47.703125 
L 18.3125 18.015625 
Q 18.3125 11.328125 20.140625 9.421875 
Q 21.96875 7.515625 27.59375 7.515625 
L 36.8125 7.515625 
L 36.8125 0 
L 27.59375 0 
Q 17.1875 0 13.234375 3.875 
Q 9.28125 7.765625 9.28125 18.015625 
L 9.28125 47.703125 
L 2.6875 47.703125 
L 2.6875 54.6875 
L 9.28125 54.6875 
L 9.28125 70.21875 
z
" id="DejaVuSans-116"/>
       </defs>
       <use xlink:href="#DejaVuSans-79"/>
       <use x="78.710938" xlink:href="#DejaVuSans-99"/>
       <use x="133.691406" xlink:href="#DejaVuSans-116"/>
      </g>
     </g>
    </g>
    <g id="xtick_11">
     <g id="line2d_11">
      <g>
       <use style="fill:#252627;stroke:#252627;stroke-width:0.8;" x="486.778785" xlink:href="#m89d1bf16a4" y="437.3688"/>
      </g>
     </g>
     <g id="text_10">
      <!-- Nov -->
      <g style="fill:#252627;" transform="translate(471.163785 456.5263)scale(0.16 -0.16)">
       <defs>
        <path d="M 9.8125 72.90625 
L 23.09375 72.90625 
L 55.421875 11.921875 
L 55.421875 72.90625 
L 64.984375 72.90625 
L 64.984375 0 
L 51.703125 0 
L 19.390625 60.984375 
L 19.390625 0 
L 9.8125 0 
z
" id="DejaVuSans-78"/>
        <path d="M 30.609375 48.390625 
Q 23.390625 48.390625 19.1875 42.75 
Q 14.984375 37.109375 14.984375 27.296875 
Q 14.984375 17.484375 19.15625 11.84375 
Q 23.34375 6.203125 30.609375 6.203125 
Q 37.796875 6.203125 41.984375 11.859375 
Q 46.1875 17.53125 46.1875 27.296875 
Q 46.1875 37.015625 41.984375 42.703125 
Q 37.796875 48.390625 30.609375 48.390625 
z
M 30.609375 56 
Q 42.328125 56 49.015625 48.375 
Q 55.71875 40.765625 55.71875 27.296875 
Q 55.71875 13.875 49.015625 6.21875 
Q 42.328125 -1.421875 30.609375 -1.421875 
Q 18.84375 -1.421875 12.171875 6.21875 
Q 5.515625 13.875 5.515625 27.296875 
Q 5.515625 40.765625 12.171875 48.375 
Q 18.84375 56 30.609375 56 
z
" id="DejaVuSans-111"/>
        <path d="M 2.984375 54.6875 
L 12.5 54.6875 
L 29.59375 8.796875 
L 46.6875 54.6875 
L 56.203125 54.6875 
L 35.6875 0 
L 23.484375 0 
z
" id="DejaVuSans-118"/>
       </defs>
       <use xlink:href="#DejaVuSans-78"/>
       <use x="74.804688" xlink:href="#DejaVuSans-111"/>
       <use x="135.986328" xlink:href="#DejaVuSans-118"/>
      </g>
     </g>
    </g>
    <g id="xtick_12">
     <g id="line2d_12">
      <g>
       <use style="fill:#252627;stroke:#252627;stroke-width:0.8;" x="533.538561" xlink:href="#m89d1bf16a4" y="437.3688"/>
      </g>
     </g>
     <g id="text_11">
      <!-- Dec -->
      <g style="fill:#252627;" transform="translate(518.057311 456.5263)scale(0.16 -0.16)">
       <defs>
        <path d="M 19.671875 64.796875 
L 19.671875 8.109375 
L 31.59375 8.109375 
Q 46.6875 8.109375 53.6875 14.9375 
Q 60.6875 21.78125 60.6875 36.53125 
Q 60.6875 51.171875 53.6875 57.984375 
Q 46.6875 64.796875 31.59375 64.796875 
z
M 9.8125 72.90625 
L 30.078125 72.90625 
Q 51.265625 72.90625 61.171875 64.09375 
Q 71.09375 55.28125 71.09375 36.53125 
Q 71.09375 17.671875 61.125 8.828125 
Q 51.171875 0 30.078125 0 
L 9.8125 0 
z
" id="DejaVuSans-68"/>
       </defs>
       <use xlink:href="#DejaVuSans-68"/>
       <use x="77.001953" xlink:href="#DejaVuSans-101"/>
       <use x="138.525391" xlink:href="#DejaVuSans-99"/>
      </g>
     </g>
    </g>
    <g id="xtick_13">
     <g id="line2d_13">
      <g>
       <use style="fill:#252627;stroke:#252627;stroke-width:0.8;" x="581.856997" xlink:href="#m89d1bf16a4" y="437.3688"/>
      </g>
     </g>
     <g id="text_12">
      <!-- Jan -->
      <g style="fill:#252627;" transform="translate(569.524497 456.5263)scale(0.16 -0.16)">
       <use xlink:href="#DejaVuSans-74"/>
       <use x="29.492188" xlink:href="#DejaVuSans-97"/>
       <use x="90.771484" xlink:href="#DejaVuSans-110"/>
      </g>
      <!-- 2021 -->
      <g style="fill:#252627;" transform="translate(561.496997 474.4428)scale(0.16 -0.16)">
       <defs>
        <path d="M 19.1875 8.296875 
L 53.609375 8.296875 
L 53.609375 0 
L 7.328125 0 
L 7.328125 8.296875 
Q 12.9375 14.109375 22.625 23.890625 
Q 32.328125 33.6875 34.8125 36.53125 
Q 39.546875 41.84375 41.421875 45.53125 
Q 43.3125 49.21875 43.3125 52.78125 
Q 43.3125 58.59375 39.234375 62.25 
Q 35.15625 65.921875 28.609375 65.921875 
Q 23.96875 65.921875 18.8125 64.3125 
Q 13.671875 62.703125 7.8125 59.421875 
L 7.8125 69.390625 
Q 13.765625 71.78125 18.9375 73 
Q 24.125 74.21875 28.421875 74.21875 
Q 39.75 74.21875 46.484375 68.546875 
Q 53.21875 62.890625 53.21875 53.421875 
Q 53.21875 48.921875 51.53125 44.890625 
Q 49.859375 40.875 45.40625 35.40625 
Q 44.1875 33.984375 37.640625 27.21875 
Q 31.109375 20.453125 19.1875 8.296875 
z
" id="DejaVuSans-50"/>
        <path d="M 31.78125 66.40625 
Q 24.171875 66.40625 20.328125 58.90625 
Q 16.5 51.421875 16.5 36.375 
Q 16.5 21.390625 20.328125 13.890625 
Q 24.171875 6.390625 31.78125 6.390625 
Q 39.453125 6.390625 43.28125 13.890625 
Q 47.125 21.390625 47.125 36.375 
Q 47.125 51.421875 43.28125 58.90625 
Q 39.453125 66.40625 31.78125 66.40625 
z
M 31.78125 74.21875 
Q 44.046875 74.21875 50.515625 64.515625 
Q 56.984375 54.828125 56.984375 36.375 
Q 56.984375 17.96875 50.515625 8.265625 
Q 44.046875 -1.421875 31.78125 -1.421875 
Q 19.53125 -1.421875 13.0625 8.265625 
Q 6.59375 17.96875 6.59375 36.375 
Q 6.59375 54.828125 13.0625 64.515625 
Q 19.53125 74.21875 31.78125 74.21875 
z
" id="DejaVuSans-48"/>
        <path d="M 12.40625 8.296875 
L 28.515625 8.296875 
L 28.515625 63.921875 
L 10.984375 60.40625 
L 10.984375 69.390625 
L 28.421875 72.90625 
L 38.28125 72.90625 
L 38.28125 8.296875 
L 54.390625 8.296875 
L 54.390625 0 
L 12.40625 0 
z
" id="DejaVuSans-49"/>
       </defs>
       <use xlink:href="#DejaVuSans-50"/>
       <use x="63.623047" xlink:href="#DejaVuSans-48"/>
       <use x="127.246094" xlink:href="#DejaVuSans-50"/>
       <use x="190.869141" xlink:href="#DejaVuSans-49"/>
      </g>
     </g>
    </g>
    <g id="xtick_14">
     <g id="line2d_14">
      <g>
       <use style="fill:#252627;stroke:#252627;stroke-width:0.8;" x="616.1475" xlink:href="#m89d1bf16a4" y="437.3688"/>
      </g>
     </g>
    </g>
    <g id="xtick_15">
     <g id="line2d_15">
      <defs>
       <path d="M 0 0 
L 0 2 
" id="m5cb728e49d" style="stroke:#252627;stroke-width:0.6;"/>
      </defs>
      <g>
       <use style="fill:#252627;stroke:#252627;stroke-width:0.6;" x="62.823478" xlink:href="#m5cb728e49d" y="437.3688"/>
      </g>
     </g>
    </g>
    <g id="xtick_16">
     <g id="line2d_16">
      <g>
       <use style="fill:#252627;stroke:#252627;stroke-width:0.6;" x="73.734092" xlink:href="#m5cb728e49d" y="437.3688"/>
      </g>
     </g>
    </g>
    <g id="xtick_17">
     <g id="line2d_17">
      <g>
       <use style="fill:#252627;stroke:#252627;stroke-width:0.6;" x="84.644707" xlink:href="#m5cb728e49d" y="437.3688"/>
      </g>
     </g>
    </g>
    <g id="xtick_18">
     <g id="line2d_18">
      <g>
       <use style="fill:#252627;stroke:#252627;stroke-width:0.6;" x="95.555321" xlink:href="#m5cb728e49d" y="437.3688"/>
      </g>
     </g>
    </g>
    <g id="xtick_19">
     <g id="line2d_19">
      <g>
       <use style="fill:#252627;stroke:#252627;stroke-width:0.6;" x="106.465936" xlink:href="#m5cb728e49d" y="437.3688"/>
      </g>
     </g>
    </g>
    <g id="xtick_20">
     <g id="line2d_20">
      <g>
       <use style="fill:#252627;stroke:#252627;stroke-width:0.6;" x="117.37655" xlink:href="#m5cb728e49d" y="437.3688"/>
      </g>
     </g>
    </g>
    <g id="xtick_21">
     <g id="line2d_21">
      <g>
       <use style="fill:#252627;stroke:#252627;stroke-width:0.6;" x="128.287165" xlink:href="#m5cb728e49d" y="437.3688"/>
      </g>
     </g>
    </g>
    <g id="xtick_22">
     <g id="line2d_22">
      <g>
       <use style="fill:#252627;stroke:#252627;stroke-width:0.6;" x="139.197779" xlink:href="#m5cb728e49d" y="437.3688"/>
      </g>
     </g>
    </g>
    <g id="xtick_23">
     <g id="line2d_23">
      <g>
       <use style="fill:#252627;stroke:#252627;stroke-width:0.6;" x="150.108394" xlink:href="#m5cb728e49d" y="437.3688"/>
      </g>
     </g>
    </g>
    <g id="xtick_24">
     <g id="line2d_24">
      <g>
       <use style="fill:#252627;stroke:#252627;stroke-width:0.6;" x="161.019008" xlink:href="#m5cb728e49d" y="437.3688"/>
      </g>
     </g>
    </g>
    <g id="xtick_25">
     <g id="line2d_25">
      <g>
       <use style="fill:#252627;stroke:#252627;stroke-width:0.6;" x="171.929623" xlink:href="#m5cb728e49d" y="437.3688"/>
      </g>
     </g>
    </g>
    <g id="xtick_26">
     <g id="line2d_26">
      <g>
       <use style="fill:#252627;stroke:#252627;stroke-width:0.6;" x="182.840237" xlink:href="#m5cb728e49d" y="437.3688"/>
      </g>
     </g>
    </g>
    <g id="xtick_27">
     <g id="line2d_27">
      <g>
       <use style="fill:#252627;stroke:#252627;stroke-width:0.6;" x="193.750852" xlink:href="#m5cb728e49d" y="437.3688"/>
      </g>
     </g>
    </g>
    <g id="xtick_28">
     <g id="line2d_28">
      <g>
       <use style="fill:#252627;stroke:#252627;stroke-width:0.6;" x="204.661466" xlink:href="#m5cb728e49d" y="437.3688"/>
      </g>
     </g>
    </g>
    <g id="xtick_29">
     <g id="line2d_29">
      <g>
       <use style="fill:#252627;stroke:#252627;stroke-width:0.6;" x="215.572081" xlink:href="#m5cb728e49d" y="437.3688"/>
      </g>
     </g>
    </g>
    <g id="xtick_30">
     <g id="line2d_30">
      <g>
       <use style="fill:#252627;stroke:#252627;stroke-width:0.6;" x="226.482696" xlink:href="#m5cb728e49d" y="437.3688"/>
      </g>
     </g>
    </g>
    <g id="xtick_31">
     <g id="line2d_31">
      <g>
       <use style="fill:#252627;stroke:#252627;stroke-width:0.6;" x="237.39331" xlink:href="#m5cb728e49d" y="437.3688"/>
      </g>
     </g>
    </g>
    <g id="xtick_32">
     <g id="line2d_32">
      <g>
       <use style="fill:#252627;stroke:#252627;stroke-width:0.6;" x="259.214539" xlink:href="#m5cb728e49d" y="437.3688"/>
      </g>
     </g>
    </g>
    <g id="xtick_33">
     <g id="line2d_33">
      <g>
       <use style="fill:#252627;stroke:#252627;stroke-width:0.6;" x="270.125154" xlink:href="#m5cb728e49d" y="437.3688"/>
      </g>
     </g>
    </g>
    <g id="xtick_34">
     <g id="line2d_34">
      <g>
       <use style="fill:#252627;stroke:#252627;stroke-width:0.6;" x="281.035768" xlink:href="#m5cb728e49d" y="437.3688"/>
      </g>
     </g>
    </g>
    <g id="xtick_35">
     <g id="line2d_35">
      <g>
       <use style="fill:#252627;stroke:#252627;stroke-width:0.6;" x="291.946383" xlink:href="#m5cb728e49d" y="437.3688"/>
      </g>
     </g>
    </g>
    <g id="xtick_36">
     <g id="line2d_36">
      <g>
       <use style="fill:#252627;stroke:#252627;stroke-width:0.6;" x="302.856997" xlink:href="#m5cb728e49d" y="437.3688"/>
      </g>
     </g>
    </g>
    <g id="xtick_37">
     <g id="line2d_37">
      <g>
       <use style="fill:#252627;stroke:#252627;stroke-width:0.6;" x="313.767612" xlink:href="#m5cb728e49d" y="437.3688"/>
      </g>
     </g>
    </g>
    <g id="xtick_38">
     <g id="line2d_38">
      <g>
       <use style="fill:#252627;stroke:#252627;stroke-width:0.6;" x="324.678226" xlink:href="#m5cb728e49d" y="437.3688"/>
      </g>
     </g>
    </g>
    <g id="xtick_39">
     <g id="line2d_39">
      <g>
       <use style="fill:#252627;stroke:#252627;stroke-width:0.6;" x="335.588841" xlink:href="#m5cb728e49d" y="437.3688"/>
      </g>
     </g>
    </g>
    <g id="xtick_40">
     <g id="line2d_40">
      <g>
       <use style="fill:#252627;stroke:#252627;stroke-width:0.6;" x="346.499455" xlink:href="#m5cb728e49d" y="437.3688"/>
      </g>
     </g>
    </g>
    <g id="xtick_41">
     <g id="line2d_41">
      <g>
       <use style="fill:#252627;stroke:#252627;stroke-width:0.6;" x="357.41007" xlink:href="#m5cb728e49d" y="437.3688"/>
      </g>
     </g>
    </g>
    <g id="xtick_42">
     <g id="line2d_42">
      <g>
       <use style="fill:#252627;stroke:#252627;stroke-width:0.6;" x="368.320684" xlink:href="#m5cb728e49d" y="437.3688"/>
      </g>
     </g>
    </g>
    <g id="xtick_43">
     <g id="line2d_43">
      <g>
       <use style="fill:#252627;stroke:#252627;stroke-width:0.6;" x="379.231299" xlink:href="#m5cb728e49d" y="437.3688"/>
      </g>
     </g>
    </g>
    <g id="xtick_44">
     <g id="line2d_44">
      <g>
       <use style="fill:#252627;stroke:#252627;stroke-width:0.6;" x="390.141913" xlink:href="#m5cb728e49d" y="437.3688"/>
      </g>
     </g>
    </g>
    <g id="xtick_45">
     <g id="line2d_45">
      <g>
       <use style="fill:#252627;stroke:#252627;stroke-width:0.6;" x="401.052528" xlink:href="#m5cb728e49d" y="437.3688"/>
      </g>
     </g>
    </g>
    <g id="xtick_46">
     <g id="line2d_46">
      <g>
       <use style="fill:#252627;stroke:#252627;stroke-width:0.6;" x="411.963142" xlink:href="#m5cb728e49d" y="437.3688"/>
      </g>
     </g>
    </g>
    <g id="xtick_47">
     <g id="line2d_47">
      <g>
       <use style="fill:#252627;stroke:#252627;stroke-width:0.6;" x="422.873757" xlink:href="#m5cb728e49d" y="437.3688"/>
      </g>
     </g>
    </g>
    <g id="xtick_48">
     <g id="line2d_48">
      <g>
       <use style="fill:#252627;stroke:#252627;stroke-width:0.6;" x="433.784372" xlink:href="#m5cb728e49d" y="437.3688"/>
      </g>
     </g>
    </g>
    <g id="xtick_49">
     <g id="line2d_49">
      <g>
       <use style="fill:#252627;stroke:#252627;stroke-width:0.6;" x="444.694986" xlink:href="#m5cb728e49d" y="437.3688"/>
      </g>
     </g>
    </g>
    <g id="xtick_50">
     <g id="line2d_50">
      <g>
       <use style="fill:#252627;stroke:#252627;stroke-width:0.6;" x="455.605601" xlink:href="#m5cb728e49d" y="437.3688"/>
      </g>
     </g>
    </g>
    <g id="xtick_51">
     <g id="line2d_51">
      <g>
       <use style="fill:#252627;stroke:#252627;stroke-width:0.6;" x="466.516215" xlink:href="#m5cb728e49d" y="437.3688"/>
      </g>
     </g>
    </g>
    <g id="xtick_52">
     <g id="line2d_52">
      <g>
       <use style="fill:#252627;stroke:#252627;stroke-width:0.6;" x="477.42683" xlink:href="#m5cb728e49d" y="437.3688"/>
      </g>
     </g>
    </g>
    <g id="xtick_53">
     <g id="line2d_53">
      <g>
       <use style="fill:#252627;stroke:#252627;stroke-width:0.6;" x="488.337444" xlink:href="#m5cb728e49d" y="437.3688"/>
      </g>
     </g>
    </g>
    <g id="xtick_54">
     <g id="line2d_54">
      <g>
       <use style="fill:#252627;stroke:#252627;stroke-width:0.6;" x="499.248059" xlink:href="#m5cb728e49d" y="437.3688"/>
      </g>
     </g>
    </g>
    <g id="xtick_55">
     <g id="line2d_55">
      <g>
       <use style="fill:#252627;stroke:#252627;stroke-width:0.6;" x="510.158673" xlink:href="#m5cb728e49d" y="437.3688"/>
      </g>
     </g>
    </g>
    <g id="xtick_56">
     <g id="line2d_56">
      <g>
       <use style="fill:#252627;stroke:#252627;stroke-width:0.6;" x="521.069288" xlink:href="#m5cb728e49d" y="437.3688"/>
      </g>
     </g>
    </g>
    <g id="xtick_57">
     <g id="line2d_57">
      <g>
       <use style="fill:#252627;stroke:#252627;stroke-width:0.6;" x="531.979902" xlink:href="#m5cb728e49d" y="437.3688"/>
      </g>
     </g>
    </g>
    <g id="xtick_58">
     <g id="line2d_58">
      <g>
       <use style="fill:#252627;stroke:#252627;stroke-width:0.6;" x="542.890517" xlink:href="#m5cb728e49d" y="437.3688"/>
      </g>
     </g>
    </g>
    <g id="xtick_59">
     <g id="line2d_59">
      <g>
       <use style="fill:#252627;stroke:#252627;stroke-width:0.6;" x="553.801131" xlink:href="#m5cb728e49d" y="437.3688"/>
      </g>
     </g>
    </g>
    <g id="xtick_60">
     <g id="line2d_60">
      <g>
       <use style="fill:#252627;stroke:#252627;stroke-width:0.6;" x="564.711746" xlink:href="#m5cb728e49d" y="437.3688"/>
      </g>
     </g>
    </g>
    <g id="xtick_61">
     <g id="line2d_61">
      <g>
       <use style="fill:#252627;stroke:#252627;stroke-width:0.6;" x="575.62236" xlink:href="#m5cb728e49d" y="437.3688"/>
      </g>
     </g>
    </g>
    <g id="xtick_62">
     <g id="line2d_62">
      <g>
       <use style="fill:#252627;stroke:#252627;stroke-width:0.6;" x="586.532975" xlink:href="#m5cb728e49d" y="437.3688"/>
      </g>
     </g>
    </g>
    <g id="xtick_63">
     <g id="line2d_63">
      <g>
       <use style="fill:#252627;stroke:#252627;stroke-width:0.6;" x="597.443589" xlink:href="#m5cb728e49d" y="437.3688"/>
      </g>
     </g>
    </g>
    <g id="xtick_64">
     <g id="line2d_64">
      <g>
       <use style="fill:#252627;stroke:#252627;stroke-width:0.6;" x="608.354204" xlink:href="#m5cb728e49d" y="437.3688"/>
      </g>
     </g>
    </g>
    <g id="text_13">
     <!-- date -->
     <g style="fill:#252627;" transform="translate(319.1075 493.9278)scale(0.16 -0.16)">
      <defs>
       <path d="M 45.40625 46.390625 
L 45.40625 75.984375 
L 54.390625 75.984375 
L 54.390625 0 
L 45.40625 0 
L 45.40625 8.203125 
Q 42.578125 3.328125 38.25 0.953125 
Q 33.9375 -1.421875 27.875 -1.421875 
Q 17.96875 -1.421875 11.734375 6.484375 
Q 5.515625 14.40625 5.515625 27.296875 
Q 5.515625 40.1875 11.734375 48.09375 
Q 17.96875 56 27.875 56 
Q 33.9375 56 38.25 53.625 
Q 42.578125 51.265625 45.40625 46.390625 
z
M 14.796875 27.296875 
Q 14.796875 17.390625 18.875 11.75 
Q 22.953125 6.109375 30.078125 6.109375 
Q 37.203125 6.109375 41.296875 11.75 
Q 45.40625 17.390625 45.40625 27.296875 
Q 45.40625 37.203125 41.296875 42.84375 
Q 37.203125 48.484375 30.078125 48.484375 
Q 22.953125 48.484375 18.875 42.84375 
Q 14.796875 37.203125 14.796875 27.296875 
z
" id="DejaVuSans-100"/>
      </defs>
      <use xlink:href="#DejaVuSans-100"/>
      <use x="63.476562" xlink:href="#DejaVuSans-97"/>
      <use x="124.755859" xlink:href="#DejaVuSans-116"/>
      <use x="163.964844" xlink:href="#DejaVuSans-101"/>
     </g>
    </g>
   </g>
   <g id="matplotlib.axis_2">
    <g id="ytick_1">
     <g id="line2d_65">
      <defs>
       <path d="M 0 0 
L -3.5 0 
" id="mefb39e94eb" style="stroke:#252627;stroke-width:0.8;"/>
      </defs>
      <g>
       <use style="fill:#252627;stroke:#252627;stroke-width:0.8;" x="58.1475" xlink:href="#mefb39e94eb" y="412.093138"/>
      </g>
     </g>
     <g id="text_14">
      <!-- −200 -->
      <g style="fill:#252627;" transform="translate(7.2 418.171888)scale(0.16 -0.16)">
       <defs>
        <path d="M 10.59375 35.5 
L 73.1875 35.5 
L 73.1875 27.203125 
L 10.59375 27.203125 
z
" id="DejaVuSans-8722"/>
       </defs>
       <use xlink:href="#DejaVuSans-8722"/>
       <use x="83.789062" xlink:href="#DejaVuSans-50"/>
       <use x="147.412109" xlink:href="#DejaVuSans-48"/>
       <use x="211.035156" xlink:href="#DejaVuSans-48"/>
      </g>
     </g>
    </g>
    <g id="ytick_2">
     <g id="line2d_66">
      <g>
       <use style="fill:#252627;stroke:#252627;stroke-width:0.8;" x="58.1475" xlink:href="#mefb39e94eb" y="364.582561"/>
      </g>
     </g>
     <g id="text_15">
      <!-- 0 -->
      <g style="fill:#252627;" transform="translate(40.9675 370.661311)scale(0.16 -0.16)">
       <use xlink:href="#DejaVuSans-48"/>
      </g>
     </g>
    </g>
    <g id="ytick_3">
     <g id="line2d_67">
      <g>
       <use style="fill:#252627;stroke:#252627;stroke-width:0.8;" x="58.1475" xlink:href="#mefb39e94eb" y="317.071985"/>
      </g>
     </g>
     <g id="text_16">
      <!-- 200 -->
      <g style="fill:#252627;" transform="translate(20.6075 323.150735)scale(0.16 -0.16)">
       <use xlink:href="#DejaVuSans-50"/>
       <use x="63.623047" xlink:href="#DejaVuSans-48"/>
       <use x="127.246094" xlink:href="#DejaVuSans-48"/>
      </g>
     </g>
    </g>
    <g id="ytick_4">
     <g id="line2d_68">
      <g>
       <use style="fill:#252627;stroke:#252627;stroke-width:0.8;" x="58.1475" xlink:href="#mefb39e94eb" y="269.561408"/>
      </g>
     </g>
     <g id="text_17">
      <!-- 400 -->
      <g style="fill:#252627;" transform="translate(20.6075 275.640158)scale(0.16 -0.16)">
       <defs>
        <path d="M 37.796875 64.3125 
L 12.890625 25.390625 
L 37.796875 25.390625 
z
M 35.203125 72.90625 
L 47.609375 72.90625 
L 47.609375 25.390625 
L 58.015625 25.390625 
L 58.015625 17.1875 
L 47.609375 17.1875 
L 47.609375 0 
L 37.796875 0 
L 37.796875 17.1875 
L 4.890625 17.1875 
L 4.890625 26.703125 
z
" id="DejaVuSans-52"/>
       </defs>
       <use xlink:href="#DejaVuSans-52"/>
       <use x="63.623047" xlink:href="#DejaVuSans-48"/>
       <use x="127.246094" xlink:href="#DejaVuSans-48"/>
      </g>
     </g>
    </g>
    <g id="ytick_5">
     <g id="line2d_69">
      <g>
       <use style="fill:#252627;stroke:#252627;stroke-width:0.8;" x="58.1475" xlink:href="#mefb39e94eb" y="222.050832"/>
      </g>
     </g>
     <g id="text_18">
      <!-- 600 -->
      <g style="fill:#252627;" transform="translate(20.6075 228.129582)scale(0.16 -0.16)">
       <defs>
        <path d="M 33.015625 40.375 
Q 26.375 40.375 22.484375 35.828125 
Q 18.609375 31.296875 18.609375 23.390625 
Q 18.609375 15.53125 22.484375 10.953125 
Q 26.375 6.390625 33.015625 6.390625 
Q 39.65625 6.390625 43.53125 10.953125 
Q 47.40625 15.53125 47.40625 23.390625 
Q 47.40625 31.296875 43.53125 35.828125 
Q 39.65625 40.375 33.015625 40.375 
z
M 52.59375 71.296875 
L 52.59375 62.3125 
Q 48.875 64.0625 45.09375 64.984375 
Q 41.3125 65.921875 37.59375 65.921875 
Q 27.828125 65.921875 22.671875 59.328125 
Q 17.53125 52.734375 16.796875 39.40625 
Q 19.671875 43.65625 24.015625 45.921875 
Q 28.375 48.1875 33.59375 48.1875 
Q 44.578125 48.1875 50.953125 41.515625 
Q 57.328125 34.859375 57.328125 23.390625 
Q 57.328125 12.15625 50.6875 5.359375 
Q 44.046875 -1.421875 33.015625 -1.421875 
Q 20.359375 -1.421875 13.671875 8.265625 
Q 6.984375 17.96875 6.984375 36.375 
Q 6.984375 53.65625 15.1875 63.9375 
Q 23.390625 74.21875 37.203125 74.21875 
Q 40.921875 74.21875 44.703125 73.484375 
Q 48.484375 72.75 52.59375 71.296875 
z
" id="DejaVuSans-54"/>
       </defs>
       <use xlink:href="#DejaVuSans-54"/>
       <use x="63.623047" xlink:href="#DejaVuSans-48"/>
       <use x="127.246094" xlink:href="#DejaVuSans-48"/>
      </g>
     </g>
    </g>
    <g id="ytick_6">
     <g id="line2d_70">
      <g>
       <use style="fill:#252627;stroke:#252627;stroke-width:0.8;" x="58.1475" xlink:href="#mefb39e94eb" y="174.540256"/>
      </g>
     </g>
     <g id="text_19">
      <!-- 800 -->
      <g style="fill:#252627;" transform="translate(20.6075 180.619006)scale(0.16 -0.16)">
       <defs>
        <path d="M 31.78125 34.625 
Q 24.75 34.625 20.71875 30.859375 
Q 16.703125 27.09375 16.703125 20.515625 
Q 16.703125 13.921875 20.71875 10.15625 
Q 24.75 6.390625 31.78125 6.390625 
Q 38.8125 6.390625 42.859375 10.171875 
Q 46.921875 13.96875 46.921875 20.515625 
Q 46.921875 27.09375 42.890625 30.859375 
Q 38.875 34.625 31.78125 34.625 
z
M 21.921875 38.8125 
Q 15.578125 40.375 12.03125 44.71875 
Q 8.5 49.078125 8.5 55.328125 
Q 8.5 64.0625 14.71875 69.140625 
Q 20.953125 74.21875 31.78125 74.21875 
Q 42.671875 74.21875 48.875 69.140625 
Q 55.078125 64.0625 55.078125 55.328125 
Q 55.078125 49.078125 51.53125 44.71875 
Q 48 40.375 41.703125 38.8125 
Q 48.828125 37.15625 52.796875 32.3125 
Q 56.78125 27.484375 56.78125 20.515625 
Q 56.78125 9.90625 50.3125 4.234375 
Q 43.84375 -1.421875 31.78125 -1.421875 
Q 19.734375 -1.421875 13.25 4.234375 
Q 6.78125 9.90625 6.78125 20.515625 
Q 6.78125 27.484375 10.78125 32.3125 
Q 14.796875 37.15625 21.921875 38.8125 
z
M 18.3125 54.390625 
Q 18.3125 48.734375 21.84375 45.5625 
Q 25.390625 42.390625 31.78125 42.390625 
Q 38.140625 42.390625 41.71875 45.5625 
Q 45.3125 48.734375 45.3125 54.390625 
Q 45.3125 60.0625 41.71875 63.234375 
Q 38.140625 66.40625 31.78125 66.40625 
Q 25.390625 66.40625 21.84375 63.234375 
Q 18.3125 60.0625 18.3125 54.390625 
z
" id="DejaVuSans-56"/>
       </defs>
       <use xlink:href="#DejaVuSans-56"/>
       <use x="63.623047" xlink:href="#DejaVuSans-48"/>
       <use x="127.246094" xlink:href="#DejaVuSans-48"/>
      </g>
     </g>
    </g>
    <g id="ytick_7">
     <g id="line2d_71">
      <g>
       <use style="fill:#252627;stroke:#252627;stroke-width:0.8;" x="58.1475" xlink:href="#mefb39e94eb" y="127.029679"/>
      </g>
     </g>
     <g id="text_20">
      <!-- 1000 -->
      <g style="fill:#252627;" transform="translate(10.4275 133.108429)scale(0.16 -0.16)">
       <use xlink:href="#DejaVuSans-49"/>
       <use x="63.623047" xlink:href="#DejaVuSans-48"/>
       <use x="127.246094" xlink:href="#DejaVuSans-48"/>
       <use x="190.869141" xlink:href="#DejaVuSans-48"/>
      </g>
     </g>
    </g>
    <g id="ytick_8">
     <g id="line2d_72">
      <g>
       <use style="fill:#252627;stroke:#252627;stroke-width:0.8;" x="58.1475" xlink:href="#mefb39e94eb" y="79.519103"/>
      </g>
     </g>
     <g id="text_21">
      <!-- 1200 -->
      <g style="fill:#252627;" transform="translate(10.4275 85.597853)scale(0.16 -0.16)">
       <use xlink:href="#DejaVuSans-49"/>
       <use x="63.623047" xlink:href="#DejaVuSans-50"/>
       <use x="127.246094" xlink:href="#DejaVuSans-48"/>
       <use x="190.869141" xlink:href="#DejaVuSans-48"/>
      </g>
     </g>
    </g>
   </g>
   <g id="line2d_73">
    <path clip-path="url(#paf14838fca)" d="M 67.499455 364.582561 
L 111.141913 364.480651 
L 114.259232 364.243098 
L 115.817891 364.005545 
L 117.37655 363.63235 
L 118.935209 363.428767 
L 120.493869 362.817781 
L 122.052528 362.817781 
L 123.611187 360.238669 
L 125.169846 358.304276 
L 126.728506 355.351969 
L 128.287165 353.926652 
L 129.845824 347.682337 
L 131.404483 345.272838 
L 132.963142 338.282131 
L 134.521802 333.700687 
L 136.080461 324.538034 
L 137.63912 314.25532 
L 139.197779 297.762261 
L 140.756439 287.377875 
L 142.315098 261.959716 
L 143.873757 244.618356 
L 145.432416 225.614125 
L 146.991075 208.238795 
L 148.549735 193.849979 
L 150.108394 181.157766 
L 151.667053 172.639833 
L 153.225712 169.789198 
L 154.784372 161.542787 
L 156.343031 158.929706 
L 157.90169 162.153536 
L 159.460349 166.463458 
L 161.019008 173.691954 
L 162.577668 175.184974 
L 164.136327 181.157766 
L 165.694986 191.542153 
L 168.812304 206.474252 
L 170.370964 209.562439 
L 171.929623 214.754633 
L 173.488282 228.46476 
L 175.046941 231.68859 
L 176.605601 233.317728 
L 178.16426 231.518977 
L 179.722919 247.944096 
L 181.281578 254.493667 
L 182.840237 259.516247 
L 184.398897 255.104653 
L 185.957556 262.468792 
L 187.516215 268.136091 
L 189.074874 278.995584 
L 190.633534 267.559075 
L 192.192193 271.699384 
L 193.750852 274.006973 
L 195.309511 278.384835 
L 196.86817 277.773849 
L 198.42683 283.610999 
L 199.985489 296.065421 
L 201.544148 289.990956 
L 203.102807 294.198968 
L 204.661466 299.866267 
L 206.220126 303.802994 
L 207.778785 310.89561 
L 209.337444 312.762063 
L 210.896103 304.990758 
L 212.454763 317.818614 
L 214.013422 318.531272 
L 215.572081 319.922619 
L 217.13074 320.228112 
L 218.689399 322.264178 
L 220.248059 322.128536 
L 221.806718 325.216723 
L 223.365377 327.761865 
L 224.924036 332.614832 
L 226.482696 331.834234 
L 228.041355 335.465467 
L 229.600014 337.976638 
L 231.158673 343.575997 
L 232.717332 324.91123 
L 234.275992 326.743713 
L 235.834651 324.232541 
L 237.39331 394.276672 
L 238.951969 387.014442 
L 240.510628 390.747348 
L 242.069288 392.444189 
L 243.627947 415.724371 
L 245.186606 417.285331 
L 246.745265 419.7288 
L 248.303925 354.63931 
L 249.862584 364.243098 
L 254.538561 364.141426 
L 257.65588 364.277068 
L 262.331858 364.311038 
L 263.890517 364.480651 
L 273.242472 364.582561 
L 274.801131 364.582561 
L 276.359791 324.571767 
L 277.91845 324.334214 
L 285.711746 324.062929 
L 287.270405 363.801963 
L 288.829064 363.937843 
L 291.946383 363.835933 
L 295.063701 363.326857 
L 296.62236 363.292887 
L 298.18102 362.987631 
L 301.298338 363.157244 
L 302.856997 363.157244 
L 305.974316 363.496707 
L 307.532975 363.462737 
L 309.091634 363.971813 
L 326.236885 364.073485 
L 330.912863 364.175396 
L 344.940796 364.141426 
L 348.058115 362.478555 
L 351.175433 362.648168 
L 355.851411 362.614198 
L 357.41007 361.053238 
L 358.968729 361.765897 
L 360.527388 361.867569 
L 362.086047 361.019268 
L 363.644707 360.713775 
L 366.762025 360.713775 
L 368.320684 362.207032 
L 369.879344 361.562314 
L 371.438003 357.184452 
L 372.996662 357.523915 
L 374.555321 357.082779 
L 377.67264 357.082779 
L 379.231299 356.912929 
L 380.789958 355.962717 
L 382.348617 358.677709 
L 383.907277 358.372216 
L 385.465936 358.711679 
L 388.583254 358.711679 
L 390.141913 357.048809 
L 391.700573 356.845226 
L 393.259232 357.014839 
L 394.817891 356.505763 
L 396.37655 350.770524 
L 399.493869 350.770524 
L 401.052528 350.261448 
L 402.611187 349.58276 
L 404.169846 349.854283 
L 405.728506 348.802161 
L 407.287165 353.417576 
L 411.963142 353.315666 
L 413.521802 350.668851 
L 415.080461 343.711878 
L 416.63912 340.62369 
L 418.197779 339.198373 
L 421.315098 339.198373 
L 422.873757 336.924517 
L 424.432416 334.04015 
L 425.991075 337.739086 
L 427.549735 340.386137 
L 429.108394 339.571569 
L 432.225712 339.571569 
L 433.784372 339.198373 
L 435.343031 347.376844 
L 436.90169 338.89288 
L 438.460349 335.56714 
L 443.136327 335.60111 
L 444.694986 336.958487 
L 446.253645 328.101328 
L 447.812304 338.417774 
L 449.370964 340.318197 
L 450.929623 335.974305 
L 454.046941 335.974305 
L 455.605601 334.073882 
L 457.16426 340.216525 
L 458.722919 335.70302 
L 460.281578 335.227914 
L 461.840237 335.872633 
L 464.957556 335.872633 
L 466.516215 335.126004 
L 468.074874 330.442886 
L 469.633534 332.241399 
L 471.192193 331.732323 
L 472.750852 331.427068 
L 475.86817 331.427068 
L 477.42683 329.322825 
L 478.985489 327.659954 
L 480.544148 327.252789 
L 482.102807 326.64204 
L 483.661466 326.370517 
L 486.778785 326.370517 
L 488.337444 322.976837 
L 489.896103 323.961018 
L 491.454763 274.583989 
L 493.013422 267.966478 
L 494.572081 264.301275 
L 497.689399 264.301275 
L 499.248059 259.78777 
L 500.806718 267.864568 
L 502.365377 297.151513 
L 503.924036 297.558678 
L 505.482696 298.882323 
L 508.600014 298.882323 
L 510.158673 299.832535 
L 511.717332 285.070286 
L 513.275992 298.950026 
L 514.834651 302.479349 
L 516.39331 301.80066 
L 519.510628 301.80066 
L 521.069288 300.850449 
L 522.627947 297.389066 
L 524.186606 296.77808 
L 525.745265 293.893713 
L 527.303925 295.047507 
L 530.421243 295.047507 
L 531.979902 298.814383 
L 535.097221 305.296251 
L 538.214539 310.82767 
L 541.331858 310.82767 
L 542.890517 311.065223 
L 544.449176 326.065024 
L 546.007835 322.671344 
L 549.125154 318.022196 
L 552.242472 318.022196 
L 553.801131 318.191809 
L 555.359791 305.024728 
L 556.91845 311.065223 
L 558.477109 315.952161 
L 560.035768 320.397725 
L 563.153087 320.397725 
L 564.711746 322.264178 
L 566.270405 326.60807 
L 567.829064 327.184849 
L 569.387723 329.051539 
L 570.946383 334.107852 
L 574.063701 334.107852 
L 575.62236 335.329587 
L 577.18102 333.293521 
L 578.739679 330.951962 
L 580.298338 330.205334 
L 584.974316 330.205334 
L 586.532975 332.139727 
L 588.091634 331.053635 
L 589.650293 339.435926 
L 591.208953 336.144156 
L 592.767612 329.390765 
L 595.88493 329.390765 
L 597.443589 323.961018 
L 599.002249 322.060595 
L 600.560908 315.443085 
L 602.119567 316.936342 
L 603.678226 315.714608 
L 606.795545 315.714608 
L 608.354204 313.881887 
L 609.912863 314.017767 
L 611.471522 304.888848 
L 613.030182 297.999814 
L 614.588841 292.400455 
L 616.1475 292.400455 
L 616.1475 292.400455 
" style="fill:none;stroke:#bb0a21;stroke-linecap:square;stroke-width:2;"/>
   </g>
   <g id="line2d_74">
    <path clip-path="url(#paf14838fca)" d="M 65.940796 364.582561 
L 117.37655 364.480651 
L 118.935209 364.345008 
L 123.611187 364.277068 
L 125.169846 363.66632 
L 126.728506 363.191214 
L 128.287165 362.444585 
L 129.845824 362.00345 
L 131.404483 360.849655 
L 132.963142 359.356398 
L 134.521802 358.304276 
L 136.080461 356.980869 
L 137.63912 356.23424 
L 139.197779 354.435727 
L 140.756439 349.989925 
L 142.315098 344.662089 
L 143.873757 340.046674 
L 145.432416 331.359128 
L 146.991075 323.417973 
L 148.549735 317.411448 
L 150.108394 307.298347 
L 151.667053 298.6108 
L 154.784372 266.133758 
L 157.90169 235.116241 
L 159.460349 221.948922 
L 161.019008 215.297441 
L 162.577668 191.50842 
L 164.136327 179.325283 
L 165.694986 163.714733 
L 167.253645 150.615355 
L 168.812304 147.66281 
L 170.370964 145.762387 
L 171.929623 140.502253 
L 173.488282 141.350792 
L 175.046941 146.373373 
L 176.605601 148.986455 
L 178.16426 156.079071 
L 179.722919 147.119764 
L 181.281578 154.721456 
L 182.840237 159.778007 
L 184.398897 154.891307 
L 185.957556 155.807548 
L 187.516215 167.888775 
L 189.074874 164.359452 
L 190.633534 174.268733 
L 192.192193 176.610291 
L 195.309511 193.782039 
L 196.86817 196.700614 
L 198.42683 198.329514 
L 199.985489 209.121066 
L 201.544148 216.960311 
L 203.102807 220.727425 
L 204.661466 222.424028 
L 206.220126 230.772349 
L 207.778785 234.980598 
L 209.337444 241.021093 
L 210.896103 245.093462 
L 212.454763 255.613729 
L 214.013422 256.835463 
L 215.572081 259.71983 
L 217.13074 263.452974 
L 218.689399 270.206127 
L 220.248059 273.76942 
L 221.806718 281.540963 
L 223.365377 276.925548 
L 224.924036 282.016068 
L 226.482696 283.441386 
L 229.600014 291.348333 
L 231.158673 294.063325 
L 232.717332 296.099391 
L 234.275992 302.581259 
L 235.834651 291.99329 
L 237.39331 293.418607 
L 238.951969 305.97494 
L 240.510628 302.818812 
L 242.069288 300.443283 
L 243.627947 301.020299 
L 245.186606 303.259948 
L 246.745265 314.085708 
L 248.303925 314.696456 
L 249.862584 310.658057 
L 251.421243 316.359326 
L 252.979902 323.587823 
L 254.538561 324.130631 
L 256.097221 324.504064 
L 257.65588 324.707647 
L 259.214539 326.031054 
L 260.773198 327.829805 
L 262.331858 330.884022 
L 263.890517 332.716505 
L 265.449176 337.026427 
L 267.007835 338.248161 
L 268.566494 339.164403 
L 270.125154 339.775151 
L 271.683813 342.388233 
L 273.242472 344.220954 
L 274.801131 344.526209 
L 276.359791 346.121377 
L 277.91845 347.343111 
L 279.477109 347.207231 
L 281.035768 347.750277 
L 284.153087 349.413147 
L 285.711746 348.327055 
L 287.270405 348.564608 
L 288.829064 349.61673 
L 290.387723 349.61673 
L 291.946383 349.345207 
L 293.505042 350.702584 
L 295.063701 350.363358 
L 296.62236 352.331722 
L 298.18102 353.281933 
L 299.739679 353.553219 
L 302.856997 354.299847 
L 304.415656 354.299847 
L 305.974316 355.657462 
L 307.532975 355.996687 
L 310.650293 357.014839 
L 312.208953 357.354065 
L 313.767612 357.388035 
L 315.326271 357.727498 
L 316.88493 358.779382 
L 321.560908 359.559981 
L 324.678226 359.492041 
L 326.236885 360.136997 
L 327.795545 360.442252 
L 329.354204 360.951328 
L 332.471522 360.544162 
L 334.030182 360.646072 
L 337.1475 361.019268 
L 338.706159 360.442252 
L 341.823478 361.154911 
L 348.058115 361.494374 
L 349.616774 362.173062 
L 351.175433 361.562314 
L 354.292751 362.173062 
L 355.851411 362.173062 
L 357.41007 361.596284 
L 358.968729 361.765897 
L 360.527388 361.562314 
L 366.762025 361.596284 
L 368.320684 362.105122 
L 371.438003 362.241003 
L 374.555321 362.953661 
L 376.11398 362.444585 
L 382.348617 362.241003 
L 385.465936 361.799867 
L 388.583254 362.173062 
L 390.141913 362.207032 
L 391.700573 362.648168 
L 393.259232 362.885721 
L 397.935209 362.784048 
L 401.052528 362.750078 
L 402.611187 361.765897 
L 408.845824 362.07139 
L 411.963142 361.765897 
L 413.521802 361.93551 
L 415.080461 361.528344 
L 416.63912 361.290791 
L 419.756439 359.967146 
L 421.315098 359.526011 
L 422.873757 359.458308 
L 424.432416 359.118845 
L 427.549735 357.897111 
L 430.667053 357.388035 
L 433.784372 357.354065 
L 436.90169 355.012506 
L 438.460349 354.367787 
L 440.019008 353.281933 
L 443.136327 352.263781 
L 446.253645 351.924318 
L 447.812304 351.958288 
L 450.929623 350.634881 
L 455.605601 347.410814 
L 458.722919 342.863339 
L 460.281578 340.793303 
L 461.840237 339.130433 
L 463.398897 336.788874 
L 464.957556 336.720934 
L 466.516215 335.70302 
L 468.074874 332.37728 
L 471.192193 328.813986 
L 472.750852 325.827471 
L 474.309511 325.01314 
L 475.86817 322.162506 
L 477.42683 321.415877 
L 480.544148 313.101526 
L 482.102807 310.013339 
L 483.661466 308.316498 
L 485.220126 303.158275 
L 486.778785 302.784842 
L 489.896103 300.612896 
L 491.454763 294.436521 
L 493.013422 291.110781 
L 496.13074 285.409511 
L 497.689399 285.613094 
L 499.248059 283.610999 
L 500.806718 279.029554 
L 502.365377 275.50023 
L 503.924036 269.221945 
L 505.482696 268.509287 
L 507.041355 266.846417 
L 508.600014 266.439251 
L 510.158673 265.794532 
L 511.717332 263.520676 
L 513.275992 265.794532 
L 514.834651 267.864568 
L 516.39331 263.283123 
L 517.951969 267.423433 
L 519.510628 259.584187 
L 521.069288 259.82174 
L 522.627947 259.516247 
L 524.186606 253.882918 
L 525.745265 254.018561 
L 527.303925 253.713305 
L 528.862584 248.996218 
L 530.421243 255.240295 
L 533.538561 255.545788 
L 535.097221 257.140718 
L 536.65588 259.991353 
L 538.214539 260.534399 
L 539.773198 263.317093 
L 541.331858 262.774285 
L 542.890517 263.249391 
L 544.449176 263.385034 
L 546.007835 267.28779 
L 547.566494 263.826169 
L 549.125154 266.541161 
L 550.683813 262.366882 
L 552.242472 265.319427 
L 553.801131 263.826169 
L 555.359791 266.982297 
L 556.91845 264.301275 
L 558.477109 263.758229 
L 560.035768 261.518581 
L 561.594427 260.941565 
L 563.153087 254.76519 
L 564.711746 255.376176 
L 566.270405 249.097891 
L 567.829064 244.482713 
L 569.387723 243.023426 
L 570.946383 240.308434 
L 572.505042 251.371747 
L 574.063701 250.659088 
L 575.62236 245.84009 
L 577.18102 253.747276 
L 578.739679 245.80612 
L 580.298338 232.571099 
L 581.856997 231.043871 
L 583.415656 223.102954 
L 584.974316 219.43775 
L 586.532975 217.639237 
L 588.091634 203.284154 
L 589.650293 201.248089 
L 591.208953 194.562638 
L 592.767612 170.196364 
L 594.326271 150.174219 
L 597.443589 142.334974 
L 599.002249 129.948254 
L 600.560908 112.097818 
L 602.119567 109.00963 
L 603.678226 110.63853 
L 605.236885 101.679461 
L 606.795545 97.776705 
L 608.354204 95.299503 
L 609.912863 82.878813 
L 611.471522 74.123327 
L 613.030182 72.664039 
L 614.588841 68.727313 
L 616.1475 66.9288 
L 616.1475 66.9288 
" style="fill:none;stroke:#4b88a2;stroke-linecap:square;stroke-width:2;"/>
   </g>
   <g id="line2d_75">
    <path clip-path="url(#paf14838fca)" d="M 120.493869 364.582561 
L 134.521802 364.480651 
L 137.63912 364.412949 
L 140.756439 364.345008 
L 143.873757 364.277068 
L 145.432416 364.311038 
L 151.667053 363.801963 
L 153.225712 363.59838 
L 154.784372 363.021601 
L 157.90169 362.648168 
L 159.460349 362.376645 
L 161.019008 362.274973 
L 164.136327 361.765897 
L 165.694986 361.765897 
L 167.253645 360.917358 
L 170.370964 360.849655 
L 171.929623 360.37455 
L 173.488282 360.40852 
L 175.046941 360.069057 
L 176.605601 359.967146 
L 178.16426 360.136997 
L 181.281578 357.557885 
L 187.516215 354.469698 
L 189.074874 353.247963 
L 190.633534 352.636977 
L 192.192193 353.451546 
L 193.750852 353.146053 
L 195.309511 352.026229 
L 196.86817 350.566941 
L 198.42683 348.327055 
L 201.544148 347.614396 
L 203.102807 345.646271 
L 204.661466 345.510391 
L 206.220126 344.560179 
L 207.778785 344.560179 
L 209.337444 345.035285 
L 210.896103 344.560179 
L 212.454763 343.745848 
L 214.013422 344.119043 
L 215.572081 343.643938 
L 217.13074 343.779818 
L 218.689399 342.999219 
L 220.248059 342.863339 
L 221.806718 341.573902 
L 223.365377 340.52178 
L 224.924036 338.82494 
L 226.482696 336.483381 
L 228.041355 335.499199 
L 229.600014 335.56714 
L 231.158673 334.684868 
L 232.717332 335.66905 
L 234.275992 335.736752 
L 235.834651 337.16207 
L 238.951969 334.922421 
L 240.510628 332.037816 
L 242.069288 332.309339 
L 243.627947 331.121575 
L 245.186606 330.714409 
L 246.745265 328.949629 
L 248.303925 330.476856 
L 249.862584 331.359128 
L 251.421243 333.666717 
L 252.979902 332.954058 
L 256.097221 333.021998 
L 257.65588 332.037816 
L 259.214539 332.784445 
L 262.331858 330.340976 
L 263.890517 328.712076 
L 265.449176 333.157641 
L 267.007835 330.408916 
L 268.566494 323.078747 
L 270.125154 320.838861 
L 271.683813 319.854679 
L 273.242472 318.632945 
L 274.801131 317.988226 
L 276.359791 311.235073 
L 277.91845 311.879792 
L 279.477109 318.531272 
L 281.035768 318.327689 
L 282.594427 318.836765 
L 284.153087 319.481484 
L 285.711746 320.465665 
L 287.270405 321.178324 
L 290.387723 321.415877 
L 291.946383 321.110384 
L 293.505042 321.381907 
L 295.063701 321.347937 
L 296.62236 321.008474 
L 298.18102 320.906801 
L 299.739679 321.246027 
L 302.856997 321.55152 
L 304.415656 321.313967 
L 307.532975 321.51755 
L 309.091634 321.347937 
L 310.650293 321.483579 
L 312.208953 321.110384 
L 313.767612 321.076414 
L 315.326271 321.246027 
L 316.88493 321.008474 
L 318.443589 320.431695 
L 320.002249 320.499635 
L 321.560908 319.922619 
L 323.119567 319.888649 
L 324.678226 319.447514 
L 326.236885 318.768825 
L 327.795545 318.768825 
L 329.354204 193.578456 
L 330.912863 193.408843 
L 334.030182 206.575925 
L 335.588841 193.748069 
L 337.1475 193.782039 
L 338.706159 193.238993 
L 340.264818 325.148783 
L 341.823478 324.605737 
L 343.382137 324.605737 
L 344.940796 304.481682 
L 346.499455 317.309538 
L 348.058115 317.241598 
L 349.616774 316.664819 
L 351.175433 310.013339 
L 352.734092 309.33465 
L 354.292751 309.33465 
L 355.851411 315.103622 
L 357.41007 314.866069 
L 358.968729 313.881887 
L 360.527388 321.381907 
L 362.086047 320.838861 
L 363.644707 187.877187 
L 365.203366 187.877187 
L 366.762025 194.800191 
L 368.320684 194.732251 
L 369.879344 195.580552 
L 371.438003 189.574027 
L 372.996662 190.795762 
L 374.555321 324.605737 
L 376.11398 317.44518 
L 377.67264 317.818614 
L 379.231299 317.682733 
L 380.789958 319.379574 
L 382.348617 319.006378 
L 383.907277 320.804891 
L 385.465936 322.400058 
L 387.024595 322.976837 
L 388.583254 325.420306 
L 390.141913 326.404487 
L 391.700573 326.200905 
L 393.259232 328.372613 
L 394.817891 332.546892 
L 396.37655 326.302577 
L 397.935209 327.829805 
L 399.493869 327.931477 
L 401.052528 328.949629 
L 402.611187 329.560377 
L 404.169846 328.780016 
L 405.728506 324.9452 
L 407.287165 332.716505 
L 408.845824 333.497104 
L 410.404483 336.110185 
L 411.963142 334.990361 
L 415.080461 337.29795 
L 416.63912 336.924517 
L 418.197779 337.36589 
L 419.756439 336.992457 
L 421.315098 335.974305 
L 422.873757 342.21862 
L 424.432416 345.680241 
L 425.991075 342.829606 
L 427.549735 336.788874 
L 429.108394 334.345405 
L 430.667053 338.99479 
L 432.225712 338.349834 
L 433.784372 334.277703 
L 435.343031 332.173459 
L 436.90169 336.483381 
L 438.460349 344.458506 
L 440.019008 347.682337 
L 441.577668 345.171165 
L 443.136327 348.734458 
L 444.694986 348.293323 
L 446.253645 347.275171 
L 447.812304 347.003648 
L 449.370964 346.053436 
L 450.929623 345.476421 
L 452.488282 343.745848 
L 454.046941 340.962916 
L 455.605601 343.711878 
L 457.16426 344.730029 
L 458.722919 347.444784 
L 460.281578 345.306808 
L 461.840237 348.327055 
L 463.398897 350.159776 
L 464.957556 351.109987 
L 466.516215 350.940137 
L 468.074874 350.974107 
L 469.633534 349.107654 
L 471.192193 350.770524 
L 472.750852 350.770524 
L 474.309511 351.517153 
L 475.86817 349.413147 
L 477.42683 351.34754 
L 478.985489 351.788676 
L 480.544148 351.619063 
L 482.102807 353.349636 
L 483.661466 351.754706 
L 485.220126 351.754706 
L 486.778785 353.485516 
L 488.337444 353.485516 
L 489.896103 355.114416 
L 491.454763 350.532971 
L 493.013422 350.499001 
L 494.572081 352.094169 
L 496.13074 351.958288 
L 497.689399 352.87453 
L 499.248059 350.906404 
L 500.806718 348.734458 
L 502.365377 353.689099 
L 503.924036 354.367787 
L 505.482696 353.146053 
L 507.041355 353.621159 
L 508.600014 352.501334 
L 510.158673 352.636977 
L 511.717332 353.451546 
L 513.275992 353.553219 
L 514.834651 354.876863 
L 516.39331 351.720736 
L 517.951969 349.54879 
L 519.510628 351.958288 
L 521.069288 352.229811 
L 522.627947 352.026229 
L 525.745265 352.094169 
L 527.303925 353.078113 
L 528.862584 353.383606 
L 530.421243 351.890348 
L 531.979902 353.451546 
L 533.538561 353.553219 
L 535.097221 355.046476 
L 536.65588 351.31357 
L 538.214539 354.70725 
L 539.773198 353.858712 
L 541.331858 354.130234 
L 542.890517 352.670947 
L 544.449176 354.130234 
L 546.007835 349.820313 
L 547.566494 350.227478 
L 549.125154 350.227478 
L 550.683813 352.738887 
L 552.242472 353.960622 
L 553.801131 350.906404 
L 555.359791 348.293323 
L 556.91845 352.603007 
L 558.477109 352.399424 
L 560.035768 352.399424 
L 561.594427 353.926652 
L 563.153087 347.95386 
L 564.711746 350.125806 
L 566.270405 350.363358 
L 567.829064 348.836131 
L 569.387723 352.365454 
L 570.946383 349.005981 
L 572.505042 347.275171 
L 574.063701 353.247963 
L 575.62236 351.992259 
L 577.18102 352.636977 
L 578.739679 352.501334 
L 580.298338 348.904071 
L 581.856997 352.263781 
L 583.415656 353.994592 
L 584.974316 350.838464 
L 588.091634 354.232145 
L 589.650293 352.670947 
L 591.208953 356.26821 
L 592.767612 352.060199 
L 594.326271 352.060199 
L 595.88493 355.216089 
L 597.443589 349.311237 
L 599.002249 347.444784 
L 600.560908 348.496905 
L 602.119567 348.496905 
L 603.678226 344.051103 
L 605.236885 344.051103 
L 606.795545 340.114614 
L 608.354204 347.95386 
L 609.912863 349.820313 
L 611.471522 342.693726 
L 613.030182 342.693726 
L 614.588841 343.542265 
L 616.1475 343.542265 
L 616.1475 343.542265 
" style="fill:none;stroke:#d3d4d9;stroke-linecap:square;stroke-width:2;"/>
   </g>
   <g id="patch_3">
    <path d="M 58.1475 437.3688 
L 58.1475 49.2888 
" style="fill:none;stroke:#000000;stroke-linecap:square;stroke-linejoin:miter;stroke-width:0.8;"/>
   </g>
   <g id="patch_4">
    <path d="M 616.1475 437.3688 
L 616.1475 49.2888 
" style="fill:none;stroke:#000000;stroke-linecap:square;stroke-linejoin:miter;stroke-width:0.8;"/>
   </g>
   <g id="patch_5">
    <path d="M 58.1475 437.3688 
L 616.1475 437.3688 
" style="fill:none;stroke:#000000;stroke-linecap:square;stroke-linejoin:miter;stroke-width:0.8;"/>
   </g>
   <g id="patch_6">
    <path d="M 58.1475 49.2888 
L 616.1475 49.2888 
" style="fill:none;stroke:#000000;stroke-linecap:square;stroke-linejoin:miter;stroke-width:0.8;"/>
   </g>
   <g id="text_22">
    <!-- Latest update:  -->
    <g style="fill:#252627;" transform="translate(40.1475 491.690987)scale(0.1 -0.1)">
     <defs>
      <path d="M 9.8125 72.90625 
L 19.671875 72.90625 
L 19.671875 8.296875 
L 55.171875 8.296875 
L 55.171875 0 
L 9.8125 0 
z
" id="DejaVuSans-76"/>
      <path d="M 44.28125 53.078125 
L 44.28125 44.578125 
Q 40.484375 46.53125 36.375 47.5 
Q 32.28125 48.484375 27.875 48.484375 
Q 21.1875 48.484375 17.84375 46.4375 
Q 14.5 44.390625 14.5 40.28125 
Q 14.5 37.15625 16.890625 35.375 
Q 19.28125 33.59375 26.515625 31.984375 
L 29.59375 31.296875 
Q 39.15625 29.25 43.1875 25.515625 
Q 47.21875 21.78125 47.21875 15.09375 
Q 47.21875 7.46875 41.1875 3.015625 
Q 35.15625 -1.421875 24.609375 -1.421875 
Q 20.21875 -1.421875 15.453125 -0.5625 
Q 10.6875 0.296875 5.421875 2 
L 5.421875 11.28125 
Q 10.40625 8.6875 15.234375 7.390625 
Q 20.0625 6.109375 24.8125 6.109375 
Q 31.15625 6.109375 34.5625 8.28125 
Q 37.984375 10.453125 37.984375 14.40625 
Q 37.984375 18.0625 35.515625 20.015625 
Q 33.0625 21.96875 24.703125 23.78125 
L 21.578125 24.515625 
Q 13.234375 26.265625 9.515625 29.90625 
Q 5.8125 33.546875 5.8125 39.890625 
Q 5.8125 47.609375 11.28125 51.796875 
Q 16.75 56 26.8125 56 
Q 31.78125 56 36.171875 55.265625 
Q 40.578125 54.546875 44.28125 53.078125 
z
" id="DejaVuSans-115"/>
      <path id="DejaVuSans-32"/>
      <path d="M 11.71875 12.40625 
L 22.015625 12.40625 
L 22.015625 0 
L 11.71875 0 
z
M 11.71875 51.703125 
L 22.015625 51.703125 
L 22.015625 39.3125 
L 11.71875 39.3125 
z
" id="DejaVuSans-58"/>
     </defs>
     <use xlink:href="#DejaVuSans-76"/>
     <use x="55.712891" xlink:href="#DejaVuSans-97"/>
     <use x="116.992188" xlink:href="#DejaVuSans-116"/>
     <use x="156.201172" xlink:href="#DejaVuSans-101"/>
     <use x="217.724609" xlink:href="#DejaVuSans-115"/>
     <use x="269.824219" xlink:href="#DejaVuSans-116"/>
     <use x="309.033203" xlink:href="#DejaVuSans-32"/>
     <use x="340.820312" xlink:href="#DejaVuSans-117"/>
     <use x="404.199219" xlink:href="#DejaVuSans-112"/>
     <use x="467.675781" xlink:href="#DejaVuSans-100"/>
     <use x="531.152344" xlink:href="#DejaVuSans-97"/>
     <use x="592.431641" xlink:href="#DejaVuSans-116"/>
     <use x="631.640625" xlink:href="#DejaVuSans-101"/>
     <use x="693.164062" xlink:href="#DejaVuSans-58"/>
     <use x="726.855469" xlink:href="#DejaVuSans-32"/>
    </g>
    <!-- 24-1-2021 -->
    <g style="fill:#252627;" transform="translate(40.1475 502.8888)scale(0.1 -0.1)">
     <defs>
      <path d="M 4.890625 31.390625 
L 31.203125 31.390625 
L 31.203125 23.390625 
L 4.890625 23.390625 
z
" id="DejaVuSans-45"/>
     </defs>
     <use xlink:href="#DejaVuSans-50"/>
     <use x="63.623047" xlink:href="#DejaVuSans-52"/>
     <use x="127.246094" xlink:href="#DejaVuSans-45"/>
     <use x="163.330078" xlink:href="#DejaVuSans-49"/>
     <use x="226.953125" xlink:href="#DejaVuSans-45"/>
     <use x="263.037109" xlink:href="#DejaVuSans-50"/>
     <use x="326.660156" xlink:href="#DejaVuSans-48"/>
     <use x="390.283203" xlink:href="#DejaVuSans-50"/>
     <use x="453.90625" xlink:href="#DejaVuSans-49"/>
    </g>
   </g>
   <g id="text_23">
    <!-- Note: Negative deaths numbers can come from country data corrections -->
    <g style="fill:#252627;" transform="translate(40.1475 512.9688)scale(0.08 -0.08)">
     <defs>
      <path d="M 9.421875 54.6875 
L 18.40625 54.6875 
L 18.40625 0 
L 9.421875 0 
z
M 9.421875 75.984375 
L 18.40625 75.984375 
L 18.40625 64.59375 
L 9.421875 64.59375 
z
" id="DejaVuSans-105"/>
      <path d="M 54.890625 33.015625 
L 54.890625 0 
L 45.90625 0 
L 45.90625 32.71875 
Q 45.90625 40.484375 42.875 44.328125 
Q 39.84375 48.1875 33.796875 48.1875 
Q 26.515625 48.1875 22.3125 43.546875 
Q 18.109375 38.921875 18.109375 30.90625 
L 18.109375 0 
L 9.078125 0 
L 9.078125 75.984375 
L 18.109375 75.984375 
L 18.109375 46.1875 
Q 21.34375 51.125 25.703125 53.5625 
Q 30.078125 56 35.796875 56 
Q 45.21875 56 50.046875 50.171875 
Q 54.890625 44.34375 54.890625 33.015625 
z
" id="DejaVuSans-104"/>
      <path d="M 52 44.1875 
Q 55.375 50.25 60.0625 53.125 
Q 64.75 56 71.09375 56 
Q 79.640625 56 84.28125 50.015625 
Q 88.921875 44.046875 88.921875 33.015625 
L 88.921875 0 
L 79.890625 0 
L 79.890625 32.71875 
Q 79.890625 40.578125 77.09375 44.375 
Q 74.3125 48.1875 68.609375 48.1875 
Q 61.625 48.1875 57.5625 43.546875 
Q 53.515625 38.921875 53.515625 30.90625 
L 53.515625 0 
L 44.484375 0 
L 44.484375 32.71875 
Q 44.484375 40.625 41.703125 44.40625 
Q 38.921875 48.1875 33.109375 48.1875 
Q 26.21875 48.1875 22.15625 43.53125 
Q 18.109375 38.875 18.109375 30.90625 
L 18.109375 0 
L 9.078125 0 
L 9.078125 54.6875 
L 18.109375 54.6875 
L 18.109375 46.1875 
Q 21.1875 51.21875 25.484375 53.609375 
Q 29.78125 56 35.6875 56 
Q 41.65625 56 45.828125 52.96875 
Q 50 49.953125 52 44.1875 
z
" id="DejaVuSans-109"/>
      <path d="M 37.109375 75.984375 
L 37.109375 68.5 
L 28.515625 68.5 
Q 23.6875 68.5 21.796875 66.546875 
Q 19.921875 64.59375 19.921875 59.515625 
L 19.921875 54.6875 
L 34.71875 54.6875 
L 34.71875 47.703125 
L 19.921875 47.703125 
L 19.921875 0 
L 10.890625 0 
L 10.890625 47.703125 
L 2.296875 47.703125 
L 2.296875 54.6875 
L 10.890625 54.6875 
L 10.890625 58.5 
Q 10.890625 67.625 15.140625 71.796875 
Q 19.390625 75.984375 28.609375 75.984375 
z
" id="DejaVuSans-102"/>
     </defs>
     <use xlink:href="#DejaVuSans-78"/>
     <use x="74.804688" xlink:href="#DejaVuSans-111"/>
     <use x="135.986328" xlink:href="#DejaVuSans-116"/>
     <use x="175.195312" xlink:href="#DejaVuSans-101"/>
     <use x="236.71875" xlink:href="#DejaVuSans-58"/>
     <use x="270.410156" xlink:href="#DejaVuSans-32"/>
     <use x="302.197266" xlink:href="#DejaVuSans-78"/>
     <use x="377.001953" xlink:href="#DejaVuSans-101"/>
     <use x="438.525391" xlink:href="#DejaVuSans-103"/>
     <use x="502.001953" xlink:href="#DejaVuSans-97"/>
     <use x="563.28125" xlink:href="#DejaVuSans-116"/>
     <use x="602.490234" xlink:href="#DejaVuSans-105"/>
     <use x="630.273438" xlink:href="#DejaVuSans-118"/>
     <use x="689.453125" xlink:href="#DejaVuSans-101"/>
     <use x="750.976562" xlink:href="#DejaVuSans-32"/>
     <use x="782.763672" xlink:href="#DejaVuSans-100"/>
     <use x="846.240234" xlink:href="#DejaVuSans-101"/>
     <use x="907.763672" xlink:href="#DejaVuSans-97"/>
     <use x="969.042969" xlink:href="#DejaVuSans-116"/>
     <use x="1008.251953" xlink:href="#DejaVuSans-104"/>
     <use x="1071.630859" xlink:href="#DejaVuSans-115"/>
     <use x="1123.730469" xlink:href="#DejaVuSans-32"/>
     <use x="1155.517578" xlink:href="#DejaVuSans-110"/>
     <use x="1218.896484" xlink:href="#DejaVuSans-117"/>
     <use x="1282.275391" xlink:href="#DejaVuSans-109"/>
     <use x="1379.6875" xlink:href="#DejaVuSans-98"/>
     <use x="1443.164062" xlink:href="#DejaVuSans-101"/>
     <use x="1504.6875" xlink:href="#DejaVuSans-114"/>
     <use x="1545.800781" xlink:href="#DejaVuSans-115"/>
     <use x="1597.900391" xlink:href="#DejaVuSans-32"/>
     <use x="1629.6875" xlink:href="#DejaVuSans-99"/>
     <use x="1684.667969" xlink:href="#DejaVuSans-97"/>
     <use x="1745.947266" xlink:href="#DejaVuSans-110"/>
     <use x="1809.326172" xlink:href="#DejaVuSans-32"/>
     <use x="1841.113281" xlink:href="#DejaVuSans-99"/>
     <use x="1896.09375" xlink:href="#DejaVuSans-111"/>
     <use x="1957.275391" xlink:href="#DejaVuSans-109"/>
     <use x="2054.6875" xlink:href="#DejaVuSans-101"/>
     <use x="2116.210938" xlink:href="#DejaVuSans-32"/>
     <use x="2147.998047" xlink:href="#DejaVuSans-102"/>
     <use x="2183.203125" xlink:href="#DejaVuSans-114"/>
     <use x="2222.066406" xlink:href="#DejaVuSans-111"/>
     <use x="2283.248047" xlink:href="#DejaVuSans-109"/>
     <use x="2380.660156" xlink:href="#DejaVuSans-32"/>
     <use x="2412.447266" xlink:href="#DejaVuSans-99"/>
     <use x="2467.427734" xlink:href="#DejaVuSans-111"/>
     <use x="2528.609375" xlink:href="#DejaVuSans-117"/>
     <use x="2591.988281" xlink:href="#DejaVuSans-110"/>
     <use x="2655.367188" xlink:href="#DejaVuSans-116"/>
     <use x="2694.576172" xlink:href="#DejaVuSans-114"/>
     <use x="2735.689453" xlink:href="#DejaVuSans-121"/>
     <use x="2794.869141" xlink:href="#DejaVuSans-32"/>
     <use x="2826.65625" xlink:href="#DejaVuSans-100"/>
     <use x="2890.132812" xlink:href="#DejaVuSans-97"/>
     <use x="2951.412109" xlink:href="#DejaVuSans-116"/>
     <use x="2990.621094" xlink:href="#DejaVuSans-97"/>
     <use x="3051.900391" xlink:href="#DejaVuSans-32"/>
     <use x="3083.6875" xlink:href="#DejaVuSans-99"/>
     <use x="3138.667969" xlink:href="#DejaVuSans-111"/>
     <use x="3199.849609" xlink:href="#DejaVuSans-114"/>
     <use x="3239.212891" xlink:href="#DejaVuSans-114"/>
     <use x="3278.076172" xlink:href="#DejaVuSans-101"/>
     <use x="3339.599609" xlink:href="#DejaVuSans-99"/>
     <use x="3394.580078" xlink:href="#DejaVuSans-116"/>
     <use x="3433.789062" xlink:href="#DejaVuSans-105"/>
     <use x="3461.572266" xlink:href="#DejaVuSans-111"/>
     <use x="3522.753906" xlink:href="#DejaVuSans-110"/>
     <use x="3586.132812" xlink:href="#DejaVuSans-115"/>
    </g>
   </g>
   <g id="text_24">
    <!-- Daily deaths - Since beginning -->
    <g style="fill:#252627;" transform="translate(190.6485 21.789)scale(0.192 -0.192)">
     <use xlink:href="#DejaVuSans-68"/>
     <use x="77.001953" xlink:href="#DejaVuSans-97"/>
     <use x="138.28125" xlink:href="#DejaVuSans-105"/>
     <use x="166.064453" xlink:href="#DejaVuSans-108"/>
     <use x="193.847656" xlink:href="#DejaVuSans-121"/>
     <use x="253.027344" xlink:href="#DejaVuSans-32"/>
     <use x="284.814453" xlink:href="#DejaVuSans-100"/>
     <use x="348.291016" xlink:href="#DejaVuSans-101"/>
     <use x="409.814453" xlink:href="#DejaVuSans-97"/>
     <use x="471.09375" xlink:href="#DejaVuSans-116"/>
     <use x="510.302734" xlink:href="#DejaVuSans-104"/>
     <use x="573.681641" xlink:href="#DejaVuSans-115"/>
     <use x="625.78125" xlink:href="#DejaVuSans-32"/>
     <use x="657.568359" xlink:href="#DejaVuSans-45"/>
     <use x="693.652344" xlink:href="#DejaVuSans-32"/>
     <use x="725.439453" xlink:href="#DejaVuSans-83"/>
     <use x="788.916016" xlink:href="#DejaVuSans-105"/>
     <use x="816.699219" xlink:href="#DejaVuSans-110"/>
     <use x="880.078125" xlink:href="#DejaVuSans-99"/>
     <use x="935.058594" xlink:href="#DejaVuSans-101"/>
     <use x="996.582031" xlink:href="#DejaVuSans-32"/>
     <use x="1028.369141" xlink:href="#DejaVuSans-98"/>
     <use x="1091.845703" xlink:href="#DejaVuSans-101"/>
     <use x="1153.369141" xlink:href="#DejaVuSans-103"/>
     <use x="1216.845703" xlink:href="#DejaVuSans-105"/>
     <use x="1244.628906" xlink:href="#DejaVuSans-110"/>
     <use x="1308.007812" xlink:href="#DejaVuSans-110"/>
     <use x="1371.386719" xlink:href="#DejaVuSans-105"/>
     <use x="1399.169922" xlink:href="#DejaVuSans-110"/>
     <use x="1462.548828" xlink:href="#DejaVuSans-103"/>
    </g>
    <!-- 7-day rolling average -->
    <g style="fill:#252627;" transform="translate(234.7275 43.2888)scale(0.192 -0.192)">
     <defs>
      <path d="M 8.203125 72.90625 
L 55.078125 72.90625 
L 55.078125 68.703125 
L 28.609375 0 
L 18.3125 0 
L 43.21875 64.59375 
L 8.203125 64.59375 
z
" id="DejaVuSans-55"/>
     </defs>
     <use xlink:href="#DejaVuSans-55"/>
     <use x="63.623047" xlink:href="#DejaVuSans-45"/>
     <use x="99.707031" xlink:href="#DejaVuSans-100"/>
     <use x="163.183594" xlink:href="#DejaVuSans-97"/>
     <use x="224.462891" xlink:href="#DejaVuSans-121"/>
     <use x="283.642578" xlink:href="#DejaVuSans-32"/>
     <use x="315.429688" xlink:href="#DejaVuSans-114"/>
     <use x="354.292969" xlink:href="#DejaVuSans-111"/>
     <use x="415.474609" xlink:href="#DejaVuSans-108"/>
     <use x="443.257812" xlink:href="#DejaVuSans-108"/>
     <use x="471.041016" xlink:href="#DejaVuSans-105"/>
     <use x="498.824219" xlink:href="#DejaVuSans-110"/>
     <use x="562.203125" xlink:href="#DejaVuSans-103"/>
     <use x="625.679688" xlink:href="#DejaVuSans-32"/>
     <use x="657.466797" xlink:href="#DejaVuSans-97"/>
     <use x="718.746094" xlink:href="#DejaVuSans-118"/>
     <use x="777.925781" xlink:href="#DejaVuSans-101"/>
     <use x="839.449219" xlink:href="#DejaVuSans-114"/>
     <use x="880.5625" xlink:href="#DejaVuSans-97"/>
     <use x="941.841797" xlink:href="#DejaVuSans-103"/>
     <use x="1005.318359" xlink:href="#DejaVuSans-101"/>
    </g>
   </g>
   <g id="legend_1">
    <g id="patch_7">
     <path d="M 69.3475 132.5438 
L 155.04 132.5438 
Q 158.24 132.5438 158.24 129.3438 
L 158.24 60.4888 
Q 158.24 57.2888 155.04 57.2888 
L 69.3475 57.2888 
Q 66.1475 57.2888 66.1475 60.4888 
L 66.1475 129.3438 
Q 66.1475 132.5438 69.3475 132.5438 
z
" style="fill:#ffffff;opacity:0.2;stroke:#cccccc;stroke-linejoin:miter;"/>
    </g>
    <g id="line2d_76">
     <path d="M 72.5475 70.2463 
L 104.5475 70.2463 
" style="fill:none;stroke:#bb0a21;stroke-linecap:square;stroke-width:2;"/>
    </g>
    <g id="line2d_77"/>
    <g id="text_25">
     <!-- ESP -->
     <g style="fill:#252627;" transform="translate(117.3475 75.8463)scale(0.16 -0.16)">
      <defs>
       <path d="M 9.8125 72.90625 
L 55.90625 72.90625 
L 55.90625 64.59375 
L 19.671875 64.59375 
L 19.671875 43.015625 
L 54.390625 43.015625 
L 54.390625 34.71875 
L 19.671875 34.71875 
L 19.671875 8.296875 
L 56.78125 8.296875 
L 56.78125 0 
L 9.8125 0 
z
" id="DejaVuSans-69"/>
       <path d="M 19.671875 64.796875 
L 19.671875 37.40625 
L 32.078125 37.40625 
Q 38.96875 37.40625 42.71875 40.96875 
Q 46.484375 44.53125 46.484375 51.125 
Q 46.484375 57.671875 42.71875 61.234375 
Q 38.96875 64.796875 32.078125 64.796875 
z
M 9.8125 72.90625 
L 32.078125 72.90625 
Q 44.34375 72.90625 50.609375 67.359375 
Q 56.890625 61.8125 56.890625 51.125 
Q 56.890625 40.328125 50.609375 34.8125 
Q 44.34375 29.296875 32.078125 29.296875 
L 19.671875 29.296875 
L 19.671875 0 
L 9.8125 0 
z
" id="DejaVuSans-80"/>
      </defs>
      <use xlink:href="#DejaVuSans-69"/>
      <use x="63.183594" xlink:href="#DejaVuSans-83"/>
      <use x="126.660156" xlink:href="#DejaVuSans-80"/>
     </g>
    </g>
    <g id="line2d_78">
     <path d="M 72.5475 93.7313 
L 104.5475 93.7313 
" style="fill:none;stroke:#4b88a2;stroke-linecap:square;stroke-width:2;"/>
    </g>
    <g id="line2d_79"/>
    <g id="text_26">
     <!-- GBR -->
     <g style="fill:#252627;" transform="translate(117.3475 99.3313)scale(0.16 -0.16)">
      <defs>
       <path d="M 59.515625 10.40625 
L 59.515625 29.984375 
L 43.40625 29.984375 
L 43.40625 38.09375 
L 69.28125 38.09375 
L 69.28125 6.78125 
Q 63.578125 2.734375 56.6875 0.65625 
Q 49.8125 -1.421875 42 -1.421875 
Q 24.90625 -1.421875 15.25 8.5625 
Q 5.609375 18.5625 5.609375 36.375 
Q 5.609375 54.25 15.25 64.234375 
Q 24.90625 74.21875 42 74.21875 
Q 49.125 74.21875 55.546875 72.453125 
Q 61.96875 70.703125 67.390625 67.28125 
L 67.390625 56.78125 
Q 61.921875 61.421875 55.765625 63.765625 
Q 49.609375 66.109375 42.828125 66.109375 
Q 29.4375 66.109375 22.71875 58.640625 
Q 16.015625 51.171875 16.015625 36.375 
Q 16.015625 21.625 22.71875 14.15625 
Q 29.4375 6.6875 42.828125 6.6875 
Q 48.046875 6.6875 52.140625 7.59375 
Q 56.25 8.5 59.515625 10.40625 
z
" id="DejaVuSans-71"/>
       <path d="M 19.671875 34.8125 
L 19.671875 8.109375 
L 35.5 8.109375 
Q 43.453125 8.109375 47.28125 11.40625 
Q 51.125 14.703125 51.125 21.484375 
Q 51.125 28.328125 47.28125 31.5625 
Q 43.453125 34.8125 35.5 34.8125 
z
M 19.671875 64.796875 
L 19.671875 42.828125 
L 34.28125 42.828125 
Q 41.5 42.828125 45.03125 45.53125 
Q 48.578125 48.25 48.578125 53.8125 
Q 48.578125 59.328125 45.03125 62.0625 
Q 41.5 64.796875 34.28125 64.796875 
z
M 9.8125 72.90625 
L 35.015625 72.90625 
Q 46.296875 72.90625 52.390625 68.21875 
Q 58.5 63.53125 58.5 54.890625 
Q 58.5 48.1875 55.375 44.234375 
Q 52.25 40.28125 46.1875 39.3125 
Q 53.46875 37.75 57.5 32.78125 
Q 61.53125 27.828125 61.53125 20.40625 
Q 61.53125 10.640625 54.890625 5.3125 
Q 48.25 0 35.984375 0 
L 9.8125 0 
z
" id="DejaVuSans-66"/>
       <path d="M 44.390625 34.1875 
Q 47.5625 33.109375 50.5625 29.59375 
Q 53.5625 26.078125 56.59375 19.921875 
L 66.609375 0 
L 56 0 
L 46.6875 18.703125 
Q 43.0625 26.03125 39.671875 28.421875 
Q 36.28125 30.8125 30.421875 30.8125 
L 19.671875 30.8125 
L 19.671875 0 
L 9.8125 0 
L 9.8125 72.90625 
L 32.078125 72.90625 
Q 44.578125 72.90625 50.734375 67.671875 
Q 56.890625 62.453125 56.890625 51.90625 
Q 56.890625 45.015625 53.6875 40.46875 
Q 50.484375 35.9375 44.390625 34.1875 
z
M 19.671875 64.796875 
L 19.671875 38.921875 
L 32.078125 38.921875 
Q 39.203125 38.921875 42.84375 42.21875 
Q 46.484375 45.515625 46.484375 51.90625 
Q 46.484375 58.296875 42.84375 61.546875 
Q 39.203125 64.796875 32.078125 64.796875 
z
" id="DejaVuSans-82"/>
      </defs>
      <use xlink:href="#DejaVuSans-71"/>
      <use x="77.490234" xlink:href="#DejaVuSans-66"/>
      <use x="146.09375" xlink:href="#DejaVuSans-82"/>
     </g>
    </g>
    <g id="line2d_80">
     <path d="M 72.5475 117.2163 
L 104.5475 117.2163 
" style="fill:none;stroke:#d3d4d9;stroke-linecap:square;stroke-width:2;"/>
    </g>
    <g id="line2d_81"/>
    <g id="text_27">
     <!-- PER -->
     <g style="fill:#252627;" transform="translate(117.3475 122.8163)scale(0.16 -0.16)">
      <use xlink:href="#DejaVuSans-80"/>
      <use x="60.302734" xlink:href="#DejaVuSans-69"/>
      <use x="123.486328" xlink:href="#DejaVuSans-82"/>
     </g>
    </g>
   </g>
  </g>
 </g>
 <defs>
  <clipPath id="paf14838fca">
   <rect height="388.08" width="558" x="58.1475" y="49.2888"/>
  </clipPath>
 </defs>
</svg>
