<?xml version="1.0" encoding="utf-8" standalone="no"?>
<!DOCTYPE svg PUBLIC "-//W3C//DTD SVG 1.1//EN"
  "http://www.w3.org/Graphics/SVG/1.1/DTD/svg11.dtd">
<!-- Created with matplotlib (https://matplotlib.org/) -->
<svg height="512.168487pt" version="1.1" viewBox="0 0 630.3 512.168487" width="630.3pt" xmlns="http://www.w3.org/2000/svg" xmlns:xlink="http://www.w3.org/1999/xlink">
 <metadata>
  <rdf:RDF xmlns:cc="http://creativecommons.org/ns#" xmlns:dc="http://purl.org/dc/elements/1.1/" xmlns:rdf="http://www.w3.org/1999/02/22-rdf-syntax-ns#">
   <cc:Work>
    <dc:type rdf:resource="http://purl.org/dc/dcmitype/StillImage"/>
    <dc:date>2020-11-28T09:00:14.901477</dc:date>
    <dc:format>image/svg+xml</dc:format>
    <dc:creator>
     <cc:Agent>
      <dc:title>Matplotlib v3.3.1, https://matplotlib.org/</dc:title>
     </cc:Agent>
    </dc:creator>
   </cc:Work>
  </rdf:RDF>
 </metadata>
 <defs>
  <style type="text/css">*{stroke-linecap:butt;stroke-linejoin:round;}</style>
 </defs>
 <g id="figure_1">
  <g id="patch_1">
   <path d="M 0 512.168487 
L 630.3 512.168487 
L 630.3 0 
L 0 0 
z
" style="fill:none;"/>
  </g>
  <g id="axes_1">
   <g id="patch_2">
    <path d="M 65.1 437.3688 
L 623.1 437.3688 
L 623.1 49.2888 
L 65.1 49.2888 
z
" style="fill:none;"/>
   </g>
   <g id="matplotlib.axis_1">
    <g id="xtick_1">
     <g id="line2d_1">
      <defs>
       <path d="M 0 0 
L 0 3.5 
" id="mfb6e572a74" style="stroke:#252627;stroke-width:0.8;"/>
      </defs>
      <g>
       <use style="fill:#252627;stroke:#252627;stroke-width:0.8;" x="65.1" xlink:href="#mfb6e572a74" y="437.3688"/>
      </g>
     </g>
    </g>
    <g id="xtick_2">
     <g id="line2d_2">
      <g>
       <use style="fill:#252627;stroke:#252627;stroke-width:0.8;" x="66.780723" xlink:href="#mfb6e572a74" y="437.3688"/>
      </g>
     </g>
     <g id="text_1">
      <!-- Jan -->
      <g style="fill:#252627;" transform="translate(54.448223 456.5263)scale(0.16 -0.16)">
       <defs>
        <path d="M 9.8125 72.90625 
L 19.671875 72.90625 
L 19.671875 5.078125 
Q 19.671875 -8.109375 14.671875 -14.0625 
Q 9.671875 -20.015625 -1.421875 -20.015625 
L -5.171875 -20.015625 
L -5.171875 -11.71875 
L -2.09375 -11.71875 
Q 4.4375 -11.71875 7.125 -8.046875 
Q 9.8125 -4.390625 9.8125 5.078125 
z
" id="DejaVuSans-74"/>
        <path d="M 34.28125 27.484375 
Q 23.390625 27.484375 19.1875 25 
Q 14.984375 22.515625 14.984375 16.5 
Q 14.984375 11.71875 18.140625 8.90625 
Q 21.296875 6.109375 26.703125 6.109375 
Q 34.1875 6.109375 38.703125 11.40625 
Q 43.21875 16.703125 43.21875 25.484375 
L 43.21875 27.484375 
z
M 52.203125 31.203125 
L 52.203125 0 
L 43.21875 0 
L 43.21875 8.296875 
Q 40.140625 3.328125 35.546875 0.953125 
Q 30.953125 -1.421875 24.3125 -1.421875 
Q 15.921875 -1.421875 10.953125 3.296875 
Q 6 8.015625 6 15.921875 
Q 6 25.140625 12.171875 29.828125 
Q 18.359375 34.515625 30.609375 34.515625 
L 43.21875 34.515625 
L 43.21875 35.40625 
Q 43.21875 41.609375 39.140625 45 
Q 35.0625 48.390625 27.6875 48.390625 
Q 23 48.390625 18.546875 47.265625 
Q 14.109375 46.140625 10.015625 43.890625 
L 10.015625 52.203125 
Q 14.9375 54.109375 19.578125 55.046875 
Q 24.21875 56 28.609375 56 
Q 40.484375 56 46.34375 49.84375 
Q 52.203125 43.703125 52.203125 31.203125 
z
" id="DejaVuSans-97"/>
        <path d="M 54.890625 33.015625 
L 54.890625 0 
L 45.90625 0 
L 45.90625 32.71875 
Q 45.90625 40.484375 42.875 44.328125 
Q 39.84375 48.1875 33.796875 48.1875 
Q 26.515625 48.1875 22.3125 43.546875 
Q 18.109375 38.921875 18.109375 30.90625 
L 18.109375 0 
L 9.078125 0 
L 9.078125 54.6875 
L 18.109375 54.6875 
L 18.109375 46.1875 
Q 21.34375 51.125 25.703125 53.5625 
Q 30.078125 56 35.796875 56 
Q 45.21875 56 50.046875 50.171875 
Q 54.890625 44.34375 54.890625 33.015625 
z
" id="DejaVuSans-110"/>
       </defs>
       <use xlink:href="#DejaVuSans-74"/>
       <use x="29.492188" xlink:href="#DejaVuSans-97"/>
       <use x="90.771484" xlink:href="#DejaVuSans-110"/>
      </g>
      <!-- 2020 -->
      <g style="fill:#252627;" transform="translate(46.420723 474.4428)scale(0.16 -0.16)">
       <defs>
        <path d="M 19.1875 8.296875 
L 53.609375 8.296875 
L 53.609375 0 
L 7.328125 0 
L 7.328125 8.296875 
Q 12.9375 14.109375 22.625 23.890625 
Q 32.328125 33.6875 34.8125 36.53125 
Q 39.546875 41.84375 41.421875 45.53125 
Q 43.3125 49.21875 43.3125 52.78125 
Q 43.3125 58.59375 39.234375 62.25 
Q 35.15625 65.921875 28.609375 65.921875 
Q 23.96875 65.921875 18.8125 64.3125 
Q 13.671875 62.703125 7.8125 59.421875 
L 7.8125 69.390625 
Q 13.765625 71.78125 18.9375 73 
Q 24.125 74.21875 28.421875 74.21875 
Q 39.75 74.21875 46.484375 68.546875 
Q 53.21875 62.890625 53.21875 53.421875 
Q 53.21875 48.921875 51.53125 44.890625 
Q 49.859375 40.875 45.40625 35.40625 
Q 44.1875 33.984375 37.640625 27.21875 
Q 31.109375 20.453125 19.1875 8.296875 
z
" id="DejaVuSans-50"/>
        <path d="M 31.78125 66.40625 
Q 24.171875 66.40625 20.328125 58.90625 
Q 16.5 51.421875 16.5 36.375 
Q 16.5 21.390625 20.328125 13.890625 
Q 24.171875 6.390625 31.78125 6.390625 
Q 39.453125 6.390625 43.28125 13.890625 
Q 47.125 21.390625 47.125 36.375 
Q 47.125 51.421875 43.28125 58.90625 
Q 39.453125 66.40625 31.78125 66.40625 
z
M 31.78125 74.21875 
Q 44.046875 74.21875 50.515625 64.515625 
Q 56.984375 54.828125 56.984375 36.375 
Q 56.984375 17.96875 50.515625 8.265625 
Q 44.046875 -1.421875 31.78125 -1.421875 
Q 19.53125 -1.421875 13.0625 8.265625 
Q 6.59375 17.96875 6.59375 36.375 
Q 6.59375 54.828125 13.0625 64.515625 
Q 19.53125 74.21875 31.78125 74.21875 
z
" id="DejaVuSans-48"/>
       </defs>
       <use xlink:href="#DejaVuSans-50"/>
       <use x="63.623047" xlink:href="#DejaVuSans-48"/>
       <use x="127.246094" xlink:href="#DejaVuSans-50"/>
       <use x="190.869141" xlink:href="#DejaVuSans-48"/>
      </g>
     </g>
    </g>
    <g id="xtick_3">
     <g id="line2d_3">
      <g>
       <use style="fill:#252627;stroke:#252627;stroke-width:0.8;" x="118.883133" xlink:href="#mfb6e572a74" y="437.3688"/>
      </g>
     </g>
     <g id="text_2">
      <!-- Feb -->
      <g style="fill:#252627;" transform="translate(104.720633 456.5263)scale(0.16 -0.16)">
       <defs>
        <path d="M 9.8125 72.90625 
L 51.703125 72.90625 
L 51.703125 64.59375 
L 19.671875 64.59375 
L 19.671875 43.109375 
L 48.578125 43.109375 
L 48.578125 34.8125 
L 19.671875 34.8125 
L 19.671875 0 
L 9.8125 0 
z
" id="DejaVuSans-70"/>
        <path d="M 56.203125 29.59375 
L 56.203125 25.203125 
L 14.890625 25.203125 
Q 15.484375 15.921875 20.484375 11.0625 
Q 25.484375 6.203125 34.421875 6.203125 
Q 39.59375 6.203125 44.453125 7.46875 
Q 49.3125 8.734375 54.109375 11.28125 
L 54.109375 2.78125 
Q 49.265625 0.734375 44.1875 -0.34375 
Q 39.109375 -1.421875 33.890625 -1.421875 
Q 20.796875 -1.421875 13.15625 6.1875 
Q 5.515625 13.8125 5.515625 26.8125 
Q 5.515625 40.234375 12.765625 48.109375 
Q 20.015625 56 32.328125 56 
Q 43.359375 56 49.78125 48.890625 
Q 56.203125 41.796875 56.203125 29.59375 
z
M 47.21875 32.234375 
Q 47.125 39.59375 43.09375 43.984375 
Q 39.0625 48.390625 32.421875 48.390625 
Q 24.90625 48.390625 20.390625 44.140625 
Q 15.875 39.890625 15.1875 32.171875 
z
" id="DejaVuSans-101"/>
        <path d="M 48.6875 27.296875 
Q 48.6875 37.203125 44.609375 42.84375 
Q 40.53125 48.484375 33.40625 48.484375 
Q 26.265625 48.484375 22.1875 42.84375 
Q 18.109375 37.203125 18.109375 27.296875 
Q 18.109375 17.390625 22.1875 11.75 
Q 26.265625 6.109375 33.40625 6.109375 
Q 40.53125 6.109375 44.609375 11.75 
Q 48.6875 17.390625 48.6875 27.296875 
z
M 18.109375 46.390625 
Q 20.953125 51.265625 25.265625 53.625 
Q 29.59375 56 35.59375 56 
Q 45.5625 56 51.78125 48.09375 
Q 58.015625 40.1875 58.015625 27.296875 
Q 58.015625 14.40625 51.78125 6.484375 
Q 45.5625 -1.421875 35.59375 -1.421875 
Q 29.59375 -1.421875 25.265625 0.953125 
Q 20.953125 3.328125 18.109375 8.203125 
L 18.109375 0 
L 9.078125 0 
L 9.078125 75.984375 
L 18.109375 75.984375 
z
" id="DejaVuSans-98"/>
       </defs>
       <use xlink:href="#DejaVuSans-70"/>
       <use x="52.019531" xlink:href="#DejaVuSans-101"/>
       <use x="113.542969" xlink:href="#DejaVuSans-98"/>
      </g>
     </g>
    </g>
    <g id="xtick_4">
     <g id="line2d_4">
      <g>
       <use style="fill:#252627;stroke:#252627;stroke-width:0.8;" x="167.624096" xlink:href="#mfb6e572a74" y="437.3688"/>
      </g>
     </g>
     <g id="text_3">
      <!-- Mar -->
      <g style="fill:#252627;" transform="translate(152.530346 456.5263)scale(0.16 -0.16)">
       <defs>
        <path d="M 9.8125 72.90625 
L 24.515625 72.90625 
L 43.109375 23.296875 
L 61.8125 72.90625 
L 76.515625 72.90625 
L 76.515625 0 
L 66.890625 0 
L 66.890625 64.015625 
L 48.09375 14.015625 
L 38.1875 14.015625 
L 19.390625 64.015625 
L 19.390625 0 
L 9.8125 0 
z
" id="DejaVuSans-77"/>
        <path d="M 41.109375 46.296875 
Q 39.59375 47.171875 37.8125 47.578125 
Q 36.03125 48 33.890625 48 
Q 26.265625 48 22.1875 43.046875 
Q 18.109375 38.09375 18.109375 28.8125 
L 18.109375 0 
L 9.078125 0 
L 9.078125 54.6875 
L 18.109375 54.6875 
L 18.109375 46.1875 
Q 20.953125 51.171875 25.484375 53.578125 
Q 30.03125 56 36.53125 56 
Q 37.453125 56 38.578125 55.875 
Q 39.703125 55.765625 41.0625 55.515625 
z
" id="DejaVuSans-114"/>
       </defs>
       <use xlink:href="#DejaVuSans-77"/>
       <use x="86.279297" xlink:href="#DejaVuSans-97"/>
       <use x="147.558594" xlink:href="#DejaVuSans-114"/>
      </g>
     </g>
    </g>
    <g id="xtick_5">
     <g id="line2d_5">
      <g>
       <use style="fill:#252627;stroke:#252627;stroke-width:0.8;" x="219.726506" xlink:href="#mfb6e572a74" y="437.3688"/>
      </g>
     </g>
     <g id="text_4">
      <!-- Apr -->
      <g style="fill:#252627;" transform="translate(205.886506 456.5263)scale(0.16 -0.16)">
       <defs>
        <path d="M 34.1875 63.1875 
L 20.796875 26.90625 
L 47.609375 26.90625 
z
M 28.609375 72.90625 
L 39.796875 72.90625 
L 67.578125 0 
L 57.328125 0 
L 50.6875 18.703125 
L 17.828125 18.703125 
L 11.1875 0 
L 0.78125 0 
z
" id="DejaVuSans-65"/>
        <path d="M 18.109375 8.203125 
L 18.109375 -20.796875 
L 9.078125 -20.796875 
L 9.078125 54.6875 
L 18.109375 54.6875 
L 18.109375 46.390625 
Q 20.953125 51.265625 25.265625 53.625 
Q 29.59375 56 35.59375 56 
Q 45.5625 56 51.78125 48.09375 
Q 58.015625 40.1875 58.015625 27.296875 
Q 58.015625 14.40625 51.78125 6.484375 
Q 45.5625 -1.421875 35.59375 -1.421875 
Q 29.59375 -1.421875 25.265625 0.953125 
Q 20.953125 3.328125 18.109375 8.203125 
z
M 48.6875 27.296875 
Q 48.6875 37.203125 44.609375 42.84375 
Q 40.53125 48.484375 33.40625 48.484375 
Q 26.265625 48.484375 22.1875 42.84375 
Q 18.109375 37.203125 18.109375 27.296875 
Q 18.109375 17.390625 22.1875 11.75 
Q 26.265625 6.109375 33.40625 6.109375 
Q 40.53125 6.109375 44.609375 11.75 
Q 48.6875 17.390625 48.6875 27.296875 
z
" id="DejaVuSans-112"/>
       </defs>
       <use xlink:href="#DejaVuSans-65"/>
       <use x="68.408203" xlink:href="#DejaVuSans-112"/>
       <use x="131.884766" xlink:href="#DejaVuSans-114"/>
      </g>
     </g>
    </g>
    <g id="xtick_6">
     <g id="line2d_6">
      <g>
       <use style="fill:#252627;stroke:#252627;stroke-width:0.8;" x="270.148193" xlink:href="#mfb6e572a74" y="437.3688"/>
      </g>
     </g>
     <g id="text_5">
      <!-- May -->
      <g style="fill:#252627;" transform="translate(253.608193 456.5263)scale(0.16 -0.16)">
       <defs>
        <path d="M 32.171875 -5.078125 
Q 28.375 -14.84375 24.75 -17.8125 
Q 21.140625 -20.796875 15.09375 -20.796875 
L 7.90625 -20.796875 
L 7.90625 -13.28125 
L 13.1875 -13.28125 
Q 16.890625 -13.28125 18.9375 -11.515625 
Q 21 -9.765625 23.484375 -3.21875 
L 25.09375 0.875 
L 2.984375 54.6875 
L 12.5 54.6875 
L 29.59375 11.921875 
L 46.6875 54.6875 
L 56.203125 54.6875 
z
" id="DejaVuSans-121"/>
       </defs>
       <use xlink:href="#DejaVuSans-77"/>
       <use x="86.279297" xlink:href="#DejaVuSans-97"/>
       <use x="147.558594" xlink:href="#DejaVuSans-121"/>
      </g>
     </g>
    </g>
    <g id="xtick_7">
     <g id="line2d_7">
      <g>
       <use style="fill:#252627;stroke:#252627;stroke-width:0.8;" x="322.250602" xlink:href="#mfb6e572a74" y="437.3688"/>
      </g>
     </g>
     <g id="text_6">
      <!-- Jun -->
      <g style="fill:#252627;" transform="translate(309.750602 456.5263)scale(0.16 -0.16)">
       <defs>
        <path d="M 8.5 21.578125 
L 8.5 54.6875 
L 17.484375 54.6875 
L 17.484375 21.921875 
Q 17.484375 14.15625 20.5 10.265625 
Q 23.53125 6.390625 29.59375 6.390625 
Q 36.859375 6.390625 41.078125 11.03125 
Q 45.3125 15.671875 45.3125 23.6875 
L 45.3125 54.6875 
L 54.296875 54.6875 
L 54.296875 0 
L 45.3125 0 
L 45.3125 8.40625 
Q 42.046875 3.421875 37.71875 1 
Q 33.40625 -1.421875 27.6875 -1.421875 
Q 18.265625 -1.421875 13.375 4.4375 
Q 8.5 10.296875 8.5 21.578125 
z
M 31.109375 56 
z
" id="DejaVuSans-117"/>
       </defs>
       <use xlink:href="#DejaVuSans-74"/>
       <use x="29.492188" xlink:href="#DejaVuSans-117"/>
       <use x="92.871094" xlink:href="#DejaVuSans-110"/>
      </g>
     </g>
    </g>
    <g id="xtick_8">
     <g id="line2d_8">
      <g>
       <use style="fill:#252627;stroke:#252627;stroke-width:0.8;" x="372.672289" xlink:href="#mfb6e572a74" y="437.3688"/>
      </g>
     </g>
     <g id="text_7">
      <!-- Jul -->
      <g style="fill:#252627;" transform="translate(363.019789 456.5263)scale(0.16 -0.16)">
       <defs>
        <path d="M 9.421875 75.984375 
L 18.40625 75.984375 
L 18.40625 0 
L 9.421875 0 
z
" id="DejaVuSans-108"/>
       </defs>
       <use xlink:href="#DejaVuSans-74"/>
       <use x="29.492188" xlink:href="#DejaVuSans-117"/>
       <use x="92.871094" xlink:href="#DejaVuSans-108"/>
      </g>
     </g>
    </g>
    <g id="xtick_9">
     <g id="line2d_9">
      <g>
       <use style="fill:#252627;stroke:#252627;stroke-width:0.8;" x="424.774699" xlink:href="#mfb6e572a74" y="437.3688"/>
      </g>
     </g>
     <g id="text_8">
      <!-- Aug -->
      <g style="fill:#252627;" transform="translate(409.153449 456.5263)scale(0.16 -0.16)">
       <defs>
        <path d="M 45.40625 27.984375 
Q 45.40625 37.75 41.375 43.109375 
Q 37.359375 48.484375 30.078125 48.484375 
Q 22.859375 48.484375 18.828125 43.109375 
Q 14.796875 37.75 14.796875 27.984375 
Q 14.796875 18.265625 18.828125 12.890625 
Q 22.859375 7.515625 30.078125 7.515625 
Q 37.359375 7.515625 41.375 12.890625 
Q 45.40625 18.265625 45.40625 27.984375 
z
M 54.390625 6.78125 
Q 54.390625 -7.171875 48.1875 -13.984375 
Q 42 -20.796875 29.203125 -20.796875 
Q 24.46875 -20.796875 20.265625 -20.09375 
Q 16.0625 -19.390625 12.109375 -17.921875 
L 12.109375 -9.1875 
Q 16.0625 -11.328125 19.921875 -12.34375 
Q 23.78125 -13.375 27.78125 -13.375 
Q 36.625 -13.375 41.015625 -8.765625 
Q 45.40625 -4.15625 45.40625 5.171875 
L 45.40625 9.625 
Q 42.625 4.78125 38.28125 2.390625 
Q 33.9375 0 27.875 0 
Q 17.828125 0 11.671875 7.65625 
Q 5.515625 15.328125 5.515625 27.984375 
Q 5.515625 40.671875 11.671875 48.328125 
Q 17.828125 56 27.875 56 
Q 33.9375 56 38.28125 53.609375 
Q 42.625 51.21875 45.40625 46.390625 
L 45.40625 54.6875 
L 54.390625 54.6875 
z
" id="DejaVuSans-103"/>
       </defs>
       <use xlink:href="#DejaVuSans-65"/>
       <use x="68.408203" xlink:href="#DejaVuSans-117"/>
       <use x="131.787109" xlink:href="#DejaVuSans-103"/>
      </g>
     </g>
    </g>
    <g id="xtick_10">
     <g id="line2d_10">
      <g>
       <use style="fill:#252627;stroke:#252627;stroke-width:0.8;" x="476.877108" xlink:href="#mfb6e572a74" y="437.3688"/>
      </g>
     </g>
     <g id="text_9">
      <!-- Sep -->
      <g style="fill:#252627;" transform="translate(461.797108 456.5263)scale(0.16 -0.16)">
       <defs>
        <path d="M 53.515625 70.515625 
L 53.515625 60.890625 
Q 47.90625 63.578125 42.921875 64.890625 
Q 37.9375 66.21875 33.296875 66.21875 
Q 25.25 66.21875 20.875 63.09375 
Q 16.5 59.96875 16.5 54.203125 
Q 16.5 49.359375 19.40625 46.890625 
Q 22.3125 44.4375 30.421875 42.921875 
L 36.375 41.703125 
Q 47.40625 39.59375 52.65625 34.296875 
Q 57.90625 29 57.90625 20.125 
Q 57.90625 9.515625 50.796875 4.046875 
Q 43.703125 -1.421875 29.984375 -1.421875 
Q 24.8125 -1.421875 18.96875 -0.25 
Q 13.140625 0.921875 6.890625 3.21875 
L 6.890625 13.375 
Q 12.890625 10.015625 18.65625 8.296875 
Q 24.421875 6.59375 29.984375 6.59375 
Q 38.421875 6.59375 43.015625 9.90625 
Q 47.609375 13.234375 47.609375 19.390625 
Q 47.609375 24.75 44.3125 27.78125 
Q 41.015625 30.8125 33.5 32.328125 
L 27.484375 33.5 
Q 16.453125 35.6875 11.515625 40.375 
Q 6.59375 45.0625 6.59375 53.421875 
Q 6.59375 63.09375 13.40625 68.65625 
Q 20.21875 74.21875 32.171875 74.21875 
Q 37.3125 74.21875 42.625 73.28125 
Q 47.953125 72.359375 53.515625 70.515625 
z
" id="DejaVuSans-83"/>
       </defs>
       <use xlink:href="#DejaVuSans-83"/>
       <use x="63.476562" xlink:href="#DejaVuSans-101"/>
       <use x="125" xlink:href="#DejaVuSans-112"/>
      </g>
     </g>
    </g>
    <g id="xtick_11">
     <g id="line2d_11">
      <g>
       <use style="fill:#252627;stroke:#252627;stroke-width:0.8;" x="527.298795" xlink:href="#mfb6e572a74" y="437.3688"/>
      </g>
     </g>
     <g id="text_10">
      <!-- Oct -->
      <g style="fill:#252627;" transform="translate(513.466295 456.5263)scale(0.16 -0.16)">
       <defs>
        <path d="M 39.40625 66.21875 
Q 28.65625 66.21875 22.328125 58.203125 
Q 16.015625 50.203125 16.015625 36.375 
Q 16.015625 22.609375 22.328125 14.59375 
Q 28.65625 6.59375 39.40625 6.59375 
Q 50.140625 6.59375 56.421875 14.59375 
Q 62.703125 22.609375 62.703125 36.375 
Q 62.703125 50.203125 56.421875 58.203125 
Q 50.140625 66.21875 39.40625 66.21875 
z
M 39.40625 74.21875 
Q 54.734375 74.21875 63.90625 63.9375 
Q 73.09375 53.65625 73.09375 36.375 
Q 73.09375 19.140625 63.90625 8.859375 
Q 54.734375 -1.421875 39.40625 -1.421875 
Q 24.03125 -1.421875 14.8125 8.828125 
Q 5.609375 19.09375 5.609375 36.375 
Q 5.609375 53.65625 14.8125 63.9375 
Q 24.03125 74.21875 39.40625 74.21875 
z
" id="DejaVuSans-79"/>
        <path d="M 48.78125 52.59375 
L 48.78125 44.1875 
Q 44.96875 46.296875 41.140625 47.34375 
Q 37.3125 48.390625 33.40625 48.390625 
Q 24.65625 48.390625 19.8125 42.84375 
Q 14.984375 37.3125 14.984375 27.296875 
Q 14.984375 17.28125 19.8125 11.734375 
Q 24.65625 6.203125 33.40625 6.203125 
Q 37.3125 6.203125 41.140625 7.25 
Q 44.96875 8.296875 48.78125 10.40625 
L 48.78125 2.09375 
Q 45.015625 0.34375 40.984375 -0.53125 
Q 36.96875 -1.421875 32.421875 -1.421875 
Q 20.0625 -1.421875 12.78125 6.34375 
Q 5.515625 14.109375 5.515625 27.296875 
Q 5.515625 40.671875 12.859375 48.328125 
Q 20.21875 56 33.015625 56 
Q 37.15625 56 41.109375 55.140625 
Q 45.0625 54.296875 48.78125 52.59375 
z
" id="DejaVuSans-99"/>
        <path d="M 18.3125 70.21875 
L 18.3125 54.6875 
L 36.8125 54.6875 
L 36.8125 47.703125 
L 18.3125 47.703125 
L 18.3125 18.015625 
Q 18.3125 11.328125 20.140625 9.421875 
Q 21.96875 7.515625 27.59375 7.515625 
L 36.8125 7.515625 
L 36.8125 0 
L 27.59375 0 
Q 17.1875 0 13.234375 3.875 
Q 9.28125 7.765625 9.28125 18.015625 
L 9.28125 47.703125 
L 2.6875 47.703125 
L 2.6875 54.6875 
L 9.28125 54.6875 
L 9.28125 70.21875 
z
" id="DejaVuSans-116"/>
       </defs>
       <use xlink:href="#DejaVuSans-79"/>
       <use x="78.710938" xlink:href="#DejaVuSans-99"/>
       <use x="133.691406" xlink:href="#DejaVuSans-116"/>
      </g>
     </g>
    </g>
    <g id="xtick_12">
     <g id="line2d_12">
      <g>
       <use style="fill:#252627;stroke:#252627;stroke-width:0.8;" x="579.401205" xlink:href="#mfb6e572a74" y="437.3688"/>
      </g>
     </g>
     <g id="text_11">
      <!-- Nov -->
      <g style="fill:#252627;" transform="translate(563.786205 456.5263)scale(0.16 -0.16)">
       <defs>
        <path d="M 9.8125 72.90625 
L 23.09375 72.90625 
L 55.421875 11.921875 
L 55.421875 72.90625 
L 64.984375 72.90625 
L 64.984375 0 
L 51.703125 0 
L 19.390625 60.984375 
L 19.390625 0 
L 9.8125 0 
z
" id="DejaVuSans-78"/>
        <path d="M 30.609375 48.390625 
Q 23.390625 48.390625 19.1875 42.75 
Q 14.984375 37.109375 14.984375 27.296875 
Q 14.984375 17.484375 19.15625 11.84375 
Q 23.34375 6.203125 30.609375 6.203125 
Q 37.796875 6.203125 41.984375 11.859375 
Q 46.1875 17.53125 46.1875 27.296875 
Q 46.1875 37.015625 41.984375 42.703125 
Q 37.796875 48.390625 30.609375 48.390625 
z
M 30.609375 56 
Q 42.328125 56 49.015625 48.375 
Q 55.71875 40.765625 55.71875 27.296875 
Q 55.71875 13.875 49.015625 6.21875 
Q 42.328125 -1.421875 30.609375 -1.421875 
Q 18.84375 -1.421875 12.171875 6.21875 
Q 5.515625 13.875 5.515625 27.296875 
Q 5.515625 40.765625 12.171875 48.375 
Q 18.84375 56 30.609375 56 
z
" id="DejaVuSans-111"/>
        <path d="M 2.984375 54.6875 
L 12.5 54.6875 
L 29.59375 8.796875 
L 46.6875 54.6875 
L 56.203125 54.6875 
L 35.6875 0 
L 23.484375 0 
z
" id="DejaVuSans-118"/>
       </defs>
       <use xlink:href="#DejaVuSans-78"/>
       <use x="74.804688" xlink:href="#DejaVuSans-111"/>
       <use x="135.986328" xlink:href="#DejaVuSans-118"/>
      </g>
     </g>
    </g>
    <g id="xtick_13">
     <g id="line2d_13">
      <g>
       <use style="fill:#252627;stroke:#252627;stroke-width:0.8;" x="623.1" xlink:href="#mfb6e572a74" y="437.3688"/>
      </g>
     </g>
    </g>
    <g id="xtick_14">
     <g id="line2d_14">
      <defs>
       <path d="M 0 0 
L 0 2 
" id="m36b69b5a4f" style="stroke:#252627;stroke-width:0.6;"/>
      </defs>
      <g>
       <use style="fill:#252627;stroke:#252627;stroke-width:0.6;" x="75.184337" xlink:href="#m36b69b5a4f" y="437.3688"/>
      </g>
     </g>
    </g>
    <g id="xtick_15">
     <g id="line2d_15">
      <g>
       <use style="fill:#252627;stroke:#252627;stroke-width:0.6;" x="86.949398" xlink:href="#m36b69b5a4f" y="437.3688"/>
      </g>
     </g>
    </g>
    <g id="xtick_16">
     <g id="line2d_16">
      <g>
       <use style="fill:#252627;stroke:#252627;stroke-width:0.6;" x="98.714458" xlink:href="#m36b69b5a4f" y="437.3688"/>
      </g>
     </g>
    </g>
    <g id="xtick_17">
     <g id="line2d_17">
      <g>
       <use style="fill:#252627;stroke:#252627;stroke-width:0.6;" x="110.479518" xlink:href="#m36b69b5a4f" y="437.3688"/>
      </g>
     </g>
    </g>
    <g id="xtick_18">
     <g id="line2d_18">
      <g>
       <use style="fill:#252627;stroke:#252627;stroke-width:0.6;" x="122.244578" xlink:href="#m36b69b5a4f" y="437.3688"/>
      </g>
     </g>
    </g>
    <g id="xtick_19">
     <g id="line2d_19">
      <g>
       <use style="fill:#252627;stroke:#252627;stroke-width:0.6;" x="134.009639" xlink:href="#m36b69b5a4f" y="437.3688"/>
      </g>
     </g>
    </g>
    <g id="xtick_20">
     <g id="line2d_20">
      <g>
       <use style="fill:#252627;stroke:#252627;stroke-width:0.6;" x="145.774699" xlink:href="#m36b69b5a4f" y="437.3688"/>
      </g>
     </g>
    </g>
    <g id="xtick_21">
     <g id="line2d_21">
      <g>
       <use style="fill:#252627;stroke:#252627;stroke-width:0.6;" x="157.539759" xlink:href="#m36b69b5a4f" y="437.3688"/>
      </g>
     </g>
    </g>
    <g id="xtick_22">
     <g id="line2d_22">
      <g>
       <use style="fill:#252627;stroke:#252627;stroke-width:0.6;" x="169.304819" xlink:href="#m36b69b5a4f" y="437.3688"/>
      </g>
     </g>
    </g>
    <g id="xtick_23">
     <g id="line2d_23">
      <g>
       <use style="fill:#252627;stroke:#252627;stroke-width:0.6;" x="181.06988" xlink:href="#m36b69b5a4f" y="437.3688"/>
      </g>
     </g>
    </g>
    <g id="xtick_24">
     <g id="line2d_24">
      <g>
       <use style="fill:#252627;stroke:#252627;stroke-width:0.6;" x="192.83494" xlink:href="#m36b69b5a4f" y="437.3688"/>
      </g>
     </g>
    </g>
    <g id="xtick_25">
     <g id="line2d_25">
      <g>
       <use style="fill:#252627;stroke:#252627;stroke-width:0.6;" x="204.6" xlink:href="#m36b69b5a4f" y="437.3688"/>
      </g>
     </g>
    </g>
    <g id="xtick_26">
     <g id="line2d_26">
      <g>
       <use style="fill:#252627;stroke:#252627;stroke-width:0.6;" x="216.36506" xlink:href="#m36b69b5a4f" y="437.3688"/>
      </g>
     </g>
    </g>
    <g id="xtick_27">
     <g id="line2d_27">
      <g>
       <use style="fill:#252627;stroke:#252627;stroke-width:0.6;" x="228.13012" xlink:href="#m36b69b5a4f" y="437.3688"/>
      </g>
     </g>
    </g>
    <g id="xtick_28">
     <g id="line2d_28">
      <g>
       <use style="fill:#252627;stroke:#252627;stroke-width:0.6;" x="239.895181" xlink:href="#m36b69b5a4f" y="437.3688"/>
      </g>
     </g>
    </g>
    <g id="xtick_29">
     <g id="line2d_29">
      <g>
       <use style="fill:#252627;stroke:#252627;stroke-width:0.6;" x="251.660241" xlink:href="#m36b69b5a4f" y="437.3688"/>
      </g>
     </g>
    </g>
    <g id="xtick_30">
     <g id="line2d_30">
      <g>
       <use style="fill:#252627;stroke:#252627;stroke-width:0.6;" x="263.425301" xlink:href="#m36b69b5a4f" y="437.3688"/>
      </g>
     </g>
    </g>
    <g id="xtick_31">
     <g id="line2d_31">
      <g>
       <use style="fill:#252627;stroke:#252627;stroke-width:0.6;" x="275.190361" xlink:href="#m36b69b5a4f" y="437.3688"/>
      </g>
     </g>
    </g>
    <g id="xtick_32">
     <g id="line2d_32">
      <g>
       <use style="fill:#252627;stroke:#252627;stroke-width:0.6;" x="286.955422" xlink:href="#m36b69b5a4f" y="437.3688"/>
      </g>
     </g>
    </g>
    <g id="xtick_33">
     <g id="line2d_33">
      <g>
       <use style="fill:#252627;stroke:#252627;stroke-width:0.6;" x="298.720482" xlink:href="#m36b69b5a4f" y="437.3688"/>
      </g>
     </g>
    </g>
    <g id="xtick_34">
     <g id="line2d_34">
      <g>
       <use style="fill:#252627;stroke:#252627;stroke-width:0.6;" x="310.485542" xlink:href="#m36b69b5a4f" y="437.3688"/>
      </g>
     </g>
    </g>
    <g id="xtick_35">
     <g id="line2d_35">
      <g>
       <use style="fill:#252627;stroke:#252627;stroke-width:0.6;" x="334.015663" xlink:href="#m36b69b5a4f" y="437.3688"/>
      </g>
     </g>
    </g>
    <g id="xtick_36">
     <g id="line2d_36">
      <g>
       <use style="fill:#252627;stroke:#252627;stroke-width:0.6;" x="345.780723" xlink:href="#m36b69b5a4f" y="437.3688"/>
      </g>
     </g>
    </g>
    <g id="xtick_37">
     <g id="line2d_37">
      <g>
       <use style="fill:#252627;stroke:#252627;stroke-width:0.6;" x="357.545783" xlink:href="#m36b69b5a4f" y="437.3688"/>
      </g>
     </g>
    </g>
    <g id="xtick_38">
     <g id="line2d_38">
      <g>
       <use style="fill:#252627;stroke:#252627;stroke-width:0.6;" x="369.310843" xlink:href="#m36b69b5a4f" y="437.3688"/>
      </g>
     </g>
    </g>
    <g id="xtick_39">
     <g id="line2d_39">
      <g>
       <use style="fill:#252627;stroke:#252627;stroke-width:0.6;" x="381.075904" xlink:href="#m36b69b5a4f" y="437.3688"/>
      </g>
     </g>
    </g>
    <g id="xtick_40">
     <g id="line2d_40">
      <g>
       <use style="fill:#252627;stroke:#252627;stroke-width:0.6;" x="392.840964" xlink:href="#m36b69b5a4f" y="437.3688"/>
      </g>
     </g>
    </g>
    <g id="xtick_41">
     <g id="line2d_41">
      <g>
       <use style="fill:#252627;stroke:#252627;stroke-width:0.6;" x="404.606024" xlink:href="#m36b69b5a4f" y="437.3688"/>
      </g>
     </g>
    </g>
    <g id="xtick_42">
     <g id="line2d_42">
      <g>
       <use style="fill:#252627;stroke:#252627;stroke-width:0.6;" x="416.371084" xlink:href="#m36b69b5a4f" y="437.3688"/>
      </g>
     </g>
    </g>
    <g id="xtick_43">
     <g id="line2d_43">
      <g>
       <use style="fill:#252627;stroke:#252627;stroke-width:0.6;" x="428.136145" xlink:href="#m36b69b5a4f" y="437.3688"/>
      </g>
     </g>
    </g>
    <g id="xtick_44">
     <g id="line2d_44">
      <g>
       <use style="fill:#252627;stroke:#252627;stroke-width:0.6;" x="439.901205" xlink:href="#m36b69b5a4f" y="437.3688"/>
      </g>
     </g>
    </g>
    <g id="xtick_45">
     <g id="line2d_45">
      <g>
       <use style="fill:#252627;stroke:#252627;stroke-width:0.6;" x="451.666265" xlink:href="#m36b69b5a4f" y="437.3688"/>
      </g>
     </g>
    </g>
    <g id="xtick_46">
     <g id="line2d_46">
      <g>
       <use style="fill:#252627;stroke:#252627;stroke-width:0.6;" x="463.431325" xlink:href="#m36b69b5a4f" y="437.3688"/>
      </g>
     </g>
    </g>
    <g id="xtick_47">
     <g id="line2d_47">
      <g>
       <use style="fill:#252627;stroke:#252627;stroke-width:0.6;" x="475.196386" xlink:href="#m36b69b5a4f" y="437.3688"/>
      </g>
     </g>
    </g>
    <g id="xtick_48">
     <g id="line2d_48">
      <g>
       <use style="fill:#252627;stroke:#252627;stroke-width:0.6;" x="486.961446" xlink:href="#m36b69b5a4f" y="437.3688"/>
      </g>
     </g>
    </g>
    <g id="xtick_49">
     <g id="line2d_49">
      <g>
       <use style="fill:#252627;stroke:#252627;stroke-width:0.6;" x="498.726506" xlink:href="#m36b69b5a4f" y="437.3688"/>
      </g>
     </g>
    </g>
    <g id="xtick_50">
     <g id="line2d_50">
      <g>
       <use style="fill:#252627;stroke:#252627;stroke-width:0.6;" x="510.491566" xlink:href="#m36b69b5a4f" y="437.3688"/>
      </g>
     </g>
    </g>
    <g id="xtick_51">
     <g id="line2d_51">
      <g>
       <use style="fill:#252627;stroke:#252627;stroke-width:0.6;" x="522.256627" xlink:href="#m36b69b5a4f" y="437.3688"/>
      </g>
     </g>
    </g>
    <g id="xtick_52">
     <g id="line2d_52">
      <g>
       <use style="fill:#252627;stroke:#252627;stroke-width:0.6;" x="534.021687" xlink:href="#m36b69b5a4f" y="437.3688"/>
      </g>
     </g>
    </g>
    <g id="xtick_53">
     <g id="line2d_53">
      <g>
       <use style="fill:#252627;stroke:#252627;stroke-width:0.6;" x="545.786747" xlink:href="#m36b69b5a4f" y="437.3688"/>
      </g>
     </g>
    </g>
    <g id="xtick_54">
     <g id="line2d_54">
      <g>
       <use style="fill:#252627;stroke:#252627;stroke-width:0.6;" x="557.551807" xlink:href="#m36b69b5a4f" y="437.3688"/>
      </g>
     </g>
    </g>
    <g id="xtick_55">
     <g id="line2d_55">
      <g>
       <use style="fill:#252627;stroke:#252627;stroke-width:0.6;" x="569.316867" xlink:href="#m36b69b5a4f" y="437.3688"/>
      </g>
     </g>
    </g>
    <g id="xtick_56">
     <g id="line2d_56">
      <g>
       <use style="fill:#252627;stroke:#252627;stroke-width:0.6;" x="581.081928" xlink:href="#m36b69b5a4f" y="437.3688"/>
      </g>
     </g>
    </g>
    <g id="xtick_57">
     <g id="line2d_57">
      <g>
       <use style="fill:#252627;stroke:#252627;stroke-width:0.6;" x="592.846988" xlink:href="#m36b69b5a4f" y="437.3688"/>
      </g>
     </g>
    </g>
    <g id="xtick_58">
     <g id="line2d_58">
      <g>
       <use style="fill:#252627;stroke:#252627;stroke-width:0.6;" x="604.612048" xlink:href="#m36b69b5a4f" y="437.3688"/>
      </g>
     </g>
    </g>
    <g id="xtick_59">
     <g id="line2d_59">
      <g>
       <use style="fill:#252627;stroke:#252627;stroke-width:0.6;" x="616.377108" xlink:href="#m36b69b5a4f" y="437.3688"/>
      </g>
     </g>
    </g>
    <g id="text_12">
     <!-- date -->
     <g style="fill:#252627;" transform="translate(326.06 493.9278)scale(0.16 -0.16)">
      <defs>
       <path d="M 45.40625 46.390625 
L 45.40625 75.984375 
L 54.390625 75.984375 
L 54.390625 0 
L 45.40625 0 
L 45.40625 8.203125 
Q 42.578125 3.328125 38.25 0.953125 
Q 33.9375 -1.421875 27.875 -1.421875 
Q 17.96875 -1.421875 11.734375 6.484375 
Q 5.515625 14.40625 5.515625 27.296875 
Q 5.515625 40.1875 11.734375 48.09375 
Q 17.96875 56 27.875 56 
Q 33.9375 56 38.25 53.625 
Q 42.578125 51.265625 45.40625 46.390625 
z
M 14.796875 27.296875 
Q 14.796875 17.390625 18.875 11.75 
Q 22.953125 6.109375 30.078125 6.109375 
Q 37.203125 6.109375 41.296875 11.75 
Q 45.40625 17.390625 45.40625 27.296875 
Q 45.40625 37.203125 41.296875 42.84375 
Q 37.203125 48.484375 30.078125 48.484375 
Q 22.953125 48.484375 18.875 42.84375 
Q 14.796875 37.203125 14.796875 27.296875 
z
" id="DejaVuSans-100"/>
      </defs>
      <use xlink:href="#DejaVuSans-100"/>
      <use x="63.476562" xlink:href="#DejaVuSans-97"/>
      <use x="124.755859" xlink:href="#DejaVuSans-116"/>
      <use x="163.964844" xlink:href="#DejaVuSans-101"/>
     </g>
    </g>
   </g>
   <g id="matplotlib.axis_2">
    <g id="ytick_1">
     <g id="line2d_60">
      <defs>
       <path d="M 0 0 
L -3.5 0 
" id="mb0bca912c5" style="stroke:#252627;stroke-width:0.8;"/>
      </defs>
      <g>
       <use style="fill:#252627;stroke:#252627;stroke-width:0.8;" x="65.1" xlink:href="#mb0bca912c5" y="419.7288"/>
      </g>
     </g>
     <g id="text_13">
      <!-- 0 -->
      <g style="fill:#252627;" transform="translate(47.92 425.80755)scale(0.16 -0.16)">
       <use xlink:href="#DejaVuSans-48"/>
      </g>
     </g>
    </g>
    <g id="ytick_2">
     <g id="line2d_61">
      <g>
       <use style="fill:#252627;stroke:#252627;stroke-width:0.8;" x="65.1" xlink:href="#mb0bca912c5" y="350.0912"/>
      </g>
     </g>
     <g id="text_14">
      <!-- 5000 -->
      <g style="fill:#252627;" transform="translate(17.38 356.16995)scale(0.16 -0.16)">
       <defs>
        <path d="M 10.796875 72.90625 
L 49.515625 72.90625 
L 49.515625 64.59375 
L 19.828125 64.59375 
L 19.828125 46.734375 
Q 21.96875 47.46875 24.109375 47.828125 
Q 26.265625 48.1875 28.421875 48.1875 
Q 40.625 48.1875 47.75 41.5 
Q 54.890625 34.8125 54.890625 23.390625 
Q 54.890625 11.625 47.5625 5.09375 
Q 40.234375 -1.421875 26.90625 -1.421875 
Q 22.3125 -1.421875 17.546875 -0.640625 
Q 12.796875 0.140625 7.71875 1.703125 
L 7.71875 11.625 
Q 12.109375 9.234375 16.796875 8.0625 
Q 21.484375 6.890625 26.703125 6.890625 
Q 35.15625 6.890625 40.078125 11.328125 
Q 45.015625 15.765625 45.015625 23.390625 
Q 45.015625 31 40.078125 35.4375 
Q 35.15625 39.890625 26.703125 39.890625 
Q 22.75 39.890625 18.8125 39.015625 
Q 14.890625 38.140625 10.796875 36.28125 
z
" id="DejaVuSans-53"/>
       </defs>
       <use xlink:href="#DejaVuSans-53"/>
       <use x="63.623047" xlink:href="#DejaVuSans-48"/>
       <use x="127.246094" xlink:href="#DejaVuSans-48"/>
       <use x="190.869141" xlink:href="#DejaVuSans-48"/>
      </g>
     </g>
    </g>
    <g id="ytick_3">
     <g id="line2d_62">
      <g>
       <use style="fill:#252627;stroke:#252627;stroke-width:0.8;" x="65.1" xlink:href="#mb0bca912c5" y="280.4536"/>
      </g>
     </g>
     <g id="text_15">
      <!-- 10000 -->
      <g style="fill:#252627;" transform="translate(7.2 286.53235)scale(0.16 -0.16)">
       <defs>
        <path d="M 12.40625 8.296875 
L 28.515625 8.296875 
L 28.515625 63.921875 
L 10.984375 60.40625 
L 10.984375 69.390625 
L 28.421875 72.90625 
L 38.28125 72.90625 
L 38.28125 8.296875 
L 54.390625 8.296875 
L 54.390625 0 
L 12.40625 0 
z
" id="DejaVuSans-49"/>
       </defs>
       <use xlink:href="#DejaVuSans-49"/>
       <use x="63.623047" xlink:href="#DejaVuSans-48"/>
       <use x="127.246094" xlink:href="#DejaVuSans-48"/>
       <use x="190.869141" xlink:href="#DejaVuSans-48"/>
       <use x="254.492188" xlink:href="#DejaVuSans-48"/>
      </g>
     </g>
    </g>
    <g id="ytick_4">
     <g id="line2d_63">
      <g>
       <use style="fill:#252627;stroke:#252627;stroke-width:0.8;" x="65.1" xlink:href="#mb0bca912c5" y="210.816"/>
      </g>
     </g>
     <g id="text_16">
      <!-- 15000 -->
      <g style="fill:#252627;" transform="translate(7.2 216.89475)scale(0.16 -0.16)">
       <use xlink:href="#DejaVuSans-49"/>
       <use x="63.623047" xlink:href="#DejaVuSans-53"/>
       <use x="127.246094" xlink:href="#DejaVuSans-48"/>
       <use x="190.869141" xlink:href="#DejaVuSans-48"/>
       <use x="254.492188" xlink:href="#DejaVuSans-48"/>
      </g>
     </g>
    </g>
    <g id="ytick_5">
     <g id="line2d_64">
      <g>
       <use style="fill:#252627;stroke:#252627;stroke-width:0.8;" x="65.1" xlink:href="#mb0bca912c5" y="141.178401"/>
      </g>
     </g>
     <g id="text_17">
      <!-- 20000 -->
      <g style="fill:#252627;" transform="translate(7.2 147.257151)scale(0.16 -0.16)">
       <use xlink:href="#DejaVuSans-50"/>
       <use x="63.623047" xlink:href="#DejaVuSans-48"/>
       <use x="127.246094" xlink:href="#DejaVuSans-48"/>
       <use x="190.869141" xlink:href="#DejaVuSans-48"/>
       <use x="254.492188" xlink:href="#DejaVuSans-48"/>
      </g>
     </g>
    </g>
    <g id="ytick_6">
     <g id="line2d_65">
      <g>
       <use style="fill:#252627;stroke:#252627;stroke-width:0.8;" x="65.1" xlink:href="#mb0bca912c5" y="71.540801"/>
      </g>
     </g>
     <g id="text_18">
      <!-- 25000 -->
      <g style="fill:#252627;" transform="translate(7.2 77.619551)scale(0.16 -0.16)">
       <use xlink:href="#DejaVuSans-50"/>
       <use x="63.623047" xlink:href="#DejaVuSans-53"/>
       <use x="127.246094" xlink:href="#DejaVuSans-48"/>
       <use x="190.869141" xlink:href="#DejaVuSans-48"/>
       <use x="254.492188" xlink:href="#DejaVuSans-48"/>
      </g>
     </g>
    </g>
   </g>
   <g id="line2d_66">
    <path clip-path="url(#p737575c7f5)" d="M 75.184337 419.7288 
L 165.943373 419.625332 
L 170.985542 419.352757 
L 174.346988 419.070223 
L 177.708434 418.316146 
L 179.389157 417.715285 
L 181.06988 416.961207 
L 182.750602 415.536616 
L 184.431325 413.745941 
L 186.112048 411.613039 
L 189.473494 406.046 
L 191.154217 402.436795 
L 192.83494 399.903964 
L 194.515663 396.459897 
L 197.877108 385.292018 
L 199.557831 379.247474 
L 201.238554 371.76043 
L 202.919277 366.344616 
L 204.6 360.495058 
L 207.961446 340.505083 
L 211.322892 321.565648 
L 213.003614 315.998623 
L 214.684337 312.898747 
L 216.36506 310.576834 
L 218.045783 309.673537 
L 219.726506 311.941731 
L 221.407229 314.669534 
L 223.087952 318.467777 
L 224.768675 321.613405 
L 226.449398 323.386169 
L 228.13012 327.655957 
L 229.810843 333.497549 
L 233.172289 340.795569 
L 234.853012 346.23726 
L 236.533735 350.44138 
L 238.214458 353.692453 
L 239.895181 354.959857 
L 241.575904 359.124186 
L 243.256627 361.430193 
L 244.937349 365.260261 
L 248.298795 368.111419 
L 249.979518 377.287663 
L 251.660241 378.903256 
L 253.340964 379.231555 
L 255.021687 383.433683 
L 256.70241 385.232325 
L 258.383133 388.622673 
L 260.063855 391.268902 
L 261.744578 386.585286 
L 263.425301 387.695504 
L 266.786747 393.44757 
L 268.46747 396.78023 
L 270.148193 398.226701 
L 271.828916 400.757526 
L 273.509639 402.162214 
L 275.190361 404.537859 
L 276.871084 405.504819 
L 278.551807 405.439165 
L 280.23253 406.075847 
L 281.913253 406.501639 
L 283.593976 407.478557 
L 285.274699 402.54224 
L 286.955422 402.68749 
L 288.636145 403.795717 
L 290.316867 404.673151 
L 291.99759 404.816409 
L 293.678313 405.870918 
L 295.359036 406.324551 
L 297.039759 411.823944 
L 298.720482 412.096519 
L 300.401205 412.197995 
L 302.081928 412.040809 
L 303.762651 412.771015 
L 305.443373 410.494854 
L 307.124096 410.592347 
L 308.804819 410.930591 
L 310.485542 412.180084 
L 312.166265 411.328514 
L 313.846988 411.344433 
L 315.527711 410.041221 
L 317.208434 412.287521 
L 318.889157 411.893581 
L 320.56988 412.45266 
L 322.250602 411.296676 
L 323.931325 412.420835 
L 325.612048 412.651628 
L 327.292771 414.24931 
L 330.654217 415.586352 
L 332.33494 415.508761 
L 337.377108 415.84103 
L 339.057831 415.655989 
L 340.738554 415.289904 
L 345.780723 414.969571 
L 347.461446 415.029251 
L 349.142169 414.947677 
L 350.822892 414.633319 
L 352.503614 415.021298 
L 355.86506 415.065072 
L 359.226506 414.905895 
L 360.907229 414.947677 
L 362.587952 415.315768 
L 364.268675 415.092927 
L 365.949398 414.693013 
L 369.310843 414.82233 
L 376.033735 414.476133 
L 377.714458 415.598301 
L 379.395181 416.197185 
L 381.075904 414.119993 
L 386.118072 413.853378 
L 387.798795 413.037616 
L 391.160241 413.037616 
L 392.840964 411.443917 
L 394.521687 410.797276 
L 396.20241 409.818381 
L 397.883133 408.190839 
L 399.563855 407.100523 
L 402.925301 407.100523 
L 404.606024 402.054777 
L 406.286747 400.677944 
L 407.96747 399.718937 
L 409.648193 397.223919 
L 411.328916 395.52277 
L 414.690361 395.52277 
L 416.371084 391.981197 
L 418.051807 391.046061 
L 419.73253 389.70505 
L 421.413253 389.358854 
L 423.093976 387.693512 
L 426.455422 387.693512 
L 428.136145 383.37399 
L 429.816867 375.550707 
L 431.49759 373.716257 
L 433.178313 371.1317 
L 434.859036 368.316349 
L 438.220482 368.316349 
L 439.901205 368.145249 
L 441.581928 372.379215 
L 443.262651 371.943479 
L 444.943373 365.055332 
L 446.624096 363.121384 
L 449.985542 363.121384 
L 451.666265 347.898605 
L 453.346988 344.949954 
L 455.027711 337.988185 
L 456.708434 339.004894 
L 458.389157 333.694526 
L 461.750602 333.694526 
L 463.431325 327.500763 
L 465.112048 323.5155 
L 466.792771 322.271968 
L 468.473494 317.061098 
L 470.154217 313.815986 
L 473.515663 313.815986 
L 475.196386 305.479362 
L 476.877108 303.493702 
L 478.557831 300.936999 
L 480.238554 302.327759 
L 481.919277 300.940982 
L 485.280723 300.940982 
L 486.961446 294.995923 
L 488.642169 293.30671 
L 490.322892 292.739665 
L 493.684337 285.752033 
L 497.045783 285.752033 
L 498.726506 284.072764 
L 500.407229 283.131667 
L 502.087952 278.501756 
L 503.768675 277.453209 
L 505.449398 273.064062 
L 508.810843 273.064062 
L 510.491566 265.057716 
L 512.172289 262.347824 
L 513.853012 262.156822 
L 515.533735 263.426218 
L 517.214458 267.63829 
L 520.575904 267.63829 
L 522.256627 266.927987 
L 523.937349 268.704748 
L 525.618072 269.247922 
L 527.298795 271.703134 
L 528.979518 273.587333 
L 532.340964 273.587333 
L 534.021687 290.111347 
L 535.70241 285.948996 
L 537.383133 286.99356 
L 539.063855 281.016676 
L 540.744578 278.105824 
L 544.106024 278.105824 
L 545.786747 269.399133 
L 547.46747 279.108606 
L 549.148193 276.165916 
L 550.828916 274.385185 
L 552.509639 269.614006 
L 555.871084 269.614006 
L 557.551807 249.651901 
L 559.23253 236.211844 
L 560.913253 226.257637 
L 562.593976 211.001041 
L 564.274699 201.719338 
L 567.636145 201.719338 
L 569.316867 173.269398 
L 570.99759 164.226455 
L 572.678313 158.671366 
L 574.359036 153.510231 
L 576.039759 142.081698 
L 579.401205 142.081698 
L 581.081928 136.449019 
L 582.762651 135.949606 
L 584.443373 125.450247 
L 586.124096 128.776933 
L 587.804819 134.903064 
L 591.166265 134.903064 
L 592.846988 140.141789 
L 594.527711 142.676598 
L 596.208434 154.507037 
L 597.889157 159.276224 
L 599.56988 161.554362 
L 602.931325 161.554362 
L 604.612048 189.634234 
L 606.292771 198.062375 
L 607.973494 205.579253 
L 609.654217 212.101316 
L 611.33494 224.466962 
L 614.696386 224.466962 
L 616.377108 249.112697 
L 618.057831 250.965057 
L 619.738554 261.104292 
L 621.419277 268.95146 
L 621.419277 268.95146 
" style="fill:none;stroke:#bb0a21;stroke-linecap:square;stroke-width:2;"/>
   </g>
   <g id="line2d_67">
    <path clip-path="url(#p737575c7f5)" d="M 75.184337 419.7288 
L 169.304819 419.657171 
L 174.346988 419.438314 
L 184.431325 418.718066 
L 186.112048 418.312176 
L 187.792771 417.6158 
L 191.154217 415.964386 
L 192.83494 415.365503 
L 194.515663 414.599489 
L 197.877108 412.663564 
L 201.238554 410.347626 
L 204.6 407.13633 
L 206.280723 405.274026 
L 209.642169 398.642535 
L 211.322892 395.274067 
L 214.684337 387.367218 
L 216.36506 384.136034 
L 218.045783 381.191352 
L 219.726506 377.341382 
L 223.087952 368.666529 
L 226.449398 361.712727 
L 228.13012 359.329129 
L 229.810843 357.868731 
L 233.172289 353.998858 
L 234.853012 353.565128 
L 236.533735 353.585016 
L 238.214458 354.77483 
L 239.895181 355.652264 
L 241.575904 355.857193 
L 244.937349 360.290128 
L 246.618072 360.421437 
L 248.298795 359.55793 
L 249.979518 358.27859 
L 251.660241 356.006413 
L 253.340964 355.282182 
L 255.021687 353.937187 
L 258.383133 352.234047 
L 260.063855 352.500661 
L 261.744578 352.472806 
L 263.425301 354.408731 
L 265.106024 355.164801 
L 266.786747 355.45927 
L 270.148193 355.610481 
L 273.509639 356.456077 
L 276.871084 358.465623 
L 278.551807 361.085988 
L 280.23253 363.169141 
L 281.913253 366.382415 
L 283.593976 368.768004 
L 285.274699 372.098673 
L 286.955422 374.231576 
L 288.636145 375.530804 
L 290.316867 375.138856 
L 291.99759 375.695957 
L 293.678313 376.730563 
L 295.359036 378.996779 
L 297.039759 380.065215 
L 298.720482 380.220409 
L 300.401205 381.197327 
L 302.081928 383.180996 
L 303.762651 383.877372 
L 305.443373 385.049275 
L 307.124096 385.156712 
L 308.804819 386.079912 
L 310.485542 387.178194 
L 312.166265 388.121282 
L 313.846988 390.041302 
L 315.527711 392.787001 
L 318.889157 396.163436 
L 320.56988 397.227903 
L 322.250602 398.027732 
L 323.931325 398.594777 
L 327.292771 399.332936 
L 332.33494 402.124415 
L 339.057831 404.810434 
L 340.738554 405.122815 
L 342.419277 405.572465 
L 344.1 405.707771 
L 347.461446 405.329736 
L 350.822892 405.552576 
L 352.503614 405.922644 
L 354.184337 405.902756 
L 355.86506 406.034065 
L 359.226506 406.80207 
L 360.907229 407.094548 
L 364.268675 407.991884 
L 367.63012 409.22745 
L 369.310843 409.303062 
L 376.033735 410.805243 
L 379.395181 411.22506 
L 381.075904 411.718484 
L 382.756627 411.501619 
L 386.118072 411.593137 
L 387.798795 411.509572 
L 389.479518 411.28474 
L 392.840964 411.231021 
L 394.521687 411.617008 
L 396.20241 411.573248 
L 399.563855 411.240965 
L 402.925301 411.254893 
L 414.690361 410.534645 
L 418.051807 410.761469 
L 419.73253 412.199987 
L 421.413253 412.176101 
L 423.093976 412.030865 
L 426.455422 411.527482 
L 428.136145 410.886816 
L 431.49759 408.584792 
L 434.859036 408.123193 
L 438.220482 408.166967 
L 439.901205 407.532276 
L 441.581928 407.755116 
L 443.262651 406.804061 
L 444.943373 406.569285 
L 446.624096 406.213131 
L 448.304819 405.081032 
L 449.985542 404.446327 
L 451.666265 404.490102 
L 456.708434 405.204388 
L 458.389157 405.098929 
L 460.06988 405.908717 
L 461.750602 405.4889 
L 463.431325 405.486922 
L 465.112048 404.971604 
L 466.792771 404.782579 
L 468.473494 404.313027 
L 470.154217 403.63654 
L 471.83494 403.15306 
L 473.515663 403.511192 
L 475.196386 402.170181 
L 476.877108 401.306674 
L 478.557831 401.085826 
L 480.238554 400.170579 
L 481.919277 399.746792 
L 485.280723 397.022959 
L 486.961446 394.490142 
L 488.642169 391.422105 
L 493.684337 384.458345 
L 497.045783 377.926338 
L 498.726506 377.245881 
L 500.407229 377.896505 
L 502.087952 376.617151 
L 503.768675 373.966953 
L 505.449398 373.019881 
L 507.13012 371.461991 
L 508.810843 369.621566 
L 510.491566 368.489454 
L 513.853012 361.386419 
L 515.533735 357.035058 
L 517.214458 350.590599 
L 518.895181 345.515021 
L 520.575904 342.293781 
L 522.256627 338.726344 
L 523.937349 339.370993 
L 525.618072 334.959939 
L 527.298795 333.10957 
L 528.979518 332.552469 
L 530.660241 332.363459 
L 532.340964 318.774183 
L 534.021687 284.414991 
L 535.70241 267.405506 
L 539.063855 238.64916 
L 540.744578 217.507185 
L 542.425301 203.786586 
L 544.106024 199.222329 
L 545.786747 219.295868 
L 547.46747 216.552147 
L 549.148193 211.199996 
L 550.828916 200.133593 
L 552.509639 197.272476 
L 554.190361 193.748814 
L 555.871084 191.747234 
L 557.551807 183.57178 
L 559.23253 173.959799 
L 560.913253 165.806239 
L 562.593976 151.952326 
L 564.274699 147.455729 
L 565.955422 137.714431 
L 567.636145 124.103261 
L 569.316867 118.514342 
L 570.99759 114.36195 
L 572.678313 111.268063 
L 574.359036 115.221487 
L 576.039759 111.586404 
L 577.720482 103.87851 
L 579.401205 106.061148 
L 581.081928 99.169017 
L 582.762651 103.028932 
L 584.443373 108.733254 
L 586.124096 107.784191 
L 587.804819 105.649297 
L 589.485542 107.873717 
L 591.166265 101.821221 
L 592.846988 107.157453 
L 594.527711 102.382305 
L 596.208434 101.59838 
L 597.889157 106.029323 
L 599.56988 87.461948 
L 601.250602 79.475504 
L 602.931325 75.68921 
L 604.612048 66.954663 
L 606.292771 66.9288 
L 607.973494 67.64707 
L 609.654217 74.294466 
L 611.33494 95.295175 
L 614.696386 123.217875 
L 618.057831 147.517414 
L 619.738554 164.930797 
L 621.419277 167.708335 
L 623.1 178.372832 
L 623.1 178.372832 
" style="fill:none;stroke:#4b88a2;stroke-linecap:square;stroke-width:2;"/>
   </g>
   <g id="line2d_68">
    <path clip-path="url(#p737575c7f5)" d="M 187.792771 419.685026 
L 197.877108 419.474121 
L 199.557831 419.306991 
L 207.961446 419.1339 
L 209.642169 418.907076 
L 211.322892 419.040377 
L 214.684337 419.026449 
L 216.36506 418.755865 
L 219.726506 418.437524 
L 226.449398 417.589937 
L 228.13012 416.885594 
L 229.810843 416.523479 
L 231.491566 415.970361 
L 233.172289 413.722056 
L 234.853012 412.084583 
L 236.533735 411.16935 
L 238.214458 409.57763 
L 239.895181 409.307032 
L 241.575904 409.864133 
L 243.256627 405.106896 
L 244.937349 405.536657 
L 246.618072 405.333719 
L 248.298795 404.623416 
L 249.979518 404.663207 
L 251.660241 403.594757 
L 253.340964 402.20798 
L 255.021687 404.738805 
L 256.70241 404.259309 
L 258.383133 402.97001 
L 260.063855 403.495287 
L 261.744578 398.01978 
L 263.425301 396.073896 
L 265.106024 395.108928 
L 266.786747 393.161067 
L 270.148193 387.771117 
L 271.828916 382.301571 
L 273.509639 385.500931 
L 275.190361 383.097431 
L 276.871084 382.576152 
L 278.551807 379.937875 
L 280.23253 378.173064 
L 281.913253 376.851941 
L 283.593976 377.174252 
L 285.274699 374.999581 
L 286.955422 377.192162 
L 288.636145 377.050896 
L 290.316867 378.204888 
L 293.678313 375.801402 
L 295.359036 374.667298 
L 297.039759 372.920397 
L 298.720482 370.055311 
L 300.401205 367.777159 
L 302.081928 365.16476 
L 303.762651 364.587757 
L 305.443373 363.690435 
L 307.124096 365.604466 
L 308.804819 365.584577 
L 310.485542 364.643467 
L 312.166265 361.937545 
L 313.846988 359.506204 
L 315.527711 356.288947 
L 317.208434 354.050599 
L 318.889157 346.933636 
L 320.56988 340.308106 
L 322.250602 331.155748 
L 323.931325 328.085719 
L 325.612048 339.569948 
L 327.292771 334.156126 
L 328.973494 337.319664 
L 330.654217 341.90381 
L 332.33494 347.928451 
L 334.015663 355.982541 
L 335.696386 360.721881 
L 337.377108 352.68371 
L 339.057831 360.22049 
L 342.419277 353.376103 
L 344.1 353.326368 
L 345.780723 353.630782 
L 349.142169 353.234836 
L 350.822892 355.891023 
L 354.184337 365.658184 
L 357.545783 369.589728 
L 359.226506 376.068017 
L 360.907229 372.665718 
L 362.587952 372.413031 
L 364.268675 371.551517 
L 367.63012 370.68205 
L 369.310843 371.01631 
L 370.991566 365.154802 
L 372.672289 371.175474 
L 374.353012 372.399104 
L 376.033735 373.167109 
L 379.395181 373.785895 
L 381.075904 373.372039 
L 382.756627 373.294448 
L 384.437349 371.847978 
L 386.118072 371.113803 
L 387.798795 371.0939 
L 391.160241 372.713476 
L 392.840964 372.75725 
L 394.521687 371.141658 
L 397.883133 370.359725 
L 399.563855 369.713084 
L 401.244578 368.214887 
L 402.925301 366.426189 
L 404.606024 365.483101 
L 406.286747 364.898146 
L 411.328916 361.014359 
L 413.009639 359.195815 
L 414.690361 359.275411 
L 419.73253 354.233648 
L 421.413253 351.816221 
L 424.774699 342.582275 
L 426.455422 335.56878 
L 428.136145 332.078934 
L 429.816867 333.412006 
L 431.49759 330.42355 
L 433.178313 326.332843 
L 434.859036 324.390943 
L 436.539759 321.95761 
L 438.220482 322.576396 
L 439.901205 321.889964 
L 441.581928 320.180862 
L 443.262651 320.664342 
L 444.943373 318.394156 
L 446.624096 315.099295 
L 448.304819 315.429586 
L 449.985542 310.714118 
L 451.666265 304.484547 
L 453.346988 303.613074 
L 455.027711 301.064338 
L 456.708434 300.618658 
L 458.389157 302.214361 
L 460.06988 300.80569 
L 461.750602 301.478181 
L 463.431325 303.573283 
L 465.112048 302.449138 
L 466.792771 304.207974 
L 468.473494 310.381849 
L 470.154217 310.42164 
L 471.83494 312.498832 
L 473.515663 311.891996 
L 475.196386 314.595927 
L 476.877108 317.065067 
L 478.557831 320.749899 
L 480.238554 320.129121 
L 481.919277 323.931334 
L 483.6 326.44028 
L 485.280723 331.653155 
L 486.961446 334.550079 
L 488.642169 341.062184 
L 490.322892 342.011247 
L 492.003614 341.458129 
L 493.684337 340.298162 
L 495.36506 340.497131 
L 497.045783 341.873963 
L 498.726506 340.855263 
L 500.407229 335.596635 
L 502.087952 336.501924 
L 503.768675 336.911783 
L 505.449398 340.081297 
L 507.13012 340.656294 
L 508.810843 340.077313 
L 510.491566 341.583477 
L 512.172289 342.060996 
L 513.853012 343.075713 
L 515.533735 343.535322 
L 517.214458 342.466872 
L 518.895181 343.780042 
L 522.256627 347.291769 
L 525.618072 349.649503 
L 527.298795 355.793531 
L 528.979518 361.29887 
L 530.660241 366.048155 
L 532.340964 370.300032 
L 534.021687 374.231576 
L 535.70241 377.379195 
L 537.383133 377.625907 
L 539.063855 378.278509 
L 540.744578 379.305162 
L 542.425301 376.37243 
L 544.106024 377.741311 
L 545.786747 377.544334 
L 547.46747 377.604027 
L 549.148193 377.8567 
L 550.828916 377.371228 
L 552.509639 377.695545 
L 554.190361 381.802171 
L 555.871084 381.008303 
L 557.551807 381.320683 
L 560.913253 379.649381 
L 562.593976 380.067206 
L 564.274699 379.6653 
L 565.955422 378.545123 
L 567.636145 378.612769 
L 569.316867 379.856302 
L 570.99759 380.536759 
L 572.678313 383.161107 
L 576.039759 384.476255 
L 577.720482 385.77749 
L 579.401205 387.319461 
L 581.081928 387.504502 
L 582.762651 387.952174 
L 586.124096 386.185357 
L 587.804819 385.65015 
L 591.166265 384.896073 
L 592.846988 385.065194 
L 596.208434 386.841942 
L 597.889157 387.458736 
L 599.56988 388.859441 
L 601.250602 389.591638 
L 604.612048 390.524782 
L 606.292771 390.399435 
L 607.973494 390.878931 
L 609.654217 391.983189 
L 614.696386 393.501288 
L 616.377108 394.541869 
L 618.057831 395.27805 
L 619.738554 394.842313 
L 621.419277 394.842313 
L 623.1 394.997508 
L 623.1 394.997508 
" style="fill:none;stroke:#d3d4d9;stroke-linecap:square;stroke-width:2;"/>
   </g>
   <g id="patch_3">
    <path d="M 65.1 437.3688 
L 65.1 49.2888 
" style="fill:none;stroke:#000000;stroke-linecap:square;stroke-linejoin:miter;stroke-width:0.8;"/>
   </g>
   <g id="patch_4">
    <path d="M 623.1 437.3688 
L 623.1 49.2888 
" style="fill:none;stroke:#000000;stroke-linecap:square;stroke-linejoin:miter;stroke-width:0.8;"/>
   </g>
   <g id="patch_5">
    <path d="M 65.1 437.3688 
L 623.1 437.3688 
" style="fill:none;stroke:#000000;stroke-linecap:square;stroke-linejoin:miter;stroke-width:0.8;"/>
   </g>
   <g id="patch_6">
    <path d="M 65.1 49.2888 
L 623.1 49.2888 
" style="fill:none;stroke:#000000;stroke-linecap:square;stroke-linejoin:miter;stroke-width:0.8;"/>
   </g>
   <g id="text_19">
    <!-- Latest update:  -->
    <g style="fill:#252627;" transform="translate(47.1 491.690987)scale(0.1 -0.1)">
     <defs>
      <path d="M 9.8125 72.90625 
L 19.671875 72.90625 
L 19.671875 8.296875 
L 55.171875 8.296875 
L 55.171875 0 
L 9.8125 0 
z
" id="DejaVuSans-76"/>
      <path d="M 44.28125 53.078125 
L 44.28125 44.578125 
Q 40.484375 46.53125 36.375 47.5 
Q 32.28125 48.484375 27.875 48.484375 
Q 21.1875 48.484375 17.84375 46.4375 
Q 14.5 44.390625 14.5 40.28125 
Q 14.5 37.15625 16.890625 35.375 
Q 19.28125 33.59375 26.515625 31.984375 
L 29.59375 31.296875 
Q 39.15625 29.25 43.1875 25.515625 
Q 47.21875 21.78125 47.21875 15.09375 
Q 47.21875 7.46875 41.1875 3.015625 
Q 35.15625 -1.421875 24.609375 -1.421875 
Q 20.21875 -1.421875 15.453125 -0.5625 
Q 10.6875 0.296875 5.421875 2 
L 5.421875 11.28125 
Q 10.40625 8.6875 15.234375 7.390625 
Q 20.0625 6.109375 24.8125 6.109375 
Q 31.15625 6.109375 34.5625 8.28125 
Q 37.984375 10.453125 37.984375 14.40625 
Q 37.984375 18.0625 35.515625 20.015625 
Q 33.0625 21.96875 24.703125 23.78125 
L 21.578125 24.515625 
Q 13.234375 26.265625 9.515625 29.90625 
Q 5.8125 33.546875 5.8125 39.890625 
Q 5.8125 47.609375 11.28125 51.796875 
Q 16.75 56 26.8125 56 
Q 31.78125 56 36.171875 55.265625 
Q 40.578125 54.546875 44.28125 53.078125 
z
" id="DejaVuSans-115"/>
      <path id="DejaVuSans-32"/>
      <path d="M 11.71875 12.40625 
L 22.015625 12.40625 
L 22.015625 0 
L 11.71875 0 
z
M 11.71875 51.703125 
L 22.015625 51.703125 
L 22.015625 39.3125 
L 11.71875 39.3125 
z
" id="DejaVuSans-58"/>
     </defs>
     <use xlink:href="#DejaVuSans-76"/>
     <use x="55.712891" xlink:href="#DejaVuSans-97"/>
     <use x="116.992188" xlink:href="#DejaVuSans-116"/>
     <use x="156.201172" xlink:href="#DejaVuSans-101"/>
     <use x="217.724609" xlink:href="#DejaVuSans-115"/>
     <use x="269.824219" xlink:href="#DejaVuSans-116"/>
     <use x="309.033203" xlink:href="#DejaVuSans-32"/>
     <use x="340.820312" xlink:href="#DejaVuSans-117"/>
     <use x="404.199219" xlink:href="#DejaVuSans-112"/>
     <use x="467.675781" xlink:href="#DejaVuSans-100"/>
     <use x="531.152344" xlink:href="#DejaVuSans-97"/>
     <use x="592.431641" xlink:href="#DejaVuSans-116"/>
     <use x="631.640625" xlink:href="#DejaVuSans-101"/>
     <use x="693.164062" xlink:href="#DejaVuSans-58"/>
     <use x="726.855469" xlink:href="#DejaVuSans-32"/>
    </g>
    <!-- 28-11-2020 -->
    <g style="fill:#252627;" transform="translate(47.1 502.8888)scale(0.1 -0.1)">
     <defs>
      <path d="M 31.78125 34.625 
Q 24.75 34.625 20.71875 30.859375 
Q 16.703125 27.09375 16.703125 20.515625 
Q 16.703125 13.921875 20.71875 10.15625 
Q 24.75 6.390625 31.78125 6.390625 
Q 38.8125 6.390625 42.859375 10.171875 
Q 46.921875 13.96875 46.921875 20.515625 
Q 46.921875 27.09375 42.890625 30.859375 
Q 38.875 34.625 31.78125 34.625 
z
M 21.921875 38.8125 
Q 15.578125 40.375 12.03125 44.71875 
Q 8.5 49.078125 8.5 55.328125 
Q 8.5 64.0625 14.71875 69.140625 
Q 20.953125 74.21875 31.78125 74.21875 
Q 42.671875 74.21875 48.875 69.140625 
Q 55.078125 64.0625 55.078125 55.328125 
Q 55.078125 49.078125 51.53125 44.71875 
Q 48 40.375 41.703125 38.8125 
Q 48.828125 37.15625 52.796875 32.3125 
Q 56.78125 27.484375 56.78125 20.515625 
Q 56.78125 9.90625 50.3125 4.234375 
Q 43.84375 -1.421875 31.78125 -1.421875 
Q 19.734375 -1.421875 13.25 4.234375 
Q 6.78125 9.90625 6.78125 20.515625 
Q 6.78125 27.484375 10.78125 32.3125 
Q 14.796875 37.15625 21.921875 38.8125 
z
M 18.3125 54.390625 
Q 18.3125 48.734375 21.84375 45.5625 
Q 25.390625 42.390625 31.78125 42.390625 
Q 38.140625 42.390625 41.71875 45.5625 
Q 45.3125 48.734375 45.3125 54.390625 
Q 45.3125 60.0625 41.71875 63.234375 
Q 38.140625 66.40625 31.78125 66.40625 
Q 25.390625 66.40625 21.84375 63.234375 
Q 18.3125 60.0625 18.3125 54.390625 
z
" id="DejaVuSans-56"/>
      <path d="M 4.890625 31.390625 
L 31.203125 31.390625 
L 31.203125 23.390625 
L 4.890625 23.390625 
z
" id="DejaVuSans-45"/>
     </defs>
     <use xlink:href="#DejaVuSans-50"/>
     <use x="63.623047" xlink:href="#DejaVuSans-56"/>
     <use x="127.246094" xlink:href="#DejaVuSans-45"/>
     <use x="163.330078" xlink:href="#DejaVuSans-49"/>
     <use x="226.953125" xlink:href="#DejaVuSans-49"/>
     <use x="290.576172" xlink:href="#DejaVuSans-45"/>
     <use x="326.660156" xlink:href="#DejaVuSans-50"/>
     <use x="390.283203" xlink:href="#DejaVuSans-48"/>
     <use x="453.90625" xlink:href="#DejaVuSans-50"/>
     <use x="517.529297" xlink:href="#DejaVuSans-48"/>
    </g>
   </g>
   <g id="text_20">
    <!-- Daily new cases - Since beginning -->
    <g style="fill:#252627;" transform="translate(180.3705 21.789)scale(0.192 -0.192)">
     <defs>
      <path d="M 19.671875 64.796875 
L 19.671875 8.109375 
L 31.59375 8.109375 
Q 46.6875 8.109375 53.6875 14.9375 
Q 60.6875 21.78125 60.6875 36.53125 
Q 60.6875 51.171875 53.6875 57.984375 
Q 46.6875 64.796875 31.59375 64.796875 
z
M 9.8125 72.90625 
L 30.078125 72.90625 
Q 51.265625 72.90625 61.171875 64.09375 
Q 71.09375 55.28125 71.09375 36.53125 
Q 71.09375 17.671875 61.125 8.828125 
Q 51.171875 0 30.078125 0 
L 9.8125 0 
z
" id="DejaVuSans-68"/>
      <path d="M 9.421875 54.6875 
L 18.40625 54.6875 
L 18.40625 0 
L 9.421875 0 
z
M 9.421875 75.984375 
L 18.40625 75.984375 
L 18.40625 64.59375 
L 9.421875 64.59375 
z
" id="DejaVuSans-105"/>
      <path d="M 4.203125 54.6875 
L 13.1875 54.6875 
L 24.421875 12.015625 
L 35.59375 54.6875 
L 46.1875 54.6875 
L 57.421875 12.015625 
L 68.609375 54.6875 
L 77.59375 54.6875 
L 63.28125 0 
L 52.6875 0 
L 40.921875 44.828125 
L 29.109375 0 
L 18.5 0 
z
" id="DejaVuSans-119"/>
     </defs>
     <use xlink:href="#DejaVuSans-68"/>
     <use x="77.001953" xlink:href="#DejaVuSans-97"/>
     <use x="138.28125" xlink:href="#DejaVuSans-105"/>
     <use x="166.064453" xlink:href="#DejaVuSans-108"/>
     <use x="193.847656" xlink:href="#DejaVuSans-121"/>
     <use x="253.027344" xlink:href="#DejaVuSans-32"/>
     <use x="284.814453" xlink:href="#DejaVuSans-110"/>
     <use x="348.193359" xlink:href="#DejaVuSans-101"/>
     <use x="409.716797" xlink:href="#DejaVuSans-119"/>
     <use x="491.503906" xlink:href="#DejaVuSans-32"/>
     <use x="523.291016" xlink:href="#DejaVuSans-99"/>
     <use x="578.271484" xlink:href="#DejaVuSans-97"/>
     <use x="639.550781" xlink:href="#DejaVuSans-115"/>
     <use x="691.650391" xlink:href="#DejaVuSans-101"/>
     <use x="753.173828" xlink:href="#DejaVuSans-115"/>
     <use x="805.273438" xlink:href="#DejaVuSans-32"/>
     <use x="837.060547" xlink:href="#DejaVuSans-45"/>
     <use x="873.144531" xlink:href="#DejaVuSans-32"/>
     <use x="904.931641" xlink:href="#DejaVuSans-83"/>
     <use x="968.408203" xlink:href="#DejaVuSans-105"/>
     <use x="996.191406" xlink:href="#DejaVuSans-110"/>
     <use x="1059.570312" xlink:href="#DejaVuSans-99"/>
     <use x="1114.550781" xlink:href="#DejaVuSans-101"/>
     <use x="1176.074219" xlink:href="#DejaVuSans-32"/>
     <use x="1207.861328" xlink:href="#DejaVuSans-98"/>
     <use x="1271.337891" xlink:href="#DejaVuSans-101"/>
     <use x="1332.861328" xlink:href="#DejaVuSans-103"/>
     <use x="1396.337891" xlink:href="#DejaVuSans-105"/>
     <use x="1424.121094" xlink:href="#DejaVuSans-110"/>
     <use x="1487.5" xlink:href="#DejaVuSans-110"/>
     <use x="1550.878906" xlink:href="#DejaVuSans-105"/>
     <use x="1578.662109" xlink:href="#DejaVuSans-110"/>
     <use x="1642.041016" xlink:href="#DejaVuSans-103"/>
    </g>
    <!-- 7-day rolling average -->
    <g style="fill:#252627;" transform="translate(241.68 43.2888)scale(0.192 -0.192)">
     <defs>
      <path d="M 8.203125 72.90625 
L 55.078125 72.90625 
L 55.078125 68.703125 
L 28.609375 0 
L 18.3125 0 
L 43.21875 64.59375 
L 8.203125 64.59375 
z
" id="DejaVuSans-55"/>
     </defs>
     <use xlink:href="#DejaVuSans-55"/>
     <use x="63.623047" xlink:href="#DejaVuSans-45"/>
     <use x="99.707031" xlink:href="#DejaVuSans-100"/>
     <use x="163.183594" xlink:href="#DejaVuSans-97"/>
     <use x="224.462891" xlink:href="#DejaVuSans-121"/>
     <use x="283.642578" xlink:href="#DejaVuSans-32"/>
     <use x="315.429688" xlink:href="#DejaVuSans-114"/>
     <use x="354.292969" xlink:href="#DejaVuSans-111"/>
     <use x="415.474609" xlink:href="#DejaVuSans-108"/>
     <use x="443.257812" xlink:href="#DejaVuSans-108"/>
     <use x="471.041016" xlink:href="#DejaVuSans-105"/>
     <use x="498.824219" xlink:href="#DejaVuSans-110"/>
     <use x="562.203125" xlink:href="#DejaVuSans-103"/>
     <use x="625.679688" xlink:href="#DejaVuSans-32"/>
     <use x="657.466797" xlink:href="#DejaVuSans-97"/>
     <use x="718.746094" xlink:href="#DejaVuSans-118"/>
     <use x="777.925781" xlink:href="#DejaVuSans-101"/>
     <use x="839.449219" xlink:href="#DejaVuSans-114"/>
     <use x="880.5625" xlink:href="#DejaVuSans-97"/>
     <use x="941.841797" xlink:href="#DejaVuSans-103"/>
     <use x="1005.318359" xlink:href="#DejaVuSans-101"/>
    </g>
   </g>
   <g id="legend_1">
    <g id="patch_7">
     <path d="M 76.3 132.5438 
L 161.9925 132.5438 
Q 165.1925 132.5438 165.1925 129.3438 
L 165.1925 60.4888 
Q 165.1925 57.2888 161.9925 57.2888 
L 76.3 57.2888 
Q 73.1 57.2888 73.1 60.4888 
L 73.1 129.3438 
Q 73.1 132.5438 76.3 132.5438 
z
" style="fill:#ffffff;opacity:0.2;stroke:#cccccc;stroke-linejoin:miter;"/>
    </g>
    <g id="line2d_69">
     <path d="M 79.5 70.2463 
L 111.5 70.2463 
" style="fill:none;stroke:#bb0a21;stroke-linecap:square;stroke-width:2;"/>
    </g>
    <g id="line2d_70"/>
    <g id="text_21">
     <!-- ESP -->
     <g style="fill:#252627;" transform="translate(124.3 75.8463)scale(0.16 -0.16)">
      <defs>
       <path d="M 9.8125 72.90625 
L 55.90625 72.90625 
L 55.90625 64.59375 
L 19.671875 64.59375 
L 19.671875 43.015625 
L 54.390625 43.015625 
L 54.390625 34.71875 
L 19.671875 34.71875 
L 19.671875 8.296875 
L 56.78125 8.296875 
L 56.78125 0 
L 9.8125 0 
z
" id="DejaVuSans-69"/>
       <path d="M 19.671875 64.796875 
L 19.671875 37.40625 
L 32.078125 37.40625 
Q 38.96875 37.40625 42.71875 40.96875 
Q 46.484375 44.53125 46.484375 51.125 
Q 46.484375 57.671875 42.71875 61.234375 
Q 38.96875 64.796875 32.078125 64.796875 
z
M 9.8125 72.90625 
L 32.078125 72.90625 
Q 44.34375 72.90625 50.609375 67.359375 
Q 56.890625 61.8125 56.890625 51.125 
Q 56.890625 40.328125 50.609375 34.8125 
Q 44.34375 29.296875 32.078125 29.296875 
L 19.671875 29.296875 
L 19.671875 0 
L 9.8125 0 
z
" id="DejaVuSans-80"/>
      </defs>
      <use xlink:href="#DejaVuSans-69"/>
      <use x="63.183594" xlink:href="#DejaVuSans-83"/>
      <use x="126.660156" xlink:href="#DejaVuSans-80"/>
     </g>
    </g>
    <g id="line2d_71">
     <path d="M 79.5 93.7313 
L 111.5 93.7313 
" style="fill:none;stroke:#4b88a2;stroke-linecap:square;stroke-width:2;"/>
    </g>
    <g id="line2d_72"/>
    <g id="text_22">
     <!-- GBR -->
     <g style="fill:#252627;" transform="translate(124.3 99.3313)scale(0.16 -0.16)">
      <defs>
       <path d="M 59.515625 10.40625 
L 59.515625 29.984375 
L 43.40625 29.984375 
L 43.40625 38.09375 
L 69.28125 38.09375 
L 69.28125 6.78125 
Q 63.578125 2.734375 56.6875 0.65625 
Q 49.8125 -1.421875 42 -1.421875 
Q 24.90625 -1.421875 15.25 8.5625 
Q 5.609375 18.5625 5.609375 36.375 
Q 5.609375 54.25 15.25 64.234375 
Q 24.90625 74.21875 42 74.21875 
Q 49.125 74.21875 55.546875 72.453125 
Q 61.96875 70.703125 67.390625 67.28125 
L 67.390625 56.78125 
Q 61.921875 61.421875 55.765625 63.765625 
Q 49.609375 66.109375 42.828125 66.109375 
Q 29.4375 66.109375 22.71875 58.640625 
Q 16.015625 51.171875 16.015625 36.375 
Q 16.015625 21.625 22.71875 14.15625 
Q 29.4375 6.6875 42.828125 6.6875 
Q 48.046875 6.6875 52.140625 7.59375 
Q 56.25 8.5 59.515625 10.40625 
z
" id="DejaVuSans-71"/>
       <path d="M 19.671875 34.8125 
L 19.671875 8.109375 
L 35.5 8.109375 
Q 43.453125 8.109375 47.28125 11.40625 
Q 51.125 14.703125 51.125 21.484375 
Q 51.125 28.328125 47.28125 31.5625 
Q 43.453125 34.8125 35.5 34.8125 
z
M 19.671875 64.796875 
L 19.671875 42.828125 
L 34.28125 42.828125 
Q 41.5 42.828125 45.03125 45.53125 
Q 48.578125 48.25 48.578125 53.8125 
Q 48.578125 59.328125 45.03125 62.0625 
Q 41.5 64.796875 34.28125 64.796875 
z
M 9.8125 72.90625 
L 35.015625 72.90625 
Q 46.296875 72.90625 52.390625 68.21875 
Q 58.5 63.53125 58.5 54.890625 
Q 58.5 48.1875 55.375 44.234375 
Q 52.25 40.28125 46.1875 39.3125 
Q 53.46875 37.75 57.5 32.78125 
Q 61.53125 27.828125 61.53125 20.40625 
Q 61.53125 10.640625 54.890625 5.3125 
Q 48.25 0 35.984375 0 
L 9.8125 0 
z
" id="DejaVuSans-66"/>
       <path d="M 44.390625 34.1875 
Q 47.5625 33.109375 50.5625 29.59375 
Q 53.5625 26.078125 56.59375 19.921875 
L 66.609375 0 
L 56 0 
L 46.6875 18.703125 
Q 43.0625 26.03125 39.671875 28.421875 
Q 36.28125 30.8125 30.421875 30.8125 
L 19.671875 30.8125 
L 19.671875 0 
L 9.8125 0 
L 9.8125 72.90625 
L 32.078125 72.90625 
Q 44.578125 72.90625 50.734375 67.671875 
Q 56.890625 62.453125 56.890625 51.90625 
Q 56.890625 45.015625 53.6875 40.46875 
Q 50.484375 35.9375 44.390625 34.1875 
z
M 19.671875 64.796875 
L 19.671875 38.921875 
L 32.078125 38.921875 
Q 39.203125 38.921875 42.84375 42.21875 
Q 46.484375 45.515625 46.484375 51.90625 
Q 46.484375 58.296875 42.84375 61.546875 
Q 39.203125 64.796875 32.078125 64.796875 
z
" id="DejaVuSans-82"/>
      </defs>
      <use xlink:href="#DejaVuSans-71"/>
      <use x="77.490234" xlink:href="#DejaVuSans-66"/>
      <use x="146.09375" xlink:href="#DejaVuSans-82"/>
     </g>
    </g>
    <g id="line2d_73">
     <path d="M 79.5 117.2163 
L 111.5 117.2163 
" style="fill:none;stroke:#d3d4d9;stroke-linecap:square;stroke-width:2;"/>
    </g>
    <g id="line2d_74"/>
    <g id="text_23">
     <!-- PER -->
     <g style="fill:#252627;" transform="translate(124.3 122.8163)scale(0.16 -0.16)">
      <use xlink:href="#DejaVuSans-80"/>
      <use x="60.302734" xlink:href="#DejaVuSans-69"/>
      <use x="123.486328" xlink:href="#DejaVuSans-82"/>
     </g>
    </g>
   </g>
  </g>
 </g>
 <defs>
  <clipPath id="p737575c7f5">
   <rect height="388.08" width="558" x="65.1" y="49.2888"/>
  </clipPath>
 </defs>
</svg>
