<?xml version="1.0" encoding="utf-8" standalone="no"?>
<!DOCTYPE svg PUBLIC "-//W3C//DTD SVG 1.1//EN"
  "http://www.w3.org/Graphics/SVG/1.1/DTD/svg11.dtd">
<!-- Created with matplotlib (https://matplotlib.org/) -->
<svg height="512.168487pt" version="1.1" viewBox="0 0 630.3 512.168487" width="630.3pt" xmlns="http://www.w3.org/2000/svg" xmlns:xlink="http://www.w3.org/1999/xlink">
 <metadata>
  <rdf:RDF xmlns:cc="http://creativecommons.org/ns#" xmlns:dc="http://purl.org/dc/elements/1.1/" xmlns:rdf="http://www.w3.org/1999/02/22-rdf-syntax-ns#">
   <cc:Work>
    <dc:type rdf:resource="http://purl.org/dc/dcmitype/StillImage"/>
    <dc:date>2021-03-01T09:00:06.486150</dc:date>
    <dc:format>image/svg+xml</dc:format>
    <dc:creator>
     <cc:Agent>
      <dc:title>Matplotlib v3.3.1, https://matplotlib.org/</dc:title>
     </cc:Agent>
    </dc:creator>
   </cc:Work>
  </rdf:RDF>
 </metadata>
 <defs>
  <style type="text/css">*{stroke-linecap:butt;stroke-linejoin:round;}</style>
 </defs>
 <g id="figure_1">
  <g id="patch_1">
   <path d="M 0 512.168487 
L 630.3 512.168487 
L 630.3 0 
L 0 0 
z
" style="fill:none;"/>
  </g>
  <g id="axes_1">
   <g id="patch_2">
    <path d="M 65.1 437.3688 
L 623.1 437.3688 
L 623.1 49.2888 
L 65.1 49.2888 
z
" style="fill:none;"/>
   </g>
   <g id="matplotlib.axis_1">
    <g id="xtick_1">
     <g id="line2d_1">
      <defs>
       <path d="M 0 0 
L 0 3.5 
" id="m4701734ad2" style="stroke:#252627;stroke-width:0.8;"/>
      </defs>
      <g>
       <use style="fill:#252627;stroke:#252627;stroke-width:0.8;" x="65.1" xlink:href="#m4701734ad2" y="437.3688"/>
      </g>
     </g>
    </g>
    <g id="xtick_2">
     <g id="line2d_2">
      <g>
       <use style="fill:#252627;stroke:#252627;stroke-width:0.8;" x="66.516244" xlink:href="#m4701734ad2" y="437.3688"/>
      </g>
     </g>
     <g id="text_1">
      <!-- Feb -->
      <g style="fill:#252627;" transform="translate(52.353744 456.5263)scale(0.16 -0.16)">
       <defs>
        <path d="M 9.8125 72.90625 
L 51.703125 72.90625 
L 51.703125 64.59375 
L 19.671875 64.59375 
L 19.671875 43.109375 
L 48.578125 43.109375 
L 48.578125 34.8125 
L 19.671875 34.8125 
L 19.671875 0 
L 9.8125 0 
z
" id="DejaVuSans-70"/>
        <path d="M 56.203125 29.59375 
L 56.203125 25.203125 
L 14.890625 25.203125 
Q 15.484375 15.921875 20.484375 11.0625 
Q 25.484375 6.203125 34.421875 6.203125 
Q 39.59375 6.203125 44.453125 7.46875 
Q 49.3125 8.734375 54.109375 11.28125 
L 54.109375 2.78125 
Q 49.265625 0.734375 44.1875 -0.34375 
Q 39.109375 -1.421875 33.890625 -1.421875 
Q 20.796875 -1.421875 13.15625 6.1875 
Q 5.515625 13.8125 5.515625 26.8125 
Q 5.515625 40.234375 12.765625 48.109375 
Q 20.015625 56 32.328125 56 
Q 43.359375 56 49.78125 48.890625 
Q 56.203125 41.796875 56.203125 29.59375 
z
M 47.21875 32.234375 
Q 47.125 39.59375 43.09375 43.984375 
Q 39.0625 48.390625 32.421875 48.390625 
Q 24.90625 48.390625 20.390625 44.140625 
Q 15.875 39.890625 15.1875 32.171875 
z
" id="DejaVuSans-101"/>
        <path d="M 48.6875 27.296875 
Q 48.6875 37.203125 44.609375 42.84375 
Q 40.53125 48.484375 33.40625 48.484375 
Q 26.265625 48.484375 22.1875 42.84375 
Q 18.109375 37.203125 18.109375 27.296875 
Q 18.109375 17.390625 22.1875 11.75 
Q 26.265625 6.109375 33.40625 6.109375 
Q 40.53125 6.109375 44.609375 11.75 
Q 48.6875 17.390625 48.6875 27.296875 
z
M 18.109375 46.390625 
Q 20.953125 51.265625 25.265625 53.625 
Q 29.59375 56 35.59375 56 
Q 45.5625 56 51.78125 48.09375 
Q 58.015625 40.1875 58.015625 27.296875 
Q 58.015625 14.40625 51.78125 6.484375 
Q 45.5625 -1.421875 35.59375 -1.421875 
Q 29.59375 -1.421875 25.265625 0.953125 
Q 20.953125 3.328125 18.109375 8.203125 
L 18.109375 0 
L 9.078125 0 
L 9.078125 75.984375 
L 18.109375 75.984375 
z
" id="DejaVuSans-98"/>
       </defs>
       <use xlink:href="#DejaVuSans-70"/>
       <use x="52.019531" xlink:href="#DejaVuSans-101"/>
       <use x="113.542969" xlink:href="#DejaVuSans-98"/>
      </g>
     </g>
    </g>
    <g id="xtick_3">
     <g id="line2d_3">
      <g>
       <use style="fill:#252627;stroke:#252627;stroke-width:0.8;" x="107.58731" xlink:href="#m4701734ad2" y="437.3688"/>
      </g>
     </g>
     <g id="text_2">
      <!-- Mar -->
      <g style="fill:#252627;" transform="translate(92.49356 456.5263)scale(0.16 -0.16)">
       <defs>
        <path d="M 9.8125 72.90625 
L 24.515625 72.90625 
L 43.109375 23.296875 
L 61.8125 72.90625 
L 76.515625 72.90625 
L 76.515625 0 
L 66.890625 0 
L 66.890625 64.015625 
L 48.09375 14.015625 
L 38.1875 14.015625 
L 19.390625 64.015625 
L 19.390625 0 
L 9.8125 0 
z
" id="DejaVuSans-77"/>
        <path d="M 34.28125 27.484375 
Q 23.390625 27.484375 19.1875 25 
Q 14.984375 22.515625 14.984375 16.5 
Q 14.984375 11.71875 18.140625 8.90625 
Q 21.296875 6.109375 26.703125 6.109375 
Q 34.1875 6.109375 38.703125 11.40625 
Q 43.21875 16.703125 43.21875 25.484375 
L 43.21875 27.484375 
z
M 52.203125 31.203125 
L 52.203125 0 
L 43.21875 0 
L 43.21875 8.296875 
Q 40.140625 3.328125 35.546875 0.953125 
Q 30.953125 -1.421875 24.3125 -1.421875 
Q 15.921875 -1.421875 10.953125 3.296875 
Q 6 8.015625 6 15.921875 
Q 6 25.140625 12.171875 29.828125 
Q 18.359375 34.515625 30.609375 34.515625 
L 43.21875 34.515625 
L 43.21875 35.40625 
Q 43.21875 41.609375 39.140625 45 
Q 35.0625 48.390625 27.6875 48.390625 
Q 23 48.390625 18.546875 47.265625 
Q 14.109375 46.140625 10.015625 43.890625 
L 10.015625 52.203125 
Q 14.9375 54.109375 19.578125 55.046875 
Q 24.21875 56 28.609375 56 
Q 40.484375 56 46.34375 49.84375 
Q 52.203125 43.703125 52.203125 31.203125 
z
" id="DejaVuSans-97"/>
        <path d="M 41.109375 46.296875 
Q 39.59375 47.171875 37.8125 47.578125 
Q 36.03125 48 33.890625 48 
Q 26.265625 48 22.1875 43.046875 
Q 18.109375 38.09375 18.109375 28.8125 
L 18.109375 0 
L 9.078125 0 
L 9.078125 54.6875 
L 18.109375 54.6875 
L 18.109375 46.1875 
Q 20.953125 51.171875 25.484375 53.578125 
Q 30.03125 56 36.53125 56 
Q 37.453125 56 38.578125 55.875 
Q 39.703125 55.765625 41.0625 55.515625 
z
" id="DejaVuSans-114"/>
       </defs>
       <use xlink:href="#DejaVuSans-77"/>
       <use x="86.279297" xlink:href="#DejaVuSans-97"/>
       <use x="147.558594" xlink:href="#DejaVuSans-114"/>
      </g>
     </g>
    </g>
    <g id="xtick_4">
     <g id="line2d_4">
      <g>
       <use style="fill:#252627;stroke:#252627;stroke-width:0.8;" x="151.490863" xlink:href="#m4701734ad2" y="437.3688"/>
      </g>
     </g>
     <g id="text_3">
      <!-- Apr -->
      <g style="fill:#252627;" transform="translate(137.650863 456.5263)scale(0.16 -0.16)">
       <defs>
        <path d="M 34.1875 63.1875 
L 20.796875 26.90625 
L 47.609375 26.90625 
z
M 28.609375 72.90625 
L 39.796875 72.90625 
L 67.578125 0 
L 57.328125 0 
L 50.6875 18.703125 
L 17.828125 18.703125 
L 11.1875 0 
L 0.78125 0 
z
" id="DejaVuSans-65"/>
        <path d="M 18.109375 8.203125 
L 18.109375 -20.796875 
L 9.078125 -20.796875 
L 9.078125 54.6875 
L 18.109375 54.6875 
L 18.109375 46.390625 
Q 20.953125 51.265625 25.265625 53.625 
Q 29.59375 56 35.59375 56 
Q 45.5625 56 51.78125 48.09375 
Q 58.015625 40.1875 58.015625 27.296875 
Q 58.015625 14.40625 51.78125 6.484375 
Q 45.5625 -1.421875 35.59375 -1.421875 
Q 29.59375 -1.421875 25.265625 0.953125 
Q 20.953125 3.328125 18.109375 8.203125 
z
M 48.6875 27.296875 
Q 48.6875 37.203125 44.609375 42.84375 
Q 40.53125 48.484375 33.40625 48.484375 
Q 26.265625 48.484375 22.1875 42.84375 
Q 18.109375 37.203125 18.109375 27.296875 
Q 18.109375 17.390625 22.1875 11.75 
Q 26.265625 6.109375 33.40625 6.109375 
Q 40.53125 6.109375 44.609375 11.75 
Q 48.6875 17.390625 48.6875 27.296875 
z
" id="DejaVuSans-112"/>
       </defs>
       <use xlink:href="#DejaVuSans-65"/>
       <use x="68.408203" xlink:href="#DejaVuSans-112"/>
       <use x="131.884766" xlink:href="#DejaVuSans-114"/>
      </g>
     </g>
    </g>
    <g id="xtick_5">
     <g id="line2d_5">
      <g>
       <use style="fill:#252627;stroke:#252627;stroke-width:0.8;" x="193.978173" xlink:href="#m4701734ad2" y="437.3688"/>
      </g>
     </g>
     <g id="text_4">
      <!-- May -->
      <g style="fill:#252627;" transform="translate(177.438173 456.5263)scale(0.16 -0.16)">
       <defs>
        <path d="M 32.171875 -5.078125 
Q 28.375 -14.84375 24.75 -17.8125 
Q 21.140625 -20.796875 15.09375 -20.796875 
L 7.90625 -20.796875 
L 7.90625 -13.28125 
L 13.1875 -13.28125 
Q 16.890625 -13.28125 18.9375 -11.515625 
Q 21 -9.765625 23.484375 -3.21875 
L 25.09375 0.875 
L 2.984375 54.6875 
L 12.5 54.6875 
L 29.59375 11.921875 
L 46.6875 54.6875 
L 56.203125 54.6875 
z
" id="DejaVuSans-121"/>
       </defs>
       <use xlink:href="#DejaVuSans-77"/>
       <use x="86.279297" xlink:href="#DejaVuSans-97"/>
       <use x="147.558594" xlink:href="#DejaVuSans-121"/>
      </g>
     </g>
    </g>
    <g id="xtick_6">
     <g id="line2d_6">
      <g>
       <use style="fill:#252627;stroke:#252627;stroke-width:0.8;" x="237.881726" xlink:href="#m4701734ad2" y="437.3688"/>
      </g>
     </g>
     <g id="text_5">
      <!-- Jun -->
      <g style="fill:#252627;" transform="translate(225.381726 456.5263)scale(0.16 -0.16)">
       <defs>
        <path d="M 9.8125 72.90625 
L 19.671875 72.90625 
L 19.671875 5.078125 
Q 19.671875 -8.109375 14.671875 -14.0625 
Q 9.671875 -20.015625 -1.421875 -20.015625 
L -5.171875 -20.015625 
L -5.171875 -11.71875 
L -2.09375 -11.71875 
Q 4.4375 -11.71875 7.125 -8.046875 
Q 9.8125 -4.390625 9.8125 5.078125 
z
" id="DejaVuSans-74"/>
        <path d="M 8.5 21.578125 
L 8.5 54.6875 
L 17.484375 54.6875 
L 17.484375 21.921875 
Q 17.484375 14.15625 20.5 10.265625 
Q 23.53125 6.390625 29.59375 6.390625 
Q 36.859375 6.390625 41.078125 11.03125 
Q 45.3125 15.671875 45.3125 23.6875 
L 45.3125 54.6875 
L 54.296875 54.6875 
L 54.296875 0 
L 45.3125 0 
L 45.3125 8.40625 
Q 42.046875 3.421875 37.71875 1 
Q 33.40625 -1.421875 27.6875 -1.421875 
Q 18.265625 -1.421875 13.375 4.4375 
Q 8.5 10.296875 8.5 21.578125 
z
M 31.109375 56 
z
" id="DejaVuSans-117"/>
        <path d="M 54.890625 33.015625 
L 54.890625 0 
L 45.90625 0 
L 45.90625 32.71875 
Q 45.90625 40.484375 42.875 44.328125 
Q 39.84375 48.1875 33.796875 48.1875 
Q 26.515625 48.1875 22.3125 43.546875 
Q 18.109375 38.921875 18.109375 30.90625 
L 18.109375 0 
L 9.078125 0 
L 9.078125 54.6875 
L 18.109375 54.6875 
L 18.109375 46.1875 
Q 21.34375 51.125 25.703125 53.5625 
Q 30.078125 56 35.796875 56 
Q 45.21875 56 50.046875 50.171875 
Q 54.890625 44.34375 54.890625 33.015625 
z
" id="DejaVuSans-110"/>
       </defs>
       <use xlink:href="#DejaVuSans-74"/>
       <use x="29.492188" xlink:href="#DejaVuSans-117"/>
       <use x="92.871094" xlink:href="#DejaVuSans-110"/>
      </g>
     </g>
    </g>
    <g id="xtick_7">
     <g id="line2d_7">
      <g>
       <use style="fill:#252627;stroke:#252627;stroke-width:0.8;" x="280.369036" xlink:href="#m4701734ad2" y="437.3688"/>
      </g>
     </g>
     <g id="text_6">
      <!-- Jul -->
      <g style="fill:#252627;" transform="translate(270.716536 456.5263)scale(0.16 -0.16)">
       <defs>
        <path d="M 9.421875 75.984375 
L 18.40625 75.984375 
L 18.40625 0 
L 9.421875 0 
z
" id="DejaVuSans-108"/>
       </defs>
       <use xlink:href="#DejaVuSans-74"/>
       <use x="29.492188" xlink:href="#DejaVuSans-117"/>
       <use x="92.871094" xlink:href="#DejaVuSans-108"/>
      </g>
     </g>
    </g>
    <g id="xtick_8">
     <g id="line2d_8">
      <g>
       <use style="fill:#252627;stroke:#252627;stroke-width:0.8;" x="324.272589" xlink:href="#m4701734ad2" y="437.3688"/>
      </g>
     </g>
     <g id="text_7">
      <!-- Aug -->
      <g style="fill:#252627;" transform="translate(308.651339 456.5263)scale(0.16 -0.16)">
       <defs>
        <path d="M 45.40625 27.984375 
Q 45.40625 37.75 41.375 43.109375 
Q 37.359375 48.484375 30.078125 48.484375 
Q 22.859375 48.484375 18.828125 43.109375 
Q 14.796875 37.75 14.796875 27.984375 
Q 14.796875 18.265625 18.828125 12.890625 
Q 22.859375 7.515625 30.078125 7.515625 
Q 37.359375 7.515625 41.375 12.890625 
Q 45.40625 18.265625 45.40625 27.984375 
z
M 54.390625 6.78125 
Q 54.390625 -7.171875 48.1875 -13.984375 
Q 42 -20.796875 29.203125 -20.796875 
Q 24.46875 -20.796875 20.265625 -20.09375 
Q 16.0625 -19.390625 12.109375 -17.921875 
L 12.109375 -9.1875 
Q 16.0625 -11.328125 19.921875 -12.34375 
Q 23.78125 -13.375 27.78125 -13.375 
Q 36.625 -13.375 41.015625 -8.765625 
Q 45.40625 -4.15625 45.40625 5.171875 
L 45.40625 9.625 
Q 42.625 4.78125 38.28125 2.390625 
Q 33.9375 0 27.875 0 
Q 17.828125 0 11.671875 7.65625 
Q 5.515625 15.328125 5.515625 27.984375 
Q 5.515625 40.671875 11.671875 48.328125 
Q 17.828125 56 27.875 56 
Q 33.9375 56 38.28125 53.609375 
Q 42.625 51.21875 45.40625 46.390625 
L 45.40625 54.6875 
L 54.390625 54.6875 
z
" id="DejaVuSans-103"/>
       </defs>
       <use xlink:href="#DejaVuSans-65"/>
       <use x="68.408203" xlink:href="#DejaVuSans-117"/>
       <use x="131.787109" xlink:href="#DejaVuSans-103"/>
      </g>
     </g>
    </g>
    <g id="xtick_9">
     <g id="line2d_9">
      <g>
       <use style="fill:#252627;stroke:#252627;stroke-width:0.8;" x="368.176142" xlink:href="#m4701734ad2" y="437.3688"/>
      </g>
     </g>
     <g id="text_8">
      <!-- Sep -->
      <g style="fill:#252627;" transform="translate(353.096142 456.5263)scale(0.16 -0.16)">
       <defs>
        <path d="M 53.515625 70.515625 
L 53.515625 60.890625 
Q 47.90625 63.578125 42.921875 64.890625 
Q 37.9375 66.21875 33.296875 66.21875 
Q 25.25 66.21875 20.875 63.09375 
Q 16.5 59.96875 16.5 54.203125 
Q 16.5 49.359375 19.40625 46.890625 
Q 22.3125 44.4375 30.421875 42.921875 
L 36.375 41.703125 
Q 47.40625 39.59375 52.65625 34.296875 
Q 57.90625 29 57.90625 20.125 
Q 57.90625 9.515625 50.796875 4.046875 
Q 43.703125 -1.421875 29.984375 -1.421875 
Q 24.8125 -1.421875 18.96875 -0.25 
Q 13.140625 0.921875 6.890625 3.21875 
L 6.890625 13.375 
Q 12.890625 10.015625 18.65625 8.296875 
Q 24.421875 6.59375 29.984375 6.59375 
Q 38.421875 6.59375 43.015625 9.90625 
Q 47.609375 13.234375 47.609375 19.390625 
Q 47.609375 24.75 44.3125 27.78125 
Q 41.015625 30.8125 33.5 32.328125 
L 27.484375 33.5 
Q 16.453125 35.6875 11.515625 40.375 
Q 6.59375 45.0625 6.59375 53.421875 
Q 6.59375 63.09375 13.40625 68.65625 
Q 20.21875 74.21875 32.171875 74.21875 
Q 37.3125 74.21875 42.625 73.28125 
Q 47.953125 72.359375 53.515625 70.515625 
z
" id="DejaVuSans-83"/>
       </defs>
       <use xlink:href="#DejaVuSans-83"/>
       <use x="63.476562" xlink:href="#DejaVuSans-101"/>
       <use x="125" xlink:href="#DejaVuSans-112"/>
      </g>
     </g>
    </g>
    <g id="xtick_10">
     <g id="line2d_10">
      <g>
       <use style="fill:#252627;stroke:#252627;stroke-width:0.8;" x="410.663452" xlink:href="#m4701734ad2" y="437.3688"/>
      </g>
     </g>
     <g id="text_9">
      <!-- Oct -->
      <g style="fill:#252627;" transform="translate(396.830952 456.5263)scale(0.16 -0.16)">
       <defs>
        <path d="M 39.40625 66.21875 
Q 28.65625 66.21875 22.328125 58.203125 
Q 16.015625 50.203125 16.015625 36.375 
Q 16.015625 22.609375 22.328125 14.59375 
Q 28.65625 6.59375 39.40625 6.59375 
Q 50.140625 6.59375 56.421875 14.59375 
Q 62.703125 22.609375 62.703125 36.375 
Q 62.703125 50.203125 56.421875 58.203125 
Q 50.140625 66.21875 39.40625 66.21875 
z
M 39.40625 74.21875 
Q 54.734375 74.21875 63.90625 63.9375 
Q 73.09375 53.65625 73.09375 36.375 
Q 73.09375 19.140625 63.90625 8.859375 
Q 54.734375 -1.421875 39.40625 -1.421875 
Q 24.03125 -1.421875 14.8125 8.828125 
Q 5.609375 19.09375 5.609375 36.375 
Q 5.609375 53.65625 14.8125 63.9375 
Q 24.03125 74.21875 39.40625 74.21875 
z
" id="DejaVuSans-79"/>
        <path d="M 48.78125 52.59375 
L 48.78125 44.1875 
Q 44.96875 46.296875 41.140625 47.34375 
Q 37.3125 48.390625 33.40625 48.390625 
Q 24.65625 48.390625 19.8125 42.84375 
Q 14.984375 37.3125 14.984375 27.296875 
Q 14.984375 17.28125 19.8125 11.734375 
Q 24.65625 6.203125 33.40625 6.203125 
Q 37.3125 6.203125 41.140625 7.25 
Q 44.96875 8.296875 48.78125 10.40625 
L 48.78125 2.09375 
Q 45.015625 0.34375 40.984375 -0.53125 
Q 36.96875 -1.421875 32.421875 -1.421875 
Q 20.0625 -1.421875 12.78125 6.34375 
Q 5.515625 14.109375 5.515625 27.296875 
Q 5.515625 40.671875 12.859375 48.328125 
Q 20.21875 56 33.015625 56 
Q 37.15625 56 41.109375 55.140625 
Q 45.0625 54.296875 48.78125 52.59375 
z
" id="DejaVuSans-99"/>
        <path d="M 18.3125 70.21875 
L 18.3125 54.6875 
L 36.8125 54.6875 
L 36.8125 47.703125 
L 18.3125 47.703125 
L 18.3125 18.015625 
Q 18.3125 11.328125 20.140625 9.421875 
Q 21.96875 7.515625 27.59375 7.515625 
L 36.8125 7.515625 
L 36.8125 0 
L 27.59375 0 
Q 17.1875 0 13.234375 3.875 
Q 9.28125 7.765625 9.28125 18.015625 
L 9.28125 47.703125 
L 2.6875 47.703125 
L 2.6875 54.6875 
L 9.28125 54.6875 
L 9.28125 70.21875 
z
" id="DejaVuSans-116"/>
       </defs>
       <use xlink:href="#DejaVuSans-79"/>
       <use x="78.710938" xlink:href="#DejaVuSans-99"/>
       <use x="133.691406" xlink:href="#DejaVuSans-116"/>
      </g>
     </g>
    </g>
    <g id="xtick_11">
     <g id="line2d_11">
      <g>
       <use style="fill:#252627;stroke:#252627;stroke-width:0.8;" x="454.567005" xlink:href="#m4701734ad2" y="437.3688"/>
      </g>
     </g>
     <g id="text_10">
      <!-- Nov -->
      <g style="fill:#252627;" transform="translate(438.952005 456.5263)scale(0.16 -0.16)">
       <defs>
        <path d="M 9.8125 72.90625 
L 23.09375 72.90625 
L 55.421875 11.921875 
L 55.421875 72.90625 
L 64.984375 72.90625 
L 64.984375 0 
L 51.703125 0 
L 19.390625 60.984375 
L 19.390625 0 
L 9.8125 0 
z
" id="DejaVuSans-78"/>
        <path d="M 30.609375 48.390625 
Q 23.390625 48.390625 19.1875 42.75 
Q 14.984375 37.109375 14.984375 27.296875 
Q 14.984375 17.484375 19.15625 11.84375 
Q 23.34375 6.203125 30.609375 6.203125 
Q 37.796875 6.203125 41.984375 11.859375 
Q 46.1875 17.53125 46.1875 27.296875 
Q 46.1875 37.015625 41.984375 42.703125 
Q 37.796875 48.390625 30.609375 48.390625 
z
M 30.609375 56 
Q 42.328125 56 49.015625 48.375 
Q 55.71875 40.765625 55.71875 27.296875 
Q 55.71875 13.875 49.015625 6.21875 
Q 42.328125 -1.421875 30.609375 -1.421875 
Q 18.84375 -1.421875 12.171875 6.21875 
Q 5.515625 13.875 5.515625 27.296875 
Q 5.515625 40.765625 12.171875 48.375 
Q 18.84375 56 30.609375 56 
z
" id="DejaVuSans-111"/>
        <path d="M 2.984375 54.6875 
L 12.5 54.6875 
L 29.59375 8.796875 
L 46.6875 54.6875 
L 56.203125 54.6875 
L 35.6875 0 
L 23.484375 0 
z
" id="DejaVuSans-118"/>
       </defs>
       <use xlink:href="#DejaVuSans-78"/>
       <use x="74.804688" xlink:href="#DejaVuSans-111"/>
       <use x="135.986328" xlink:href="#DejaVuSans-118"/>
      </g>
     </g>
    </g>
    <g id="xtick_12">
     <g id="line2d_12">
      <g>
       <use style="fill:#252627;stroke:#252627;stroke-width:0.8;" x="497.054315" xlink:href="#m4701734ad2" y="437.3688"/>
      </g>
     </g>
     <g id="text_11">
      <!-- Dec -->
      <g style="fill:#252627;" transform="translate(481.573065 456.5263)scale(0.16 -0.16)">
       <defs>
        <path d="M 19.671875 64.796875 
L 19.671875 8.109375 
L 31.59375 8.109375 
Q 46.6875 8.109375 53.6875 14.9375 
Q 60.6875 21.78125 60.6875 36.53125 
Q 60.6875 51.171875 53.6875 57.984375 
Q 46.6875 64.796875 31.59375 64.796875 
z
M 9.8125 72.90625 
L 30.078125 72.90625 
Q 51.265625 72.90625 61.171875 64.09375 
Q 71.09375 55.28125 71.09375 36.53125 
Q 71.09375 17.671875 61.125 8.828125 
Q 51.171875 0 30.078125 0 
L 9.8125 0 
z
" id="DejaVuSans-68"/>
       </defs>
       <use xlink:href="#DejaVuSans-68"/>
       <use x="77.001953" xlink:href="#DejaVuSans-101"/>
       <use x="138.525391" xlink:href="#DejaVuSans-99"/>
      </g>
     </g>
    </g>
    <g id="xtick_13">
     <g id="line2d_13">
      <g>
       <use style="fill:#252627;stroke:#252627;stroke-width:0.8;" x="540.957868" xlink:href="#m4701734ad2" y="437.3688"/>
      </g>
     </g>
     <g id="text_12">
      <!-- Jan -->
      <g style="fill:#252627;" transform="translate(528.625368 456.5263)scale(0.16 -0.16)">
       <use xlink:href="#DejaVuSans-74"/>
       <use x="29.492188" xlink:href="#DejaVuSans-97"/>
       <use x="90.771484" xlink:href="#DejaVuSans-110"/>
      </g>
      <!-- 2021 -->
      <g style="fill:#252627;" transform="translate(520.597868 474.4428)scale(0.16 -0.16)">
       <defs>
        <path d="M 19.1875 8.296875 
L 53.609375 8.296875 
L 53.609375 0 
L 7.328125 0 
L 7.328125 8.296875 
Q 12.9375 14.109375 22.625 23.890625 
Q 32.328125 33.6875 34.8125 36.53125 
Q 39.546875 41.84375 41.421875 45.53125 
Q 43.3125 49.21875 43.3125 52.78125 
Q 43.3125 58.59375 39.234375 62.25 
Q 35.15625 65.921875 28.609375 65.921875 
Q 23.96875 65.921875 18.8125 64.3125 
Q 13.671875 62.703125 7.8125 59.421875 
L 7.8125 69.390625 
Q 13.765625 71.78125 18.9375 73 
Q 24.125 74.21875 28.421875 74.21875 
Q 39.75 74.21875 46.484375 68.546875 
Q 53.21875 62.890625 53.21875 53.421875 
Q 53.21875 48.921875 51.53125 44.890625 
Q 49.859375 40.875 45.40625 35.40625 
Q 44.1875 33.984375 37.640625 27.21875 
Q 31.109375 20.453125 19.1875 8.296875 
z
" id="DejaVuSans-50"/>
        <path d="M 31.78125 66.40625 
Q 24.171875 66.40625 20.328125 58.90625 
Q 16.5 51.421875 16.5 36.375 
Q 16.5 21.390625 20.328125 13.890625 
Q 24.171875 6.390625 31.78125 6.390625 
Q 39.453125 6.390625 43.28125 13.890625 
Q 47.125 21.390625 47.125 36.375 
Q 47.125 51.421875 43.28125 58.90625 
Q 39.453125 66.40625 31.78125 66.40625 
z
M 31.78125 74.21875 
Q 44.046875 74.21875 50.515625 64.515625 
Q 56.984375 54.828125 56.984375 36.375 
Q 56.984375 17.96875 50.515625 8.265625 
Q 44.046875 -1.421875 31.78125 -1.421875 
Q 19.53125 -1.421875 13.0625 8.265625 
Q 6.59375 17.96875 6.59375 36.375 
Q 6.59375 54.828125 13.0625 64.515625 
Q 19.53125 74.21875 31.78125 74.21875 
z
" id="DejaVuSans-48"/>
        <path d="M 12.40625 8.296875 
L 28.515625 8.296875 
L 28.515625 63.921875 
L 10.984375 60.40625 
L 10.984375 69.390625 
L 28.421875 72.90625 
L 38.28125 72.90625 
L 38.28125 8.296875 
L 54.390625 8.296875 
L 54.390625 0 
L 12.40625 0 
z
" id="DejaVuSans-49"/>
       </defs>
       <use xlink:href="#DejaVuSans-50"/>
       <use x="63.623047" xlink:href="#DejaVuSans-48"/>
       <use x="127.246094" xlink:href="#DejaVuSans-50"/>
       <use x="190.869141" xlink:href="#DejaVuSans-49"/>
      </g>
     </g>
    </g>
    <g id="xtick_14">
     <g id="line2d_14">
      <g>
       <use style="fill:#252627;stroke:#252627;stroke-width:0.8;" x="584.861421" xlink:href="#m4701734ad2" y="437.3688"/>
      </g>
     </g>
     <g id="text_13">
      <!-- Feb -->
      <g style="fill:#252627;" transform="translate(570.698921 456.5263)scale(0.16 -0.16)">
       <use xlink:href="#DejaVuSans-70"/>
       <use x="52.019531" xlink:href="#DejaVuSans-101"/>
       <use x="113.542969" xlink:href="#DejaVuSans-98"/>
      </g>
     </g>
    </g>
    <g id="xtick_15">
     <g id="line2d_15">
      <g>
       <use style="fill:#252627;stroke:#252627;stroke-width:0.8;" x="623.1" xlink:href="#m4701734ad2" y="437.3688"/>
      </g>
     </g>
    </g>
    <g id="xtick_16">
     <g id="line2d_16">
      <defs>
       <path d="M 0 0 
L 0 2 
" id="m7fff9ad038" style="stroke:#252627;stroke-width:0.6;"/>
      </defs>
      <g>
       <use style="fill:#252627;stroke:#252627;stroke-width:0.6;" x="69.348731" xlink:href="#m7fff9ad038" y="437.3688"/>
      </g>
     </g>
    </g>
    <g id="xtick_17">
     <g id="line2d_17">
      <g>
       <use style="fill:#252627;stroke:#252627;stroke-width:0.6;" x="79.262437" xlink:href="#m7fff9ad038" y="437.3688"/>
      </g>
     </g>
    </g>
    <g id="xtick_18">
     <g id="line2d_18">
      <g>
       <use style="fill:#252627;stroke:#252627;stroke-width:0.6;" x="89.176142" xlink:href="#m7fff9ad038" y="437.3688"/>
      </g>
     </g>
    </g>
    <g id="xtick_19">
     <g id="line2d_19">
      <g>
       <use style="fill:#252627;stroke:#252627;stroke-width:0.6;" x="99.089848" xlink:href="#m7fff9ad038" y="437.3688"/>
      </g>
     </g>
    </g>
    <g id="xtick_20">
     <g id="line2d_20">
      <g>
       <use style="fill:#252627;stroke:#252627;stroke-width:0.6;" x="109.003553" xlink:href="#m7fff9ad038" y="437.3688"/>
      </g>
     </g>
    </g>
    <g id="xtick_21">
     <g id="line2d_21">
      <g>
       <use style="fill:#252627;stroke:#252627;stroke-width:0.6;" x="118.917259" xlink:href="#m7fff9ad038" y="437.3688"/>
      </g>
     </g>
    </g>
    <g id="xtick_22">
     <g id="line2d_22">
      <g>
       <use style="fill:#252627;stroke:#252627;stroke-width:0.6;" x="128.830964" xlink:href="#m7fff9ad038" y="437.3688"/>
      </g>
     </g>
    </g>
    <g id="xtick_23">
     <g id="line2d_23">
      <g>
       <use style="fill:#252627;stroke:#252627;stroke-width:0.6;" x="138.74467" xlink:href="#m7fff9ad038" y="437.3688"/>
      </g>
     </g>
    </g>
    <g id="xtick_24">
     <g id="line2d_24">
      <g>
       <use style="fill:#252627;stroke:#252627;stroke-width:0.6;" x="148.658376" xlink:href="#m7fff9ad038" y="437.3688"/>
      </g>
     </g>
    </g>
    <g id="xtick_25">
     <g id="line2d_25">
      <g>
       <use style="fill:#252627;stroke:#252627;stroke-width:0.6;" x="158.572081" xlink:href="#m7fff9ad038" y="437.3688"/>
      </g>
     </g>
    </g>
    <g id="xtick_26">
     <g id="line2d_26">
      <g>
       <use style="fill:#252627;stroke:#252627;stroke-width:0.6;" x="168.485787" xlink:href="#m7fff9ad038" y="437.3688"/>
      </g>
     </g>
    </g>
    <g id="xtick_27">
     <g id="line2d_27">
      <g>
       <use style="fill:#252627;stroke:#252627;stroke-width:0.6;" x="178.399492" xlink:href="#m7fff9ad038" y="437.3688"/>
      </g>
     </g>
    </g>
    <g id="xtick_28">
     <g id="line2d_28">
      <g>
       <use style="fill:#252627;stroke:#252627;stroke-width:0.6;" x="188.313198" xlink:href="#m7fff9ad038" y="437.3688"/>
      </g>
     </g>
    </g>
    <g id="xtick_29">
     <g id="line2d_29">
      <g>
       <use style="fill:#252627;stroke:#252627;stroke-width:0.6;" x="198.226904" xlink:href="#m7fff9ad038" y="437.3688"/>
      </g>
     </g>
    </g>
    <g id="xtick_30">
     <g id="line2d_30">
      <g>
       <use style="fill:#252627;stroke:#252627;stroke-width:0.6;" x="208.140609" xlink:href="#m7fff9ad038" y="437.3688"/>
      </g>
     </g>
    </g>
    <g id="xtick_31">
     <g id="line2d_31">
      <g>
       <use style="fill:#252627;stroke:#252627;stroke-width:0.6;" x="218.054315" xlink:href="#m7fff9ad038" y="437.3688"/>
      </g>
     </g>
    </g>
    <g id="xtick_32">
     <g id="line2d_32">
      <g>
       <use style="fill:#252627;stroke:#252627;stroke-width:0.6;" x="227.96802" xlink:href="#m7fff9ad038" y="437.3688"/>
      </g>
     </g>
    </g>
    <g id="xtick_33">
     <g id="line2d_33">
      <g>
       <use style="fill:#252627;stroke:#252627;stroke-width:0.6;" x="247.795431" xlink:href="#m7fff9ad038" y="437.3688"/>
      </g>
     </g>
    </g>
    <g id="xtick_34">
     <g id="line2d_34">
      <g>
       <use style="fill:#252627;stroke:#252627;stroke-width:0.6;" x="257.709137" xlink:href="#m7fff9ad038" y="437.3688"/>
      </g>
     </g>
    </g>
    <g id="xtick_35">
     <g id="line2d_35">
      <g>
       <use style="fill:#252627;stroke:#252627;stroke-width:0.6;" x="267.622843" xlink:href="#m7fff9ad038" y="437.3688"/>
      </g>
     </g>
    </g>
    <g id="xtick_36">
     <g id="line2d_36">
      <g>
       <use style="fill:#252627;stroke:#252627;stroke-width:0.6;" x="277.536548" xlink:href="#m7fff9ad038" y="437.3688"/>
      </g>
     </g>
    </g>
    <g id="xtick_37">
     <g id="line2d_37">
      <g>
       <use style="fill:#252627;stroke:#252627;stroke-width:0.6;" x="287.450254" xlink:href="#m7fff9ad038" y="437.3688"/>
      </g>
     </g>
    </g>
    <g id="xtick_38">
     <g id="line2d_38">
      <g>
       <use style="fill:#252627;stroke:#252627;stroke-width:0.6;" x="297.363959" xlink:href="#m7fff9ad038" y="437.3688"/>
      </g>
     </g>
    </g>
    <g id="xtick_39">
     <g id="line2d_39">
      <g>
       <use style="fill:#252627;stroke:#252627;stroke-width:0.6;" x="307.277665" xlink:href="#m7fff9ad038" y="437.3688"/>
      </g>
     </g>
    </g>
    <g id="xtick_40">
     <g id="line2d_40">
      <g>
       <use style="fill:#252627;stroke:#252627;stroke-width:0.6;" x="317.191371" xlink:href="#m7fff9ad038" y="437.3688"/>
      </g>
     </g>
    </g>
    <g id="xtick_41">
     <g id="line2d_41">
      <g>
       <use style="fill:#252627;stroke:#252627;stroke-width:0.6;" x="327.105076" xlink:href="#m7fff9ad038" y="437.3688"/>
      </g>
     </g>
    </g>
    <g id="xtick_42">
     <g id="line2d_42">
      <g>
       <use style="fill:#252627;stroke:#252627;stroke-width:0.6;" x="337.018782" xlink:href="#m7fff9ad038" y="437.3688"/>
      </g>
     </g>
    </g>
    <g id="xtick_43">
     <g id="line2d_43">
      <g>
       <use style="fill:#252627;stroke:#252627;stroke-width:0.6;" x="346.932487" xlink:href="#m7fff9ad038" y="437.3688"/>
      </g>
     </g>
    </g>
    <g id="xtick_44">
     <g id="line2d_44">
      <g>
       <use style="fill:#252627;stroke:#252627;stroke-width:0.6;" x="356.846193" xlink:href="#m7fff9ad038" y="437.3688"/>
      </g>
     </g>
    </g>
    <g id="xtick_45">
     <g id="line2d_45">
      <g>
       <use style="fill:#252627;stroke:#252627;stroke-width:0.6;" x="366.759898" xlink:href="#m7fff9ad038" y="437.3688"/>
      </g>
     </g>
    </g>
    <g id="xtick_46">
     <g id="line2d_46">
      <g>
       <use style="fill:#252627;stroke:#252627;stroke-width:0.6;" x="376.673604" xlink:href="#m7fff9ad038" y="437.3688"/>
      </g>
     </g>
    </g>
    <g id="xtick_47">
     <g id="line2d_47">
      <g>
       <use style="fill:#252627;stroke:#252627;stroke-width:0.6;" x="386.58731" xlink:href="#m7fff9ad038" y="437.3688"/>
      </g>
     </g>
    </g>
    <g id="xtick_48">
     <g id="line2d_48">
      <g>
       <use style="fill:#252627;stroke:#252627;stroke-width:0.6;" x="396.501015" xlink:href="#m7fff9ad038" y="437.3688"/>
      </g>
     </g>
    </g>
    <g id="xtick_49">
     <g id="line2d_49">
      <g>
       <use style="fill:#252627;stroke:#252627;stroke-width:0.6;" x="406.414721" xlink:href="#m7fff9ad038" y="437.3688"/>
      </g>
     </g>
    </g>
    <g id="xtick_50">
     <g id="line2d_50">
      <g>
       <use style="fill:#252627;stroke:#252627;stroke-width:0.6;" x="416.328426" xlink:href="#m7fff9ad038" y="437.3688"/>
      </g>
     </g>
    </g>
    <g id="xtick_51">
     <g id="line2d_51">
      <g>
       <use style="fill:#252627;stroke:#252627;stroke-width:0.6;" x="426.242132" xlink:href="#m7fff9ad038" y="437.3688"/>
      </g>
     </g>
    </g>
    <g id="xtick_52">
     <g id="line2d_52">
      <g>
       <use style="fill:#252627;stroke:#252627;stroke-width:0.6;" x="436.155838" xlink:href="#m7fff9ad038" y="437.3688"/>
      </g>
     </g>
    </g>
    <g id="xtick_53">
     <g id="line2d_53">
      <g>
       <use style="fill:#252627;stroke:#252627;stroke-width:0.6;" x="446.069543" xlink:href="#m7fff9ad038" y="437.3688"/>
      </g>
     </g>
    </g>
    <g id="xtick_54">
     <g id="line2d_54">
      <g>
       <use style="fill:#252627;stroke:#252627;stroke-width:0.6;" x="455.983249" xlink:href="#m7fff9ad038" y="437.3688"/>
      </g>
     </g>
    </g>
    <g id="xtick_55">
     <g id="line2d_55">
      <g>
       <use style="fill:#252627;stroke:#252627;stroke-width:0.6;" x="465.896954" xlink:href="#m7fff9ad038" y="437.3688"/>
      </g>
     </g>
    </g>
    <g id="xtick_56">
     <g id="line2d_56">
      <g>
       <use style="fill:#252627;stroke:#252627;stroke-width:0.6;" x="475.81066" xlink:href="#m7fff9ad038" y="437.3688"/>
      </g>
     </g>
    </g>
    <g id="xtick_57">
     <g id="line2d_57">
      <g>
       <use style="fill:#252627;stroke:#252627;stroke-width:0.6;" x="485.724365" xlink:href="#m7fff9ad038" y="437.3688"/>
      </g>
     </g>
    </g>
    <g id="xtick_58">
     <g id="line2d_58">
      <g>
       <use style="fill:#252627;stroke:#252627;stroke-width:0.6;" x="495.638071" xlink:href="#m7fff9ad038" y="437.3688"/>
      </g>
     </g>
    </g>
    <g id="xtick_59">
     <g id="line2d_59">
      <g>
       <use style="fill:#252627;stroke:#252627;stroke-width:0.6;" x="505.551777" xlink:href="#m7fff9ad038" y="437.3688"/>
      </g>
     </g>
    </g>
    <g id="xtick_60">
     <g id="line2d_60">
      <g>
       <use style="fill:#252627;stroke:#252627;stroke-width:0.6;" x="515.465482" xlink:href="#m7fff9ad038" y="437.3688"/>
      </g>
     </g>
    </g>
    <g id="xtick_61">
     <g id="line2d_61">
      <g>
       <use style="fill:#252627;stroke:#252627;stroke-width:0.6;" x="525.379188" xlink:href="#m7fff9ad038" y="437.3688"/>
      </g>
     </g>
    </g>
    <g id="xtick_62">
     <g id="line2d_62">
      <g>
       <use style="fill:#252627;stroke:#252627;stroke-width:0.6;" x="535.292893" xlink:href="#m7fff9ad038" y="437.3688"/>
      </g>
     </g>
    </g>
    <g id="xtick_63">
     <g id="line2d_63">
      <g>
       <use style="fill:#252627;stroke:#252627;stroke-width:0.6;" x="545.206599" xlink:href="#m7fff9ad038" y="437.3688"/>
      </g>
     </g>
    </g>
    <g id="xtick_64">
     <g id="line2d_64">
      <g>
       <use style="fill:#252627;stroke:#252627;stroke-width:0.6;" x="555.120305" xlink:href="#m7fff9ad038" y="437.3688"/>
      </g>
     </g>
    </g>
    <g id="xtick_65">
     <g id="line2d_65">
      <g>
       <use style="fill:#252627;stroke:#252627;stroke-width:0.6;" x="565.03401" xlink:href="#m7fff9ad038" y="437.3688"/>
      </g>
     </g>
    </g>
    <g id="xtick_66">
     <g id="line2d_66">
      <g>
       <use style="fill:#252627;stroke:#252627;stroke-width:0.6;" x="574.947716" xlink:href="#m7fff9ad038" y="437.3688"/>
      </g>
     </g>
    </g>
    <g id="xtick_67">
     <g id="line2d_67">
      <g>
       <use style="fill:#252627;stroke:#252627;stroke-width:0.6;" x="594.775127" xlink:href="#m7fff9ad038" y="437.3688"/>
      </g>
     </g>
    </g>
    <g id="xtick_68">
     <g id="line2d_68">
      <g>
       <use style="fill:#252627;stroke:#252627;stroke-width:0.6;" x="604.688832" xlink:href="#m7fff9ad038" y="437.3688"/>
      </g>
     </g>
    </g>
    <g id="xtick_69">
     <g id="line2d_69">
      <g>
       <use style="fill:#252627;stroke:#252627;stroke-width:0.6;" x="614.602538" xlink:href="#m7fff9ad038" y="437.3688"/>
      </g>
     </g>
    </g>
    <g id="text_14">
     <!-- date -->
     <g style="fill:#252627;" transform="translate(326.06 493.9278)scale(0.16 -0.16)">
      <defs>
       <path d="M 45.40625 46.390625 
L 45.40625 75.984375 
L 54.390625 75.984375 
L 54.390625 0 
L 45.40625 0 
L 45.40625 8.203125 
Q 42.578125 3.328125 38.25 0.953125 
Q 33.9375 -1.421875 27.875 -1.421875 
Q 17.96875 -1.421875 11.734375 6.484375 
Q 5.515625 14.40625 5.515625 27.296875 
Q 5.515625 40.1875 11.734375 48.09375 
Q 17.96875 56 27.875 56 
Q 33.9375 56 38.25 53.625 
Q 42.578125 51.265625 45.40625 46.390625 
z
M 14.796875 27.296875 
Q 14.796875 17.390625 18.875 11.75 
Q 22.953125 6.109375 30.078125 6.109375 
Q 37.203125 6.109375 41.296875 11.75 
Q 45.40625 17.390625 45.40625 27.296875 
Q 45.40625 37.203125 41.296875 42.84375 
Q 37.203125 48.484375 30.078125 48.484375 
Q 22.953125 48.484375 18.875 42.84375 
Q 14.796875 37.203125 14.796875 27.296875 
z
" id="DejaVuSans-100"/>
      </defs>
      <use xlink:href="#DejaVuSans-100"/>
      <use x="63.476562" xlink:href="#DejaVuSans-97"/>
      <use x="124.755859" xlink:href="#DejaVuSans-116"/>
      <use x="163.964844" xlink:href="#DejaVuSans-101"/>
     </g>
    </g>
   </g>
   <g id="matplotlib.axis_2">
    <g id="ytick_1">
     <g id="line2d_70">
      <defs>
       <path d="M 0 0 
L -3.5 0 
" id="md46764abd6" style="stroke:#252627;stroke-width:0.8;"/>
      </defs>
      <g>
       <use style="fill:#252627;stroke:#252627;stroke-width:0.8;" x="65.1" xlink:href="#md46764abd6" y="419.7288"/>
      </g>
     </g>
     <g id="text_15">
      <!-- 0 -->
      <g style="fill:#252627;" transform="translate(47.92 425.80755)scale(0.16 -0.16)">
       <use xlink:href="#DejaVuSans-48"/>
      </g>
     </g>
    </g>
    <g id="ytick_2">
     <g id="line2d_71">
      <g>
       <use style="fill:#252627;stroke:#252627;stroke-width:0.8;" x="65.1" xlink:href="#md46764abd6" y="360.760318"/>
      </g>
     </g>
     <g id="text_16">
      <!-- 10000 -->
      <g style="fill:#252627;" transform="translate(7.2 366.839068)scale(0.16 -0.16)">
       <use xlink:href="#DejaVuSans-49"/>
       <use x="63.623047" xlink:href="#DejaVuSans-48"/>
       <use x="127.246094" xlink:href="#DejaVuSans-48"/>
       <use x="190.869141" xlink:href="#DejaVuSans-48"/>
       <use x="254.492188" xlink:href="#DejaVuSans-48"/>
      </g>
     </g>
    </g>
    <g id="ytick_3">
     <g id="line2d_72">
      <g>
       <use style="fill:#252627;stroke:#252627;stroke-width:0.8;" x="65.1" xlink:href="#md46764abd6" y="301.791836"/>
      </g>
     </g>
     <g id="text_17">
      <!-- 20000 -->
      <g style="fill:#252627;" transform="translate(7.2 307.870586)scale(0.16 -0.16)">
       <use xlink:href="#DejaVuSans-50"/>
       <use x="63.623047" xlink:href="#DejaVuSans-48"/>
       <use x="127.246094" xlink:href="#DejaVuSans-48"/>
       <use x="190.869141" xlink:href="#DejaVuSans-48"/>
       <use x="254.492188" xlink:href="#DejaVuSans-48"/>
      </g>
     </g>
    </g>
    <g id="ytick_4">
     <g id="line2d_73">
      <g>
       <use style="fill:#252627;stroke:#252627;stroke-width:0.8;" x="65.1" xlink:href="#md46764abd6" y="242.823355"/>
      </g>
     </g>
     <g id="text_18">
      <!-- 30000 -->
      <g style="fill:#252627;" transform="translate(7.2 248.902105)scale(0.16 -0.16)">
       <defs>
        <path d="M 40.578125 39.3125 
Q 47.65625 37.796875 51.625 33 
Q 55.609375 28.21875 55.609375 21.1875 
Q 55.609375 10.40625 48.1875 4.484375 
Q 40.765625 -1.421875 27.09375 -1.421875 
Q 22.515625 -1.421875 17.65625 -0.515625 
Q 12.796875 0.390625 7.625 2.203125 
L 7.625 11.71875 
Q 11.71875 9.328125 16.59375 8.109375 
Q 21.484375 6.890625 26.8125 6.890625 
Q 36.078125 6.890625 40.9375 10.546875 
Q 45.796875 14.203125 45.796875 21.1875 
Q 45.796875 27.640625 41.28125 31.265625 
Q 36.765625 34.90625 28.71875 34.90625 
L 20.21875 34.90625 
L 20.21875 43.015625 
L 29.109375 43.015625 
Q 36.375 43.015625 40.234375 45.921875 
Q 44.09375 48.828125 44.09375 54.296875 
Q 44.09375 59.90625 40.109375 62.90625 
Q 36.140625 65.921875 28.71875 65.921875 
Q 24.65625 65.921875 20.015625 65.03125 
Q 15.375 64.15625 9.8125 62.3125 
L 9.8125 71.09375 
Q 15.4375 72.65625 20.34375 73.4375 
Q 25.25 74.21875 29.59375 74.21875 
Q 40.828125 74.21875 47.359375 69.109375 
Q 53.90625 64.015625 53.90625 55.328125 
Q 53.90625 49.265625 50.4375 45.09375 
Q 46.96875 40.921875 40.578125 39.3125 
z
" id="DejaVuSans-51"/>
       </defs>
       <use xlink:href="#DejaVuSans-51"/>
       <use x="63.623047" xlink:href="#DejaVuSans-48"/>
       <use x="127.246094" xlink:href="#DejaVuSans-48"/>
       <use x="190.869141" xlink:href="#DejaVuSans-48"/>
       <use x="254.492188" xlink:href="#DejaVuSans-48"/>
      </g>
     </g>
    </g>
    <g id="ytick_5">
     <g id="line2d_74">
      <g>
       <use style="fill:#252627;stroke:#252627;stroke-width:0.8;" x="65.1" xlink:href="#md46764abd6" y="183.854873"/>
      </g>
     </g>
     <g id="text_19">
      <!-- 40000 -->
      <g style="fill:#252627;" transform="translate(7.2 189.933623)scale(0.16 -0.16)">
       <defs>
        <path d="M 37.796875 64.3125 
L 12.890625 25.390625 
L 37.796875 25.390625 
z
M 35.203125 72.90625 
L 47.609375 72.90625 
L 47.609375 25.390625 
L 58.015625 25.390625 
L 58.015625 17.1875 
L 47.609375 17.1875 
L 47.609375 0 
L 37.796875 0 
L 37.796875 17.1875 
L 4.890625 17.1875 
L 4.890625 26.703125 
z
" id="DejaVuSans-52"/>
       </defs>
       <use xlink:href="#DejaVuSans-52"/>
       <use x="63.623047" xlink:href="#DejaVuSans-48"/>
       <use x="127.246094" xlink:href="#DejaVuSans-48"/>
       <use x="190.869141" xlink:href="#DejaVuSans-48"/>
       <use x="254.492188" xlink:href="#DejaVuSans-48"/>
      </g>
     </g>
    </g>
    <g id="ytick_6">
     <g id="line2d_75">
      <g>
       <use style="fill:#252627;stroke:#252627;stroke-width:0.8;" x="65.1" xlink:href="#md46764abd6" y="124.886391"/>
      </g>
     </g>
     <g id="text_20">
      <!-- 50000 -->
      <g style="fill:#252627;" transform="translate(7.2 130.965141)scale(0.16 -0.16)">
       <defs>
        <path d="M 10.796875 72.90625 
L 49.515625 72.90625 
L 49.515625 64.59375 
L 19.828125 64.59375 
L 19.828125 46.734375 
Q 21.96875 47.46875 24.109375 47.828125 
Q 26.265625 48.1875 28.421875 48.1875 
Q 40.625 48.1875 47.75 41.5 
Q 54.890625 34.8125 54.890625 23.390625 
Q 54.890625 11.625 47.5625 5.09375 
Q 40.234375 -1.421875 26.90625 -1.421875 
Q 22.3125 -1.421875 17.546875 -0.640625 
Q 12.796875 0.140625 7.71875 1.703125 
L 7.71875 11.625 
Q 12.109375 9.234375 16.796875 8.0625 
Q 21.484375 6.890625 26.703125 6.890625 
Q 35.15625 6.890625 40.078125 11.328125 
Q 45.015625 15.765625 45.015625 23.390625 
Q 45.015625 31 40.078125 35.4375 
Q 35.15625 39.890625 26.703125 39.890625 
Q 22.75 39.890625 18.8125 39.015625 
Q 14.890625 38.140625 10.796875 36.28125 
z
" id="DejaVuSans-53"/>
       </defs>
       <use xlink:href="#DejaVuSans-53"/>
       <use x="63.623047" xlink:href="#DejaVuSans-48"/>
       <use x="127.246094" xlink:href="#DejaVuSans-48"/>
       <use x="190.869141" xlink:href="#DejaVuSans-48"/>
       <use x="254.492188" xlink:href="#DejaVuSans-48"/>
      </g>
     </g>
    </g>
    <g id="ytick_7">
     <g id="line2d_76">
      <g>
       <use style="fill:#252627;stroke:#252627;stroke-width:0.8;" x="65.1" xlink:href="#md46764abd6" y="65.917909"/>
      </g>
     </g>
     <g id="text_21">
      <!-- 60000 -->
      <g style="fill:#252627;" transform="translate(7.2 71.996659)scale(0.16 -0.16)">
       <defs>
        <path d="M 33.015625 40.375 
Q 26.375 40.375 22.484375 35.828125 
Q 18.609375 31.296875 18.609375 23.390625 
Q 18.609375 15.53125 22.484375 10.953125 
Q 26.375 6.390625 33.015625 6.390625 
Q 39.65625 6.390625 43.53125 10.953125 
Q 47.40625 15.53125 47.40625 23.390625 
Q 47.40625 31.296875 43.53125 35.828125 
Q 39.65625 40.375 33.015625 40.375 
z
M 52.59375 71.296875 
L 52.59375 62.3125 
Q 48.875 64.0625 45.09375 64.984375 
Q 41.3125 65.921875 37.59375 65.921875 
Q 27.828125 65.921875 22.671875 59.328125 
Q 17.53125 52.734375 16.796875 39.40625 
Q 19.671875 43.65625 24.015625 45.921875 
Q 28.375 48.1875 33.59375 48.1875 
Q 44.578125 48.1875 50.953125 41.515625 
Q 57.328125 34.859375 57.328125 23.390625 
Q 57.328125 12.15625 50.6875 5.359375 
Q 44.046875 -1.421875 33.015625 -1.421875 
Q 20.359375 -1.421875 13.671875 8.265625 
Q 6.984375 17.96875 6.984375 36.375 
Q 6.984375 53.65625 15.1875 63.9375 
Q 23.390625 74.21875 37.203125 74.21875 
Q 40.921875 74.21875 44.703125 73.484375 
Q 48.484375 72.75 52.59375 71.296875 
z
" id="DejaVuSans-54"/>
       </defs>
       <use xlink:href="#DejaVuSans-54"/>
       <use x="63.623047" xlink:href="#DejaVuSans-48"/>
       <use x="127.246094" xlink:href="#DejaVuSans-48"/>
       <use x="190.869141" xlink:href="#DejaVuSans-48"/>
       <use x="254.492188" xlink:href="#DejaVuSans-48"/>
      </g>
     </g>
    </g>
   </g>
   <g id="line2d_77">
    <path clip-path="url(#pda9b4b6910)" d="M 73.597462 419.727957 
L 109.003553 419.629397 
L 114.668528 419.418797 
L 117.501015 419.232622 
L 118.917259 418.925985 
L 121.749746 417.997656 
L 123.16599 418.028821 
L 124.582234 415.658288 
L 125.998477 414.766184 
L 127.414721 413.726652 
L 128.830964 412.257493 
L 130.247208 411.260083 
L 131.663452 409.929082 
L 133.079695 406.514806 
L 134.495939 406.942747 
L 135.912183 403.737391 
L 137.328426 402.063529 
L 138.74467 398.5052 
L 140.160914 396.026 
L 141.577157 389.7349 
L 142.993401 386.181631 
L 144.409645 381.560188 
L 145.825888 379.410362 
L 147.242132 376.477948 
L 148.658376 375.23287 
L 150.074619 372.522001 
L 151.490863 373.730854 
L 152.907107 374.003796 
L 154.32335 374.67688 
L 155.739594 375.137677 
L 157.155838 376.314517 
L 159.988325 380.962077 
L 161.404569 382.57697 
L 162.820812 385.057862 
L 165.653299 388.678527 
L 168.485787 391.572193 
L 169.90203 393.95199 
L 171.318274 394.941817 
L 172.734518 393.002598 
L 174.150761 392.294976 
L 175.567005 395.552566 
L 176.983249 392.904038 
L 178.399492 394.363089 
L 179.815736 393.077576 
L 181.23198 393.829 
L 182.648223 396.077385 
L 184.064467 409.492715 
L 185.480711 407.784315 
L 186.896954 412.180834 
L 188.313198 411.932323 
L 189.729442 414.173126 
L 191.145685 415.914382 
L 192.561929 419.382572 
L 193.978173 409.429536 
L 195.394416 410.73442 
L 196.81066 411.446258 
L 198.226904 412.529592 
L 199.643147 412.521165 
L 201.059391 413.488248 
L 202.475635 412.979439 
L 203.891878 413.291972 
L 205.308122 413.835319 
L 206.724365 413.929668 
L 208.140609 411.789113 
L 209.556853 412.399018 
L 212.38934 412.9112 
L 213.805584 413.55733 
L 215.221827 413.730862 
L 216.638071 414.381202 
L 218.054315 416.215965 
L 220.886802 416.47374 
L 222.303046 416.782906 
L 223.719289 415.81919 
L 225.135533 415.860468 
L 226.551777 415.454428 
L 227.96802 416.532708 
L 229.384264 416.172157 
L 230.800508 416.608524 
L 232.216751 415.627123 
L 233.632995 416.578197 
L 235.049239 416.411404 
L 236.465482 416.606 
L 237.881726 416.158677 
L 239.29797 416.634641 
L 240.714213 416.302731 
L 242.130457 417.408809 
L 244.962944 417.974906 
L 252.044162 418.004391 
L 254.87665 417.795477 
L 257.709137 417.713764 
L 260.541624 417.704495 
L 261.957868 417.571397 
L 263.374112 417.735665 
L 267.622843 417.711235 
L 270.45533 417.704495 
L 271.871574 417.860342 
L 276.120305 417.624468 
L 278.952792 417.606778 
L 283.201523 417.504845 
L 284.617766 417.979966 
L 286.03401 418.23353 
L 287.450254 417.354057 
L 291.698985 417.241173 
L 293.115228 416.895783 
L 295.947716 416.895783 
L 297.363959 416.221019 
L 298.780203 415.947234 
L 300.196447 415.532774 
L 301.61269 414.84368 
L 303.028934 414.382045 
L 305.861421 414.382045 
L 307.277665 412.2457 
L 308.693909 411.662755 
L 310.110152 411.256716 
L 311.526396 410.200337 
L 312.94264 409.480078 
L 315.775127 409.480078 
L 317.191371 407.980592 
L 318.607614 407.58466 
L 320.023858 407.016882 
L 321.440102 406.870304 
L 322.856345 406.165206 
L 325.688832 406.165206 
L 327.105076 404.33634 
L 328.52132 401.023998 
L 329.937563 400.2473 
L 332.770051 397.961004 
L 337.018782 397.888561 
L 338.435025 399.681203 
L 339.851269 399.496714 
L 341.267513 396.580304 
L 342.683756 395.761479 
L 345.516244 395.761479 
L 346.932487 389.316224 
L 348.348731 388.067779 
L 349.764975 385.120198 
L 351.181218 385.550668 
L 352.597462 383.302282 
L 355.429949 383.302282 
L 356.846193 380.679871 
L 358.262437 378.99253 
L 359.67868 378.466024 
L 361.094924 376.259765 
L 362.511168 374.885799 
L 365.343655 374.885799 
L 366.759898 371.356111 
L 368.176142 370.515392 
L 369.592386 369.432895 
L 371.008629 370.021737 
L 372.424873 369.434582 
L 375.25736 369.434582 
L 376.673604 366.917471 
L 378.089848 366.202266 
L 379.506091 365.962182 
L 382.338579 363.00365 
L 385.171066 363.00365 
L 386.58731 362.292655 
L 388.003553 361.8942 
L 389.419797 359.933916 
L 390.836041 359.489966 
L 392.252284 357.631622 
L 395.084772 357.631622 
L 396.501015 354.241771 
L 397.917259 353.094416 
L 399.333503 353.013546 
L 400.749746 353.551003 
L 402.16599 355.334375 
L 404.998477 355.334375 
L 406.414721 355.033635 
L 407.830964 364.130786 
L 409.247208 356.015885 
L 410.663452 357.055411 
L 412.079695 357.853172 
L 414.912183 357.853172 
L 416.328426 364.849364 
L 417.74467 354.742166 
L 419.160914 363.529307 
L 420.577157 360.998722 
L 421.993401 359.766281 
L 424.825888 359.766281 
L 426.242132 356.079907 
L 427.658376 360.190854 
L 429.074619 358.944932 
L 430.490863 358.190979 
L 431.907107 356.170884 
L 434.739594 356.170884 
L 436.155838 347.71902 
L 437.572081 342.028561 
L 438.988325 337.813995 
L 440.404569 331.354423 
L 441.820812 327.424592 
L 444.653299 327.424592 
L 446.069543 315.379018 
L 447.485787 311.550277 
L 450.318274 307.013077 
L 451.734518 302.174288 
L 454.567005 302.174288 
L 455.983249 299.789438 
L 457.399492 299.577989 
L 458.815736 295.132608 
L 460.23198 296.541112 
L 461.648223 299.134888 
L 464.480711 299.134888 
L 465.896954 301.35294 
L 467.313198 317.079834 
L 468.729442 307.43512 
L 470.145685 309.454372 
L 471.561929 310.418925 
L 474.394416 310.418925 
L 475.81066 322.307814 
L 477.226904 311.222583 
L 478.643147 329.058862 
L 480.059391 331.820274 
L 481.475635 337.055832 
L 484.308122 337.055832 
L 485.724365 347.490723 
L 487.140609 348.275004 
L 488.556853 352.56791 
L 489.973096 355.890365 
L 491.38934 359.51524 
L 494.221827 359.51524 
L 495.638071 364.491337 
L 497.054315 367.836536 
L 498.470558 368.587122 
L 501.303046 372.1842 
L 504.135533 372.1842 
L 505.551777 374.120046 
L 506.96802 381.075803 
L 508.384264 380.703459 
L 509.800508 382.533168 
L 511.216751 381.038736 
L 514.049239 381.038736 
L 515.465482 377.982482 
L 516.881726 369.282107 
L 518.29797 368.182764 
L 519.714213 364.664875 
L 521.130457 363.573115 
L 523.962944 363.573115 
L 525.379188 362.980063 
L 526.795431 362.705435 
L 528.211675 361.603567 
L 529.627919 361.15625 
L 531.044162 371.109287 
L 533.87665 371.109287 
L 535.292893 369.046233 
L 536.709137 366.152567 
L 538.125381 362.504942 
L 539.541624 357.968579 
L 543.790355 357.968579 
L 545.206599 352.815577 
L 546.622843 344.719205 
L 548.039086 358.800878 
L 550.871574 316.875131 
L 553.704061 316.875131 
L 555.120305 290.892774 
L 556.536548 289.428676 
L 557.952792 256.685158 
L 559.369036 262.14564 
L 560.785279 249.727721 
L 563.617766 249.727721 
L 565.03401 230.466091 
L 566.450254 223.008258 
L 567.866497 220.727864 
L 569.282741 213.585095 
L 570.698985 211.320705 
L 573.531472 211.320705 
L 574.947716 203.288355 
L 576.363959 201.482239 
L 577.780203 202.569782 
L 579.196447 210.537268 
L 580.61269 214.553021 
L 583.445178 214.553021 
L 584.861421 226.461287 
L 586.277665 232.670669 
L 587.693909 239.990338 
L 589.110152 244.150989 
L 590.526396 252.1985 
L 593.358883 252.1985 
L 594.775127 279.653382 
L 599.023858 311.87629 
L 600.440102 323.656506 
L 603.272589 323.656506 
L 604.688832 337.846009 
L 606.105076 343.191078 
L 607.52132 349.328016 
L 610.353807 354.790178 
L 613.186294 354.790178 
L 614.602538 362.710488 
L 616.018782 364.897376 
L 617.435025 366.259548 
L 618.851269 370.426939 
L 620.267513 373.033346 
L 623.1 373.033346 
L 623.1 373.033346 
" style="fill:none;stroke:#bb0a21;stroke-linecap:square;stroke-width:2;"/>
   </g>
   <g id="line2d_78">
    <path clip-path="url(#pda9b4b6910)" d="M 72.181218 419.721217 
L 109.003553 419.641191 
L 118.917259 419.310967 
L 120.333503 419.139115 
L 127.414721 417.543599 
L 130.247208 416.718878 
L 133.079695 415.732423 
L 135.912183 414.360138 
L 137.328426 413.564064 
L 142.993401 407.567813 
L 144.409645 405.890584 
L 147.242132 403.252163 
L 150.074619 399.773023 
L 151.490863 397.871714 
L 154.32335 394.894643 
L 155.739594 393.858484 
L 157.155838 393.219938 
L 159.988325 391.58483 
L 161.404569 391.425615 
L 162.820812 391.444986 
L 164.237056 391.962228 
L 165.653299 392.349734 
L 167.069543 392.44324 
L 169.90203 394.337815 
L 171.318274 394.390887 
L 172.734518 394.022752 
L 174.150761 393.497933 
L 175.567005 392.551913 
L 176.983249 392.281501 
L 178.399492 391.724668 
L 181.23198 391.023786 
L 182.648223 391.171208 
L 184.064467 391.178791 
L 185.480711 391.99761 
L 186.896954 392.323617 
L 189.729442 392.500522 
L 191.145685 392.54686 
L 193.978173 392.930155 
L 196.81066 393.797829 
L 198.226904 394.910653 
L 199.643147 395.785067 
L 201.059391 397.144715 
L 202.475635 398.149703 
L 203.891878 399.563266 
L 205.308122 400.473061 
L 206.724365 401.024841 
L 208.140609 400.851302 
L 209.556853 401.09897 
L 210.973096 401.550504 
L 212.38934 402.521797 
L 213.805584 402.969114 
L 215.221827 403.034823 
L 216.638071 403.452656 
L 218.054315 404.305175 
L 219.470558 404.589061 
L 220.886802 405.084396 
L 222.303046 405.138311 
L 226.551777 406.41456 
L 227.96802 407.226639 
L 229.384264 408.405165 
L 232.216751 409.854946 
L 235.049239 410.641757 
L 237.881726 411.024209 
L 239.29797 411.183424 
L 243.546701 412.325726 
L 250.627919 413.580074 
L 252.044162 413.77467 
L 253.460406 413.821845 
L 256.292893 413.667683 
L 259.125381 413.784777 
L 260.541624 413.942305 
L 263.374112 413.990323 
L 267.622843 414.448591 
L 270.45533 414.804932 
L 273.287817 415.367662 
L 274.704061 415.394617 
L 277.536548 415.806553 
L 278.952792 416.209225 
L 281.785279 417.392805 
L 284.617766 417.515795 
L 286.03401 417.421446 
L 287.450254 417.641316 
L 288.866497 417.489684 
L 291.698985 416.469529 
L 293.115228 416.450996 
L 297.363959 416.021369 
L 298.780203 415.468746 
L 301.61269 415.548778 
L 303.028934 415.411464 
L 307.277665 415.303634 
L 308.693909 415.973351 
L 311.526396 415.841091 
L 312.94264 415.772015 
L 315.775127 415.801499 
L 318.607614 415.624594 
L 320.023858 415.423258 
L 327.105076 415.059339 
L 332.770051 414.75607 
L 334.186294 414.759443 
L 335.602538 414.451121 
L 337.018782 414.555578 
L 338.435025 414.155435 
L 341.267513 413.888391 
L 342.683756 413.415805 
L 344.1 413.182455 
L 348.348731 413.297025 
L 349.764975 413.472244 
L 351.181218 413.432653 
L 352.597462 413.770454 
L 354.013706 413.526159 
L 355.429949 413.579231 
L 356.846193 413.363571 
L 358.262437 413.289442 
L 362.511168 412.532115 
L 363.927411 412.719134 
L 365.343655 412.126076 
L 366.759898 411.757105 
L 368.176142 411.646751 
L 371.008629 411.137092 
L 373.841117 409.959409 
L 375.25736 408.919034 
L 376.673604 407.623414 
L 380.922335 404.701944 
L 383.754822 401.970023 
L 385.171066 401.674337 
L 386.58731 401.950646 
L 388.003553 401.416557 
L 389.419797 400.299528 
L 390.836041 399.896013 
L 395.084772 397.98291 
L 397.917259 394.972145 
L 399.333503 393.135701 
L 400.749746 390.411357 
L 402.16599 388.264061 
L 404.998477 385.381346 
L 406.414721 385.652601 
L 407.830964 383.782457 
L 409.247208 382.999019 
L 410.663452 382.758929 
L 412.079695 382.661212 
L 413.495939 376.903359 
L 414.912183 362.359207 
L 416.328426 355.159156 
L 419.160914 342.980478 
L 420.577157 334.033273 
L 421.993401 328.22572 
L 423.409645 326.296608 
L 424.825888 334.790599 
L 426.242132 333.604489 
L 427.658376 331.335889 
L 429.074619 326.636944 
L 430.490863 325.418821 
L 431.907107 323.928604 
L 433.32335 323.076929 
L 434.739594 319.612955 
L 436.155838 315.553394 
L 437.572081 312.08689 
L 438.988325 306.227109 
L 440.404569 304.322428 
L 441.820812 300.192947 
L 443.237056 294.424987 
L 444.653299 292.063723 
L 446.069543 290.319937 
L 447.485787 289.006626 
L 448.90203 290.685542 
L 450.318274 289.151524 
L 451.734518 285.900674 
L 453.150761 286.839116 
L 454.567005 283.921019 
L 455.983249 285.549387 
L 457.399492 287.94688 
L 458.815736 287.532414 
L 460.23198 286.61756 
L 461.648223 287.540841 
L 463.064467 284.963075 
L 464.480711 287.221568 
L 465.896954 285.174518 
L 467.313198 284.860299 
L 468.729442 286.718649 
L 470.145685 278.839617 
L 471.561929 275.475046 
L 472.978173 273.877 
L 474.394416 270.172936 
L 475.81066 270.156932 
L 477.226904 270.486313 
L 478.643147 273.312589 
L 480.059391 282.226094 
L 482.891878 294.017261 
L 485.724365 304.346015 
L 487.140609 311.688434 
L 488.556853 312.854324 
L 491.38934 321.979277 
L 492.805584 325.374176 
L 494.221827 330.852347 
L 495.638071 333.410736 
L 497.054315 331.597037 
L 498.470558 333.302063 
L 499.886802 335.497377 
L 501.303046 334.18238 
L 502.719289 334.445215 
L 504.135533 330.057959 
L 505.551777 328.081672 
L 506.96802 329.017584 
L 508.384264 328.683151 
L 509.800508 323.531829 
L 511.216751 318.981149 
L 512.632995 313.94777 
L 514.049239 312.962997 
L 515.465482 308.242988 
L 516.881726 303.034385 
L 518.29797 295.734087 
L 519.714213 283.547831 
L 521.130457 277.839682 
L 522.546701 273.042172 
L 523.962944 258.263833 
L 525.379188 247.194606 
L 526.795431 231.72633 
L 528.211675 219.859341 
L 529.627919 216.812357 
L 531.044162 213.238024 
L 532.460406 206.887119 
L 533.87665 209.912202 
L 535.292893 203.220965 
L 536.709137 189.452668 
L 538.125381 180.310867 
L 539.541624 166.091036 
L 540.957868 148.691124 
L 543.790355 110.168701 
L 545.206599 95.457751 
L 546.622843 88.876869 
L 548.039086 78.50094 
L 549.45533 81.232024 
L 550.871574 68.820002 
L 552.287817 66.9288 
L 553.704061 67.039154 
L 555.120305 77.693915 
L 557.952792 103.246645 
L 559.369036 106.601951 
L 560.785279 116.969454 
L 562.201523 132.697185 
L 563.617766 146.475595 
L 565.03401 153.77505 
L 566.450254 164.04736 
L 567.866497 171.351025 
L 569.282741 180.471768 
L 570.698985 193.582986 
L 572.115228 200.133541 
L 573.531472 207.343706 
L 574.947716 220.288131 
L 577.780203 242.957296 
L 579.196447 250.6788 
L 580.61269 260.093536 
L 582.028934 268.729895 
L 583.445178 276.245004 
L 584.861421 279.25745 
L 586.277665 282.004544 
L 587.693909 287.188711 
L 589.110152 293.992836 
L 590.526396 302.367198 
L 594.775127 314.879472 
L 596.191371 318.640818 
L 597.607614 323.811511 
L 599.023858 329.86926 
L 600.440102 333.243938 
L 603.272589 341.601458 
L 604.688832 345.276038 
L 606.105076 346.796582 
L 607.52132 347.063626 
L 608.937563 348.283431 
L 611.770051 353.338716 
L 613.186294 354.312533 
L 614.602538 353.568693 
L 616.018782 355.348698 
L 617.435025 357.718388 
L 618.851269 359.466379 
L 620.267513 362.424073 
L 621.683756 364.947924 
L 623.1 368.132222 
L 623.1 368.132222 
" style="fill:none;stroke:#4b88a2;stroke-linecap:square;stroke-width:2;"/>
   </g>
   <g id="line2d_79">
    <path clip-path="url(#pda9b4b6910)" d="M 121.749746 419.719536 
L 131.663452 419.615917 
L 135.912183 419.492926 
L 141.577157 419.446595 
L 147.242132 419.316864 
L 150.074619 419.18208 
L 151.490863 419.018648 
L 152.907107 419.026232 
L 155.739594 418.823215 
L 157.155838 418.525 
L 159.988325 418.137494 
L 161.404569 417.185572 
L 162.820812 416.492274 
L 164.237056 416.104768 
L 165.653299 415.430841 
L 167.069543 415.316271 
L 168.485787 413.644096 
L 169.90203 413.537953 
L 171.318274 413.719912 
L 172.734518 413.633989 
L 174.150761 413.333249 
L 175.567005 413.350097 
L 176.983249 412.89772 
L 178.399492 414.218614 
L 179.815736 413.382105 
L 181.23198 413.179088 
L 182.648223 412.633205 
L 184.064467 412.855605 
L 185.480711 410.5373 
L 186.896954 409.713422 
L 188.313198 409.304859 
L 189.729442 408.480143 
L 192.561929 406.198063 
L 193.978173 403.882282 
L 195.394416 405.236877 
L 196.81066 404.219246 
L 198.226904 403.998539 
L 199.643147 402.881505 
L 201.059391 402.134292 
L 202.475635 401.574934 
L 203.891878 401.711399 
L 205.308122 400.790653 
L 206.724365 401.718982 
L 208.140609 401.659171 
L 209.556853 402.147766 
L 213.805584 400.649966 
L 215.221827 399.910337 
L 216.638071 398.697272 
L 218.054315 397.732713 
L 219.470558 396.626635 
L 220.886802 396.382335 
L 222.303046 396.002413 
L 223.719289 396.812805 
L 225.135533 396.804384 
L 226.551777 396.405922 
L 232.216751 391.92095 
L 235.049239 386.102442 
L 236.465482 382.227375 
L 237.881726 380.927539 
L 239.29797 378.944511 
L 240.714213 383.497722 
L 242.130457 384.837149 
L 243.546701 386.778056 
L 244.962944 389.328861 
L 246.379188 392.738926 
L 247.795431 394.745541 
L 249.211675 398.187614 
L 250.627919 394.533254 
L 252.044162 393.117167 
L 253.460406 396.656963 
L 254.87665 395.306585 
L 256.292893 391.743202 
L 259.125381 391.57556 
L 260.541624 392.700178 
L 261.957868 394.793559 
L 263.374112 391.813964 
L 264.790355 393.960417 
L 266.206599 398.500147 
L 269.039086 399.802507 
L 270.45533 399.69552 
L 271.871574 399.330759 
L 274.704061 398.96263 
L 276.120305 399.104155 
L 277.536548 398.737707 
L 281.785279 400.014793 
L 284.617766 400.276784 
L 286.03401 400.10156 
L 287.450254 400.068708 
L 288.866497 399.456279 
L 290.282741 399.145433 
L 291.698985 399.137006 
L 294.531472 399.822727 
L 295.947716 399.841261 
L 297.363959 399.157226 
L 300.196447 398.803416 
L 301.61269 398.552375 
L 303.028934 397.918045 
L 304.445178 397.160719 
L 305.861421 396.76142 
L 307.277665 396.513752 
L 311.526396 394.869375 
L 312.94264 394.099411 
L 315.775127 400.883316 
L 317.191371 392.741456 
L 318.607614 391.998453 
L 320.023858 390.974925 
L 321.440102 394.804509 
L 322.856345 393.166866 
L 324.272589 393.166866 
L 325.688832 375.174745 
L 327.105076 383.182665 
L 328.52132 381.917366 
L 329.937563 380.185379 
L 331.353807 373.627241 
L 332.770051 372.231374 
L 334.186294 372.231374 
L 335.602538 378.304285 
L 337.018782 377.580659 
L 338.435025 377.785362 
L 339.851269 384.300536 
L 341.267513 383.382314 
L 342.683756 375.56899 
L 344.1 375.56899 
L 345.516244 379.479444 
L 346.932487 375.238767 
L 348.348731 376.081173 
L 349.764975 369.48681 
L 351.181218 369.298111 
L 352.597462 376.9657 
L 354.013706 369.3773 
L 355.429949 369.662029 
L 356.846193 370.549086 
L 358.262437 370.073128 
L 359.67868 370.817811 
L 361.094924 373.431802 
L 362.511168 373.448649 
L 363.927411 374.328123 
L 365.343655 374.071191 
L 368.176142 376.261446 
L 369.592386 377.821586 
L 371.008629 382.872656 
L 372.424873 379.168592 
L 373.841117 380.230868 
L 375.25736 382.437975 
L 376.673604 383.66452 
L 378.089848 386.421715 
L 379.506091 386.823544 
L 380.922335 381.275453 
L 382.338579 386.098232 
L 383.754822 386.182474 
L 385.171066 386.765419 
L 386.58731 386.334106 
L 388.003553 384.107627 
L 389.419797 384.490922 
L 390.836041 384.664454 
L 392.252284 386.006412 
L 393.668528 386.249863 
L 395.084772 386.004725 
L 396.501015 386.642428 
L 397.917259 390.215075 
L 399.333503 387.274234 
L 400.749746 387.46883 
L 402.16599 382.253487 
L 403.582234 387.572444 
L 406.414721 389.059293 
L 407.830964 386.184998 
L 409.247208 390.057546 
L 410.663452 392.6589 
L 412.079695 399.752808 
L 413.495939 397.000661 
L 414.912183 401.682758 
L 416.328426 400.465483 
L 417.74467 401.798171 
L 419.160914 401.902628 
L 420.577157 402.178937 
L 421.993401 402.613617 
L 423.409645 399.069611 
L 424.825888 396.303989 
L 426.242132 400.351757 
L 427.658376 399.532095 
L 429.074619 402.000345 
L 430.490863 399.445329 
L 431.907107 401.932112 
L 433.32335 405.97314 
L 434.739594 406.100341 
L 436.155838 404.983312 
L 437.572081 405.490441 
L 438.988325 402.759357 
L 441.820812 402.766098 
L 443.237056 402.29182 
L 444.653299 400.2136 
L 446.069543 402.846967 
L 447.485787 403.135069 
L 448.90203 404.246206 
L 450.318274 407.04889 
L 451.734518 404.803034 
L 453.150761 405.353971 
L 454.567005 408.113696 
L 455.983249 408.113696 
L 457.399492 409.679727 
L 458.815736 403.478773 
L 460.23198 403.0542 
L 461.648223 405.300056 
L 464.480711 404.980783 
L 465.896954 403.023872 
L 467.313198 402.018035 
L 468.729442 408.235 
L 470.145685 408.538269 
L 471.561929 406.658855 
L 474.394416 407.186204 
L 475.81066 407.363953 
L 477.226904 407.310881 
L 478.643147 407.513898 
L 480.059391 409.6831 
L 482.891878 406.729617 
L 484.308122 408.624192 
L 485.724365 409.064769 
L 487.140609 409.376464 
L 488.556853 409.191976 
L 491.38934 409.257684 
L 492.805584 409.378145 
L 494.221827 407.556862 
L 495.638071 408.895447 
L 497.054315 408.737075 
L 498.470558 410.322484 
L 499.886802 407.399334 
L 501.303046 410.691461 
L 504.135533 411.17163 
L 505.551777 410.140525 
L 506.96802 411.04611 
L 508.384264 408.764029 
L 509.800508 409.589588 
L 511.216751 409.589588 
L 514.049239 412.774729 
L 515.465482 410.410937 
L 516.881726 409.43627 
L 518.29797 411.71835 
L 519.714213 411.013258 
L 521.130457 411.013258 
L 522.546701 412.556546 
L 523.962944 407.129765 
L 525.379188 409.161648 
L 526.795431 409.32929 
L 528.211675 407.915727 
L 529.627919 410.718416 
L 531.044162 407.49284 
L 532.460406 406.175313 
L 533.87665 411.6021 
L 535.292893 411.186797 
L 536.709137 410.939966 
L 538.125381 411.015788 
L 539.541624 407.106178 
L 540.957868 410.331754 
L 542.374112 411.649275 
L 543.790355 409.154065 
L 545.206599 409.773234 
L 546.622843 410.827089 
L 548.039086 410.022588 
L 549.45533 413.932198 
L 550.871574 410.426103 
L 552.287817 410.426103 
L 553.704061 412.921307 
L 555.120305 406.495429 
L 556.536548 404.670779 
L 557.952792 404.386044 
L 559.369036 404.386044 
L 560.785279 394.58885 
L 562.201523 394.58885 
L 563.617766 390.760952 
L 565.03401 398.345985 
L 566.450254 400.170641 
L 567.866497 391.943695 
L 569.282741 391.943695 
L 570.698985 397.081536 
L 572.115228 397.081536 
L 573.531472 391.616838 
L 574.947716 391.616838 
L 576.363959 380.411983 
L 577.780203 391.065907 
L 579.196447 385.395663 
L 580.61269 388.74676 
L 582.028934 377.511577 
L 583.445178 382.409334 
L 584.861421 382.409334 
L 586.277665 389.84273 
L 587.693909 376.683495 
L 589.110152 382.353733 
L 590.526396 381.511327 
L 591.94264 386.013152 
L 593.358883 378.906607 
L 594.775127 378.906607 
L 596.191371 374.186598 
L 597.607614 387.34584 
L 599.023858 381.681492 
L 600.440102 379.919178 
L 601.856345 379.543466 
L 603.272589 378.787826 
L 604.688832 376.089594 
L 606.105076 384.581055 
L 607.52132 379.334547 
L 608.937563 378.758342 
L 610.353807 378.033873 
L 613.186294 379.284005 
L 614.602538 381.982232 
L 616.018782 379.077615 
L 617.435025 378.646302 
L 618.851269 378.735598 
L 620.267513 373.767922 
L 621.683756 373.952411 
L 623.1 385.565829 
L 623.1 385.565829 
" style="fill:none;stroke:#d3d4d9;stroke-linecap:square;stroke-width:2;"/>
   </g>
   <g id="patch_3">
    <path d="M 65.1 437.3688 
L 65.1 49.2888 
" style="fill:none;stroke:#000000;stroke-linecap:square;stroke-linejoin:miter;stroke-width:0.8;"/>
   </g>
   <g id="patch_4">
    <path d="M 623.1 437.3688 
L 623.1 49.2888 
" style="fill:none;stroke:#000000;stroke-linecap:square;stroke-linejoin:miter;stroke-width:0.8;"/>
   </g>
   <g id="patch_5">
    <path d="M 65.1 437.3688 
L 623.1 437.3688 
" style="fill:none;stroke:#000000;stroke-linecap:square;stroke-linejoin:miter;stroke-width:0.8;"/>
   </g>
   <g id="patch_6">
    <path d="M 65.1 49.2888 
L 623.1 49.2888 
" style="fill:none;stroke:#000000;stroke-linecap:square;stroke-linejoin:miter;stroke-width:0.8;"/>
   </g>
   <g id="text_22">
    <!-- Latest update:  -->
    <g style="fill:#252627;" transform="translate(47.1 491.690987)scale(0.1 -0.1)">
     <defs>
      <path d="M 9.8125 72.90625 
L 19.671875 72.90625 
L 19.671875 8.296875 
L 55.171875 8.296875 
L 55.171875 0 
L 9.8125 0 
z
" id="DejaVuSans-76"/>
      <path d="M 44.28125 53.078125 
L 44.28125 44.578125 
Q 40.484375 46.53125 36.375 47.5 
Q 32.28125 48.484375 27.875 48.484375 
Q 21.1875 48.484375 17.84375 46.4375 
Q 14.5 44.390625 14.5 40.28125 
Q 14.5 37.15625 16.890625 35.375 
Q 19.28125 33.59375 26.515625 31.984375 
L 29.59375 31.296875 
Q 39.15625 29.25 43.1875 25.515625 
Q 47.21875 21.78125 47.21875 15.09375 
Q 47.21875 7.46875 41.1875 3.015625 
Q 35.15625 -1.421875 24.609375 -1.421875 
Q 20.21875 -1.421875 15.453125 -0.5625 
Q 10.6875 0.296875 5.421875 2 
L 5.421875 11.28125 
Q 10.40625 8.6875 15.234375 7.390625 
Q 20.0625 6.109375 24.8125 6.109375 
Q 31.15625 6.109375 34.5625 8.28125 
Q 37.984375 10.453125 37.984375 14.40625 
Q 37.984375 18.0625 35.515625 20.015625 
Q 33.0625 21.96875 24.703125 23.78125 
L 21.578125 24.515625 
Q 13.234375 26.265625 9.515625 29.90625 
Q 5.8125 33.546875 5.8125 39.890625 
Q 5.8125 47.609375 11.28125 51.796875 
Q 16.75 56 26.8125 56 
Q 31.78125 56 36.171875 55.265625 
Q 40.578125 54.546875 44.28125 53.078125 
z
" id="DejaVuSans-115"/>
      <path id="DejaVuSans-32"/>
      <path d="M 11.71875 12.40625 
L 22.015625 12.40625 
L 22.015625 0 
L 11.71875 0 
z
M 11.71875 51.703125 
L 22.015625 51.703125 
L 22.015625 39.3125 
L 11.71875 39.3125 
z
" id="DejaVuSans-58"/>
     </defs>
     <use xlink:href="#DejaVuSans-76"/>
     <use x="55.712891" xlink:href="#DejaVuSans-97"/>
     <use x="116.992188" xlink:href="#DejaVuSans-116"/>
     <use x="156.201172" xlink:href="#DejaVuSans-101"/>
     <use x="217.724609" xlink:href="#DejaVuSans-115"/>
     <use x="269.824219" xlink:href="#DejaVuSans-116"/>
     <use x="309.033203" xlink:href="#DejaVuSans-32"/>
     <use x="340.820312" xlink:href="#DejaVuSans-117"/>
     <use x="404.199219" xlink:href="#DejaVuSans-112"/>
     <use x="467.675781" xlink:href="#DejaVuSans-100"/>
     <use x="531.152344" xlink:href="#DejaVuSans-97"/>
     <use x="592.431641" xlink:href="#DejaVuSans-116"/>
     <use x="631.640625" xlink:href="#DejaVuSans-101"/>
     <use x="693.164062" xlink:href="#DejaVuSans-58"/>
     <use x="726.855469" xlink:href="#DejaVuSans-32"/>
    </g>
    <!-- 1-3-2021 -->
    <g style="fill:#252627;" transform="translate(47.1 502.8888)scale(0.1 -0.1)">
     <defs>
      <path d="M 4.890625 31.390625 
L 31.203125 31.390625 
L 31.203125 23.390625 
L 4.890625 23.390625 
z
" id="DejaVuSans-45"/>
     </defs>
     <use xlink:href="#DejaVuSans-49"/>
     <use x="63.623047" xlink:href="#DejaVuSans-45"/>
     <use x="99.707031" xlink:href="#DejaVuSans-51"/>
     <use x="163.330078" xlink:href="#DejaVuSans-45"/>
     <use x="199.414062" xlink:href="#DejaVuSans-50"/>
     <use x="263.037109" xlink:href="#DejaVuSans-48"/>
     <use x="326.660156" xlink:href="#DejaVuSans-50"/>
     <use x="390.283203" xlink:href="#DejaVuSans-49"/>
    </g>
   </g>
   <g id="text_23">
    <!-- Daily new cases - Since beginning -->
    <g style="fill:#252627;" transform="translate(180.3705 21.789)scale(0.192 -0.192)">
     <defs>
      <path d="M 9.421875 54.6875 
L 18.40625 54.6875 
L 18.40625 0 
L 9.421875 0 
z
M 9.421875 75.984375 
L 18.40625 75.984375 
L 18.40625 64.59375 
L 9.421875 64.59375 
z
" id="DejaVuSans-105"/>
      <path d="M 4.203125 54.6875 
L 13.1875 54.6875 
L 24.421875 12.015625 
L 35.59375 54.6875 
L 46.1875 54.6875 
L 57.421875 12.015625 
L 68.609375 54.6875 
L 77.59375 54.6875 
L 63.28125 0 
L 52.6875 0 
L 40.921875 44.828125 
L 29.109375 0 
L 18.5 0 
z
" id="DejaVuSans-119"/>
     </defs>
     <use xlink:href="#DejaVuSans-68"/>
     <use x="77.001953" xlink:href="#DejaVuSans-97"/>
     <use x="138.28125" xlink:href="#DejaVuSans-105"/>
     <use x="166.064453" xlink:href="#DejaVuSans-108"/>
     <use x="193.847656" xlink:href="#DejaVuSans-121"/>
     <use x="253.027344" xlink:href="#DejaVuSans-32"/>
     <use x="284.814453" xlink:href="#DejaVuSans-110"/>
     <use x="348.193359" xlink:href="#DejaVuSans-101"/>
     <use x="409.716797" xlink:href="#DejaVuSans-119"/>
     <use x="491.503906" xlink:href="#DejaVuSans-32"/>
     <use x="523.291016" xlink:href="#DejaVuSans-99"/>
     <use x="578.271484" xlink:href="#DejaVuSans-97"/>
     <use x="639.550781" xlink:href="#DejaVuSans-115"/>
     <use x="691.650391" xlink:href="#DejaVuSans-101"/>
     <use x="753.173828" xlink:href="#DejaVuSans-115"/>
     <use x="805.273438" xlink:href="#DejaVuSans-32"/>
     <use x="837.060547" xlink:href="#DejaVuSans-45"/>
     <use x="873.144531" xlink:href="#DejaVuSans-32"/>
     <use x="904.931641" xlink:href="#DejaVuSans-83"/>
     <use x="968.408203" xlink:href="#DejaVuSans-105"/>
     <use x="996.191406" xlink:href="#DejaVuSans-110"/>
     <use x="1059.570312" xlink:href="#DejaVuSans-99"/>
     <use x="1114.550781" xlink:href="#DejaVuSans-101"/>
     <use x="1176.074219" xlink:href="#DejaVuSans-32"/>
     <use x="1207.861328" xlink:href="#DejaVuSans-98"/>
     <use x="1271.337891" xlink:href="#DejaVuSans-101"/>
     <use x="1332.861328" xlink:href="#DejaVuSans-103"/>
     <use x="1396.337891" xlink:href="#DejaVuSans-105"/>
     <use x="1424.121094" xlink:href="#DejaVuSans-110"/>
     <use x="1487.5" xlink:href="#DejaVuSans-110"/>
     <use x="1550.878906" xlink:href="#DejaVuSans-105"/>
     <use x="1578.662109" xlink:href="#DejaVuSans-110"/>
     <use x="1642.041016" xlink:href="#DejaVuSans-103"/>
    </g>
    <!-- 7-day rolling average -->
    <g style="fill:#252627;" transform="translate(241.68 43.2888)scale(0.192 -0.192)">
     <defs>
      <path d="M 8.203125 72.90625 
L 55.078125 72.90625 
L 55.078125 68.703125 
L 28.609375 0 
L 18.3125 0 
L 43.21875 64.59375 
L 8.203125 64.59375 
z
" id="DejaVuSans-55"/>
     </defs>
     <use xlink:href="#DejaVuSans-55"/>
     <use x="63.623047" xlink:href="#DejaVuSans-45"/>
     <use x="99.707031" xlink:href="#DejaVuSans-100"/>
     <use x="163.183594" xlink:href="#DejaVuSans-97"/>
     <use x="224.462891" xlink:href="#DejaVuSans-121"/>
     <use x="283.642578" xlink:href="#DejaVuSans-32"/>
     <use x="315.429688" xlink:href="#DejaVuSans-114"/>
     <use x="354.292969" xlink:href="#DejaVuSans-111"/>
     <use x="415.474609" xlink:href="#DejaVuSans-108"/>
     <use x="443.257812" xlink:href="#DejaVuSans-108"/>
     <use x="471.041016" xlink:href="#DejaVuSans-105"/>
     <use x="498.824219" xlink:href="#DejaVuSans-110"/>
     <use x="562.203125" xlink:href="#DejaVuSans-103"/>
     <use x="625.679688" xlink:href="#DejaVuSans-32"/>
     <use x="657.466797" xlink:href="#DejaVuSans-97"/>
     <use x="718.746094" xlink:href="#DejaVuSans-118"/>
     <use x="777.925781" xlink:href="#DejaVuSans-101"/>
     <use x="839.449219" xlink:href="#DejaVuSans-114"/>
     <use x="880.5625" xlink:href="#DejaVuSans-97"/>
     <use x="941.841797" xlink:href="#DejaVuSans-103"/>
     <use x="1005.318359" xlink:href="#DejaVuSans-101"/>
    </g>
   </g>
   <g id="legend_1">
    <g id="patch_7">
     <path d="M 76.3 132.5438 
L 161.9925 132.5438 
Q 165.1925 132.5438 165.1925 129.3438 
L 165.1925 60.4888 
Q 165.1925 57.2888 161.9925 57.2888 
L 76.3 57.2888 
Q 73.1 57.2888 73.1 60.4888 
L 73.1 129.3438 
Q 73.1 132.5438 76.3 132.5438 
z
" style="fill:#ffffff;opacity:0.2;stroke:#cccccc;stroke-linejoin:miter;"/>
    </g>
    <g id="line2d_80">
     <path d="M 79.5 70.2463 
L 111.5 70.2463 
" style="fill:none;stroke:#bb0a21;stroke-linecap:square;stroke-width:2;"/>
    </g>
    <g id="line2d_81"/>
    <g id="text_24">
     <!-- ESP -->
     <g style="fill:#252627;" transform="translate(124.3 75.8463)scale(0.16 -0.16)">
      <defs>
       <path d="M 9.8125 72.90625 
L 55.90625 72.90625 
L 55.90625 64.59375 
L 19.671875 64.59375 
L 19.671875 43.015625 
L 54.390625 43.015625 
L 54.390625 34.71875 
L 19.671875 34.71875 
L 19.671875 8.296875 
L 56.78125 8.296875 
L 56.78125 0 
L 9.8125 0 
z
" id="DejaVuSans-69"/>
       <path d="M 19.671875 64.796875 
L 19.671875 37.40625 
L 32.078125 37.40625 
Q 38.96875 37.40625 42.71875 40.96875 
Q 46.484375 44.53125 46.484375 51.125 
Q 46.484375 57.671875 42.71875 61.234375 
Q 38.96875 64.796875 32.078125 64.796875 
z
M 9.8125 72.90625 
L 32.078125 72.90625 
Q 44.34375 72.90625 50.609375 67.359375 
Q 56.890625 61.8125 56.890625 51.125 
Q 56.890625 40.328125 50.609375 34.8125 
Q 44.34375 29.296875 32.078125 29.296875 
L 19.671875 29.296875 
L 19.671875 0 
L 9.8125 0 
z
" id="DejaVuSans-80"/>
      </defs>
      <use xlink:href="#DejaVuSans-69"/>
      <use x="63.183594" xlink:href="#DejaVuSans-83"/>
      <use x="126.660156" xlink:href="#DejaVuSans-80"/>
     </g>
    </g>
    <g id="line2d_82">
     <path d="M 79.5 93.7313 
L 111.5 93.7313 
" style="fill:none;stroke:#4b88a2;stroke-linecap:square;stroke-width:2;"/>
    </g>
    <g id="line2d_83"/>
    <g id="text_25">
     <!-- GBR -->
     <g style="fill:#252627;" transform="translate(124.3 99.3313)scale(0.16 -0.16)">
      <defs>
       <path d="M 59.515625 10.40625 
L 59.515625 29.984375 
L 43.40625 29.984375 
L 43.40625 38.09375 
L 69.28125 38.09375 
L 69.28125 6.78125 
Q 63.578125 2.734375 56.6875 0.65625 
Q 49.8125 -1.421875 42 -1.421875 
Q 24.90625 -1.421875 15.25 8.5625 
Q 5.609375 18.5625 5.609375 36.375 
Q 5.609375 54.25 15.25 64.234375 
Q 24.90625 74.21875 42 74.21875 
Q 49.125 74.21875 55.546875 72.453125 
Q 61.96875 70.703125 67.390625 67.28125 
L 67.390625 56.78125 
Q 61.921875 61.421875 55.765625 63.765625 
Q 49.609375 66.109375 42.828125 66.109375 
Q 29.4375 66.109375 22.71875 58.640625 
Q 16.015625 51.171875 16.015625 36.375 
Q 16.015625 21.625 22.71875 14.15625 
Q 29.4375 6.6875 42.828125 6.6875 
Q 48.046875 6.6875 52.140625 7.59375 
Q 56.25 8.5 59.515625 10.40625 
z
" id="DejaVuSans-71"/>
       <path d="M 19.671875 34.8125 
L 19.671875 8.109375 
L 35.5 8.109375 
Q 43.453125 8.109375 47.28125 11.40625 
Q 51.125 14.703125 51.125 21.484375 
Q 51.125 28.328125 47.28125 31.5625 
Q 43.453125 34.8125 35.5 34.8125 
z
M 19.671875 64.796875 
L 19.671875 42.828125 
L 34.28125 42.828125 
Q 41.5 42.828125 45.03125 45.53125 
Q 48.578125 48.25 48.578125 53.8125 
Q 48.578125 59.328125 45.03125 62.0625 
Q 41.5 64.796875 34.28125 64.796875 
z
M 9.8125 72.90625 
L 35.015625 72.90625 
Q 46.296875 72.90625 52.390625 68.21875 
Q 58.5 63.53125 58.5 54.890625 
Q 58.5 48.1875 55.375 44.234375 
Q 52.25 40.28125 46.1875 39.3125 
Q 53.46875 37.75 57.5 32.78125 
Q 61.53125 27.828125 61.53125 20.40625 
Q 61.53125 10.640625 54.890625 5.3125 
Q 48.25 0 35.984375 0 
L 9.8125 0 
z
" id="DejaVuSans-66"/>
       <path d="M 44.390625 34.1875 
Q 47.5625 33.109375 50.5625 29.59375 
Q 53.5625 26.078125 56.59375 19.921875 
L 66.609375 0 
L 56 0 
L 46.6875 18.703125 
Q 43.0625 26.03125 39.671875 28.421875 
Q 36.28125 30.8125 30.421875 30.8125 
L 19.671875 30.8125 
L 19.671875 0 
L 9.8125 0 
L 9.8125 72.90625 
L 32.078125 72.90625 
Q 44.578125 72.90625 50.734375 67.671875 
Q 56.890625 62.453125 56.890625 51.90625 
Q 56.890625 45.015625 53.6875 40.46875 
Q 50.484375 35.9375 44.390625 34.1875 
z
M 19.671875 64.796875 
L 19.671875 38.921875 
L 32.078125 38.921875 
Q 39.203125 38.921875 42.84375 42.21875 
Q 46.484375 45.515625 46.484375 51.90625 
Q 46.484375 58.296875 42.84375 61.546875 
Q 39.203125 64.796875 32.078125 64.796875 
z
" id="DejaVuSans-82"/>
      </defs>
      <use xlink:href="#DejaVuSans-71"/>
      <use x="77.490234" xlink:href="#DejaVuSans-66"/>
      <use x="146.09375" xlink:href="#DejaVuSans-82"/>
     </g>
    </g>
    <g id="line2d_84">
     <path d="M 79.5 117.2163 
L 111.5 117.2163 
" style="fill:none;stroke:#d3d4d9;stroke-linecap:square;stroke-width:2;"/>
    </g>
    <g id="line2d_85"/>
    <g id="text_26">
     <!-- PER -->
     <g style="fill:#252627;" transform="translate(124.3 122.8163)scale(0.16 -0.16)">
      <use xlink:href="#DejaVuSans-80"/>
      <use x="60.302734" xlink:href="#DejaVuSans-69"/>
      <use x="123.486328" xlink:href="#DejaVuSans-82"/>
     </g>
    </g>
   </g>
  </g>
 </g>
 <defs>
  <clipPath id="pda9b4b6910">
   <rect height="388.08" width="558" x="65.1" y="49.2888"/>
  </clipPath>
 </defs>
</svg>
