<?xml version="1.0" encoding="utf-8" standalone="no"?>
<!DOCTYPE svg PUBLIC "-//W3C//DTD SVG 1.1//EN"
  "http://www.w3.org/Graphics/SVG/1.1/DTD/svg11.dtd">
<!-- Created with matplotlib (https://matplotlib.org/) -->
<svg height="512.168487pt" version="1.1" viewBox="0 0 630.3 512.168487" width="630.3pt" xmlns="http://www.w3.org/2000/svg" xmlns:xlink="http://www.w3.org/1999/xlink">
 <metadata>
  <rdf:RDF xmlns:cc="http://creativecommons.org/ns#" xmlns:dc="http://purl.org/dc/elements/1.1/" xmlns:rdf="http://www.w3.org/1999/02/22-rdf-syntax-ns#">
   <cc:Work>
    <dc:type rdf:resource="http://purl.org/dc/dcmitype/StillImage"/>
    <dc:date>2021-03-13T09:00:05.816508</dc:date>
    <dc:format>image/svg+xml</dc:format>
    <dc:creator>
     <cc:Agent>
      <dc:title>Matplotlib v3.3.1, https://matplotlib.org/</dc:title>
     </cc:Agent>
    </dc:creator>
   </cc:Work>
  </rdf:RDF>
 </metadata>
 <defs>
  <style type="text/css">*{stroke-linecap:butt;stroke-linejoin:round;}</style>
 </defs>
 <g id="figure_1">
  <g id="patch_1">
   <path d="M 0 512.168487 
L 630.3 512.168487 
L 630.3 0 
L 0 0 
z
" style="fill:none;"/>
  </g>
  <g id="axes_1">
   <g id="patch_2">
    <path d="M 65.1 437.3688 
L 623.1 437.3688 
L 623.1 49.2888 
L 65.1 49.2888 
z
" style="fill:none;"/>
   </g>
   <g id="matplotlib.axis_1">
    <g id="xtick_1">
     <g id="line2d_1">
      <defs>
       <path d="M 0 0 
L 0 3.5 
" id="m36c62a672b" style="stroke:#252627;stroke-width:0.8;"/>
      </defs>
      <g>
       <use style="fill:#252627;stroke:#252627;stroke-width:0.8;" x="65.1" xlink:href="#m36c62a672b" y="437.3688"/>
      </g>
     </g>
    </g>
    <g id="xtick_2">
     <g id="line2d_2">
      <g>
       <use style="fill:#252627;stroke:#252627;stroke-width:0.8;" x="66.474384" xlink:href="#m36c62a672b" y="437.3688"/>
      </g>
     </g>
     <g id="text_1">
      <!-- Feb -->
      <g style="fill:#252627;" transform="translate(52.311884 456.5263)scale(0.16 -0.16)">
       <defs>
        <path d="M 9.8125 72.90625 
L 51.703125 72.90625 
L 51.703125 64.59375 
L 19.671875 64.59375 
L 19.671875 43.109375 
L 48.578125 43.109375 
L 48.578125 34.8125 
L 19.671875 34.8125 
L 19.671875 0 
L 9.8125 0 
z
" id="DejaVuSans-70"/>
        <path d="M 56.203125 29.59375 
L 56.203125 25.203125 
L 14.890625 25.203125 
Q 15.484375 15.921875 20.484375 11.0625 
Q 25.484375 6.203125 34.421875 6.203125 
Q 39.59375 6.203125 44.453125 7.46875 
Q 49.3125 8.734375 54.109375 11.28125 
L 54.109375 2.78125 
Q 49.265625 0.734375 44.1875 -0.34375 
Q 39.109375 -1.421875 33.890625 -1.421875 
Q 20.796875 -1.421875 13.15625 6.1875 
Q 5.515625 13.8125 5.515625 26.8125 
Q 5.515625 40.234375 12.765625 48.109375 
Q 20.015625 56 32.328125 56 
Q 43.359375 56 49.78125 48.890625 
Q 56.203125 41.796875 56.203125 29.59375 
z
M 47.21875 32.234375 
Q 47.125 39.59375 43.09375 43.984375 
Q 39.0625 48.390625 32.421875 48.390625 
Q 24.90625 48.390625 20.390625 44.140625 
Q 15.875 39.890625 15.1875 32.171875 
z
" id="DejaVuSans-101"/>
        <path d="M 48.6875 27.296875 
Q 48.6875 37.203125 44.609375 42.84375 
Q 40.53125 48.484375 33.40625 48.484375 
Q 26.265625 48.484375 22.1875 42.84375 
Q 18.109375 37.203125 18.109375 27.296875 
Q 18.109375 17.390625 22.1875 11.75 
Q 26.265625 6.109375 33.40625 6.109375 
Q 40.53125 6.109375 44.609375 11.75 
Q 48.6875 17.390625 48.6875 27.296875 
z
M 18.109375 46.390625 
Q 20.953125 51.265625 25.265625 53.625 
Q 29.59375 56 35.59375 56 
Q 45.5625 56 51.78125 48.09375 
Q 58.015625 40.1875 58.015625 27.296875 
Q 58.015625 14.40625 51.78125 6.484375 
Q 45.5625 -1.421875 35.59375 -1.421875 
Q 29.59375 -1.421875 25.265625 0.953125 
Q 20.953125 3.328125 18.109375 8.203125 
L 18.109375 0 
L 9.078125 0 
L 9.078125 75.984375 
L 18.109375 75.984375 
z
" id="DejaVuSans-98"/>
       </defs>
       <use xlink:href="#DejaVuSans-70"/>
       <use x="52.019531" xlink:href="#DejaVuSans-101"/>
       <use x="113.542969" xlink:href="#DejaVuSans-98"/>
      </g>
     </g>
    </g>
    <g id="xtick_3">
     <g id="line2d_3">
      <g>
       <use style="fill:#252627;stroke:#252627;stroke-width:0.8;" x="106.331527" xlink:href="#m36c62a672b" y="437.3688"/>
      </g>
     </g>
     <g id="text_2">
      <!-- Mar -->
      <g style="fill:#252627;" transform="translate(91.237777 456.5263)scale(0.16 -0.16)">
       <defs>
        <path d="M 9.8125 72.90625 
L 24.515625 72.90625 
L 43.109375 23.296875 
L 61.8125 72.90625 
L 76.515625 72.90625 
L 76.515625 0 
L 66.890625 0 
L 66.890625 64.015625 
L 48.09375 14.015625 
L 38.1875 14.015625 
L 19.390625 64.015625 
L 19.390625 0 
L 9.8125 0 
z
" id="DejaVuSans-77"/>
        <path d="M 34.28125 27.484375 
Q 23.390625 27.484375 19.1875 25 
Q 14.984375 22.515625 14.984375 16.5 
Q 14.984375 11.71875 18.140625 8.90625 
Q 21.296875 6.109375 26.703125 6.109375 
Q 34.1875 6.109375 38.703125 11.40625 
Q 43.21875 16.703125 43.21875 25.484375 
L 43.21875 27.484375 
z
M 52.203125 31.203125 
L 52.203125 0 
L 43.21875 0 
L 43.21875 8.296875 
Q 40.140625 3.328125 35.546875 0.953125 
Q 30.953125 -1.421875 24.3125 -1.421875 
Q 15.921875 -1.421875 10.953125 3.296875 
Q 6 8.015625 6 15.921875 
Q 6 25.140625 12.171875 29.828125 
Q 18.359375 34.515625 30.609375 34.515625 
L 43.21875 34.515625 
L 43.21875 35.40625 
Q 43.21875 41.609375 39.140625 45 
Q 35.0625 48.390625 27.6875 48.390625 
Q 23 48.390625 18.546875 47.265625 
Q 14.109375 46.140625 10.015625 43.890625 
L 10.015625 52.203125 
Q 14.9375 54.109375 19.578125 55.046875 
Q 24.21875 56 28.609375 56 
Q 40.484375 56 46.34375 49.84375 
Q 52.203125 43.703125 52.203125 31.203125 
z
" id="DejaVuSans-97"/>
        <path d="M 41.109375 46.296875 
Q 39.59375 47.171875 37.8125 47.578125 
Q 36.03125 48 33.890625 48 
Q 26.265625 48 22.1875 43.046875 
Q 18.109375 38.09375 18.109375 28.8125 
L 18.109375 0 
L 9.078125 0 
L 9.078125 54.6875 
L 18.109375 54.6875 
L 18.109375 46.1875 
Q 20.953125 51.171875 25.484375 53.578125 
Q 30.03125 56 36.53125 56 
Q 37.453125 56 38.578125 55.875 
Q 39.703125 55.765625 41.0625 55.515625 
z
" id="DejaVuSans-114"/>
       </defs>
       <use xlink:href="#DejaVuSans-77"/>
       <use x="86.279297" xlink:href="#DejaVuSans-97"/>
       <use x="147.558594" xlink:href="#DejaVuSans-114"/>
      </g>
     </g>
    </g>
    <g id="xtick_4">
     <g id="line2d_4">
      <g>
       <use style="fill:#252627;stroke:#252627;stroke-width:0.8;" x="148.937438" xlink:href="#m36c62a672b" y="437.3688"/>
      </g>
     </g>
     <g id="text_3">
      <!-- Apr -->
      <g style="fill:#252627;" transform="translate(135.097438 456.5263)scale(0.16 -0.16)">
       <defs>
        <path d="M 34.1875 63.1875 
L 20.796875 26.90625 
L 47.609375 26.90625 
z
M 28.609375 72.90625 
L 39.796875 72.90625 
L 67.578125 0 
L 57.328125 0 
L 50.6875 18.703125 
L 17.828125 18.703125 
L 11.1875 0 
L 0.78125 0 
z
" id="DejaVuSans-65"/>
        <path d="M 18.109375 8.203125 
L 18.109375 -20.796875 
L 9.078125 -20.796875 
L 9.078125 54.6875 
L 18.109375 54.6875 
L 18.109375 46.390625 
Q 20.953125 51.265625 25.265625 53.625 
Q 29.59375 56 35.59375 56 
Q 45.5625 56 51.78125 48.09375 
Q 58.015625 40.1875 58.015625 27.296875 
Q 58.015625 14.40625 51.78125 6.484375 
Q 45.5625 -1.421875 35.59375 -1.421875 
Q 29.59375 -1.421875 25.265625 0.953125 
Q 20.953125 3.328125 18.109375 8.203125 
z
M 48.6875 27.296875 
Q 48.6875 37.203125 44.609375 42.84375 
Q 40.53125 48.484375 33.40625 48.484375 
Q 26.265625 48.484375 22.1875 42.84375 
Q 18.109375 37.203125 18.109375 27.296875 
Q 18.109375 17.390625 22.1875 11.75 
Q 26.265625 6.109375 33.40625 6.109375 
Q 40.53125 6.109375 44.609375 11.75 
Q 48.6875 17.390625 48.6875 27.296875 
z
" id="DejaVuSans-112"/>
       </defs>
       <use xlink:href="#DejaVuSans-65"/>
       <use x="68.408203" xlink:href="#DejaVuSans-112"/>
       <use x="131.884766" xlink:href="#DejaVuSans-114"/>
      </g>
     </g>
    </g>
    <g id="xtick_5">
     <g id="line2d_5">
      <g>
       <use style="fill:#252627;stroke:#252627;stroke-width:0.8;" x="190.168966" xlink:href="#m36c62a672b" y="437.3688"/>
      </g>
     </g>
     <g id="text_4">
      <!-- May -->
      <g style="fill:#252627;" transform="translate(173.628966 456.5263)scale(0.16 -0.16)">
       <defs>
        <path d="M 32.171875 -5.078125 
Q 28.375 -14.84375 24.75 -17.8125 
Q 21.140625 -20.796875 15.09375 -20.796875 
L 7.90625 -20.796875 
L 7.90625 -13.28125 
L 13.1875 -13.28125 
Q 16.890625 -13.28125 18.9375 -11.515625 
Q 21 -9.765625 23.484375 -3.21875 
L 25.09375 0.875 
L 2.984375 54.6875 
L 12.5 54.6875 
L 29.59375 11.921875 
L 46.6875 54.6875 
L 56.203125 54.6875 
z
" id="DejaVuSans-121"/>
       </defs>
       <use xlink:href="#DejaVuSans-77"/>
       <use x="86.279297" xlink:href="#DejaVuSans-97"/>
       <use x="147.558594" xlink:href="#DejaVuSans-121"/>
      </g>
     </g>
    </g>
    <g id="xtick_6">
     <g id="line2d_6">
      <g>
       <use style="fill:#252627;stroke:#252627;stroke-width:0.8;" x="232.774877" xlink:href="#m36c62a672b" y="437.3688"/>
      </g>
     </g>
     <g id="text_5">
      <!-- Jun -->
      <g style="fill:#252627;" transform="translate(220.274877 456.5263)scale(0.16 -0.16)">
       <defs>
        <path d="M 9.8125 72.90625 
L 19.671875 72.90625 
L 19.671875 5.078125 
Q 19.671875 -8.109375 14.671875 -14.0625 
Q 9.671875 -20.015625 -1.421875 -20.015625 
L -5.171875 -20.015625 
L -5.171875 -11.71875 
L -2.09375 -11.71875 
Q 4.4375 -11.71875 7.125 -8.046875 
Q 9.8125 -4.390625 9.8125 5.078125 
z
" id="DejaVuSans-74"/>
        <path d="M 8.5 21.578125 
L 8.5 54.6875 
L 17.484375 54.6875 
L 17.484375 21.921875 
Q 17.484375 14.15625 20.5 10.265625 
Q 23.53125 6.390625 29.59375 6.390625 
Q 36.859375 6.390625 41.078125 11.03125 
Q 45.3125 15.671875 45.3125 23.6875 
L 45.3125 54.6875 
L 54.296875 54.6875 
L 54.296875 0 
L 45.3125 0 
L 45.3125 8.40625 
Q 42.046875 3.421875 37.71875 1 
Q 33.40625 -1.421875 27.6875 -1.421875 
Q 18.265625 -1.421875 13.375 4.4375 
Q 8.5 10.296875 8.5 21.578125 
z
M 31.109375 56 
z
" id="DejaVuSans-117"/>
        <path d="M 54.890625 33.015625 
L 54.890625 0 
L 45.90625 0 
L 45.90625 32.71875 
Q 45.90625 40.484375 42.875 44.328125 
Q 39.84375 48.1875 33.796875 48.1875 
Q 26.515625 48.1875 22.3125 43.546875 
Q 18.109375 38.921875 18.109375 30.90625 
L 18.109375 0 
L 9.078125 0 
L 9.078125 54.6875 
L 18.109375 54.6875 
L 18.109375 46.1875 
Q 21.34375 51.125 25.703125 53.5625 
Q 30.078125 56 35.796875 56 
Q 45.21875 56 50.046875 50.171875 
Q 54.890625 44.34375 54.890625 33.015625 
z
" id="DejaVuSans-110"/>
       </defs>
       <use xlink:href="#DejaVuSans-74"/>
       <use x="29.492188" xlink:href="#DejaVuSans-117"/>
       <use x="92.871094" xlink:href="#DejaVuSans-110"/>
      </g>
     </g>
    </g>
    <g id="xtick_7">
     <g id="line2d_7">
      <g>
       <use style="fill:#252627;stroke:#252627;stroke-width:0.8;" x="274.006404" xlink:href="#m36c62a672b" y="437.3688"/>
      </g>
     </g>
     <g id="text_6">
      <!-- Jul -->
      <g style="fill:#252627;" transform="translate(264.353904 456.5263)scale(0.16 -0.16)">
       <defs>
        <path d="M 9.421875 75.984375 
L 18.40625 75.984375 
L 18.40625 0 
L 9.421875 0 
z
" id="DejaVuSans-108"/>
       </defs>
       <use xlink:href="#DejaVuSans-74"/>
       <use x="29.492188" xlink:href="#DejaVuSans-117"/>
       <use x="92.871094" xlink:href="#DejaVuSans-108"/>
      </g>
     </g>
    </g>
    <g id="xtick_8">
     <g id="line2d_8">
      <g>
       <use style="fill:#252627;stroke:#252627;stroke-width:0.8;" x="316.612315" xlink:href="#m36c62a672b" y="437.3688"/>
      </g>
     </g>
     <g id="text_7">
      <!-- Aug -->
      <g style="fill:#252627;" transform="translate(300.991065 456.5263)scale(0.16 -0.16)">
       <defs>
        <path d="M 45.40625 27.984375 
Q 45.40625 37.75 41.375 43.109375 
Q 37.359375 48.484375 30.078125 48.484375 
Q 22.859375 48.484375 18.828125 43.109375 
Q 14.796875 37.75 14.796875 27.984375 
Q 14.796875 18.265625 18.828125 12.890625 
Q 22.859375 7.515625 30.078125 7.515625 
Q 37.359375 7.515625 41.375 12.890625 
Q 45.40625 18.265625 45.40625 27.984375 
z
M 54.390625 6.78125 
Q 54.390625 -7.171875 48.1875 -13.984375 
Q 42 -20.796875 29.203125 -20.796875 
Q 24.46875 -20.796875 20.265625 -20.09375 
Q 16.0625 -19.390625 12.109375 -17.921875 
L 12.109375 -9.1875 
Q 16.0625 -11.328125 19.921875 -12.34375 
Q 23.78125 -13.375 27.78125 -13.375 
Q 36.625 -13.375 41.015625 -8.765625 
Q 45.40625 -4.15625 45.40625 5.171875 
L 45.40625 9.625 
Q 42.625 4.78125 38.28125 2.390625 
Q 33.9375 0 27.875 0 
Q 17.828125 0 11.671875 7.65625 
Q 5.515625 15.328125 5.515625 27.984375 
Q 5.515625 40.671875 11.671875 48.328125 
Q 17.828125 56 27.875 56 
Q 33.9375 56 38.28125 53.609375 
Q 42.625 51.21875 45.40625 46.390625 
L 45.40625 54.6875 
L 54.390625 54.6875 
z
" id="DejaVuSans-103"/>
       </defs>
       <use xlink:href="#DejaVuSans-65"/>
       <use x="68.408203" xlink:href="#DejaVuSans-117"/>
       <use x="131.787109" xlink:href="#DejaVuSans-103"/>
      </g>
     </g>
    </g>
    <g id="xtick_9">
     <g id="line2d_9">
      <g>
       <use style="fill:#252627;stroke:#252627;stroke-width:0.8;" x="359.218227" xlink:href="#m36c62a672b" y="437.3688"/>
      </g>
     </g>
     <g id="text_8">
      <!-- Sep -->
      <g style="fill:#252627;" transform="translate(344.138227 456.5263)scale(0.16 -0.16)">
       <defs>
        <path d="M 53.515625 70.515625 
L 53.515625 60.890625 
Q 47.90625 63.578125 42.921875 64.890625 
Q 37.9375 66.21875 33.296875 66.21875 
Q 25.25 66.21875 20.875 63.09375 
Q 16.5 59.96875 16.5 54.203125 
Q 16.5 49.359375 19.40625 46.890625 
Q 22.3125 44.4375 30.421875 42.921875 
L 36.375 41.703125 
Q 47.40625 39.59375 52.65625 34.296875 
Q 57.90625 29 57.90625 20.125 
Q 57.90625 9.515625 50.796875 4.046875 
Q 43.703125 -1.421875 29.984375 -1.421875 
Q 24.8125 -1.421875 18.96875 -0.25 
Q 13.140625 0.921875 6.890625 3.21875 
L 6.890625 13.375 
Q 12.890625 10.015625 18.65625 8.296875 
Q 24.421875 6.59375 29.984375 6.59375 
Q 38.421875 6.59375 43.015625 9.90625 
Q 47.609375 13.234375 47.609375 19.390625 
Q 47.609375 24.75 44.3125 27.78125 
Q 41.015625 30.8125 33.5 32.328125 
L 27.484375 33.5 
Q 16.453125 35.6875 11.515625 40.375 
Q 6.59375 45.0625 6.59375 53.421875 
Q 6.59375 63.09375 13.40625 68.65625 
Q 20.21875 74.21875 32.171875 74.21875 
Q 37.3125 74.21875 42.625 73.28125 
Q 47.953125 72.359375 53.515625 70.515625 
z
" id="DejaVuSans-83"/>
       </defs>
       <use xlink:href="#DejaVuSans-83"/>
       <use x="63.476562" xlink:href="#DejaVuSans-101"/>
       <use x="125" xlink:href="#DejaVuSans-112"/>
      </g>
     </g>
    </g>
    <g id="xtick_10">
     <g id="line2d_10">
      <g>
       <use style="fill:#252627;stroke:#252627;stroke-width:0.8;" x="400.449754" xlink:href="#m36c62a672b" y="437.3688"/>
      </g>
     </g>
     <g id="text_9">
      <!-- Oct -->
      <g style="fill:#252627;" transform="translate(386.617254 456.5263)scale(0.16 -0.16)">
       <defs>
        <path d="M 39.40625 66.21875 
Q 28.65625 66.21875 22.328125 58.203125 
Q 16.015625 50.203125 16.015625 36.375 
Q 16.015625 22.609375 22.328125 14.59375 
Q 28.65625 6.59375 39.40625 6.59375 
Q 50.140625 6.59375 56.421875 14.59375 
Q 62.703125 22.609375 62.703125 36.375 
Q 62.703125 50.203125 56.421875 58.203125 
Q 50.140625 66.21875 39.40625 66.21875 
z
M 39.40625 74.21875 
Q 54.734375 74.21875 63.90625 63.9375 
Q 73.09375 53.65625 73.09375 36.375 
Q 73.09375 19.140625 63.90625 8.859375 
Q 54.734375 -1.421875 39.40625 -1.421875 
Q 24.03125 -1.421875 14.8125 8.828125 
Q 5.609375 19.09375 5.609375 36.375 
Q 5.609375 53.65625 14.8125 63.9375 
Q 24.03125 74.21875 39.40625 74.21875 
z
" id="DejaVuSans-79"/>
        <path d="M 48.78125 52.59375 
L 48.78125 44.1875 
Q 44.96875 46.296875 41.140625 47.34375 
Q 37.3125 48.390625 33.40625 48.390625 
Q 24.65625 48.390625 19.8125 42.84375 
Q 14.984375 37.3125 14.984375 27.296875 
Q 14.984375 17.28125 19.8125 11.734375 
Q 24.65625 6.203125 33.40625 6.203125 
Q 37.3125 6.203125 41.140625 7.25 
Q 44.96875 8.296875 48.78125 10.40625 
L 48.78125 2.09375 
Q 45.015625 0.34375 40.984375 -0.53125 
Q 36.96875 -1.421875 32.421875 -1.421875 
Q 20.0625 -1.421875 12.78125 6.34375 
Q 5.515625 14.109375 5.515625 27.296875 
Q 5.515625 40.671875 12.859375 48.328125 
Q 20.21875 56 33.015625 56 
Q 37.15625 56 41.109375 55.140625 
Q 45.0625 54.296875 48.78125 52.59375 
z
" id="DejaVuSans-99"/>
        <path d="M 18.3125 70.21875 
L 18.3125 54.6875 
L 36.8125 54.6875 
L 36.8125 47.703125 
L 18.3125 47.703125 
L 18.3125 18.015625 
Q 18.3125 11.328125 20.140625 9.421875 
Q 21.96875 7.515625 27.59375 7.515625 
L 36.8125 7.515625 
L 36.8125 0 
L 27.59375 0 
Q 17.1875 0 13.234375 3.875 
Q 9.28125 7.765625 9.28125 18.015625 
L 9.28125 47.703125 
L 2.6875 47.703125 
L 2.6875 54.6875 
L 9.28125 54.6875 
L 9.28125 70.21875 
z
" id="DejaVuSans-116"/>
       </defs>
       <use xlink:href="#DejaVuSans-79"/>
       <use x="78.710938" xlink:href="#DejaVuSans-99"/>
       <use x="133.691406" xlink:href="#DejaVuSans-116"/>
      </g>
     </g>
    </g>
    <g id="xtick_11">
     <g id="line2d_11">
      <g>
       <use style="fill:#252627;stroke:#252627;stroke-width:0.8;" x="443.055665" xlink:href="#m36c62a672b" y="437.3688"/>
      </g>
     </g>
     <g id="text_10">
      <!-- Nov -->
      <g style="fill:#252627;" transform="translate(427.440665 456.5263)scale(0.16 -0.16)">
       <defs>
        <path d="M 9.8125 72.90625 
L 23.09375 72.90625 
L 55.421875 11.921875 
L 55.421875 72.90625 
L 64.984375 72.90625 
L 64.984375 0 
L 51.703125 0 
L 19.390625 60.984375 
L 19.390625 0 
L 9.8125 0 
z
" id="DejaVuSans-78"/>
        <path d="M 30.609375 48.390625 
Q 23.390625 48.390625 19.1875 42.75 
Q 14.984375 37.109375 14.984375 27.296875 
Q 14.984375 17.484375 19.15625 11.84375 
Q 23.34375 6.203125 30.609375 6.203125 
Q 37.796875 6.203125 41.984375 11.859375 
Q 46.1875 17.53125 46.1875 27.296875 
Q 46.1875 37.015625 41.984375 42.703125 
Q 37.796875 48.390625 30.609375 48.390625 
z
M 30.609375 56 
Q 42.328125 56 49.015625 48.375 
Q 55.71875 40.765625 55.71875 27.296875 
Q 55.71875 13.875 49.015625 6.21875 
Q 42.328125 -1.421875 30.609375 -1.421875 
Q 18.84375 -1.421875 12.171875 6.21875 
Q 5.515625 13.875 5.515625 27.296875 
Q 5.515625 40.765625 12.171875 48.375 
Q 18.84375 56 30.609375 56 
z
" id="DejaVuSans-111"/>
        <path d="M 2.984375 54.6875 
L 12.5 54.6875 
L 29.59375 8.796875 
L 46.6875 54.6875 
L 56.203125 54.6875 
L 35.6875 0 
L 23.484375 0 
z
" id="DejaVuSans-118"/>
       </defs>
       <use xlink:href="#DejaVuSans-78"/>
       <use x="74.804688" xlink:href="#DejaVuSans-111"/>
       <use x="135.986328" xlink:href="#DejaVuSans-118"/>
      </g>
     </g>
    </g>
    <g id="xtick_12">
     <g id="line2d_12">
      <g>
       <use style="fill:#252627;stroke:#252627;stroke-width:0.8;" x="484.287192" xlink:href="#m36c62a672b" y="437.3688"/>
      </g>
     </g>
     <g id="text_11">
      <!-- Dec -->
      <g style="fill:#252627;" transform="translate(468.805942 456.5263)scale(0.16 -0.16)">
       <defs>
        <path d="M 19.671875 64.796875 
L 19.671875 8.109375 
L 31.59375 8.109375 
Q 46.6875 8.109375 53.6875 14.9375 
Q 60.6875 21.78125 60.6875 36.53125 
Q 60.6875 51.171875 53.6875 57.984375 
Q 46.6875 64.796875 31.59375 64.796875 
z
M 9.8125 72.90625 
L 30.078125 72.90625 
Q 51.265625 72.90625 61.171875 64.09375 
Q 71.09375 55.28125 71.09375 36.53125 
Q 71.09375 17.671875 61.125 8.828125 
Q 51.171875 0 30.078125 0 
L 9.8125 0 
z
" id="DejaVuSans-68"/>
       </defs>
       <use xlink:href="#DejaVuSans-68"/>
       <use x="77.001953" xlink:href="#DejaVuSans-101"/>
       <use x="138.525391" xlink:href="#DejaVuSans-99"/>
      </g>
     </g>
    </g>
    <g id="xtick_13">
     <g id="line2d_13">
      <g>
       <use style="fill:#252627;stroke:#252627;stroke-width:0.8;" x="526.893103" xlink:href="#m36c62a672b" y="437.3688"/>
      </g>
     </g>
     <g id="text_12">
      <!-- Jan -->
      <g style="fill:#252627;" transform="translate(514.560603 456.5263)scale(0.16 -0.16)">
       <use xlink:href="#DejaVuSans-74"/>
       <use x="29.492188" xlink:href="#DejaVuSans-97"/>
       <use x="90.771484" xlink:href="#DejaVuSans-110"/>
      </g>
      <!-- 2021 -->
      <g style="fill:#252627;" transform="translate(506.533103 474.4428)scale(0.16 -0.16)">
       <defs>
        <path d="M 19.1875 8.296875 
L 53.609375 8.296875 
L 53.609375 0 
L 7.328125 0 
L 7.328125 8.296875 
Q 12.9375 14.109375 22.625 23.890625 
Q 32.328125 33.6875 34.8125 36.53125 
Q 39.546875 41.84375 41.421875 45.53125 
Q 43.3125 49.21875 43.3125 52.78125 
Q 43.3125 58.59375 39.234375 62.25 
Q 35.15625 65.921875 28.609375 65.921875 
Q 23.96875 65.921875 18.8125 64.3125 
Q 13.671875 62.703125 7.8125 59.421875 
L 7.8125 69.390625 
Q 13.765625 71.78125 18.9375 73 
Q 24.125 74.21875 28.421875 74.21875 
Q 39.75 74.21875 46.484375 68.546875 
Q 53.21875 62.890625 53.21875 53.421875 
Q 53.21875 48.921875 51.53125 44.890625 
Q 49.859375 40.875 45.40625 35.40625 
Q 44.1875 33.984375 37.640625 27.21875 
Q 31.109375 20.453125 19.1875 8.296875 
z
" id="DejaVuSans-50"/>
        <path d="M 31.78125 66.40625 
Q 24.171875 66.40625 20.328125 58.90625 
Q 16.5 51.421875 16.5 36.375 
Q 16.5 21.390625 20.328125 13.890625 
Q 24.171875 6.390625 31.78125 6.390625 
Q 39.453125 6.390625 43.28125 13.890625 
Q 47.125 21.390625 47.125 36.375 
Q 47.125 51.421875 43.28125 58.90625 
Q 39.453125 66.40625 31.78125 66.40625 
z
M 31.78125 74.21875 
Q 44.046875 74.21875 50.515625 64.515625 
Q 56.984375 54.828125 56.984375 36.375 
Q 56.984375 17.96875 50.515625 8.265625 
Q 44.046875 -1.421875 31.78125 -1.421875 
Q 19.53125 -1.421875 13.0625 8.265625 
Q 6.59375 17.96875 6.59375 36.375 
Q 6.59375 54.828125 13.0625 64.515625 
Q 19.53125 74.21875 31.78125 74.21875 
z
" id="DejaVuSans-48"/>
        <path d="M 12.40625 8.296875 
L 28.515625 8.296875 
L 28.515625 63.921875 
L 10.984375 60.40625 
L 10.984375 69.390625 
L 28.421875 72.90625 
L 38.28125 72.90625 
L 38.28125 8.296875 
L 54.390625 8.296875 
L 54.390625 0 
L 12.40625 0 
z
" id="DejaVuSans-49"/>
       </defs>
       <use xlink:href="#DejaVuSans-50"/>
       <use x="63.623047" xlink:href="#DejaVuSans-48"/>
       <use x="127.246094" xlink:href="#DejaVuSans-50"/>
       <use x="190.869141" xlink:href="#DejaVuSans-49"/>
      </g>
     </g>
    </g>
    <g id="xtick_14">
     <g id="line2d_14">
      <g>
       <use style="fill:#252627;stroke:#252627;stroke-width:0.8;" x="569.499015" xlink:href="#m36c62a672b" y="437.3688"/>
      </g>
     </g>
     <g id="text_13">
      <!-- Feb -->
      <g style="fill:#252627;" transform="translate(555.336515 456.5263)scale(0.16 -0.16)">
       <use xlink:href="#DejaVuSans-70"/>
       <use x="52.019531" xlink:href="#DejaVuSans-101"/>
       <use x="113.542969" xlink:href="#DejaVuSans-98"/>
      </g>
     </g>
    </g>
    <g id="xtick_15">
     <g id="line2d_15">
      <g>
       <use style="fill:#252627;stroke:#252627;stroke-width:0.8;" x="607.981773" xlink:href="#m36c62a672b" y="437.3688"/>
      </g>
     </g>
     <g id="text_14">
      <!-- Mar -->
      <g style="fill:#252627;" transform="translate(592.888023 456.5263)scale(0.16 -0.16)">
       <use xlink:href="#DejaVuSans-77"/>
       <use x="86.279297" xlink:href="#DejaVuSans-97"/>
       <use x="147.558594" xlink:href="#DejaVuSans-114"/>
      </g>
     </g>
    </g>
    <g id="xtick_16">
     <g id="line2d_16">
      <g>
       <use style="fill:#252627;stroke:#252627;stroke-width:0.8;" x="623.1" xlink:href="#m36c62a672b" y="437.3688"/>
      </g>
     </g>
    </g>
    <g id="xtick_17">
     <g id="line2d_17">
      <defs>
       <path d="M 0 0 
L 0 2 
" id="ma0e6d9124d" style="stroke:#252627;stroke-width:0.6;"/>
      </defs>
      <g>
       <use style="fill:#252627;stroke:#252627;stroke-width:0.6;" x="69.223153" xlink:href="#ma0e6d9124d" y="437.3688"/>
      </g>
     </g>
    </g>
    <g id="xtick_18">
     <g id="line2d_18">
      <g>
       <use style="fill:#252627;stroke:#252627;stroke-width:0.6;" x="78.843842" xlink:href="#ma0e6d9124d" y="437.3688"/>
      </g>
     </g>
    </g>
    <g id="xtick_19">
     <g id="line2d_19">
      <g>
       <use style="fill:#252627;stroke:#252627;stroke-width:0.6;" x="88.464532" xlink:href="#ma0e6d9124d" y="437.3688"/>
      </g>
     </g>
    </g>
    <g id="xtick_20">
     <g id="line2d_20">
      <g>
       <use style="fill:#252627;stroke:#252627;stroke-width:0.6;" x="98.085222" xlink:href="#ma0e6d9124d" y="437.3688"/>
      </g>
     </g>
    </g>
    <g id="xtick_21">
     <g id="line2d_21">
      <g>
       <use style="fill:#252627;stroke:#252627;stroke-width:0.6;" x="107.705911" xlink:href="#ma0e6d9124d" y="437.3688"/>
      </g>
     </g>
    </g>
    <g id="xtick_22">
     <g id="line2d_22">
      <g>
       <use style="fill:#252627;stroke:#252627;stroke-width:0.6;" x="117.326601" xlink:href="#ma0e6d9124d" y="437.3688"/>
      </g>
     </g>
    </g>
    <g id="xtick_23">
     <g id="line2d_23">
      <g>
       <use style="fill:#252627;stroke:#252627;stroke-width:0.6;" x="126.947291" xlink:href="#ma0e6d9124d" y="437.3688"/>
      </g>
     </g>
    </g>
    <g id="xtick_24">
     <g id="line2d_24">
      <g>
       <use style="fill:#252627;stroke:#252627;stroke-width:0.6;" x="136.56798" xlink:href="#ma0e6d9124d" y="437.3688"/>
      </g>
     </g>
    </g>
    <g id="xtick_25">
     <g id="line2d_25">
      <g>
       <use style="fill:#252627;stroke:#252627;stroke-width:0.6;" x="146.18867" xlink:href="#ma0e6d9124d" y="437.3688"/>
      </g>
     </g>
    </g>
    <g id="xtick_26">
     <g id="line2d_26">
      <g>
       <use style="fill:#252627;stroke:#252627;stroke-width:0.6;" x="155.80936" xlink:href="#ma0e6d9124d" y="437.3688"/>
      </g>
     </g>
    </g>
    <g id="xtick_27">
     <g id="line2d_27">
      <g>
       <use style="fill:#252627;stroke:#252627;stroke-width:0.6;" x="165.430049" xlink:href="#ma0e6d9124d" y="437.3688"/>
      </g>
     </g>
    </g>
    <g id="xtick_28">
     <g id="line2d_28">
      <g>
       <use style="fill:#252627;stroke:#252627;stroke-width:0.6;" x="175.050739" xlink:href="#ma0e6d9124d" y="437.3688"/>
      </g>
     </g>
    </g>
    <g id="xtick_29">
     <g id="line2d_29">
      <g>
       <use style="fill:#252627;stroke:#252627;stroke-width:0.6;" x="184.671429" xlink:href="#ma0e6d9124d" y="437.3688"/>
      </g>
     </g>
    </g>
    <g id="xtick_30">
     <g id="line2d_30">
      <g>
       <use style="fill:#252627;stroke:#252627;stroke-width:0.6;" x="194.292118" xlink:href="#ma0e6d9124d" y="437.3688"/>
      </g>
     </g>
    </g>
    <g id="xtick_31">
     <g id="line2d_31">
      <g>
       <use style="fill:#252627;stroke:#252627;stroke-width:0.6;" x="203.912808" xlink:href="#ma0e6d9124d" y="437.3688"/>
      </g>
     </g>
    </g>
    <g id="xtick_32">
     <g id="line2d_32">
      <g>
       <use style="fill:#252627;stroke:#252627;stroke-width:0.6;" x="213.533498" xlink:href="#ma0e6d9124d" y="437.3688"/>
      </g>
     </g>
    </g>
    <g id="xtick_33">
     <g id="line2d_33">
      <g>
       <use style="fill:#252627;stroke:#252627;stroke-width:0.6;" x="223.154187" xlink:href="#ma0e6d9124d" y="437.3688"/>
      </g>
     </g>
    </g>
    <g id="xtick_34">
     <g id="line2d_34">
      <g>
       <use style="fill:#252627;stroke:#252627;stroke-width:0.6;" x="242.395567" xlink:href="#ma0e6d9124d" y="437.3688"/>
      </g>
     </g>
    </g>
    <g id="xtick_35">
     <g id="line2d_35">
      <g>
       <use style="fill:#252627;stroke:#252627;stroke-width:0.6;" x="252.016256" xlink:href="#ma0e6d9124d" y="437.3688"/>
      </g>
     </g>
    </g>
    <g id="xtick_36">
     <g id="line2d_36">
      <g>
       <use style="fill:#252627;stroke:#252627;stroke-width:0.6;" x="261.636946" xlink:href="#ma0e6d9124d" y="437.3688"/>
      </g>
     </g>
    </g>
    <g id="xtick_37">
     <g id="line2d_37">
      <g>
       <use style="fill:#252627;stroke:#252627;stroke-width:0.6;" x="271.257635" xlink:href="#ma0e6d9124d" y="437.3688"/>
      </g>
     </g>
    </g>
    <g id="xtick_38">
     <g id="line2d_38">
      <g>
       <use style="fill:#252627;stroke:#252627;stroke-width:0.6;" x="280.878325" xlink:href="#ma0e6d9124d" y="437.3688"/>
      </g>
     </g>
    </g>
    <g id="xtick_39">
     <g id="line2d_39">
      <g>
       <use style="fill:#252627;stroke:#252627;stroke-width:0.6;" x="290.499015" xlink:href="#ma0e6d9124d" y="437.3688"/>
      </g>
     </g>
    </g>
    <g id="xtick_40">
     <g id="line2d_40">
      <g>
       <use style="fill:#252627;stroke:#252627;stroke-width:0.6;" x="300.119704" xlink:href="#ma0e6d9124d" y="437.3688"/>
      </g>
     </g>
    </g>
    <g id="xtick_41">
     <g id="line2d_41">
      <g>
       <use style="fill:#252627;stroke:#252627;stroke-width:0.6;" x="309.740394" xlink:href="#ma0e6d9124d" y="437.3688"/>
      </g>
     </g>
    </g>
    <g id="xtick_42">
     <g id="line2d_42">
      <g>
       <use style="fill:#252627;stroke:#252627;stroke-width:0.6;" x="319.361084" xlink:href="#ma0e6d9124d" y="437.3688"/>
      </g>
     </g>
    </g>
    <g id="xtick_43">
     <g id="line2d_43">
      <g>
       <use style="fill:#252627;stroke:#252627;stroke-width:0.6;" x="328.981773" xlink:href="#ma0e6d9124d" y="437.3688"/>
      </g>
     </g>
    </g>
    <g id="xtick_44">
     <g id="line2d_44">
      <g>
       <use style="fill:#252627;stroke:#252627;stroke-width:0.6;" x="338.602463" xlink:href="#ma0e6d9124d" y="437.3688"/>
      </g>
     </g>
    </g>
    <g id="xtick_45">
     <g id="line2d_45">
      <g>
       <use style="fill:#252627;stroke:#252627;stroke-width:0.6;" x="348.223153" xlink:href="#ma0e6d9124d" y="437.3688"/>
      </g>
     </g>
    </g>
    <g id="xtick_46">
     <g id="line2d_46">
      <g>
       <use style="fill:#252627;stroke:#252627;stroke-width:0.6;" x="357.843842" xlink:href="#ma0e6d9124d" y="437.3688"/>
      </g>
     </g>
    </g>
    <g id="xtick_47">
     <g id="line2d_47">
      <g>
       <use style="fill:#252627;stroke:#252627;stroke-width:0.6;" x="367.464532" xlink:href="#ma0e6d9124d" y="437.3688"/>
      </g>
     </g>
    </g>
    <g id="xtick_48">
     <g id="line2d_48">
      <g>
       <use style="fill:#252627;stroke:#252627;stroke-width:0.6;" x="377.085222" xlink:href="#ma0e6d9124d" y="437.3688"/>
      </g>
     </g>
    </g>
    <g id="xtick_49">
     <g id="line2d_49">
      <g>
       <use style="fill:#252627;stroke:#252627;stroke-width:0.6;" x="386.705911" xlink:href="#ma0e6d9124d" y="437.3688"/>
      </g>
     </g>
    </g>
    <g id="xtick_50">
     <g id="line2d_50">
      <g>
       <use style="fill:#252627;stroke:#252627;stroke-width:0.6;" x="396.326601" xlink:href="#ma0e6d9124d" y="437.3688"/>
      </g>
     </g>
    </g>
    <g id="xtick_51">
     <g id="line2d_51">
      <g>
       <use style="fill:#252627;stroke:#252627;stroke-width:0.6;" x="405.947291" xlink:href="#ma0e6d9124d" y="437.3688"/>
      </g>
     </g>
    </g>
    <g id="xtick_52">
     <g id="line2d_52">
      <g>
       <use style="fill:#252627;stroke:#252627;stroke-width:0.6;" x="415.56798" xlink:href="#ma0e6d9124d" y="437.3688"/>
      </g>
     </g>
    </g>
    <g id="xtick_53">
     <g id="line2d_53">
      <g>
       <use style="fill:#252627;stroke:#252627;stroke-width:0.6;" x="425.18867" xlink:href="#ma0e6d9124d" y="437.3688"/>
      </g>
     </g>
    </g>
    <g id="xtick_54">
     <g id="line2d_54">
      <g>
       <use style="fill:#252627;stroke:#252627;stroke-width:0.6;" x="434.80936" xlink:href="#ma0e6d9124d" y="437.3688"/>
      </g>
     </g>
    </g>
    <g id="xtick_55">
     <g id="line2d_55">
      <g>
       <use style="fill:#252627;stroke:#252627;stroke-width:0.6;" x="444.430049" xlink:href="#ma0e6d9124d" y="437.3688"/>
      </g>
     </g>
    </g>
    <g id="xtick_56">
     <g id="line2d_56">
      <g>
       <use style="fill:#252627;stroke:#252627;stroke-width:0.6;" x="454.050739" xlink:href="#ma0e6d9124d" y="437.3688"/>
      </g>
     </g>
    </g>
    <g id="xtick_57">
     <g id="line2d_57">
      <g>
       <use style="fill:#252627;stroke:#252627;stroke-width:0.6;" x="463.671429" xlink:href="#ma0e6d9124d" y="437.3688"/>
      </g>
     </g>
    </g>
    <g id="xtick_58">
     <g id="line2d_58">
      <g>
       <use style="fill:#252627;stroke:#252627;stroke-width:0.6;" x="473.292118" xlink:href="#ma0e6d9124d" y="437.3688"/>
      </g>
     </g>
    </g>
    <g id="xtick_59">
     <g id="line2d_59">
      <g>
       <use style="fill:#252627;stroke:#252627;stroke-width:0.6;" x="482.912808" xlink:href="#ma0e6d9124d" y="437.3688"/>
      </g>
     </g>
    </g>
    <g id="xtick_60">
     <g id="line2d_60">
      <g>
       <use style="fill:#252627;stroke:#252627;stroke-width:0.6;" x="492.533498" xlink:href="#ma0e6d9124d" y="437.3688"/>
      </g>
     </g>
    </g>
    <g id="xtick_61">
     <g id="line2d_61">
      <g>
       <use style="fill:#252627;stroke:#252627;stroke-width:0.6;" x="502.154187" xlink:href="#ma0e6d9124d" y="437.3688"/>
      </g>
     </g>
    </g>
    <g id="xtick_62">
     <g id="line2d_62">
      <g>
       <use style="fill:#252627;stroke:#252627;stroke-width:0.6;" x="511.774877" xlink:href="#ma0e6d9124d" y="437.3688"/>
      </g>
     </g>
    </g>
    <g id="xtick_63">
     <g id="line2d_63">
      <g>
       <use style="fill:#252627;stroke:#252627;stroke-width:0.6;" x="521.395567" xlink:href="#ma0e6d9124d" y="437.3688"/>
      </g>
     </g>
    </g>
    <g id="xtick_64">
     <g id="line2d_64">
      <g>
       <use style="fill:#252627;stroke:#252627;stroke-width:0.6;" x="531.016256" xlink:href="#ma0e6d9124d" y="437.3688"/>
      </g>
     </g>
    </g>
    <g id="xtick_65">
     <g id="line2d_65">
      <g>
       <use style="fill:#252627;stroke:#252627;stroke-width:0.6;" x="540.636946" xlink:href="#ma0e6d9124d" y="437.3688"/>
      </g>
     </g>
    </g>
    <g id="xtick_66">
     <g id="line2d_66">
      <g>
       <use style="fill:#252627;stroke:#252627;stroke-width:0.6;" x="550.257635" xlink:href="#ma0e6d9124d" y="437.3688"/>
      </g>
     </g>
    </g>
    <g id="xtick_67">
     <g id="line2d_67">
      <g>
       <use style="fill:#252627;stroke:#252627;stroke-width:0.6;" x="559.878325" xlink:href="#ma0e6d9124d" y="437.3688"/>
      </g>
     </g>
    </g>
    <g id="xtick_68">
     <g id="line2d_68">
      <g>
       <use style="fill:#252627;stroke:#252627;stroke-width:0.6;" x="579.119704" xlink:href="#ma0e6d9124d" y="437.3688"/>
      </g>
     </g>
    </g>
    <g id="xtick_69">
     <g id="line2d_69">
      <g>
       <use style="fill:#252627;stroke:#252627;stroke-width:0.6;" x="588.740394" xlink:href="#ma0e6d9124d" y="437.3688"/>
      </g>
     </g>
    </g>
    <g id="xtick_70">
     <g id="line2d_70">
      <g>
       <use style="fill:#252627;stroke:#252627;stroke-width:0.6;" x="598.361084" xlink:href="#ma0e6d9124d" y="437.3688"/>
      </g>
     </g>
    </g>
    <g id="xtick_71">
     <g id="line2d_71">
      <g>
       <use style="fill:#252627;stroke:#252627;stroke-width:0.6;" x="617.602463" xlink:href="#ma0e6d9124d" y="437.3688"/>
      </g>
     </g>
    </g>
    <g id="text_15">
     <!-- date -->
     <g style="fill:#252627;" transform="translate(326.06 493.9278)scale(0.16 -0.16)">
      <defs>
       <path d="M 45.40625 46.390625 
L 45.40625 75.984375 
L 54.390625 75.984375 
L 54.390625 0 
L 45.40625 0 
L 45.40625 8.203125 
Q 42.578125 3.328125 38.25 0.953125 
Q 33.9375 -1.421875 27.875 -1.421875 
Q 17.96875 -1.421875 11.734375 6.484375 
Q 5.515625 14.40625 5.515625 27.296875 
Q 5.515625 40.1875 11.734375 48.09375 
Q 17.96875 56 27.875 56 
Q 33.9375 56 38.25 53.625 
Q 42.578125 51.265625 45.40625 46.390625 
z
M 14.796875 27.296875 
Q 14.796875 17.390625 18.875 11.75 
Q 22.953125 6.109375 30.078125 6.109375 
Q 37.203125 6.109375 41.296875 11.75 
Q 45.40625 17.390625 45.40625 27.296875 
Q 45.40625 37.203125 41.296875 42.84375 
Q 37.203125 48.484375 30.078125 48.484375 
Q 22.953125 48.484375 18.875 42.84375 
Q 14.796875 37.203125 14.796875 27.296875 
z
" id="DejaVuSans-100"/>
      </defs>
      <use xlink:href="#DejaVuSans-100"/>
      <use x="63.476562" xlink:href="#DejaVuSans-97"/>
      <use x="124.755859" xlink:href="#DejaVuSans-116"/>
      <use x="163.964844" xlink:href="#DejaVuSans-101"/>
     </g>
    </g>
   </g>
   <g id="matplotlib.axis_2">
    <g id="ytick_1">
     <g id="line2d_72">
      <defs>
       <path d="M 0 0 
L -3.5 0 
" id="m4e3911da5b" style="stroke:#252627;stroke-width:0.8;"/>
      </defs>
      <g>
       <use style="fill:#252627;stroke:#252627;stroke-width:0.8;" x="65.1" xlink:href="#m4e3911da5b" y="386.490008"/>
      </g>
     </g>
     <g id="text_16">
      <!-- 0 -->
      <g style="fill:#252627;" transform="translate(47.92 392.568758)scale(0.16 -0.16)">
       <use xlink:href="#DejaVuSans-48"/>
      </g>
     </g>
    </g>
    <g id="ytick_2">
     <g id="line2d_73">
      <g>
       <use style="fill:#252627;stroke:#252627;stroke-width:0.8;" x="65.1" xlink:href="#m4e3911da5b" y="333.077199"/>
      </g>
     </g>
     <g id="text_17">
      <!-- 10000 -->
      <g style="fill:#252627;" transform="translate(7.2 339.155949)scale(0.16 -0.16)">
       <use xlink:href="#DejaVuSans-49"/>
       <use x="63.623047" xlink:href="#DejaVuSans-48"/>
       <use x="127.246094" xlink:href="#DejaVuSans-48"/>
       <use x="190.869141" xlink:href="#DejaVuSans-48"/>
       <use x="254.492188" xlink:href="#DejaVuSans-48"/>
      </g>
     </g>
    </g>
    <g id="ytick_3">
     <g id="line2d_74">
      <g>
       <use style="fill:#252627;stroke:#252627;stroke-width:0.8;" x="65.1" xlink:href="#m4e3911da5b" y="279.664389"/>
      </g>
     </g>
     <g id="text_18">
      <!-- 20000 -->
      <g style="fill:#252627;" transform="translate(7.2 285.743139)scale(0.16 -0.16)">
       <use xlink:href="#DejaVuSans-50"/>
       <use x="63.623047" xlink:href="#DejaVuSans-48"/>
       <use x="127.246094" xlink:href="#DejaVuSans-48"/>
       <use x="190.869141" xlink:href="#DejaVuSans-48"/>
       <use x="254.492188" xlink:href="#DejaVuSans-48"/>
      </g>
     </g>
    </g>
    <g id="ytick_4">
     <g id="line2d_75">
      <g>
       <use style="fill:#252627;stroke:#252627;stroke-width:0.8;" x="65.1" xlink:href="#m4e3911da5b" y="226.251579"/>
      </g>
     </g>
     <g id="text_19">
      <!-- 30000 -->
      <g style="fill:#252627;" transform="translate(7.2 232.330329)scale(0.16 -0.16)">
       <defs>
        <path d="M 40.578125 39.3125 
Q 47.65625 37.796875 51.625 33 
Q 55.609375 28.21875 55.609375 21.1875 
Q 55.609375 10.40625 48.1875 4.484375 
Q 40.765625 -1.421875 27.09375 -1.421875 
Q 22.515625 -1.421875 17.65625 -0.515625 
Q 12.796875 0.390625 7.625 2.203125 
L 7.625 11.71875 
Q 11.71875 9.328125 16.59375 8.109375 
Q 21.484375 6.890625 26.8125 6.890625 
Q 36.078125 6.890625 40.9375 10.546875 
Q 45.796875 14.203125 45.796875 21.1875 
Q 45.796875 27.640625 41.28125 31.265625 
Q 36.765625 34.90625 28.71875 34.90625 
L 20.21875 34.90625 
L 20.21875 43.015625 
L 29.109375 43.015625 
Q 36.375 43.015625 40.234375 45.921875 
Q 44.09375 48.828125 44.09375 54.296875 
Q 44.09375 59.90625 40.109375 62.90625 
Q 36.140625 65.921875 28.71875 65.921875 
Q 24.65625 65.921875 20.015625 65.03125 
Q 15.375 64.15625 9.8125 62.3125 
L 9.8125 71.09375 
Q 15.4375 72.65625 20.34375 73.4375 
Q 25.25 74.21875 29.59375 74.21875 
Q 40.828125 74.21875 47.359375 69.109375 
Q 53.90625 64.015625 53.90625 55.328125 
Q 53.90625 49.265625 50.4375 45.09375 
Q 46.96875 40.921875 40.578125 39.3125 
z
" id="DejaVuSans-51"/>
       </defs>
       <use xlink:href="#DejaVuSans-51"/>
       <use x="63.623047" xlink:href="#DejaVuSans-48"/>
       <use x="127.246094" xlink:href="#DejaVuSans-48"/>
       <use x="190.869141" xlink:href="#DejaVuSans-48"/>
       <use x="254.492188" xlink:href="#DejaVuSans-48"/>
      </g>
     </g>
    </g>
    <g id="ytick_5">
     <g id="line2d_76">
      <g>
       <use style="fill:#252627;stroke:#252627;stroke-width:0.8;" x="65.1" xlink:href="#m4e3911da5b" y="172.838769"/>
      </g>
     </g>
     <g id="text_20">
      <!-- 40000 -->
      <g style="fill:#252627;" transform="translate(7.2 178.917519)scale(0.16 -0.16)">
       <defs>
        <path d="M 37.796875 64.3125 
L 12.890625 25.390625 
L 37.796875 25.390625 
z
M 35.203125 72.90625 
L 47.609375 72.90625 
L 47.609375 25.390625 
L 58.015625 25.390625 
L 58.015625 17.1875 
L 47.609375 17.1875 
L 47.609375 0 
L 37.796875 0 
L 37.796875 17.1875 
L 4.890625 17.1875 
L 4.890625 26.703125 
z
" id="DejaVuSans-52"/>
       </defs>
       <use xlink:href="#DejaVuSans-52"/>
       <use x="63.623047" xlink:href="#DejaVuSans-48"/>
       <use x="127.246094" xlink:href="#DejaVuSans-48"/>
       <use x="190.869141" xlink:href="#DejaVuSans-48"/>
       <use x="254.492188" xlink:href="#DejaVuSans-48"/>
      </g>
     </g>
    </g>
    <g id="ytick_6">
     <g id="line2d_77">
      <g>
       <use style="fill:#252627;stroke:#252627;stroke-width:0.8;" x="65.1" xlink:href="#m4e3911da5b" y="119.425959"/>
      </g>
     </g>
     <g id="text_21">
      <!-- 50000 -->
      <g style="fill:#252627;" transform="translate(7.2 125.504709)scale(0.16 -0.16)">
       <defs>
        <path d="M 10.796875 72.90625 
L 49.515625 72.90625 
L 49.515625 64.59375 
L 19.828125 64.59375 
L 19.828125 46.734375 
Q 21.96875 47.46875 24.109375 47.828125 
Q 26.265625 48.1875 28.421875 48.1875 
Q 40.625 48.1875 47.75 41.5 
Q 54.890625 34.8125 54.890625 23.390625 
Q 54.890625 11.625 47.5625 5.09375 
Q 40.234375 -1.421875 26.90625 -1.421875 
Q 22.3125 -1.421875 17.546875 -0.640625 
Q 12.796875 0.140625 7.71875 1.703125 
L 7.71875 11.625 
Q 12.109375 9.234375 16.796875 8.0625 
Q 21.484375 6.890625 26.703125 6.890625 
Q 35.15625 6.890625 40.078125 11.328125 
Q 45.015625 15.765625 45.015625 23.390625 
Q 45.015625 31 40.078125 35.4375 
Q 35.15625 39.890625 26.703125 39.890625 
Q 22.75 39.890625 18.8125 39.015625 
Q 14.890625 38.140625 10.796875 36.28125 
z
" id="DejaVuSans-53"/>
       </defs>
       <use xlink:href="#DejaVuSans-53"/>
       <use x="63.623047" xlink:href="#DejaVuSans-48"/>
       <use x="127.246094" xlink:href="#DejaVuSans-48"/>
       <use x="190.869141" xlink:href="#DejaVuSans-48"/>
       <use x="254.492188" xlink:href="#DejaVuSans-48"/>
      </g>
     </g>
    </g>
    <g id="ytick_7">
     <g id="line2d_78">
      <g>
       <use style="fill:#252627;stroke:#252627;stroke-width:0.8;" x="65.1" xlink:href="#m4e3911da5b" y="66.01315"/>
      </g>
     </g>
     <g id="text_22">
      <!-- 60000 -->
      <g style="fill:#252627;" transform="translate(7.2 72.0919)scale(0.16 -0.16)">
       <defs>
        <path d="M 33.015625 40.375 
Q 26.375 40.375 22.484375 35.828125 
Q 18.609375 31.296875 18.609375 23.390625 
Q 18.609375 15.53125 22.484375 10.953125 
Q 26.375 6.390625 33.015625 6.390625 
Q 39.65625 6.390625 43.53125 10.953125 
Q 47.40625 15.53125 47.40625 23.390625 
Q 47.40625 31.296875 43.53125 35.828125 
Q 39.65625 40.375 33.015625 40.375 
z
M 52.59375 71.296875 
L 52.59375 62.3125 
Q 48.875 64.0625 45.09375 64.984375 
Q 41.3125 65.921875 37.59375 65.921875 
Q 27.828125 65.921875 22.671875 59.328125 
Q 17.53125 52.734375 16.796875 39.40625 
Q 19.671875 43.65625 24.015625 45.921875 
Q 28.375 48.1875 33.59375 48.1875 
Q 44.578125 48.1875 50.953125 41.515625 
Q 57.328125 34.859375 57.328125 23.390625 
Q 57.328125 12.15625 50.6875 5.359375 
Q 44.046875 -1.421875 33.015625 -1.421875 
Q 20.359375 -1.421875 13.671875 8.265625 
Q 6.984375 17.96875 6.984375 36.375 
Q 6.984375 53.65625 15.1875 63.9375 
Q 23.390625 74.21875 37.203125 74.21875 
Q 40.921875 74.21875 44.703125 73.484375 
Q 48.484375 72.75 52.59375 71.296875 
z
" id="DejaVuSans-54"/>
       </defs>
       <use xlink:href="#DejaVuSans-54"/>
       <use x="63.623047" xlink:href="#DejaVuSans-48"/>
       <use x="127.246094" xlink:href="#DejaVuSans-48"/>
       <use x="190.869141" xlink:href="#DejaVuSans-48"/>
       <use x="254.492188" xlink:href="#DejaVuSans-48"/>
      </g>
     </g>
    </g>
   </g>
   <g id="line2d_79">
    <path clip-path="url(#p0b6a409b91)" d="M 73.346305 386.489245 
L 107.705911 386.39997 
L 114.577833 386.142825 
L 115.952217 386.040577 
L 117.326601 385.76283 
L 120.075369 384.921963 
L 121.449754 384.950192 
L 122.824138 382.802997 
L 124.198522 381.994941 
L 125.572906 381.053348 
L 126.947291 379.722605 
L 128.321675 378.819165 
L 129.696059 377.613563 
L 131.070443 374.520962 
L 132.444828 374.908584 
L 133.819212 372.005218 
L 135.193596 370.489058 
L 136.56798 367.265974 
L 137.942365 365.02035 
L 139.316749 359.321962 
L 140.691133 356.103461 
L 142.065517 351.917424 
L 143.439901 349.970143 
L 144.814286 347.314004 
L 146.18867 346.18623 
L 147.563054 343.730763 
L 148.937438 344.825725 
L 150.311823 345.072952 
L 151.686207 345.682622 
L 153.060591 346.100005 
L 154.434975 347.16597 
L 157.183744 351.375663 
L 158.558128 352.838411 
L 159.932512 355.085568 
L 162.681281 358.365114 
L 165.430049 360.986156 
L 166.804433 363.141742 
L 168.178818 364.038313 
L 169.553202 362.281795 
L 170.927586 361.640842 
L 172.30197 364.59152 
L 173.676355 362.192521 
L 175.050739 363.514109 
L 176.425123 362.34971 
L 177.799507 363.030339 
L 179.173892 365.066894 
L 180.548276 377.218308 
L 181.92266 375.670865 
L 183.297044 379.653169 
L 184.671429 379.428071 
L 186.045813 381.457758 
L 187.420197 383.034963 
L 188.794581 386.1764 
L 190.168966 377.161082 
L 191.54335 378.343027 
L 192.917734 378.9878 
L 194.292118 379.969068 
L 195.666502 379.961435 
L 197.040887 380.837406 
L 198.415271 380.376533 
L 199.789655 380.659621 
L 201.164039 381.151777 
L 202.538424 381.237238 
L 203.912808 379.298353 
L 205.287192 379.850796 
L 208.035961 380.314724 
L 209.410345 380.899979 
L 210.784729 381.057162 
L 212.159113 381.64623 
L 213.533498 383.308133 
L 216.282266 383.541621 
L 217.65665 383.821659 
L 219.031034 382.948739 
L 220.405419 382.986128 
L 221.779803 382.618344 
L 223.154187 383.595034 
L 224.528571 383.268452 
L 225.902956 383.663707 
L 227.27734 382.774768 
L 228.651724 383.636237 
L 230.026108 383.485159 
L 231.400493 383.661421 
L 232.774877 383.256242 
L 234.149261 383.687364 
L 235.523645 383.386724 
L 236.89803 384.388594 
L 239.646798 384.901357 
L 246.518719 384.928063 
L 249.267488 384.738832 
L 252.016256 384.664818 
L 254.765025 384.656421 
L 256.139409 384.535863 
L 257.513793 384.684655 
L 261.636946 384.662527 
L 264.385714 384.656421 
L 265.760099 384.797586 
L 269.883251 384.583935 
L 272.63202 384.567911 
L 276.755172 384.475582 
L 278.129557 384.905939 
L 279.503941 385.135614 
L 280.878325 384.339 
L 285.001478 384.236752 
L 286.375862 383.923902 
L 289.124631 383.923902 
L 290.499015 383.31271 
L 291.873399 383.06472 
L 293.247783 382.689308 
L 294.622167 382.065136 
L 295.996552 381.646994 
L 298.74532 381.646994 
L 300.119704 379.711923 
L 301.494089 379.1839 
L 302.868473 378.816115 
L 304.242857 377.859262 
L 305.617241 377.206862 
L 308.36601 377.206862 
L 309.740394 375.848649 
L 311.114778 375.490019 
L 312.489163 374.975734 
L 313.863547 374.842966 
L 315.237931 374.204298 
L 317.9867 374.204298 
L 319.361084 372.547737 
L 320.735468 369.547465 
L 322.109852 368.843944 
L 324.858621 366.773049 
L 328.981773 366.707431 
L 330.356158 368.331181 
L 331.730542 368.164073 
L 333.104926 365.522431 
L 334.47931 364.780751 
L 337.228079 364.780751 
L 338.602463 358.942731 
L 339.976847 357.811907 
L 341.351232 355.14203 
L 342.725616 355.531944 
L 344.1 353.495388 
L 346.848768 353.495388 
L 348.223153 351.120046 
L 349.597537 349.591676 
L 350.971921 349.114774 
L 352.346305 347.116376 
L 353.72069 345.871858 
L 356.469458 345.871858 
L 357.843842 342.674717 
L 359.218227 341.913205 
L 360.592611 340.932695 
L 361.966995 341.46606 
L 363.341379 340.934223 
L 366.090148 340.934223 
L 367.464532 338.65426 
L 368.838916 338.006437 
L 370.2133 337.788972 
L 372.962069 335.109177 
L 375.710837 335.109177 
L 377.085222 334.465168 
L 378.459606 334.104252 
L 379.83399 332.328655 
L 381.208374 331.926532 
L 382.582759 330.24327 
L 385.331527 330.24327 
L 386.705911 327.172792 
L 388.080296 326.133533 
L 389.45468 326.060283 
L 390.829064 326.547103 
L 392.203448 328.162456 
L 394.952217 328.162456 
L 396.326601 327.890051 
L 397.700985 336.13012 
L 399.075369 328.779759 
L 400.449754 329.721347 
L 401.824138 330.443947 
L 404.572906 330.443947 
L 405.947291 336.780998 
L 407.321675 327.626042 
L 408.696059 335.585309 
L 410.070443 333.293141 
L 411.444828 332.176814 
L 414.193596 332.176814 
L 415.56798 328.837749 
L 416.942365 332.561386 
L 418.316749 331.432848 
L 419.691133 330.749928 
L 421.065517 328.920154 
L 423.814286 328.920154 
L 425.18867 321.264577 
L 426.563054 316.11024 
L 427.937438 312.292747 
L 429.311823 306.441758 
L 430.686207 302.882173 
L 433.434975 302.882173 
L 434.80936 291.971464 
L 436.183744 288.503445 
L 438.932512 284.393714 
L 440.306897 280.010808 
L 443.055665 280.010808 
L 444.430049 277.850645 
L 445.804433 277.659117 
L 447.178818 273.632555 
L 448.553202 274.908357 
L 449.927586 277.257763 
L 452.676355 277.257763 
L 454.050739 279.266843 
L 455.425123 293.512039 
L 456.799507 284.775995 
L 458.173892 286.605004 
L 459.548276 287.478683 
L 462.297044 287.478683 
L 463.671429 298.247469 
L 465.045813 288.206625 
L 466.420197 304.362472 
L 467.794581 306.863719 
L 469.168966 311.606013 
L 471.917734 311.606013 
L 473.292118 321.057789 
L 474.666502 321.768179 
L 476.040887 325.656632 
L 477.415271 328.666064 
L 478.789655 331.949425 
L 481.538424 331.949425 
L 482.912808 336.456702 
L 484.287192 339.486736 
L 485.661576 340.166606 
L 488.410345 343.424788 
L 491.159113 343.424788 
L 492.533498 345.17825 
L 493.907882 351.478675 
L 495.282266 351.141411 
L 496.65665 352.798736 
L 498.031034 351.4451 
L 500.779803 351.4451 
L 502.154187 348.676789 
L 503.528571 340.796113 
L 504.902956 339.800344 
L 506.27734 336.61389 
L 507.651724 335.62499 
L 510.400493 335.62499 
L 511.774877 335.087812 
L 513.149261 334.839058 
L 514.523645 333.841002 
L 515.89803 333.435828 
L 517.272414 342.451147 
L 520.021182 342.451147 
L 521.395567 340.582462 
L 522.769951 337.961421 
L 524.144335 334.657454 
L 525.518719 330.548481 
L 529.641872 330.548481 
L 531.016256 325.880966 
L 532.39064 318.547387 
L 533.765025 331.302366 
L 536.513793 293.326622 
L 539.262562 293.326622 
L 540.636946 269.792174 
L 542.01133 268.466014 
L 543.385714 238.807403 
L 544.760099 243.753429 
L 546.134483 232.505455 
L 548.883251 232.505455 
L 550.257635 215.058545 
L 551.63202 208.303347 
L 553.006404 206.237799 
L 554.380788 199.76798 
L 555.755172 197.716928 
L 558.503941 197.716928 
L 559.878325 190.44134 
L 561.252709 188.805386 
L 562.627094 189.790467 
L 564.001478 197.007302 
L 565.375862 200.644714 
L 568.124631 200.644714 
L 569.499015 211.431052 
L 570.873399 217.055421 
L 572.247783 223.685473 
L 573.622167 227.454131 
L 574.996552 234.743452 
L 577.74532 234.743452 
L 579.119704 259.611692 
L 583.242857 288.798743 
L 584.617241 299.469095 
L 587.36601 299.469095 
L 588.740394 312.321745 
L 590.114778 317.163231 
L 591.489163 322.721982 
L 594.237931 327.669531 
L 596.9867 327.669531 
L 598.361084 334.843635 
L 599.735468 336.824486 
L 601.109852 338.058322 
L 602.484236 341.833086 
L 603.858621 344.193932 
L 606.607389 344.193932 
L 607.981773 347.9107 
L 609.356158 410.333487 
L 610.730542 412.679837 
L 612.104926 415.374128 
L 613.47931 416.661377 
L 616.228079 416.661377 
L 617.602463 419.7288 
L 618.976847 359.937737 
L 620.351232 359.18843 
L 621.725616 359.022092 
L 623.1 360.01862 
L 623.1 360.01862 
" style="fill:none;stroke:#bb0a21;stroke-linecap:square;stroke-width:2;"/>
   </g>
   <g id="line2d_80">
    <path clip-path="url(#p0b6a409b91)" d="M 71.971921 386.48314 
L 107.705911 386.410653 
L 117.326601 386.111541 
L 118.700985 385.95588 
L 125.572906 384.510685 
L 128.321675 383.763664 
L 131.070443 382.870148 
L 133.819212 381.627151 
L 135.193596 380.906078 
L 140.691133 375.474759 
L 142.065517 373.95555 
L 144.814286 371.565706 
L 147.563054 368.41435 
L 148.937438 366.692171 
L 151.686207 363.995583 
L 153.060591 363.057045 
L 154.434975 362.478659 
L 157.183744 360.997602 
L 158.558128 360.853387 
L 159.932512 360.870933 
L 161.306897 361.339444 
L 162.681281 361.690441 
L 164.055665 361.775138 
L 166.804433 363.491216 
L 168.178818 363.539288 
L 169.553202 363.205837 
L 170.927586 362.730463 
L 172.30197 361.873572 
L 173.676355 361.628637 
L 175.050739 361.124265 
L 177.799507 360.489416 
L 179.173892 360.622948 
L 180.548276 360.629817 
L 181.92266 361.371492 
L 183.297044 361.666784 
L 186.045813 361.827023 
L 187.420197 361.868995 
L 190.168966 362.216178 
L 192.917734 363.002105 
L 194.292118 364.010084 
L 195.666502 364.802116 
L 197.040887 366.033666 
L 198.415271 366.94397 
L 199.789655 368.224355 
L 201.164039 369.048435 
L 202.538424 369.548229 
L 203.912808 369.39104 
L 205.287192 369.615374 
L 206.661576 370.024367 
L 208.035961 370.904151 
L 209.410345 371.309324 
L 210.784729 371.368842 
L 212.159113 371.747309 
L 213.533498 372.519509 
L 214.907882 372.776649 
L 216.282266 373.225316 
L 217.65665 373.274152 
L 221.779803 374.43016 
L 223.154187 375.165729 
L 224.528571 376.233221 
L 227.27734 377.546413 
L 230.026108 378.259094 
L 232.774877 378.605514 
L 234.149261 378.749729 
L 238.272414 379.784409 
L 245.144335 380.92058 
L 246.518719 381.096842 
L 247.893103 381.139573 
L 250.641872 380.999935 
L 257.513793 381.292178 
L 271.257635 382.937293 
L 272.63202 383.302028 
L 275.380788 384.374097 
L 278.129557 384.4855 
L 279.503941 384.40004 
L 280.878325 384.599195 
L 282.252709 384.461849 
L 285.001478 383.537808 
L 286.375862 383.52102 
L 290.499015 383.13187 
L 291.873399 382.631312 
L 294.622167 382.703804 
L 295.996552 382.579427 
L 300.119704 382.481756 
L 301.494089 383.088376 
L 304.242857 382.968577 
L 306.991626 382.951031 
L 309.740394 382.854888 
L 324.858621 381.985781 
L 326.233005 381.988836 
L 327.607389 381.709562 
L 328.981773 381.804177 
L 330.356158 381.441734 
L 333.104926 381.199849 
L 334.47931 380.771788 
L 335.853695 380.560423 
L 339.976847 380.664199 
L 341.351232 380.822909 
L 342.725616 380.787048 
L 344.1 381.093023 
L 345.474384 380.871745 
L 346.848768 380.919816 
L 348.223153 380.724475 
L 349.597537 380.65733 
L 353.72069 379.971354 
L 355.095074 380.140753 
L 356.469458 379.60357 
L 357.843842 379.26936 
L 359.218227 379.169404 
L 361.966995 378.707762 
L 364.715764 377.641033 
L 366.090148 376.698677 
L 367.464532 375.525122 
L 371.587685 372.878897 
L 374.336453 370.404362 
L 375.710837 370.136534 
L 377.085222 370.38681 
L 378.459606 369.90304 
L 379.83399 368.891251 
L 381.208374 368.525753 
L 385.331527 366.792892 
L 388.080296 364.065783 
L 389.45468 362.402359 
L 390.829064 359.934687 
L 392.203448 357.989697 
L 394.952217 355.378574 
L 396.326601 355.624273 
L 397.700985 353.930323 
L 399.075369 353.220697 
L 400.449754 353.003227 
L 401.824138 352.914716 
L 403.198522 347.699335 
L 404.572906 334.52545 
L 405.947291 328.003746 
L 408.696059 316.972473 
L 410.070443 308.868222 
L 411.444828 303.607824 
L 412.819212 301.860461 
L 414.193596 309.554197 
L 415.56798 308.479836 
L 416.942365 306.42497 
L 418.316749 302.168733 
L 419.691133 301.065374 
L 421.065517 299.715558 
L 422.439901 298.944122 
L 423.814286 295.806504 
L 425.18867 292.129411 
L 426.563054 288.989502 
L 427.937438 283.681796 
L 429.311823 281.956562 
L 430.686207 278.216138 
L 432.060591 272.991601 
L 433.434975 270.852803 
L 434.80936 269.273306 
L 436.183744 268.083728 
L 437.558128 269.604465 
L 438.932512 268.214974 
L 440.306897 265.2704 
L 441.681281 266.120428 
L 443.055665 263.477258 
L 444.430049 264.95221 
L 445.804433 267.123825 
L 447.178818 266.748408 
L 448.553202 265.919745 
L 449.927586 266.75604 
L 451.30197 264.421137 
L 452.676355 266.466847 
L 454.050739 264.612659 
L 455.425123 264.328044 
L 456.799507 266.011311 
L 458.173892 258.874596 
L 459.548276 255.827016 
L 460.92266 254.379528 
L 462.297044 251.02444 
L 463.671429 251.009944 
L 465.045813 251.308292 
L 466.420197 253.868293 
L 467.794581 261.942019 
L 470.54335 272.622289 
L 473.292118 281.977927 
L 474.666502 288.628586 
L 476.040887 289.684632 
L 478.789655 297.949885 
L 480.164039 301.024935 
L 481.538424 305.986985 
L 482.912808 308.304337 
L 484.287192 306.661514 
L 485.661576 308.205903 
L 487.035961 310.194387 
L 488.410345 309.003281 
L 489.784729 309.241353 
L 491.159113 305.26744 
L 492.533498 303.477347 
L 493.907882 304.325083 
L 495.282266 304.022158 
L 496.65665 299.356164 
L 498.031034 295.234223 
L 499.405419 290.67506 
L 500.779803 289.783066 
L 502.154187 285.50775 
L 503.528571 280.789871 
L 504.902956 274.177366 
L 506.27734 263.139229 
L 507.651724 257.968869 
L 509.026108 253.623353 
L 510.400493 240.237344 
L 511.774877 230.210996 
L 513.149261 216.200052 
L 514.523645 205.451103 
L 515.89803 202.691189 
L 517.272414 199.453609 
L 518.646798 193.701049 
L 520.021182 196.441126 
L 521.395567 190.3803 
L 522.769951 177.909172 
L 524.144335 169.628659 
L 525.518719 156.748539 
L 526.893103 140.987947 
L 529.641872 106.094886 
L 531.016256 92.769917 
L 532.39064 86.809048 
L 533.765025 77.410679 
L 535.139409 79.884456 
L 536.513793 68.641824 
L 537.888177 66.9288 
L 539.262562 67.028757 
L 540.636946 76.679688 
L 543.385714 99.824986 
L 544.760099 102.864175 
L 546.134483 112.25491 
L 547.508867 126.500865 
L 548.883251 138.981153 
L 550.257635 145.592895 
L 551.63202 154.897406 
L 553.006404 161.512962 
L 554.380788 169.774402 
L 555.755172 181.650355 
L 557.129557 187.583755 
L 558.503941 194.114619 
L 559.878325 205.839494 
L 562.627094 226.372901 
L 564.001478 233.366929 
L 565.375862 241.894663 
L 566.750246 249.717354 
L 568.124631 256.524432 
L 570.873399 261.741341 
L 572.247783 266.437086 
L 573.622167 272.600165 
L 574.996552 280.185543 
L 579.119704 291.518983 
L 580.494089 294.925956 
L 581.868473 299.609496 
L 583.242857 305.096519 
L 584.617241 308.153254 
L 587.36601 315.723377 
L 588.740394 319.051759 
L 590.114778 320.429045 
L 591.489163 320.670931 
L 592.863547 321.775812 
L 595.612315 326.354817 
L 596.9867 327.236887 
L 598.361084 326.563127 
L 599.735468 328.17543 
L 601.109852 330.321861 
L 602.484236 331.905167 
L 603.858621 334.584204 
L 605.233005 336.870272 
L 606.607389 339.754564 
L 607.981773 343.72008 
L 609.356158 345.331625 
L 612.104926 350.598892 
L 613.47931 352.555323 
L 614.853695 353.577035 
L 617.602463 354.671234 
L 620.351232 355.389257 
L 621.725616 355.243515 
L 623.1 354.739907 
L 623.1 354.739907 
" style="fill:none;stroke:#4b88a2;stroke-linecap:square;stroke-width:2;"/>
   </g>
   <g id="line2d_81">
    <path clip-path="url(#p0b6a409b91)" d="M 120.075369 386.481617 
L 129.696059 386.38776 
L 133.819212 386.276357 
L 142.065517 386.184028 
L 143.439901 386.220653 
L 148.937438 385.846763 
L 151.686207 385.757489 
L 153.060591 385.669743 
L 154.434975 385.399623 
L 157.183744 385.048626 
L 158.558128 384.186389 
L 159.932512 383.558409 
L 161.306897 383.207412 
L 162.681281 382.596978 
L 164.055665 382.493203 
L 165.430049 380.97857 
L 166.804433 380.882427 
L 168.178818 381.047243 
L 169.553202 380.969415 
L 170.927586 380.69701 
L 172.30197 380.71227 
L 173.676355 380.302514 
L 175.050739 381.498961 
L 176.425123 380.741263 
L 177.799507 380.557373 
L 179.173892 380.06292 
L 180.548276 380.264366 
L 181.92266 378.164479 
L 183.297044 377.418222 
L 184.671429 377.048151 
L 186.045813 376.301136 
L 188.794581 374.23406 
L 190.168966 372.136459 
L 191.54335 373.363431 
L 192.917734 372.441676 
L 194.292118 372.241762 
L 195.666502 371.229969 
L 197.040887 370.553154 
L 198.415271 370.046496 
L 199.789655 370.170104 
L 201.164039 369.336105 
L 202.538424 370.176973 
L 203.912808 370.122796 
L 205.287192 370.565358 
L 209.410345 369.208673 
L 210.784729 368.538727 
L 212.159113 367.439951 
L 214.907882 365.564397 
L 216.282266 365.343113 
L 217.65665 364.998985 
L 219.031034 365.733027 
L 220.405419 365.725399 
L 221.779803 365.364478 
L 227.27734 361.302055 
L 230.026108 356.031733 
L 231.400493 352.521753 
L 232.774877 351.34438 
L 234.149261 349.548182 
L 235.523645 353.672414 
L 236.89803 354.885649 
L 238.272414 356.643694 
L 239.646798 358.954177 
L 241.021182 362.042965 
L 242.395567 363.860529 
L 243.769951 366.978309 
L 245.144335 363.668242 
L 246.518719 362.385571 
L 247.893103 365.591867 
L 249.267488 364.368714 
L 250.641872 361.141053 
L 253.39064 360.989205 
L 254.765025 362.007868 
L 256.139409 363.904023 
L 257.513793 361.205148 
L 258.888177 363.149374 
L 260.262562 367.261397 
L 263.01133 368.441056 
L 264.385714 368.344149 
L 265.760099 368.013754 
L 268.508867 367.680308 
L 269.883251 367.808499 
L 271.257635 367.476576 
L 275.380788 368.633342 
L 278.129557 368.87065 
L 279.503941 368.711934 
L 280.878325 368.682178 
L 282.252709 368.127448 
L 283.627094 367.845888 
L 285.001478 367.838255 
L 287.750246 368.459371 
L 289.124631 368.476159 
L 290.499015 367.856571 
L 293.247783 367.536094 
L 294.622167 367.308705 
L 298.74532 365.686483 
L 300.119704 365.462149 
L 304.242857 363.972695 
L 305.617241 363.275274 
L 308.36601 369.420038 
L 309.740394 362.045257 
L 311.114778 361.372255 
L 312.489163 360.445159 
L 313.863547 363.913941 
L 315.237931 362.430587 
L 316.612315 362.430587 
L 317.9867 346.133581 
L 319.361084 353.38704 
L 320.735468 352.240951 
L 322.109852 350.672142 
L 323.484236 344.731874 
L 324.858621 343.467518 
L 326.233005 343.467518 
L 327.607389 348.968273 
L 328.981773 348.312823 
L 330.356158 348.498241 
L 331.730542 354.399592 
L 333.104926 353.56788 
L 334.47931 346.490683 
L 335.853695 346.490683 
L 337.228079 350.032716 
L 338.602463 346.191571 
L 339.976847 346.95461 
L 341.351232 340.981531 
L 342.725616 340.81061 
L 344.1 347.755803 
L 345.474384 340.882338 
L 346.848768 341.140242 
L 348.223153 341.943725 
L 349.597537 341.512609 
L 350.971921 342.187133 
L 352.346305 344.554848 
L 353.72069 344.570108 
L 355.095074 345.366722 
L 356.469458 345.133997 
L 359.218227 347.117899 
L 360.592611 348.531052 
L 361.966995 353.106239 
L 363.341379 349.75115 
L 364.715764 350.713345 
L 366.090148 352.712511 
L 367.464532 353.823498 
L 368.838916 356.320926 
L 370.2133 356.684897 
L 371.587685 351.659515 
L 372.962069 356.027919 
L 374.336453 356.104225 
L 375.710837 356.632248 
L 377.085222 356.24157 
L 378.459606 354.224858 
L 379.83399 354.572041 
L 381.208374 354.729224 
L 382.582759 355.94475 
L 383.957143 356.165265 
L 385.331527 355.943223 
L 386.705911 356.520845 
L 388.080296 359.756897 
L 389.45468 357.093126 
L 390.829064 357.269388 
L 392.203448 352.545404 
L 393.577833 357.363239 
L 396.326601 358.710006 
L 397.700985 356.106511 
L 399.075369 359.61421 
L 400.449754 361.970479 
L 401.824138 368.39604 
L 403.198522 365.903184 
L 404.572906 370.144161 
L 405.947291 369.041571 
L 407.321675 370.248701 
L 408.696059 370.343316 
L 410.070443 370.593592 
L 411.444828 370.98732 
L 412.819212 367.77721 
L 414.193596 365.272149 
L 415.56798 368.938559 
L 416.942365 368.196121 
L 418.316749 370.431826 
L 419.691133 368.117529 
L 421.065517 370.370022 
L 422.439901 374.030328 
L 423.814286 374.145544 
L 425.18867 373.133756 
L 426.563054 373.593106 
L 427.937438 371.119329 
L 430.686207 371.125434 
L 432.060591 370.695841 
L 433.434975 368.813418 
L 434.80936 371.198685 
L 436.183744 371.459644 
L 437.558128 372.466096 
L 438.932512 375.004727 
L 440.306897 372.970462 
L 441.681281 373.469493 
L 443.055665 375.969213 
L 444.430049 375.969213 
L 445.804433 377.387702 
L 447.178818 371.770966 
L 448.553202 371.386393 
L 449.927586 373.420658 
L 452.676355 373.131465 
L 454.050739 371.358923 
L 455.425123 370.44785 
L 456.799507 376.079088 
L 458.173892 376.353785 
L 459.548276 374.651438 
L 462.297044 375.129104 
L 463.671429 375.290106 
L 465.045813 375.242035 
L 466.420197 375.425924 
L 467.794581 377.390757 
L 470.54335 374.715534 
L 471.917734 376.431613 
L 473.292118 376.830681 
L 474.666502 377.11301 
L 476.040887 376.945903 
L 478.789655 377.005421 
L 480.164039 377.114533 
L 481.538424 375.464841 
L 482.912808 376.677311 
L 484.287192 376.533861 
L 485.661576 377.969901 
L 487.035961 375.322154 
L 488.410345 378.304116 
L 491.159113 378.739046 
L 492.533498 377.805086 
L 493.907882 378.625351 
L 495.282266 376.558276 
L 496.65665 377.306055 
L 498.031034 377.306055 
L 500.779803 380.191111 
L 502.154187 378.050021 
L 503.528571 377.167182 
L 504.902956 379.234257 
L 506.27734 378.595595 
L 507.651724 378.595595 
L 509.026108 379.993483 
L 510.400493 375.077982 
L 511.774877 376.918433 
L 513.149261 377.07028 
L 514.523645 375.789895 
L 515.89803 378.328531 
L 517.272414 375.40685 
L 518.646798 374.213453 
L 520.021182 379.128959 
L 521.395567 378.752784 
L 522.769951 378.529208 
L 524.144335 378.597887 
L 525.518719 375.056617 
L 526.893103 377.978298 
L 528.267488 379.17169 
L 529.641872 376.911564 
L 531.016256 377.472399 
L 532.39064 378.426966 
L 533.765025 377.69826 
L 535.139409 381.239529 
L 536.513793 378.063758 
L 537.888177 378.063758 
L 539.262562 380.323879 
L 540.636946 374.50341 
L 542.01133 372.850668 
L 543.385714 372.592759 
L 544.760099 372.592759 
L 546.134483 363.7186 
L 547.508867 363.7186 
L 548.883251 360.251345 
L 550.257635 367.12176 
L 551.63202 368.774507 
L 553.006404 361.322656 
L 554.380788 361.322656 
L 555.755172 365.97644 
L 557.129557 365.97644 
L 558.503941 361.026594 
L 559.878325 361.026594 
L 561.252709 350.877397 
L 562.627094 360.527569 
L 564.001478 355.391543 
L 565.375862 358.426918 
L 566.750246 348.25025 
L 568.124631 352.686569 
L 569.499015 352.686569 
L 570.873399 359.419633 
L 572.247783 347.500185 
L 573.622167 352.636206 
L 574.996552 351.873166 
L 576.370936 355.950855 
L 577.74532 349.513848 
L 579.119704 349.513848 
L 580.494089 345.238532 
L 581.868473 357.157985 
L 583.242857 352.0273 
L 584.617241 350.431021 
L 585.991626 350.090706 
L 587.36601 349.406258 
L 588.740394 346.962238 
L 590.114778 354.653682 
L 591.489163 349.90147 
L 592.863547 349.379552 
L 594.237931 348.723338 
L 596.9867 349.85569 
L 598.361084 352.299705 
L 599.735468 349.668745 
L 601.109852 349.278068 
L 602.484236 349.358951 
L 603.858621 344.859301 
L 605.233005 345.026408 
L 606.607389 355.545676 
L 607.981773 351.011693 
L 609.356158 347.16292 
L 610.730542 352.30581 
L 612.104926 352.786525 
L 613.47931 360.94037 
L 614.853695 360.217775 
L 616.228079 355.128298 
L 618.976847 354.651396 
L 620.351232 354.651396 
L 621.725616 354.06996 
L 623.1 352.3638 
L 623.1 352.3638 
" style="fill:none;stroke:#d3d4d9;stroke-linecap:square;stroke-width:2;"/>
   </g>
   <g id="patch_3">
    <path d="M 65.1 437.3688 
L 65.1 49.2888 
" style="fill:none;stroke:#000000;stroke-linecap:square;stroke-linejoin:miter;stroke-width:0.8;"/>
   </g>
   <g id="patch_4">
    <path d="M 623.1 437.3688 
L 623.1 49.2888 
" style="fill:none;stroke:#000000;stroke-linecap:square;stroke-linejoin:miter;stroke-width:0.8;"/>
   </g>
   <g id="patch_5">
    <path d="M 65.1 437.3688 
L 623.1 437.3688 
" style="fill:none;stroke:#000000;stroke-linecap:square;stroke-linejoin:miter;stroke-width:0.8;"/>
   </g>
   <g id="patch_6">
    <path d="M 65.1 49.2888 
L 623.1 49.2888 
" style="fill:none;stroke:#000000;stroke-linecap:square;stroke-linejoin:miter;stroke-width:0.8;"/>
   </g>
   <g id="text_23">
    <!-- Latest update:  -->
    <g style="fill:#252627;" transform="translate(47.1 491.690987)scale(0.1 -0.1)">
     <defs>
      <path d="M 9.8125 72.90625 
L 19.671875 72.90625 
L 19.671875 8.296875 
L 55.171875 8.296875 
L 55.171875 0 
L 9.8125 0 
z
" id="DejaVuSans-76"/>
      <path d="M 44.28125 53.078125 
L 44.28125 44.578125 
Q 40.484375 46.53125 36.375 47.5 
Q 32.28125 48.484375 27.875 48.484375 
Q 21.1875 48.484375 17.84375 46.4375 
Q 14.5 44.390625 14.5 40.28125 
Q 14.5 37.15625 16.890625 35.375 
Q 19.28125 33.59375 26.515625 31.984375 
L 29.59375 31.296875 
Q 39.15625 29.25 43.1875 25.515625 
Q 47.21875 21.78125 47.21875 15.09375 
Q 47.21875 7.46875 41.1875 3.015625 
Q 35.15625 -1.421875 24.609375 -1.421875 
Q 20.21875 -1.421875 15.453125 -0.5625 
Q 10.6875 0.296875 5.421875 2 
L 5.421875 11.28125 
Q 10.40625 8.6875 15.234375 7.390625 
Q 20.0625 6.109375 24.8125 6.109375 
Q 31.15625 6.109375 34.5625 8.28125 
Q 37.984375 10.453125 37.984375 14.40625 
Q 37.984375 18.0625 35.515625 20.015625 
Q 33.0625 21.96875 24.703125 23.78125 
L 21.578125 24.515625 
Q 13.234375 26.265625 9.515625 29.90625 
Q 5.8125 33.546875 5.8125 39.890625 
Q 5.8125 47.609375 11.28125 51.796875 
Q 16.75 56 26.8125 56 
Q 31.78125 56 36.171875 55.265625 
Q 40.578125 54.546875 44.28125 53.078125 
z
" id="DejaVuSans-115"/>
      <path id="DejaVuSans-32"/>
      <path d="M 11.71875 12.40625 
L 22.015625 12.40625 
L 22.015625 0 
L 11.71875 0 
z
M 11.71875 51.703125 
L 22.015625 51.703125 
L 22.015625 39.3125 
L 11.71875 39.3125 
z
" id="DejaVuSans-58"/>
     </defs>
     <use xlink:href="#DejaVuSans-76"/>
     <use x="55.712891" xlink:href="#DejaVuSans-97"/>
     <use x="116.992188" xlink:href="#DejaVuSans-116"/>
     <use x="156.201172" xlink:href="#DejaVuSans-101"/>
     <use x="217.724609" xlink:href="#DejaVuSans-115"/>
     <use x="269.824219" xlink:href="#DejaVuSans-116"/>
     <use x="309.033203" xlink:href="#DejaVuSans-32"/>
     <use x="340.820312" xlink:href="#DejaVuSans-117"/>
     <use x="404.199219" xlink:href="#DejaVuSans-112"/>
     <use x="467.675781" xlink:href="#DejaVuSans-100"/>
     <use x="531.152344" xlink:href="#DejaVuSans-97"/>
     <use x="592.431641" xlink:href="#DejaVuSans-116"/>
     <use x="631.640625" xlink:href="#DejaVuSans-101"/>
     <use x="693.164062" xlink:href="#DejaVuSans-58"/>
     <use x="726.855469" xlink:href="#DejaVuSans-32"/>
    </g>
    <!-- 13-3-2021 -->
    <g style="fill:#252627;" transform="translate(47.1 502.8888)scale(0.1 -0.1)">
     <defs>
      <path d="M 4.890625 31.390625 
L 31.203125 31.390625 
L 31.203125 23.390625 
L 4.890625 23.390625 
z
" id="DejaVuSans-45"/>
     </defs>
     <use xlink:href="#DejaVuSans-49"/>
     <use x="63.623047" xlink:href="#DejaVuSans-51"/>
     <use x="127.246094" xlink:href="#DejaVuSans-45"/>
     <use x="163.330078" xlink:href="#DejaVuSans-51"/>
     <use x="226.953125" xlink:href="#DejaVuSans-45"/>
     <use x="263.037109" xlink:href="#DejaVuSans-50"/>
     <use x="326.660156" xlink:href="#DejaVuSans-48"/>
     <use x="390.283203" xlink:href="#DejaVuSans-50"/>
     <use x="453.90625" xlink:href="#DejaVuSans-49"/>
    </g>
   </g>
   <g id="text_24">
    <!-- Daily new cases - Since beginning -->
    <g style="fill:#252627;" transform="translate(180.3705 21.789)scale(0.192 -0.192)">
     <defs>
      <path d="M 9.421875 54.6875 
L 18.40625 54.6875 
L 18.40625 0 
L 9.421875 0 
z
M 9.421875 75.984375 
L 18.40625 75.984375 
L 18.40625 64.59375 
L 9.421875 64.59375 
z
" id="DejaVuSans-105"/>
      <path d="M 4.203125 54.6875 
L 13.1875 54.6875 
L 24.421875 12.015625 
L 35.59375 54.6875 
L 46.1875 54.6875 
L 57.421875 12.015625 
L 68.609375 54.6875 
L 77.59375 54.6875 
L 63.28125 0 
L 52.6875 0 
L 40.921875 44.828125 
L 29.109375 0 
L 18.5 0 
z
" id="DejaVuSans-119"/>
     </defs>
     <use xlink:href="#DejaVuSans-68"/>
     <use x="77.001953" xlink:href="#DejaVuSans-97"/>
     <use x="138.28125" xlink:href="#DejaVuSans-105"/>
     <use x="166.064453" xlink:href="#DejaVuSans-108"/>
     <use x="193.847656" xlink:href="#DejaVuSans-121"/>
     <use x="253.027344" xlink:href="#DejaVuSans-32"/>
     <use x="284.814453" xlink:href="#DejaVuSans-110"/>
     <use x="348.193359" xlink:href="#DejaVuSans-101"/>
     <use x="409.716797" xlink:href="#DejaVuSans-119"/>
     <use x="491.503906" xlink:href="#DejaVuSans-32"/>
     <use x="523.291016" xlink:href="#DejaVuSans-99"/>
     <use x="578.271484" xlink:href="#DejaVuSans-97"/>
     <use x="639.550781" xlink:href="#DejaVuSans-115"/>
     <use x="691.650391" xlink:href="#DejaVuSans-101"/>
     <use x="753.173828" xlink:href="#DejaVuSans-115"/>
     <use x="805.273438" xlink:href="#DejaVuSans-32"/>
     <use x="837.060547" xlink:href="#DejaVuSans-45"/>
     <use x="873.144531" xlink:href="#DejaVuSans-32"/>
     <use x="904.931641" xlink:href="#DejaVuSans-83"/>
     <use x="968.408203" xlink:href="#DejaVuSans-105"/>
     <use x="996.191406" xlink:href="#DejaVuSans-110"/>
     <use x="1059.570312" xlink:href="#DejaVuSans-99"/>
     <use x="1114.550781" xlink:href="#DejaVuSans-101"/>
     <use x="1176.074219" xlink:href="#DejaVuSans-32"/>
     <use x="1207.861328" xlink:href="#DejaVuSans-98"/>
     <use x="1271.337891" xlink:href="#DejaVuSans-101"/>
     <use x="1332.861328" xlink:href="#DejaVuSans-103"/>
     <use x="1396.337891" xlink:href="#DejaVuSans-105"/>
     <use x="1424.121094" xlink:href="#DejaVuSans-110"/>
     <use x="1487.5" xlink:href="#DejaVuSans-110"/>
     <use x="1550.878906" xlink:href="#DejaVuSans-105"/>
     <use x="1578.662109" xlink:href="#DejaVuSans-110"/>
     <use x="1642.041016" xlink:href="#DejaVuSans-103"/>
    </g>
    <!-- 7-day rolling average -->
    <g style="fill:#252627;" transform="translate(241.68 43.2888)scale(0.192 -0.192)">
     <defs>
      <path d="M 8.203125 72.90625 
L 55.078125 72.90625 
L 55.078125 68.703125 
L 28.609375 0 
L 18.3125 0 
L 43.21875 64.59375 
L 8.203125 64.59375 
z
" id="DejaVuSans-55"/>
     </defs>
     <use xlink:href="#DejaVuSans-55"/>
     <use x="63.623047" xlink:href="#DejaVuSans-45"/>
     <use x="99.707031" xlink:href="#DejaVuSans-100"/>
     <use x="163.183594" xlink:href="#DejaVuSans-97"/>
     <use x="224.462891" xlink:href="#DejaVuSans-121"/>
     <use x="283.642578" xlink:href="#DejaVuSans-32"/>
     <use x="315.429688" xlink:href="#DejaVuSans-114"/>
     <use x="354.292969" xlink:href="#DejaVuSans-111"/>
     <use x="415.474609" xlink:href="#DejaVuSans-108"/>
     <use x="443.257812" xlink:href="#DejaVuSans-108"/>
     <use x="471.041016" xlink:href="#DejaVuSans-105"/>
     <use x="498.824219" xlink:href="#DejaVuSans-110"/>
     <use x="562.203125" xlink:href="#DejaVuSans-103"/>
     <use x="625.679688" xlink:href="#DejaVuSans-32"/>
     <use x="657.466797" xlink:href="#DejaVuSans-97"/>
     <use x="718.746094" xlink:href="#DejaVuSans-118"/>
     <use x="777.925781" xlink:href="#DejaVuSans-101"/>
     <use x="839.449219" xlink:href="#DejaVuSans-114"/>
     <use x="880.5625" xlink:href="#DejaVuSans-97"/>
     <use x="941.841797" xlink:href="#DejaVuSans-103"/>
     <use x="1005.318359" xlink:href="#DejaVuSans-101"/>
    </g>
   </g>
   <g id="legend_1">
    <g id="patch_7">
     <path d="M 76.3 132.5438 
L 161.9925 132.5438 
Q 165.1925 132.5438 165.1925 129.3438 
L 165.1925 60.4888 
Q 165.1925 57.2888 161.9925 57.2888 
L 76.3 57.2888 
Q 73.1 57.2888 73.1 60.4888 
L 73.1 129.3438 
Q 73.1 132.5438 76.3 132.5438 
z
" style="fill:#ffffff;opacity:0.2;stroke:#cccccc;stroke-linejoin:miter;"/>
    </g>
    <g id="line2d_82">
     <path d="M 79.5 70.2463 
L 111.5 70.2463 
" style="fill:none;stroke:#bb0a21;stroke-linecap:square;stroke-width:2;"/>
    </g>
    <g id="line2d_83"/>
    <g id="text_25">
     <!-- ESP -->
     <g style="fill:#252627;" transform="translate(124.3 75.8463)scale(0.16 -0.16)">
      <defs>
       <path d="M 9.8125 72.90625 
L 55.90625 72.90625 
L 55.90625 64.59375 
L 19.671875 64.59375 
L 19.671875 43.015625 
L 54.390625 43.015625 
L 54.390625 34.71875 
L 19.671875 34.71875 
L 19.671875 8.296875 
L 56.78125 8.296875 
L 56.78125 0 
L 9.8125 0 
z
" id="DejaVuSans-69"/>
       <path d="M 19.671875 64.796875 
L 19.671875 37.40625 
L 32.078125 37.40625 
Q 38.96875 37.40625 42.71875 40.96875 
Q 46.484375 44.53125 46.484375 51.125 
Q 46.484375 57.671875 42.71875 61.234375 
Q 38.96875 64.796875 32.078125 64.796875 
z
M 9.8125 72.90625 
L 32.078125 72.90625 
Q 44.34375 72.90625 50.609375 67.359375 
Q 56.890625 61.8125 56.890625 51.125 
Q 56.890625 40.328125 50.609375 34.8125 
Q 44.34375 29.296875 32.078125 29.296875 
L 19.671875 29.296875 
L 19.671875 0 
L 9.8125 0 
z
" id="DejaVuSans-80"/>
      </defs>
      <use xlink:href="#DejaVuSans-69"/>
      <use x="63.183594" xlink:href="#DejaVuSans-83"/>
      <use x="126.660156" xlink:href="#DejaVuSans-80"/>
     </g>
    </g>
    <g id="line2d_84">
     <path d="M 79.5 93.7313 
L 111.5 93.7313 
" style="fill:none;stroke:#4b88a2;stroke-linecap:square;stroke-width:2;"/>
    </g>
    <g id="line2d_85"/>
    <g id="text_26">
     <!-- GBR -->
     <g style="fill:#252627;" transform="translate(124.3 99.3313)scale(0.16 -0.16)">
      <defs>
       <path d="M 59.515625 10.40625 
L 59.515625 29.984375 
L 43.40625 29.984375 
L 43.40625 38.09375 
L 69.28125 38.09375 
L 69.28125 6.78125 
Q 63.578125 2.734375 56.6875 0.65625 
Q 49.8125 -1.421875 42 -1.421875 
Q 24.90625 -1.421875 15.25 8.5625 
Q 5.609375 18.5625 5.609375 36.375 
Q 5.609375 54.25 15.25 64.234375 
Q 24.90625 74.21875 42 74.21875 
Q 49.125 74.21875 55.546875 72.453125 
Q 61.96875 70.703125 67.390625 67.28125 
L 67.390625 56.78125 
Q 61.921875 61.421875 55.765625 63.765625 
Q 49.609375 66.109375 42.828125 66.109375 
Q 29.4375 66.109375 22.71875 58.640625 
Q 16.015625 51.171875 16.015625 36.375 
Q 16.015625 21.625 22.71875 14.15625 
Q 29.4375 6.6875 42.828125 6.6875 
Q 48.046875 6.6875 52.140625 7.59375 
Q 56.25 8.5 59.515625 10.40625 
z
" id="DejaVuSans-71"/>
       <path d="M 19.671875 34.8125 
L 19.671875 8.109375 
L 35.5 8.109375 
Q 43.453125 8.109375 47.28125 11.40625 
Q 51.125 14.703125 51.125 21.484375 
Q 51.125 28.328125 47.28125 31.5625 
Q 43.453125 34.8125 35.5 34.8125 
z
M 19.671875 64.796875 
L 19.671875 42.828125 
L 34.28125 42.828125 
Q 41.5 42.828125 45.03125 45.53125 
Q 48.578125 48.25 48.578125 53.8125 
Q 48.578125 59.328125 45.03125 62.0625 
Q 41.5 64.796875 34.28125 64.796875 
z
M 9.8125 72.90625 
L 35.015625 72.90625 
Q 46.296875 72.90625 52.390625 68.21875 
Q 58.5 63.53125 58.5 54.890625 
Q 58.5 48.1875 55.375 44.234375 
Q 52.25 40.28125 46.1875 39.3125 
Q 53.46875 37.75 57.5 32.78125 
Q 61.53125 27.828125 61.53125 20.40625 
Q 61.53125 10.640625 54.890625 5.3125 
Q 48.25 0 35.984375 0 
L 9.8125 0 
z
" id="DejaVuSans-66"/>
       <path d="M 44.390625 34.1875 
Q 47.5625 33.109375 50.5625 29.59375 
Q 53.5625 26.078125 56.59375 19.921875 
L 66.609375 0 
L 56 0 
L 46.6875 18.703125 
Q 43.0625 26.03125 39.671875 28.421875 
Q 36.28125 30.8125 30.421875 30.8125 
L 19.671875 30.8125 
L 19.671875 0 
L 9.8125 0 
L 9.8125 72.90625 
L 32.078125 72.90625 
Q 44.578125 72.90625 50.734375 67.671875 
Q 56.890625 62.453125 56.890625 51.90625 
Q 56.890625 45.015625 53.6875 40.46875 
Q 50.484375 35.9375 44.390625 34.1875 
z
M 19.671875 64.796875 
L 19.671875 38.921875 
L 32.078125 38.921875 
Q 39.203125 38.921875 42.84375 42.21875 
Q 46.484375 45.515625 46.484375 51.90625 
Q 46.484375 58.296875 42.84375 61.546875 
Q 39.203125 64.796875 32.078125 64.796875 
z
" id="DejaVuSans-82"/>
      </defs>
      <use xlink:href="#DejaVuSans-71"/>
      <use x="77.490234" xlink:href="#DejaVuSans-66"/>
      <use x="146.09375" xlink:href="#DejaVuSans-82"/>
     </g>
    </g>
    <g id="line2d_86">
     <path d="M 79.5 117.2163 
L 111.5 117.2163 
" style="fill:none;stroke:#d3d4d9;stroke-linecap:square;stroke-width:2;"/>
    </g>
    <g id="line2d_87"/>
    <g id="text_27">
     <!-- PER -->
     <g style="fill:#252627;" transform="translate(124.3 122.8163)scale(0.16 -0.16)">
      <use xlink:href="#DejaVuSans-80"/>
      <use x="60.302734" xlink:href="#DejaVuSans-69"/>
      <use x="123.486328" xlink:href="#DejaVuSans-82"/>
     </g>
    </g>
   </g>
  </g>
 </g>
 <defs>
  <clipPath id="p0b6a409b91">
   <rect height="388.08" width="558" x="65.1" y="49.2888"/>
  </clipPath>
 </defs>
</svg>
