<?xml version="1.0" encoding="utf-8" standalone="no"?>
<!DOCTYPE svg PUBLIC "-//W3C//DTD SVG 1.1//EN"
  "http://www.w3.org/Graphics/SVG/1.1/DTD/svg11.dtd">
<!-- Created with matplotlib (https://matplotlib.org/) -->
<svg height="521.83255pt" version="1.1" viewBox="0 0 623.3475 521.83255" width="623.3475pt" xmlns="http://www.w3.org/2000/svg" xmlns:xlink="http://www.w3.org/1999/xlink">
 <metadata>
  <rdf:RDF xmlns:cc="http://creativecommons.org/ns#" xmlns:dc="http://purl.org/dc/elements/1.1/" xmlns:rdf="http://www.w3.org/1999/02/22-rdf-syntax-ns#">
   <cc:Work>
    <dc:type rdf:resource="http://purl.org/dc/dcmitype/StillImage"/>
    <dc:date>2021-03-13T09:00:06.483850</dc:date>
    <dc:format>image/svg+xml</dc:format>
    <dc:creator>
     <cc:Agent>
      <dc:title>Matplotlib v3.3.1, https://matplotlib.org/</dc:title>
     </cc:Agent>
    </dc:creator>
   </cc:Work>
  </rdf:RDF>
 </metadata>
 <defs>
  <style type="text/css">*{stroke-linecap:butt;stroke-linejoin:round;}</style>
 </defs>
 <g id="figure_1">
  <g id="patch_1">
   <path d="M 0 521.83255 
L 623.3475 521.83255 
L 623.3475 0 
L 0 0 
z
" style="fill:none;"/>
  </g>
  <g id="axes_1">
   <g id="patch_2">
    <path d="M 58.1475 437.3688 
L 616.1475 437.3688 
L 616.1475 49.2888 
L 58.1475 49.2888 
z
" style="fill:none;"/>
   </g>
   <g id="matplotlib.axis_1">
    <g id="xtick_1">
     <g id="line2d_1">
      <defs>
       <path d="M 0 0 
L 0 3.5 
" id="m5eb0cd7729" style="stroke:#252627;stroke-width:0.8;"/>
      </defs>
      <g>
       <use style="fill:#252627;stroke:#252627;stroke-width:0.8;" x="58.1475" xlink:href="#m5eb0cd7729" y="437.3688"/>
      </g>
     </g>
    </g>
    <g id="xtick_2">
     <g id="line2d_2">
      <g>
       <use style="fill:#252627;stroke:#252627;stroke-width:0.8;" x="59.521884" xlink:href="#m5eb0cd7729" y="437.3688"/>
      </g>
     </g>
     <g id="text_1">
      <!-- Feb -->
      <g style="fill:#252627;" transform="translate(45.359384 456.5263)scale(0.16 -0.16)">
       <defs>
        <path d="M 9.8125 72.90625 
L 51.703125 72.90625 
L 51.703125 64.59375 
L 19.671875 64.59375 
L 19.671875 43.109375 
L 48.578125 43.109375 
L 48.578125 34.8125 
L 19.671875 34.8125 
L 19.671875 0 
L 9.8125 0 
z
" id="DejaVuSans-70"/>
        <path d="M 56.203125 29.59375 
L 56.203125 25.203125 
L 14.890625 25.203125 
Q 15.484375 15.921875 20.484375 11.0625 
Q 25.484375 6.203125 34.421875 6.203125 
Q 39.59375 6.203125 44.453125 7.46875 
Q 49.3125 8.734375 54.109375 11.28125 
L 54.109375 2.78125 
Q 49.265625 0.734375 44.1875 -0.34375 
Q 39.109375 -1.421875 33.890625 -1.421875 
Q 20.796875 -1.421875 13.15625 6.1875 
Q 5.515625 13.8125 5.515625 26.8125 
Q 5.515625 40.234375 12.765625 48.109375 
Q 20.015625 56 32.328125 56 
Q 43.359375 56 49.78125 48.890625 
Q 56.203125 41.796875 56.203125 29.59375 
z
M 47.21875 32.234375 
Q 47.125 39.59375 43.09375 43.984375 
Q 39.0625 48.390625 32.421875 48.390625 
Q 24.90625 48.390625 20.390625 44.140625 
Q 15.875 39.890625 15.1875 32.171875 
z
" id="DejaVuSans-101"/>
        <path d="M 48.6875 27.296875 
Q 48.6875 37.203125 44.609375 42.84375 
Q 40.53125 48.484375 33.40625 48.484375 
Q 26.265625 48.484375 22.1875 42.84375 
Q 18.109375 37.203125 18.109375 27.296875 
Q 18.109375 17.390625 22.1875 11.75 
Q 26.265625 6.109375 33.40625 6.109375 
Q 40.53125 6.109375 44.609375 11.75 
Q 48.6875 17.390625 48.6875 27.296875 
z
M 18.109375 46.390625 
Q 20.953125 51.265625 25.265625 53.625 
Q 29.59375 56 35.59375 56 
Q 45.5625 56 51.78125 48.09375 
Q 58.015625 40.1875 58.015625 27.296875 
Q 58.015625 14.40625 51.78125 6.484375 
Q 45.5625 -1.421875 35.59375 -1.421875 
Q 29.59375 -1.421875 25.265625 0.953125 
Q 20.953125 3.328125 18.109375 8.203125 
L 18.109375 0 
L 9.078125 0 
L 9.078125 75.984375 
L 18.109375 75.984375 
z
" id="DejaVuSans-98"/>
       </defs>
       <use xlink:href="#DejaVuSans-70"/>
       <use x="52.019531" xlink:href="#DejaVuSans-101"/>
       <use x="113.542969" xlink:href="#DejaVuSans-98"/>
      </g>
     </g>
    </g>
    <g id="xtick_3">
     <g id="line2d_3">
      <g>
       <use style="fill:#252627;stroke:#252627;stroke-width:0.8;" x="99.379027" xlink:href="#m5eb0cd7729" y="437.3688"/>
      </g>
     </g>
     <g id="text_2">
      <!-- Mar -->
      <g style="fill:#252627;" transform="translate(84.285277 456.5263)scale(0.16 -0.16)">
       <defs>
        <path d="M 9.8125 72.90625 
L 24.515625 72.90625 
L 43.109375 23.296875 
L 61.8125 72.90625 
L 76.515625 72.90625 
L 76.515625 0 
L 66.890625 0 
L 66.890625 64.015625 
L 48.09375 14.015625 
L 38.1875 14.015625 
L 19.390625 64.015625 
L 19.390625 0 
L 9.8125 0 
z
" id="DejaVuSans-77"/>
        <path d="M 34.28125 27.484375 
Q 23.390625 27.484375 19.1875 25 
Q 14.984375 22.515625 14.984375 16.5 
Q 14.984375 11.71875 18.140625 8.90625 
Q 21.296875 6.109375 26.703125 6.109375 
Q 34.1875 6.109375 38.703125 11.40625 
Q 43.21875 16.703125 43.21875 25.484375 
L 43.21875 27.484375 
z
M 52.203125 31.203125 
L 52.203125 0 
L 43.21875 0 
L 43.21875 8.296875 
Q 40.140625 3.328125 35.546875 0.953125 
Q 30.953125 -1.421875 24.3125 -1.421875 
Q 15.921875 -1.421875 10.953125 3.296875 
Q 6 8.015625 6 15.921875 
Q 6 25.140625 12.171875 29.828125 
Q 18.359375 34.515625 30.609375 34.515625 
L 43.21875 34.515625 
L 43.21875 35.40625 
Q 43.21875 41.609375 39.140625 45 
Q 35.0625 48.390625 27.6875 48.390625 
Q 23 48.390625 18.546875 47.265625 
Q 14.109375 46.140625 10.015625 43.890625 
L 10.015625 52.203125 
Q 14.9375 54.109375 19.578125 55.046875 
Q 24.21875 56 28.609375 56 
Q 40.484375 56 46.34375 49.84375 
Q 52.203125 43.703125 52.203125 31.203125 
z
" id="DejaVuSans-97"/>
        <path d="M 41.109375 46.296875 
Q 39.59375 47.171875 37.8125 47.578125 
Q 36.03125 48 33.890625 48 
Q 26.265625 48 22.1875 43.046875 
Q 18.109375 38.09375 18.109375 28.8125 
L 18.109375 0 
L 9.078125 0 
L 9.078125 54.6875 
L 18.109375 54.6875 
L 18.109375 46.1875 
Q 20.953125 51.171875 25.484375 53.578125 
Q 30.03125 56 36.53125 56 
Q 37.453125 56 38.578125 55.875 
Q 39.703125 55.765625 41.0625 55.515625 
z
" id="DejaVuSans-114"/>
       </defs>
       <use xlink:href="#DejaVuSans-77"/>
       <use x="86.279297" xlink:href="#DejaVuSans-97"/>
       <use x="147.558594" xlink:href="#DejaVuSans-114"/>
      </g>
     </g>
    </g>
    <g id="xtick_4">
     <g id="line2d_4">
      <g>
       <use style="fill:#252627;stroke:#252627;stroke-width:0.8;" x="141.984938" xlink:href="#m5eb0cd7729" y="437.3688"/>
      </g>
     </g>
     <g id="text_3">
      <!-- Apr -->
      <g style="fill:#252627;" transform="translate(128.144938 456.5263)scale(0.16 -0.16)">
       <defs>
        <path d="M 34.1875 63.1875 
L 20.796875 26.90625 
L 47.609375 26.90625 
z
M 28.609375 72.90625 
L 39.796875 72.90625 
L 67.578125 0 
L 57.328125 0 
L 50.6875 18.703125 
L 17.828125 18.703125 
L 11.1875 0 
L 0.78125 0 
z
" id="DejaVuSans-65"/>
        <path d="M 18.109375 8.203125 
L 18.109375 -20.796875 
L 9.078125 -20.796875 
L 9.078125 54.6875 
L 18.109375 54.6875 
L 18.109375 46.390625 
Q 20.953125 51.265625 25.265625 53.625 
Q 29.59375 56 35.59375 56 
Q 45.5625 56 51.78125 48.09375 
Q 58.015625 40.1875 58.015625 27.296875 
Q 58.015625 14.40625 51.78125 6.484375 
Q 45.5625 -1.421875 35.59375 -1.421875 
Q 29.59375 -1.421875 25.265625 0.953125 
Q 20.953125 3.328125 18.109375 8.203125 
z
M 48.6875 27.296875 
Q 48.6875 37.203125 44.609375 42.84375 
Q 40.53125 48.484375 33.40625 48.484375 
Q 26.265625 48.484375 22.1875 42.84375 
Q 18.109375 37.203125 18.109375 27.296875 
Q 18.109375 17.390625 22.1875 11.75 
Q 26.265625 6.109375 33.40625 6.109375 
Q 40.53125 6.109375 44.609375 11.75 
Q 48.6875 17.390625 48.6875 27.296875 
z
" id="DejaVuSans-112"/>
       </defs>
       <use xlink:href="#DejaVuSans-65"/>
       <use x="68.408203" xlink:href="#DejaVuSans-112"/>
       <use x="131.884766" xlink:href="#DejaVuSans-114"/>
      </g>
     </g>
    </g>
    <g id="xtick_5">
     <g id="line2d_5">
      <g>
       <use style="fill:#252627;stroke:#252627;stroke-width:0.8;" x="183.216466" xlink:href="#m5eb0cd7729" y="437.3688"/>
      </g>
     </g>
     <g id="text_4">
      <!-- May -->
      <g style="fill:#252627;" transform="translate(166.676466 456.5263)scale(0.16 -0.16)">
       <defs>
        <path d="M 32.171875 -5.078125 
Q 28.375 -14.84375 24.75 -17.8125 
Q 21.140625 -20.796875 15.09375 -20.796875 
L 7.90625 -20.796875 
L 7.90625 -13.28125 
L 13.1875 -13.28125 
Q 16.890625 -13.28125 18.9375 -11.515625 
Q 21 -9.765625 23.484375 -3.21875 
L 25.09375 0.875 
L 2.984375 54.6875 
L 12.5 54.6875 
L 29.59375 11.921875 
L 46.6875 54.6875 
L 56.203125 54.6875 
z
" id="DejaVuSans-121"/>
       </defs>
       <use xlink:href="#DejaVuSans-77"/>
       <use x="86.279297" xlink:href="#DejaVuSans-97"/>
       <use x="147.558594" xlink:href="#DejaVuSans-121"/>
      </g>
     </g>
    </g>
    <g id="xtick_6">
     <g id="line2d_6">
      <g>
       <use style="fill:#252627;stroke:#252627;stroke-width:0.8;" x="225.822377" xlink:href="#m5eb0cd7729" y="437.3688"/>
      </g>
     </g>
     <g id="text_5">
      <!-- Jun -->
      <g style="fill:#252627;" transform="translate(213.322377 456.5263)scale(0.16 -0.16)">
       <defs>
        <path d="M 9.8125 72.90625 
L 19.671875 72.90625 
L 19.671875 5.078125 
Q 19.671875 -8.109375 14.671875 -14.0625 
Q 9.671875 -20.015625 -1.421875 -20.015625 
L -5.171875 -20.015625 
L -5.171875 -11.71875 
L -2.09375 -11.71875 
Q 4.4375 -11.71875 7.125 -8.046875 
Q 9.8125 -4.390625 9.8125 5.078125 
z
" id="DejaVuSans-74"/>
        <path d="M 8.5 21.578125 
L 8.5 54.6875 
L 17.484375 54.6875 
L 17.484375 21.921875 
Q 17.484375 14.15625 20.5 10.265625 
Q 23.53125 6.390625 29.59375 6.390625 
Q 36.859375 6.390625 41.078125 11.03125 
Q 45.3125 15.671875 45.3125 23.6875 
L 45.3125 54.6875 
L 54.296875 54.6875 
L 54.296875 0 
L 45.3125 0 
L 45.3125 8.40625 
Q 42.046875 3.421875 37.71875 1 
Q 33.40625 -1.421875 27.6875 -1.421875 
Q 18.265625 -1.421875 13.375 4.4375 
Q 8.5 10.296875 8.5 21.578125 
z
M 31.109375 56 
z
" id="DejaVuSans-117"/>
        <path d="M 54.890625 33.015625 
L 54.890625 0 
L 45.90625 0 
L 45.90625 32.71875 
Q 45.90625 40.484375 42.875 44.328125 
Q 39.84375 48.1875 33.796875 48.1875 
Q 26.515625 48.1875 22.3125 43.546875 
Q 18.109375 38.921875 18.109375 30.90625 
L 18.109375 0 
L 9.078125 0 
L 9.078125 54.6875 
L 18.109375 54.6875 
L 18.109375 46.1875 
Q 21.34375 51.125 25.703125 53.5625 
Q 30.078125 56 35.796875 56 
Q 45.21875 56 50.046875 50.171875 
Q 54.890625 44.34375 54.890625 33.015625 
z
" id="DejaVuSans-110"/>
       </defs>
       <use xlink:href="#DejaVuSans-74"/>
       <use x="29.492188" xlink:href="#DejaVuSans-117"/>
       <use x="92.871094" xlink:href="#DejaVuSans-110"/>
      </g>
     </g>
    </g>
    <g id="xtick_7">
     <g id="line2d_7">
      <g>
       <use style="fill:#252627;stroke:#252627;stroke-width:0.8;" x="267.053904" xlink:href="#m5eb0cd7729" y="437.3688"/>
      </g>
     </g>
     <g id="text_6">
      <!-- Jul -->
      <g style="fill:#252627;" transform="translate(257.401404 456.5263)scale(0.16 -0.16)">
       <defs>
        <path d="M 9.421875 75.984375 
L 18.40625 75.984375 
L 18.40625 0 
L 9.421875 0 
z
" id="DejaVuSans-108"/>
       </defs>
       <use xlink:href="#DejaVuSans-74"/>
       <use x="29.492188" xlink:href="#DejaVuSans-117"/>
       <use x="92.871094" xlink:href="#DejaVuSans-108"/>
      </g>
     </g>
    </g>
    <g id="xtick_8">
     <g id="line2d_8">
      <g>
       <use style="fill:#252627;stroke:#252627;stroke-width:0.8;" x="309.659815" xlink:href="#m5eb0cd7729" y="437.3688"/>
      </g>
     </g>
     <g id="text_7">
      <!-- Aug -->
      <g style="fill:#252627;" transform="translate(294.038565 456.5263)scale(0.16 -0.16)">
       <defs>
        <path d="M 45.40625 27.984375 
Q 45.40625 37.75 41.375 43.109375 
Q 37.359375 48.484375 30.078125 48.484375 
Q 22.859375 48.484375 18.828125 43.109375 
Q 14.796875 37.75 14.796875 27.984375 
Q 14.796875 18.265625 18.828125 12.890625 
Q 22.859375 7.515625 30.078125 7.515625 
Q 37.359375 7.515625 41.375 12.890625 
Q 45.40625 18.265625 45.40625 27.984375 
z
M 54.390625 6.78125 
Q 54.390625 -7.171875 48.1875 -13.984375 
Q 42 -20.796875 29.203125 -20.796875 
Q 24.46875 -20.796875 20.265625 -20.09375 
Q 16.0625 -19.390625 12.109375 -17.921875 
L 12.109375 -9.1875 
Q 16.0625 -11.328125 19.921875 -12.34375 
Q 23.78125 -13.375 27.78125 -13.375 
Q 36.625 -13.375 41.015625 -8.765625 
Q 45.40625 -4.15625 45.40625 5.171875 
L 45.40625 9.625 
Q 42.625 4.78125 38.28125 2.390625 
Q 33.9375 0 27.875 0 
Q 17.828125 0 11.671875 7.65625 
Q 5.515625 15.328125 5.515625 27.984375 
Q 5.515625 40.671875 11.671875 48.328125 
Q 17.828125 56 27.875 56 
Q 33.9375 56 38.28125 53.609375 
Q 42.625 51.21875 45.40625 46.390625 
L 45.40625 54.6875 
L 54.390625 54.6875 
z
" id="DejaVuSans-103"/>
       </defs>
       <use xlink:href="#DejaVuSans-65"/>
       <use x="68.408203" xlink:href="#DejaVuSans-117"/>
       <use x="131.787109" xlink:href="#DejaVuSans-103"/>
      </g>
     </g>
    </g>
    <g id="xtick_9">
     <g id="line2d_9">
      <g>
       <use style="fill:#252627;stroke:#252627;stroke-width:0.8;" x="352.265727" xlink:href="#m5eb0cd7729" y="437.3688"/>
      </g>
     </g>
     <g id="text_8">
      <!-- Sep -->
      <g style="fill:#252627;" transform="translate(337.185727 456.5263)scale(0.16 -0.16)">
       <defs>
        <path d="M 53.515625 70.515625 
L 53.515625 60.890625 
Q 47.90625 63.578125 42.921875 64.890625 
Q 37.9375 66.21875 33.296875 66.21875 
Q 25.25 66.21875 20.875 63.09375 
Q 16.5 59.96875 16.5 54.203125 
Q 16.5 49.359375 19.40625 46.890625 
Q 22.3125 44.4375 30.421875 42.921875 
L 36.375 41.703125 
Q 47.40625 39.59375 52.65625 34.296875 
Q 57.90625 29 57.90625 20.125 
Q 57.90625 9.515625 50.796875 4.046875 
Q 43.703125 -1.421875 29.984375 -1.421875 
Q 24.8125 -1.421875 18.96875 -0.25 
Q 13.140625 0.921875 6.890625 3.21875 
L 6.890625 13.375 
Q 12.890625 10.015625 18.65625 8.296875 
Q 24.421875 6.59375 29.984375 6.59375 
Q 38.421875 6.59375 43.015625 9.90625 
Q 47.609375 13.234375 47.609375 19.390625 
Q 47.609375 24.75 44.3125 27.78125 
Q 41.015625 30.8125 33.5 32.328125 
L 27.484375 33.5 
Q 16.453125 35.6875 11.515625 40.375 
Q 6.59375 45.0625 6.59375 53.421875 
Q 6.59375 63.09375 13.40625 68.65625 
Q 20.21875 74.21875 32.171875 74.21875 
Q 37.3125 74.21875 42.625 73.28125 
Q 47.953125 72.359375 53.515625 70.515625 
z
" id="DejaVuSans-83"/>
       </defs>
       <use xlink:href="#DejaVuSans-83"/>
       <use x="63.476562" xlink:href="#DejaVuSans-101"/>
       <use x="125" xlink:href="#DejaVuSans-112"/>
      </g>
     </g>
    </g>
    <g id="xtick_10">
     <g id="line2d_10">
      <g>
       <use style="fill:#252627;stroke:#252627;stroke-width:0.8;" x="393.497254" xlink:href="#m5eb0cd7729" y="437.3688"/>
      </g>
     </g>
     <g id="text_9">
      <!-- Oct -->
      <g style="fill:#252627;" transform="translate(379.664754 456.5263)scale(0.16 -0.16)">
       <defs>
        <path d="M 39.40625 66.21875 
Q 28.65625 66.21875 22.328125 58.203125 
Q 16.015625 50.203125 16.015625 36.375 
Q 16.015625 22.609375 22.328125 14.59375 
Q 28.65625 6.59375 39.40625 6.59375 
Q 50.140625 6.59375 56.421875 14.59375 
Q 62.703125 22.609375 62.703125 36.375 
Q 62.703125 50.203125 56.421875 58.203125 
Q 50.140625 66.21875 39.40625 66.21875 
z
M 39.40625 74.21875 
Q 54.734375 74.21875 63.90625 63.9375 
Q 73.09375 53.65625 73.09375 36.375 
Q 73.09375 19.140625 63.90625 8.859375 
Q 54.734375 -1.421875 39.40625 -1.421875 
Q 24.03125 -1.421875 14.8125 8.828125 
Q 5.609375 19.09375 5.609375 36.375 
Q 5.609375 53.65625 14.8125 63.9375 
Q 24.03125 74.21875 39.40625 74.21875 
z
" id="DejaVuSans-79"/>
        <path d="M 48.78125 52.59375 
L 48.78125 44.1875 
Q 44.96875 46.296875 41.140625 47.34375 
Q 37.3125 48.390625 33.40625 48.390625 
Q 24.65625 48.390625 19.8125 42.84375 
Q 14.984375 37.3125 14.984375 27.296875 
Q 14.984375 17.28125 19.8125 11.734375 
Q 24.65625 6.203125 33.40625 6.203125 
Q 37.3125 6.203125 41.140625 7.25 
Q 44.96875 8.296875 48.78125 10.40625 
L 48.78125 2.09375 
Q 45.015625 0.34375 40.984375 -0.53125 
Q 36.96875 -1.421875 32.421875 -1.421875 
Q 20.0625 -1.421875 12.78125 6.34375 
Q 5.515625 14.109375 5.515625 27.296875 
Q 5.515625 40.671875 12.859375 48.328125 
Q 20.21875 56 33.015625 56 
Q 37.15625 56 41.109375 55.140625 
Q 45.0625 54.296875 48.78125 52.59375 
z
" id="DejaVuSans-99"/>
        <path d="M 18.3125 70.21875 
L 18.3125 54.6875 
L 36.8125 54.6875 
L 36.8125 47.703125 
L 18.3125 47.703125 
L 18.3125 18.015625 
Q 18.3125 11.328125 20.140625 9.421875 
Q 21.96875 7.515625 27.59375 7.515625 
L 36.8125 7.515625 
L 36.8125 0 
L 27.59375 0 
Q 17.1875 0 13.234375 3.875 
Q 9.28125 7.765625 9.28125 18.015625 
L 9.28125 47.703125 
L 2.6875 47.703125 
L 2.6875 54.6875 
L 9.28125 54.6875 
L 9.28125 70.21875 
z
" id="DejaVuSans-116"/>
       </defs>
       <use xlink:href="#DejaVuSans-79"/>
       <use x="78.710938" xlink:href="#DejaVuSans-99"/>
       <use x="133.691406" xlink:href="#DejaVuSans-116"/>
      </g>
     </g>
    </g>
    <g id="xtick_11">
     <g id="line2d_11">
      <g>
       <use style="fill:#252627;stroke:#252627;stroke-width:0.8;" x="436.103165" xlink:href="#m5eb0cd7729" y="437.3688"/>
      </g>
     </g>
     <g id="text_10">
      <!-- Nov -->
      <g style="fill:#252627;" transform="translate(420.488165 456.5263)scale(0.16 -0.16)">
       <defs>
        <path d="M 9.8125 72.90625 
L 23.09375 72.90625 
L 55.421875 11.921875 
L 55.421875 72.90625 
L 64.984375 72.90625 
L 64.984375 0 
L 51.703125 0 
L 19.390625 60.984375 
L 19.390625 0 
L 9.8125 0 
z
" id="DejaVuSans-78"/>
        <path d="M 30.609375 48.390625 
Q 23.390625 48.390625 19.1875 42.75 
Q 14.984375 37.109375 14.984375 27.296875 
Q 14.984375 17.484375 19.15625 11.84375 
Q 23.34375 6.203125 30.609375 6.203125 
Q 37.796875 6.203125 41.984375 11.859375 
Q 46.1875 17.53125 46.1875 27.296875 
Q 46.1875 37.015625 41.984375 42.703125 
Q 37.796875 48.390625 30.609375 48.390625 
z
M 30.609375 56 
Q 42.328125 56 49.015625 48.375 
Q 55.71875 40.765625 55.71875 27.296875 
Q 55.71875 13.875 49.015625 6.21875 
Q 42.328125 -1.421875 30.609375 -1.421875 
Q 18.84375 -1.421875 12.171875 6.21875 
Q 5.515625 13.875 5.515625 27.296875 
Q 5.515625 40.765625 12.171875 48.375 
Q 18.84375 56 30.609375 56 
z
" id="DejaVuSans-111"/>
        <path d="M 2.984375 54.6875 
L 12.5 54.6875 
L 29.59375 8.796875 
L 46.6875 54.6875 
L 56.203125 54.6875 
L 35.6875 0 
L 23.484375 0 
z
" id="DejaVuSans-118"/>
       </defs>
       <use xlink:href="#DejaVuSans-78"/>
       <use x="74.804688" xlink:href="#DejaVuSans-111"/>
       <use x="135.986328" xlink:href="#DejaVuSans-118"/>
      </g>
     </g>
    </g>
    <g id="xtick_12">
     <g id="line2d_12">
      <g>
       <use style="fill:#252627;stroke:#252627;stroke-width:0.8;" x="477.334692" xlink:href="#m5eb0cd7729" y="437.3688"/>
      </g>
     </g>
     <g id="text_11">
      <!-- Dec -->
      <g style="fill:#252627;" transform="translate(461.853442 456.5263)scale(0.16 -0.16)">
       <defs>
        <path d="M 19.671875 64.796875 
L 19.671875 8.109375 
L 31.59375 8.109375 
Q 46.6875 8.109375 53.6875 14.9375 
Q 60.6875 21.78125 60.6875 36.53125 
Q 60.6875 51.171875 53.6875 57.984375 
Q 46.6875 64.796875 31.59375 64.796875 
z
M 9.8125 72.90625 
L 30.078125 72.90625 
Q 51.265625 72.90625 61.171875 64.09375 
Q 71.09375 55.28125 71.09375 36.53125 
Q 71.09375 17.671875 61.125 8.828125 
Q 51.171875 0 30.078125 0 
L 9.8125 0 
z
" id="DejaVuSans-68"/>
       </defs>
       <use xlink:href="#DejaVuSans-68"/>
       <use x="77.001953" xlink:href="#DejaVuSans-101"/>
       <use x="138.525391" xlink:href="#DejaVuSans-99"/>
      </g>
     </g>
    </g>
    <g id="xtick_13">
     <g id="line2d_13">
      <g>
       <use style="fill:#252627;stroke:#252627;stroke-width:0.8;" x="519.940603" xlink:href="#m5eb0cd7729" y="437.3688"/>
      </g>
     </g>
     <g id="text_12">
      <!-- Jan -->
      <g style="fill:#252627;" transform="translate(507.608103 456.5263)scale(0.16 -0.16)">
       <use xlink:href="#DejaVuSans-74"/>
       <use x="29.492188" xlink:href="#DejaVuSans-97"/>
       <use x="90.771484" xlink:href="#DejaVuSans-110"/>
      </g>
      <!-- 2021 -->
      <g style="fill:#252627;" transform="translate(499.580603 474.4428)scale(0.16 -0.16)">
       <defs>
        <path d="M 19.1875 8.296875 
L 53.609375 8.296875 
L 53.609375 0 
L 7.328125 0 
L 7.328125 8.296875 
Q 12.9375 14.109375 22.625 23.890625 
Q 32.328125 33.6875 34.8125 36.53125 
Q 39.546875 41.84375 41.421875 45.53125 
Q 43.3125 49.21875 43.3125 52.78125 
Q 43.3125 58.59375 39.234375 62.25 
Q 35.15625 65.921875 28.609375 65.921875 
Q 23.96875 65.921875 18.8125 64.3125 
Q 13.671875 62.703125 7.8125 59.421875 
L 7.8125 69.390625 
Q 13.765625 71.78125 18.9375 73 
Q 24.125 74.21875 28.421875 74.21875 
Q 39.75 74.21875 46.484375 68.546875 
Q 53.21875 62.890625 53.21875 53.421875 
Q 53.21875 48.921875 51.53125 44.890625 
Q 49.859375 40.875 45.40625 35.40625 
Q 44.1875 33.984375 37.640625 27.21875 
Q 31.109375 20.453125 19.1875 8.296875 
z
" id="DejaVuSans-50"/>
        <path d="M 31.78125 66.40625 
Q 24.171875 66.40625 20.328125 58.90625 
Q 16.5 51.421875 16.5 36.375 
Q 16.5 21.390625 20.328125 13.890625 
Q 24.171875 6.390625 31.78125 6.390625 
Q 39.453125 6.390625 43.28125 13.890625 
Q 47.125 21.390625 47.125 36.375 
Q 47.125 51.421875 43.28125 58.90625 
Q 39.453125 66.40625 31.78125 66.40625 
z
M 31.78125 74.21875 
Q 44.046875 74.21875 50.515625 64.515625 
Q 56.984375 54.828125 56.984375 36.375 
Q 56.984375 17.96875 50.515625 8.265625 
Q 44.046875 -1.421875 31.78125 -1.421875 
Q 19.53125 -1.421875 13.0625 8.265625 
Q 6.59375 17.96875 6.59375 36.375 
Q 6.59375 54.828125 13.0625 64.515625 
Q 19.53125 74.21875 31.78125 74.21875 
z
" id="DejaVuSans-48"/>
        <path d="M 12.40625 8.296875 
L 28.515625 8.296875 
L 28.515625 63.921875 
L 10.984375 60.40625 
L 10.984375 69.390625 
L 28.421875 72.90625 
L 38.28125 72.90625 
L 38.28125 8.296875 
L 54.390625 8.296875 
L 54.390625 0 
L 12.40625 0 
z
" id="DejaVuSans-49"/>
       </defs>
       <use xlink:href="#DejaVuSans-50"/>
       <use x="63.623047" xlink:href="#DejaVuSans-48"/>
       <use x="127.246094" xlink:href="#DejaVuSans-50"/>
       <use x="190.869141" xlink:href="#DejaVuSans-49"/>
      </g>
     </g>
    </g>
    <g id="xtick_14">
     <g id="line2d_14">
      <g>
       <use style="fill:#252627;stroke:#252627;stroke-width:0.8;" x="562.546515" xlink:href="#m5eb0cd7729" y="437.3688"/>
      </g>
     </g>
     <g id="text_13">
      <!-- Feb -->
      <g style="fill:#252627;" transform="translate(548.384015 456.5263)scale(0.16 -0.16)">
       <use xlink:href="#DejaVuSans-70"/>
       <use x="52.019531" xlink:href="#DejaVuSans-101"/>
       <use x="113.542969" xlink:href="#DejaVuSans-98"/>
      </g>
     </g>
    </g>
    <g id="xtick_15">
     <g id="line2d_15">
      <g>
       <use style="fill:#252627;stroke:#252627;stroke-width:0.8;" x="601.029273" xlink:href="#m5eb0cd7729" y="437.3688"/>
      </g>
     </g>
     <g id="text_14">
      <!-- Mar -->
      <g style="fill:#252627;" transform="translate(585.935523 456.5263)scale(0.16 -0.16)">
       <use xlink:href="#DejaVuSans-77"/>
       <use x="86.279297" xlink:href="#DejaVuSans-97"/>
       <use x="147.558594" xlink:href="#DejaVuSans-114"/>
      </g>
     </g>
    </g>
    <g id="xtick_16">
     <g id="line2d_16">
      <g>
       <use style="fill:#252627;stroke:#252627;stroke-width:0.8;" x="616.1475" xlink:href="#m5eb0cd7729" y="437.3688"/>
      </g>
     </g>
    </g>
    <g id="xtick_17">
     <g id="line2d_17">
      <defs>
       <path d="M 0 0 
L 0 2 
" id="mbf7bfa0403" style="stroke:#252627;stroke-width:0.6;"/>
      </defs>
      <g>
       <use style="fill:#252627;stroke:#252627;stroke-width:0.6;" x="62.270653" xlink:href="#mbf7bfa0403" y="437.3688"/>
      </g>
     </g>
    </g>
    <g id="xtick_18">
     <g id="line2d_18">
      <g>
       <use style="fill:#252627;stroke:#252627;stroke-width:0.6;" x="71.891342" xlink:href="#mbf7bfa0403" y="437.3688"/>
      </g>
     </g>
    </g>
    <g id="xtick_19">
     <g id="line2d_19">
      <g>
       <use style="fill:#252627;stroke:#252627;stroke-width:0.6;" x="81.512032" xlink:href="#mbf7bfa0403" y="437.3688"/>
      </g>
     </g>
    </g>
    <g id="xtick_20">
     <g id="line2d_20">
      <g>
       <use style="fill:#252627;stroke:#252627;stroke-width:0.6;" x="91.132722" xlink:href="#mbf7bfa0403" y="437.3688"/>
      </g>
     </g>
    </g>
    <g id="xtick_21">
     <g id="line2d_21">
      <g>
       <use style="fill:#252627;stroke:#252627;stroke-width:0.6;" x="100.753411" xlink:href="#mbf7bfa0403" y="437.3688"/>
      </g>
     </g>
    </g>
    <g id="xtick_22">
     <g id="line2d_22">
      <g>
       <use style="fill:#252627;stroke:#252627;stroke-width:0.6;" x="110.374101" xlink:href="#mbf7bfa0403" y="437.3688"/>
      </g>
     </g>
    </g>
    <g id="xtick_23">
     <g id="line2d_23">
      <g>
       <use style="fill:#252627;stroke:#252627;stroke-width:0.6;" x="119.994791" xlink:href="#mbf7bfa0403" y="437.3688"/>
      </g>
     </g>
    </g>
    <g id="xtick_24">
     <g id="line2d_24">
      <g>
       <use style="fill:#252627;stroke:#252627;stroke-width:0.6;" x="129.61548" xlink:href="#mbf7bfa0403" y="437.3688"/>
      </g>
     </g>
    </g>
    <g id="xtick_25">
     <g id="line2d_25">
      <g>
       <use style="fill:#252627;stroke:#252627;stroke-width:0.6;" x="139.23617" xlink:href="#mbf7bfa0403" y="437.3688"/>
      </g>
     </g>
    </g>
    <g id="xtick_26">
     <g id="line2d_26">
      <g>
       <use style="fill:#252627;stroke:#252627;stroke-width:0.6;" x="148.85686" xlink:href="#mbf7bfa0403" y="437.3688"/>
      </g>
     </g>
    </g>
    <g id="xtick_27">
     <g id="line2d_27">
      <g>
       <use style="fill:#252627;stroke:#252627;stroke-width:0.6;" x="158.477549" xlink:href="#mbf7bfa0403" y="437.3688"/>
      </g>
     </g>
    </g>
    <g id="xtick_28">
     <g id="line2d_28">
      <g>
       <use style="fill:#252627;stroke:#252627;stroke-width:0.6;" x="168.098239" xlink:href="#mbf7bfa0403" y="437.3688"/>
      </g>
     </g>
    </g>
    <g id="xtick_29">
     <g id="line2d_29">
      <g>
       <use style="fill:#252627;stroke:#252627;stroke-width:0.6;" x="177.718929" xlink:href="#mbf7bfa0403" y="437.3688"/>
      </g>
     </g>
    </g>
    <g id="xtick_30">
     <g id="line2d_30">
      <g>
       <use style="fill:#252627;stroke:#252627;stroke-width:0.6;" x="187.339618" xlink:href="#mbf7bfa0403" y="437.3688"/>
      </g>
     </g>
    </g>
    <g id="xtick_31">
     <g id="line2d_31">
      <g>
       <use style="fill:#252627;stroke:#252627;stroke-width:0.6;" x="196.960308" xlink:href="#mbf7bfa0403" y="437.3688"/>
      </g>
     </g>
    </g>
    <g id="xtick_32">
     <g id="line2d_32">
      <g>
       <use style="fill:#252627;stroke:#252627;stroke-width:0.6;" x="206.580998" xlink:href="#mbf7bfa0403" y="437.3688"/>
      </g>
     </g>
    </g>
    <g id="xtick_33">
     <g id="line2d_33">
      <g>
       <use style="fill:#252627;stroke:#252627;stroke-width:0.6;" x="216.201687" xlink:href="#mbf7bfa0403" y="437.3688"/>
      </g>
     </g>
    </g>
    <g id="xtick_34">
     <g id="line2d_34">
      <g>
       <use style="fill:#252627;stroke:#252627;stroke-width:0.6;" x="235.443067" xlink:href="#mbf7bfa0403" y="437.3688"/>
      </g>
     </g>
    </g>
    <g id="xtick_35">
     <g id="line2d_35">
      <g>
       <use style="fill:#252627;stroke:#252627;stroke-width:0.6;" x="245.063756" xlink:href="#mbf7bfa0403" y="437.3688"/>
      </g>
     </g>
    </g>
    <g id="xtick_36">
     <g id="line2d_36">
      <g>
       <use style="fill:#252627;stroke:#252627;stroke-width:0.6;" x="254.684446" xlink:href="#mbf7bfa0403" y="437.3688"/>
      </g>
     </g>
    </g>
    <g id="xtick_37">
     <g id="line2d_37">
      <g>
       <use style="fill:#252627;stroke:#252627;stroke-width:0.6;" x="264.305135" xlink:href="#mbf7bfa0403" y="437.3688"/>
      </g>
     </g>
    </g>
    <g id="xtick_38">
     <g id="line2d_38">
      <g>
       <use style="fill:#252627;stroke:#252627;stroke-width:0.6;" x="273.925825" xlink:href="#mbf7bfa0403" y="437.3688"/>
      </g>
     </g>
    </g>
    <g id="xtick_39">
     <g id="line2d_39">
      <g>
       <use style="fill:#252627;stroke:#252627;stroke-width:0.6;" x="283.546515" xlink:href="#mbf7bfa0403" y="437.3688"/>
      </g>
     </g>
    </g>
    <g id="xtick_40">
     <g id="line2d_40">
      <g>
       <use style="fill:#252627;stroke:#252627;stroke-width:0.6;" x="293.167204" xlink:href="#mbf7bfa0403" y="437.3688"/>
      </g>
     </g>
    </g>
    <g id="xtick_41">
     <g id="line2d_41">
      <g>
       <use style="fill:#252627;stroke:#252627;stroke-width:0.6;" x="302.787894" xlink:href="#mbf7bfa0403" y="437.3688"/>
      </g>
     </g>
    </g>
    <g id="xtick_42">
     <g id="line2d_42">
      <g>
       <use style="fill:#252627;stroke:#252627;stroke-width:0.6;" x="312.408584" xlink:href="#mbf7bfa0403" y="437.3688"/>
      </g>
     </g>
    </g>
    <g id="xtick_43">
     <g id="line2d_43">
      <g>
       <use style="fill:#252627;stroke:#252627;stroke-width:0.6;" x="322.029273" xlink:href="#mbf7bfa0403" y="437.3688"/>
      </g>
     </g>
    </g>
    <g id="xtick_44">
     <g id="line2d_44">
      <g>
       <use style="fill:#252627;stroke:#252627;stroke-width:0.6;" x="331.649963" xlink:href="#mbf7bfa0403" y="437.3688"/>
      </g>
     </g>
    </g>
    <g id="xtick_45">
     <g id="line2d_45">
      <g>
       <use style="fill:#252627;stroke:#252627;stroke-width:0.6;" x="341.270653" xlink:href="#mbf7bfa0403" y="437.3688"/>
      </g>
     </g>
    </g>
    <g id="xtick_46">
     <g id="line2d_46">
      <g>
       <use style="fill:#252627;stroke:#252627;stroke-width:0.6;" x="350.891342" xlink:href="#mbf7bfa0403" y="437.3688"/>
      </g>
     </g>
    </g>
    <g id="xtick_47">
     <g id="line2d_47">
      <g>
       <use style="fill:#252627;stroke:#252627;stroke-width:0.6;" x="360.512032" xlink:href="#mbf7bfa0403" y="437.3688"/>
      </g>
     </g>
    </g>
    <g id="xtick_48">
     <g id="line2d_48">
      <g>
       <use style="fill:#252627;stroke:#252627;stroke-width:0.6;" x="370.132722" xlink:href="#mbf7bfa0403" y="437.3688"/>
      </g>
     </g>
    </g>
    <g id="xtick_49">
     <g id="line2d_49">
      <g>
       <use style="fill:#252627;stroke:#252627;stroke-width:0.6;" x="379.753411" xlink:href="#mbf7bfa0403" y="437.3688"/>
      </g>
     </g>
    </g>
    <g id="xtick_50">
     <g id="line2d_50">
      <g>
       <use style="fill:#252627;stroke:#252627;stroke-width:0.6;" x="389.374101" xlink:href="#mbf7bfa0403" y="437.3688"/>
      </g>
     </g>
    </g>
    <g id="xtick_51">
     <g id="line2d_51">
      <g>
       <use style="fill:#252627;stroke:#252627;stroke-width:0.6;" x="398.994791" xlink:href="#mbf7bfa0403" y="437.3688"/>
      </g>
     </g>
    </g>
    <g id="xtick_52">
     <g id="line2d_52">
      <g>
       <use style="fill:#252627;stroke:#252627;stroke-width:0.6;" x="408.61548" xlink:href="#mbf7bfa0403" y="437.3688"/>
      </g>
     </g>
    </g>
    <g id="xtick_53">
     <g id="line2d_53">
      <g>
       <use style="fill:#252627;stroke:#252627;stroke-width:0.6;" x="418.23617" xlink:href="#mbf7bfa0403" y="437.3688"/>
      </g>
     </g>
    </g>
    <g id="xtick_54">
     <g id="line2d_54">
      <g>
       <use style="fill:#252627;stroke:#252627;stroke-width:0.6;" x="427.85686" xlink:href="#mbf7bfa0403" y="437.3688"/>
      </g>
     </g>
    </g>
    <g id="xtick_55">
     <g id="line2d_55">
      <g>
       <use style="fill:#252627;stroke:#252627;stroke-width:0.6;" x="437.477549" xlink:href="#mbf7bfa0403" y="437.3688"/>
      </g>
     </g>
    </g>
    <g id="xtick_56">
     <g id="line2d_56">
      <g>
       <use style="fill:#252627;stroke:#252627;stroke-width:0.6;" x="447.098239" xlink:href="#mbf7bfa0403" y="437.3688"/>
      </g>
     </g>
    </g>
    <g id="xtick_57">
     <g id="line2d_57">
      <g>
       <use style="fill:#252627;stroke:#252627;stroke-width:0.6;" x="456.718929" xlink:href="#mbf7bfa0403" y="437.3688"/>
      </g>
     </g>
    </g>
    <g id="xtick_58">
     <g id="line2d_58">
      <g>
       <use style="fill:#252627;stroke:#252627;stroke-width:0.6;" x="466.339618" xlink:href="#mbf7bfa0403" y="437.3688"/>
      </g>
     </g>
    </g>
    <g id="xtick_59">
     <g id="line2d_59">
      <g>
       <use style="fill:#252627;stroke:#252627;stroke-width:0.6;" x="475.960308" xlink:href="#mbf7bfa0403" y="437.3688"/>
      </g>
     </g>
    </g>
    <g id="xtick_60">
     <g id="line2d_60">
      <g>
       <use style="fill:#252627;stroke:#252627;stroke-width:0.6;" x="485.580998" xlink:href="#mbf7bfa0403" y="437.3688"/>
      </g>
     </g>
    </g>
    <g id="xtick_61">
     <g id="line2d_61">
      <g>
       <use style="fill:#252627;stroke:#252627;stroke-width:0.6;" x="495.201687" xlink:href="#mbf7bfa0403" y="437.3688"/>
      </g>
     </g>
    </g>
    <g id="xtick_62">
     <g id="line2d_62">
      <g>
       <use style="fill:#252627;stroke:#252627;stroke-width:0.6;" x="504.822377" xlink:href="#mbf7bfa0403" y="437.3688"/>
      </g>
     </g>
    </g>
    <g id="xtick_63">
     <g id="line2d_63">
      <g>
       <use style="fill:#252627;stroke:#252627;stroke-width:0.6;" x="514.443067" xlink:href="#mbf7bfa0403" y="437.3688"/>
      </g>
     </g>
    </g>
    <g id="xtick_64">
     <g id="line2d_64">
      <g>
       <use style="fill:#252627;stroke:#252627;stroke-width:0.6;" x="524.063756" xlink:href="#mbf7bfa0403" y="437.3688"/>
      </g>
     </g>
    </g>
    <g id="xtick_65">
     <g id="line2d_65">
      <g>
       <use style="fill:#252627;stroke:#252627;stroke-width:0.6;" x="533.684446" xlink:href="#mbf7bfa0403" y="437.3688"/>
      </g>
     </g>
    </g>
    <g id="xtick_66">
     <g id="line2d_66">
      <g>
       <use style="fill:#252627;stroke:#252627;stroke-width:0.6;" x="543.305135" xlink:href="#mbf7bfa0403" y="437.3688"/>
      </g>
     </g>
    </g>
    <g id="xtick_67">
     <g id="line2d_67">
      <g>
       <use style="fill:#252627;stroke:#252627;stroke-width:0.6;" x="552.925825" xlink:href="#mbf7bfa0403" y="437.3688"/>
      </g>
     </g>
    </g>
    <g id="xtick_68">
     <g id="line2d_68">
      <g>
       <use style="fill:#252627;stroke:#252627;stroke-width:0.6;" x="572.167204" xlink:href="#mbf7bfa0403" y="437.3688"/>
      </g>
     </g>
    </g>
    <g id="xtick_69">
     <g id="line2d_69">
      <g>
       <use style="fill:#252627;stroke:#252627;stroke-width:0.6;" x="581.787894" xlink:href="#mbf7bfa0403" y="437.3688"/>
      </g>
     </g>
    </g>
    <g id="xtick_70">
     <g id="line2d_70">
      <g>
       <use style="fill:#252627;stroke:#252627;stroke-width:0.6;" x="591.408584" xlink:href="#mbf7bfa0403" y="437.3688"/>
      </g>
     </g>
    </g>
    <g id="xtick_71">
     <g id="line2d_71">
      <g>
       <use style="fill:#252627;stroke:#252627;stroke-width:0.6;" x="610.649963" xlink:href="#mbf7bfa0403" y="437.3688"/>
      </g>
     </g>
    </g>
    <g id="text_15">
     <!-- date -->
     <g style="fill:#252627;" transform="translate(319.1075 493.9278)scale(0.16 -0.16)">
      <defs>
       <path d="M 45.40625 46.390625 
L 45.40625 75.984375 
L 54.390625 75.984375 
L 54.390625 0 
L 45.40625 0 
L 45.40625 8.203125 
Q 42.578125 3.328125 38.25 0.953125 
Q 33.9375 -1.421875 27.875 -1.421875 
Q 17.96875 -1.421875 11.734375 6.484375 
Q 5.515625 14.40625 5.515625 27.296875 
Q 5.515625 40.1875 11.734375 48.09375 
Q 17.96875 56 27.875 56 
Q 33.9375 56 38.25 53.625 
Q 42.578125 51.265625 45.40625 46.390625 
z
M 14.796875 27.296875 
Q 14.796875 17.390625 18.875 11.75 
Q 22.953125 6.109375 30.078125 6.109375 
Q 37.203125 6.109375 41.296875 11.75 
Q 45.40625 17.390625 45.40625 27.296875 
Q 45.40625 37.203125 41.296875 42.84375 
Q 37.203125 48.484375 30.078125 48.484375 
Q 22.953125 48.484375 18.875 42.84375 
Q 14.796875 37.203125 14.796875 27.296875 
z
" id="DejaVuSans-100"/>
      </defs>
      <use xlink:href="#DejaVuSans-100"/>
      <use x="63.476562" xlink:href="#DejaVuSans-97"/>
      <use x="124.755859" xlink:href="#DejaVuSans-116"/>
      <use x="163.964844" xlink:href="#DejaVuSans-101"/>
     </g>
    </g>
   </g>
   <g id="matplotlib.axis_2">
    <g id="ytick_1">
     <g id="line2d_72">
      <defs>
       <path d="M 0 0 
L -3.5 0 
" id="m2be9f6d28b" style="stroke:#252627;stroke-width:0.8;"/>
      </defs>
      <g>
       <use style="fill:#252627;stroke:#252627;stroke-width:0.8;" x="58.1475" xlink:href="#m2be9f6d28b" y="412.093138"/>
      </g>
     </g>
     <g id="text_16">
      <!-- −200 -->
      <g style="fill:#252627;" transform="translate(7.2 418.171888)scale(0.16 -0.16)">
       <defs>
        <path d="M 10.59375 35.5 
L 73.1875 35.5 
L 73.1875 27.203125 
L 10.59375 27.203125 
z
" id="DejaVuSans-8722"/>
       </defs>
       <use xlink:href="#DejaVuSans-8722"/>
       <use x="83.789062" xlink:href="#DejaVuSans-50"/>
       <use x="147.412109" xlink:href="#DejaVuSans-48"/>
       <use x="211.035156" xlink:href="#DejaVuSans-48"/>
      </g>
     </g>
    </g>
    <g id="ytick_2">
     <g id="line2d_73">
      <g>
       <use style="fill:#252627;stroke:#252627;stroke-width:0.8;" x="58.1475" xlink:href="#m2be9f6d28b" y="364.582561"/>
      </g>
     </g>
     <g id="text_17">
      <!-- 0 -->
      <g style="fill:#252627;" transform="translate(40.9675 370.661311)scale(0.16 -0.16)">
       <use xlink:href="#DejaVuSans-48"/>
      </g>
     </g>
    </g>
    <g id="ytick_3">
     <g id="line2d_74">
      <g>
       <use style="fill:#252627;stroke:#252627;stroke-width:0.8;" x="58.1475" xlink:href="#m2be9f6d28b" y="317.071985"/>
      </g>
     </g>
     <g id="text_18">
      <!-- 200 -->
      <g style="fill:#252627;" transform="translate(20.6075 323.150735)scale(0.16 -0.16)">
       <use xlink:href="#DejaVuSans-50"/>
       <use x="63.623047" xlink:href="#DejaVuSans-48"/>
       <use x="127.246094" xlink:href="#DejaVuSans-48"/>
      </g>
     </g>
    </g>
    <g id="ytick_4">
     <g id="line2d_75">
      <g>
       <use style="fill:#252627;stroke:#252627;stroke-width:0.8;" x="58.1475" xlink:href="#m2be9f6d28b" y="269.561408"/>
      </g>
     </g>
     <g id="text_19">
      <!-- 400 -->
      <g style="fill:#252627;" transform="translate(20.6075 275.640158)scale(0.16 -0.16)">
       <defs>
        <path d="M 37.796875 64.3125 
L 12.890625 25.390625 
L 37.796875 25.390625 
z
M 35.203125 72.90625 
L 47.609375 72.90625 
L 47.609375 25.390625 
L 58.015625 25.390625 
L 58.015625 17.1875 
L 47.609375 17.1875 
L 47.609375 0 
L 37.796875 0 
L 37.796875 17.1875 
L 4.890625 17.1875 
L 4.890625 26.703125 
z
" id="DejaVuSans-52"/>
       </defs>
       <use xlink:href="#DejaVuSans-52"/>
       <use x="63.623047" xlink:href="#DejaVuSans-48"/>
       <use x="127.246094" xlink:href="#DejaVuSans-48"/>
      </g>
     </g>
    </g>
    <g id="ytick_5">
     <g id="line2d_76">
      <g>
       <use style="fill:#252627;stroke:#252627;stroke-width:0.8;" x="58.1475" xlink:href="#m2be9f6d28b" y="222.050832"/>
      </g>
     </g>
     <g id="text_20">
      <!-- 600 -->
      <g style="fill:#252627;" transform="translate(20.6075 228.129582)scale(0.16 -0.16)">
       <defs>
        <path d="M 33.015625 40.375 
Q 26.375 40.375 22.484375 35.828125 
Q 18.609375 31.296875 18.609375 23.390625 
Q 18.609375 15.53125 22.484375 10.953125 
Q 26.375 6.390625 33.015625 6.390625 
Q 39.65625 6.390625 43.53125 10.953125 
Q 47.40625 15.53125 47.40625 23.390625 
Q 47.40625 31.296875 43.53125 35.828125 
Q 39.65625 40.375 33.015625 40.375 
z
M 52.59375 71.296875 
L 52.59375 62.3125 
Q 48.875 64.0625 45.09375 64.984375 
Q 41.3125 65.921875 37.59375 65.921875 
Q 27.828125 65.921875 22.671875 59.328125 
Q 17.53125 52.734375 16.796875 39.40625 
Q 19.671875 43.65625 24.015625 45.921875 
Q 28.375 48.1875 33.59375 48.1875 
Q 44.578125 48.1875 50.953125 41.515625 
Q 57.328125 34.859375 57.328125 23.390625 
Q 57.328125 12.15625 50.6875 5.359375 
Q 44.046875 -1.421875 33.015625 -1.421875 
Q 20.359375 -1.421875 13.671875 8.265625 
Q 6.984375 17.96875 6.984375 36.375 
Q 6.984375 53.65625 15.1875 63.9375 
Q 23.390625 74.21875 37.203125 74.21875 
Q 40.921875 74.21875 44.703125 73.484375 
Q 48.484375 72.75 52.59375 71.296875 
z
" id="DejaVuSans-54"/>
       </defs>
       <use xlink:href="#DejaVuSans-54"/>
       <use x="63.623047" xlink:href="#DejaVuSans-48"/>
       <use x="127.246094" xlink:href="#DejaVuSans-48"/>
      </g>
     </g>
    </g>
    <g id="ytick_6">
     <g id="line2d_77">
      <g>
       <use style="fill:#252627;stroke:#252627;stroke-width:0.8;" x="58.1475" xlink:href="#m2be9f6d28b" y="174.540256"/>
      </g>
     </g>
     <g id="text_21">
      <!-- 800 -->
      <g style="fill:#252627;" transform="translate(20.6075 180.619006)scale(0.16 -0.16)">
       <defs>
        <path d="M 31.78125 34.625 
Q 24.75 34.625 20.71875 30.859375 
Q 16.703125 27.09375 16.703125 20.515625 
Q 16.703125 13.921875 20.71875 10.15625 
Q 24.75 6.390625 31.78125 6.390625 
Q 38.8125 6.390625 42.859375 10.171875 
Q 46.921875 13.96875 46.921875 20.515625 
Q 46.921875 27.09375 42.890625 30.859375 
Q 38.875 34.625 31.78125 34.625 
z
M 21.921875 38.8125 
Q 15.578125 40.375 12.03125 44.71875 
Q 8.5 49.078125 8.5 55.328125 
Q 8.5 64.0625 14.71875 69.140625 
Q 20.953125 74.21875 31.78125 74.21875 
Q 42.671875 74.21875 48.875 69.140625 
Q 55.078125 64.0625 55.078125 55.328125 
Q 55.078125 49.078125 51.53125 44.71875 
Q 48 40.375 41.703125 38.8125 
Q 48.828125 37.15625 52.796875 32.3125 
Q 56.78125 27.484375 56.78125 20.515625 
Q 56.78125 9.90625 50.3125 4.234375 
Q 43.84375 -1.421875 31.78125 -1.421875 
Q 19.734375 -1.421875 13.25 4.234375 
Q 6.78125 9.90625 6.78125 20.515625 
Q 6.78125 27.484375 10.78125 32.3125 
Q 14.796875 37.15625 21.921875 38.8125 
z
M 18.3125 54.390625 
Q 18.3125 48.734375 21.84375 45.5625 
Q 25.390625 42.390625 31.78125 42.390625 
Q 38.140625 42.390625 41.71875 45.5625 
Q 45.3125 48.734375 45.3125 54.390625 
Q 45.3125 60.0625 41.71875 63.234375 
Q 38.140625 66.40625 31.78125 66.40625 
Q 25.390625 66.40625 21.84375 63.234375 
Q 18.3125 60.0625 18.3125 54.390625 
z
" id="DejaVuSans-56"/>
       </defs>
       <use xlink:href="#DejaVuSans-56"/>
       <use x="63.623047" xlink:href="#DejaVuSans-48"/>
       <use x="127.246094" xlink:href="#DejaVuSans-48"/>
      </g>
     </g>
    </g>
    <g id="ytick_7">
     <g id="line2d_78">
      <g>
       <use style="fill:#252627;stroke:#252627;stroke-width:0.8;" x="58.1475" xlink:href="#m2be9f6d28b" y="127.029679"/>
      </g>
     </g>
     <g id="text_22">
      <!-- 1000 -->
      <g style="fill:#252627;" transform="translate(10.4275 133.108429)scale(0.16 -0.16)">
       <use xlink:href="#DejaVuSans-49"/>
       <use x="63.623047" xlink:href="#DejaVuSans-48"/>
       <use x="127.246094" xlink:href="#DejaVuSans-48"/>
       <use x="190.869141" xlink:href="#DejaVuSans-48"/>
      </g>
     </g>
    </g>
    <g id="ytick_8">
     <g id="line2d_79">
      <g>
       <use style="fill:#252627;stroke:#252627;stroke-width:0.8;" x="58.1475" xlink:href="#m2be9f6d28b" y="79.519103"/>
      </g>
     </g>
     <g id="text_23">
      <!-- 1200 -->
      <g style="fill:#252627;" transform="translate(10.4275 85.597853)scale(0.16 -0.16)">
       <use xlink:href="#DejaVuSans-49"/>
       <use x="63.623047" xlink:href="#DejaVuSans-50"/>
       <use x="127.246094" xlink:href="#DejaVuSans-48"/>
       <use x="190.869141" xlink:href="#DejaVuSans-48"/>
      </g>
     </g>
    </g>
   </g>
   <g id="line2d_80">
    <path clip-path="url(#p70b072aa6a)" d="M 66.393805 364.582561 
L 104.876564 364.480651 
L 107.625333 364.243098 
L 108.999717 364.005545 
L 110.374101 363.63235 
L 111.748485 363.428767 
L 113.122869 362.817781 
L 114.497254 362.817781 
L 115.871638 360.238669 
L 117.246022 358.304276 
L 118.620406 355.351969 
L 119.994791 353.926652 
L 121.369175 347.682337 
L 122.743559 345.272838 
L 124.117943 338.282131 
L 125.492328 333.700687 
L 126.866712 324.538034 
L 128.241096 314.25532 
L 129.61548 297.762261 
L 130.989865 287.377875 
L 132.364249 261.959716 
L 133.738633 244.618356 
L 135.113017 225.614125 
L 136.487401 208.238795 
L 137.861786 193.849979 
L 139.23617 181.157766 
L 140.610554 172.639833 
L 141.984938 169.789198 
L 143.359323 161.542787 
L 144.733707 158.929706 
L 146.108091 162.153536 
L 147.482475 166.463458 
L 148.85686 173.691954 
L 150.231244 175.184974 
L 151.605628 181.157766 
L 152.980012 191.542153 
L 155.728781 206.474252 
L 157.103165 209.562439 
L 158.477549 214.754633 
L 159.851933 228.46476 
L 161.226318 231.68859 
L 162.600702 233.317728 
L 163.975086 231.518977 
L 165.34947 247.944096 
L 166.723855 254.493667 
L 168.098239 259.516247 
L 169.472623 255.104653 
L 170.847007 262.468792 
L 172.221392 268.136091 
L 173.595776 278.995584 
L 174.97016 267.559075 
L 176.344544 271.699384 
L 177.718929 274.006973 
L 179.093313 278.384835 
L 180.467697 277.773849 
L 181.842081 283.610999 
L 183.216466 296.065421 
L 184.59085 289.990956 
L 185.965234 294.198968 
L 187.339618 299.866267 
L 188.714002 303.802994 
L 190.088387 310.89561 
L 191.462771 312.762063 
L 192.837155 304.990758 
L 194.211539 317.818614 
L 195.585924 318.531272 
L 196.960308 319.922619 
L 198.334692 320.228112 
L 199.709076 322.264178 
L 201.083461 322.128536 
L 202.457845 325.216723 
L 203.832229 327.761865 
L 205.206613 332.614832 
L 206.580998 331.834234 
L 207.955382 335.465467 
L 209.329766 337.976638 
L 210.70415 343.575997 
L 212.078534 324.91123 
L 213.452919 326.743713 
L 214.827303 324.232541 
L 216.201687 394.276672 
L 217.576071 387.014442 
L 218.950456 390.747348 
L 220.32484 392.444189 
L 221.699224 415.724371 
L 223.073608 417.285331 
L 224.447993 419.7288 
L 225.822377 354.63931 
L 227.196761 364.243098 
L 231.319914 364.141426 
L 234.068682 364.277068 
L 238.191835 364.311038 
L 239.566219 364.480651 
L 247.812525 364.582561 
L 249.186909 364.582561 
L 250.561293 324.571767 
L 251.935677 324.334214 
L 258.807599 324.062929 
L 260.181983 363.801963 
L 261.556367 363.937843 
L 264.305135 363.835933 
L 267.053904 363.326857 
L 268.428288 363.292887 
L 269.802672 362.987631 
L 272.551441 363.157244 
L 273.925825 363.157244 
L 276.674594 363.496707 
L 278.048978 363.462737 
L 279.423362 363.971813 
L 294.541589 364.073485 
L 298.664741 364.175396 
L 311.0342 364.141426 
L 313.782968 362.478555 
L 316.531736 362.648168 
L 320.654889 362.614198 
L 322.029273 361.053238 
L 323.403658 361.765897 
L 324.778042 361.867569 
L 326.152426 361.019268 
L 327.52681 360.713775 
L 330.275579 360.713775 
L 331.649963 362.207032 
L 333.024347 361.562314 
L 334.398732 357.184452 
L 335.773116 357.523915 
L 337.1475 357.082779 
L 339.896268 357.082779 
L 341.270653 356.912929 
L 342.645037 355.962717 
L 344.019421 358.677709 
L 345.393805 358.372216 
L 346.76819 358.711679 
L 349.516958 358.711679 
L 350.891342 357.048809 
L 352.265727 356.845226 
L 353.640111 357.014839 
L 355.014495 356.505763 
L 356.388879 350.770524 
L 359.137648 350.770524 
L 360.512032 350.261448 
L 361.886416 349.58276 
L 363.2608 349.854283 
L 364.635185 348.802161 
L 366.009569 353.417576 
L 370.132722 353.315666 
L 371.507106 350.668851 
L 372.88149 343.711878 
L 374.255874 340.62369 
L 375.630259 339.198373 
L 378.379027 339.198373 
L 379.753411 336.924517 
L 381.127796 334.04015 
L 382.50218 337.739086 
L 383.876564 340.386137 
L 385.250948 339.571569 
L 387.999717 339.571569 
L 389.374101 339.198373 
L 390.748485 347.376844 
L 392.122869 338.89288 
L 393.497254 335.56714 
L 397.620406 335.60111 
L 398.994791 336.958487 
L 400.369175 328.101328 
L 401.743559 338.417774 
L 403.117943 340.318197 
L 404.492328 335.974305 
L 407.241096 335.974305 
L 408.61548 334.073882 
L 409.989865 340.216525 
L 411.364249 335.70302 
L 412.738633 335.227914 
L 414.113017 335.872633 
L 416.861786 335.872633 
L 418.23617 335.126004 
L 419.610554 330.442886 
L 420.984938 332.241399 
L 422.359323 331.732323 
L 423.733707 331.427068 
L 426.482475 331.427068 
L 427.85686 329.322825 
L 429.231244 327.659954 
L 430.605628 327.252789 
L 431.980012 326.64204 
L 433.354397 326.370517 
L 436.103165 326.370517 
L 437.477549 322.976837 
L 438.851933 323.961018 
L 440.226318 274.583989 
L 441.600702 267.966478 
L 442.975086 264.301275 
L 445.723855 264.301275 
L 447.098239 259.78777 
L 448.472623 267.864568 
L 449.847007 297.151513 
L 451.221392 297.558678 
L 452.595776 298.882323 
L 455.344544 298.882323 
L 456.718929 299.832535 
L 458.093313 285.070286 
L 459.467697 298.950026 
L 460.842081 302.479349 
L 462.216466 301.80066 
L 464.965234 301.80066 
L 466.339618 300.850449 
L 467.714002 297.389066 
L 469.088387 296.77808 
L 470.462771 293.893713 
L 471.837155 295.047507 
L 474.585924 295.047507 
L 475.960308 298.814383 
L 478.709076 305.296251 
L 481.457845 310.82767 
L 484.206613 310.82767 
L 485.580998 311.065223 
L 486.955382 326.065024 
L 488.329766 322.671344 
L 491.078534 318.022196 
L 493.827303 318.022196 
L 495.201687 318.191809 
L 496.576071 305.024728 
L 497.950456 311.065223 
L 499.32484 315.952161 
L 500.699224 320.397725 
L 503.447993 320.397725 
L 504.822377 322.264178 
L 506.196761 326.60807 
L 507.571145 327.184849 
L 508.94553 329.051539 
L 510.319914 334.107852 
L 513.068682 334.107852 
L 514.443067 335.329587 
L 515.817451 333.293521 
L 517.191835 330.951962 
L 518.566219 330.205334 
L 522.689372 330.205334 
L 524.063756 332.139727 
L 525.43814 331.053635 
L 526.812525 339.435926 
L 528.186909 336.144156 
L 529.561293 329.390765 
L 532.310062 329.390765 
L 533.684446 323.961018 
L 535.05883 322.060595 
L 536.433214 315.443085 
L 537.807599 316.936342 
L 539.181983 315.714608 
L 541.930751 315.714608 
L 543.305135 313.881887 
L 544.67952 314.017767 
L 546.053904 304.888848 
L 547.428288 297.999814 
L 548.802672 292.400455 
L 551.551441 292.400455 
L 552.925825 281.812248 
L 554.300209 275.635873 
L 555.674594 274.516049 
L 558.423362 266.914357 
L 561.172131 266.914357 
L 562.546515 267.083969 
L 563.920899 262.400852 
L 565.295283 260.093263 
L 566.669667 262.909928 
L 568.044052 260.500429 
L 570.79282 260.500429 
L 572.167204 255.511818 
L 573.541589 254.086501 
L 576.290357 248.690725 
L 577.664741 250.523208 
L 580.41351 250.523208 
L 581.787894 257.548122 
L 583.162278 265.55698 
L 584.536663 275.941366 
L 587.285431 284.696853 
L 590.0342 284.696853 
L 591.408584 290.364152 
L 592.782968 293.316697 
L 594.157352 291.551916 
L 595.531736 293.011204 
L 596.906121 295.31903 
L 599.654889 295.31903 
L 601.029273 297.626619 
L 602.403658 306.144552 
L 603.778042 304.210159 
L 605.152426 307.298347 
L 606.52681 296.84602 
L 609.275579 296.84602 
L 610.649963 302.581259 
L 612.024347 299.221549 
L 613.398732 306.416075 
L 614.773116 310.82767 
L 616.1475 326.5741 
L 616.1475 326.5741 
" style="fill:none;stroke:#bb0a21;stroke-linecap:square;stroke-width:2;"/>
   </g>
   <g id="line2d_81">
    <path clip-path="url(#p70b072aa6a)" d="M 65.019421 364.582561 
L 110.374101 364.480651 
L 111.748485 364.345008 
L 115.871638 364.277068 
L 117.246022 363.66632 
L 118.620406 363.191214 
L 119.994791 362.444585 
L 121.369175 362.00345 
L 122.743559 360.815685 
L 124.117943 359.322428 
L 125.492328 358.270544 
L 126.866712 356.946899 
L 128.241096 356.23424 
L 129.61548 354.435727 
L 130.989865 349.989925 
L 132.364249 344.696059 
L 133.738633 340.080644 
L 135.113017 331.393098 
L 136.487401 323.451943 
L 137.861786 317.411448 
L 139.23617 307.298347 
L 140.610554 298.6108 
L 143.359323 266.133758 
L 146.108091 235.116241 
L 147.482475 221.948922 
L 148.85686 215.297441 
L 150.231244 191.50842 
L 151.605628 179.325283 
L 152.980012 163.714733 
L 154.354397 150.615355 
L 155.728781 147.66281 
L 157.103165 145.762387 
L 158.477549 140.502253 
L 159.851933 141.350792 
L 161.226318 146.373373 
L 162.600702 148.986455 
L 163.975086 156.079071 
L 165.34947 147.119764 
L 166.723855 154.721456 
L 168.098239 159.778007 
L 169.472623 154.891307 
L 170.847007 155.807548 
L 172.221392 167.888775 
L 173.595776 164.359452 
L 174.97016 174.268733 
L 176.344544 176.610291 
L 179.093313 193.782039 
L 180.467697 196.700614 
L 181.842081 198.329514 
L 183.216466 209.121066 
L 184.59085 216.960311 
L 185.965234 220.727425 
L 187.339618 222.424028 
L 188.714002 230.772349 
L 190.088387 234.980598 
L 191.462771 241.021093 
L 192.837155 245.093462 
L 194.211539 255.613729 
L 195.585924 256.835463 
L 196.960308 259.71983 
L 198.334692 263.452974 
L 199.709076 270.206127 
L 201.083461 273.76942 
L 202.457845 281.540963 
L 203.832229 276.925548 
L 205.206613 282.016068 
L 206.580998 283.441386 
L 209.329766 291.348333 
L 210.70415 294.063325 
L 212.078534 296.099391 
L 213.452919 302.581259 
L 214.827303 291.99329 
L 216.201687 293.418607 
L 217.576071 305.97494 
L 218.950456 302.818812 
L 220.32484 300.443283 
L 221.699224 301.020299 
L 223.073608 303.259948 
L 224.447993 314.085708 
L 225.822377 314.696456 
L 227.196761 310.658057 
L 228.571145 316.359326 
L 229.94553 323.587823 
L 231.319914 324.130631 
L 232.694298 324.504064 
L 234.068682 324.707647 
L 235.443067 326.031054 
L 236.817451 327.829805 
L 238.191835 330.884022 
L 239.566219 332.716505 
L 240.940603 337.026427 
L 242.314988 338.248161 
L 243.689372 339.164403 
L 245.063756 339.775151 
L 246.43814 342.388233 
L 247.812525 344.220954 
L 249.186909 344.526209 
L 250.561293 346.121377 
L 251.935677 347.343111 
L 253.310062 347.207231 
L 254.684446 347.750277 
L 257.433214 349.413147 
L 258.807599 348.327055 
L 260.181983 348.564608 
L 261.556367 349.61673 
L 262.930751 349.61673 
L 264.305135 349.345207 
L 265.67952 350.702584 
L 267.053904 350.363358 
L 268.428288 352.331722 
L 269.802672 353.281933 
L 271.177057 353.553219 
L 273.925825 354.299847 
L 275.300209 354.299847 
L 276.674594 355.657462 
L 278.048978 355.996687 
L 280.797746 357.014839 
L 282.172131 357.354065 
L 283.546515 357.388035 
L 284.920899 357.727498 
L 286.295283 358.779382 
L 290.418436 359.559981 
L 293.167204 359.492041 
L 294.541589 360.136997 
L 295.915973 360.442252 
L 297.290357 360.951328 
L 300.039126 360.544162 
L 301.41351 360.646072 
L 304.162278 361.019268 
L 305.536663 360.442252 
L 308.285431 361.154911 
L 313.782968 361.494374 
L 315.157352 362.173062 
L 316.531736 361.562314 
L 319.280505 362.173062 
L 320.654889 362.173062 
L 322.029273 361.596284 
L 323.403658 361.765897 
L 324.778042 361.562314 
L 330.275579 361.596284 
L 331.649963 362.105122 
L 334.398732 362.241003 
L 337.1475 362.953661 
L 338.521884 362.444585 
L 344.019421 362.241003 
L 346.76819 361.799867 
L 349.516958 362.173062 
L 350.891342 362.207032 
L 352.265727 362.648168 
L 353.640111 362.885721 
L 357.763264 362.784048 
L 360.512032 362.750078 
L 361.886416 361.765897 
L 367.383953 362.07139 
L 370.132722 361.765897 
L 371.507106 361.93551 
L 372.88149 361.528344 
L 374.255874 361.290791 
L 377.004643 359.967146 
L 378.379027 359.526011 
L 379.753411 359.458308 
L 381.127796 359.118845 
L 383.876564 357.897111 
L 386.625333 357.388035 
L 389.374101 357.354065 
L 392.122869 355.012506 
L 393.497254 354.367787 
L 394.871638 353.281933 
L 397.620406 352.263781 
L 400.369175 351.924318 
L 401.743559 351.958288 
L 404.492328 350.634881 
L 408.61548 347.410814 
L 412.738633 340.793303 
L 414.113017 339.130433 
L 415.487401 336.788874 
L 416.861786 336.720934 
L 418.23617 335.70302 
L 419.610554 332.37728 
L 422.359323 328.813986 
L 423.733707 325.827471 
L 425.108091 325.01314 
L 426.482475 322.162506 
L 427.85686 321.415877 
L 430.605628 313.101526 
L 431.980012 310.013339 
L 433.354397 308.316498 
L 434.728781 303.158275 
L 436.103165 302.784842 
L 438.851933 300.612896 
L 440.226318 294.436521 
L 441.600702 291.110781 
L 444.34947 285.409511 
L 445.723855 285.613094 
L 447.098239 283.610999 
L 448.472623 279.029554 
L 449.847007 275.50023 
L 451.221392 269.221945 
L 452.595776 268.509287 
L 453.97016 266.846417 
L 455.344544 266.439251 
L 456.718929 265.794532 
L 458.093313 263.520676 
L 460.842081 267.864568 
L 462.216466 263.283123 
L 463.59085 267.423433 
L 464.965234 259.584187 
L 466.339618 259.82174 
L 467.714002 259.516247 
L 469.088387 253.882918 
L 470.462771 254.018561 
L 471.837155 253.713305 
L 473.211539 248.996218 
L 474.585924 255.240295 
L 477.334692 255.545788 
L 478.709076 257.140718 
L 480.083461 259.991353 
L 481.457845 260.534399 
L 482.832229 263.317093 
L 484.206613 262.774285 
L 485.580998 263.249391 
L 486.955382 263.385034 
L 488.329766 267.28779 
L 489.70415 263.826169 
L 491.078534 266.541161 
L 492.452919 262.366882 
L 493.827303 265.319427 
L 495.201687 263.826169 
L 496.576071 266.982297 
L 497.950456 264.301275 
L 499.32484 263.758229 
L 500.699224 261.518581 
L 502.073608 260.941565 
L 503.447993 254.76519 
L 504.822377 255.376176 
L 506.196761 249.097891 
L 507.571145 244.482713 
L 508.94553 243.023426 
L 510.319914 240.308434 
L 511.694298 251.371747 
L 513.068682 250.659088 
L 514.443067 245.84009 
L 515.817451 253.747276 
L 517.191835 245.80612 
L 518.566219 232.571099 
L 519.940603 231.043871 
L 521.314988 223.102954 
L 522.689372 219.43775 
L 524.063756 217.639237 
L 525.43814 203.284154 
L 526.812525 201.248089 
L 528.186909 194.562638 
L 529.561293 170.196364 
L 530.935677 150.174219 
L 533.684446 142.334974 
L 535.05883 129.948254 
L 536.433214 112.097818 
L 537.807599 109.00963 
L 539.181983 110.63853 
L 540.556367 101.679461 
L 541.930751 97.776705 
L 543.305135 95.299503 
L 544.67952 82.878813 
L 546.053904 74.123327 
L 547.428288 72.664039 
L 548.802672 68.727313 
L 550.177057 66.9288 
L 551.551441 69.338299 
L 552.925825 69.609822 
L 554.300209 68.795253 
L 555.674594 72.188933 
L 557.048978 74.123327 
L 559.797746 84.30413 
L 561.172131 85.016789 
L 563.920899 97.641062 
L 565.295283 111.351189 
L 566.669667 122.346562 
L 568.044052 130.253509 
L 569.418436 143.047632 
L 570.79282 150.309862 
L 572.167204 152.821033 
L 573.541589 166.361547 
L 574.915973 177.221277 
L 576.290357 185.196165 
L 577.664741 193.883949 
L 579.039126 200.908626 
L 580.41351 204.879084 
L 581.787894 208.204825 
L 585.911047 233.38543 
L 587.285431 241.055063 
L 588.659815 246.993885 
L 590.0342 248.419202 
L 591.408584 250.353595 
L 592.782968 258.871529 
L 594.157352 268.88272 
L 595.531736 273.328284 
L 596.906121 279.708242 
L 598.280505 284.968376 
L 601.029273 289.956986 
L 602.403658 296.91396 
L 603.778042 295.420703 
L 605.152426 298.203397 
L 606.52681 301.90257 
L 607.901195 306.382105 
L 609.275579 308.486111 
L 610.649963 309.809756 
L 612.024347 313.610602 
L 613.398732 323.689496 
L 616.1475 327.795835 
L 616.1475 327.795835 
" style="fill:none;stroke:#4b88a2;stroke-linecap:square;stroke-width:2;"/>
   </g>
   <g id="line2d_82">
    <path clip-path="url(#p70b072aa6a)" d="M 113.122869 364.582561 
L 125.492328 364.480651 
L 128.241096 364.412949 
L 130.989865 364.345008 
L 133.738633 364.277068 
L 135.113017 364.311038 
L 140.610554 363.801963 
L 141.984938 363.59838 
L 143.359323 363.021601 
L 146.108091 362.648168 
L 147.482475 362.376645 
L 148.85686 362.274973 
L 151.605628 361.765897 
L 152.980012 361.765897 
L 154.354397 360.917358 
L 157.103165 360.849655 
L 158.477549 360.37455 
L 159.851933 360.40852 
L 161.226318 360.069057 
L 162.600702 359.967146 
L 163.975086 360.136997 
L 166.723855 357.557885 
L 172.221392 354.469698 
L 173.595776 353.247963 
L 174.97016 352.636977 
L 176.344544 353.451546 
L 177.718929 353.146053 
L 179.093313 352.026229 
L 180.467697 350.566941 
L 181.842081 348.327055 
L 184.59085 347.614396 
L 185.965234 345.646271 
L 187.339618 345.510391 
L 188.714002 344.560179 
L 190.088387 344.560179 
L 191.462771 345.035285 
L 192.837155 344.560179 
L 194.211539 343.745848 
L 195.585924 344.119043 
L 196.960308 343.643938 
L 198.334692 343.779818 
L 199.709076 342.999219 
L 201.083461 342.863339 
L 202.457845 341.573902 
L 203.832229 340.52178 
L 205.206613 338.82494 
L 206.580998 336.483381 
L 207.955382 335.499199 
L 209.329766 335.56714 
L 210.70415 334.684868 
L 212.078534 335.66905 
L 213.452919 335.736752 
L 214.827303 337.16207 
L 217.576071 334.922421 
L 218.950456 332.037816 
L 220.32484 332.309339 
L 221.699224 331.121575 
L 223.073608 330.714409 
L 224.447993 328.949629 
L 225.822377 330.476856 
L 227.196761 331.359128 
L 228.571145 333.666717 
L 229.94553 332.954058 
L 232.694298 333.021998 
L 234.068682 332.037816 
L 235.443067 332.784445 
L 238.191835 330.340976 
L 239.566219 328.712076 
L 240.940603 333.157641 
L 242.314988 330.408916 
L 243.689372 323.078747 
L 245.063756 320.838861 
L 246.43814 319.854679 
L 247.812525 318.632945 
L 249.186909 317.988226 
L 250.561293 311.235073 
L 251.935677 311.879792 
L 253.310062 318.531272 
L 254.684446 318.327689 
L 256.05883 318.836765 
L 257.433214 319.481484 
L 258.807599 320.465665 
L 260.181983 321.178324 
L 262.930751 321.415877 
L 264.305135 321.110384 
L 265.67952 321.381907 
L 267.053904 321.347937 
L 268.428288 321.008474 
L 269.802672 320.906801 
L 271.177057 321.246027 
L 273.925825 321.55152 
L 275.300209 321.313967 
L 278.048978 321.51755 
L 279.423362 321.347937 
L 280.797746 321.483579 
L 282.172131 321.110384 
L 283.546515 321.076414 
L 284.920899 321.246027 
L 286.295283 321.008474 
L 287.669667 320.431695 
L 289.044052 320.499635 
L 290.418436 319.922619 
L 291.79282 319.888649 
L 293.167204 319.447514 
L 294.541589 318.768825 
L 295.915973 318.768825 
L 297.290357 193.578456 
L 298.664741 193.408843 
L 301.41351 206.575925 
L 302.787894 193.748069 
L 304.162278 193.782039 
L 305.536663 193.238993 
L 306.911047 325.148783 
L 308.285431 324.605737 
L 309.659815 324.605737 
L 311.0342 304.481682 
L 312.408584 317.309538 
L 313.782968 317.241598 
L 315.157352 316.664819 
L 316.531736 310.013339 
L 317.906121 309.33465 
L 319.280505 309.33465 
L 320.654889 315.103622 
L 322.029273 314.866069 
L 323.403658 313.881887 
L 324.778042 321.381907 
L 326.152426 320.838861 
L 327.52681 187.877187 
L 328.901195 187.877187 
L 330.275579 194.800191 
L 331.649963 194.732251 
L 333.024347 195.580552 
L 334.398732 189.574027 
L 335.773116 190.795762 
L 337.1475 324.605737 
L 338.521884 317.44518 
L 339.896268 317.818614 
L 341.270653 317.682733 
L 342.645037 319.379574 
L 344.019421 319.006378 
L 345.393805 320.804891 
L 346.76819 322.400058 
L 348.142574 322.976837 
L 349.516958 325.420306 
L 350.891342 326.404487 
L 352.265727 326.200905 
L 353.640111 328.372613 
L 355.014495 332.546892 
L 356.388879 326.302577 
L 357.763264 327.829805 
L 359.137648 327.931477 
L 360.512032 328.949629 
L 361.886416 329.560377 
L 363.2608 328.780016 
L 364.635185 324.9452 
L 366.009569 332.716505 
L 367.383953 333.497104 
L 368.758337 336.110185 
L 370.132722 334.990361 
L 372.88149 337.29795 
L 374.255874 336.924517 
L 375.630259 337.36589 
L 377.004643 336.992457 
L 378.379027 335.974305 
L 379.753411 342.21862 
L 381.127796 345.680241 
L 382.50218 342.829606 
L 383.876564 336.788874 
L 385.250948 334.345405 
L 386.625333 338.99479 
L 387.999717 338.349834 
L 389.374101 334.277703 
L 390.748485 332.173459 
L 392.122869 336.483381 
L 393.497254 344.458506 
L 394.871638 347.682337 
L 396.246022 345.171165 
L 397.620406 348.734458 
L 398.994791 348.293323 
L 400.369175 347.275171 
L 401.743559 347.003648 
L 403.117943 346.053436 
L 404.492328 345.476421 
L 405.866712 343.745848 
L 407.241096 340.962916 
L 408.61548 343.711878 
L 409.989865 344.730029 
L 411.364249 347.444784 
L 412.738633 345.306808 
L 414.113017 348.327055 
L 415.487401 350.159776 
L 416.861786 351.109987 
L 418.23617 350.940137 
L 419.610554 350.974107 
L 420.984938 349.107654 
L 422.359323 350.770524 
L 423.733707 350.770524 
L 425.108091 351.517153 
L 426.482475 349.413147 
L 427.85686 351.34754 
L 429.231244 351.788676 
L 430.605628 351.619063 
L 431.980012 353.349636 
L 433.354397 351.754706 
L 434.728781 351.754706 
L 436.103165 353.485516 
L 437.477549 353.485516 
L 438.851933 355.114416 
L 440.226318 350.532971 
L 441.600702 350.499001 
L 442.975086 352.094169 
L 444.34947 351.958288 
L 445.723855 352.87453 
L 447.098239 350.906404 
L 448.472623 348.734458 
L 449.847007 353.689099 
L 451.221392 354.367787 
L 452.595776 353.146053 
L 453.97016 353.621159 
L 455.344544 352.501334 
L 456.718929 352.636977 
L 458.093313 353.451546 
L 459.467697 353.553219 
L 460.842081 354.876863 
L 462.216466 351.720736 
L 463.59085 349.54879 
L 464.965234 351.958288 
L 466.339618 352.229811 
L 467.714002 352.026229 
L 470.462771 352.094169 
L 471.837155 353.078113 
L 473.211539 353.383606 
L 474.585924 351.890348 
L 475.960308 353.451546 
L 477.334692 353.553219 
L 478.709076 355.046476 
L 480.083461 351.31357 
L 481.457845 354.70725 
L 482.832229 353.858712 
L 484.206613 354.130234 
L 485.580998 352.670947 
L 486.955382 354.130234 
L 488.329766 349.820313 
L 489.70415 350.227478 
L 491.078534 350.227478 
L 492.452919 352.738887 
L 493.827303 353.960622 
L 495.201687 350.906404 
L 496.576071 348.293323 
L 497.950456 352.603007 
L 499.32484 352.399424 
L 500.699224 352.399424 
L 502.073608 353.926652 
L 503.447993 347.95386 
L 504.822377 350.125806 
L 506.196761 350.363358 
L 507.571145 348.836131 
L 508.94553 352.365454 
L 510.319914 349.005981 
L 511.694298 347.275171 
L 513.068682 353.247963 
L 514.443067 351.992259 
L 515.817451 352.636977 
L 517.191835 352.501334 
L 518.566219 348.904071 
L 519.940603 352.263781 
L 521.314988 353.994592 
L 522.689372 350.838464 
L 525.43814 354.232145 
L 526.812525 352.670947 
L 528.186909 356.26821 
L 529.561293 352.060199 
L 530.935677 352.060199 
L 532.310062 355.216089 
L 533.684446 349.311237 
L 535.05883 347.444784 
L 536.433214 348.496905 
L 537.807599 348.496905 
L 539.181983 344.051103 
L 540.556367 344.051103 
L 541.930751 340.114614 
L 543.305135 347.95386 
L 544.67952 349.820313 
L 546.053904 342.693726 
L 547.428288 342.693726 
L 548.802672 343.542265 
L 550.177057 343.542265 
L 551.551441 336.144156 
L 552.925825 336.144156 
L 554.300209 319.209961 
L 555.674594 328.508493 
L 557.048978 322.908897 
L 558.423362 323.519883 
L 559.797746 310.86164 
L 561.172131 316.461236 
L 562.546515 316.461236 
L 563.920899 328.13506 
L 565.295283 316.019863 
L 566.669667 321.61946 
L 568.044052 321.51755 
L 569.418436 328.067358 
L 570.79282 321.076414 
L 572.167204 321.076414 
L 573.541589 315.544757 
L 574.915973 327.659954 
L 576.290357 313.440752 
L 577.664741 320.737188 
L 579.039126 319.719037 
L 580.41351 317.241598 
L 581.787894 311.235073 
L 583.162278 322.026625 
L 584.536663 316.053833 
L 585.911047 321.721132 
L 587.285431 315.578727 
L 588.659815 315.88422 
L 590.0342 317.275568 
L 591.408584 323.28233 
L 592.782968 317.649001 
L 594.157352 316.019863 
L 595.531736 317.920286 
L 596.906121 310.115011 
L 598.280505 309.979368 
L 599.654889 323.791406 
L 601.029273 317.173895 
L 602.403658 309.23274 
L 603.778042 316.834432 
L 605.152426 316.868402 
L 606.52681 323.451943 
L 607.901195 324.130631 
L 609.275579 317.682733 
L 610.649963 318.429362 
L 612.024347 321.51755 
L 613.398732 321.51755 
L 614.773116 322.705314 
L 616.1475 324.605737 
L 616.1475 324.605737 
" style="fill:none;stroke:#d3d4d9;stroke-linecap:square;stroke-width:2;"/>
   </g>
   <g id="patch_3">
    <path d="M 58.1475 437.3688 
L 58.1475 49.2888 
" style="fill:none;stroke:#000000;stroke-linecap:square;stroke-linejoin:miter;stroke-width:0.8;"/>
   </g>
   <g id="patch_4">
    <path d="M 616.1475 437.3688 
L 616.1475 49.2888 
" style="fill:none;stroke:#000000;stroke-linecap:square;stroke-linejoin:miter;stroke-width:0.8;"/>
   </g>
   <g id="patch_5">
    <path d="M 58.1475 437.3688 
L 616.1475 437.3688 
" style="fill:none;stroke:#000000;stroke-linecap:square;stroke-linejoin:miter;stroke-width:0.8;"/>
   </g>
   <g id="patch_6">
    <path d="M 58.1475 49.2888 
L 616.1475 49.2888 
" style="fill:none;stroke:#000000;stroke-linecap:square;stroke-linejoin:miter;stroke-width:0.8;"/>
   </g>
   <g id="text_24">
    <!-- Latest update:  -->
    <g style="fill:#252627;" transform="translate(40.1475 491.690987)scale(0.1 -0.1)">
     <defs>
      <path d="M 9.8125 72.90625 
L 19.671875 72.90625 
L 19.671875 8.296875 
L 55.171875 8.296875 
L 55.171875 0 
L 9.8125 0 
z
" id="DejaVuSans-76"/>
      <path d="M 44.28125 53.078125 
L 44.28125 44.578125 
Q 40.484375 46.53125 36.375 47.5 
Q 32.28125 48.484375 27.875 48.484375 
Q 21.1875 48.484375 17.84375 46.4375 
Q 14.5 44.390625 14.5 40.28125 
Q 14.5 37.15625 16.890625 35.375 
Q 19.28125 33.59375 26.515625 31.984375 
L 29.59375 31.296875 
Q 39.15625 29.25 43.1875 25.515625 
Q 47.21875 21.78125 47.21875 15.09375 
Q 47.21875 7.46875 41.1875 3.015625 
Q 35.15625 -1.421875 24.609375 -1.421875 
Q 20.21875 -1.421875 15.453125 -0.5625 
Q 10.6875 0.296875 5.421875 2 
L 5.421875 11.28125 
Q 10.40625 8.6875 15.234375 7.390625 
Q 20.0625 6.109375 24.8125 6.109375 
Q 31.15625 6.109375 34.5625 8.28125 
Q 37.984375 10.453125 37.984375 14.40625 
Q 37.984375 18.0625 35.515625 20.015625 
Q 33.0625 21.96875 24.703125 23.78125 
L 21.578125 24.515625 
Q 13.234375 26.265625 9.515625 29.90625 
Q 5.8125 33.546875 5.8125 39.890625 
Q 5.8125 47.609375 11.28125 51.796875 
Q 16.75 56 26.8125 56 
Q 31.78125 56 36.171875 55.265625 
Q 40.578125 54.546875 44.28125 53.078125 
z
" id="DejaVuSans-115"/>
      <path id="DejaVuSans-32"/>
      <path d="M 11.71875 12.40625 
L 22.015625 12.40625 
L 22.015625 0 
L 11.71875 0 
z
M 11.71875 51.703125 
L 22.015625 51.703125 
L 22.015625 39.3125 
L 11.71875 39.3125 
z
" id="DejaVuSans-58"/>
     </defs>
     <use xlink:href="#DejaVuSans-76"/>
     <use x="55.712891" xlink:href="#DejaVuSans-97"/>
     <use x="116.992188" xlink:href="#DejaVuSans-116"/>
     <use x="156.201172" xlink:href="#DejaVuSans-101"/>
     <use x="217.724609" xlink:href="#DejaVuSans-115"/>
     <use x="269.824219" xlink:href="#DejaVuSans-116"/>
     <use x="309.033203" xlink:href="#DejaVuSans-32"/>
     <use x="340.820312" xlink:href="#DejaVuSans-117"/>
     <use x="404.199219" xlink:href="#DejaVuSans-112"/>
     <use x="467.675781" xlink:href="#DejaVuSans-100"/>
     <use x="531.152344" xlink:href="#DejaVuSans-97"/>
     <use x="592.431641" xlink:href="#DejaVuSans-116"/>
     <use x="631.640625" xlink:href="#DejaVuSans-101"/>
     <use x="693.164062" xlink:href="#DejaVuSans-58"/>
     <use x="726.855469" xlink:href="#DejaVuSans-32"/>
    </g>
    <!-- 13-3-2021 -->
    <g style="fill:#252627;" transform="translate(40.1475 502.8888)scale(0.1 -0.1)">
     <defs>
      <path d="M 40.578125 39.3125 
Q 47.65625 37.796875 51.625 33 
Q 55.609375 28.21875 55.609375 21.1875 
Q 55.609375 10.40625 48.1875 4.484375 
Q 40.765625 -1.421875 27.09375 -1.421875 
Q 22.515625 -1.421875 17.65625 -0.515625 
Q 12.796875 0.390625 7.625 2.203125 
L 7.625 11.71875 
Q 11.71875 9.328125 16.59375 8.109375 
Q 21.484375 6.890625 26.8125 6.890625 
Q 36.078125 6.890625 40.9375 10.546875 
Q 45.796875 14.203125 45.796875 21.1875 
Q 45.796875 27.640625 41.28125 31.265625 
Q 36.765625 34.90625 28.71875 34.90625 
L 20.21875 34.90625 
L 20.21875 43.015625 
L 29.109375 43.015625 
Q 36.375 43.015625 40.234375 45.921875 
Q 44.09375 48.828125 44.09375 54.296875 
Q 44.09375 59.90625 40.109375 62.90625 
Q 36.140625 65.921875 28.71875 65.921875 
Q 24.65625 65.921875 20.015625 65.03125 
Q 15.375 64.15625 9.8125 62.3125 
L 9.8125 71.09375 
Q 15.4375 72.65625 20.34375 73.4375 
Q 25.25 74.21875 29.59375 74.21875 
Q 40.828125 74.21875 47.359375 69.109375 
Q 53.90625 64.015625 53.90625 55.328125 
Q 53.90625 49.265625 50.4375 45.09375 
Q 46.96875 40.921875 40.578125 39.3125 
z
" id="DejaVuSans-51"/>
      <path d="M 4.890625 31.390625 
L 31.203125 31.390625 
L 31.203125 23.390625 
L 4.890625 23.390625 
z
" id="DejaVuSans-45"/>
     </defs>
     <use xlink:href="#DejaVuSans-49"/>
     <use x="63.623047" xlink:href="#DejaVuSans-51"/>
     <use x="127.246094" xlink:href="#DejaVuSans-45"/>
     <use x="163.330078" xlink:href="#DejaVuSans-51"/>
     <use x="226.953125" xlink:href="#DejaVuSans-45"/>
     <use x="263.037109" xlink:href="#DejaVuSans-50"/>
     <use x="326.660156" xlink:href="#DejaVuSans-48"/>
     <use x="390.283203" xlink:href="#DejaVuSans-50"/>
     <use x="453.90625" xlink:href="#DejaVuSans-49"/>
    </g>
   </g>
   <g id="text_25">
    <!-- Note: Negative deaths numbers can come from country data corrections -->
    <g style="fill:#252627;" transform="translate(40.1475 512.9688)scale(0.08 -0.08)">
     <defs>
      <path d="M 9.421875 54.6875 
L 18.40625 54.6875 
L 18.40625 0 
L 9.421875 0 
z
M 9.421875 75.984375 
L 18.40625 75.984375 
L 18.40625 64.59375 
L 9.421875 64.59375 
z
" id="DejaVuSans-105"/>
      <path d="M 54.890625 33.015625 
L 54.890625 0 
L 45.90625 0 
L 45.90625 32.71875 
Q 45.90625 40.484375 42.875 44.328125 
Q 39.84375 48.1875 33.796875 48.1875 
Q 26.515625 48.1875 22.3125 43.546875 
Q 18.109375 38.921875 18.109375 30.90625 
L 18.109375 0 
L 9.078125 0 
L 9.078125 75.984375 
L 18.109375 75.984375 
L 18.109375 46.1875 
Q 21.34375 51.125 25.703125 53.5625 
Q 30.078125 56 35.796875 56 
Q 45.21875 56 50.046875 50.171875 
Q 54.890625 44.34375 54.890625 33.015625 
z
" id="DejaVuSans-104"/>
      <path d="M 52 44.1875 
Q 55.375 50.25 60.0625 53.125 
Q 64.75 56 71.09375 56 
Q 79.640625 56 84.28125 50.015625 
Q 88.921875 44.046875 88.921875 33.015625 
L 88.921875 0 
L 79.890625 0 
L 79.890625 32.71875 
Q 79.890625 40.578125 77.09375 44.375 
Q 74.3125 48.1875 68.609375 48.1875 
Q 61.625 48.1875 57.5625 43.546875 
Q 53.515625 38.921875 53.515625 30.90625 
L 53.515625 0 
L 44.484375 0 
L 44.484375 32.71875 
Q 44.484375 40.625 41.703125 44.40625 
Q 38.921875 48.1875 33.109375 48.1875 
Q 26.21875 48.1875 22.15625 43.53125 
Q 18.109375 38.875 18.109375 30.90625 
L 18.109375 0 
L 9.078125 0 
L 9.078125 54.6875 
L 18.109375 54.6875 
L 18.109375 46.1875 
Q 21.1875 51.21875 25.484375 53.609375 
Q 29.78125 56 35.6875 56 
Q 41.65625 56 45.828125 52.96875 
Q 50 49.953125 52 44.1875 
z
" id="DejaVuSans-109"/>
      <path d="M 37.109375 75.984375 
L 37.109375 68.5 
L 28.515625 68.5 
Q 23.6875 68.5 21.796875 66.546875 
Q 19.921875 64.59375 19.921875 59.515625 
L 19.921875 54.6875 
L 34.71875 54.6875 
L 34.71875 47.703125 
L 19.921875 47.703125 
L 19.921875 0 
L 10.890625 0 
L 10.890625 47.703125 
L 2.296875 47.703125 
L 2.296875 54.6875 
L 10.890625 54.6875 
L 10.890625 58.5 
Q 10.890625 67.625 15.140625 71.796875 
Q 19.390625 75.984375 28.609375 75.984375 
z
" id="DejaVuSans-102"/>
     </defs>
     <use xlink:href="#DejaVuSans-78"/>
     <use x="74.804688" xlink:href="#DejaVuSans-111"/>
     <use x="135.986328" xlink:href="#DejaVuSans-116"/>
     <use x="175.195312" xlink:href="#DejaVuSans-101"/>
     <use x="236.71875" xlink:href="#DejaVuSans-58"/>
     <use x="270.410156" xlink:href="#DejaVuSans-32"/>
     <use x="302.197266" xlink:href="#DejaVuSans-78"/>
     <use x="377.001953" xlink:href="#DejaVuSans-101"/>
     <use x="438.525391" xlink:href="#DejaVuSans-103"/>
     <use x="502.001953" xlink:href="#DejaVuSans-97"/>
     <use x="563.28125" xlink:href="#DejaVuSans-116"/>
     <use x="602.490234" xlink:href="#DejaVuSans-105"/>
     <use x="630.273438" xlink:href="#DejaVuSans-118"/>
     <use x="689.453125" xlink:href="#DejaVuSans-101"/>
     <use x="750.976562" xlink:href="#DejaVuSans-32"/>
     <use x="782.763672" xlink:href="#DejaVuSans-100"/>
     <use x="846.240234" xlink:href="#DejaVuSans-101"/>
     <use x="907.763672" xlink:href="#DejaVuSans-97"/>
     <use x="969.042969" xlink:href="#DejaVuSans-116"/>
     <use x="1008.251953" xlink:href="#DejaVuSans-104"/>
     <use x="1071.630859" xlink:href="#DejaVuSans-115"/>
     <use x="1123.730469" xlink:href="#DejaVuSans-32"/>
     <use x="1155.517578" xlink:href="#DejaVuSans-110"/>
     <use x="1218.896484" xlink:href="#DejaVuSans-117"/>
     <use x="1282.275391" xlink:href="#DejaVuSans-109"/>
     <use x="1379.6875" xlink:href="#DejaVuSans-98"/>
     <use x="1443.164062" xlink:href="#DejaVuSans-101"/>
     <use x="1504.6875" xlink:href="#DejaVuSans-114"/>
     <use x="1545.800781" xlink:href="#DejaVuSans-115"/>
     <use x="1597.900391" xlink:href="#DejaVuSans-32"/>
     <use x="1629.6875" xlink:href="#DejaVuSans-99"/>
     <use x="1684.667969" xlink:href="#DejaVuSans-97"/>
     <use x="1745.947266" xlink:href="#DejaVuSans-110"/>
     <use x="1809.326172" xlink:href="#DejaVuSans-32"/>
     <use x="1841.113281" xlink:href="#DejaVuSans-99"/>
     <use x="1896.09375" xlink:href="#DejaVuSans-111"/>
     <use x="1957.275391" xlink:href="#DejaVuSans-109"/>
     <use x="2054.6875" xlink:href="#DejaVuSans-101"/>
     <use x="2116.210938" xlink:href="#DejaVuSans-32"/>
     <use x="2147.998047" xlink:href="#DejaVuSans-102"/>
     <use x="2183.203125" xlink:href="#DejaVuSans-114"/>
     <use x="2222.066406" xlink:href="#DejaVuSans-111"/>
     <use x="2283.248047" xlink:href="#DejaVuSans-109"/>
     <use x="2380.660156" xlink:href="#DejaVuSans-32"/>
     <use x="2412.447266" xlink:href="#DejaVuSans-99"/>
     <use x="2467.427734" xlink:href="#DejaVuSans-111"/>
     <use x="2528.609375" xlink:href="#DejaVuSans-117"/>
     <use x="2591.988281" xlink:href="#DejaVuSans-110"/>
     <use x="2655.367188" xlink:href="#DejaVuSans-116"/>
     <use x="2694.576172" xlink:href="#DejaVuSans-114"/>
     <use x="2735.689453" xlink:href="#DejaVuSans-121"/>
     <use x="2794.869141" xlink:href="#DejaVuSans-32"/>
     <use x="2826.65625" xlink:href="#DejaVuSans-100"/>
     <use x="2890.132812" xlink:href="#DejaVuSans-97"/>
     <use x="2951.412109" xlink:href="#DejaVuSans-116"/>
     <use x="2990.621094" xlink:href="#DejaVuSans-97"/>
     <use x="3051.900391" xlink:href="#DejaVuSans-32"/>
     <use x="3083.6875" xlink:href="#DejaVuSans-99"/>
     <use x="3138.667969" xlink:href="#DejaVuSans-111"/>
     <use x="3199.849609" xlink:href="#DejaVuSans-114"/>
     <use x="3239.212891" xlink:href="#DejaVuSans-114"/>
     <use x="3278.076172" xlink:href="#DejaVuSans-101"/>
     <use x="3339.599609" xlink:href="#DejaVuSans-99"/>
     <use x="3394.580078" xlink:href="#DejaVuSans-116"/>
     <use x="3433.789062" xlink:href="#DejaVuSans-105"/>
     <use x="3461.572266" xlink:href="#DejaVuSans-111"/>
     <use x="3522.753906" xlink:href="#DejaVuSans-110"/>
     <use x="3586.132812" xlink:href="#DejaVuSans-115"/>
    </g>
   </g>
   <g id="text_26">
    <!-- Daily deaths - Since beginning -->
    <g style="fill:#252627;" transform="translate(190.6485 21.789)scale(0.192 -0.192)">
     <use xlink:href="#DejaVuSans-68"/>
     <use x="77.001953" xlink:href="#DejaVuSans-97"/>
     <use x="138.28125" xlink:href="#DejaVuSans-105"/>
     <use x="166.064453" xlink:href="#DejaVuSans-108"/>
     <use x="193.847656" xlink:href="#DejaVuSans-121"/>
     <use x="253.027344" xlink:href="#DejaVuSans-32"/>
     <use x="284.814453" xlink:href="#DejaVuSans-100"/>
     <use x="348.291016" xlink:href="#DejaVuSans-101"/>
     <use x="409.814453" xlink:href="#DejaVuSans-97"/>
     <use x="471.09375" xlink:href="#DejaVuSans-116"/>
     <use x="510.302734" xlink:href="#DejaVuSans-104"/>
     <use x="573.681641" xlink:href="#DejaVuSans-115"/>
     <use x="625.78125" xlink:href="#DejaVuSans-32"/>
     <use x="657.568359" xlink:href="#DejaVuSans-45"/>
     <use x="693.652344" xlink:href="#DejaVuSans-32"/>
     <use x="725.439453" xlink:href="#DejaVuSans-83"/>
     <use x="788.916016" xlink:href="#DejaVuSans-105"/>
     <use x="816.699219" xlink:href="#DejaVuSans-110"/>
     <use x="880.078125" xlink:href="#DejaVuSans-99"/>
     <use x="935.058594" xlink:href="#DejaVuSans-101"/>
     <use x="996.582031" xlink:href="#DejaVuSans-32"/>
     <use x="1028.369141" xlink:href="#DejaVuSans-98"/>
     <use x="1091.845703" xlink:href="#DejaVuSans-101"/>
     <use x="1153.369141" xlink:href="#DejaVuSans-103"/>
     <use x="1216.845703" xlink:href="#DejaVuSans-105"/>
     <use x="1244.628906" xlink:href="#DejaVuSans-110"/>
     <use x="1308.007812" xlink:href="#DejaVuSans-110"/>
     <use x="1371.386719" xlink:href="#DejaVuSans-105"/>
     <use x="1399.169922" xlink:href="#DejaVuSans-110"/>
     <use x="1462.548828" xlink:href="#DejaVuSans-103"/>
    </g>
    <!-- 7-day rolling average -->
    <g style="fill:#252627;" transform="translate(234.7275 43.2888)scale(0.192 -0.192)">
     <defs>
      <path d="M 8.203125 72.90625 
L 55.078125 72.90625 
L 55.078125 68.703125 
L 28.609375 0 
L 18.3125 0 
L 43.21875 64.59375 
L 8.203125 64.59375 
z
" id="DejaVuSans-55"/>
     </defs>
     <use xlink:href="#DejaVuSans-55"/>
     <use x="63.623047" xlink:href="#DejaVuSans-45"/>
     <use x="99.707031" xlink:href="#DejaVuSans-100"/>
     <use x="163.183594" xlink:href="#DejaVuSans-97"/>
     <use x="224.462891" xlink:href="#DejaVuSans-121"/>
     <use x="283.642578" xlink:href="#DejaVuSans-32"/>
     <use x="315.429688" xlink:href="#DejaVuSans-114"/>
     <use x="354.292969" xlink:href="#DejaVuSans-111"/>
     <use x="415.474609" xlink:href="#DejaVuSans-108"/>
     <use x="443.257812" xlink:href="#DejaVuSans-108"/>
     <use x="471.041016" xlink:href="#DejaVuSans-105"/>
     <use x="498.824219" xlink:href="#DejaVuSans-110"/>
     <use x="562.203125" xlink:href="#DejaVuSans-103"/>
     <use x="625.679688" xlink:href="#DejaVuSans-32"/>
     <use x="657.466797" xlink:href="#DejaVuSans-97"/>
     <use x="718.746094" xlink:href="#DejaVuSans-118"/>
     <use x="777.925781" xlink:href="#DejaVuSans-101"/>
     <use x="839.449219" xlink:href="#DejaVuSans-114"/>
     <use x="880.5625" xlink:href="#DejaVuSans-97"/>
     <use x="941.841797" xlink:href="#DejaVuSans-103"/>
     <use x="1005.318359" xlink:href="#DejaVuSans-101"/>
    </g>
   </g>
   <g id="legend_1">
    <g id="patch_7">
     <path d="M 69.3475 132.5438 
L 155.04 132.5438 
Q 158.24 132.5438 158.24 129.3438 
L 158.24 60.4888 
Q 158.24 57.2888 155.04 57.2888 
L 69.3475 57.2888 
Q 66.1475 57.2888 66.1475 60.4888 
L 66.1475 129.3438 
Q 66.1475 132.5438 69.3475 132.5438 
z
" style="fill:#ffffff;opacity:0.2;stroke:#cccccc;stroke-linejoin:miter;"/>
    </g>
    <g id="line2d_83">
     <path d="M 72.5475 70.2463 
L 104.5475 70.2463 
" style="fill:none;stroke:#bb0a21;stroke-linecap:square;stroke-width:2;"/>
    </g>
    <g id="line2d_84"/>
    <g id="text_27">
     <!-- ESP -->
     <g style="fill:#252627;" transform="translate(117.3475 75.8463)scale(0.16 -0.16)">
      <defs>
       <path d="M 9.8125 72.90625 
L 55.90625 72.90625 
L 55.90625 64.59375 
L 19.671875 64.59375 
L 19.671875 43.015625 
L 54.390625 43.015625 
L 54.390625 34.71875 
L 19.671875 34.71875 
L 19.671875 8.296875 
L 56.78125 8.296875 
L 56.78125 0 
L 9.8125 0 
z
" id="DejaVuSans-69"/>
       <path d="M 19.671875 64.796875 
L 19.671875 37.40625 
L 32.078125 37.40625 
Q 38.96875 37.40625 42.71875 40.96875 
Q 46.484375 44.53125 46.484375 51.125 
Q 46.484375 57.671875 42.71875 61.234375 
Q 38.96875 64.796875 32.078125 64.796875 
z
M 9.8125 72.90625 
L 32.078125 72.90625 
Q 44.34375 72.90625 50.609375 67.359375 
Q 56.890625 61.8125 56.890625 51.125 
Q 56.890625 40.328125 50.609375 34.8125 
Q 44.34375 29.296875 32.078125 29.296875 
L 19.671875 29.296875 
L 19.671875 0 
L 9.8125 0 
z
" id="DejaVuSans-80"/>
      </defs>
      <use xlink:href="#DejaVuSans-69"/>
      <use x="63.183594" xlink:href="#DejaVuSans-83"/>
      <use x="126.660156" xlink:href="#DejaVuSans-80"/>
     </g>
    </g>
    <g id="line2d_85">
     <path d="M 72.5475 93.7313 
L 104.5475 93.7313 
" style="fill:none;stroke:#4b88a2;stroke-linecap:square;stroke-width:2;"/>
    </g>
    <g id="line2d_86"/>
    <g id="text_28">
     <!-- GBR -->
     <g style="fill:#252627;" transform="translate(117.3475 99.3313)scale(0.16 -0.16)">
      <defs>
       <path d="M 59.515625 10.40625 
L 59.515625 29.984375 
L 43.40625 29.984375 
L 43.40625 38.09375 
L 69.28125 38.09375 
L 69.28125 6.78125 
Q 63.578125 2.734375 56.6875 0.65625 
Q 49.8125 -1.421875 42 -1.421875 
Q 24.90625 -1.421875 15.25 8.5625 
Q 5.609375 18.5625 5.609375 36.375 
Q 5.609375 54.25 15.25 64.234375 
Q 24.90625 74.21875 42 74.21875 
Q 49.125 74.21875 55.546875 72.453125 
Q 61.96875 70.703125 67.390625 67.28125 
L 67.390625 56.78125 
Q 61.921875 61.421875 55.765625 63.765625 
Q 49.609375 66.109375 42.828125 66.109375 
Q 29.4375 66.109375 22.71875 58.640625 
Q 16.015625 51.171875 16.015625 36.375 
Q 16.015625 21.625 22.71875 14.15625 
Q 29.4375 6.6875 42.828125 6.6875 
Q 48.046875 6.6875 52.140625 7.59375 
Q 56.25 8.5 59.515625 10.40625 
z
" id="DejaVuSans-71"/>
       <path d="M 19.671875 34.8125 
L 19.671875 8.109375 
L 35.5 8.109375 
Q 43.453125 8.109375 47.28125 11.40625 
Q 51.125 14.703125 51.125 21.484375 
Q 51.125 28.328125 47.28125 31.5625 
Q 43.453125 34.8125 35.5 34.8125 
z
M 19.671875 64.796875 
L 19.671875 42.828125 
L 34.28125 42.828125 
Q 41.5 42.828125 45.03125 45.53125 
Q 48.578125 48.25 48.578125 53.8125 
Q 48.578125 59.328125 45.03125 62.0625 
Q 41.5 64.796875 34.28125 64.796875 
z
M 9.8125 72.90625 
L 35.015625 72.90625 
Q 46.296875 72.90625 52.390625 68.21875 
Q 58.5 63.53125 58.5 54.890625 
Q 58.5 48.1875 55.375 44.234375 
Q 52.25 40.28125 46.1875 39.3125 
Q 53.46875 37.75 57.5 32.78125 
Q 61.53125 27.828125 61.53125 20.40625 
Q 61.53125 10.640625 54.890625 5.3125 
Q 48.25 0 35.984375 0 
L 9.8125 0 
z
" id="DejaVuSans-66"/>
       <path d="M 44.390625 34.1875 
Q 47.5625 33.109375 50.5625 29.59375 
Q 53.5625 26.078125 56.59375 19.921875 
L 66.609375 0 
L 56 0 
L 46.6875 18.703125 
Q 43.0625 26.03125 39.671875 28.421875 
Q 36.28125 30.8125 30.421875 30.8125 
L 19.671875 30.8125 
L 19.671875 0 
L 9.8125 0 
L 9.8125 72.90625 
L 32.078125 72.90625 
Q 44.578125 72.90625 50.734375 67.671875 
Q 56.890625 62.453125 56.890625 51.90625 
Q 56.890625 45.015625 53.6875 40.46875 
Q 50.484375 35.9375 44.390625 34.1875 
z
M 19.671875 64.796875 
L 19.671875 38.921875 
L 32.078125 38.921875 
Q 39.203125 38.921875 42.84375 42.21875 
Q 46.484375 45.515625 46.484375 51.90625 
Q 46.484375 58.296875 42.84375 61.546875 
Q 39.203125 64.796875 32.078125 64.796875 
z
" id="DejaVuSans-82"/>
      </defs>
      <use xlink:href="#DejaVuSans-71"/>
      <use x="77.490234" xlink:href="#DejaVuSans-66"/>
      <use x="146.09375" xlink:href="#DejaVuSans-82"/>
     </g>
    </g>
    <g id="line2d_87">
     <path d="M 72.5475 117.2163 
L 104.5475 117.2163 
" style="fill:none;stroke:#d3d4d9;stroke-linecap:square;stroke-width:2;"/>
    </g>
    <g id="line2d_88"/>
    <g id="text_29">
     <!-- PER -->
     <g style="fill:#252627;" transform="translate(117.3475 122.8163)scale(0.16 -0.16)">
      <use xlink:href="#DejaVuSans-80"/>
      <use x="60.302734" xlink:href="#DejaVuSans-69"/>
      <use x="123.486328" xlink:href="#DejaVuSans-82"/>
     </g>
    </g>
   </g>
  </g>
 </g>
 <defs>
  <clipPath id="p70b072aa6a">
   <rect height="388.08" width="558" x="58.1475" y="49.2888"/>
  </clipPath>
 </defs>
</svg>
