<?xml version="1.0" encoding="utf-8" standalone="no"?>
<!DOCTYPE svg PUBLIC "-//W3C//DTD SVG 1.1//EN"
  "http://www.w3.org/Graphics/SVG/1.1/DTD/svg11.dtd">
<!-- Created with matplotlib (https://matplotlib.org/) -->
<svg height="512.168487pt" version="1.1" viewBox="0 0 641.18772 512.168487" width="641.18772pt" xmlns="http://www.w3.org/2000/svg" xmlns:xlink="http://www.w3.org/1999/xlink">
 <metadata>
  <rdf:RDF xmlns:cc="http://creativecommons.org/ns#" xmlns:dc="http://purl.org/dc/elements/1.1/" xmlns:rdf="http://www.w3.org/1999/02/22-rdf-syntax-ns#">
   <cc:Work>
    <dc:type rdf:resource="http://purl.org/dc/dcmitype/StillImage"/>
    <dc:date>2021-03-05T09:00:09.767292</dc:date>
    <dc:format>image/svg+xml</dc:format>
    <dc:creator>
     <cc:Agent>
      <dc:title>Matplotlib v3.3.1, https://matplotlib.org/</dc:title>
     </cc:Agent>
    </dc:creator>
   </cc:Work>
  </rdf:RDF>
 </metadata>
 <defs>
  <style type="text/css">*{stroke-linecap:butt;stroke-linejoin:round;}</style>
 </defs>
 <g id="figure_1">
  <g id="patch_1">
   <path d="M 0 512.168487 
L 641.18772 512.168487 
L 641.18772 0 
L 0 0 
z
" style="fill:none;"/>
  </g>
  <g id="axes_1">
   <g id="patch_2">
    <path d="M 65.1 437.3688 
L 623.1 437.3688 
L 623.1 49.2888 
L 65.1 49.2888 
z
" style="fill:none;"/>
   </g>
   <g id="matplotlib.axis_1">
    <g id="xtick_1">
     <g id="line2d_1">
      <defs>
       <path d="M 0 0 
L 0 3.5 
" id="mb53e279d2e" style="stroke:#252627;stroke-width:0.8;"/>
      </defs>
      <g>
       <use style="fill:#252627;stroke:#252627;stroke-width:0.8;" x="65.1" xlink:href="#mb53e279d2e" y="437.3688"/>
      </g>
     </g>
    </g>
    <g id="xtick_2">
     <g id="line2d_2">
      <g>
       <use style="fill:#252627;stroke:#252627;stroke-width:0.8;" x="66.50201" xlink:href="#mb53e279d2e" y="437.3688"/>
      </g>
     </g>
     <g id="text_1">
      <!-- Feb -->
      <g style="fill:#252627;" transform="translate(52.33951 456.5263)scale(0.16 -0.16)">
       <defs>
        <path d="M 9.8125 72.90625 
L 51.703125 72.90625 
L 51.703125 64.59375 
L 19.671875 64.59375 
L 19.671875 43.109375 
L 48.578125 43.109375 
L 48.578125 34.8125 
L 19.671875 34.8125 
L 19.671875 0 
L 9.8125 0 
z
" id="DejaVuSans-70"/>
        <path d="M 56.203125 29.59375 
L 56.203125 25.203125 
L 14.890625 25.203125 
Q 15.484375 15.921875 20.484375 11.0625 
Q 25.484375 6.203125 34.421875 6.203125 
Q 39.59375 6.203125 44.453125 7.46875 
Q 49.3125 8.734375 54.109375 11.28125 
L 54.109375 2.78125 
Q 49.265625 0.734375 44.1875 -0.34375 
Q 39.109375 -1.421875 33.890625 -1.421875 
Q 20.796875 -1.421875 13.15625 6.1875 
Q 5.515625 13.8125 5.515625 26.8125 
Q 5.515625 40.234375 12.765625 48.109375 
Q 20.015625 56 32.328125 56 
Q 43.359375 56 49.78125 48.890625 
Q 56.203125 41.796875 56.203125 29.59375 
z
M 47.21875 32.234375 
Q 47.125 39.59375 43.09375 43.984375 
Q 39.0625 48.390625 32.421875 48.390625 
Q 24.90625 48.390625 20.390625 44.140625 
Q 15.875 39.890625 15.1875 32.171875 
z
" id="DejaVuSans-101"/>
        <path d="M 48.6875 27.296875 
Q 48.6875 37.203125 44.609375 42.84375 
Q 40.53125 48.484375 33.40625 48.484375 
Q 26.265625 48.484375 22.1875 42.84375 
Q 18.109375 37.203125 18.109375 27.296875 
Q 18.109375 17.390625 22.1875 11.75 
Q 26.265625 6.109375 33.40625 6.109375 
Q 40.53125 6.109375 44.609375 11.75 
Q 48.6875 17.390625 48.6875 27.296875 
z
M 18.109375 46.390625 
Q 20.953125 51.265625 25.265625 53.625 
Q 29.59375 56 35.59375 56 
Q 45.5625 56 51.78125 48.09375 
Q 58.015625 40.1875 58.015625 27.296875 
Q 58.015625 14.40625 51.78125 6.484375 
Q 45.5625 -1.421875 35.59375 -1.421875 
Q 29.59375 -1.421875 25.265625 0.953125 
Q 20.953125 3.328125 18.109375 8.203125 
L 18.109375 0 
L 9.078125 0 
L 9.078125 75.984375 
L 18.109375 75.984375 
z
" id="DejaVuSans-98"/>
       </defs>
       <use xlink:href="#DejaVuSans-70"/>
       <use x="52.019531" xlink:href="#DejaVuSans-101"/>
       <use x="113.542969" xlink:href="#DejaVuSans-98"/>
      </g>
     </g>
    </g>
    <g id="xtick_3">
     <g id="line2d_3">
      <g>
       <use style="fill:#252627;stroke:#252627;stroke-width:0.8;" x="107.160302" xlink:href="#mb53e279d2e" y="437.3688"/>
      </g>
     </g>
     <g id="text_2">
      <!-- Mar -->
      <g style="fill:#252627;" transform="translate(92.066552 456.5263)scale(0.16 -0.16)">
       <defs>
        <path d="M 9.8125 72.90625 
L 24.515625 72.90625 
L 43.109375 23.296875 
L 61.8125 72.90625 
L 76.515625 72.90625 
L 76.515625 0 
L 66.890625 0 
L 66.890625 64.015625 
L 48.09375 14.015625 
L 38.1875 14.015625 
L 19.390625 64.015625 
L 19.390625 0 
L 9.8125 0 
z
" id="DejaVuSans-77"/>
        <path d="M 34.28125 27.484375 
Q 23.390625 27.484375 19.1875 25 
Q 14.984375 22.515625 14.984375 16.5 
Q 14.984375 11.71875 18.140625 8.90625 
Q 21.296875 6.109375 26.703125 6.109375 
Q 34.1875 6.109375 38.703125 11.40625 
Q 43.21875 16.703125 43.21875 25.484375 
L 43.21875 27.484375 
z
M 52.203125 31.203125 
L 52.203125 0 
L 43.21875 0 
L 43.21875 8.296875 
Q 40.140625 3.328125 35.546875 0.953125 
Q 30.953125 -1.421875 24.3125 -1.421875 
Q 15.921875 -1.421875 10.953125 3.296875 
Q 6 8.015625 6 15.921875 
Q 6 25.140625 12.171875 29.828125 
Q 18.359375 34.515625 30.609375 34.515625 
L 43.21875 34.515625 
L 43.21875 35.40625 
Q 43.21875 41.609375 39.140625 45 
Q 35.0625 48.390625 27.6875 48.390625 
Q 23 48.390625 18.546875 47.265625 
Q 14.109375 46.140625 10.015625 43.890625 
L 10.015625 52.203125 
Q 14.9375 54.109375 19.578125 55.046875 
Q 24.21875 56 28.609375 56 
Q 40.484375 56 46.34375 49.84375 
Q 52.203125 43.703125 52.203125 31.203125 
z
" id="DejaVuSans-97"/>
        <path d="M 41.109375 46.296875 
Q 39.59375 47.171875 37.8125 47.578125 
Q 36.03125 48 33.890625 48 
Q 26.265625 48 22.1875 43.046875 
Q 18.109375 38.09375 18.109375 28.8125 
L 18.109375 0 
L 9.078125 0 
L 9.078125 54.6875 
L 18.109375 54.6875 
L 18.109375 46.1875 
Q 20.953125 51.171875 25.484375 53.578125 
Q 30.03125 56 36.53125 56 
Q 37.453125 56 38.578125 55.875 
Q 39.703125 55.765625 41.0625 55.515625 
z
" id="DejaVuSans-114"/>
       </defs>
       <use xlink:href="#DejaVuSans-77"/>
       <use x="86.279297" xlink:href="#DejaVuSans-97"/>
       <use x="147.558594" xlink:href="#DejaVuSans-114"/>
      </g>
     </g>
    </g>
    <g id="xtick_4">
     <g id="line2d_4">
      <g>
       <use style="fill:#252627;stroke:#252627;stroke-width:0.8;" x="150.622613" xlink:href="#mb53e279d2e" y="437.3688"/>
      </g>
     </g>
     <g id="text_3">
      <!-- Apr -->
      <g style="fill:#252627;" transform="translate(136.782613 456.5263)scale(0.16 -0.16)">
       <defs>
        <path d="M 34.1875 63.1875 
L 20.796875 26.90625 
L 47.609375 26.90625 
z
M 28.609375 72.90625 
L 39.796875 72.90625 
L 67.578125 0 
L 57.328125 0 
L 50.6875 18.703125 
L 17.828125 18.703125 
L 11.1875 0 
L 0.78125 0 
z
" id="DejaVuSans-65"/>
        <path d="M 18.109375 8.203125 
L 18.109375 -20.796875 
L 9.078125 -20.796875 
L 9.078125 54.6875 
L 18.109375 54.6875 
L 18.109375 46.390625 
Q 20.953125 51.265625 25.265625 53.625 
Q 29.59375 56 35.59375 56 
Q 45.5625 56 51.78125 48.09375 
Q 58.015625 40.1875 58.015625 27.296875 
Q 58.015625 14.40625 51.78125 6.484375 
Q 45.5625 -1.421875 35.59375 -1.421875 
Q 29.59375 -1.421875 25.265625 0.953125 
Q 20.953125 3.328125 18.109375 8.203125 
z
M 48.6875 27.296875 
Q 48.6875 37.203125 44.609375 42.84375 
Q 40.53125 48.484375 33.40625 48.484375 
Q 26.265625 48.484375 22.1875 42.84375 
Q 18.109375 37.203125 18.109375 27.296875 
Q 18.109375 17.390625 22.1875 11.75 
Q 26.265625 6.109375 33.40625 6.109375 
Q 40.53125 6.109375 44.609375 11.75 
Q 48.6875 17.390625 48.6875 27.296875 
z
" id="DejaVuSans-112"/>
       </defs>
       <use xlink:href="#DejaVuSans-65"/>
       <use x="68.408203" xlink:href="#DejaVuSans-112"/>
       <use x="131.884766" xlink:href="#DejaVuSans-114"/>
      </g>
     </g>
    </g>
    <g id="xtick_5">
     <g id="line2d_5">
      <g>
       <use style="fill:#252627;stroke:#252627;stroke-width:0.8;" x="192.682915" xlink:href="#mb53e279d2e" y="437.3688"/>
      </g>
     </g>
     <g id="text_4">
      <!-- May -->
      <g style="fill:#252627;" transform="translate(176.142915 456.5263)scale(0.16 -0.16)">
       <defs>
        <path d="M 32.171875 -5.078125 
Q 28.375 -14.84375 24.75 -17.8125 
Q 21.140625 -20.796875 15.09375 -20.796875 
L 7.90625 -20.796875 
L 7.90625 -13.28125 
L 13.1875 -13.28125 
Q 16.890625 -13.28125 18.9375 -11.515625 
Q 21 -9.765625 23.484375 -3.21875 
L 25.09375 0.875 
L 2.984375 54.6875 
L 12.5 54.6875 
L 29.59375 11.921875 
L 46.6875 54.6875 
L 56.203125 54.6875 
z
" id="DejaVuSans-121"/>
       </defs>
       <use xlink:href="#DejaVuSans-77"/>
       <use x="86.279297" xlink:href="#DejaVuSans-97"/>
       <use x="147.558594" xlink:href="#DejaVuSans-121"/>
      </g>
     </g>
    </g>
    <g id="xtick_6">
     <g id="line2d_6">
      <g>
       <use style="fill:#252627;stroke:#252627;stroke-width:0.8;" x="236.145226" xlink:href="#mb53e279d2e" y="437.3688"/>
      </g>
     </g>
     <g id="text_5">
      <!-- Jun -->
      <g style="fill:#252627;" transform="translate(223.645226 456.5263)scale(0.16 -0.16)">
       <defs>
        <path d="M 9.8125 72.90625 
L 19.671875 72.90625 
L 19.671875 5.078125 
Q 19.671875 -8.109375 14.671875 -14.0625 
Q 9.671875 -20.015625 -1.421875 -20.015625 
L -5.171875 -20.015625 
L -5.171875 -11.71875 
L -2.09375 -11.71875 
Q 4.4375 -11.71875 7.125 -8.046875 
Q 9.8125 -4.390625 9.8125 5.078125 
z
" id="DejaVuSans-74"/>
        <path d="M 8.5 21.578125 
L 8.5 54.6875 
L 17.484375 54.6875 
L 17.484375 21.921875 
Q 17.484375 14.15625 20.5 10.265625 
Q 23.53125 6.390625 29.59375 6.390625 
Q 36.859375 6.390625 41.078125 11.03125 
Q 45.3125 15.671875 45.3125 23.6875 
L 45.3125 54.6875 
L 54.296875 54.6875 
L 54.296875 0 
L 45.3125 0 
L 45.3125 8.40625 
Q 42.046875 3.421875 37.71875 1 
Q 33.40625 -1.421875 27.6875 -1.421875 
Q 18.265625 -1.421875 13.375 4.4375 
Q 8.5 10.296875 8.5 21.578125 
z
M 31.109375 56 
z
" id="DejaVuSans-117"/>
        <path d="M 54.890625 33.015625 
L 54.890625 0 
L 45.90625 0 
L 45.90625 32.71875 
Q 45.90625 40.484375 42.875 44.328125 
Q 39.84375 48.1875 33.796875 48.1875 
Q 26.515625 48.1875 22.3125 43.546875 
Q 18.109375 38.921875 18.109375 30.90625 
L 18.109375 0 
L 9.078125 0 
L 9.078125 54.6875 
L 18.109375 54.6875 
L 18.109375 46.1875 
Q 21.34375 51.125 25.703125 53.5625 
Q 30.078125 56 35.796875 56 
Q 45.21875 56 50.046875 50.171875 
Q 54.890625 44.34375 54.890625 33.015625 
z
" id="DejaVuSans-110"/>
       </defs>
       <use xlink:href="#DejaVuSans-74"/>
       <use x="29.492188" xlink:href="#DejaVuSans-117"/>
       <use x="92.871094" xlink:href="#DejaVuSans-110"/>
      </g>
     </g>
    </g>
    <g id="xtick_7">
     <g id="line2d_7">
      <g>
       <use style="fill:#252627;stroke:#252627;stroke-width:0.8;" x="278.205528" xlink:href="#mb53e279d2e" y="437.3688"/>
      </g>
     </g>
     <g id="text_6">
      <!-- Jul -->
      <g style="fill:#252627;" transform="translate(268.553028 456.5263)scale(0.16 -0.16)">
       <defs>
        <path d="M 9.421875 75.984375 
L 18.40625 75.984375 
L 18.40625 0 
L 9.421875 0 
z
" id="DejaVuSans-108"/>
       </defs>
       <use xlink:href="#DejaVuSans-74"/>
       <use x="29.492188" xlink:href="#DejaVuSans-117"/>
       <use x="92.871094" xlink:href="#DejaVuSans-108"/>
      </g>
     </g>
    </g>
    <g id="xtick_8">
     <g id="line2d_8">
      <g>
       <use style="fill:#252627;stroke:#252627;stroke-width:0.8;" x="321.667839" xlink:href="#mb53e279d2e" y="437.3688"/>
      </g>
     </g>
     <g id="text_7">
      <!-- Aug -->
      <g style="fill:#252627;" transform="translate(306.046589 456.5263)scale(0.16 -0.16)">
       <defs>
        <path d="M 45.40625 27.984375 
Q 45.40625 37.75 41.375 43.109375 
Q 37.359375 48.484375 30.078125 48.484375 
Q 22.859375 48.484375 18.828125 43.109375 
Q 14.796875 37.75 14.796875 27.984375 
Q 14.796875 18.265625 18.828125 12.890625 
Q 22.859375 7.515625 30.078125 7.515625 
Q 37.359375 7.515625 41.375 12.890625 
Q 45.40625 18.265625 45.40625 27.984375 
z
M 54.390625 6.78125 
Q 54.390625 -7.171875 48.1875 -13.984375 
Q 42 -20.796875 29.203125 -20.796875 
Q 24.46875 -20.796875 20.265625 -20.09375 
Q 16.0625 -19.390625 12.109375 -17.921875 
L 12.109375 -9.1875 
Q 16.0625 -11.328125 19.921875 -12.34375 
Q 23.78125 -13.375 27.78125 -13.375 
Q 36.625 -13.375 41.015625 -8.765625 
Q 45.40625 -4.15625 45.40625 5.171875 
L 45.40625 9.625 
Q 42.625 4.78125 38.28125 2.390625 
Q 33.9375 0 27.875 0 
Q 17.828125 0 11.671875 7.65625 
Q 5.515625 15.328125 5.515625 27.984375 
Q 5.515625 40.671875 11.671875 48.328125 
Q 17.828125 56 27.875 56 
Q 33.9375 56 38.28125 53.609375 
Q 42.625 51.21875 45.40625 46.390625 
L 45.40625 54.6875 
L 54.390625 54.6875 
z
" id="DejaVuSans-103"/>
       </defs>
       <use xlink:href="#DejaVuSans-65"/>
       <use x="68.408203" xlink:href="#DejaVuSans-117"/>
       <use x="131.787109" xlink:href="#DejaVuSans-103"/>
      </g>
     </g>
    </g>
    <g id="xtick_9">
     <g id="line2d_9">
      <g>
       <use style="fill:#252627;stroke:#252627;stroke-width:0.8;" x="365.130151" xlink:href="#mb53e279d2e" y="437.3688"/>
      </g>
     </g>
     <g id="text_8">
      <!-- Sep -->
      <g style="fill:#252627;" transform="translate(350.050151 456.5263)scale(0.16 -0.16)">
       <defs>
        <path d="M 53.515625 70.515625 
L 53.515625 60.890625 
Q 47.90625 63.578125 42.921875 64.890625 
Q 37.9375 66.21875 33.296875 66.21875 
Q 25.25 66.21875 20.875 63.09375 
Q 16.5 59.96875 16.5 54.203125 
Q 16.5 49.359375 19.40625 46.890625 
Q 22.3125 44.4375 30.421875 42.921875 
L 36.375 41.703125 
Q 47.40625 39.59375 52.65625 34.296875 
Q 57.90625 29 57.90625 20.125 
Q 57.90625 9.515625 50.796875 4.046875 
Q 43.703125 -1.421875 29.984375 -1.421875 
Q 24.8125 -1.421875 18.96875 -0.25 
Q 13.140625 0.921875 6.890625 3.21875 
L 6.890625 13.375 
Q 12.890625 10.015625 18.65625 8.296875 
Q 24.421875 6.59375 29.984375 6.59375 
Q 38.421875 6.59375 43.015625 9.90625 
Q 47.609375 13.234375 47.609375 19.390625 
Q 47.609375 24.75 44.3125 27.78125 
Q 41.015625 30.8125 33.5 32.328125 
L 27.484375 33.5 
Q 16.453125 35.6875 11.515625 40.375 
Q 6.59375 45.0625 6.59375 53.421875 
Q 6.59375 63.09375 13.40625 68.65625 
Q 20.21875 74.21875 32.171875 74.21875 
Q 37.3125 74.21875 42.625 73.28125 
Q 47.953125 72.359375 53.515625 70.515625 
z
" id="DejaVuSans-83"/>
       </defs>
       <use xlink:href="#DejaVuSans-83"/>
       <use x="63.476562" xlink:href="#DejaVuSans-101"/>
       <use x="125" xlink:href="#DejaVuSans-112"/>
      </g>
     </g>
    </g>
    <g id="xtick_10">
     <g id="line2d_10">
      <g>
       <use style="fill:#252627;stroke:#252627;stroke-width:0.8;" x="407.190452" xlink:href="#mb53e279d2e" y="437.3688"/>
      </g>
     </g>
     <g id="text_9">
      <!-- Oct -->
      <g style="fill:#252627;" transform="translate(393.357952 456.5263)scale(0.16 -0.16)">
       <defs>
        <path d="M 39.40625 66.21875 
Q 28.65625 66.21875 22.328125 58.203125 
Q 16.015625 50.203125 16.015625 36.375 
Q 16.015625 22.609375 22.328125 14.59375 
Q 28.65625 6.59375 39.40625 6.59375 
Q 50.140625 6.59375 56.421875 14.59375 
Q 62.703125 22.609375 62.703125 36.375 
Q 62.703125 50.203125 56.421875 58.203125 
Q 50.140625 66.21875 39.40625 66.21875 
z
M 39.40625 74.21875 
Q 54.734375 74.21875 63.90625 63.9375 
Q 73.09375 53.65625 73.09375 36.375 
Q 73.09375 19.140625 63.90625 8.859375 
Q 54.734375 -1.421875 39.40625 -1.421875 
Q 24.03125 -1.421875 14.8125 8.828125 
Q 5.609375 19.09375 5.609375 36.375 
Q 5.609375 53.65625 14.8125 63.9375 
Q 24.03125 74.21875 39.40625 74.21875 
z
" id="DejaVuSans-79"/>
        <path d="M 48.78125 52.59375 
L 48.78125 44.1875 
Q 44.96875 46.296875 41.140625 47.34375 
Q 37.3125 48.390625 33.40625 48.390625 
Q 24.65625 48.390625 19.8125 42.84375 
Q 14.984375 37.3125 14.984375 27.296875 
Q 14.984375 17.28125 19.8125 11.734375 
Q 24.65625 6.203125 33.40625 6.203125 
Q 37.3125 6.203125 41.140625 7.25 
Q 44.96875 8.296875 48.78125 10.40625 
L 48.78125 2.09375 
Q 45.015625 0.34375 40.984375 -0.53125 
Q 36.96875 -1.421875 32.421875 -1.421875 
Q 20.0625 -1.421875 12.78125 6.34375 
Q 5.515625 14.109375 5.515625 27.296875 
Q 5.515625 40.671875 12.859375 48.328125 
Q 20.21875 56 33.015625 56 
Q 37.15625 56 41.109375 55.140625 
Q 45.0625 54.296875 48.78125 52.59375 
z
" id="DejaVuSans-99"/>
        <path d="M 18.3125 70.21875 
L 18.3125 54.6875 
L 36.8125 54.6875 
L 36.8125 47.703125 
L 18.3125 47.703125 
L 18.3125 18.015625 
Q 18.3125 11.328125 20.140625 9.421875 
Q 21.96875 7.515625 27.59375 7.515625 
L 36.8125 7.515625 
L 36.8125 0 
L 27.59375 0 
Q 17.1875 0 13.234375 3.875 
Q 9.28125 7.765625 9.28125 18.015625 
L 9.28125 47.703125 
L 2.6875 47.703125 
L 2.6875 54.6875 
L 9.28125 54.6875 
L 9.28125 70.21875 
z
" id="DejaVuSans-116"/>
       </defs>
       <use xlink:href="#DejaVuSans-79"/>
       <use x="78.710938" xlink:href="#DejaVuSans-99"/>
       <use x="133.691406" xlink:href="#DejaVuSans-116"/>
      </g>
     </g>
    </g>
    <g id="xtick_11">
     <g id="line2d_11">
      <g>
       <use style="fill:#252627;stroke:#252627;stroke-width:0.8;" x="450.652764" xlink:href="#mb53e279d2e" y="437.3688"/>
      </g>
     </g>
     <g id="text_10">
      <!-- Nov -->
      <g style="fill:#252627;" transform="translate(435.037764 456.5263)scale(0.16 -0.16)">
       <defs>
        <path d="M 9.8125 72.90625 
L 23.09375 72.90625 
L 55.421875 11.921875 
L 55.421875 72.90625 
L 64.984375 72.90625 
L 64.984375 0 
L 51.703125 0 
L 19.390625 60.984375 
L 19.390625 0 
L 9.8125 0 
z
" id="DejaVuSans-78"/>
        <path d="M 30.609375 48.390625 
Q 23.390625 48.390625 19.1875 42.75 
Q 14.984375 37.109375 14.984375 27.296875 
Q 14.984375 17.484375 19.15625 11.84375 
Q 23.34375 6.203125 30.609375 6.203125 
Q 37.796875 6.203125 41.984375 11.859375 
Q 46.1875 17.53125 46.1875 27.296875 
Q 46.1875 37.015625 41.984375 42.703125 
Q 37.796875 48.390625 30.609375 48.390625 
z
M 30.609375 56 
Q 42.328125 56 49.015625 48.375 
Q 55.71875 40.765625 55.71875 27.296875 
Q 55.71875 13.875 49.015625 6.21875 
Q 42.328125 -1.421875 30.609375 -1.421875 
Q 18.84375 -1.421875 12.171875 6.21875 
Q 5.515625 13.875 5.515625 27.296875 
Q 5.515625 40.765625 12.171875 48.375 
Q 18.84375 56 30.609375 56 
z
" id="DejaVuSans-111"/>
        <path d="M 2.984375 54.6875 
L 12.5 54.6875 
L 29.59375 8.796875 
L 46.6875 54.6875 
L 56.203125 54.6875 
L 35.6875 0 
L 23.484375 0 
z
" id="DejaVuSans-118"/>
       </defs>
       <use xlink:href="#DejaVuSans-78"/>
       <use x="74.804688" xlink:href="#DejaVuSans-111"/>
       <use x="135.986328" xlink:href="#DejaVuSans-118"/>
      </g>
     </g>
    </g>
    <g id="xtick_12">
     <g id="line2d_12">
      <g>
       <use style="fill:#252627;stroke:#252627;stroke-width:0.8;" x="492.713065" xlink:href="#mb53e279d2e" y="437.3688"/>
      </g>
     </g>
     <g id="text_11">
      <!-- Dec -->
      <g style="fill:#252627;" transform="translate(477.231815 456.5263)scale(0.16 -0.16)">
       <defs>
        <path d="M 19.671875 64.796875 
L 19.671875 8.109375 
L 31.59375 8.109375 
Q 46.6875 8.109375 53.6875 14.9375 
Q 60.6875 21.78125 60.6875 36.53125 
Q 60.6875 51.171875 53.6875 57.984375 
Q 46.6875 64.796875 31.59375 64.796875 
z
M 9.8125 72.90625 
L 30.078125 72.90625 
Q 51.265625 72.90625 61.171875 64.09375 
Q 71.09375 55.28125 71.09375 36.53125 
Q 71.09375 17.671875 61.125 8.828125 
Q 51.171875 0 30.078125 0 
L 9.8125 0 
z
" id="DejaVuSans-68"/>
       </defs>
       <use xlink:href="#DejaVuSans-68"/>
       <use x="77.001953" xlink:href="#DejaVuSans-101"/>
       <use x="138.525391" xlink:href="#DejaVuSans-99"/>
      </g>
     </g>
    </g>
    <g id="xtick_13">
     <g id="line2d_13">
      <g>
       <use style="fill:#252627;stroke:#252627;stroke-width:0.8;" x="536.175377" xlink:href="#mb53e279d2e" y="437.3688"/>
      </g>
     </g>
     <g id="text_12">
      <!-- Jan -->
      <g style="fill:#252627;" transform="translate(523.842877 456.5263)scale(0.16 -0.16)">
       <use xlink:href="#DejaVuSans-74"/>
       <use x="29.492188" xlink:href="#DejaVuSans-97"/>
       <use x="90.771484" xlink:href="#DejaVuSans-110"/>
      </g>
      <!-- 2021 -->
      <g style="fill:#252627;" transform="translate(515.815377 474.4428)scale(0.16 -0.16)">
       <defs>
        <path d="M 19.1875 8.296875 
L 53.609375 8.296875 
L 53.609375 0 
L 7.328125 0 
L 7.328125 8.296875 
Q 12.9375 14.109375 22.625 23.890625 
Q 32.328125 33.6875 34.8125 36.53125 
Q 39.546875 41.84375 41.421875 45.53125 
Q 43.3125 49.21875 43.3125 52.78125 
Q 43.3125 58.59375 39.234375 62.25 
Q 35.15625 65.921875 28.609375 65.921875 
Q 23.96875 65.921875 18.8125 64.3125 
Q 13.671875 62.703125 7.8125 59.421875 
L 7.8125 69.390625 
Q 13.765625 71.78125 18.9375 73 
Q 24.125 74.21875 28.421875 74.21875 
Q 39.75 74.21875 46.484375 68.546875 
Q 53.21875 62.890625 53.21875 53.421875 
Q 53.21875 48.921875 51.53125 44.890625 
Q 49.859375 40.875 45.40625 35.40625 
Q 44.1875 33.984375 37.640625 27.21875 
Q 31.109375 20.453125 19.1875 8.296875 
z
" id="DejaVuSans-50"/>
        <path d="M 31.78125 66.40625 
Q 24.171875 66.40625 20.328125 58.90625 
Q 16.5 51.421875 16.5 36.375 
Q 16.5 21.390625 20.328125 13.890625 
Q 24.171875 6.390625 31.78125 6.390625 
Q 39.453125 6.390625 43.28125 13.890625 
Q 47.125 21.390625 47.125 36.375 
Q 47.125 51.421875 43.28125 58.90625 
Q 39.453125 66.40625 31.78125 66.40625 
z
M 31.78125 74.21875 
Q 44.046875 74.21875 50.515625 64.515625 
Q 56.984375 54.828125 56.984375 36.375 
Q 56.984375 17.96875 50.515625 8.265625 
Q 44.046875 -1.421875 31.78125 -1.421875 
Q 19.53125 -1.421875 13.0625 8.265625 
Q 6.59375 17.96875 6.59375 36.375 
Q 6.59375 54.828125 13.0625 64.515625 
Q 19.53125 74.21875 31.78125 74.21875 
z
" id="DejaVuSans-48"/>
        <path d="M 12.40625 8.296875 
L 28.515625 8.296875 
L 28.515625 63.921875 
L 10.984375 60.40625 
L 10.984375 69.390625 
L 28.421875 72.90625 
L 38.28125 72.90625 
L 38.28125 8.296875 
L 54.390625 8.296875 
L 54.390625 0 
L 12.40625 0 
z
" id="DejaVuSans-49"/>
       </defs>
       <use xlink:href="#DejaVuSans-50"/>
       <use x="63.623047" xlink:href="#DejaVuSans-48"/>
       <use x="127.246094" xlink:href="#DejaVuSans-50"/>
       <use x="190.869141" xlink:href="#DejaVuSans-49"/>
      </g>
     </g>
    </g>
    <g id="xtick_14">
     <g id="line2d_14">
      <g>
       <use style="fill:#252627;stroke:#252627;stroke-width:0.8;" x="579.637688" xlink:href="#mb53e279d2e" y="437.3688"/>
      </g>
     </g>
     <g id="text_13">
      <!-- Feb -->
      <g style="fill:#252627;" transform="translate(565.475188 456.5263)scale(0.16 -0.16)">
       <use xlink:href="#DejaVuSans-70"/>
       <use x="52.019531" xlink:href="#DejaVuSans-101"/>
       <use x="113.542969" xlink:href="#DejaVuSans-98"/>
      </g>
     </g>
    </g>
    <g id="xtick_15">
     <g id="line2d_15">
      <g>
       <use style="fill:#252627;stroke:#252627;stroke-width:0.8;" x="618.89397" xlink:href="#mb53e279d2e" y="437.3688"/>
      </g>
     </g>
     <g id="text_14">
      <!-- Mar -->
      <g style="fill:#252627;" transform="translate(603.80022 456.5263)scale(0.16 -0.16)">
       <use xlink:href="#DejaVuSans-77"/>
       <use x="86.279297" xlink:href="#DejaVuSans-97"/>
       <use x="147.558594" xlink:href="#DejaVuSans-114"/>
      </g>
     </g>
    </g>
    <g id="xtick_16">
     <g id="line2d_16">
      <g>
       <use style="fill:#252627;stroke:#252627;stroke-width:0.8;" x="623.1" xlink:href="#mb53e279d2e" y="437.3688"/>
      </g>
     </g>
    </g>
    <g id="xtick_17">
     <g id="line2d_17">
      <defs>
       <path d="M 0 0 
L 0 2 
" id="mcb08094e62" style="stroke:#252627;stroke-width:0.6;"/>
      </defs>
      <g>
       <use style="fill:#252627;stroke:#252627;stroke-width:0.6;" x="69.30603" xlink:href="#mcb08094e62" y="437.3688"/>
      </g>
     </g>
    </g>
    <g id="xtick_18">
     <g id="line2d_18">
      <g>
       <use style="fill:#252627;stroke:#252627;stroke-width:0.6;" x="79.120101" xlink:href="#mcb08094e62" y="437.3688"/>
      </g>
     </g>
    </g>
    <g id="xtick_19">
     <g id="line2d_19">
      <g>
       <use style="fill:#252627;stroke:#252627;stroke-width:0.6;" x="88.934171" xlink:href="#mcb08094e62" y="437.3688"/>
      </g>
     </g>
    </g>
    <g id="xtick_20">
     <g id="line2d_20">
      <g>
       <use style="fill:#252627;stroke:#252627;stroke-width:0.6;" x="98.748241" xlink:href="#mcb08094e62" y="437.3688"/>
      </g>
     </g>
    </g>
    <g id="xtick_21">
     <g id="line2d_21">
      <g>
       <use style="fill:#252627;stroke:#252627;stroke-width:0.6;" x="108.562312" xlink:href="#mcb08094e62" y="437.3688"/>
      </g>
     </g>
    </g>
    <g id="xtick_22">
     <g id="line2d_22">
      <g>
       <use style="fill:#252627;stroke:#252627;stroke-width:0.6;" x="118.376382" xlink:href="#mcb08094e62" y="437.3688"/>
      </g>
     </g>
    </g>
    <g id="xtick_23">
     <g id="line2d_23">
      <g>
       <use style="fill:#252627;stroke:#252627;stroke-width:0.6;" x="128.190452" xlink:href="#mcb08094e62" y="437.3688"/>
      </g>
     </g>
    </g>
    <g id="xtick_24">
     <g id="line2d_24">
      <g>
       <use style="fill:#252627;stroke:#252627;stroke-width:0.6;" x="138.004523" xlink:href="#mcb08094e62" y="437.3688"/>
      </g>
     </g>
    </g>
    <g id="xtick_25">
     <g id="line2d_25">
      <g>
       <use style="fill:#252627;stroke:#252627;stroke-width:0.6;" x="147.818593" xlink:href="#mcb08094e62" y="437.3688"/>
      </g>
     </g>
    </g>
    <g id="xtick_26">
     <g id="line2d_26">
      <g>
       <use style="fill:#252627;stroke:#252627;stroke-width:0.6;" x="157.632663" xlink:href="#mcb08094e62" y="437.3688"/>
      </g>
     </g>
    </g>
    <g id="xtick_27">
     <g id="line2d_27">
      <g>
       <use style="fill:#252627;stroke:#252627;stroke-width:0.6;" x="167.446734" xlink:href="#mcb08094e62" y="437.3688"/>
      </g>
     </g>
    </g>
    <g id="xtick_28">
     <g id="line2d_28">
      <g>
       <use style="fill:#252627;stroke:#252627;stroke-width:0.6;" x="177.260804" xlink:href="#mcb08094e62" y="437.3688"/>
      </g>
     </g>
    </g>
    <g id="xtick_29">
     <g id="line2d_29">
      <g>
       <use style="fill:#252627;stroke:#252627;stroke-width:0.6;" x="187.074874" xlink:href="#mcb08094e62" y="437.3688"/>
      </g>
     </g>
    </g>
    <g id="xtick_30">
     <g id="line2d_30">
      <g>
       <use style="fill:#252627;stroke:#252627;stroke-width:0.6;" x="196.888945" xlink:href="#mcb08094e62" y="437.3688"/>
      </g>
     </g>
    </g>
    <g id="xtick_31">
     <g id="line2d_31">
      <g>
       <use style="fill:#252627;stroke:#252627;stroke-width:0.6;" x="206.703015" xlink:href="#mcb08094e62" y="437.3688"/>
      </g>
     </g>
    </g>
    <g id="xtick_32">
     <g id="line2d_32">
      <g>
       <use style="fill:#252627;stroke:#252627;stroke-width:0.6;" x="216.517085" xlink:href="#mcb08094e62" y="437.3688"/>
      </g>
     </g>
    </g>
    <g id="xtick_33">
     <g id="line2d_33">
      <g>
       <use style="fill:#252627;stroke:#252627;stroke-width:0.6;" x="226.331156" xlink:href="#mcb08094e62" y="437.3688"/>
      </g>
     </g>
    </g>
    <g id="xtick_34">
     <g id="line2d_34">
      <g>
       <use style="fill:#252627;stroke:#252627;stroke-width:0.6;" x="245.959296" xlink:href="#mcb08094e62" y="437.3688"/>
      </g>
     </g>
    </g>
    <g id="xtick_35">
     <g id="line2d_35">
      <g>
       <use style="fill:#252627;stroke:#252627;stroke-width:0.6;" x="255.773367" xlink:href="#mcb08094e62" y="437.3688"/>
      </g>
     </g>
    </g>
    <g id="xtick_36">
     <g id="line2d_36">
      <g>
       <use style="fill:#252627;stroke:#252627;stroke-width:0.6;" x="265.587437" xlink:href="#mcb08094e62" y="437.3688"/>
      </g>
     </g>
    </g>
    <g id="xtick_37">
     <g id="line2d_37">
      <g>
       <use style="fill:#252627;stroke:#252627;stroke-width:0.6;" x="275.401508" xlink:href="#mcb08094e62" y="437.3688"/>
      </g>
     </g>
    </g>
    <g id="xtick_38">
     <g id="line2d_38">
      <g>
       <use style="fill:#252627;stroke:#252627;stroke-width:0.6;" x="285.215578" xlink:href="#mcb08094e62" y="437.3688"/>
      </g>
     </g>
    </g>
    <g id="xtick_39">
     <g id="line2d_39">
      <g>
       <use style="fill:#252627;stroke:#252627;stroke-width:0.6;" x="295.029648" xlink:href="#mcb08094e62" y="437.3688"/>
      </g>
     </g>
    </g>
    <g id="xtick_40">
     <g id="line2d_40">
      <g>
       <use style="fill:#252627;stroke:#252627;stroke-width:0.6;" x="304.843719" xlink:href="#mcb08094e62" y="437.3688"/>
      </g>
     </g>
    </g>
    <g id="xtick_41">
     <g id="line2d_41">
      <g>
       <use style="fill:#252627;stroke:#252627;stroke-width:0.6;" x="314.657789" xlink:href="#mcb08094e62" y="437.3688"/>
      </g>
     </g>
    </g>
    <g id="xtick_42">
     <g id="line2d_42">
      <g>
       <use style="fill:#252627;stroke:#252627;stroke-width:0.6;" x="324.471859" xlink:href="#mcb08094e62" y="437.3688"/>
      </g>
     </g>
    </g>
    <g id="xtick_43">
     <g id="line2d_43">
      <g>
       <use style="fill:#252627;stroke:#252627;stroke-width:0.6;" x="334.28593" xlink:href="#mcb08094e62" y="437.3688"/>
      </g>
     </g>
    </g>
    <g id="xtick_44">
     <g id="line2d_44">
      <g>
       <use style="fill:#252627;stroke:#252627;stroke-width:0.6;" x="344.1" xlink:href="#mcb08094e62" y="437.3688"/>
      </g>
     </g>
    </g>
    <g id="xtick_45">
     <g id="line2d_45">
      <g>
       <use style="fill:#252627;stroke:#252627;stroke-width:0.6;" x="353.91407" xlink:href="#mcb08094e62" y="437.3688"/>
      </g>
     </g>
    </g>
    <g id="xtick_46">
     <g id="line2d_46">
      <g>
       <use style="fill:#252627;stroke:#252627;stroke-width:0.6;" x="363.728141" xlink:href="#mcb08094e62" y="437.3688"/>
      </g>
     </g>
    </g>
    <g id="xtick_47">
     <g id="line2d_47">
      <g>
       <use style="fill:#252627;stroke:#252627;stroke-width:0.6;" x="373.542211" xlink:href="#mcb08094e62" y="437.3688"/>
      </g>
     </g>
    </g>
    <g id="xtick_48">
     <g id="line2d_48">
      <g>
       <use style="fill:#252627;stroke:#252627;stroke-width:0.6;" x="383.356281" xlink:href="#mcb08094e62" y="437.3688"/>
      </g>
     </g>
    </g>
    <g id="xtick_49">
     <g id="line2d_49">
      <g>
       <use style="fill:#252627;stroke:#252627;stroke-width:0.6;" x="393.170352" xlink:href="#mcb08094e62" y="437.3688"/>
      </g>
     </g>
    </g>
    <g id="xtick_50">
     <g id="line2d_50">
      <g>
       <use style="fill:#252627;stroke:#252627;stroke-width:0.6;" x="402.984422" xlink:href="#mcb08094e62" y="437.3688"/>
      </g>
     </g>
    </g>
    <g id="xtick_51">
     <g id="line2d_51">
      <g>
       <use style="fill:#252627;stroke:#252627;stroke-width:0.6;" x="412.798492" xlink:href="#mcb08094e62" y="437.3688"/>
      </g>
     </g>
    </g>
    <g id="xtick_52">
     <g id="line2d_52">
      <g>
       <use style="fill:#252627;stroke:#252627;stroke-width:0.6;" x="422.612563" xlink:href="#mcb08094e62" y="437.3688"/>
      </g>
     </g>
    </g>
    <g id="xtick_53">
     <g id="line2d_53">
      <g>
       <use style="fill:#252627;stroke:#252627;stroke-width:0.6;" x="432.426633" xlink:href="#mcb08094e62" y="437.3688"/>
      </g>
     </g>
    </g>
    <g id="xtick_54">
     <g id="line2d_54">
      <g>
       <use style="fill:#252627;stroke:#252627;stroke-width:0.6;" x="442.240704" xlink:href="#mcb08094e62" y="437.3688"/>
      </g>
     </g>
    </g>
    <g id="xtick_55">
     <g id="line2d_55">
      <g>
       <use style="fill:#252627;stroke:#252627;stroke-width:0.6;" x="452.054774" xlink:href="#mcb08094e62" y="437.3688"/>
      </g>
     </g>
    </g>
    <g id="xtick_56">
     <g id="line2d_56">
      <g>
       <use style="fill:#252627;stroke:#252627;stroke-width:0.6;" x="461.868844" xlink:href="#mcb08094e62" y="437.3688"/>
      </g>
     </g>
    </g>
    <g id="xtick_57">
     <g id="line2d_57">
      <g>
       <use style="fill:#252627;stroke:#252627;stroke-width:0.6;" x="471.682915" xlink:href="#mcb08094e62" y="437.3688"/>
      </g>
     </g>
    </g>
    <g id="xtick_58">
     <g id="line2d_58">
      <g>
       <use style="fill:#252627;stroke:#252627;stroke-width:0.6;" x="481.496985" xlink:href="#mcb08094e62" y="437.3688"/>
      </g>
     </g>
    </g>
    <g id="xtick_59">
     <g id="line2d_59">
      <g>
       <use style="fill:#252627;stroke:#252627;stroke-width:0.6;" x="491.311055" xlink:href="#mcb08094e62" y="437.3688"/>
      </g>
     </g>
    </g>
    <g id="xtick_60">
     <g id="line2d_60">
      <g>
       <use style="fill:#252627;stroke:#252627;stroke-width:0.6;" x="501.125126" xlink:href="#mcb08094e62" y="437.3688"/>
      </g>
     </g>
    </g>
    <g id="xtick_61">
     <g id="line2d_61">
      <g>
       <use style="fill:#252627;stroke:#252627;stroke-width:0.6;" x="510.939196" xlink:href="#mcb08094e62" y="437.3688"/>
      </g>
     </g>
    </g>
    <g id="xtick_62">
     <g id="line2d_62">
      <g>
       <use style="fill:#252627;stroke:#252627;stroke-width:0.6;" x="520.753266" xlink:href="#mcb08094e62" y="437.3688"/>
      </g>
     </g>
    </g>
    <g id="xtick_63">
     <g id="line2d_63">
      <g>
       <use style="fill:#252627;stroke:#252627;stroke-width:0.6;" x="530.567337" xlink:href="#mcb08094e62" y="437.3688"/>
      </g>
     </g>
    </g>
    <g id="xtick_64">
     <g id="line2d_64">
      <g>
       <use style="fill:#252627;stroke:#252627;stroke-width:0.6;" x="540.381407" xlink:href="#mcb08094e62" y="437.3688"/>
      </g>
     </g>
    </g>
    <g id="xtick_65">
     <g id="line2d_65">
      <g>
       <use style="fill:#252627;stroke:#252627;stroke-width:0.6;" x="550.195477" xlink:href="#mcb08094e62" y="437.3688"/>
      </g>
     </g>
    </g>
    <g id="xtick_66">
     <g id="line2d_66">
      <g>
       <use style="fill:#252627;stroke:#252627;stroke-width:0.6;" x="560.009548" xlink:href="#mcb08094e62" y="437.3688"/>
      </g>
     </g>
    </g>
    <g id="xtick_67">
     <g id="line2d_67">
      <g>
       <use style="fill:#252627;stroke:#252627;stroke-width:0.6;" x="569.823618" xlink:href="#mcb08094e62" y="437.3688"/>
      </g>
     </g>
    </g>
    <g id="xtick_68">
     <g id="line2d_68">
      <g>
       <use style="fill:#252627;stroke:#252627;stroke-width:0.6;" x="589.451759" xlink:href="#mcb08094e62" y="437.3688"/>
      </g>
     </g>
    </g>
    <g id="xtick_69">
     <g id="line2d_69">
      <g>
       <use style="fill:#252627;stroke:#252627;stroke-width:0.6;" x="599.265829" xlink:href="#mcb08094e62" y="437.3688"/>
      </g>
     </g>
    </g>
    <g id="xtick_70">
     <g id="line2d_70">
      <g>
       <use style="fill:#252627;stroke:#252627;stroke-width:0.6;" x="609.079899" xlink:href="#mcb08094e62" y="437.3688"/>
      </g>
     </g>
    </g>
    <g id="text_15">
     <!-- date -->
     <g style="fill:#252627;" transform="translate(326.06 493.9278)scale(0.16 -0.16)">
      <defs>
       <path d="M 45.40625 46.390625 
L 45.40625 75.984375 
L 54.390625 75.984375 
L 54.390625 0 
L 45.40625 0 
L 45.40625 8.203125 
Q 42.578125 3.328125 38.25 0.953125 
Q 33.9375 -1.421875 27.875 -1.421875 
Q 17.96875 -1.421875 11.734375 6.484375 
Q 5.515625 14.40625 5.515625 27.296875 
Q 5.515625 40.1875 11.734375 48.09375 
Q 17.96875 56 27.875 56 
Q 33.9375 56 38.25 53.625 
Q 42.578125 51.265625 45.40625 46.390625 
z
M 14.796875 27.296875 
Q 14.796875 17.390625 18.875 11.75 
Q 22.953125 6.109375 30.078125 6.109375 
Q 37.203125 6.109375 41.296875 11.75 
Q 45.40625 17.390625 45.40625 27.296875 
Q 45.40625 37.203125 41.296875 42.84375 
Q 37.203125 48.484375 30.078125 48.484375 
Q 22.953125 48.484375 18.875 42.84375 
Q 14.796875 37.203125 14.796875 27.296875 
z
" id="DejaVuSans-100"/>
      </defs>
      <use xlink:href="#DejaVuSans-100"/>
      <use x="63.476562" xlink:href="#DejaVuSans-97"/>
      <use x="124.755859" xlink:href="#DejaVuSans-116"/>
      <use x="163.964844" xlink:href="#DejaVuSans-101"/>
     </g>
    </g>
   </g>
   <g id="matplotlib.axis_2">
    <g id="ytick_1">
     <g id="line2d_71">
      <defs>
       <path d="M 0 0 
L -3.5 0 
" id="m5b55065a30" style="stroke:#252627;stroke-width:0.8;"/>
      </defs>
      <g>
       <use style="fill:#252627;stroke:#252627;stroke-width:0.8;" x="65.1" xlink:href="#m5b55065a30" y="390.483703"/>
      </g>
     </g>
     <g id="text_16">
      <!-- 0 -->
      <g style="fill:#252627;" transform="translate(47.92 396.562453)scale(0.16 -0.16)">
       <use xlink:href="#DejaVuSans-48"/>
      </g>
     </g>
    </g>
    <g id="ytick_2">
     <g id="line2d_72">
      <g>
       <use style="fill:#252627;stroke:#252627;stroke-width:0.8;" x="65.1" xlink:href="#m5b55065a30" y="336.40337"/>
      </g>
     </g>
     <g id="text_17">
      <!-- 10000 -->
      <g style="fill:#252627;" transform="translate(7.2 342.48212)scale(0.16 -0.16)">
       <use xlink:href="#DejaVuSans-49"/>
       <use x="63.623047" xlink:href="#DejaVuSans-48"/>
       <use x="127.246094" xlink:href="#DejaVuSans-48"/>
       <use x="190.869141" xlink:href="#DejaVuSans-48"/>
       <use x="254.492188" xlink:href="#DejaVuSans-48"/>
      </g>
     </g>
    </g>
    <g id="ytick_3">
     <g id="line2d_73">
      <g>
       <use style="fill:#252627;stroke:#252627;stroke-width:0.8;" x="65.1" xlink:href="#m5b55065a30" y="282.323037"/>
      </g>
     </g>
     <g id="text_18">
      <!-- 20000 -->
      <g style="fill:#252627;" transform="translate(7.2 288.401787)scale(0.16 -0.16)">
       <use xlink:href="#DejaVuSans-50"/>
       <use x="63.623047" xlink:href="#DejaVuSans-48"/>
       <use x="127.246094" xlink:href="#DejaVuSans-48"/>
       <use x="190.869141" xlink:href="#DejaVuSans-48"/>
       <use x="254.492188" xlink:href="#DejaVuSans-48"/>
      </g>
     </g>
    </g>
    <g id="ytick_4">
     <g id="line2d_74">
      <g>
       <use style="fill:#252627;stroke:#252627;stroke-width:0.8;" x="65.1" xlink:href="#m5b55065a30" y="228.242705"/>
      </g>
     </g>
     <g id="text_19">
      <!-- 30000 -->
      <g style="fill:#252627;" transform="translate(7.2 234.321455)scale(0.16 -0.16)">
       <defs>
        <path d="M 40.578125 39.3125 
Q 47.65625 37.796875 51.625 33 
Q 55.609375 28.21875 55.609375 21.1875 
Q 55.609375 10.40625 48.1875 4.484375 
Q 40.765625 -1.421875 27.09375 -1.421875 
Q 22.515625 -1.421875 17.65625 -0.515625 
Q 12.796875 0.390625 7.625 2.203125 
L 7.625 11.71875 
Q 11.71875 9.328125 16.59375 8.109375 
Q 21.484375 6.890625 26.8125 6.890625 
Q 36.078125 6.890625 40.9375 10.546875 
Q 45.796875 14.203125 45.796875 21.1875 
Q 45.796875 27.640625 41.28125 31.265625 
Q 36.765625 34.90625 28.71875 34.90625 
L 20.21875 34.90625 
L 20.21875 43.015625 
L 29.109375 43.015625 
Q 36.375 43.015625 40.234375 45.921875 
Q 44.09375 48.828125 44.09375 54.296875 
Q 44.09375 59.90625 40.109375 62.90625 
Q 36.140625 65.921875 28.71875 65.921875 
Q 24.65625 65.921875 20.015625 65.03125 
Q 15.375 64.15625 9.8125 62.3125 
L 9.8125 71.09375 
Q 15.4375 72.65625 20.34375 73.4375 
Q 25.25 74.21875 29.59375 74.21875 
Q 40.828125 74.21875 47.359375 69.109375 
Q 53.90625 64.015625 53.90625 55.328125 
Q 53.90625 49.265625 50.4375 45.09375 
Q 46.96875 40.921875 40.578125 39.3125 
z
" id="DejaVuSans-51"/>
       </defs>
       <use xlink:href="#DejaVuSans-51"/>
       <use x="63.623047" xlink:href="#DejaVuSans-48"/>
       <use x="127.246094" xlink:href="#DejaVuSans-48"/>
       <use x="190.869141" xlink:href="#DejaVuSans-48"/>
       <use x="254.492188" xlink:href="#DejaVuSans-48"/>
      </g>
     </g>
    </g>
    <g id="ytick_5">
     <g id="line2d_75">
      <g>
       <use style="fill:#252627;stroke:#252627;stroke-width:0.8;" x="65.1" xlink:href="#m5b55065a30" y="174.162372"/>
      </g>
     </g>
     <g id="text_20">
      <!-- 40000 -->
      <g style="fill:#252627;" transform="translate(7.2 180.241122)scale(0.16 -0.16)">
       <defs>
        <path d="M 37.796875 64.3125 
L 12.890625 25.390625 
L 37.796875 25.390625 
z
M 35.203125 72.90625 
L 47.609375 72.90625 
L 47.609375 25.390625 
L 58.015625 25.390625 
L 58.015625 17.1875 
L 47.609375 17.1875 
L 47.609375 0 
L 37.796875 0 
L 37.796875 17.1875 
L 4.890625 17.1875 
L 4.890625 26.703125 
z
" id="DejaVuSans-52"/>
       </defs>
       <use xlink:href="#DejaVuSans-52"/>
       <use x="63.623047" xlink:href="#DejaVuSans-48"/>
       <use x="127.246094" xlink:href="#DejaVuSans-48"/>
       <use x="190.869141" xlink:href="#DejaVuSans-48"/>
       <use x="254.492188" xlink:href="#DejaVuSans-48"/>
      </g>
     </g>
    </g>
    <g id="ytick_6">
     <g id="line2d_76">
      <g>
       <use style="fill:#252627;stroke:#252627;stroke-width:0.8;" x="65.1" xlink:href="#m5b55065a30" y="120.082039"/>
      </g>
     </g>
     <g id="text_21">
      <!-- 50000 -->
      <g style="fill:#252627;" transform="translate(7.2 126.160789)scale(0.16 -0.16)">
       <defs>
        <path d="M 10.796875 72.90625 
L 49.515625 72.90625 
L 49.515625 64.59375 
L 19.828125 64.59375 
L 19.828125 46.734375 
Q 21.96875 47.46875 24.109375 47.828125 
Q 26.265625 48.1875 28.421875 48.1875 
Q 40.625 48.1875 47.75 41.5 
Q 54.890625 34.8125 54.890625 23.390625 
Q 54.890625 11.625 47.5625 5.09375 
Q 40.234375 -1.421875 26.90625 -1.421875 
Q 22.3125 -1.421875 17.546875 -0.640625 
Q 12.796875 0.140625 7.71875 1.703125 
L 7.71875 11.625 
Q 12.109375 9.234375 16.796875 8.0625 
Q 21.484375 6.890625 26.703125 6.890625 
Q 35.15625 6.890625 40.078125 11.328125 
Q 45.015625 15.765625 45.015625 23.390625 
Q 45.015625 31 40.078125 35.4375 
Q 35.15625 39.890625 26.703125 39.890625 
Q 22.75 39.890625 18.8125 39.015625 
Q 14.890625 38.140625 10.796875 36.28125 
z
" id="DejaVuSans-53"/>
       </defs>
       <use xlink:href="#DejaVuSans-53"/>
       <use x="63.623047" xlink:href="#DejaVuSans-48"/>
       <use x="127.246094" xlink:href="#DejaVuSans-48"/>
       <use x="190.869141" xlink:href="#DejaVuSans-48"/>
       <use x="254.492188" xlink:href="#DejaVuSans-48"/>
      </g>
     </g>
    </g>
    <g id="ytick_7">
     <g id="line2d_77">
      <g>
       <use style="fill:#252627;stroke:#252627;stroke-width:0.8;" x="65.1" xlink:href="#m5b55065a30" y="66.001706"/>
      </g>
     </g>
     <g id="text_22">
      <!-- 60000 -->
      <g style="fill:#252627;" transform="translate(7.2 72.080456)scale(0.16 -0.16)">
       <defs>
        <path d="M 33.015625 40.375 
Q 26.375 40.375 22.484375 35.828125 
Q 18.609375 31.296875 18.609375 23.390625 
Q 18.609375 15.53125 22.484375 10.953125 
Q 26.375 6.390625 33.015625 6.390625 
Q 39.65625 6.390625 43.53125 10.953125 
Q 47.40625 15.53125 47.40625 23.390625 
Q 47.40625 31.296875 43.53125 35.828125 
Q 39.65625 40.375 33.015625 40.375 
z
M 52.59375 71.296875 
L 52.59375 62.3125 
Q 48.875 64.0625 45.09375 64.984375 
Q 41.3125 65.921875 37.59375 65.921875 
Q 27.828125 65.921875 22.671875 59.328125 
Q 17.53125 52.734375 16.796875 39.40625 
Q 19.671875 43.65625 24.015625 45.921875 
Q 28.375 48.1875 33.59375 48.1875 
Q 44.578125 48.1875 50.953125 41.515625 
Q 57.328125 34.859375 57.328125 23.390625 
Q 57.328125 12.15625 50.6875 5.359375 
Q 44.046875 -1.421875 33.015625 -1.421875 
Q 20.359375 -1.421875 13.671875 8.265625 
Q 6.984375 17.96875 6.984375 36.375 
Q 6.984375 53.65625 15.1875 63.9375 
Q 23.390625 74.21875 37.203125 74.21875 
Q 40.921875 74.21875 44.703125 73.484375 
Q 48.484375 72.75 52.59375 71.296875 
z
" id="DejaVuSans-54"/>
       </defs>
       <use xlink:href="#DejaVuSans-54"/>
       <use x="63.623047" xlink:href="#DejaVuSans-48"/>
       <use x="127.246094" xlink:href="#DejaVuSans-48"/>
       <use x="190.869141" xlink:href="#DejaVuSans-48"/>
       <use x="254.492188" xlink:href="#DejaVuSans-48"/>
      </g>
     </g>
    </g>
   </g>
   <g id="line2d_78">
    <path clip-path="url(#p0ec3f1a1a7)" d="M 73.51206 390.482929 
L 108.562312 390.39254 
L 115.572362 390.132181 
L 116.974372 390.028655 
L 118.376382 389.747437 
L 121.180402 388.896061 
L 122.582412 388.924642 
L 123.984422 386.750613 
L 125.386432 385.932459 
L 126.788442 384.979098 
L 128.190452 383.631725 
L 129.592462 382.716994 
L 130.994472 381.496325 
L 132.396482 378.365074 
L 133.798492 378.75754 
L 135.200503 375.81789 
L 136.602513 374.282782 
L 138.004523 371.019418 
L 139.406533 368.745729 
L 140.808543 362.976125 
L 142.210553 359.717401 
L 143.612563 355.47905 
L 145.014573 353.507433 
L 146.416583 350.818099 
L 147.818593 349.67623 
L 149.220603 347.190076 
L 150.622613 348.298723 
L 152.024623 348.549039 
L 153.426633 349.166329 
L 154.828643 349.588928 
L 156.230653 350.668215 
L 159.034673 354.930519 
L 160.436683 356.411546 
L 161.838693 358.686787 
L 164.642714 362.00732 
L 167.446734 364.661117 
L 168.848744 366.843643 
L 170.250754 367.751419 
L 171.652764 365.972949 
L 173.054774 365.323985 
L 174.456784 368.31154 
L 175.858794 365.882559 
L 177.260804 367.220664 
L 178.662814 366.041712 
L 180.064824 366.730847 
L 181.466834 368.792855 
L 182.868844 381.09613 
L 184.270854 379.529347 
L 185.672864 383.56142 
L 187.074874 383.333509 
L 188.476884 385.388562 
L 189.878894 386.985479 
L 191.280905 390.166175 
L 192.682915 381.038189 
L 194.084925 382.234905 
L 195.486935 382.887736 
L 196.888945 383.881267 
L 198.290955 383.873539 
L 199.692965 384.760457 
L 201.094975 384.293825 
L 202.496985 384.58045 
L 203.898995 385.078757 
L 205.301005 385.165286 
L 206.703015 383.20217 
L 208.105025 383.761517 
L 210.909045 384.231243 
L 212.311055 384.823812 
L 213.713065 384.98296 
L 215.115075 385.57939 
L 216.517085 387.262062 
L 219.321106 387.498468 
L 220.723116 387.782006 
L 222.125126 386.898177 
L 223.527136 386.936033 
L 224.929146 386.563652 
L 226.331156 387.552549 
L 227.733166 387.221885 
L 229.135176 387.62208 
L 230.537186 386.722032 
L 231.939196 387.594266 
L 233.341206 387.4413 
L 234.743216 387.619765 
L 236.145226 387.209523 
L 237.547236 387.646032 
L 238.949246 387.341635 
L 240.351256 388.356026 
L 243.155276 388.875197 
L 250.165327 388.902237 
L 252.969347 388.710641 
L 255.773367 388.635702 
L 258.577387 388.627201 
L 259.979397 388.505136 
L 261.381407 388.655788 
L 265.587437 388.633382 
L 268.391457 388.627201 
L 269.793467 388.77013 
L 273.999497 388.553808 
L 276.803518 388.537584 
L 281.009548 388.444101 
L 282.411558 388.879837 
L 283.813568 389.112382 
L 285.215578 388.305812 
L 289.421608 388.202286 
L 290.823618 387.885527 
L 293.627638 387.885527 
L 295.029648 387.266696 
L 296.431658 387.015607 
L 297.833668 386.635503 
L 299.235678 386.003531 
L 300.637688 385.580163 
L 303.441709 385.580163 
L 304.843719 383.620909 
L 306.245729 383.086287 
L 307.647739 382.713906 
L 309.049749 381.745094 
L 310.451759 381.084541 
L 313.255779 381.084541 
L 314.657789 379.709354 
L 316.059799 379.346242 
L 317.461809 378.82553 
L 318.863819 378.691102 
L 320.265829 378.044453 
L 323.069849 378.044453 
L 324.471859 376.367189 
L 325.873869 373.329421 
L 327.275879 372.617108 
L 330.079899 370.520332 
L 334.28593 370.453894 
L 335.68794 372.097936 
L 337.08995 371.928741 
L 338.49196 369.254084 
L 339.89397 368.503135 
L 342.69799 368.503135 
L 344.1 362.592155 
L 345.50201 361.447199 
L 346.90402 358.743955 
L 348.30603 359.138742 
L 349.70804 357.076735 
L 352.51206 357.076735 
L 353.91407 354.671706 
L 355.31608 353.124236 
L 356.71809 352.641374 
L 358.120101 350.618001 
L 359.522111 349.35793 
L 362.326131 349.35793 
L 363.728141 346.120832 
L 365.130151 345.349804 
L 366.532161 344.35704 
L 367.934171 344.89707 
L 369.336181 344.358587 
L 372.140201 344.358587 
L 373.542211 342.05013 
L 374.944221 341.394211 
L 376.346231 341.174029 
L 379.150251 338.460743 
L 381.954271 338.460743 
L 383.356281 337.808685 
L 384.758291 337.443259 
L 386.160302 335.645472 
L 387.562312 335.238323 
L 388.964322 333.534024 
L 391.768342 333.534024 
L 393.170352 330.425173 
L 394.572362 329.372927 
L 395.974372 329.298761 
L 397.376382 329.791665 
L 398.778392 331.427206 
L 401.582412 331.427206 
L 402.984422 331.151396 
L 404.386432 339.494445 
L 405.788442 332.052223 
L 407.190452 333.005578 
L 408.592462 333.73721 
L 411.396482 333.73721 
L 412.798492 340.153457 
L 414.200503 330.884088 
L 415.602513 338.942826 
L 417.004523 336.622011 
L 418.406533 335.491732 
L 421.210553 335.491732 
L 422.612563 332.110938 
L 424.014573 335.881111 
L 425.416583 334.738469 
L 426.818593 334.047014 
L 428.220603 332.194373 
L 431.024623 332.194373 
L 432.426633 324.44312 
L 433.828643 319.224368 
L 435.230653 315.359166 
L 436.632663 309.435055 
L 438.034673 305.830985 
L 440.838693 305.830985 
L 442.240704 294.783919 
L 443.642714 291.272559 
L 446.446734 287.111467 
L 447.848744 282.673786 
L 450.652764 282.673786 
L 452.054774 280.486626 
L 453.456784 280.292705 
L 454.858794 276.215821 
L 456.260804 277.507568 
L 457.662814 279.886334 
L 460.466834 279.886334 
L 461.868844 281.920523 
L 463.270854 296.343747 
L 464.672864 287.498525 
L 466.074874 289.350393 
L 467.476884 290.23499 
L 470.280905 290.23499 
L 471.682915 301.138358 
L 473.084925 290.972029 
L 474.486935 307.329783 
L 475.888945 309.862289 
L 477.290955 314.66385 
L 480.094975 314.66385 
L 481.496985 324.233748 
L 482.898995 324.953017 
L 484.301005 328.890065 
L 485.703015 331.937108 
L 487.105025 335.261502 
L 489.909045 335.261502 
L 491.311055 339.825108 
L 492.713065 342.89301 
L 494.115075 343.581377 
L 496.919095 346.880277 
L 499.723116 346.880277 
L 501.125126 348.655653 
L 502.527136 355.034818 
L 503.929146 354.693339 
L 505.331156 356.371376 
L 506.733166 355.000823 
L 509.537186 355.000823 
L 510.939196 352.197915 
L 512.341206 344.218751 
L 513.743216 343.210537 
L 515.145226 339.984261 
L 516.547236 338.983002 
L 519.351256 338.983002 
L 520.753266 338.439111 
L 522.155276 338.187248 
L 523.557286 337.176719 
L 524.959296 336.766482 
L 526.361307 345.894468 
L 529.165327 345.894468 
L 530.567337 344.00243 
L 531.969347 341.348632 
L 533.371357 338.003375 
L 534.773367 333.84305 
L 538.979397 333.84305 
L 540.381407 329.117202 
L 541.783417 321.691973 
L 543.185427 334.606356 
L 545.989447 296.156013 
L 548.793467 296.156013 
L 550.195477 272.327445 
L 551.597487 270.984712 
L 552.999497 240.955444 
L 554.401508 245.963283 
L 555.803518 234.574738 
L 558.607538 234.574738 
L 560.009548 216.909787 
L 561.411558 210.070166 
L 562.813568 207.978804 
L 564.215578 201.428129 
L 565.617588 199.351444 
L 568.421608 199.351444 
L 569.823618 191.984929 
L 571.225628 190.32853 
L 572.627638 191.325923 
L 574.029648 198.632949 
L 575.431658 202.31582 
L 578.235678 202.31582 
L 579.637688 213.236959 
L 581.039698 218.931618 
L 582.441709 225.644528 
L 583.843719 229.460285 
L 585.245729 236.840704 
L 588.049749 236.840704 
L 589.451759 262.019734 
L 593.657789 291.571548 
L 595.059799 302.375251 
L 597.863819 302.375251 
L 599.265829 315.388526 
L 600.667839 320.290519 
L 602.069849 325.91874 
L 604.873869 330.92812 
L 607.677889 330.92812 
L 609.079899 338.191882 
L 610.48191 340.197489 
L 611.88392 341.446745 
L 613.28593 345.268683 
L 614.68794 347.659034 
L 617.49196 347.659034 
L 618.89397 351.422252 
L 620.29598 414.625163 
L 621.69799 417.000837 
L 623.1 419.7288 
L 623.1 419.7288 
" style="fill:none;stroke:#bb0a21;stroke-linecap:square;stroke-width:2;"/>
   </g>
   <g id="line2d_79">
    <path clip-path="url(#p0ec3f1a1a7)" d="M 72.11005 390.476748 
L 108.562312 390.403356 
L 118.376382 390.100506 
L 119.778392 389.942899 
L 126.788442 388.479642 
L 129.592462 387.723286 
L 132.396482 386.818603 
L 135.200503 385.560072 
L 136.602513 384.829988 
L 142.210553 379.330791 
L 143.612563 377.792595 
L 146.416583 375.372884 
L 149.220603 372.182145 
L 150.622613 370.438443 
L 153.426633 367.708155 
L 154.828643 366.757887 
L 156.230653 366.172273 
L 159.034673 364.672707 
L 160.436683 364.52669 
L 161.838693 364.544455 
L 163.240704 365.018821 
L 164.642714 365.374204 
L 166.044724 365.459959 
L 168.848744 367.197485 
L 170.250754 367.246157 
L 171.652764 366.908539 
L 173.054774 366.427224 
L 174.456784 365.559624 
L 175.858794 365.311628 
L 177.260804 364.800953 
L 180.064824 364.15817 
L 181.466834 364.293371 
L 182.868844 364.300326 
L 184.270854 365.051269 
L 185.672864 365.350252 
L 188.476884 365.512493 
L 189.878894 365.554989 
L 192.682915 365.906512 
L 195.486935 366.70226 
L 196.888945 367.722837 
L 198.290955 368.524768 
L 199.692965 369.771709 
L 201.094975 370.693389 
L 202.496985 371.989776 
L 203.898995 372.824154 
L 205.301005 373.330195 
L 206.703015 373.171042 
L 208.105025 373.398179 
L 209.507035 373.812283 
L 210.909045 374.703062 
L 212.311055 375.113299 
L 213.713065 375.173561 
L 215.115075 375.556758 
L 216.517085 376.338608 
L 217.919095 376.598961 
L 219.321106 377.053236 
L 220.723116 377.102682 
L 224.929146 378.273137 
L 226.331156 379.017899 
L 227.733166 380.098732 
L 230.537186 381.428335 
L 233.341206 382.149923 
L 236.145226 382.500672 
L 237.547236 382.646689 
L 241.753266 383.694301 
L 248.763317 384.844671 
L 250.165327 385.023136 
L 251.567337 385.0664 
L 254.371357 384.925018 
L 261.381407 385.220913 
L 275.401508 386.886587 
L 276.803518 387.25588 
L 279.607538 388.341348 
L 282.411558 388.454144 
L 283.813568 388.367615 
L 285.215578 388.569259 
L 286.617588 388.430197 
L 289.421608 387.494607 
L 290.823618 387.47761 
L 295.029648 387.083597 
L 296.431658 386.576783 
L 299.235678 386.650181 
L 300.637688 386.524249 
L 304.843719 386.425358 
L 306.245729 387.039559 
L 309.049749 386.918262 
L 311.853769 386.900497 
L 314.657789 386.803152 
L 330.079899 385.923184 
L 331.48191 385.926277 
L 332.88392 385.643513 
L 334.28593 385.739311 
L 335.68794 385.372338 
L 338.49196 385.12743 
L 339.89397 384.694019 
L 341.29598 384.480012 
L 345.50201 384.585085 
L 346.90402 384.745779 
L 348.30603 384.70947 
L 349.70804 385.019269 
L 351.11005 384.795225 
L 352.51206 384.843897 
L 353.91407 384.646115 
L 355.31608 384.57813 
L 359.522111 383.883582 
L 360.924121 384.055098 
L 362.326131 383.511201 
L 363.728141 383.172815 
L 365.130151 383.071609 
L 367.934171 382.604198 
L 370.738191 381.524138 
L 372.140201 380.570004 
L 373.542211 379.381784 
L 377.748241 376.702487 
L 380.552261 374.197027 
L 381.954271 373.925852 
L 383.356281 374.179256 
L 384.758291 373.689439 
L 386.160302 372.665006 
L 387.562312 372.29494 
L 391.768342 370.540423 
L 394.572362 367.779232 
L 395.974372 366.095019 
L 397.376382 363.596508 
L 398.778392 361.627211 
L 401.582412 358.983456 
L 402.984422 359.232225 
L 404.386432 357.517105 
L 405.788442 356.79861 
L 407.190452 356.578422 
L 408.592462 356.488806 
L 409.994472 351.208245 
L 411.396482 337.86972 
L 412.798492 331.266512 
L 415.602513 320.097376 
L 417.004523 311.891843 
L 418.406533 306.565704 
L 419.808543 304.796503 
L 421.210553 312.586391 
L 422.612563 311.498603 
L 424.014573 309.418057 
L 425.416583 305.108628 
L 426.818593 303.99148 
L 428.220603 302.624794 
L 429.622613 301.843717 
L 431.024623 298.666887 
L 432.426633 294.94384 
L 433.828643 291.76469 
L 435.230653 286.390652 
L 436.632663 284.643857 
L 438.034673 280.856687 
L 439.436683 275.566857 
L 440.838693 273.401329 
L 442.240704 271.802092 
L 443.642714 270.597648 
L 445.044724 272.137391 
L 446.446734 270.730534 
L 447.848744 267.749161 
L 449.250754 268.609812 
L 450.652764 265.933608 
L 452.054774 267.426994 
L 453.456784 269.625748 
L 454.858794 269.245639 
L 456.260804 268.406621 
L 457.662814 269.253368 
L 459.064824 266.889284 
L 460.466834 268.96056 
L 461.868844 267.083199 
L 463.270854 266.795027 
L 464.672864 268.499331 
L 466.074874 261.273425 
L 467.476884 258.187758 
L 468.878894 256.722181 
L 470.280905 253.325163 
L 471.682915 253.310485 
L 473.084925 253.612562 
L 474.486935 256.204557 
L 475.888945 264.379183 
L 478.692965 275.192929 
L 481.496985 284.665489 
L 482.898995 291.399264 
L 484.301005 292.468508 
L 487.105025 300.837055 
L 488.507035 303.950536 
L 489.909045 308.974599 
L 491.311055 311.320912 
L 492.713065 309.657557 
L 494.115075 311.221247 
L 495.517085 313.234582 
L 496.919095 312.028591 
L 498.321106 312.269638 
L 499.723116 308.246061 
L 501.125126 306.433596 
L 502.527136 307.291927 
L 503.929146 306.985216 
L 505.331156 302.260909 
L 506.733166 298.087454 
L 508.135176 293.471314 
L 509.537186 292.568172 
L 510.939196 288.239426 
L 512.341206 283.462586 
L 513.743216 276.76744 
L 515.145226 265.591356 
L 516.547236 260.356379 
L 517.949246 255.956555 
L 519.351256 242.403256 
L 520.753266 232.251604 
L 522.155276 218.065559 
L 523.557286 207.182276 
L 524.959296 204.38787 
L 526.361307 201.109828 
L 527.763317 195.285376 
L 529.165327 198.059697 
L 530.567337 191.923126 
L 531.969347 179.296142 
L 533.371357 170.912144 
L 534.773367 157.871055 
L 536.175377 141.913496 
L 538.979397 106.584361 
L 540.381407 93.092865 
L 541.783417 87.0575 
L 543.185427 77.541676 
L 544.587437 80.046369 
L 545.989447 68.663232 
L 547.391457 66.9288 
L 548.793467 67.030006 
L 550.195477 76.801549 
L 552.999497 100.236104 
L 554.401508 103.313275 
L 555.803518 112.82137 
L 557.205528 127.245363 
L 558.607538 139.881622 
L 560.009548 146.575994 
L 561.411558 155.996788 
L 562.813568 162.695021 
L 564.215578 171.059707 
L 565.617588 183.08408 
L 567.019598 189.091632 
L 568.421608 195.704115 
L 569.823618 207.575521 
L 572.627638 228.365543 
L 574.029648 235.446978 
L 575.431658 244.081287 
L 576.833668 252.001741 
L 578.235678 258.89389 
L 581.039698 264.175998 
L 582.441709 268.930427 
L 583.843719 275.170529 
L 585.245729 282.850704 
L 589.451759 294.325783 
L 590.853769 297.775335 
L 592.255779 302.517407 
L 593.657789 308.073004 
L 595.059799 311.16794 
L 597.863819 318.83267 
L 599.265829 322.202648 
L 600.667839 323.597147 
L 602.069849 323.842055 
L 603.471859 324.960745 
L 606.275879 329.596976 
L 607.677889 330.49007 
L 609.079899 329.807889 
L 610.48191 331.440342 
L 611.88392 333.613598 
L 613.28593 335.216691 
L 614.68794 337.929209 
L 616.08995 340.243847 
L 617.49196 343.164185 
L 618.89397 347.17926 
L 620.29598 348.810945 
L 623.1 354.144039 
L 623.1 354.144039 
" style="fill:none;stroke:#4b88a2;stroke-linecap:square;stroke-width:2;"/>
   </g>
   <g id="line2d_80">
    <path clip-path="url(#p0ec3f1a1a7)" d="M 121.180402 390.475207 
L 130.994472 390.380177 
L 135.200503 390.267381 
L 143.612563 390.173898 
L 145.014573 390.210981 
L 150.622613 389.832419 
L 153.426633 389.742029 
L 154.828643 389.653186 
L 156.230653 389.379691 
L 159.034673 389.024307 
L 160.436683 388.151294 
L 161.838693 387.515466 
L 163.240704 387.160082 
L 164.642714 386.54202 
L 166.044724 386.436947 
L 167.446734 384.903386 
L 168.848744 384.806041 
L 170.250754 384.972917 
L 171.652764 384.894116 
L 173.054774 384.618307 
L 174.456784 384.633757 
L 175.858794 384.21888 
L 177.260804 385.43028 
L 178.662814 384.663112 
L 180.064824 384.476924 
L 181.466834 383.976292 
L 182.868844 384.180256 
L 184.270854 382.054126 
L 185.672864 381.298542 
L 187.074874 380.923847 
L 188.476884 380.167495 
L 191.280905 378.074586 
L 192.682915 375.950771 
L 194.084925 377.193077 
L 195.486935 376.259802 
L 196.888945 376.05739 
L 198.290955 375.032952 
L 199.692965 374.347678 
L 201.094975 373.834688 
L 202.496985 373.959841 
L 203.898995 373.11542 
L 205.301005 373.966796 
L 206.703015 373.911942 
L 208.105025 374.360036 
L 212.311055 372.986395 
L 213.713065 372.308076 
L 215.115075 371.195568 
L 217.919095 369.296575 
L 219.321106 369.072526 
L 220.723116 368.724097 
L 222.125126 369.467312 
L 223.527136 369.459589 
L 224.929146 369.094158 
L 230.537186 364.980965 
L 233.341206 359.644777 
L 234.743216 356.090931 
L 236.145226 354.898844 
L 237.547236 353.080198 
L 238.949246 357.255973 
L 240.351256 358.48437 
L 241.753266 360.264386 
L 243.155276 362.603745 
L 244.557286 365.731134 
L 245.959296 367.571412 
L 247.361307 370.728157 
L 248.763317 367.376723 
L 250.165327 366.078022 
L 251.567337 369.324389 
L 252.969347 368.085949 
L 254.371357 364.81795 
L 257.175377 364.664205 
L 258.577387 365.695598 
L 259.979397 367.61545 
L 261.381407 364.882847 
L 262.783417 366.851371 
L 264.185427 371.014783 
L 266.989447 372.209185 
L 268.391457 372.111067 
L 269.793467 371.776542 
L 272.597487 371.43893 
L 273.999497 371.568722 
L 275.401508 371.232651 
L 279.607538 372.403874 
L 282.411558 372.644148 
L 283.813568 372.483448 
L 285.215578 372.45332 
L 286.617588 371.891658 
L 288.019598 371.606579 
L 289.421608 371.598851 
L 292.225628 372.227729 
L 293.627638 372.244727 
L 295.029648 371.617395 
L 297.833668 371.292913 
L 299.235678 371.062682 
L 303.441709 369.420186 
L 304.843719 369.193049 
L 309.049749 367.684981 
L 310.451759 366.978843 
L 313.255779 373.200402 
L 314.657789 365.733454 
L 316.059799 365.052042 
L 317.461809 364.113359 
L 318.863819 367.625493 
L 320.265829 366.123601 
L 321.667839 366.123601 
L 323.069849 349.622923 
L 324.471859 356.967033 
L 325.873869 355.80662 
L 327.275879 354.218205 
L 328.677889 348.203699 
L 330.079899 346.923541 
L 331.48191 346.923541 
L 332.88392 352.493042 
L 334.28593 351.829401 
L 335.68794 352.017135 
L 337.08995 357.992239 
L 338.49196 357.150132 
L 339.89397 349.984488 
L 341.29598 349.984488 
L 342.69799 353.570788 
L 344.1 349.681638 
L 345.50201 350.454214 
L 346.90402 344.406486 
L 348.30603 344.233429 
L 349.70804 351.265419 
L 351.11005 344.306053 
L 352.51206 344.56718 
L 353.91407 345.380705 
L 355.31608 344.944201 
L 356.71809 345.627155 
L 358.120101 348.02446 
L 359.522111 348.039911 
L 360.924121 348.846481 
L 362.326131 348.610848 
L 365.130151 350.619543 
L 366.532161 352.050357 
L 367.934171 356.682721 
L 369.336181 353.285703 
L 370.738191 354.259923 
L 372.140201 356.284074 
L 373.542211 357.408945 
L 374.944221 359.937584 
L 376.346231 360.306104 
L 377.748241 355.217918 
L 379.150251 359.640916 
L 380.552261 359.718175 
L 381.954271 360.252797 
L 383.356281 359.857237 
L 384.758291 357.81532 
L 386.160302 358.166843 
L 387.562312 358.32599 
L 388.964322 359.556707 
L 390.366332 359.779978 
L 391.768342 359.55516 
L 393.170352 360.140001 
L 394.572362 363.416496 
L 395.974372 360.719434 
L 397.376382 360.897899 
L 398.778392 356.114878 
L 400.180402 360.992924 
L 402.984422 362.356522 
L 404.386432 359.720489 
L 405.788442 363.272026 
L 407.190452 365.657742 
L 408.592462 372.163606 
L 409.994472 369.639596 
L 411.396482 373.933574 
L 412.798492 372.817205 
L 414.200503 374.03942 
L 415.602513 374.135218 
L 417.004523 374.388622 
L 418.406533 374.78727 
L 419.808543 371.537042 
L 421.210553 369.000675 
L 422.612563 372.712905 
L 424.014573 371.961189 
L 425.416583 374.224835 
L 426.818593 371.881615 
L 428.220603 374.162258 
L 429.622613 377.868308 
L 431.024623 377.984965 
L 432.426633 376.960532 
L 433.828643 377.425622 
L 435.230653 374.92093 
L 438.034673 374.927111 
L 439.436683 374.492148 
L 440.838693 372.586201 
L 442.240704 375.001277 
L 443.642714 375.265497 
L 445.044724 376.284527 
L 446.446734 378.854885 
L 447.848744 376.795197 
L 449.250754 377.300464 
L 450.652764 379.831424 
L 452.054774 379.831424 
L 453.456784 381.267641 
L 454.858794 375.58071 
L 456.260804 375.191331 
L 457.662814 377.251019 
L 460.466834 376.958212 
L 461.868844 375.163518 
L 463.270854 374.241059 
L 464.672864 379.942673 
L 466.074874 380.220802 
L 467.476884 378.497181 
L 470.280905 378.980816 
L 471.682915 379.14383 
L 473.084925 379.095158 
L 474.486935 379.281346 
L 475.888945 381.270734 
L 478.692965 378.562077 
L 480.094975 380.299603 
L 481.496985 380.703659 
L 482.898995 380.989516 
L 484.301005 380.820321 
L 487.105025 380.880582 
L 488.507035 380.991058 
L 489.909045 379.320749 
L 491.311055 380.548372 
L 492.713065 380.403129 
L 494.115075 381.857116 
L 495.517085 379.176279 
L 496.919095 382.195508 
L 499.723116 382.635873 
L 501.125126 381.690241 
L 502.527136 382.520758 
L 503.929146 380.427849 
L 505.331156 381.184974 
L 506.733166 381.184974 
L 509.537186 384.106085 
L 510.939196 381.938237 
L 512.341206 381.044365 
L 513.743216 383.137274 
L 515.145226 382.49063 
L 516.547236 382.49063 
L 517.949246 383.905988 
L 519.351256 378.929056 
L 520.753266 380.792507 
L 522.155276 380.946252 
L 523.557286 379.649865 
L 524.959296 382.220228 
L 526.361307 379.262034 
L 527.763317 378.053722 
L 529.165327 383.03066 
L 530.567337 382.649783 
L 531.969347 382.423413 
L 533.371357 382.49295 
L 534.773367 378.907424 
L 536.175377 381.865618 
L 537.577387 383.073924 
L 538.979397 380.785552 
L 540.381407 381.353396 
L 541.783417 382.319893 
L 543.185427 381.58208 
L 544.587437 385.167606 
L 545.989447 381.952146 
L 547.391457 381.952146 
L 548.793467 384.240512 
L 550.195477 378.347303 
L 551.597487 376.673906 
L 552.999497 376.412774 
L 554.401508 376.412774 
L 555.803518 367.42771 
L 557.205528 367.42771 
L 558.607538 363.917123 
L 560.009548 370.873401 
L 561.411558 372.546803 
L 562.813568 365.001823 
L 564.215578 365.001823 
L 565.617588 369.713767 
L 567.019598 369.713767 
L 568.421608 364.702061 
L 569.823618 364.702061 
L 571.225628 354.426025 
L 572.627638 364.1968 
L 574.029648 358.996586 
L 575.431658 362.069896 
L 576.833668 351.766046 
L 578.235678 356.257807 
L 579.637688 356.257807 
L 581.039698 363.075017 
L 582.441709 351.006607 
L 583.843719 356.206815 
L 585.245729 355.434239 
L 586.647739 359.562889 
L 588.049749 353.045435 
L 589.451759 353.045435 
L 590.853769 348.716688 
L 592.255779 360.785104 
L 593.657789 355.590299 
L 595.059799 353.97407 
L 596.461809 353.629503 
L 597.863819 352.936501 
L 599.265829 350.461936 
L 600.667839 358.249504 
L 602.069849 353.437901 
L 603.471859 352.909461 
L 604.873869 352.245046 
L 607.677889 353.391549 
L 609.079899 355.866108 
L 610.48191 353.202268 
L 611.88392 352.806708 
L 613.28593 352.888602 
L 614.68794 348.332718 
L 616.08995 348.501914 
L 617.49196 359.152646 
L 618.89397 354.561999 
L 620.29598 350.665127 
L 621.69799 355.87229 
L 623.1 356.359013 
L 623.1 356.359013 
" style="fill:none;stroke:#d3d4d9;stroke-linecap:square;stroke-width:2;"/>
   </g>
   <g id="patch_3">
    <path d="M 65.1 437.3688 
L 65.1 49.2888 
" style="fill:none;stroke:#000000;stroke-linecap:square;stroke-linejoin:miter;stroke-width:0.8;"/>
   </g>
   <g id="patch_4">
    <path d="M 623.1 437.3688 
L 623.1 49.2888 
" style="fill:none;stroke:#000000;stroke-linecap:square;stroke-linejoin:miter;stroke-width:0.8;"/>
   </g>
   <g id="patch_5">
    <path d="M 65.1 437.3688 
L 623.1 437.3688 
" style="fill:none;stroke:#000000;stroke-linecap:square;stroke-linejoin:miter;stroke-width:0.8;"/>
   </g>
   <g id="patch_6">
    <path d="M 65.1 49.2888 
L 623.1 49.2888 
" style="fill:none;stroke:#000000;stroke-linecap:square;stroke-linejoin:miter;stroke-width:0.8;"/>
   </g>
   <g id="text_23">
    <!-- Latest update:  -->
    <g style="fill:#252627;" transform="translate(47.1 491.690987)scale(0.1 -0.1)">
     <defs>
      <path d="M 9.8125 72.90625 
L 19.671875 72.90625 
L 19.671875 8.296875 
L 55.171875 8.296875 
L 55.171875 0 
L 9.8125 0 
z
" id="DejaVuSans-76"/>
      <path d="M 44.28125 53.078125 
L 44.28125 44.578125 
Q 40.484375 46.53125 36.375 47.5 
Q 32.28125 48.484375 27.875 48.484375 
Q 21.1875 48.484375 17.84375 46.4375 
Q 14.5 44.390625 14.5 40.28125 
Q 14.5 37.15625 16.890625 35.375 
Q 19.28125 33.59375 26.515625 31.984375 
L 29.59375 31.296875 
Q 39.15625 29.25 43.1875 25.515625 
Q 47.21875 21.78125 47.21875 15.09375 
Q 47.21875 7.46875 41.1875 3.015625 
Q 35.15625 -1.421875 24.609375 -1.421875 
Q 20.21875 -1.421875 15.453125 -0.5625 
Q 10.6875 0.296875 5.421875 2 
L 5.421875 11.28125 
Q 10.40625 8.6875 15.234375 7.390625 
Q 20.0625 6.109375 24.8125 6.109375 
Q 31.15625 6.109375 34.5625 8.28125 
Q 37.984375 10.453125 37.984375 14.40625 
Q 37.984375 18.0625 35.515625 20.015625 
Q 33.0625 21.96875 24.703125 23.78125 
L 21.578125 24.515625 
Q 13.234375 26.265625 9.515625 29.90625 
Q 5.8125 33.546875 5.8125 39.890625 
Q 5.8125 47.609375 11.28125 51.796875 
Q 16.75 56 26.8125 56 
Q 31.78125 56 36.171875 55.265625 
Q 40.578125 54.546875 44.28125 53.078125 
z
" id="DejaVuSans-115"/>
      <path id="DejaVuSans-32"/>
      <path d="M 11.71875 12.40625 
L 22.015625 12.40625 
L 22.015625 0 
L 11.71875 0 
z
M 11.71875 51.703125 
L 22.015625 51.703125 
L 22.015625 39.3125 
L 11.71875 39.3125 
z
" id="DejaVuSans-58"/>
     </defs>
     <use xlink:href="#DejaVuSans-76"/>
     <use x="55.712891" xlink:href="#DejaVuSans-97"/>
     <use x="116.992188" xlink:href="#DejaVuSans-116"/>
     <use x="156.201172" xlink:href="#DejaVuSans-101"/>
     <use x="217.724609" xlink:href="#DejaVuSans-115"/>
     <use x="269.824219" xlink:href="#DejaVuSans-116"/>
     <use x="309.033203" xlink:href="#DejaVuSans-32"/>
     <use x="340.820312" xlink:href="#DejaVuSans-117"/>
     <use x="404.199219" xlink:href="#DejaVuSans-112"/>
     <use x="467.675781" xlink:href="#DejaVuSans-100"/>
     <use x="531.152344" xlink:href="#DejaVuSans-97"/>
     <use x="592.431641" xlink:href="#DejaVuSans-116"/>
     <use x="631.640625" xlink:href="#DejaVuSans-101"/>
     <use x="693.164062" xlink:href="#DejaVuSans-58"/>
     <use x="726.855469" xlink:href="#DejaVuSans-32"/>
    </g>
    <!-- 5-3-2021 -->
    <g style="fill:#252627;" transform="translate(47.1 502.8888)scale(0.1 -0.1)">
     <defs>
      <path d="M 4.890625 31.390625 
L 31.203125 31.390625 
L 31.203125 23.390625 
L 4.890625 23.390625 
z
" id="DejaVuSans-45"/>
     </defs>
     <use xlink:href="#DejaVuSans-53"/>
     <use x="63.623047" xlink:href="#DejaVuSans-45"/>
     <use x="99.707031" xlink:href="#DejaVuSans-51"/>
     <use x="163.330078" xlink:href="#DejaVuSans-45"/>
     <use x="199.414062" xlink:href="#DejaVuSans-50"/>
     <use x="263.037109" xlink:href="#DejaVuSans-48"/>
     <use x="326.660156" xlink:href="#DejaVuSans-50"/>
     <use x="390.283203" xlink:href="#DejaVuSans-49"/>
    </g>
   </g>
   <g id="text_24">
    <!-- Daily new cases - Since beginning -->
    <g style="fill:#252627;" transform="translate(180.3705 21.789)scale(0.192 -0.192)">
     <defs>
      <path d="M 9.421875 54.6875 
L 18.40625 54.6875 
L 18.40625 0 
L 9.421875 0 
z
M 9.421875 75.984375 
L 18.40625 75.984375 
L 18.40625 64.59375 
L 9.421875 64.59375 
z
" id="DejaVuSans-105"/>
      <path d="M 4.203125 54.6875 
L 13.1875 54.6875 
L 24.421875 12.015625 
L 35.59375 54.6875 
L 46.1875 54.6875 
L 57.421875 12.015625 
L 68.609375 54.6875 
L 77.59375 54.6875 
L 63.28125 0 
L 52.6875 0 
L 40.921875 44.828125 
L 29.109375 0 
L 18.5 0 
z
" id="DejaVuSans-119"/>
     </defs>
     <use xlink:href="#DejaVuSans-68"/>
     <use x="77.001953" xlink:href="#DejaVuSans-97"/>
     <use x="138.28125" xlink:href="#DejaVuSans-105"/>
     <use x="166.064453" xlink:href="#DejaVuSans-108"/>
     <use x="193.847656" xlink:href="#DejaVuSans-121"/>
     <use x="253.027344" xlink:href="#DejaVuSans-32"/>
     <use x="284.814453" xlink:href="#DejaVuSans-110"/>
     <use x="348.193359" xlink:href="#DejaVuSans-101"/>
     <use x="409.716797" xlink:href="#DejaVuSans-119"/>
     <use x="491.503906" xlink:href="#DejaVuSans-32"/>
     <use x="523.291016" xlink:href="#DejaVuSans-99"/>
     <use x="578.271484" xlink:href="#DejaVuSans-97"/>
     <use x="639.550781" xlink:href="#DejaVuSans-115"/>
     <use x="691.650391" xlink:href="#DejaVuSans-101"/>
     <use x="753.173828" xlink:href="#DejaVuSans-115"/>
     <use x="805.273438" xlink:href="#DejaVuSans-32"/>
     <use x="837.060547" xlink:href="#DejaVuSans-45"/>
     <use x="873.144531" xlink:href="#DejaVuSans-32"/>
     <use x="904.931641" xlink:href="#DejaVuSans-83"/>
     <use x="968.408203" xlink:href="#DejaVuSans-105"/>
     <use x="996.191406" xlink:href="#DejaVuSans-110"/>
     <use x="1059.570312" xlink:href="#DejaVuSans-99"/>
     <use x="1114.550781" xlink:href="#DejaVuSans-101"/>
     <use x="1176.074219" xlink:href="#DejaVuSans-32"/>
     <use x="1207.861328" xlink:href="#DejaVuSans-98"/>
     <use x="1271.337891" xlink:href="#DejaVuSans-101"/>
     <use x="1332.861328" xlink:href="#DejaVuSans-103"/>
     <use x="1396.337891" xlink:href="#DejaVuSans-105"/>
     <use x="1424.121094" xlink:href="#DejaVuSans-110"/>
     <use x="1487.5" xlink:href="#DejaVuSans-110"/>
     <use x="1550.878906" xlink:href="#DejaVuSans-105"/>
     <use x="1578.662109" xlink:href="#DejaVuSans-110"/>
     <use x="1642.041016" xlink:href="#DejaVuSans-103"/>
    </g>
    <!-- 7-day rolling average -->
    <g style="fill:#252627;" transform="translate(241.68 43.2888)scale(0.192 -0.192)">
     <defs>
      <path d="M 8.203125 72.90625 
L 55.078125 72.90625 
L 55.078125 68.703125 
L 28.609375 0 
L 18.3125 0 
L 43.21875 64.59375 
L 8.203125 64.59375 
z
" id="DejaVuSans-55"/>
     </defs>
     <use xlink:href="#DejaVuSans-55"/>
     <use x="63.623047" xlink:href="#DejaVuSans-45"/>
     <use x="99.707031" xlink:href="#DejaVuSans-100"/>
     <use x="163.183594" xlink:href="#DejaVuSans-97"/>
     <use x="224.462891" xlink:href="#DejaVuSans-121"/>
     <use x="283.642578" xlink:href="#DejaVuSans-32"/>
     <use x="315.429688" xlink:href="#DejaVuSans-114"/>
     <use x="354.292969" xlink:href="#DejaVuSans-111"/>
     <use x="415.474609" xlink:href="#DejaVuSans-108"/>
     <use x="443.257812" xlink:href="#DejaVuSans-108"/>
     <use x="471.041016" xlink:href="#DejaVuSans-105"/>
     <use x="498.824219" xlink:href="#DejaVuSans-110"/>
     <use x="562.203125" xlink:href="#DejaVuSans-103"/>
     <use x="625.679688" xlink:href="#DejaVuSans-32"/>
     <use x="657.466797" xlink:href="#DejaVuSans-97"/>
     <use x="718.746094" xlink:href="#DejaVuSans-118"/>
     <use x="777.925781" xlink:href="#DejaVuSans-101"/>
     <use x="839.449219" xlink:href="#DejaVuSans-114"/>
     <use x="880.5625" xlink:href="#DejaVuSans-97"/>
     <use x="941.841797" xlink:href="#DejaVuSans-103"/>
     <use x="1005.318359" xlink:href="#DejaVuSans-101"/>
    </g>
   </g>
   <g id="legend_1">
    <g id="patch_7">
     <path d="M 76.3 132.5438 
L 161.9925 132.5438 
Q 165.1925 132.5438 165.1925 129.3438 
L 165.1925 60.4888 
Q 165.1925 57.2888 161.9925 57.2888 
L 76.3 57.2888 
Q 73.1 57.2888 73.1 60.4888 
L 73.1 129.3438 
Q 73.1 132.5438 76.3 132.5438 
z
" style="fill:#ffffff;opacity:0.2;stroke:#cccccc;stroke-linejoin:miter;"/>
    </g>
    <g id="line2d_81">
     <path d="M 79.5 70.2463 
L 111.5 70.2463 
" style="fill:none;stroke:#bb0a21;stroke-linecap:square;stroke-width:2;"/>
    </g>
    <g id="line2d_82"/>
    <g id="text_25">
     <!-- ESP -->
     <g style="fill:#252627;" transform="translate(124.3 75.8463)scale(0.16 -0.16)">
      <defs>
       <path d="M 9.8125 72.90625 
L 55.90625 72.90625 
L 55.90625 64.59375 
L 19.671875 64.59375 
L 19.671875 43.015625 
L 54.390625 43.015625 
L 54.390625 34.71875 
L 19.671875 34.71875 
L 19.671875 8.296875 
L 56.78125 8.296875 
L 56.78125 0 
L 9.8125 0 
z
" id="DejaVuSans-69"/>
       <path d="M 19.671875 64.796875 
L 19.671875 37.40625 
L 32.078125 37.40625 
Q 38.96875 37.40625 42.71875 40.96875 
Q 46.484375 44.53125 46.484375 51.125 
Q 46.484375 57.671875 42.71875 61.234375 
Q 38.96875 64.796875 32.078125 64.796875 
z
M 9.8125 72.90625 
L 32.078125 72.90625 
Q 44.34375 72.90625 50.609375 67.359375 
Q 56.890625 61.8125 56.890625 51.125 
Q 56.890625 40.328125 50.609375 34.8125 
Q 44.34375 29.296875 32.078125 29.296875 
L 19.671875 29.296875 
L 19.671875 0 
L 9.8125 0 
z
" id="DejaVuSans-80"/>
      </defs>
      <use xlink:href="#DejaVuSans-69"/>
      <use x="63.183594" xlink:href="#DejaVuSans-83"/>
      <use x="126.660156" xlink:href="#DejaVuSans-80"/>
     </g>
    </g>
    <g id="line2d_83">
     <path d="M 79.5 93.7313 
L 111.5 93.7313 
" style="fill:none;stroke:#4b88a2;stroke-linecap:square;stroke-width:2;"/>
    </g>
    <g id="line2d_84"/>
    <g id="text_26">
     <!-- GBR -->
     <g style="fill:#252627;" transform="translate(124.3 99.3313)scale(0.16 -0.16)">
      <defs>
       <path d="M 59.515625 10.40625 
L 59.515625 29.984375 
L 43.40625 29.984375 
L 43.40625 38.09375 
L 69.28125 38.09375 
L 69.28125 6.78125 
Q 63.578125 2.734375 56.6875 0.65625 
Q 49.8125 -1.421875 42 -1.421875 
Q 24.90625 -1.421875 15.25 8.5625 
Q 5.609375 18.5625 5.609375 36.375 
Q 5.609375 54.25 15.25 64.234375 
Q 24.90625 74.21875 42 74.21875 
Q 49.125 74.21875 55.546875 72.453125 
Q 61.96875 70.703125 67.390625 67.28125 
L 67.390625 56.78125 
Q 61.921875 61.421875 55.765625 63.765625 
Q 49.609375 66.109375 42.828125 66.109375 
Q 29.4375 66.109375 22.71875 58.640625 
Q 16.015625 51.171875 16.015625 36.375 
Q 16.015625 21.625 22.71875 14.15625 
Q 29.4375 6.6875 42.828125 6.6875 
Q 48.046875 6.6875 52.140625 7.59375 
Q 56.25 8.5 59.515625 10.40625 
z
" id="DejaVuSans-71"/>
       <path d="M 19.671875 34.8125 
L 19.671875 8.109375 
L 35.5 8.109375 
Q 43.453125 8.109375 47.28125 11.40625 
Q 51.125 14.703125 51.125 21.484375 
Q 51.125 28.328125 47.28125 31.5625 
Q 43.453125 34.8125 35.5 34.8125 
z
M 19.671875 64.796875 
L 19.671875 42.828125 
L 34.28125 42.828125 
Q 41.5 42.828125 45.03125 45.53125 
Q 48.578125 48.25 48.578125 53.8125 
Q 48.578125 59.328125 45.03125 62.0625 
Q 41.5 64.796875 34.28125 64.796875 
z
M 9.8125 72.90625 
L 35.015625 72.90625 
Q 46.296875 72.90625 52.390625 68.21875 
Q 58.5 63.53125 58.5 54.890625 
Q 58.5 48.1875 55.375 44.234375 
Q 52.25 40.28125 46.1875 39.3125 
Q 53.46875 37.75 57.5 32.78125 
Q 61.53125 27.828125 61.53125 20.40625 
Q 61.53125 10.640625 54.890625 5.3125 
Q 48.25 0 35.984375 0 
L 9.8125 0 
z
" id="DejaVuSans-66"/>
       <path d="M 44.390625 34.1875 
Q 47.5625 33.109375 50.5625 29.59375 
Q 53.5625 26.078125 56.59375 19.921875 
L 66.609375 0 
L 56 0 
L 46.6875 18.703125 
Q 43.0625 26.03125 39.671875 28.421875 
Q 36.28125 30.8125 30.421875 30.8125 
L 19.671875 30.8125 
L 19.671875 0 
L 9.8125 0 
L 9.8125 72.90625 
L 32.078125 72.90625 
Q 44.578125 72.90625 50.734375 67.671875 
Q 56.890625 62.453125 56.890625 51.90625 
Q 56.890625 45.015625 53.6875 40.46875 
Q 50.484375 35.9375 44.390625 34.1875 
z
M 19.671875 64.796875 
L 19.671875 38.921875 
L 32.078125 38.921875 
Q 39.203125 38.921875 42.84375 42.21875 
Q 46.484375 45.515625 46.484375 51.90625 
Q 46.484375 58.296875 42.84375 61.546875 
Q 39.203125 64.796875 32.078125 64.796875 
z
" id="DejaVuSans-82"/>
      </defs>
      <use xlink:href="#DejaVuSans-71"/>
      <use x="77.490234" xlink:href="#DejaVuSans-66"/>
      <use x="146.09375" xlink:href="#DejaVuSans-82"/>
     </g>
    </g>
    <g id="line2d_85">
     <path d="M 79.5 117.2163 
L 111.5 117.2163 
" style="fill:none;stroke:#d3d4d9;stroke-linecap:square;stroke-width:2;"/>
    </g>
    <g id="line2d_86"/>
    <g id="text_27">
     <!-- PER -->
     <g style="fill:#252627;" transform="translate(124.3 122.8163)scale(0.16 -0.16)">
      <use xlink:href="#DejaVuSans-80"/>
      <use x="60.302734" xlink:href="#DejaVuSans-69"/>
      <use x="123.486328" xlink:href="#DejaVuSans-82"/>
     </g>
    </g>
   </g>
  </g>
 </g>
 <defs>
  <clipPath id="p0ec3f1a1a7">
   <rect height="388.08" width="558" x="65.1" y="49.2888"/>
  </clipPath>
 </defs>
</svg>
