<?xml version="1.0" encoding="utf-8" standalone="no"?>
<!DOCTYPE svg PUBLIC "-//W3C//DTD SVG 1.1//EN"
  "http://www.w3.org/Graphics/SVG/1.1/DTD/svg11.dtd">
<!-- Created with matplotlib (https://matplotlib.org/) -->
<svg height="521.83255pt" version="1.1" viewBox="0 0 623.3475 521.83255" width="623.3475pt" xmlns="http://www.w3.org/2000/svg" xmlns:xlink="http://www.w3.org/1999/xlink">
 <metadata>
  <rdf:RDF xmlns:cc="http://creativecommons.org/ns#" xmlns:dc="http://purl.org/dc/elements/1.1/" xmlns:rdf="http://www.w3.org/1999/02/22-rdf-syntax-ns#">
   <cc:Work>
    <dc:type rdf:resource="http://purl.org/dc/dcmitype/StillImage"/>
    <dc:date>2021-03-25T09:00:07.013634</dc:date>
    <dc:format>image/svg+xml</dc:format>
    <dc:creator>
     <cc:Agent>
      <dc:title>Matplotlib v3.3.1, https://matplotlib.org/</dc:title>
     </cc:Agent>
    </dc:creator>
   </cc:Work>
  </rdf:RDF>
 </metadata>
 <defs>
  <style type="text/css">*{stroke-linecap:butt;stroke-linejoin:round;}</style>
 </defs>
 <g id="figure_1">
  <g id="patch_1">
   <path d="M 0 521.83255 
L 623.3475 521.83255 
L 623.3475 0 
L 0 0 
z
" style="fill:none;"/>
  </g>
  <g id="axes_1">
   <g id="patch_2">
    <path d="M 58.1475 437.3688 
L 616.1475 437.3688 
L 616.1475 49.2888 
L 58.1475 49.2888 
z
" style="fill:none;"/>
   </g>
   <g id="matplotlib.axis_1">
    <g id="xtick_1">
     <g id="line2d_1">
      <defs>
       <path d="M 0 0 
L 0 3.5 
" id="m6a64a23820" style="stroke:#252627;stroke-width:0.8;"/>
      </defs>
      <g>
       <use style="fill:#252627;stroke:#252627;stroke-width:0.8;" x="58.1475" xlink:href="#m6a64a23820" y="437.3688"/>
      </g>
     </g>
    </g>
    <g id="xtick_2">
     <g id="line2d_2">
      <g>
       <use style="fill:#252627;stroke:#252627;stroke-width:0.8;" x="159.253005" xlink:href="#m6a64a23820" y="437.3688"/>
      </g>
     </g>
     <g id="text_1">
      <!-- Apr -->
      <g style="fill:#252627;" transform="translate(145.413005 456.5263)scale(0.16 -0.16)">
       <defs>
        <path d="M 34.1875 63.1875 
L 20.796875 26.90625 
L 47.609375 26.90625 
z
M 28.609375 72.90625 
L 39.796875 72.90625 
L 67.578125 0 
L 57.328125 0 
L 50.6875 18.703125 
L 17.828125 18.703125 
L 11.1875 0 
L 0.78125 0 
z
" id="DejaVuSans-65"/>
        <path d="M 18.109375 8.203125 
L 18.109375 -20.796875 
L 9.078125 -20.796875 
L 9.078125 54.6875 
L 18.109375 54.6875 
L 18.109375 46.390625 
Q 20.953125 51.265625 25.265625 53.625 
Q 29.59375 56 35.59375 56 
Q 45.5625 56 51.78125 48.09375 
Q 58.015625 40.1875 58.015625 27.296875 
Q 58.015625 14.40625 51.78125 6.484375 
Q 45.5625 -1.421875 35.59375 -1.421875 
Q 29.59375 -1.421875 25.265625 0.953125 
Q 20.953125 3.328125 18.109375 8.203125 
z
M 48.6875 27.296875 
Q 48.6875 37.203125 44.609375 42.84375 
Q 40.53125 48.484375 33.40625 48.484375 
Q 26.265625 48.484375 22.1875 42.84375 
Q 18.109375 37.203125 18.109375 27.296875 
Q 18.109375 17.390625 22.1875 11.75 
Q 26.265625 6.109375 33.40625 6.109375 
Q 40.53125 6.109375 44.609375 11.75 
Q 48.6875 17.390625 48.6875 27.296875 
z
" id="DejaVuSans-112"/>
        <path d="M 41.109375 46.296875 
Q 39.59375 47.171875 37.8125 47.578125 
Q 36.03125 48 33.890625 48 
Q 26.265625 48 22.1875 43.046875 
Q 18.109375 38.09375 18.109375 28.8125 
L 18.109375 0 
L 9.078125 0 
L 9.078125 54.6875 
L 18.109375 54.6875 
L 18.109375 46.1875 
Q 20.953125 51.171875 25.484375 53.578125 
Q 30.03125 56 36.53125 56 
Q 37.453125 56 38.578125 55.875 
Q 39.703125 55.765625 41.0625 55.515625 
z
" id="DejaVuSans-114"/>
       </defs>
       <use xlink:href="#DejaVuSans-65"/>
       <use x="68.408203" xlink:href="#DejaVuSans-112"/>
       <use x="131.884766" xlink:href="#DejaVuSans-114"/>
      </g>
     </g>
    </g>
    <g id="xtick_3">
     <g id="line2d_3">
      <g>
       <use style="fill:#252627;stroke:#252627;stroke-width:0.8;" x="275.716307" xlink:href="#m6a64a23820" y="437.3688"/>
      </g>
     </g>
     <g id="text_2">
      <!-- Jul -->
      <g style="fill:#252627;" transform="translate(266.063807 456.5263)scale(0.16 -0.16)">
       <defs>
        <path d="M 9.8125 72.90625 
L 19.671875 72.90625 
L 19.671875 5.078125 
Q 19.671875 -8.109375 14.671875 -14.0625 
Q 9.671875 -20.015625 -1.421875 -20.015625 
L -5.171875 -20.015625 
L -5.171875 -11.71875 
L -2.09375 -11.71875 
Q 4.4375 -11.71875 7.125 -8.046875 
Q 9.8125 -4.390625 9.8125 5.078125 
z
" id="DejaVuSans-74"/>
        <path d="M 8.5 21.578125 
L 8.5 54.6875 
L 17.484375 54.6875 
L 17.484375 21.921875 
Q 17.484375 14.15625 20.5 10.265625 
Q 23.53125 6.390625 29.59375 6.390625 
Q 36.859375 6.390625 41.078125 11.03125 
Q 45.3125 15.671875 45.3125 23.6875 
L 45.3125 54.6875 
L 54.296875 54.6875 
L 54.296875 0 
L 45.3125 0 
L 45.3125 8.40625 
Q 42.046875 3.421875 37.71875 1 
Q 33.40625 -1.421875 27.6875 -1.421875 
Q 18.265625 -1.421875 13.375 4.4375 
Q 8.5 10.296875 8.5 21.578125 
z
M 31.109375 56 
z
" id="DejaVuSans-117"/>
        <path d="M 9.421875 75.984375 
L 18.40625 75.984375 
L 18.40625 0 
L 9.421875 0 
z
" id="DejaVuSans-108"/>
       </defs>
       <use xlink:href="#DejaVuSans-74"/>
       <use x="29.492188" xlink:href="#DejaVuSans-117"/>
       <use x="92.871094" xlink:href="#DejaVuSans-108"/>
      </g>
     </g>
    </g>
    <g id="xtick_4">
     <g id="line2d_4">
      <g>
       <use style="fill:#252627;stroke:#252627;stroke-width:0.8;" x="393.459427" xlink:href="#m6a64a23820" y="437.3688"/>
      </g>
     </g>
     <g id="text_3">
      <!-- Oct -->
      <g style="fill:#252627;" transform="translate(379.626927 456.5263)scale(0.16 -0.16)">
       <defs>
        <path d="M 39.40625 66.21875 
Q 28.65625 66.21875 22.328125 58.203125 
Q 16.015625 50.203125 16.015625 36.375 
Q 16.015625 22.609375 22.328125 14.59375 
Q 28.65625 6.59375 39.40625 6.59375 
Q 50.140625 6.59375 56.421875 14.59375 
Q 62.703125 22.609375 62.703125 36.375 
Q 62.703125 50.203125 56.421875 58.203125 
Q 50.140625 66.21875 39.40625 66.21875 
z
M 39.40625 74.21875 
Q 54.734375 74.21875 63.90625 63.9375 
Q 73.09375 53.65625 73.09375 36.375 
Q 73.09375 19.140625 63.90625 8.859375 
Q 54.734375 -1.421875 39.40625 -1.421875 
Q 24.03125 -1.421875 14.8125 8.828125 
Q 5.609375 19.09375 5.609375 36.375 
Q 5.609375 53.65625 14.8125 63.9375 
Q 24.03125 74.21875 39.40625 74.21875 
z
" id="DejaVuSans-79"/>
        <path d="M 48.78125 52.59375 
L 48.78125 44.1875 
Q 44.96875 46.296875 41.140625 47.34375 
Q 37.3125 48.390625 33.40625 48.390625 
Q 24.65625 48.390625 19.8125 42.84375 
Q 14.984375 37.3125 14.984375 27.296875 
Q 14.984375 17.28125 19.8125 11.734375 
Q 24.65625 6.203125 33.40625 6.203125 
Q 37.3125 6.203125 41.140625 7.25 
Q 44.96875 8.296875 48.78125 10.40625 
L 48.78125 2.09375 
Q 45.015625 0.34375 40.984375 -0.53125 
Q 36.96875 -1.421875 32.421875 -1.421875 
Q 20.0625 -1.421875 12.78125 6.34375 
Q 5.515625 14.109375 5.515625 27.296875 
Q 5.515625 40.671875 12.859375 48.328125 
Q 20.21875 56 33.015625 56 
Q 37.15625 56 41.109375 55.140625 
Q 45.0625 54.296875 48.78125 52.59375 
z
" id="DejaVuSans-99"/>
        <path d="M 18.3125 70.21875 
L 18.3125 54.6875 
L 36.8125 54.6875 
L 36.8125 47.703125 
L 18.3125 47.703125 
L 18.3125 18.015625 
Q 18.3125 11.328125 20.140625 9.421875 
Q 21.96875 7.515625 27.59375 7.515625 
L 36.8125 7.515625 
L 36.8125 0 
L 27.59375 0 
Q 17.1875 0 13.234375 3.875 
Q 9.28125 7.765625 9.28125 18.015625 
L 9.28125 47.703125 
L 2.6875 47.703125 
L 2.6875 54.6875 
L 9.28125 54.6875 
L 9.28125 70.21875 
z
" id="DejaVuSans-116"/>
       </defs>
       <use xlink:href="#DejaVuSans-79"/>
       <use x="78.710938" xlink:href="#DejaVuSans-99"/>
       <use x="133.691406" xlink:href="#DejaVuSans-116"/>
      </g>
     </g>
    </g>
    <g id="xtick_5">
     <g id="line2d_5">
      <g>
       <use style="fill:#252627;stroke:#252627;stroke-width:0.8;" x="511.202546" xlink:href="#m6a64a23820" y="437.3688"/>
      </g>
     </g>
     <g id="text_4">
      <!-- Jan -->
      <g style="fill:#252627;" transform="translate(498.870046 456.5263)scale(0.16 -0.16)">
       <defs>
        <path d="M 34.28125 27.484375 
Q 23.390625 27.484375 19.1875 25 
Q 14.984375 22.515625 14.984375 16.5 
Q 14.984375 11.71875 18.140625 8.90625 
Q 21.296875 6.109375 26.703125 6.109375 
Q 34.1875 6.109375 38.703125 11.40625 
Q 43.21875 16.703125 43.21875 25.484375 
L 43.21875 27.484375 
z
M 52.203125 31.203125 
L 52.203125 0 
L 43.21875 0 
L 43.21875 8.296875 
Q 40.140625 3.328125 35.546875 0.953125 
Q 30.953125 -1.421875 24.3125 -1.421875 
Q 15.921875 -1.421875 10.953125 3.296875 
Q 6 8.015625 6 15.921875 
Q 6 25.140625 12.171875 29.828125 
Q 18.359375 34.515625 30.609375 34.515625 
L 43.21875 34.515625 
L 43.21875 35.40625 
Q 43.21875 41.609375 39.140625 45 
Q 35.0625 48.390625 27.6875 48.390625 
Q 23 48.390625 18.546875 47.265625 
Q 14.109375 46.140625 10.015625 43.890625 
L 10.015625 52.203125 
Q 14.9375 54.109375 19.578125 55.046875 
Q 24.21875 56 28.609375 56 
Q 40.484375 56 46.34375 49.84375 
Q 52.203125 43.703125 52.203125 31.203125 
z
" id="DejaVuSans-97"/>
        <path d="M 54.890625 33.015625 
L 54.890625 0 
L 45.90625 0 
L 45.90625 32.71875 
Q 45.90625 40.484375 42.875 44.328125 
Q 39.84375 48.1875 33.796875 48.1875 
Q 26.515625 48.1875 22.3125 43.546875 
Q 18.109375 38.921875 18.109375 30.90625 
L 18.109375 0 
L 9.078125 0 
L 9.078125 54.6875 
L 18.109375 54.6875 
L 18.109375 46.1875 
Q 21.34375 51.125 25.703125 53.5625 
Q 30.078125 56 35.796875 56 
Q 45.21875 56 50.046875 50.171875 
Q 54.890625 44.34375 54.890625 33.015625 
z
" id="DejaVuSans-110"/>
       </defs>
       <use xlink:href="#DejaVuSans-74"/>
       <use x="29.492188" xlink:href="#DejaVuSans-97"/>
       <use x="90.771484" xlink:href="#DejaVuSans-110"/>
      </g>
      <!-- 2021 -->
      <g style="fill:#252627;" transform="translate(490.842546 474.4428)scale(0.16 -0.16)">
       <defs>
        <path d="M 19.1875 8.296875 
L 53.609375 8.296875 
L 53.609375 0 
L 7.328125 0 
L 7.328125 8.296875 
Q 12.9375 14.109375 22.625 23.890625 
Q 32.328125 33.6875 34.8125 36.53125 
Q 39.546875 41.84375 41.421875 45.53125 
Q 43.3125 49.21875 43.3125 52.78125 
Q 43.3125 58.59375 39.234375 62.25 
Q 35.15625 65.921875 28.609375 65.921875 
Q 23.96875 65.921875 18.8125 64.3125 
Q 13.671875 62.703125 7.8125 59.421875 
L 7.8125 69.390625 
Q 13.765625 71.78125 18.9375 73 
Q 24.125 74.21875 28.421875 74.21875 
Q 39.75 74.21875 46.484375 68.546875 
Q 53.21875 62.890625 53.21875 53.421875 
Q 53.21875 48.921875 51.53125 44.890625 
Q 49.859375 40.875 45.40625 35.40625 
Q 44.1875 33.984375 37.640625 27.21875 
Q 31.109375 20.453125 19.1875 8.296875 
z
" id="DejaVuSans-50"/>
        <path d="M 31.78125 66.40625 
Q 24.171875 66.40625 20.328125 58.90625 
Q 16.5 51.421875 16.5 36.375 
Q 16.5 21.390625 20.328125 13.890625 
Q 24.171875 6.390625 31.78125 6.390625 
Q 39.453125 6.390625 43.28125 13.890625 
Q 47.125 21.390625 47.125 36.375 
Q 47.125 51.421875 43.28125 58.90625 
Q 39.453125 66.40625 31.78125 66.40625 
z
M 31.78125 74.21875 
Q 44.046875 74.21875 50.515625 64.515625 
Q 56.984375 54.828125 56.984375 36.375 
Q 56.984375 17.96875 50.515625 8.265625 
Q 44.046875 -1.421875 31.78125 -1.421875 
Q 19.53125 -1.421875 13.0625 8.265625 
Q 6.59375 17.96875 6.59375 36.375 
Q 6.59375 54.828125 13.0625 64.515625 
Q 19.53125 74.21875 31.78125 74.21875 
z
" id="DejaVuSans-48"/>
        <path d="M 12.40625 8.296875 
L 28.515625 8.296875 
L 28.515625 63.921875 
L 10.984375 60.40625 
L 10.984375 69.390625 
L 28.421875 72.90625 
L 38.28125 72.90625 
L 38.28125 8.296875 
L 54.390625 8.296875 
L 54.390625 0 
L 12.40625 0 
z
" id="DejaVuSans-49"/>
       </defs>
       <use xlink:href="#DejaVuSans-50"/>
       <use x="63.623047" xlink:href="#DejaVuSans-48"/>
       <use x="127.246094" xlink:href="#DejaVuSans-50"/>
       <use x="190.869141" xlink:href="#DejaVuSans-49"/>
      </g>
     </g>
    </g>
    <g id="xtick_6">
     <g id="line2d_6">
      <g>
       <use style="fill:#252627;stroke:#252627;stroke-width:0.8;" x="616.1475" xlink:href="#m6a64a23820" y="437.3688"/>
      </g>
     </g>
    </g>
    <g id="xtick_7">
     <g id="line2d_7">
      <defs>
       <path d="M 0 0 
L 0 2 
" id="mc677a70bdb" style="stroke:#252627;stroke-width:0.6;"/>
      </defs>
      <g>
       <use style="fill:#252627;stroke:#252627;stroke-width:0.6;" x="82.464014" xlink:href="#mc677a70bdb" y="437.3688"/>
      </g>
     </g>
    </g>
    <g id="xtick_8">
     <g id="line2d_8">
      <g>
       <use style="fill:#252627;stroke:#252627;stroke-width:0.6;" x="119.578693" xlink:href="#mc677a70bdb" y="437.3688"/>
      </g>
     </g>
    </g>
    <g id="xtick_9">
     <g id="line2d_9">
      <g>
       <use style="fill:#252627;stroke:#252627;stroke-width:0.6;" x="197.6475" xlink:href="#mc677a70bdb" y="437.3688"/>
      </g>
     </g>
    </g>
    <g id="xtick_10">
     <g id="line2d_10">
      <g>
       <use style="fill:#252627;stroke:#252627;stroke-width:0.6;" x="237.321812" xlink:href="#mc677a70bdb" y="437.3688"/>
      </g>
     </g>
    </g>
    <g id="xtick_11">
     <g id="line2d_11">
      <g>
       <use style="fill:#252627;stroke:#252627;stroke-width:0.6;" x="315.390619" xlink:href="#mc677a70bdb" y="437.3688"/>
      </g>
     </g>
    </g>
    <g id="xtick_12">
     <g id="line2d_12">
      <g>
       <use style="fill:#252627;stroke:#252627;stroke-width:0.6;" x="355.064931" xlink:href="#mc677a70bdb" y="437.3688"/>
      </g>
     </g>
    </g>
    <g id="xtick_13">
     <g id="line2d_13">
      <g>
       <use style="fill:#252627;stroke:#252627;stroke-width:0.6;" x="433.133739" xlink:href="#mc677a70bdb" y="437.3688"/>
      </g>
     </g>
    </g>
    <g id="xtick_14">
     <g id="line2d_14">
      <g>
       <use style="fill:#252627;stroke:#252627;stroke-width:0.6;" x="471.528234" xlink:href="#mc677a70bdb" y="437.3688"/>
      </g>
     </g>
    </g>
    <g id="xtick_15">
     <g id="line2d_15">
      <g>
       <use style="fill:#252627;stroke:#252627;stroke-width:0.6;" x="550.876858" xlink:href="#mc677a70bdb" y="437.3688"/>
      </g>
     </g>
    </g>
    <g id="xtick_16">
     <g id="line2d_16">
      <g>
       <use style="fill:#252627;stroke:#252627;stroke-width:0.6;" x="586.71172" xlink:href="#mc677a70bdb" y="437.3688"/>
      </g>
     </g>
    </g>
    <g id="text_5">
     <!-- date -->
     <g style="fill:#252627;" transform="translate(319.1075 493.9278)scale(0.16 -0.16)">
      <defs>
       <path d="M 45.40625 46.390625 
L 45.40625 75.984375 
L 54.390625 75.984375 
L 54.390625 0 
L 45.40625 0 
L 45.40625 8.203125 
Q 42.578125 3.328125 38.25 0.953125 
Q 33.9375 -1.421875 27.875 -1.421875 
Q 17.96875 -1.421875 11.734375 6.484375 
Q 5.515625 14.40625 5.515625 27.296875 
Q 5.515625 40.1875 11.734375 48.09375 
Q 17.96875 56 27.875 56 
Q 33.9375 56 38.25 53.625 
Q 42.578125 51.265625 45.40625 46.390625 
z
M 14.796875 27.296875 
Q 14.796875 17.390625 18.875 11.75 
Q 22.953125 6.109375 30.078125 6.109375 
Q 37.203125 6.109375 41.296875 11.75 
Q 45.40625 17.390625 45.40625 27.296875 
Q 45.40625 37.203125 41.296875 42.84375 
Q 37.203125 48.484375 30.078125 48.484375 
Q 22.953125 48.484375 18.875 42.84375 
Q 14.796875 37.203125 14.796875 27.296875 
z
" id="DejaVuSans-100"/>
       <path d="M 56.203125 29.59375 
L 56.203125 25.203125 
L 14.890625 25.203125 
Q 15.484375 15.921875 20.484375 11.0625 
Q 25.484375 6.203125 34.421875 6.203125 
Q 39.59375 6.203125 44.453125 7.46875 
Q 49.3125 8.734375 54.109375 11.28125 
L 54.109375 2.78125 
Q 49.265625 0.734375 44.1875 -0.34375 
Q 39.109375 -1.421875 33.890625 -1.421875 
Q 20.796875 -1.421875 13.15625 6.1875 
Q 5.515625 13.8125 5.515625 26.8125 
Q 5.515625 40.234375 12.765625 48.109375 
Q 20.015625 56 32.328125 56 
Q 43.359375 56 49.78125 48.890625 
Q 56.203125 41.796875 56.203125 29.59375 
z
M 47.21875 32.234375 
Q 47.125 39.59375 43.09375 43.984375 
Q 39.0625 48.390625 32.421875 48.390625 
Q 24.90625 48.390625 20.390625 44.140625 
Q 15.875 39.890625 15.1875 32.171875 
z
" id="DejaVuSans-101"/>
      </defs>
      <use xlink:href="#DejaVuSans-100"/>
      <use x="63.476562" xlink:href="#DejaVuSans-97"/>
      <use x="124.755859" xlink:href="#DejaVuSans-116"/>
      <use x="163.964844" xlink:href="#DejaVuSans-101"/>
     </g>
    </g>
   </g>
   <g id="matplotlib.axis_2">
    <g id="ytick_1">
     <g id="line2d_17">
      <defs>
       <path d="M 0 0 
L -3.5 0 
" id="mbba3eaa670" style="stroke:#252627;stroke-width:0.8;"/>
      </defs>
      <g>
       <use style="fill:#252627;stroke:#252627;stroke-width:0.8;" x="58.1475" xlink:href="#mbba3eaa670" y="412.093138"/>
      </g>
     </g>
     <g id="text_6">
      <!-- −200 -->
      <g style="fill:#252627;" transform="translate(7.2 418.171888)scale(0.16 -0.16)">
       <defs>
        <path d="M 10.59375 35.5 
L 73.1875 35.5 
L 73.1875 27.203125 
L 10.59375 27.203125 
z
" id="DejaVuSans-8722"/>
       </defs>
       <use xlink:href="#DejaVuSans-8722"/>
       <use x="83.789062" xlink:href="#DejaVuSans-50"/>
       <use x="147.412109" xlink:href="#DejaVuSans-48"/>
       <use x="211.035156" xlink:href="#DejaVuSans-48"/>
      </g>
     </g>
    </g>
    <g id="ytick_2">
     <g id="line2d_18">
      <g>
       <use style="fill:#252627;stroke:#252627;stroke-width:0.8;" x="58.1475" xlink:href="#mbba3eaa670" y="364.582561"/>
      </g>
     </g>
     <g id="text_7">
      <!-- 0 -->
      <g style="fill:#252627;" transform="translate(40.9675 370.661311)scale(0.16 -0.16)">
       <use xlink:href="#DejaVuSans-48"/>
      </g>
     </g>
    </g>
    <g id="ytick_3">
     <g id="line2d_19">
      <g>
       <use style="fill:#252627;stroke:#252627;stroke-width:0.8;" x="58.1475" xlink:href="#mbba3eaa670" y="317.071985"/>
      </g>
     </g>
     <g id="text_8">
      <!-- 200 -->
      <g style="fill:#252627;" transform="translate(20.6075 323.150735)scale(0.16 -0.16)">
       <use xlink:href="#DejaVuSans-50"/>
       <use x="63.623047" xlink:href="#DejaVuSans-48"/>
       <use x="127.246094" xlink:href="#DejaVuSans-48"/>
      </g>
     </g>
    </g>
    <g id="ytick_4">
     <g id="line2d_20">
      <g>
       <use style="fill:#252627;stroke:#252627;stroke-width:0.8;" x="58.1475" xlink:href="#mbba3eaa670" y="269.561408"/>
      </g>
     </g>
     <g id="text_9">
      <!-- 400 -->
      <g style="fill:#252627;" transform="translate(20.6075 275.640158)scale(0.16 -0.16)">
       <defs>
        <path d="M 37.796875 64.3125 
L 12.890625 25.390625 
L 37.796875 25.390625 
z
M 35.203125 72.90625 
L 47.609375 72.90625 
L 47.609375 25.390625 
L 58.015625 25.390625 
L 58.015625 17.1875 
L 47.609375 17.1875 
L 47.609375 0 
L 37.796875 0 
L 37.796875 17.1875 
L 4.890625 17.1875 
L 4.890625 26.703125 
z
" id="DejaVuSans-52"/>
       </defs>
       <use xlink:href="#DejaVuSans-52"/>
       <use x="63.623047" xlink:href="#DejaVuSans-48"/>
       <use x="127.246094" xlink:href="#DejaVuSans-48"/>
      </g>
     </g>
    </g>
    <g id="ytick_5">
     <g id="line2d_21">
      <g>
       <use style="fill:#252627;stroke:#252627;stroke-width:0.8;" x="58.1475" xlink:href="#mbba3eaa670" y="222.050832"/>
      </g>
     </g>
     <g id="text_10">
      <!-- 600 -->
      <g style="fill:#252627;" transform="translate(20.6075 228.129582)scale(0.16 -0.16)">
       <defs>
        <path d="M 33.015625 40.375 
Q 26.375 40.375 22.484375 35.828125 
Q 18.609375 31.296875 18.609375 23.390625 
Q 18.609375 15.53125 22.484375 10.953125 
Q 26.375 6.390625 33.015625 6.390625 
Q 39.65625 6.390625 43.53125 10.953125 
Q 47.40625 15.53125 47.40625 23.390625 
Q 47.40625 31.296875 43.53125 35.828125 
Q 39.65625 40.375 33.015625 40.375 
z
M 52.59375 71.296875 
L 52.59375 62.3125 
Q 48.875 64.0625 45.09375 64.984375 
Q 41.3125 65.921875 37.59375 65.921875 
Q 27.828125 65.921875 22.671875 59.328125 
Q 17.53125 52.734375 16.796875 39.40625 
Q 19.671875 43.65625 24.015625 45.921875 
Q 28.375 48.1875 33.59375 48.1875 
Q 44.578125 48.1875 50.953125 41.515625 
Q 57.328125 34.859375 57.328125 23.390625 
Q 57.328125 12.15625 50.6875 5.359375 
Q 44.046875 -1.421875 33.015625 -1.421875 
Q 20.359375 -1.421875 13.671875 8.265625 
Q 6.984375 17.96875 6.984375 36.375 
Q 6.984375 53.65625 15.1875 63.9375 
Q 23.390625 74.21875 37.203125 74.21875 
Q 40.921875 74.21875 44.703125 73.484375 
Q 48.484375 72.75 52.59375 71.296875 
z
" id="DejaVuSans-54"/>
       </defs>
       <use xlink:href="#DejaVuSans-54"/>
       <use x="63.623047" xlink:href="#DejaVuSans-48"/>
       <use x="127.246094" xlink:href="#DejaVuSans-48"/>
      </g>
     </g>
    </g>
    <g id="ytick_6">
     <g id="line2d_22">
      <g>
       <use style="fill:#252627;stroke:#252627;stroke-width:0.8;" x="58.1475" xlink:href="#mbba3eaa670" y="174.540256"/>
      </g>
     </g>
     <g id="text_11">
      <!-- 800 -->
      <g style="fill:#252627;" transform="translate(20.6075 180.619006)scale(0.16 -0.16)">
       <defs>
        <path d="M 31.78125 34.625 
Q 24.75 34.625 20.71875 30.859375 
Q 16.703125 27.09375 16.703125 20.515625 
Q 16.703125 13.921875 20.71875 10.15625 
Q 24.75 6.390625 31.78125 6.390625 
Q 38.8125 6.390625 42.859375 10.171875 
Q 46.921875 13.96875 46.921875 20.515625 
Q 46.921875 27.09375 42.890625 30.859375 
Q 38.875 34.625 31.78125 34.625 
z
M 21.921875 38.8125 
Q 15.578125 40.375 12.03125 44.71875 
Q 8.5 49.078125 8.5 55.328125 
Q 8.5 64.0625 14.71875 69.140625 
Q 20.953125 74.21875 31.78125 74.21875 
Q 42.671875 74.21875 48.875 69.140625 
Q 55.078125 64.0625 55.078125 55.328125 
Q 55.078125 49.078125 51.53125 44.71875 
Q 48 40.375 41.703125 38.8125 
Q 48.828125 37.15625 52.796875 32.3125 
Q 56.78125 27.484375 56.78125 20.515625 
Q 56.78125 9.90625 50.3125 4.234375 
Q 43.84375 -1.421875 31.78125 -1.421875 
Q 19.734375 -1.421875 13.25 4.234375 
Q 6.78125 9.90625 6.78125 20.515625 
Q 6.78125 27.484375 10.78125 32.3125 
Q 14.796875 37.15625 21.921875 38.8125 
z
M 18.3125 54.390625 
Q 18.3125 48.734375 21.84375 45.5625 
Q 25.390625 42.390625 31.78125 42.390625 
Q 38.140625 42.390625 41.71875 45.5625 
Q 45.3125 48.734375 45.3125 54.390625 
Q 45.3125 60.0625 41.71875 63.234375 
Q 38.140625 66.40625 31.78125 66.40625 
Q 25.390625 66.40625 21.84375 63.234375 
Q 18.3125 60.0625 18.3125 54.390625 
z
" id="DejaVuSans-56"/>
       </defs>
       <use xlink:href="#DejaVuSans-56"/>
       <use x="63.623047" xlink:href="#DejaVuSans-48"/>
       <use x="127.246094" xlink:href="#DejaVuSans-48"/>
      </g>
     </g>
    </g>
    <g id="ytick_7">
     <g id="line2d_23">
      <g>
       <use style="fill:#252627;stroke:#252627;stroke-width:0.8;" x="58.1475" xlink:href="#mbba3eaa670" y="127.029679"/>
      </g>
     </g>
     <g id="text_12">
      <!-- 1000 -->
      <g style="fill:#252627;" transform="translate(10.4275 133.108429)scale(0.16 -0.16)">
       <use xlink:href="#DejaVuSans-49"/>
       <use x="63.623047" xlink:href="#DejaVuSans-48"/>
       <use x="127.246094" xlink:href="#DejaVuSans-48"/>
       <use x="190.869141" xlink:href="#DejaVuSans-48"/>
      </g>
     </g>
    </g>
    <g id="ytick_8">
     <g id="line2d_24">
      <g>
       <use style="fill:#252627;stroke:#252627;stroke-width:0.8;" x="58.1475" xlink:href="#mbba3eaa670" y="79.519103"/>
      </g>
     </g>
     <g id="text_13">
      <!-- 1200 -->
      <g style="fill:#252627;" transform="translate(10.4275 85.597853)scale(0.16 -0.16)">
       <use xlink:href="#DejaVuSans-49"/>
       <use x="63.623047" xlink:href="#DejaVuSans-50"/>
       <use x="127.246094" xlink:href="#DejaVuSans-48"/>
       <use x="190.869141" xlink:href="#DejaVuSans-48"/>
      </g>
     </g>
    </g>
   </g>
   <g id="line2d_25">
    <path clip-path="url(#p5e0f774a72)" d="M 88.863096 364.582561 
L 124.697959 364.480651 
L 127.257592 364.243098 
L 128.537408 364.005545 
L 129.817225 363.63235 
L 131.097041 363.428767 
L 132.376858 362.817781 
L 133.656674 362.817781 
L 134.936491 360.238669 
L 136.216307 358.304276 
L 137.496124 355.351969 
L 138.77594 353.926652 
L 140.055757 347.682337 
L 141.335573 345.272838 
L 142.61539 338.282131 
L 143.895206 333.700687 
L 145.175023 324.538034 
L 146.454839 314.25532 
L 147.734656 297.762261 
L 149.014472 287.377875 
L 150.294289 261.959716 
L 151.574106 244.618356 
L 154.133739 208.238795 
L 155.413555 193.849979 
L 156.693372 181.157766 
L 157.973188 172.639833 
L 159.253005 169.789198 
L 160.532821 161.542787 
L 161.812638 158.929706 
L 163.092454 162.153536 
L 164.372271 166.463458 
L 165.652087 173.691954 
L 166.931904 175.184974 
L 168.21172 181.157766 
L 169.491537 191.542153 
L 172.05117 206.474252 
L 173.330986 209.562439 
L 174.610803 214.754633 
L 175.890619 228.46476 
L 177.170436 231.68859 
L 178.450252 233.317728 
L 179.730069 231.518977 
L 181.009885 247.944096 
L 182.289702 254.493667 
L 183.569518 259.516247 
L 184.849335 255.104653 
L 186.129151 262.468792 
L 187.408968 268.136091 
L 188.688784 278.995584 
L 189.968601 267.559075 
L 191.248417 271.699384 
L 192.528234 274.006973 
L 193.80805 278.384835 
L 195.087867 277.773849 
L 196.367683 283.610999 
L 197.6475 296.065421 
L 198.927317 289.990956 
L 200.207133 294.198968 
L 201.48695 299.866267 
L 202.766766 303.802994 
L 204.046583 310.89561 
L 205.326399 312.762063 
L 206.606216 304.990758 
L 207.886032 317.818614 
L 209.165849 318.531272 
L 210.445665 319.922619 
L 211.725482 320.228112 
L 213.005298 322.264178 
L 214.285115 322.128536 
L 215.564931 325.216723 
L 216.844748 327.761865 
L 218.124564 332.614832 
L 219.404381 331.834234 
L 220.684197 335.465467 
L 221.964014 337.976638 
L 223.24383 343.575997 
L 224.523647 324.91123 
L 225.803463 326.743713 
L 227.08328 324.232541 
L 228.363096 394.276672 
L 229.642913 387.014442 
L 230.922729 390.747348 
L 232.202546 392.444189 
L 233.482362 415.724371 
L 234.762179 417.285331 
L 236.041995 419.7288 
L 237.321812 354.63931 
L 238.601628 364.243098 
L 242.441078 364.141426 
L 245.000711 364.277068 
L 248.840161 364.311038 
L 250.119977 364.480651 
L 257.798876 364.582561 
L 259.078693 364.582561 
L 260.358509 324.571767 
L 261.638326 324.334214 
L 268.037408 324.062929 
L 269.317225 363.801963 
L 270.597041 363.937843 
L 273.156674 363.835933 
L 275.716307 363.326857 
L 276.996124 363.292887 
L 278.27594 362.987631 
L 280.835573 363.157244 
L 282.11539 363.157244 
L 284.675023 363.496707 
L 285.954839 363.462737 
L 287.234656 363.971813 
L 301.312638 364.073485 
L 305.152087 364.175396 
L 316.670436 364.141426 
L 319.230069 362.478555 
L 321.789702 362.648168 
L 325.629151 362.614198 
L 326.908968 361.053238 
L 328.188784 361.765897 
L 329.468601 361.867569 
L 330.748417 361.019268 
L 332.028234 360.713775 
L 334.587867 360.713775 
L 335.867683 362.207032 
L 337.1475 361.562314 
L 338.427317 357.184452 
L 339.707133 357.523915 
L 340.98695 357.082779 
L 343.546583 357.082779 
L 344.826399 356.912929 
L 346.106216 355.962717 
L 347.386032 358.677709 
L 348.665849 358.372216 
L 349.945665 358.711679 
L 352.505298 358.711679 
L 353.785115 357.048809 
L 355.064931 356.845226 
L 356.344748 357.014839 
L 357.624564 356.505763 
L 358.904381 350.770524 
L 361.464014 350.770524 
L 362.74383 350.261448 
L 364.023647 349.58276 
L 365.303463 349.854283 
L 366.58328 348.802161 
L 367.863096 353.417576 
L 371.702546 353.315666 
L 372.982362 350.668851 
L 374.262179 343.711878 
L 375.541995 340.62369 
L 376.821812 339.198373 
L 379.381445 339.198373 
L 380.661261 336.924517 
L 381.941078 334.04015 
L 383.220894 337.739086 
L 384.500711 340.386137 
L 385.780528 339.571569 
L 388.340161 339.571569 
L 389.619977 339.198373 
L 390.899794 347.376844 
L 392.17961 338.89288 
L 393.459427 335.56714 
L 397.298876 335.60111 
L 398.578693 336.958487 
L 399.858509 328.101328 
L 401.138326 338.417774 
L 402.418142 340.318197 
L 403.697959 335.974305 
L 406.257592 335.974305 
L 407.537408 334.073882 
L 408.817225 340.216525 
L 410.097041 335.70302 
L 411.376858 335.227914 
L 412.656674 335.872633 
L 415.216307 335.872633 
L 416.496124 335.126004 
L 417.77594 330.442886 
L 419.055757 332.241399 
L 420.335573 331.732323 
L 421.61539 331.427068 
L 424.175023 331.427068 
L 425.454839 329.322825 
L 426.734656 327.659954 
L 428.014472 327.252789 
L 429.294289 326.64204 
L 430.574106 326.370517 
L 433.133739 326.370517 
L 434.413555 322.976837 
L 435.693372 323.961018 
L 436.973188 274.583989 
L 438.253005 267.966478 
L 439.532821 264.301275 
L 442.092454 264.301275 
L 443.372271 259.78777 
L 444.652087 267.864568 
L 445.931904 297.151513 
L 447.21172 297.558678 
L 448.491537 298.882323 
L 451.05117 298.882323 
L 452.330986 299.832535 
L 453.610803 285.070286 
L 454.890619 298.950026 
L 456.170436 302.479349 
L 457.450252 301.80066 
L 460.009885 301.80066 
L 461.289702 300.850449 
L 462.569518 297.389066 
L 463.849335 296.77808 
L 465.129151 293.893713 
L 466.408968 295.047507 
L 468.968601 295.047507 
L 470.248417 298.814383 
L 472.80805 305.296251 
L 475.367683 310.82767 
L 477.927317 310.82767 
L 479.207133 311.065223 
L 480.48695 326.065024 
L 481.766766 322.671344 
L 484.326399 318.022196 
L 486.886032 318.022196 
L 488.165849 318.191809 
L 489.445665 305.024728 
L 490.725482 311.065223 
L 492.005298 315.952161 
L 493.285115 320.397725 
L 495.844748 320.397725 
L 497.124564 322.264178 
L 498.404381 326.60807 
L 499.684197 327.184849 
L 500.964014 329.051539 
L 502.24383 334.107852 
L 504.803463 334.107852 
L 506.08328 335.329587 
L 507.363096 333.293521 
L 508.642913 330.951962 
L 509.922729 330.205334 
L 513.762179 330.205334 
L 515.041995 332.139727 
L 516.321812 331.053635 
L 517.601628 339.435926 
L 518.881445 336.144156 
L 520.161261 329.390765 
L 522.720894 329.390765 
L 524.000711 323.961018 
L 525.280528 322.060595 
L 526.560344 315.443085 
L 527.840161 316.936342 
L 529.119977 315.714608 
L 531.67961 315.714608 
L 532.959427 313.881887 
L 534.239243 314.017767 
L 535.51906 304.888848 
L 536.798876 297.999814 
L 538.078693 292.400455 
L 540.638326 292.400455 
L 541.918142 281.812248 
L 543.197959 275.635873 
L 544.477775 274.516049 
L 547.037408 266.914357 
L 549.597041 266.914357 
L 550.876858 267.083969 
L 552.156674 262.400852 
L 553.436491 260.093263 
L 554.716307 262.909928 
L 555.996124 260.500429 
L 558.555757 260.500429 
L 559.835573 255.511818 
L 561.11539 254.086501 
L 563.675023 248.690725 
L 564.954839 250.523208 
L 567.514472 250.523208 
L 568.794289 257.548122 
L 570.074106 265.55698 
L 571.353922 275.941366 
L 573.913555 284.696853 
L 576.473188 284.696853 
L 577.753005 290.364152 
L 579.032821 293.316697 
L 580.312638 291.551916 
L 581.592454 293.011204 
L 582.872271 295.31903 
L 585.431904 295.31903 
L 586.71172 297.626619 
L 587.991537 306.144552 
L 589.271353 304.210159 
L 590.55117 307.298347 
L 591.830986 296.84602 
L 594.390619 296.84602 
L 595.670436 302.581259 
L 596.950252 299.221549 
L 598.230069 306.416075 
L 599.509885 310.82767 
L 600.789702 326.5741 
L 603.349335 326.5741 
L 604.629151 331.053635 
L 605.908968 336.144156 
L 608.468601 336.585291 
L 609.748417 342.456173 
L 612.30805 342.456173 
L 613.587867 326.60807 
L 614.867683 324.571767 
L 616.1475 332.309339 
L 616.1475 332.309339 
" style="fill:none;stroke:#bb0a21;stroke-linecap:square;stroke-width:2;"/>
   </g>
   <g id="line2d_26">
    <path clip-path="url(#p5e0f774a72)" d="M 87.58328 364.582561 
L 129.817225 364.480651 
L 131.097041 364.345008 
L 134.936491 364.277068 
L 136.216307 363.66632 
L 137.496124 363.191214 
L 138.77594 362.444585 
L 140.055757 362.00345 
L 141.335573 360.815685 
L 142.61539 359.322428 
L 143.895206 358.270544 
L 145.175023 356.946899 
L 146.454839 356.23424 
L 147.734656 354.435727 
L 149.014472 349.989925 
L 150.294289 344.696059 
L 151.574106 340.080644 
L 154.133739 323.451943 
L 155.413555 317.411448 
L 156.693372 307.298347 
L 157.973188 298.6108 
L 161.812638 250.896641 
L 163.092454 235.116241 
L 164.372271 221.948922 
L 165.652087 215.297441 
L 166.931904 191.50842 
L 168.21172 179.325283 
L 169.491537 163.714733 
L 170.771353 150.615355 
L 172.05117 147.66281 
L 173.330986 145.762387 
L 174.610803 140.502253 
L 175.890619 141.350792 
L 177.170436 146.373373 
L 178.450252 148.986455 
L 179.730069 156.079071 
L 181.009885 147.119764 
L 182.289702 154.721456 
L 183.569518 159.778007 
L 184.849335 154.891307 
L 186.129151 155.807548 
L 187.408968 167.888775 
L 188.688784 164.359452 
L 189.968601 174.268733 
L 191.248417 176.610291 
L 193.80805 193.782039 
L 195.087867 196.700614 
L 196.367683 198.329514 
L 197.6475 209.121066 
L 198.927317 216.960311 
L 200.207133 220.727425 
L 201.48695 222.424028 
L 202.766766 230.772349 
L 204.046583 234.980598 
L 205.326399 241.021093 
L 206.606216 245.093462 
L 207.886032 255.613729 
L 209.165849 256.835463 
L 210.445665 259.71983 
L 211.725482 263.452974 
L 213.005298 270.206127 
L 214.285115 273.76942 
L 215.564931 281.540963 
L 216.844748 276.925548 
L 218.124564 282.016068 
L 219.404381 283.441386 
L 221.964014 291.348333 
L 223.24383 294.063325 
L 224.523647 296.099391 
L 225.803463 302.581259 
L 227.08328 291.99329 
L 228.363096 293.418607 
L 229.642913 305.97494 
L 230.922729 302.818812 
L 232.202546 300.443283 
L 233.482362 301.020299 
L 234.762179 303.259948 
L 236.041995 314.085708 
L 237.321812 314.696456 
L 238.601628 310.658057 
L 239.881445 316.359326 
L 241.161261 323.587823 
L 242.441078 324.130631 
L 243.720894 324.504064 
L 245.000711 324.707647 
L 246.280528 326.031054 
L 247.560344 327.829805 
L 248.840161 330.884022 
L 250.119977 332.716505 
L 251.399794 337.026427 
L 252.67961 338.248161 
L 253.959427 339.164403 
L 255.239243 339.775151 
L 256.51906 342.388233 
L 257.798876 344.220954 
L 259.078693 344.526209 
L 260.358509 346.121377 
L 261.638326 347.343111 
L 262.918142 347.207231 
L 264.197959 347.750277 
L 266.757592 349.413147 
L 268.037408 348.327055 
L 269.317225 348.564608 
L 270.597041 349.61673 
L 271.876858 349.61673 
L 273.156674 349.345207 
L 274.436491 350.702584 
L 275.716307 350.363358 
L 276.996124 352.331722 
L 278.27594 353.281933 
L 279.555757 353.553219 
L 282.11539 354.299847 
L 283.395206 354.299847 
L 284.675023 355.657462 
L 285.954839 355.996687 
L 288.514472 357.014839 
L 289.794289 357.354065 
L 291.074106 357.388035 
L 292.353922 357.727498 
L 293.633739 358.779382 
L 297.473188 359.559981 
L 300.032821 359.492041 
L 301.312638 360.136997 
L 302.592454 360.442252 
L 303.872271 360.951328 
L 306.431904 360.544162 
L 307.71172 360.646072 
L 310.271353 361.019268 
L 311.55117 360.442252 
L 314.110803 361.154911 
L 319.230069 361.494374 
L 320.509885 362.173062 
L 321.789702 361.562314 
L 324.349335 362.173062 
L 325.629151 362.173062 
L 326.908968 361.596284 
L 328.188784 361.765897 
L 329.468601 361.562314 
L 334.587867 361.596284 
L 335.867683 362.105122 
L 338.427317 362.241003 
L 340.98695 362.953661 
L 342.266766 362.444585 
L 347.386032 362.241003 
L 349.945665 361.799867 
L 352.505298 362.173062 
L 353.785115 362.207032 
L 355.064931 362.648168 
L 356.344748 362.885721 
L 360.184197 362.784048 
L 362.74383 362.750078 
L 364.023647 361.765897 
L 369.142913 362.07139 
L 371.702546 361.765897 
L 372.982362 361.93551 
L 374.262179 361.528344 
L 375.541995 361.290791 
L 378.101628 359.967146 
L 379.381445 359.526011 
L 380.661261 359.458308 
L 381.941078 359.118845 
L 384.500711 357.897111 
L 387.060344 357.388035 
L 389.619977 357.354065 
L 392.17961 355.012506 
L 393.459427 354.367787 
L 394.739243 353.281933 
L 397.298876 352.263781 
L 399.858509 351.924318 
L 401.138326 351.958288 
L 403.697959 350.634881 
L 407.537408 347.410814 
L 411.376858 340.793303 
L 412.656674 339.130433 
L 413.936491 336.788874 
L 415.216307 336.720934 
L 416.496124 335.70302 
L 417.77594 332.37728 
L 420.335573 328.813986 
L 421.61539 325.827471 
L 422.895206 325.01314 
L 424.175023 322.162506 
L 425.454839 321.415877 
L 428.014472 313.101526 
L 429.294289 310.013339 
L 430.574106 308.316498 
L 431.853922 303.158275 
L 433.133739 302.784842 
L 435.693372 300.612896 
L 436.973188 294.436521 
L 438.253005 291.110781 
L 440.812638 285.409511 
L 442.092454 285.613094 
L 443.372271 283.610999 
L 444.652087 279.029554 
L 445.931904 275.50023 
L 447.21172 269.221945 
L 448.491537 268.509287 
L 449.771353 266.846417 
L 451.05117 266.439251 
L 452.330986 265.794532 
L 453.610803 263.520676 
L 456.170436 267.864568 
L 457.450252 263.283123 
L 458.730069 267.423433 
L 460.009885 259.584187 
L 461.289702 259.82174 
L 462.569518 259.516247 
L 463.849335 253.882918 
L 465.129151 254.018561 
L 466.408968 253.713305 
L 467.688784 248.996218 
L 468.968601 255.240295 
L 471.528234 255.545788 
L 472.80805 257.140718 
L 474.087867 259.991353 
L 475.367683 260.534399 
L 476.6475 263.317093 
L 477.927317 262.774285 
L 479.207133 263.249391 
L 480.48695 263.385034 
L 481.766766 267.28779 
L 483.046583 263.826169 
L 484.326399 266.541161 
L 485.606216 262.366882 
L 486.886032 265.319427 
L 488.165849 263.826169 
L 489.445665 266.982297 
L 490.725482 264.301275 
L 492.005298 263.758229 
L 493.285115 261.518581 
L 494.564931 260.941565 
L 495.844748 254.76519 
L 497.124564 255.376176 
L 498.404381 249.097891 
L 499.684197 244.482713 
L 500.964014 243.023426 
L 502.24383 240.308434 
L 503.523647 251.371747 
L 504.803463 250.659088 
L 506.08328 245.84009 
L 507.363096 253.747276 
L 508.642913 245.80612 
L 509.922729 232.571099 
L 511.202546 231.043871 
L 512.482362 223.102954 
L 513.762179 219.43775 
L 515.041995 217.639237 
L 516.321812 203.284154 
L 517.601628 201.248089 
L 518.881445 194.562638 
L 520.161261 170.196364 
L 521.441078 150.174219 
L 524.000711 142.334974 
L 525.280528 129.948254 
L 526.560344 112.097818 
L 527.840161 109.00963 
L 529.119977 110.63853 
L 530.399794 101.679461 
L 531.67961 97.776705 
L 532.959427 95.299503 
L 534.239243 82.878813 
L 535.51906 74.123327 
L 536.798876 72.664039 
L 538.078693 68.727313 
L 539.358509 66.9288 
L 540.638326 69.338299 
L 541.918142 69.609822 
L 543.197959 68.795253 
L 544.477775 72.188933 
L 545.757592 74.123327 
L 548.317225 84.30413 
L 549.597041 85.016789 
L 552.156674 97.641062 
L 553.436491 111.351189 
L 554.716307 122.346562 
L 555.996124 130.253509 
L 557.27594 143.047632 
L 558.555757 150.309862 
L 559.835573 152.821033 
L 561.11539 166.361547 
L 562.395206 177.221277 
L 563.675023 185.196165 
L 564.954839 193.883949 
L 566.234656 200.908626 
L 567.514472 204.879084 
L 568.794289 208.204825 
L 572.633739 233.38543 
L 573.913555 241.055063 
L 575.193372 246.993885 
L 576.473188 248.419202 
L 577.753005 250.353595 
L 579.032821 258.871529 
L 580.312638 268.88272 
L 581.592454 273.328284 
L 582.872271 279.708242 
L 584.152087 284.968376 
L 586.71172 289.956986 
L 587.991537 296.91396 
L 589.271353 295.420703 
L 590.55117 298.203397 
L 591.830986 301.90257 
L 593.110803 306.382105 
L 594.390619 308.486111 
L 595.670436 309.809756 
L 596.950252 313.610602 
L 598.230069 323.689496 
L 600.789702 327.795835 
L 602.069518 329.051539 
L 603.349335 330.069453 
L 604.629151 330.103423 
L 605.908968 334.209762 
L 607.188784 335.872633 
L 608.468601 338.791207 
L 609.748417 341.370319 
L 611.028234 342.25259 
L 612.30805 342.863339 
L 613.587867 344.424536 
L 614.867683 344.356596 
L 616.1475 345.815884 
L 616.1475 345.815884 
" style="fill:none;stroke:#4b88a2;stroke-linecap:square;stroke-width:2;"/>
   </g>
   <g id="line2d_27">
    <path clip-path="url(#p5e0f774a72)" d="M 132.376858 364.582561 
L 143.895206 364.480651 
L 146.454839 364.412949 
L 149.014472 364.345008 
L 151.574106 364.277068 
L 152.853922 364.311038 
L 157.973188 363.801963 
L 159.253005 363.59838 
L 160.532821 363.021601 
L 163.092454 362.648168 
L 164.372271 362.376645 
L 165.652087 362.274973 
L 168.21172 361.765897 
L 169.491537 361.765897 
L 170.771353 360.917358 
L 173.330986 360.849655 
L 174.610803 360.37455 
L 175.890619 360.40852 
L 177.170436 360.069057 
L 178.450252 359.967146 
L 179.730069 360.136997 
L 182.289702 357.557885 
L 187.408968 354.469698 
L 188.688784 353.247963 
L 189.968601 352.636977 
L 191.248417 353.451546 
L 192.528234 353.146053 
L 193.80805 352.026229 
L 195.087867 350.566941 
L 196.367683 348.327055 
L 198.927317 347.614396 
L 200.207133 345.646271 
L 201.48695 345.510391 
L 202.766766 344.560179 
L 204.046583 344.560179 
L 205.326399 345.035285 
L 206.606216 344.560179 
L 207.886032 343.745848 
L 209.165849 344.119043 
L 210.445665 343.643938 
L 211.725482 343.779818 
L 213.005298 342.999219 
L 214.285115 342.863339 
L 215.564931 341.573902 
L 216.844748 340.52178 
L 218.124564 338.82494 
L 219.404381 336.483381 
L 220.684197 335.499199 
L 221.964014 335.56714 
L 223.24383 334.684868 
L 224.523647 335.66905 
L 225.803463 335.736752 
L 227.08328 337.16207 
L 229.642913 334.922421 
L 230.922729 332.037816 
L 232.202546 332.309339 
L 233.482362 331.121575 
L 234.762179 330.714409 
L 236.041995 328.949629 
L 237.321812 330.476856 
L 238.601628 331.359128 
L 239.881445 333.666717 
L 241.161261 332.954058 
L 243.720894 333.021998 
L 245.000711 332.037816 
L 246.280528 332.784445 
L 248.840161 330.340976 
L 250.119977 328.712076 
L 251.399794 333.157641 
L 252.67961 330.408916 
L 253.959427 323.078747 
L 255.239243 320.838861 
L 256.51906 319.854679 
L 257.798876 318.632945 
L 259.078693 317.988226 
L 260.358509 311.235073 
L 261.638326 311.879792 
L 262.918142 318.531272 
L 264.197959 318.327689 
L 265.477775 318.836765 
L 266.757592 319.481484 
L 268.037408 320.465665 
L 269.317225 321.178324 
L 271.876858 321.415877 
L 273.156674 321.110384 
L 274.436491 321.381907 
L 275.716307 321.347937 
L 276.996124 321.008474 
L 278.27594 320.906801 
L 279.555757 321.246027 
L 282.11539 321.55152 
L 283.395206 321.313967 
L 285.954839 321.51755 
L 287.234656 321.347937 
L 288.514472 321.483579 
L 289.794289 321.110384 
L 291.074106 321.076414 
L 292.353922 321.246027 
L 293.633739 321.008474 
L 294.913555 320.431695 
L 296.193372 320.499635 
L 297.473188 319.922619 
L 298.753005 319.888649 
L 300.032821 319.447514 
L 301.312638 318.768825 
L 302.592454 318.768825 
L 303.872271 193.578456 
L 305.152087 193.408843 
L 307.71172 206.575925 
L 308.991537 193.748069 
L 310.271353 193.782039 
L 311.55117 193.238993 
L 312.830986 325.148783 
L 314.110803 324.605737 
L 315.390619 324.605737 
L 316.670436 304.481682 
L 317.950252 317.309538 
L 319.230069 317.241598 
L 320.509885 316.664819 
L 321.789702 310.013339 
L 323.069518 309.33465 
L 324.349335 309.33465 
L 325.629151 315.103622 
L 326.908968 314.866069 
L 328.188784 313.881887 
L 329.468601 321.381907 
L 330.748417 320.838861 
L 332.028234 187.877187 
L 333.30805 187.877187 
L 334.587867 194.800191 
L 335.867683 194.732251 
L 337.1475 195.580552 
L 338.427317 189.574027 
L 339.707133 190.795762 
L 340.98695 324.605737 
L 342.266766 317.44518 
L 343.546583 317.818614 
L 344.826399 317.682733 
L 346.106216 319.379574 
L 347.386032 319.006378 
L 348.665849 320.804891 
L 349.945665 322.400058 
L 351.225482 322.976837 
L 352.505298 325.420306 
L 353.785115 326.404487 
L 355.064931 326.200905 
L 356.344748 328.372613 
L 357.624564 332.546892 
L 358.904381 326.302577 
L 360.184197 327.829805 
L 361.464014 327.931477 
L 362.74383 328.949629 
L 364.023647 329.560377 
L 365.303463 328.780016 
L 366.58328 324.9452 
L 367.863096 332.716505 
L 369.142913 333.497104 
L 370.422729 336.110185 
L 371.702546 334.990361 
L 374.262179 337.29795 
L 375.541995 336.924517 
L 376.821812 337.36589 
L 378.101628 336.992457 
L 379.381445 335.974305 
L 380.661261 342.21862 
L 381.941078 345.680241 
L 383.220894 342.829606 
L 384.500711 336.788874 
L 385.780528 334.345405 
L 387.060344 338.99479 
L 388.340161 338.349834 
L 389.619977 334.277703 
L 390.899794 332.173459 
L 392.17961 336.483381 
L 393.459427 344.458506 
L 394.739243 347.682337 
L 396.01906 345.171165 
L 397.298876 348.734458 
L 398.578693 348.293323 
L 399.858509 347.275171 
L 401.138326 347.003648 
L 402.418142 346.053436 
L 403.697959 345.476421 
L 404.977775 343.745848 
L 406.257592 340.962916 
L 407.537408 343.711878 
L 408.817225 344.730029 
L 410.097041 347.444784 
L 411.376858 345.306808 
L 412.656674 348.327055 
L 413.936491 350.159776 
L 415.216307 351.109987 
L 416.496124 350.940137 
L 417.77594 350.974107 
L 419.055757 349.107654 
L 420.335573 350.770524 
L 421.61539 350.770524 
L 422.895206 351.517153 
L 424.175023 349.413147 
L 425.454839 351.34754 
L 426.734656 351.788676 
L 428.014472 351.619063 
L 429.294289 353.349636 
L 430.574106 351.754706 
L 431.853922 351.754706 
L 433.133739 353.485516 
L 434.413555 353.485516 
L 435.693372 355.114416 
L 436.973188 350.532971 
L 438.253005 350.499001 
L 439.532821 352.094169 
L 440.812638 351.958288 
L 442.092454 352.87453 
L 443.372271 350.906404 
L 444.652087 348.734458 
L 445.931904 353.689099 
L 447.21172 354.367787 
L 448.491537 353.146053 
L 449.771353 353.621159 
L 451.05117 352.501334 
L 452.330986 352.636977 
L 453.610803 353.451546 
L 454.890619 353.553219 
L 456.170436 354.876863 
L 457.450252 351.720736 
L 458.730069 349.54879 
L 460.009885 351.958288 
L 461.289702 352.229811 
L 462.569518 352.026229 
L 465.129151 352.094169 
L 466.408968 353.078113 
L 467.688784 353.383606 
L 468.968601 351.890348 
L 470.248417 353.451546 
L 471.528234 353.553219 
L 472.80805 355.046476 
L 474.087867 351.31357 
L 475.367683 354.70725 
L 476.6475 353.858712 
L 477.927317 354.130234 
L 479.207133 352.670947 
L 480.48695 354.130234 
L 481.766766 349.820313 
L 483.046583 350.227478 
L 484.326399 350.227478 
L 485.606216 352.738887 
L 486.886032 353.960622 
L 488.165849 350.906404 
L 489.445665 348.293323 
L 490.725482 352.603007 
L 492.005298 352.399424 
L 493.285115 352.399424 
L 494.564931 353.926652 
L 495.844748 347.95386 
L 497.124564 350.125806 
L 498.404381 350.363358 
L 499.684197 348.836131 
L 500.964014 352.365454 
L 502.24383 349.005981 
L 503.523647 347.275171 
L 504.803463 353.247963 
L 506.08328 351.992259 
L 507.363096 352.636977 
L 508.642913 352.501334 
L 509.922729 348.904071 
L 511.202546 352.263781 
L 512.482362 353.994592 
L 513.762179 350.838464 
L 516.321812 354.232145 
L 517.601628 352.670947 
L 518.881445 356.26821 
L 520.161261 352.060199 
L 521.441078 352.060199 
L 522.720894 355.216089 
L 524.000711 349.311237 
L 525.280528 347.444784 
L 526.560344 348.496905 
L 527.840161 348.496905 
L 529.119977 344.051103 
L 530.399794 344.051103 
L 531.67961 340.114614 
L 532.959427 347.95386 
L 534.239243 349.820313 
L 535.51906 342.693726 
L 536.798876 342.693726 
L 538.078693 343.542265 
L 539.358509 343.542265 
L 540.638326 336.144156 
L 541.918142 336.144156 
L 543.197959 319.209961 
L 544.477775 328.508493 
L 545.757592 322.908897 
L 547.037408 323.519883 
L 548.317225 310.86164 
L 549.597041 316.461236 
L 550.876858 316.461236 
L 552.156674 328.13506 
L 553.436491 316.019863 
L 554.716307 321.61946 
L 555.996124 321.51755 
L 557.27594 328.067358 
L 558.555757 321.076414 
L 559.835573 321.076414 
L 561.11539 315.544757 
L 562.395206 327.659954 
L 563.675023 313.440752 
L 564.954839 320.737188 
L 566.234656 319.719037 
L 567.514472 317.241598 
L 568.794289 311.235073 
L 570.074106 322.026625 
L 571.353922 316.053833 
L 572.633739 321.721132 
L 573.913555 315.578727 
L 575.193372 315.88422 
L 576.473188 317.275568 
L 577.753005 323.28233 
L 579.032821 317.649001 
L 580.312638 316.019863 
L 581.592454 317.920286 
L 582.872271 310.115011 
L 584.152087 309.979368 
L 585.431904 323.791406 
L 586.71172 317.173895 
L 587.991537 309.23274 
L 589.271353 316.834432 
L 590.55117 316.868402 
L 591.830986 323.451943 
L 593.110803 324.130631 
L 594.390619 317.682733 
L 595.670436 318.429362 
L 596.950252 321.51755 
L 598.230069 321.51755 
L 599.509885 322.705314 
L 600.789702 324.605737 
L 602.069518 324.775587 
L 604.629151 325.589919 
L 605.908968 330.171363 
L 607.188784 318.429362 
L 608.468601 323.859108 
L 609.748417 316.630849 
L 611.028234 322.739284 
L 612.30805 318.531272 
L 613.587867 324.028959 
L 614.867683 320.567338 
L 616.1475 332.309339 
L 616.1475 332.309339 
" style="fill:none;stroke:#d3d4d9;stroke-linecap:square;stroke-width:2;"/>
   </g>
   <g id="patch_3">
    <path d="M 58.1475 437.3688 
L 58.1475 49.2888 
" style="fill:none;stroke:#000000;stroke-linecap:square;stroke-linejoin:miter;stroke-width:0.8;"/>
   </g>
   <g id="patch_4">
    <path d="M 616.1475 437.3688 
L 616.1475 49.2888 
" style="fill:none;stroke:#000000;stroke-linecap:square;stroke-linejoin:miter;stroke-width:0.8;"/>
   </g>
   <g id="patch_5">
    <path d="M 58.1475 437.3688 
L 616.1475 437.3688 
" style="fill:none;stroke:#000000;stroke-linecap:square;stroke-linejoin:miter;stroke-width:0.8;"/>
   </g>
   <g id="patch_6">
    <path d="M 58.1475 49.2888 
L 616.1475 49.2888 
" style="fill:none;stroke:#000000;stroke-linecap:square;stroke-linejoin:miter;stroke-width:0.8;"/>
   </g>
   <g id="text_14">
    <!-- Latest update:  -->
    <g style="fill:#252627;" transform="translate(40.1475 491.690987)scale(0.1 -0.1)">
     <defs>
      <path d="M 9.8125 72.90625 
L 19.671875 72.90625 
L 19.671875 8.296875 
L 55.171875 8.296875 
L 55.171875 0 
L 9.8125 0 
z
" id="DejaVuSans-76"/>
      <path d="M 44.28125 53.078125 
L 44.28125 44.578125 
Q 40.484375 46.53125 36.375 47.5 
Q 32.28125 48.484375 27.875 48.484375 
Q 21.1875 48.484375 17.84375 46.4375 
Q 14.5 44.390625 14.5 40.28125 
Q 14.5 37.15625 16.890625 35.375 
Q 19.28125 33.59375 26.515625 31.984375 
L 29.59375 31.296875 
Q 39.15625 29.25 43.1875 25.515625 
Q 47.21875 21.78125 47.21875 15.09375 
Q 47.21875 7.46875 41.1875 3.015625 
Q 35.15625 -1.421875 24.609375 -1.421875 
Q 20.21875 -1.421875 15.453125 -0.5625 
Q 10.6875 0.296875 5.421875 2 
L 5.421875 11.28125 
Q 10.40625 8.6875 15.234375 7.390625 
Q 20.0625 6.109375 24.8125 6.109375 
Q 31.15625 6.109375 34.5625 8.28125 
Q 37.984375 10.453125 37.984375 14.40625 
Q 37.984375 18.0625 35.515625 20.015625 
Q 33.0625 21.96875 24.703125 23.78125 
L 21.578125 24.515625 
Q 13.234375 26.265625 9.515625 29.90625 
Q 5.8125 33.546875 5.8125 39.890625 
Q 5.8125 47.609375 11.28125 51.796875 
Q 16.75 56 26.8125 56 
Q 31.78125 56 36.171875 55.265625 
Q 40.578125 54.546875 44.28125 53.078125 
z
" id="DejaVuSans-115"/>
      <path id="DejaVuSans-32"/>
      <path d="M 11.71875 12.40625 
L 22.015625 12.40625 
L 22.015625 0 
L 11.71875 0 
z
M 11.71875 51.703125 
L 22.015625 51.703125 
L 22.015625 39.3125 
L 11.71875 39.3125 
z
" id="DejaVuSans-58"/>
     </defs>
     <use xlink:href="#DejaVuSans-76"/>
     <use x="55.712891" xlink:href="#DejaVuSans-97"/>
     <use x="116.992188" xlink:href="#DejaVuSans-116"/>
     <use x="156.201172" xlink:href="#DejaVuSans-101"/>
     <use x="217.724609" xlink:href="#DejaVuSans-115"/>
     <use x="269.824219" xlink:href="#DejaVuSans-116"/>
     <use x="309.033203" xlink:href="#DejaVuSans-32"/>
     <use x="340.820312" xlink:href="#DejaVuSans-117"/>
     <use x="404.199219" xlink:href="#DejaVuSans-112"/>
     <use x="467.675781" xlink:href="#DejaVuSans-100"/>
     <use x="531.152344" xlink:href="#DejaVuSans-97"/>
     <use x="592.431641" xlink:href="#DejaVuSans-116"/>
     <use x="631.640625" xlink:href="#DejaVuSans-101"/>
     <use x="693.164062" xlink:href="#DejaVuSans-58"/>
     <use x="726.855469" xlink:href="#DejaVuSans-32"/>
    </g>
    <!-- 25-3-2021 -->
    <g style="fill:#252627;" transform="translate(40.1475 502.8888)scale(0.1 -0.1)">
     <defs>
      <path d="M 10.796875 72.90625 
L 49.515625 72.90625 
L 49.515625 64.59375 
L 19.828125 64.59375 
L 19.828125 46.734375 
Q 21.96875 47.46875 24.109375 47.828125 
Q 26.265625 48.1875 28.421875 48.1875 
Q 40.625 48.1875 47.75 41.5 
Q 54.890625 34.8125 54.890625 23.390625 
Q 54.890625 11.625 47.5625 5.09375 
Q 40.234375 -1.421875 26.90625 -1.421875 
Q 22.3125 -1.421875 17.546875 -0.640625 
Q 12.796875 0.140625 7.71875 1.703125 
L 7.71875 11.625 
Q 12.109375 9.234375 16.796875 8.0625 
Q 21.484375 6.890625 26.703125 6.890625 
Q 35.15625 6.890625 40.078125 11.328125 
Q 45.015625 15.765625 45.015625 23.390625 
Q 45.015625 31 40.078125 35.4375 
Q 35.15625 39.890625 26.703125 39.890625 
Q 22.75 39.890625 18.8125 39.015625 
Q 14.890625 38.140625 10.796875 36.28125 
z
" id="DejaVuSans-53"/>
      <path d="M 4.890625 31.390625 
L 31.203125 31.390625 
L 31.203125 23.390625 
L 4.890625 23.390625 
z
" id="DejaVuSans-45"/>
      <path d="M 40.578125 39.3125 
Q 47.65625 37.796875 51.625 33 
Q 55.609375 28.21875 55.609375 21.1875 
Q 55.609375 10.40625 48.1875 4.484375 
Q 40.765625 -1.421875 27.09375 -1.421875 
Q 22.515625 -1.421875 17.65625 -0.515625 
Q 12.796875 0.390625 7.625 2.203125 
L 7.625 11.71875 
Q 11.71875 9.328125 16.59375 8.109375 
Q 21.484375 6.890625 26.8125 6.890625 
Q 36.078125 6.890625 40.9375 10.546875 
Q 45.796875 14.203125 45.796875 21.1875 
Q 45.796875 27.640625 41.28125 31.265625 
Q 36.765625 34.90625 28.71875 34.90625 
L 20.21875 34.90625 
L 20.21875 43.015625 
L 29.109375 43.015625 
Q 36.375 43.015625 40.234375 45.921875 
Q 44.09375 48.828125 44.09375 54.296875 
Q 44.09375 59.90625 40.109375 62.90625 
Q 36.140625 65.921875 28.71875 65.921875 
Q 24.65625 65.921875 20.015625 65.03125 
Q 15.375 64.15625 9.8125 62.3125 
L 9.8125 71.09375 
Q 15.4375 72.65625 20.34375 73.4375 
Q 25.25 74.21875 29.59375 74.21875 
Q 40.828125 74.21875 47.359375 69.109375 
Q 53.90625 64.015625 53.90625 55.328125 
Q 53.90625 49.265625 50.4375 45.09375 
Q 46.96875 40.921875 40.578125 39.3125 
z
" id="DejaVuSans-51"/>
     </defs>
     <use xlink:href="#DejaVuSans-50"/>
     <use x="63.623047" xlink:href="#DejaVuSans-53"/>
     <use x="127.246094" xlink:href="#DejaVuSans-45"/>
     <use x="163.330078" xlink:href="#DejaVuSans-51"/>
     <use x="226.953125" xlink:href="#DejaVuSans-45"/>
     <use x="263.037109" xlink:href="#DejaVuSans-50"/>
     <use x="326.660156" xlink:href="#DejaVuSans-48"/>
     <use x="390.283203" xlink:href="#DejaVuSans-50"/>
     <use x="453.90625" xlink:href="#DejaVuSans-49"/>
    </g>
   </g>
   <g id="text_15">
    <!-- Note: Negative deaths numbers can come from country data corrections -->
    <g style="fill:#252627;" transform="translate(40.1475 512.9688)scale(0.08 -0.08)">
     <defs>
      <path d="M 9.8125 72.90625 
L 23.09375 72.90625 
L 55.421875 11.921875 
L 55.421875 72.90625 
L 64.984375 72.90625 
L 64.984375 0 
L 51.703125 0 
L 19.390625 60.984375 
L 19.390625 0 
L 9.8125 0 
z
" id="DejaVuSans-78"/>
      <path d="M 30.609375 48.390625 
Q 23.390625 48.390625 19.1875 42.75 
Q 14.984375 37.109375 14.984375 27.296875 
Q 14.984375 17.484375 19.15625 11.84375 
Q 23.34375 6.203125 30.609375 6.203125 
Q 37.796875 6.203125 41.984375 11.859375 
Q 46.1875 17.53125 46.1875 27.296875 
Q 46.1875 37.015625 41.984375 42.703125 
Q 37.796875 48.390625 30.609375 48.390625 
z
M 30.609375 56 
Q 42.328125 56 49.015625 48.375 
Q 55.71875 40.765625 55.71875 27.296875 
Q 55.71875 13.875 49.015625 6.21875 
Q 42.328125 -1.421875 30.609375 -1.421875 
Q 18.84375 -1.421875 12.171875 6.21875 
Q 5.515625 13.875 5.515625 27.296875 
Q 5.515625 40.765625 12.171875 48.375 
Q 18.84375 56 30.609375 56 
z
" id="DejaVuSans-111"/>
      <path d="M 45.40625 27.984375 
Q 45.40625 37.75 41.375 43.109375 
Q 37.359375 48.484375 30.078125 48.484375 
Q 22.859375 48.484375 18.828125 43.109375 
Q 14.796875 37.75 14.796875 27.984375 
Q 14.796875 18.265625 18.828125 12.890625 
Q 22.859375 7.515625 30.078125 7.515625 
Q 37.359375 7.515625 41.375 12.890625 
Q 45.40625 18.265625 45.40625 27.984375 
z
M 54.390625 6.78125 
Q 54.390625 -7.171875 48.1875 -13.984375 
Q 42 -20.796875 29.203125 -20.796875 
Q 24.46875 -20.796875 20.265625 -20.09375 
Q 16.0625 -19.390625 12.109375 -17.921875 
L 12.109375 -9.1875 
Q 16.0625 -11.328125 19.921875 -12.34375 
Q 23.78125 -13.375 27.78125 -13.375 
Q 36.625 -13.375 41.015625 -8.765625 
Q 45.40625 -4.15625 45.40625 5.171875 
L 45.40625 9.625 
Q 42.625 4.78125 38.28125 2.390625 
Q 33.9375 0 27.875 0 
Q 17.828125 0 11.671875 7.65625 
Q 5.515625 15.328125 5.515625 27.984375 
Q 5.515625 40.671875 11.671875 48.328125 
Q 17.828125 56 27.875 56 
Q 33.9375 56 38.28125 53.609375 
Q 42.625 51.21875 45.40625 46.390625 
L 45.40625 54.6875 
L 54.390625 54.6875 
z
" id="DejaVuSans-103"/>
      <path d="M 9.421875 54.6875 
L 18.40625 54.6875 
L 18.40625 0 
L 9.421875 0 
z
M 9.421875 75.984375 
L 18.40625 75.984375 
L 18.40625 64.59375 
L 9.421875 64.59375 
z
" id="DejaVuSans-105"/>
      <path d="M 2.984375 54.6875 
L 12.5 54.6875 
L 29.59375 8.796875 
L 46.6875 54.6875 
L 56.203125 54.6875 
L 35.6875 0 
L 23.484375 0 
z
" id="DejaVuSans-118"/>
      <path d="M 54.890625 33.015625 
L 54.890625 0 
L 45.90625 0 
L 45.90625 32.71875 
Q 45.90625 40.484375 42.875 44.328125 
Q 39.84375 48.1875 33.796875 48.1875 
Q 26.515625 48.1875 22.3125 43.546875 
Q 18.109375 38.921875 18.109375 30.90625 
L 18.109375 0 
L 9.078125 0 
L 9.078125 75.984375 
L 18.109375 75.984375 
L 18.109375 46.1875 
Q 21.34375 51.125 25.703125 53.5625 
Q 30.078125 56 35.796875 56 
Q 45.21875 56 50.046875 50.171875 
Q 54.890625 44.34375 54.890625 33.015625 
z
" id="DejaVuSans-104"/>
      <path d="M 52 44.1875 
Q 55.375 50.25 60.0625 53.125 
Q 64.75 56 71.09375 56 
Q 79.640625 56 84.28125 50.015625 
Q 88.921875 44.046875 88.921875 33.015625 
L 88.921875 0 
L 79.890625 0 
L 79.890625 32.71875 
Q 79.890625 40.578125 77.09375 44.375 
Q 74.3125 48.1875 68.609375 48.1875 
Q 61.625 48.1875 57.5625 43.546875 
Q 53.515625 38.921875 53.515625 30.90625 
L 53.515625 0 
L 44.484375 0 
L 44.484375 32.71875 
Q 44.484375 40.625 41.703125 44.40625 
Q 38.921875 48.1875 33.109375 48.1875 
Q 26.21875 48.1875 22.15625 43.53125 
Q 18.109375 38.875 18.109375 30.90625 
L 18.109375 0 
L 9.078125 0 
L 9.078125 54.6875 
L 18.109375 54.6875 
L 18.109375 46.1875 
Q 21.1875 51.21875 25.484375 53.609375 
Q 29.78125 56 35.6875 56 
Q 41.65625 56 45.828125 52.96875 
Q 50 49.953125 52 44.1875 
z
" id="DejaVuSans-109"/>
      <path d="M 48.6875 27.296875 
Q 48.6875 37.203125 44.609375 42.84375 
Q 40.53125 48.484375 33.40625 48.484375 
Q 26.265625 48.484375 22.1875 42.84375 
Q 18.109375 37.203125 18.109375 27.296875 
Q 18.109375 17.390625 22.1875 11.75 
Q 26.265625 6.109375 33.40625 6.109375 
Q 40.53125 6.109375 44.609375 11.75 
Q 48.6875 17.390625 48.6875 27.296875 
z
M 18.109375 46.390625 
Q 20.953125 51.265625 25.265625 53.625 
Q 29.59375 56 35.59375 56 
Q 45.5625 56 51.78125 48.09375 
Q 58.015625 40.1875 58.015625 27.296875 
Q 58.015625 14.40625 51.78125 6.484375 
Q 45.5625 -1.421875 35.59375 -1.421875 
Q 29.59375 -1.421875 25.265625 0.953125 
Q 20.953125 3.328125 18.109375 8.203125 
L 18.109375 0 
L 9.078125 0 
L 9.078125 75.984375 
L 18.109375 75.984375 
z
" id="DejaVuSans-98"/>
      <path d="M 37.109375 75.984375 
L 37.109375 68.5 
L 28.515625 68.5 
Q 23.6875 68.5 21.796875 66.546875 
Q 19.921875 64.59375 19.921875 59.515625 
L 19.921875 54.6875 
L 34.71875 54.6875 
L 34.71875 47.703125 
L 19.921875 47.703125 
L 19.921875 0 
L 10.890625 0 
L 10.890625 47.703125 
L 2.296875 47.703125 
L 2.296875 54.6875 
L 10.890625 54.6875 
L 10.890625 58.5 
Q 10.890625 67.625 15.140625 71.796875 
Q 19.390625 75.984375 28.609375 75.984375 
z
" id="DejaVuSans-102"/>
      <path d="M 32.171875 -5.078125 
Q 28.375 -14.84375 24.75 -17.8125 
Q 21.140625 -20.796875 15.09375 -20.796875 
L 7.90625 -20.796875 
L 7.90625 -13.28125 
L 13.1875 -13.28125 
Q 16.890625 -13.28125 18.9375 -11.515625 
Q 21 -9.765625 23.484375 -3.21875 
L 25.09375 0.875 
L 2.984375 54.6875 
L 12.5 54.6875 
L 29.59375 11.921875 
L 46.6875 54.6875 
L 56.203125 54.6875 
z
" id="DejaVuSans-121"/>
     </defs>
     <use xlink:href="#DejaVuSans-78"/>
     <use x="74.804688" xlink:href="#DejaVuSans-111"/>
     <use x="135.986328" xlink:href="#DejaVuSans-116"/>
     <use x="175.195312" xlink:href="#DejaVuSans-101"/>
     <use x="236.71875" xlink:href="#DejaVuSans-58"/>
     <use x="270.410156" xlink:href="#DejaVuSans-32"/>
     <use x="302.197266" xlink:href="#DejaVuSans-78"/>
     <use x="377.001953" xlink:href="#DejaVuSans-101"/>
     <use x="438.525391" xlink:href="#DejaVuSans-103"/>
     <use x="502.001953" xlink:href="#DejaVuSans-97"/>
     <use x="563.28125" xlink:href="#DejaVuSans-116"/>
     <use x="602.490234" xlink:href="#DejaVuSans-105"/>
     <use x="630.273438" xlink:href="#DejaVuSans-118"/>
     <use x="689.453125" xlink:href="#DejaVuSans-101"/>
     <use x="750.976562" xlink:href="#DejaVuSans-32"/>
     <use x="782.763672" xlink:href="#DejaVuSans-100"/>
     <use x="846.240234" xlink:href="#DejaVuSans-101"/>
     <use x="907.763672" xlink:href="#DejaVuSans-97"/>
     <use x="969.042969" xlink:href="#DejaVuSans-116"/>
     <use x="1008.251953" xlink:href="#DejaVuSans-104"/>
     <use x="1071.630859" xlink:href="#DejaVuSans-115"/>
     <use x="1123.730469" xlink:href="#DejaVuSans-32"/>
     <use x="1155.517578" xlink:href="#DejaVuSans-110"/>
     <use x="1218.896484" xlink:href="#DejaVuSans-117"/>
     <use x="1282.275391" xlink:href="#DejaVuSans-109"/>
     <use x="1379.6875" xlink:href="#DejaVuSans-98"/>
     <use x="1443.164062" xlink:href="#DejaVuSans-101"/>
     <use x="1504.6875" xlink:href="#DejaVuSans-114"/>
     <use x="1545.800781" xlink:href="#DejaVuSans-115"/>
     <use x="1597.900391" xlink:href="#DejaVuSans-32"/>
     <use x="1629.6875" xlink:href="#DejaVuSans-99"/>
     <use x="1684.667969" xlink:href="#DejaVuSans-97"/>
     <use x="1745.947266" xlink:href="#DejaVuSans-110"/>
     <use x="1809.326172" xlink:href="#DejaVuSans-32"/>
     <use x="1841.113281" xlink:href="#DejaVuSans-99"/>
     <use x="1896.09375" xlink:href="#DejaVuSans-111"/>
     <use x="1957.275391" xlink:href="#DejaVuSans-109"/>
     <use x="2054.6875" xlink:href="#DejaVuSans-101"/>
     <use x="2116.210938" xlink:href="#DejaVuSans-32"/>
     <use x="2147.998047" xlink:href="#DejaVuSans-102"/>
     <use x="2183.203125" xlink:href="#DejaVuSans-114"/>
     <use x="2222.066406" xlink:href="#DejaVuSans-111"/>
     <use x="2283.248047" xlink:href="#DejaVuSans-109"/>
     <use x="2380.660156" xlink:href="#DejaVuSans-32"/>
     <use x="2412.447266" xlink:href="#DejaVuSans-99"/>
     <use x="2467.427734" xlink:href="#DejaVuSans-111"/>
     <use x="2528.609375" xlink:href="#DejaVuSans-117"/>
     <use x="2591.988281" xlink:href="#DejaVuSans-110"/>
     <use x="2655.367188" xlink:href="#DejaVuSans-116"/>
     <use x="2694.576172" xlink:href="#DejaVuSans-114"/>
     <use x="2735.689453" xlink:href="#DejaVuSans-121"/>
     <use x="2794.869141" xlink:href="#DejaVuSans-32"/>
     <use x="2826.65625" xlink:href="#DejaVuSans-100"/>
     <use x="2890.132812" xlink:href="#DejaVuSans-97"/>
     <use x="2951.412109" xlink:href="#DejaVuSans-116"/>
     <use x="2990.621094" xlink:href="#DejaVuSans-97"/>
     <use x="3051.900391" xlink:href="#DejaVuSans-32"/>
     <use x="3083.6875" xlink:href="#DejaVuSans-99"/>
     <use x="3138.667969" xlink:href="#DejaVuSans-111"/>
     <use x="3199.849609" xlink:href="#DejaVuSans-114"/>
     <use x="3239.212891" xlink:href="#DejaVuSans-114"/>
     <use x="3278.076172" xlink:href="#DejaVuSans-101"/>
     <use x="3339.599609" xlink:href="#DejaVuSans-99"/>
     <use x="3394.580078" xlink:href="#DejaVuSans-116"/>
     <use x="3433.789062" xlink:href="#DejaVuSans-105"/>
     <use x="3461.572266" xlink:href="#DejaVuSans-111"/>
     <use x="3522.753906" xlink:href="#DejaVuSans-110"/>
     <use x="3586.132812" xlink:href="#DejaVuSans-115"/>
    </g>
   </g>
   <g id="text_16">
    <!-- Daily deaths - Since beginning -->
    <g style="fill:#252627;" transform="translate(190.6485 21.789)scale(0.192 -0.192)">
     <defs>
      <path d="M 19.671875 64.796875 
L 19.671875 8.109375 
L 31.59375 8.109375 
Q 46.6875 8.109375 53.6875 14.9375 
Q 60.6875 21.78125 60.6875 36.53125 
Q 60.6875 51.171875 53.6875 57.984375 
Q 46.6875 64.796875 31.59375 64.796875 
z
M 9.8125 72.90625 
L 30.078125 72.90625 
Q 51.265625 72.90625 61.171875 64.09375 
Q 71.09375 55.28125 71.09375 36.53125 
Q 71.09375 17.671875 61.125 8.828125 
Q 51.171875 0 30.078125 0 
L 9.8125 0 
z
" id="DejaVuSans-68"/>
      <path d="M 53.515625 70.515625 
L 53.515625 60.890625 
Q 47.90625 63.578125 42.921875 64.890625 
Q 37.9375 66.21875 33.296875 66.21875 
Q 25.25 66.21875 20.875 63.09375 
Q 16.5 59.96875 16.5 54.203125 
Q 16.5 49.359375 19.40625 46.890625 
Q 22.3125 44.4375 30.421875 42.921875 
L 36.375 41.703125 
Q 47.40625 39.59375 52.65625 34.296875 
Q 57.90625 29 57.90625 20.125 
Q 57.90625 9.515625 50.796875 4.046875 
Q 43.703125 -1.421875 29.984375 -1.421875 
Q 24.8125 -1.421875 18.96875 -0.25 
Q 13.140625 0.921875 6.890625 3.21875 
L 6.890625 13.375 
Q 12.890625 10.015625 18.65625 8.296875 
Q 24.421875 6.59375 29.984375 6.59375 
Q 38.421875 6.59375 43.015625 9.90625 
Q 47.609375 13.234375 47.609375 19.390625 
Q 47.609375 24.75 44.3125 27.78125 
Q 41.015625 30.8125 33.5 32.328125 
L 27.484375 33.5 
Q 16.453125 35.6875 11.515625 40.375 
Q 6.59375 45.0625 6.59375 53.421875 
Q 6.59375 63.09375 13.40625 68.65625 
Q 20.21875 74.21875 32.171875 74.21875 
Q 37.3125 74.21875 42.625 73.28125 
Q 47.953125 72.359375 53.515625 70.515625 
z
" id="DejaVuSans-83"/>
     </defs>
     <use xlink:href="#DejaVuSans-68"/>
     <use x="77.001953" xlink:href="#DejaVuSans-97"/>
     <use x="138.28125" xlink:href="#DejaVuSans-105"/>
     <use x="166.064453" xlink:href="#DejaVuSans-108"/>
     <use x="193.847656" xlink:href="#DejaVuSans-121"/>
     <use x="253.027344" xlink:href="#DejaVuSans-32"/>
     <use x="284.814453" xlink:href="#DejaVuSans-100"/>
     <use x="348.291016" xlink:href="#DejaVuSans-101"/>
     <use x="409.814453" xlink:href="#DejaVuSans-97"/>
     <use x="471.09375" xlink:href="#DejaVuSans-116"/>
     <use x="510.302734" xlink:href="#DejaVuSans-104"/>
     <use x="573.681641" xlink:href="#DejaVuSans-115"/>
     <use x="625.78125" xlink:href="#DejaVuSans-32"/>
     <use x="657.568359" xlink:href="#DejaVuSans-45"/>
     <use x="693.652344" xlink:href="#DejaVuSans-32"/>
     <use x="725.439453" xlink:href="#DejaVuSans-83"/>
     <use x="788.916016" xlink:href="#DejaVuSans-105"/>
     <use x="816.699219" xlink:href="#DejaVuSans-110"/>
     <use x="880.078125" xlink:href="#DejaVuSans-99"/>
     <use x="935.058594" xlink:href="#DejaVuSans-101"/>
     <use x="996.582031" xlink:href="#DejaVuSans-32"/>
     <use x="1028.369141" xlink:href="#DejaVuSans-98"/>
     <use x="1091.845703" xlink:href="#DejaVuSans-101"/>
     <use x="1153.369141" xlink:href="#DejaVuSans-103"/>
     <use x="1216.845703" xlink:href="#DejaVuSans-105"/>
     <use x="1244.628906" xlink:href="#DejaVuSans-110"/>
     <use x="1308.007812" xlink:href="#DejaVuSans-110"/>
     <use x="1371.386719" xlink:href="#DejaVuSans-105"/>
     <use x="1399.169922" xlink:href="#DejaVuSans-110"/>
     <use x="1462.548828" xlink:href="#DejaVuSans-103"/>
    </g>
    <!-- 7-day rolling average -->
    <g style="fill:#252627;" transform="translate(234.7275 43.2888)scale(0.192 -0.192)">
     <defs>
      <path d="M 8.203125 72.90625 
L 55.078125 72.90625 
L 55.078125 68.703125 
L 28.609375 0 
L 18.3125 0 
L 43.21875 64.59375 
L 8.203125 64.59375 
z
" id="DejaVuSans-55"/>
     </defs>
     <use xlink:href="#DejaVuSans-55"/>
     <use x="63.623047" xlink:href="#DejaVuSans-45"/>
     <use x="99.707031" xlink:href="#DejaVuSans-100"/>
     <use x="163.183594" xlink:href="#DejaVuSans-97"/>
     <use x="224.462891" xlink:href="#DejaVuSans-121"/>
     <use x="283.642578" xlink:href="#DejaVuSans-32"/>
     <use x="315.429688" xlink:href="#DejaVuSans-114"/>
     <use x="354.292969" xlink:href="#DejaVuSans-111"/>
     <use x="415.474609" xlink:href="#DejaVuSans-108"/>
     <use x="443.257812" xlink:href="#DejaVuSans-108"/>
     <use x="471.041016" xlink:href="#DejaVuSans-105"/>
     <use x="498.824219" xlink:href="#DejaVuSans-110"/>
     <use x="562.203125" xlink:href="#DejaVuSans-103"/>
     <use x="625.679688" xlink:href="#DejaVuSans-32"/>
     <use x="657.466797" xlink:href="#DejaVuSans-97"/>
     <use x="718.746094" xlink:href="#DejaVuSans-118"/>
     <use x="777.925781" xlink:href="#DejaVuSans-101"/>
     <use x="839.449219" xlink:href="#DejaVuSans-114"/>
     <use x="880.5625" xlink:href="#DejaVuSans-97"/>
     <use x="941.841797" xlink:href="#DejaVuSans-103"/>
     <use x="1005.318359" xlink:href="#DejaVuSans-101"/>
    </g>
   </g>
   <g id="legend_1">
    <g id="patch_7">
     <path d="M 69.3475 132.5438 
L 155.04 132.5438 
Q 158.24 132.5438 158.24 129.3438 
L 158.24 60.4888 
Q 158.24 57.2888 155.04 57.2888 
L 69.3475 57.2888 
Q 66.1475 57.2888 66.1475 60.4888 
L 66.1475 129.3438 
Q 66.1475 132.5438 69.3475 132.5438 
z
" style="fill:#ffffff;opacity:0.2;stroke:#cccccc;stroke-linejoin:miter;"/>
    </g>
    <g id="line2d_28">
     <path d="M 72.5475 70.2463 
L 104.5475 70.2463 
" style="fill:none;stroke:#bb0a21;stroke-linecap:square;stroke-width:2;"/>
    </g>
    <g id="line2d_29"/>
    <g id="text_17">
     <!-- ESP -->
     <g style="fill:#252627;" transform="translate(117.3475 75.8463)scale(0.16 -0.16)">
      <defs>
       <path d="M 9.8125 72.90625 
L 55.90625 72.90625 
L 55.90625 64.59375 
L 19.671875 64.59375 
L 19.671875 43.015625 
L 54.390625 43.015625 
L 54.390625 34.71875 
L 19.671875 34.71875 
L 19.671875 8.296875 
L 56.78125 8.296875 
L 56.78125 0 
L 9.8125 0 
z
" id="DejaVuSans-69"/>
       <path d="M 19.671875 64.796875 
L 19.671875 37.40625 
L 32.078125 37.40625 
Q 38.96875 37.40625 42.71875 40.96875 
Q 46.484375 44.53125 46.484375 51.125 
Q 46.484375 57.671875 42.71875 61.234375 
Q 38.96875 64.796875 32.078125 64.796875 
z
M 9.8125 72.90625 
L 32.078125 72.90625 
Q 44.34375 72.90625 50.609375 67.359375 
Q 56.890625 61.8125 56.890625 51.125 
Q 56.890625 40.328125 50.609375 34.8125 
Q 44.34375 29.296875 32.078125 29.296875 
L 19.671875 29.296875 
L 19.671875 0 
L 9.8125 0 
z
" id="DejaVuSans-80"/>
      </defs>
      <use xlink:href="#DejaVuSans-69"/>
      <use x="63.183594" xlink:href="#DejaVuSans-83"/>
      <use x="126.660156" xlink:href="#DejaVuSans-80"/>
     </g>
    </g>
    <g id="line2d_30">
     <path d="M 72.5475 93.7313 
L 104.5475 93.7313 
" style="fill:none;stroke:#4b88a2;stroke-linecap:square;stroke-width:2;"/>
    </g>
    <g id="line2d_31"/>
    <g id="text_18">
     <!-- GBR -->
     <g style="fill:#252627;" transform="translate(117.3475 99.3313)scale(0.16 -0.16)">
      <defs>
       <path d="M 59.515625 10.40625 
L 59.515625 29.984375 
L 43.40625 29.984375 
L 43.40625 38.09375 
L 69.28125 38.09375 
L 69.28125 6.78125 
Q 63.578125 2.734375 56.6875 0.65625 
Q 49.8125 -1.421875 42 -1.421875 
Q 24.90625 -1.421875 15.25 8.5625 
Q 5.609375 18.5625 5.609375 36.375 
Q 5.609375 54.25 15.25 64.234375 
Q 24.90625 74.21875 42 74.21875 
Q 49.125 74.21875 55.546875 72.453125 
Q 61.96875 70.703125 67.390625 67.28125 
L 67.390625 56.78125 
Q 61.921875 61.421875 55.765625 63.765625 
Q 49.609375 66.109375 42.828125 66.109375 
Q 29.4375 66.109375 22.71875 58.640625 
Q 16.015625 51.171875 16.015625 36.375 
Q 16.015625 21.625 22.71875 14.15625 
Q 29.4375 6.6875 42.828125 6.6875 
Q 48.046875 6.6875 52.140625 7.59375 
Q 56.25 8.5 59.515625 10.40625 
z
" id="DejaVuSans-71"/>
       <path d="M 19.671875 34.8125 
L 19.671875 8.109375 
L 35.5 8.109375 
Q 43.453125 8.109375 47.28125 11.40625 
Q 51.125 14.703125 51.125 21.484375 
Q 51.125 28.328125 47.28125 31.5625 
Q 43.453125 34.8125 35.5 34.8125 
z
M 19.671875 64.796875 
L 19.671875 42.828125 
L 34.28125 42.828125 
Q 41.5 42.828125 45.03125 45.53125 
Q 48.578125 48.25 48.578125 53.8125 
Q 48.578125 59.328125 45.03125 62.0625 
Q 41.5 64.796875 34.28125 64.796875 
z
M 9.8125 72.90625 
L 35.015625 72.90625 
Q 46.296875 72.90625 52.390625 68.21875 
Q 58.5 63.53125 58.5 54.890625 
Q 58.5 48.1875 55.375 44.234375 
Q 52.25 40.28125 46.1875 39.3125 
Q 53.46875 37.75 57.5 32.78125 
Q 61.53125 27.828125 61.53125 20.40625 
Q 61.53125 10.640625 54.890625 5.3125 
Q 48.25 0 35.984375 0 
L 9.8125 0 
z
" id="DejaVuSans-66"/>
       <path d="M 44.390625 34.1875 
Q 47.5625 33.109375 50.5625 29.59375 
Q 53.5625 26.078125 56.59375 19.921875 
L 66.609375 0 
L 56 0 
L 46.6875 18.703125 
Q 43.0625 26.03125 39.671875 28.421875 
Q 36.28125 30.8125 30.421875 30.8125 
L 19.671875 30.8125 
L 19.671875 0 
L 9.8125 0 
L 9.8125 72.90625 
L 32.078125 72.90625 
Q 44.578125 72.90625 50.734375 67.671875 
Q 56.890625 62.453125 56.890625 51.90625 
Q 56.890625 45.015625 53.6875 40.46875 
Q 50.484375 35.9375 44.390625 34.1875 
z
M 19.671875 64.796875 
L 19.671875 38.921875 
L 32.078125 38.921875 
Q 39.203125 38.921875 42.84375 42.21875 
Q 46.484375 45.515625 46.484375 51.90625 
Q 46.484375 58.296875 42.84375 61.546875 
Q 39.203125 64.796875 32.078125 64.796875 
z
" id="DejaVuSans-82"/>
      </defs>
      <use xlink:href="#DejaVuSans-71"/>
      <use x="77.490234" xlink:href="#DejaVuSans-66"/>
      <use x="146.09375" xlink:href="#DejaVuSans-82"/>
     </g>
    </g>
    <g id="line2d_32">
     <path d="M 72.5475 117.2163 
L 104.5475 117.2163 
" style="fill:none;stroke:#d3d4d9;stroke-linecap:square;stroke-width:2;"/>
    </g>
    <g id="line2d_33"/>
    <g id="text_19">
     <!-- PER -->
     <g style="fill:#252627;" transform="translate(117.3475 122.8163)scale(0.16 -0.16)">
      <use xlink:href="#DejaVuSans-80"/>
      <use x="60.302734" xlink:href="#DejaVuSans-69"/>
      <use x="123.486328" xlink:href="#DejaVuSans-82"/>
     </g>
    </g>
   </g>
  </g>
 </g>
 <defs>
  <clipPath id="p5e0f774a72">
   <rect height="388.08" width="558" x="58.1475" y="49.2888"/>
  </clipPath>
 </defs>
</svg>
