<?xml version="1.0" encoding="utf-8" standalone="no"?>
<!DOCTYPE svg PUBLIC "-//W3C//DTD SVG 1.1//EN"
  "http://www.w3.org/Graphics/SVG/1.1/DTD/svg11.dtd">
<!-- Created with matplotlib (https://matplotlib.org/) -->
<svg height="512.168487pt" version="1.1" viewBox="0 0 644.4625 512.168487" width="644.4625pt" xmlns="http://www.w3.org/2000/svg" xmlns:xlink="http://www.w3.org/1999/xlink">
 <metadata>
  <rdf:RDF xmlns:cc="http://creativecommons.org/ns#" xmlns:dc="http://purl.org/dc/elements/1.1/" xmlns:rdf="http://www.w3.org/1999/02/22-rdf-syntax-ns#">
   <cc:Work>
    <dc:type rdf:resource="http://purl.org/dc/dcmitype/StillImage"/>
    <dc:date>2021-02-02T09:00:11.903275</dc:date>
    <dc:format>image/svg+xml</dc:format>
    <dc:creator>
     <cc:Agent>
      <dc:title>Matplotlib v3.3.1, https://matplotlib.org/</dc:title>
     </cc:Agent>
    </dc:creator>
   </cc:Work>
  </rdf:RDF>
 </metadata>
 <defs>
  <style type="text/css">*{stroke-linecap:butt;stroke-linejoin:round;}</style>
 </defs>
 <g id="figure_1">
  <g id="patch_1">
   <path d="M 0 512.168487 
L 644.4625 512.168487 
L 644.4625 0 
L 0 0 
z
" style="fill:none;"/>
  </g>
  <g id="axes_1">
   <g id="patch_2">
    <path d="M 65.1 437.3688 
L 623.1 437.3688 
L 623.1 49.2888 
L 65.1 49.2888 
z
" style="fill:none;"/>
   </g>
   <g id="matplotlib.axis_1">
    <g id="xtick_1">
     <g id="line2d_1">
      <defs>
       <path d="M 0 0 
L 0 3.5 
" id="m569ed703de" style="stroke:#252627;stroke-width:0.8;"/>
      </defs>
      <g>
       <use style="fill:#252627;stroke:#252627;stroke-width:0.8;" x="65.1" xlink:href="#m569ed703de" y="437.3688"/>
      </g>
     </g>
    </g>
    <g id="xtick_2">
     <g id="line2d_2">
      <g>
       <use style="fill:#252627;stroke:#252627;stroke-width:0.8;" x="66.620436" xlink:href="#m569ed703de" y="437.3688"/>
      </g>
     </g>
     <g id="text_1">
      <!-- Feb -->
      <g style="fill:#252627;" transform="translate(52.457936 456.5263)scale(0.16 -0.16)">
       <defs>
        <path d="M 9.8125 72.90625 
L 51.703125 72.90625 
L 51.703125 64.59375 
L 19.671875 64.59375 
L 19.671875 43.109375 
L 48.578125 43.109375 
L 48.578125 34.8125 
L 19.671875 34.8125 
L 19.671875 0 
L 9.8125 0 
z
" id="DejaVuSans-70"/>
        <path d="M 56.203125 29.59375 
L 56.203125 25.203125 
L 14.890625 25.203125 
Q 15.484375 15.921875 20.484375 11.0625 
Q 25.484375 6.203125 34.421875 6.203125 
Q 39.59375 6.203125 44.453125 7.46875 
Q 49.3125 8.734375 54.109375 11.28125 
L 54.109375 2.78125 
Q 49.265625 0.734375 44.1875 -0.34375 
Q 39.109375 -1.421875 33.890625 -1.421875 
Q 20.796875 -1.421875 13.15625 6.1875 
Q 5.515625 13.8125 5.515625 26.8125 
Q 5.515625 40.234375 12.765625 48.109375 
Q 20.015625 56 32.328125 56 
Q 43.359375 56 49.78125 48.890625 
Q 56.203125 41.796875 56.203125 29.59375 
z
M 47.21875 32.234375 
Q 47.125 39.59375 43.09375 43.984375 
Q 39.0625 48.390625 32.421875 48.390625 
Q 24.90625 48.390625 20.390625 44.140625 
Q 15.875 39.890625 15.1875 32.171875 
z
" id="DejaVuSans-101"/>
        <path d="M 48.6875 27.296875 
Q 48.6875 37.203125 44.609375 42.84375 
Q 40.53125 48.484375 33.40625 48.484375 
Q 26.265625 48.484375 22.1875 42.84375 
Q 18.109375 37.203125 18.109375 27.296875 
Q 18.109375 17.390625 22.1875 11.75 
Q 26.265625 6.109375 33.40625 6.109375 
Q 40.53125 6.109375 44.609375 11.75 
Q 48.6875 17.390625 48.6875 27.296875 
z
M 18.109375 46.390625 
Q 20.953125 51.265625 25.265625 53.625 
Q 29.59375 56 35.59375 56 
Q 45.5625 56 51.78125 48.09375 
Q 58.015625 40.1875 58.015625 27.296875 
Q 58.015625 14.40625 51.78125 6.484375 
Q 45.5625 -1.421875 35.59375 -1.421875 
Q 29.59375 -1.421875 25.265625 0.953125 
Q 20.953125 3.328125 18.109375 8.203125 
L 18.109375 0 
L 9.078125 0 
L 9.078125 75.984375 
L 18.109375 75.984375 
z
" id="DejaVuSans-98"/>
       </defs>
       <use xlink:href="#DejaVuSans-70"/>
       <use x="52.019531" xlink:href="#DejaVuSans-101"/>
       <use x="113.542969" xlink:href="#DejaVuSans-98"/>
      </g>
     </g>
    </g>
    <g id="xtick_3">
     <g id="line2d_3">
      <g>
       <use style="fill:#252627;stroke:#252627;stroke-width:0.8;" x="110.713079" xlink:href="#m569ed703de" y="437.3688"/>
      </g>
     </g>
     <g id="text_2">
      <!-- Mar -->
      <g style="fill:#252627;" transform="translate(95.619329 456.5263)scale(0.16 -0.16)">
       <defs>
        <path d="M 9.8125 72.90625 
L 24.515625 72.90625 
L 43.109375 23.296875 
L 61.8125 72.90625 
L 76.515625 72.90625 
L 76.515625 0 
L 66.890625 0 
L 66.890625 64.015625 
L 48.09375 14.015625 
L 38.1875 14.015625 
L 19.390625 64.015625 
L 19.390625 0 
L 9.8125 0 
z
" id="DejaVuSans-77"/>
        <path d="M 34.28125 27.484375 
Q 23.390625 27.484375 19.1875 25 
Q 14.984375 22.515625 14.984375 16.5 
Q 14.984375 11.71875 18.140625 8.90625 
Q 21.296875 6.109375 26.703125 6.109375 
Q 34.1875 6.109375 38.703125 11.40625 
Q 43.21875 16.703125 43.21875 25.484375 
L 43.21875 27.484375 
z
M 52.203125 31.203125 
L 52.203125 0 
L 43.21875 0 
L 43.21875 8.296875 
Q 40.140625 3.328125 35.546875 0.953125 
Q 30.953125 -1.421875 24.3125 -1.421875 
Q 15.921875 -1.421875 10.953125 3.296875 
Q 6 8.015625 6 15.921875 
Q 6 25.140625 12.171875 29.828125 
Q 18.359375 34.515625 30.609375 34.515625 
L 43.21875 34.515625 
L 43.21875 35.40625 
Q 43.21875 41.609375 39.140625 45 
Q 35.0625 48.390625 27.6875 48.390625 
Q 23 48.390625 18.546875 47.265625 
Q 14.109375 46.140625 10.015625 43.890625 
L 10.015625 52.203125 
Q 14.9375 54.109375 19.578125 55.046875 
Q 24.21875 56 28.609375 56 
Q 40.484375 56 46.34375 49.84375 
Q 52.203125 43.703125 52.203125 31.203125 
z
" id="DejaVuSans-97"/>
        <path d="M 41.109375 46.296875 
Q 39.59375 47.171875 37.8125 47.578125 
Q 36.03125 48 33.890625 48 
Q 26.265625 48 22.1875 43.046875 
Q 18.109375 38.09375 18.109375 28.8125 
L 18.109375 0 
L 9.078125 0 
L 9.078125 54.6875 
L 18.109375 54.6875 
L 18.109375 46.1875 
Q 20.953125 51.171875 25.484375 53.578125 
Q 30.03125 56 36.53125 56 
Q 37.453125 56 38.578125 55.875 
Q 39.703125 55.765625 41.0625 55.515625 
z
" id="DejaVuSans-114"/>
       </defs>
       <use xlink:href="#DejaVuSans-77"/>
       <use x="86.279297" xlink:href="#DejaVuSans-97"/>
       <use x="147.558594" xlink:href="#DejaVuSans-114"/>
      </g>
     </g>
    </g>
    <g id="xtick_4">
     <g id="line2d_4">
      <g>
       <use style="fill:#252627;stroke:#252627;stroke-width:0.8;" x="157.846594" xlink:href="#m569ed703de" y="437.3688"/>
      </g>
     </g>
     <g id="text_3">
      <!-- Apr -->
      <g style="fill:#252627;" transform="translate(144.006594 456.5263)scale(0.16 -0.16)">
       <defs>
        <path d="M 34.1875 63.1875 
L 20.796875 26.90625 
L 47.609375 26.90625 
z
M 28.609375 72.90625 
L 39.796875 72.90625 
L 67.578125 0 
L 57.328125 0 
L 50.6875 18.703125 
L 17.828125 18.703125 
L 11.1875 0 
L 0.78125 0 
z
" id="DejaVuSans-65"/>
        <path d="M 18.109375 8.203125 
L 18.109375 -20.796875 
L 9.078125 -20.796875 
L 9.078125 54.6875 
L 18.109375 54.6875 
L 18.109375 46.390625 
Q 20.953125 51.265625 25.265625 53.625 
Q 29.59375 56 35.59375 56 
Q 45.5625 56 51.78125 48.09375 
Q 58.015625 40.1875 58.015625 27.296875 
Q 58.015625 14.40625 51.78125 6.484375 
Q 45.5625 -1.421875 35.59375 -1.421875 
Q 29.59375 -1.421875 25.265625 0.953125 
Q 20.953125 3.328125 18.109375 8.203125 
z
M 48.6875 27.296875 
Q 48.6875 37.203125 44.609375 42.84375 
Q 40.53125 48.484375 33.40625 48.484375 
Q 26.265625 48.484375 22.1875 42.84375 
Q 18.109375 37.203125 18.109375 27.296875 
Q 18.109375 17.390625 22.1875 11.75 
Q 26.265625 6.109375 33.40625 6.109375 
Q 40.53125 6.109375 44.609375 11.75 
Q 48.6875 17.390625 48.6875 27.296875 
z
" id="DejaVuSans-112"/>
       </defs>
       <use xlink:href="#DejaVuSans-65"/>
       <use x="68.408203" xlink:href="#DejaVuSans-112"/>
       <use x="131.884766" xlink:href="#DejaVuSans-114"/>
      </g>
     </g>
    </g>
    <g id="xtick_5">
     <g id="line2d_5">
      <g>
       <use style="fill:#252627;stroke:#252627;stroke-width:0.8;" x="203.459673" xlink:href="#m569ed703de" y="437.3688"/>
      </g>
     </g>
     <g id="text_4">
      <!-- May -->
      <g style="fill:#252627;" transform="translate(186.919673 456.5263)scale(0.16 -0.16)">
       <defs>
        <path d="M 32.171875 -5.078125 
Q 28.375 -14.84375 24.75 -17.8125 
Q 21.140625 -20.796875 15.09375 -20.796875 
L 7.90625 -20.796875 
L 7.90625 -13.28125 
L 13.1875 -13.28125 
Q 16.890625 -13.28125 18.9375 -11.515625 
Q 21 -9.765625 23.484375 -3.21875 
L 25.09375 0.875 
L 2.984375 54.6875 
L 12.5 54.6875 
L 29.59375 11.921875 
L 46.6875 54.6875 
L 56.203125 54.6875 
z
" id="DejaVuSans-121"/>
       </defs>
       <use xlink:href="#DejaVuSans-77"/>
       <use x="86.279297" xlink:href="#DejaVuSans-97"/>
       <use x="147.558594" xlink:href="#DejaVuSans-121"/>
      </g>
     </g>
    </g>
    <g id="xtick_6">
     <g id="line2d_6">
      <g>
       <use style="fill:#252627;stroke:#252627;stroke-width:0.8;" x="250.593188" xlink:href="#m569ed703de" y="437.3688"/>
      </g>
     </g>
     <g id="text_5">
      <!-- Jun -->
      <g style="fill:#252627;" transform="translate(238.093188 456.5263)scale(0.16 -0.16)">
       <defs>
        <path d="M 9.8125 72.90625 
L 19.671875 72.90625 
L 19.671875 5.078125 
Q 19.671875 -8.109375 14.671875 -14.0625 
Q 9.671875 -20.015625 -1.421875 -20.015625 
L -5.171875 -20.015625 
L -5.171875 -11.71875 
L -2.09375 -11.71875 
Q 4.4375 -11.71875 7.125 -8.046875 
Q 9.8125 -4.390625 9.8125 5.078125 
z
" id="DejaVuSans-74"/>
        <path d="M 8.5 21.578125 
L 8.5 54.6875 
L 17.484375 54.6875 
L 17.484375 21.921875 
Q 17.484375 14.15625 20.5 10.265625 
Q 23.53125 6.390625 29.59375 6.390625 
Q 36.859375 6.390625 41.078125 11.03125 
Q 45.3125 15.671875 45.3125 23.6875 
L 45.3125 54.6875 
L 54.296875 54.6875 
L 54.296875 0 
L 45.3125 0 
L 45.3125 8.40625 
Q 42.046875 3.421875 37.71875 1 
Q 33.40625 -1.421875 27.6875 -1.421875 
Q 18.265625 -1.421875 13.375 4.4375 
Q 8.5 10.296875 8.5 21.578125 
z
M 31.109375 56 
z
" id="DejaVuSans-117"/>
        <path d="M 54.890625 33.015625 
L 54.890625 0 
L 45.90625 0 
L 45.90625 32.71875 
Q 45.90625 40.484375 42.875 44.328125 
Q 39.84375 48.1875 33.796875 48.1875 
Q 26.515625 48.1875 22.3125 43.546875 
Q 18.109375 38.921875 18.109375 30.90625 
L 18.109375 0 
L 9.078125 0 
L 9.078125 54.6875 
L 18.109375 54.6875 
L 18.109375 46.1875 
Q 21.34375 51.125 25.703125 53.5625 
Q 30.078125 56 35.796875 56 
Q 45.21875 56 50.046875 50.171875 
Q 54.890625 44.34375 54.890625 33.015625 
z
" id="DejaVuSans-110"/>
       </defs>
       <use xlink:href="#DejaVuSans-74"/>
       <use x="29.492188" xlink:href="#DejaVuSans-117"/>
       <use x="92.871094" xlink:href="#DejaVuSans-110"/>
      </g>
     </g>
    </g>
    <g id="xtick_7">
     <g id="line2d_7">
      <g>
       <use style="fill:#252627;stroke:#252627;stroke-width:0.8;" x="296.206267" xlink:href="#m569ed703de" y="437.3688"/>
      </g>
     </g>
     <g id="text_6">
      <!-- Jul -->
      <g style="fill:#252627;" transform="translate(286.553767 456.5263)scale(0.16 -0.16)">
       <defs>
        <path d="M 9.421875 75.984375 
L 18.40625 75.984375 
L 18.40625 0 
L 9.421875 0 
z
" id="DejaVuSans-108"/>
       </defs>
       <use xlink:href="#DejaVuSans-74"/>
       <use x="29.492188" xlink:href="#DejaVuSans-117"/>
       <use x="92.871094" xlink:href="#DejaVuSans-108"/>
      </g>
     </g>
    </g>
    <g id="xtick_8">
     <g id="line2d_8">
      <g>
       <use style="fill:#252627;stroke:#252627;stroke-width:0.8;" x="343.339782" xlink:href="#m569ed703de" y="437.3688"/>
      </g>
     </g>
     <g id="text_7">
      <!-- Aug -->
      <g style="fill:#252627;" transform="translate(327.718532 456.5263)scale(0.16 -0.16)">
       <defs>
        <path d="M 45.40625 27.984375 
Q 45.40625 37.75 41.375 43.109375 
Q 37.359375 48.484375 30.078125 48.484375 
Q 22.859375 48.484375 18.828125 43.109375 
Q 14.796875 37.75 14.796875 27.984375 
Q 14.796875 18.265625 18.828125 12.890625 
Q 22.859375 7.515625 30.078125 7.515625 
Q 37.359375 7.515625 41.375 12.890625 
Q 45.40625 18.265625 45.40625 27.984375 
z
M 54.390625 6.78125 
Q 54.390625 -7.171875 48.1875 -13.984375 
Q 42 -20.796875 29.203125 -20.796875 
Q 24.46875 -20.796875 20.265625 -20.09375 
Q 16.0625 -19.390625 12.109375 -17.921875 
L 12.109375 -9.1875 
Q 16.0625 -11.328125 19.921875 -12.34375 
Q 23.78125 -13.375 27.78125 -13.375 
Q 36.625 -13.375 41.015625 -8.765625 
Q 45.40625 -4.15625 45.40625 5.171875 
L 45.40625 9.625 
Q 42.625 4.78125 38.28125 2.390625 
Q 33.9375 0 27.875 0 
Q 17.828125 0 11.671875 7.65625 
Q 5.515625 15.328125 5.515625 27.984375 
Q 5.515625 40.671875 11.671875 48.328125 
Q 17.828125 56 27.875 56 
Q 33.9375 56 38.28125 53.609375 
Q 42.625 51.21875 45.40625 46.390625 
L 45.40625 54.6875 
L 54.390625 54.6875 
z
" id="DejaVuSans-103"/>
       </defs>
       <use xlink:href="#DejaVuSans-65"/>
       <use x="68.408203" xlink:href="#DejaVuSans-117"/>
       <use x="131.787109" xlink:href="#DejaVuSans-103"/>
      </g>
     </g>
    </g>
    <g id="xtick_9">
     <g id="line2d_9">
      <g>
       <use style="fill:#252627;stroke:#252627;stroke-width:0.8;" x="390.473297" xlink:href="#m569ed703de" y="437.3688"/>
      </g>
     </g>
     <g id="text_8">
      <!-- Sep -->
      <g style="fill:#252627;" transform="translate(375.393297 456.5263)scale(0.16 -0.16)">
       <defs>
        <path d="M 53.515625 70.515625 
L 53.515625 60.890625 
Q 47.90625 63.578125 42.921875 64.890625 
Q 37.9375 66.21875 33.296875 66.21875 
Q 25.25 66.21875 20.875 63.09375 
Q 16.5 59.96875 16.5 54.203125 
Q 16.5 49.359375 19.40625 46.890625 
Q 22.3125 44.4375 30.421875 42.921875 
L 36.375 41.703125 
Q 47.40625 39.59375 52.65625 34.296875 
Q 57.90625 29 57.90625 20.125 
Q 57.90625 9.515625 50.796875 4.046875 
Q 43.703125 -1.421875 29.984375 -1.421875 
Q 24.8125 -1.421875 18.96875 -0.25 
Q 13.140625 0.921875 6.890625 3.21875 
L 6.890625 13.375 
Q 12.890625 10.015625 18.65625 8.296875 
Q 24.421875 6.59375 29.984375 6.59375 
Q 38.421875 6.59375 43.015625 9.90625 
Q 47.609375 13.234375 47.609375 19.390625 
Q 47.609375 24.75 44.3125 27.78125 
Q 41.015625 30.8125 33.5 32.328125 
L 27.484375 33.5 
Q 16.453125 35.6875 11.515625 40.375 
Q 6.59375 45.0625 6.59375 53.421875 
Q 6.59375 63.09375 13.40625 68.65625 
Q 20.21875 74.21875 32.171875 74.21875 
Q 37.3125 74.21875 42.625 73.28125 
Q 47.953125 72.359375 53.515625 70.515625 
z
" id="DejaVuSans-83"/>
       </defs>
       <use xlink:href="#DejaVuSans-83"/>
       <use x="63.476562" xlink:href="#DejaVuSans-101"/>
       <use x="125" xlink:href="#DejaVuSans-112"/>
      </g>
     </g>
    </g>
    <g id="xtick_10">
     <g id="line2d_10">
      <g>
       <use style="fill:#252627;stroke:#252627;stroke-width:0.8;" x="436.086376" xlink:href="#m569ed703de" y="437.3688"/>
      </g>
     </g>
     <g id="text_9">
      <!-- Oct -->
      <g style="fill:#252627;" transform="translate(422.253876 456.5263)scale(0.16 -0.16)">
       <defs>
        <path d="M 39.40625 66.21875 
Q 28.65625 66.21875 22.328125 58.203125 
Q 16.015625 50.203125 16.015625 36.375 
Q 16.015625 22.609375 22.328125 14.59375 
Q 28.65625 6.59375 39.40625 6.59375 
Q 50.140625 6.59375 56.421875 14.59375 
Q 62.703125 22.609375 62.703125 36.375 
Q 62.703125 50.203125 56.421875 58.203125 
Q 50.140625 66.21875 39.40625 66.21875 
z
M 39.40625 74.21875 
Q 54.734375 74.21875 63.90625 63.9375 
Q 73.09375 53.65625 73.09375 36.375 
Q 73.09375 19.140625 63.90625 8.859375 
Q 54.734375 -1.421875 39.40625 -1.421875 
Q 24.03125 -1.421875 14.8125 8.828125 
Q 5.609375 19.09375 5.609375 36.375 
Q 5.609375 53.65625 14.8125 63.9375 
Q 24.03125 74.21875 39.40625 74.21875 
z
" id="DejaVuSans-79"/>
        <path d="M 48.78125 52.59375 
L 48.78125 44.1875 
Q 44.96875 46.296875 41.140625 47.34375 
Q 37.3125 48.390625 33.40625 48.390625 
Q 24.65625 48.390625 19.8125 42.84375 
Q 14.984375 37.3125 14.984375 27.296875 
Q 14.984375 17.28125 19.8125 11.734375 
Q 24.65625 6.203125 33.40625 6.203125 
Q 37.3125 6.203125 41.140625 7.25 
Q 44.96875 8.296875 48.78125 10.40625 
L 48.78125 2.09375 
Q 45.015625 0.34375 40.984375 -0.53125 
Q 36.96875 -1.421875 32.421875 -1.421875 
Q 20.0625 -1.421875 12.78125 6.34375 
Q 5.515625 14.109375 5.515625 27.296875 
Q 5.515625 40.671875 12.859375 48.328125 
Q 20.21875 56 33.015625 56 
Q 37.15625 56 41.109375 55.140625 
Q 45.0625 54.296875 48.78125 52.59375 
z
" id="DejaVuSans-99"/>
        <path d="M 18.3125 70.21875 
L 18.3125 54.6875 
L 36.8125 54.6875 
L 36.8125 47.703125 
L 18.3125 47.703125 
L 18.3125 18.015625 
Q 18.3125 11.328125 20.140625 9.421875 
Q 21.96875 7.515625 27.59375 7.515625 
L 36.8125 7.515625 
L 36.8125 0 
L 27.59375 0 
Q 17.1875 0 13.234375 3.875 
Q 9.28125 7.765625 9.28125 18.015625 
L 9.28125 47.703125 
L 2.6875 47.703125 
L 2.6875 54.6875 
L 9.28125 54.6875 
L 9.28125 70.21875 
z
" id="DejaVuSans-116"/>
       </defs>
       <use xlink:href="#DejaVuSans-79"/>
       <use x="78.710938" xlink:href="#DejaVuSans-99"/>
       <use x="133.691406" xlink:href="#DejaVuSans-116"/>
      </g>
     </g>
    </g>
    <g id="xtick_11">
     <g id="line2d_11">
      <g>
       <use style="fill:#252627;stroke:#252627;stroke-width:0.8;" x="483.219891" xlink:href="#m569ed703de" y="437.3688"/>
      </g>
     </g>
     <g id="text_10">
      <!-- Nov -->
      <g style="fill:#252627;" transform="translate(467.604891 456.5263)scale(0.16 -0.16)">
       <defs>
        <path d="M 9.8125 72.90625 
L 23.09375 72.90625 
L 55.421875 11.921875 
L 55.421875 72.90625 
L 64.984375 72.90625 
L 64.984375 0 
L 51.703125 0 
L 19.390625 60.984375 
L 19.390625 0 
L 9.8125 0 
z
" id="DejaVuSans-78"/>
        <path d="M 30.609375 48.390625 
Q 23.390625 48.390625 19.1875 42.75 
Q 14.984375 37.109375 14.984375 27.296875 
Q 14.984375 17.484375 19.15625 11.84375 
Q 23.34375 6.203125 30.609375 6.203125 
Q 37.796875 6.203125 41.984375 11.859375 
Q 46.1875 17.53125 46.1875 27.296875 
Q 46.1875 37.015625 41.984375 42.703125 
Q 37.796875 48.390625 30.609375 48.390625 
z
M 30.609375 56 
Q 42.328125 56 49.015625 48.375 
Q 55.71875 40.765625 55.71875 27.296875 
Q 55.71875 13.875 49.015625 6.21875 
Q 42.328125 -1.421875 30.609375 -1.421875 
Q 18.84375 -1.421875 12.171875 6.21875 
Q 5.515625 13.875 5.515625 27.296875 
Q 5.515625 40.765625 12.171875 48.375 
Q 18.84375 56 30.609375 56 
z
" id="DejaVuSans-111"/>
        <path d="M 2.984375 54.6875 
L 12.5 54.6875 
L 29.59375 8.796875 
L 46.6875 54.6875 
L 56.203125 54.6875 
L 35.6875 0 
L 23.484375 0 
z
" id="DejaVuSans-118"/>
       </defs>
       <use xlink:href="#DejaVuSans-78"/>
       <use x="74.804688" xlink:href="#DejaVuSans-111"/>
       <use x="135.986328" xlink:href="#DejaVuSans-118"/>
      </g>
     </g>
    </g>
    <g id="xtick_12">
     <g id="line2d_12">
      <g>
       <use style="fill:#252627;stroke:#252627;stroke-width:0.8;" x="528.83297" xlink:href="#m569ed703de" y="437.3688"/>
      </g>
     </g>
     <g id="text_11">
      <!-- Dec -->
      <g style="fill:#252627;" transform="translate(513.35172 456.5263)scale(0.16 -0.16)">
       <defs>
        <path d="M 19.671875 64.796875 
L 19.671875 8.109375 
L 31.59375 8.109375 
Q 46.6875 8.109375 53.6875 14.9375 
Q 60.6875 21.78125 60.6875 36.53125 
Q 60.6875 51.171875 53.6875 57.984375 
Q 46.6875 64.796875 31.59375 64.796875 
z
M 9.8125 72.90625 
L 30.078125 72.90625 
Q 51.265625 72.90625 61.171875 64.09375 
Q 71.09375 55.28125 71.09375 36.53125 
Q 71.09375 17.671875 61.125 8.828125 
Q 51.171875 0 30.078125 0 
L 9.8125 0 
z
" id="DejaVuSans-68"/>
       </defs>
       <use xlink:href="#DejaVuSans-68"/>
       <use x="77.001953" xlink:href="#DejaVuSans-101"/>
       <use x="138.525391" xlink:href="#DejaVuSans-99"/>
      </g>
     </g>
    </g>
    <g id="xtick_13">
     <g id="line2d_13">
      <g>
       <use style="fill:#252627;stroke:#252627;stroke-width:0.8;" x="575.966485" xlink:href="#m569ed703de" y="437.3688"/>
      </g>
     </g>
     <g id="text_12">
      <!-- Jan -->
      <g style="fill:#252627;" transform="translate(563.633985 456.5263)scale(0.16 -0.16)">
       <use xlink:href="#DejaVuSans-74"/>
       <use x="29.492188" xlink:href="#DejaVuSans-97"/>
       <use x="90.771484" xlink:href="#DejaVuSans-110"/>
      </g>
      <!-- 2021 -->
      <g style="fill:#252627;" transform="translate(555.606485 474.4428)scale(0.16 -0.16)">
       <defs>
        <path d="M 19.1875 8.296875 
L 53.609375 8.296875 
L 53.609375 0 
L 7.328125 0 
L 7.328125 8.296875 
Q 12.9375 14.109375 22.625 23.890625 
Q 32.328125 33.6875 34.8125 36.53125 
Q 39.546875 41.84375 41.421875 45.53125 
Q 43.3125 49.21875 43.3125 52.78125 
Q 43.3125 58.59375 39.234375 62.25 
Q 35.15625 65.921875 28.609375 65.921875 
Q 23.96875 65.921875 18.8125 64.3125 
Q 13.671875 62.703125 7.8125 59.421875 
L 7.8125 69.390625 
Q 13.765625 71.78125 18.9375 73 
Q 24.125 74.21875 28.421875 74.21875 
Q 39.75 74.21875 46.484375 68.546875 
Q 53.21875 62.890625 53.21875 53.421875 
Q 53.21875 48.921875 51.53125 44.890625 
Q 49.859375 40.875 45.40625 35.40625 
Q 44.1875 33.984375 37.640625 27.21875 
Q 31.109375 20.453125 19.1875 8.296875 
z
" id="DejaVuSans-50"/>
        <path d="M 31.78125 66.40625 
Q 24.171875 66.40625 20.328125 58.90625 
Q 16.5 51.421875 16.5 36.375 
Q 16.5 21.390625 20.328125 13.890625 
Q 24.171875 6.390625 31.78125 6.390625 
Q 39.453125 6.390625 43.28125 13.890625 
Q 47.125 21.390625 47.125 36.375 
Q 47.125 51.421875 43.28125 58.90625 
Q 39.453125 66.40625 31.78125 66.40625 
z
M 31.78125 74.21875 
Q 44.046875 74.21875 50.515625 64.515625 
Q 56.984375 54.828125 56.984375 36.375 
Q 56.984375 17.96875 50.515625 8.265625 
Q 44.046875 -1.421875 31.78125 -1.421875 
Q 19.53125 -1.421875 13.0625 8.265625 
Q 6.59375 17.96875 6.59375 36.375 
Q 6.59375 54.828125 13.0625 64.515625 
Q 19.53125 74.21875 31.78125 74.21875 
z
" id="DejaVuSans-48"/>
        <path d="M 12.40625 8.296875 
L 28.515625 8.296875 
L 28.515625 63.921875 
L 10.984375 60.40625 
L 10.984375 69.390625 
L 28.421875 72.90625 
L 38.28125 72.90625 
L 38.28125 8.296875 
L 54.390625 8.296875 
L 54.390625 0 
L 12.40625 0 
z
" id="DejaVuSans-49"/>
       </defs>
       <use xlink:href="#DejaVuSans-50"/>
       <use x="63.623047" xlink:href="#DejaVuSans-48"/>
       <use x="127.246094" xlink:href="#DejaVuSans-50"/>
       <use x="190.869141" xlink:href="#DejaVuSans-49"/>
      </g>
     </g>
    </g>
    <g id="xtick_14">
     <g id="line2d_14">
      <g>
       <use style="fill:#252627;stroke:#252627;stroke-width:0.8;" x="623.1" xlink:href="#m569ed703de" y="437.3688"/>
      </g>
     </g>
     <g id="text_13">
      <!-- Feb -->
      <g style="fill:#252627;" transform="translate(608.9375 456.5263)scale(0.16 -0.16)">
       <use xlink:href="#DejaVuSans-70"/>
       <use x="52.019531" xlink:href="#DejaVuSans-101"/>
       <use x="113.542969" xlink:href="#DejaVuSans-98"/>
      </g>
     </g>
    </g>
    <g id="xtick_15">
     <g id="line2d_15">
      <defs>
       <path d="M 0 0 
L 0 2 
" id="m4e5d26e2db" style="stroke:#252627;stroke-width:0.6;"/>
      </defs>
      <g>
       <use style="fill:#252627;stroke:#252627;stroke-width:0.6;" x="69.661308" xlink:href="#m4e5d26e2db" y="437.3688"/>
      </g>
     </g>
    </g>
    <g id="xtick_16">
     <g id="line2d_16">
      <g>
       <use style="fill:#252627;stroke:#252627;stroke-width:0.6;" x="80.30436" xlink:href="#m4e5d26e2db" y="437.3688"/>
      </g>
     </g>
    </g>
    <g id="xtick_17">
     <g id="line2d_17">
      <g>
       <use style="fill:#252627;stroke:#252627;stroke-width:0.6;" x="90.947411" xlink:href="#m4e5d26e2db" y="437.3688"/>
      </g>
     </g>
    </g>
    <g id="xtick_18">
     <g id="line2d_18">
      <g>
       <use style="fill:#252627;stroke:#252627;stroke-width:0.6;" x="101.590463" xlink:href="#m4e5d26e2db" y="437.3688"/>
      </g>
     </g>
    </g>
    <g id="xtick_19">
     <g id="line2d_19">
      <g>
       <use style="fill:#252627;stroke:#252627;stroke-width:0.6;" x="112.233515" xlink:href="#m4e5d26e2db" y="437.3688"/>
      </g>
     </g>
    </g>
    <g id="xtick_20">
     <g id="line2d_20">
      <g>
       <use style="fill:#252627;stroke:#252627;stroke-width:0.6;" x="122.876567" xlink:href="#m4e5d26e2db" y="437.3688"/>
      </g>
     </g>
    </g>
    <g id="xtick_21">
     <g id="line2d_21">
      <g>
       <use style="fill:#252627;stroke:#252627;stroke-width:0.6;" x="133.519619" xlink:href="#m4e5d26e2db" y="437.3688"/>
      </g>
     </g>
    </g>
    <g id="xtick_22">
     <g id="line2d_22">
      <g>
       <use style="fill:#252627;stroke:#252627;stroke-width:0.6;" x="144.16267" xlink:href="#m4e5d26e2db" y="437.3688"/>
      </g>
     </g>
    </g>
    <g id="xtick_23">
     <g id="line2d_23">
      <g>
       <use style="fill:#252627;stroke:#252627;stroke-width:0.6;" x="154.805722" xlink:href="#m4e5d26e2db" y="437.3688"/>
      </g>
     </g>
    </g>
    <g id="xtick_24">
     <g id="line2d_24">
      <g>
       <use style="fill:#252627;stroke:#252627;stroke-width:0.6;" x="165.448774" xlink:href="#m4e5d26e2db" y="437.3688"/>
      </g>
     </g>
    </g>
    <g id="xtick_25">
     <g id="line2d_25">
      <g>
       <use style="fill:#252627;stroke:#252627;stroke-width:0.6;" x="176.091826" xlink:href="#m4e5d26e2db" y="437.3688"/>
      </g>
     </g>
    </g>
    <g id="xtick_26">
     <g id="line2d_26">
      <g>
       <use style="fill:#252627;stroke:#252627;stroke-width:0.6;" x="186.734877" xlink:href="#m4e5d26e2db" y="437.3688"/>
      </g>
     </g>
    </g>
    <g id="xtick_27">
     <g id="line2d_27">
      <g>
       <use style="fill:#252627;stroke:#252627;stroke-width:0.6;" x="197.377929" xlink:href="#m4e5d26e2db" y="437.3688"/>
      </g>
     </g>
    </g>
    <g id="xtick_28">
     <g id="line2d_28">
      <g>
       <use style="fill:#252627;stroke:#252627;stroke-width:0.6;" x="208.020981" xlink:href="#m4e5d26e2db" y="437.3688"/>
      </g>
     </g>
    </g>
    <g id="xtick_29">
     <g id="line2d_29">
      <g>
       <use style="fill:#252627;stroke:#252627;stroke-width:0.6;" x="218.664033" xlink:href="#m4e5d26e2db" y="437.3688"/>
      </g>
     </g>
    </g>
    <g id="xtick_30">
     <g id="line2d_30">
      <g>
       <use style="fill:#252627;stroke:#252627;stroke-width:0.6;" x="229.307084" xlink:href="#m4e5d26e2db" y="437.3688"/>
      </g>
     </g>
    </g>
    <g id="xtick_31">
     <g id="line2d_31">
      <g>
       <use style="fill:#252627;stroke:#252627;stroke-width:0.6;" x="239.950136" xlink:href="#m4e5d26e2db" y="437.3688"/>
      </g>
     </g>
    </g>
    <g id="xtick_32">
     <g id="line2d_32">
      <g>
       <use style="fill:#252627;stroke:#252627;stroke-width:0.6;" x="261.23624" xlink:href="#m4e5d26e2db" y="437.3688"/>
      </g>
     </g>
    </g>
    <g id="xtick_33">
     <g id="line2d_33">
      <g>
       <use style="fill:#252627;stroke:#252627;stroke-width:0.6;" x="271.879292" xlink:href="#m4e5d26e2db" y="437.3688"/>
      </g>
     </g>
    </g>
    <g id="xtick_34">
     <g id="line2d_34">
      <g>
       <use style="fill:#252627;stroke:#252627;stroke-width:0.6;" x="282.522343" xlink:href="#m4e5d26e2db" y="437.3688"/>
      </g>
     </g>
    </g>
    <g id="xtick_35">
     <g id="line2d_35">
      <g>
       <use style="fill:#252627;stroke:#252627;stroke-width:0.6;" x="293.165395" xlink:href="#m4e5d26e2db" y="437.3688"/>
      </g>
     </g>
    </g>
    <g id="xtick_36">
     <g id="line2d_36">
      <g>
       <use style="fill:#252627;stroke:#252627;stroke-width:0.6;" x="303.808447" xlink:href="#m4e5d26e2db" y="437.3688"/>
      </g>
     </g>
    </g>
    <g id="xtick_37">
     <g id="line2d_37">
      <g>
       <use style="fill:#252627;stroke:#252627;stroke-width:0.6;" x="314.451499" xlink:href="#m4e5d26e2db" y="437.3688"/>
      </g>
     </g>
    </g>
    <g id="xtick_38">
     <g id="line2d_38">
      <g>
       <use style="fill:#252627;stroke:#252627;stroke-width:0.6;" x="325.09455" xlink:href="#m4e5d26e2db" y="437.3688"/>
      </g>
     </g>
    </g>
    <g id="xtick_39">
     <g id="line2d_39">
      <g>
       <use style="fill:#252627;stroke:#252627;stroke-width:0.6;" x="335.737602" xlink:href="#m4e5d26e2db" y="437.3688"/>
      </g>
     </g>
    </g>
    <g id="xtick_40">
     <g id="line2d_40">
      <g>
       <use style="fill:#252627;stroke:#252627;stroke-width:0.6;" x="346.380654" xlink:href="#m4e5d26e2db" y="437.3688"/>
      </g>
     </g>
    </g>
    <g id="xtick_41">
     <g id="line2d_41">
      <g>
       <use style="fill:#252627;stroke:#252627;stroke-width:0.6;" x="357.023706" xlink:href="#m4e5d26e2db" y="437.3688"/>
      </g>
     </g>
    </g>
    <g id="xtick_42">
     <g id="line2d_42">
      <g>
       <use style="fill:#252627;stroke:#252627;stroke-width:0.6;" x="367.666757" xlink:href="#m4e5d26e2db" y="437.3688"/>
      </g>
     </g>
    </g>
    <g id="xtick_43">
     <g id="line2d_43">
      <g>
       <use style="fill:#252627;stroke:#252627;stroke-width:0.6;" x="378.309809" xlink:href="#m4e5d26e2db" y="437.3688"/>
      </g>
     </g>
    </g>
    <g id="xtick_44">
     <g id="line2d_44">
      <g>
       <use style="fill:#252627;stroke:#252627;stroke-width:0.6;" x="388.952861" xlink:href="#m4e5d26e2db" y="437.3688"/>
      </g>
     </g>
    </g>
    <g id="xtick_45">
     <g id="line2d_45">
      <g>
       <use style="fill:#252627;stroke:#252627;stroke-width:0.6;" x="399.595913" xlink:href="#m4e5d26e2db" y="437.3688"/>
      </g>
     </g>
    </g>
    <g id="xtick_46">
     <g id="line2d_46">
      <g>
       <use style="fill:#252627;stroke:#252627;stroke-width:0.6;" x="410.238965" xlink:href="#m4e5d26e2db" y="437.3688"/>
      </g>
     </g>
    </g>
    <g id="xtick_47">
     <g id="line2d_47">
      <g>
       <use style="fill:#252627;stroke:#252627;stroke-width:0.6;" x="420.882016" xlink:href="#m4e5d26e2db" y="437.3688"/>
      </g>
     </g>
    </g>
    <g id="xtick_48">
     <g id="line2d_48">
      <g>
       <use style="fill:#252627;stroke:#252627;stroke-width:0.6;" x="431.525068" xlink:href="#m4e5d26e2db" y="437.3688"/>
      </g>
     </g>
    </g>
    <g id="xtick_49">
     <g id="line2d_49">
      <g>
       <use style="fill:#252627;stroke:#252627;stroke-width:0.6;" x="442.16812" xlink:href="#m4e5d26e2db" y="437.3688"/>
      </g>
     </g>
    </g>
    <g id="xtick_50">
     <g id="line2d_50">
      <g>
       <use style="fill:#252627;stroke:#252627;stroke-width:0.6;" x="452.811172" xlink:href="#m4e5d26e2db" y="437.3688"/>
      </g>
     </g>
    </g>
    <g id="xtick_51">
     <g id="line2d_51">
      <g>
       <use style="fill:#252627;stroke:#252627;stroke-width:0.6;" x="463.454223" xlink:href="#m4e5d26e2db" y="437.3688"/>
      </g>
     </g>
    </g>
    <g id="xtick_52">
     <g id="line2d_52">
      <g>
       <use style="fill:#252627;stroke:#252627;stroke-width:0.6;" x="474.097275" xlink:href="#m4e5d26e2db" y="437.3688"/>
      </g>
     </g>
    </g>
    <g id="xtick_53">
     <g id="line2d_53">
      <g>
       <use style="fill:#252627;stroke:#252627;stroke-width:0.6;" x="484.740327" xlink:href="#m4e5d26e2db" y="437.3688"/>
      </g>
     </g>
    </g>
    <g id="xtick_54">
     <g id="line2d_54">
      <g>
       <use style="fill:#252627;stroke:#252627;stroke-width:0.6;" x="495.383379" xlink:href="#m4e5d26e2db" y="437.3688"/>
      </g>
     </g>
    </g>
    <g id="xtick_55">
     <g id="line2d_55">
      <g>
       <use style="fill:#252627;stroke:#252627;stroke-width:0.6;" x="506.026431" xlink:href="#m4e5d26e2db" y="437.3688"/>
      </g>
     </g>
    </g>
    <g id="xtick_56">
     <g id="line2d_56">
      <g>
       <use style="fill:#252627;stroke:#252627;stroke-width:0.6;" x="516.669482" xlink:href="#m4e5d26e2db" y="437.3688"/>
      </g>
     </g>
    </g>
    <g id="xtick_57">
     <g id="line2d_57">
      <g>
       <use style="fill:#252627;stroke:#252627;stroke-width:0.6;" x="527.312534" xlink:href="#m4e5d26e2db" y="437.3688"/>
      </g>
     </g>
    </g>
    <g id="xtick_58">
     <g id="line2d_58">
      <g>
       <use style="fill:#252627;stroke:#252627;stroke-width:0.6;" x="537.955586" xlink:href="#m4e5d26e2db" y="437.3688"/>
      </g>
     </g>
    </g>
    <g id="xtick_59">
     <g id="line2d_59">
      <g>
       <use style="fill:#252627;stroke:#252627;stroke-width:0.6;" x="548.598638" xlink:href="#m4e5d26e2db" y="437.3688"/>
      </g>
     </g>
    </g>
    <g id="xtick_60">
     <g id="line2d_60">
      <g>
       <use style="fill:#252627;stroke:#252627;stroke-width:0.6;" x="559.241689" xlink:href="#m4e5d26e2db" y="437.3688"/>
      </g>
     </g>
    </g>
    <g id="xtick_61">
     <g id="line2d_61">
      <g>
       <use style="fill:#252627;stroke:#252627;stroke-width:0.6;" x="569.884741" xlink:href="#m4e5d26e2db" y="437.3688"/>
      </g>
     </g>
    </g>
    <g id="xtick_62">
     <g id="line2d_62">
      <g>
       <use style="fill:#252627;stroke:#252627;stroke-width:0.6;" x="580.527793" xlink:href="#m4e5d26e2db" y="437.3688"/>
      </g>
     </g>
    </g>
    <g id="xtick_63">
     <g id="line2d_63">
      <g>
       <use style="fill:#252627;stroke:#252627;stroke-width:0.6;" x="591.170845" xlink:href="#m4e5d26e2db" y="437.3688"/>
      </g>
     </g>
    </g>
    <g id="xtick_64">
     <g id="line2d_64">
      <g>
       <use style="fill:#252627;stroke:#252627;stroke-width:0.6;" x="601.813896" xlink:href="#m4e5d26e2db" y="437.3688"/>
      </g>
     </g>
    </g>
    <g id="xtick_65">
     <g id="line2d_65">
      <g>
       <use style="fill:#252627;stroke:#252627;stroke-width:0.6;" x="612.456948" xlink:href="#m4e5d26e2db" y="437.3688"/>
      </g>
     </g>
    </g>
    <g id="text_14">
     <!-- date -->
     <g style="fill:#252627;" transform="translate(326.06 493.9278)scale(0.16 -0.16)">
      <defs>
       <path d="M 45.40625 46.390625 
L 45.40625 75.984375 
L 54.390625 75.984375 
L 54.390625 0 
L 45.40625 0 
L 45.40625 8.203125 
Q 42.578125 3.328125 38.25 0.953125 
Q 33.9375 -1.421875 27.875 -1.421875 
Q 17.96875 -1.421875 11.734375 6.484375 
Q 5.515625 14.40625 5.515625 27.296875 
Q 5.515625 40.1875 11.734375 48.09375 
Q 17.96875 56 27.875 56 
Q 33.9375 56 38.25 53.625 
Q 42.578125 51.265625 45.40625 46.390625 
z
M 14.796875 27.296875 
Q 14.796875 17.390625 18.875 11.75 
Q 22.953125 6.109375 30.078125 6.109375 
Q 37.203125 6.109375 41.296875 11.75 
Q 45.40625 17.390625 45.40625 27.296875 
Q 45.40625 37.203125 41.296875 42.84375 
Q 37.203125 48.484375 30.078125 48.484375 
Q 22.953125 48.484375 18.875 42.84375 
Q 14.796875 37.203125 14.796875 27.296875 
z
" id="DejaVuSans-100"/>
      </defs>
      <use xlink:href="#DejaVuSans-100"/>
      <use x="63.476562" xlink:href="#DejaVuSans-97"/>
      <use x="124.755859" xlink:href="#DejaVuSans-116"/>
      <use x="163.964844" xlink:href="#DejaVuSans-101"/>
     </g>
    </g>
   </g>
   <g id="matplotlib.axis_2">
    <g id="ytick_1">
     <g id="line2d_66">
      <defs>
       <path d="M 0 0 
L -3.5 0 
" id="mc0808720e7" style="stroke:#252627;stroke-width:0.8;"/>
      </defs>
      <g>
       <use style="fill:#252627;stroke:#252627;stroke-width:0.8;" x="65.1" xlink:href="#mc0808720e7" y="419.7288"/>
      </g>
     </g>
     <g id="text_15">
      <!-- 0 -->
      <g style="fill:#252627;" transform="translate(47.92 425.80755)scale(0.16 -0.16)">
       <use xlink:href="#DejaVuSans-48"/>
      </g>
     </g>
    </g>
    <g id="ytick_2">
     <g id="line2d_67">
      <g>
       <use style="fill:#252627;stroke:#252627;stroke-width:0.8;" x="65.1" xlink:href="#mc0808720e7" y="360.760318"/>
      </g>
     </g>
     <g id="text_16">
      <!-- 10000 -->
      <g style="fill:#252627;" transform="translate(7.2 366.839068)scale(0.16 -0.16)">
       <use xlink:href="#DejaVuSans-49"/>
       <use x="63.623047" xlink:href="#DejaVuSans-48"/>
       <use x="127.246094" xlink:href="#DejaVuSans-48"/>
       <use x="190.869141" xlink:href="#DejaVuSans-48"/>
       <use x="254.492188" xlink:href="#DejaVuSans-48"/>
      </g>
     </g>
    </g>
    <g id="ytick_3">
     <g id="line2d_68">
      <g>
       <use style="fill:#252627;stroke:#252627;stroke-width:0.8;" x="65.1" xlink:href="#mc0808720e7" y="301.791836"/>
      </g>
     </g>
     <g id="text_17">
      <!-- 20000 -->
      <g style="fill:#252627;" transform="translate(7.2 307.870586)scale(0.16 -0.16)">
       <use xlink:href="#DejaVuSans-50"/>
       <use x="63.623047" xlink:href="#DejaVuSans-48"/>
       <use x="127.246094" xlink:href="#DejaVuSans-48"/>
       <use x="190.869141" xlink:href="#DejaVuSans-48"/>
       <use x="254.492188" xlink:href="#DejaVuSans-48"/>
      </g>
     </g>
    </g>
    <g id="ytick_4">
     <g id="line2d_69">
      <g>
       <use style="fill:#252627;stroke:#252627;stroke-width:0.8;" x="65.1" xlink:href="#mc0808720e7" y="242.823355"/>
      </g>
     </g>
     <g id="text_18">
      <!-- 30000 -->
      <g style="fill:#252627;" transform="translate(7.2 248.902105)scale(0.16 -0.16)">
       <defs>
        <path d="M 40.578125 39.3125 
Q 47.65625 37.796875 51.625 33 
Q 55.609375 28.21875 55.609375 21.1875 
Q 55.609375 10.40625 48.1875 4.484375 
Q 40.765625 -1.421875 27.09375 -1.421875 
Q 22.515625 -1.421875 17.65625 -0.515625 
Q 12.796875 0.390625 7.625 2.203125 
L 7.625 11.71875 
Q 11.71875 9.328125 16.59375 8.109375 
Q 21.484375 6.890625 26.8125 6.890625 
Q 36.078125 6.890625 40.9375 10.546875 
Q 45.796875 14.203125 45.796875 21.1875 
Q 45.796875 27.640625 41.28125 31.265625 
Q 36.765625 34.90625 28.71875 34.90625 
L 20.21875 34.90625 
L 20.21875 43.015625 
L 29.109375 43.015625 
Q 36.375 43.015625 40.234375 45.921875 
Q 44.09375 48.828125 44.09375 54.296875 
Q 44.09375 59.90625 40.109375 62.90625 
Q 36.140625 65.921875 28.71875 65.921875 
Q 24.65625 65.921875 20.015625 65.03125 
Q 15.375 64.15625 9.8125 62.3125 
L 9.8125 71.09375 
Q 15.4375 72.65625 20.34375 73.4375 
Q 25.25 74.21875 29.59375 74.21875 
Q 40.828125 74.21875 47.359375 69.109375 
Q 53.90625 64.015625 53.90625 55.328125 
Q 53.90625 49.265625 50.4375 45.09375 
Q 46.96875 40.921875 40.578125 39.3125 
z
" id="DejaVuSans-51"/>
       </defs>
       <use xlink:href="#DejaVuSans-51"/>
       <use x="63.623047" xlink:href="#DejaVuSans-48"/>
       <use x="127.246094" xlink:href="#DejaVuSans-48"/>
       <use x="190.869141" xlink:href="#DejaVuSans-48"/>
       <use x="254.492188" xlink:href="#DejaVuSans-48"/>
      </g>
     </g>
    </g>
    <g id="ytick_5">
     <g id="line2d_70">
      <g>
       <use style="fill:#252627;stroke:#252627;stroke-width:0.8;" x="65.1" xlink:href="#mc0808720e7" y="183.854873"/>
      </g>
     </g>
     <g id="text_19">
      <!-- 40000 -->
      <g style="fill:#252627;" transform="translate(7.2 189.933623)scale(0.16 -0.16)">
       <defs>
        <path d="M 37.796875 64.3125 
L 12.890625 25.390625 
L 37.796875 25.390625 
z
M 35.203125 72.90625 
L 47.609375 72.90625 
L 47.609375 25.390625 
L 58.015625 25.390625 
L 58.015625 17.1875 
L 47.609375 17.1875 
L 47.609375 0 
L 37.796875 0 
L 37.796875 17.1875 
L 4.890625 17.1875 
L 4.890625 26.703125 
z
" id="DejaVuSans-52"/>
       </defs>
       <use xlink:href="#DejaVuSans-52"/>
       <use x="63.623047" xlink:href="#DejaVuSans-48"/>
       <use x="127.246094" xlink:href="#DejaVuSans-48"/>
       <use x="190.869141" xlink:href="#DejaVuSans-48"/>
       <use x="254.492188" xlink:href="#DejaVuSans-48"/>
      </g>
     </g>
    </g>
    <g id="ytick_6">
     <g id="line2d_71">
      <g>
       <use style="fill:#252627;stroke:#252627;stroke-width:0.8;" x="65.1" xlink:href="#mc0808720e7" y="124.886391"/>
      </g>
     </g>
     <g id="text_20">
      <!-- 50000 -->
      <g style="fill:#252627;" transform="translate(7.2 130.965141)scale(0.16 -0.16)">
       <defs>
        <path d="M 10.796875 72.90625 
L 49.515625 72.90625 
L 49.515625 64.59375 
L 19.828125 64.59375 
L 19.828125 46.734375 
Q 21.96875 47.46875 24.109375 47.828125 
Q 26.265625 48.1875 28.421875 48.1875 
Q 40.625 48.1875 47.75 41.5 
Q 54.890625 34.8125 54.890625 23.390625 
Q 54.890625 11.625 47.5625 5.09375 
Q 40.234375 -1.421875 26.90625 -1.421875 
Q 22.3125 -1.421875 17.546875 -0.640625 
Q 12.796875 0.140625 7.71875 1.703125 
L 7.71875 11.625 
Q 12.109375 9.234375 16.796875 8.0625 
Q 21.484375 6.890625 26.703125 6.890625 
Q 35.15625 6.890625 40.078125 11.328125 
Q 45.015625 15.765625 45.015625 23.390625 
Q 45.015625 31 40.078125 35.4375 
Q 35.15625 39.890625 26.703125 39.890625 
Q 22.75 39.890625 18.8125 39.015625 
Q 14.890625 38.140625 10.796875 36.28125 
z
" id="DejaVuSans-53"/>
       </defs>
       <use xlink:href="#DejaVuSans-53"/>
       <use x="63.623047" xlink:href="#DejaVuSans-48"/>
       <use x="127.246094" xlink:href="#DejaVuSans-48"/>
       <use x="190.869141" xlink:href="#DejaVuSans-48"/>
       <use x="254.492188" xlink:href="#DejaVuSans-48"/>
      </g>
     </g>
    </g>
    <g id="ytick_7">
     <g id="line2d_72">
      <g>
       <use style="fill:#252627;stroke:#252627;stroke-width:0.8;" x="65.1" xlink:href="#mc0808720e7" y="65.917909"/>
      </g>
     </g>
     <g id="text_21">
      <!-- 60000 -->
      <g style="fill:#252627;" transform="translate(7.2 71.996659)scale(0.16 -0.16)">
       <defs>
        <path d="M 33.015625 40.375 
Q 26.375 40.375 22.484375 35.828125 
Q 18.609375 31.296875 18.609375 23.390625 
Q 18.609375 15.53125 22.484375 10.953125 
Q 26.375 6.390625 33.015625 6.390625 
Q 39.65625 6.390625 43.53125 10.953125 
Q 47.40625 15.53125 47.40625 23.390625 
Q 47.40625 31.296875 43.53125 35.828125 
Q 39.65625 40.375 33.015625 40.375 
z
M 52.59375 71.296875 
L 52.59375 62.3125 
Q 48.875 64.0625 45.09375 64.984375 
Q 41.3125 65.921875 37.59375 65.921875 
Q 27.828125 65.921875 22.671875 59.328125 
Q 17.53125 52.734375 16.796875 39.40625 
Q 19.671875 43.65625 24.015625 45.921875 
Q 28.375 48.1875 33.59375 48.1875 
Q 44.578125 48.1875 50.953125 41.515625 
Q 57.328125 34.859375 57.328125 23.390625 
Q 57.328125 12.15625 50.6875 5.359375 
Q 44.046875 -1.421875 33.015625 -1.421875 
Q 20.359375 -1.421875 13.671875 8.265625 
Q 6.984375 17.96875 6.984375 36.375 
Q 6.984375 53.65625 15.1875 63.9375 
Q 23.390625 74.21875 37.203125 74.21875 
Q 40.921875 74.21875 44.703125 73.484375 
Q 48.484375 72.75 52.59375 71.296875 
z
" id="DejaVuSans-54"/>
       </defs>
       <use xlink:href="#DejaVuSans-54"/>
       <use x="63.623047" xlink:href="#DejaVuSans-48"/>
       <use x="127.246094" xlink:href="#DejaVuSans-48"/>
       <use x="190.869141" xlink:href="#DejaVuSans-48"/>
       <use x="254.492188" xlink:href="#DejaVuSans-48"/>
      </g>
     </g>
    </g>
   </g>
   <g id="line2d_73">
    <path clip-path="url(#pb554332109)" d="M 74.222616 419.727957 
L 112.233515 419.629397 
L 118.315259 419.418797 
L 121.356131 419.232622 
L 122.876567 418.925985 
L 125.917439 417.997656 
L 127.437875 418.028821 
L 128.958311 415.658288 
L 130.478747 414.766184 
L 131.999183 413.726652 
L 133.519619 412.257493 
L 135.040054 411.260083 
L 136.56049 409.929082 
L 138.080926 406.514806 
L 139.601362 406.942747 
L 141.121798 403.737391 
L 142.642234 402.063529 
L 144.16267 398.5052 
L 145.683106 396.026 
L 147.203542 389.7349 
L 148.723978 386.181631 
L 150.244414 381.560188 
L 151.76485 379.410362 
L 153.285286 376.477948 
L 154.805722 375.23287 
L 156.326158 372.522001 
L 157.846594 373.730854 
L 159.36703 374.003796 
L 160.887466 374.67688 
L 162.407902 375.137677 
L 163.928338 376.314517 
L 166.96921 380.962077 
L 168.489646 382.57697 
L 170.010082 385.057862 
L 173.050954 388.678527 
L 176.091826 391.572193 
L 177.612262 393.95199 
L 179.132698 394.941817 
L 180.653134 393.002598 
L 182.173569 392.294976 
L 183.694005 395.552566 
L 185.214441 392.904038 
L 186.734877 394.363089 
L 188.255313 393.077576 
L 189.775749 393.829 
L 191.296185 396.077385 
L 192.816621 409.492715 
L 194.337057 407.784315 
L 195.857493 412.180834 
L 197.377929 411.932323 
L 198.898365 414.173126 
L 200.418801 415.914382 
L 201.939237 419.382572 
L 203.459673 409.429536 
L 204.980109 410.73442 
L 206.500545 411.446258 
L 208.020981 412.529592 
L 209.541417 412.521165 
L 211.061853 413.488248 
L 212.582289 412.979439 
L 214.102725 413.291972 
L 215.623161 413.835319 
L 217.143597 413.929668 
L 218.664033 411.789113 
L 220.184469 412.399018 
L 223.225341 412.9112 
L 224.745777 413.55733 
L 226.266213 413.730862 
L 227.786649 414.381202 
L 229.307084 416.215965 
L 232.347956 416.47374 
L 233.868392 416.782906 
L 235.388828 415.81919 
L 236.909264 415.860468 
L 238.4297 415.454428 
L 239.950136 416.532708 
L 241.470572 416.172157 
L 242.991008 416.608524 
L 244.511444 415.627123 
L 246.03188 416.578197 
L 247.552316 416.411404 
L 249.072752 416.606 
L 250.593188 416.158677 
L 252.113624 416.634641 
L 253.63406 416.302731 
L 255.154496 417.408809 
L 258.195368 417.974906 
L 265.797548 418.004391 
L 268.83842 417.795477 
L 271.879292 417.713764 
L 274.920163 417.704495 
L 276.440599 417.571397 
L 277.961035 417.735665 
L 282.522343 417.711235 
L 285.563215 417.704495 
L 287.083651 417.860342 
L 291.644959 417.624468 
L 294.685831 417.606778 
L 299.247139 417.504845 
L 300.767575 417.979966 
L 302.288011 418.23353 
L 303.808447 417.354057 
L 308.369755 417.241173 
L 309.890191 416.895783 
L 312.931063 416.895783 
L 314.451499 416.221019 
L 315.971935 415.947234 
L 317.492371 415.532774 
L 319.012807 414.84368 
L 320.533243 414.382045 
L 323.574114 414.382045 
L 325.09455 412.2457 
L 326.614986 411.662755 
L 328.135422 411.256716 
L 329.655858 410.200337 
L 331.176294 409.480078 
L 334.217166 409.480078 
L 335.737602 407.980592 
L 337.258038 407.58466 
L 338.778474 407.016882 
L 340.29891 406.870304 
L 341.819346 406.165206 
L 344.860218 406.165206 
L 346.380654 404.33634 
L 347.90109 401.023998 
L 349.421526 400.2473 
L 352.462398 397.961004 
L 357.023706 397.888561 
L 358.544142 399.681203 
L 360.064578 399.496714 
L 361.585014 396.580304 
L 363.10545 395.761479 
L 366.146322 395.761479 
L 367.666757 389.316224 
L 369.187193 388.067779 
L 370.707629 385.120198 
L 372.228065 385.550668 
L 373.748501 383.302282 
L 376.789373 383.302282 
L 378.309809 380.679871 
L 379.830245 378.99253 
L 381.350681 378.466024 
L 382.871117 376.259765 
L 384.391553 374.885799 
L 387.432425 374.885799 
L 388.952861 371.356111 
L 390.473297 370.515392 
L 391.993733 369.432895 
L 393.514169 370.021737 
L 395.034605 369.434582 
L 398.075477 369.434582 
L 399.595913 366.917471 
L 401.116349 366.202266 
L 402.636785 365.962182 
L 405.677657 363.00365 
L 408.718529 363.00365 
L 410.238965 362.292655 
L 411.759401 361.8942 
L 413.279837 359.933916 
L 414.800272 359.489966 
L 416.320708 357.631622 
L 419.36158 357.631622 
L 420.882016 354.241771 
L 422.402452 353.094416 
L 423.922888 353.013546 
L 425.443324 353.551003 
L 426.96376 355.334375 
L 430.004632 355.334375 
L 431.525068 355.033635 
L 433.045504 364.130786 
L 434.56594 356.015885 
L 436.086376 357.055411 
L 437.606812 357.853172 
L 440.647684 357.853172 
L 442.16812 364.849364 
L 443.688556 354.742166 
L 445.208992 363.529307 
L 446.729428 360.998722 
L 448.249864 359.766281 
L 451.290736 359.766281 
L 452.811172 356.079907 
L 454.331608 360.190854 
L 455.852044 358.944932 
L 457.37248 358.190979 
L 458.892916 356.170884 
L 461.933787 356.170884 
L 463.454223 347.71902 
L 464.974659 342.028561 
L 466.495095 337.813995 
L 468.015531 331.354423 
L 469.535967 327.424592 
L 472.576839 327.424592 
L 474.097275 315.379018 
L 475.617711 311.550277 
L 478.658583 307.013077 
L 480.179019 302.174288 
L 483.219891 302.174288 
L 484.740327 299.789438 
L 486.260763 299.577989 
L 487.781199 295.132608 
L 489.301635 296.541112 
L 490.822071 299.134888 
L 493.862943 299.134888 
L 495.383379 301.35294 
L 496.903815 317.079834 
L 498.424251 307.43512 
L 499.944687 309.454372 
L 501.465123 310.418925 
L 504.505995 310.418925 
L 506.026431 322.307814 
L 507.546866 311.222583 
L 509.067302 329.058862 
L 510.587738 331.820274 
L 512.108174 337.055832 
L 515.149046 337.055832 
L 516.669482 347.490723 
L 518.189918 348.275004 
L 519.710354 352.56791 
L 521.23079 355.890365 
L 522.751226 359.51524 
L 525.792098 359.51524 
L 527.312534 364.491337 
L 528.83297 367.836536 
L 530.353406 368.587122 
L 533.394278 372.1842 
L 536.43515 372.1842 
L 537.955586 374.120046 
L 539.476022 381.075803 
L 540.996458 380.703459 
L 542.516894 382.533168 
L 544.03733 381.038736 
L 547.078202 381.038736 
L 548.598638 377.982482 
L 550.119074 369.282107 
L 551.63951 368.182764 
L 553.159946 364.664875 
L 554.680381 363.573115 
L 557.721253 363.573115 
L 559.241689 362.980063 
L 560.762125 362.705435 
L 562.282561 361.603567 
L 563.802997 361.15625 
L 565.323433 371.109287 
L 568.364305 371.109287 
L 569.884741 369.046233 
L 571.405177 366.152567 
L 572.925613 362.504942 
L 574.446049 357.968579 
L 579.007357 357.968579 
L 580.527793 352.815577 
L 582.048229 344.719205 
L 583.568665 358.800878 
L 586.609537 316.875131 
L 589.650409 316.875131 
L 591.170845 290.892774 
L 592.691281 289.428676 
L 594.211717 256.685158 
L 595.732153 262.14564 
L 597.252589 249.727721 
L 600.29346 249.727721 
L 601.813896 230.466091 
L 603.334332 223.008258 
L 604.854768 220.727864 
L 606.375204 213.585095 
L 607.89564 211.320705 
L 610.936512 211.320705 
L 612.456948 203.288355 
L 613.977384 201.482239 
L 615.49782 202.569782 
L 617.018256 210.537268 
L 618.538692 214.553021 
L 621.579564 214.553021 
L 623.1 226.461287 
L 623.1 226.461287 
" style="fill:none;stroke:#bb0a21;stroke-linecap:square;stroke-width:2;"/>
   </g>
   <g id="line2d_74">
    <path clip-path="url(#pb554332109)" d="M 72.70218 419.721217 
L 112.233515 419.641191 
L 122.876567 419.310967 
L 124.397003 419.139115 
L 131.999183 417.543599 
L 135.040054 416.718878 
L 138.080926 415.733267 
L 141.121798 414.360982 
L 142.642234 413.564064 
L 147.203542 409.303172 
L 150.244414 405.889741 
L 153.285286 403.252163 
L 156.326158 399.773023 
L 157.846594 397.871714 
L 160.887466 394.894643 
L 162.407902 393.858484 
L 163.928338 393.219938 
L 166.96921 391.58483 
L 168.489646 391.425615 
L 170.010082 391.444986 
L 171.530518 391.962228 
L 173.050954 392.349734 
L 174.57139 392.44324 
L 177.612262 394.337815 
L 179.132698 394.390887 
L 180.653134 394.022752 
L 182.173569 393.497933 
L 183.694005 392.551913 
L 185.214441 392.281501 
L 186.734877 391.724668 
L 189.775749 391.023786 
L 191.296185 391.171208 
L 192.816621 391.178791 
L 194.337057 391.99761 
L 195.857493 392.323617 
L 198.898365 392.500522 
L 200.418801 392.54686 
L 203.459673 392.930155 
L 206.500545 393.797829 
L 208.020981 394.910653 
L 209.541417 395.785067 
L 211.061853 397.144715 
L 212.582289 398.149703 
L 214.102725 399.563266 
L 215.623161 400.473061 
L 217.143597 401.024841 
L 218.664033 400.851302 
L 220.184469 401.09897 
L 221.704905 401.550504 
L 223.225341 402.521797 
L 224.745777 402.969114 
L 226.266213 403.034823 
L 227.786649 403.452656 
L 229.307084 404.305175 
L 230.82752 404.589061 
L 232.347956 405.084396 
L 233.868392 405.138311 
L 238.4297 406.41456 
L 239.950136 407.226639 
L 241.470572 408.405165 
L 244.511444 409.854946 
L 247.552316 410.641757 
L 250.593188 411.024209 
L 252.113624 411.183424 
L 256.674932 412.325726 
L 264.277112 413.580074 
L 265.797548 413.77467 
L 267.317984 413.821845 
L 270.358856 413.667683 
L 273.399728 413.784777 
L 274.920163 413.942305 
L 277.961035 413.990323 
L 282.522343 414.448591 
L 285.563215 414.804932 
L 288.604087 415.367662 
L 290.124523 415.394617 
L 293.165395 415.806553 
L 294.685831 416.209225 
L 297.726703 417.392805 
L 300.767575 417.515795 
L 302.288011 417.421446 
L 303.808447 417.641316 
L 305.328883 417.489684 
L 308.369755 416.469529 
L 309.890191 416.450996 
L 314.451499 416.021369 
L 315.971935 415.468746 
L 319.012807 415.548778 
L 320.533243 415.411464 
L 325.09455 415.303634 
L 326.614986 415.973351 
L 329.655858 415.841091 
L 331.176294 415.772015 
L 334.217166 415.801499 
L 337.258038 415.624594 
L 338.778474 415.423258 
L 346.380654 415.059339 
L 352.462398 414.75607 
L 353.982834 414.759443 
L 355.50327 414.451121 
L 357.023706 414.555578 
L 358.544142 414.155435 
L 361.585014 413.888391 
L 363.10545 413.415805 
L 364.625886 413.182455 
L 369.187193 413.297025 
L 370.707629 413.472244 
L 372.228065 413.432653 
L 373.748501 413.770454 
L 375.268937 413.526159 
L 376.789373 413.579231 
L 378.309809 413.363571 
L 379.830245 413.289442 
L 384.391553 412.532115 
L 385.911989 412.719134 
L 387.432425 412.126076 
L 388.952861 411.757105 
L 390.473297 411.646751 
L 393.514169 411.137092 
L 396.555041 409.959409 
L 398.075477 408.919034 
L 399.595913 407.6251 
L 404.157221 404.703631 
L 407.198093 401.971704 
L 408.718529 401.676018 
L 410.238965 401.950646 
L 411.759401 401.416557 
L 413.279837 400.299528 
L 414.800272 399.896013 
L 419.36158 397.98291 
L 422.402452 394.972145 
L 423.922888 393.135701 
L 425.443324 390.411357 
L 426.96376 388.264061 
L 428.484196 386.898516 
L 430.004632 385.381346 
L 431.525068 385.652601 
L 433.045504 383.782457 
L 434.56594 382.999019 
L 436.086376 382.758929 
L 437.606812 382.661212 
L 439.127248 376.903359 
L 440.647684 362.359207 
L 442.16812 355.159156 
L 445.208992 342.980478 
L 446.729428 334.033273 
L 448.249864 328.22572 
L 449.7703 326.296608 
L 451.290736 334.790599 
L 452.811172 333.604489 
L 454.331608 331.335889 
L 455.852044 326.636944 
L 457.37248 325.418821 
L 458.892916 323.928604 
L 460.413351 323.076929 
L 461.933787 319.612955 
L 463.454223 315.553394 
L 464.974659 312.08689 
L 466.495095 306.227109 
L 468.015531 304.322428 
L 469.535967 300.192947 
L 471.056403 294.424987 
L 472.576839 292.063723 
L 474.097275 290.319937 
L 475.617711 289.006626 
L 477.138147 290.685542 
L 478.658583 289.151524 
L 480.179019 285.900674 
L 481.699455 286.839116 
L 483.219891 283.921019 
L 484.740327 285.549387 
L 486.260763 287.94688 
L 487.781199 287.532414 
L 489.301635 286.61756 
L 490.822071 287.540841 
L 492.342507 284.963075 
L 493.862943 287.221568 
L 495.383379 285.174518 
L 496.903815 284.860299 
L 498.424251 286.718649 
L 499.944687 278.839617 
L 501.465123 275.475046 
L 502.985559 273.877 
L 504.505995 270.172936 
L 506.026431 270.157776 
L 507.546866 270.487156 
L 509.067302 273.313427 
L 510.587738 282.226937 
L 513.62861 294.018104 
L 516.669482 304.346015 
L 518.189918 311.688434 
L 519.710354 312.854324 
L 522.751226 321.979277 
L 524.271662 325.374176 
L 525.792098 330.852347 
L 527.312534 333.410736 
L 528.83297 331.597037 
L 530.353406 333.302063 
L 531.873842 335.497377 
L 533.394278 334.18238 
L 534.914714 334.445215 
L 536.43515 330.057959 
L 537.955586 328.081672 
L 539.476022 329.017584 
L 540.996458 328.683151 
L 542.516894 323.531829 
L 544.03733 318.981149 
L 545.557766 313.94777 
L 547.078202 312.962997 
L 548.598638 308.242988 
L 550.119074 303.034385 
L 551.63951 295.734087 
L 553.159946 283.547831 
L 554.680381 277.839682 
L 556.200817 273.042172 
L 557.721253 258.263833 
L 559.241689 247.194606 
L 560.762125 231.72633 
L 562.282561 219.859341 
L 563.802997 216.813201 
L 565.323433 213.238867 
L 566.843869 206.887962 
L 568.364305 209.913045 
L 569.884741 203.221809 
L 571.405177 189.453511 
L 572.925613 180.31171 
L 574.446049 166.091036 
L 575.966485 148.691124 
L 579.007357 110.168701 
L 580.527793 95.457751 
L 582.048229 88.876869 
L 583.568665 78.50094 
L 585.089101 81.232024 
L 586.609537 68.820002 
L 588.129973 66.9288 
L 589.650409 67.039154 
L 591.170845 77.693915 
L 594.211717 103.246645 
L 595.732153 106.601951 
L 597.252589 116.969454 
L 598.773025 132.697185 
L 600.29346 146.475595 
L 601.813896 153.77505 
L 603.334332 164.04736 
L 604.854768 171.351025 
L 606.375204 180.471768 
L 607.89564 193.582986 
L 609.416076 200.133541 
L 610.936512 207.343706 
L 612.456948 220.288131 
L 615.49782 242.957296 
L 617.018256 250.6788 
L 618.538692 260.093536 
L 620.059128 268.729895 
L 621.579564 276.245004 
L 623.1 279.25745 
L 623.1 279.25745 
" style="fill:none;stroke:#4b88a2;stroke-linecap:square;stroke-width:2;"/>
   </g>
   <g id="line2d_75">
    <path clip-path="url(#pb554332109)" d="M 125.917439 419.719536 
L 136.56049 419.615917 
L 141.121798 419.492926 
L 147.203542 419.446595 
L 153.285286 419.316864 
L 156.326158 419.18208 
L 157.846594 419.018648 
L 159.36703 419.026232 
L 162.407902 418.823215 
L 163.928338 418.525 
L 166.96921 418.137494 
L 168.489646 417.185572 
L 170.010082 416.492274 
L 171.530518 416.104768 
L 173.050954 415.430841 
L 174.57139 415.316271 
L 176.091826 413.644096 
L 177.612262 413.537953 
L 179.132698 413.719912 
L 180.653134 413.633989 
L 182.173569 413.333249 
L 183.694005 413.350097 
L 185.214441 412.89772 
L 186.734877 414.218614 
L 188.255313 413.382105 
L 189.775749 413.179088 
L 191.296185 412.633205 
L 192.816621 412.855605 
L 194.337057 410.5373 
L 195.857493 409.713422 
L 197.377929 409.304859 
L 198.898365 408.480143 
L 201.939237 406.198063 
L 203.459673 403.882282 
L 204.980109 405.236877 
L 206.500545 404.219246 
L 208.020981 403.998539 
L 209.541417 402.881505 
L 211.061853 402.134292 
L 212.582289 401.574934 
L 214.102725 401.711399 
L 215.623161 400.790653 
L 217.143597 401.718982 
L 218.664033 401.659171 
L 220.184469 402.147766 
L 224.745777 400.649966 
L 226.266213 399.910337 
L 227.786649 398.697272 
L 229.307084 397.732713 
L 230.82752 396.626635 
L 232.347956 396.382335 
L 233.868392 396.002413 
L 235.388828 396.812805 
L 236.909264 396.804384 
L 238.4297 396.405922 
L 244.511444 391.92095 
L 247.552316 386.102442 
L 249.072752 382.227375 
L 250.593188 380.927539 
L 252.113624 378.944511 
L 253.63406 383.497722 
L 255.154496 384.837149 
L 256.674932 386.778056 
L 258.195368 389.328861 
L 259.715804 392.738926 
L 261.23624 394.745541 
L 262.756676 398.187614 
L 264.277112 394.533254 
L 265.797548 393.117167 
L 267.317984 396.656963 
L 268.83842 395.306585 
L 270.358856 391.743202 
L 273.399728 391.57556 
L 274.920163 392.700178 
L 276.440599 394.793559 
L 277.961035 391.813964 
L 279.481471 393.960417 
L 281.001907 398.500147 
L 284.042779 399.802507 
L 285.563215 399.69552 
L 287.083651 399.330759 
L 290.124523 398.96263 
L 291.644959 399.104155 
L 293.165395 398.737707 
L 297.726703 400.014793 
L 300.767575 400.276784 
L 302.288011 400.10156 
L 303.808447 400.068708 
L 305.328883 399.456279 
L 306.849319 399.145433 
L 308.369755 399.137006 
L 311.410627 399.822727 
L 312.931063 399.841261 
L 314.451499 399.157226 
L 317.492371 398.803416 
L 319.012807 398.552375 
L 320.533243 397.918045 
L 322.053678 397.160719 
L 323.574114 396.76142 
L 325.09455 396.513752 
L 329.655858 394.869375 
L 331.176294 394.099411 
L 334.217166 400.883316 
L 335.737602 392.741456 
L 337.258038 391.998453 
L 338.778474 390.974925 
L 340.29891 394.804509 
L 341.819346 393.166866 
L 343.339782 393.166866 
L 344.860218 375.174745 
L 346.380654 383.182665 
L 347.90109 381.917366 
L 349.421526 380.185379 
L 350.941962 373.627241 
L 352.462398 372.231374 
L 353.982834 372.231374 
L 355.50327 378.304285 
L 357.023706 377.580659 
L 358.544142 377.785362 
L 360.064578 384.300536 
L 361.585014 383.382314 
L 363.10545 375.56899 
L 364.625886 375.56899 
L 366.146322 379.479444 
L 367.666757 375.238767 
L 369.187193 376.081173 
L 370.707629 369.48681 
L 372.228065 369.298111 
L 373.748501 376.9657 
L 375.268937 369.3773 
L 376.789373 369.662029 
L 378.309809 370.549086 
L 379.830245 370.073128 
L 381.350681 370.817811 
L 382.871117 373.431802 
L 384.391553 373.448649 
L 385.911989 374.328123 
L 387.432425 374.071191 
L 390.473297 376.261446 
L 391.993733 377.821586 
L 393.514169 382.872656 
L 395.034605 379.168592 
L 396.555041 380.230868 
L 398.075477 382.437975 
L 399.595913 383.66452 
L 401.116349 386.421715 
L 402.636785 386.823544 
L 404.157221 381.275453 
L 405.677657 386.098232 
L 407.198093 386.182474 
L 408.718529 386.765419 
L 410.238965 386.334106 
L 411.759401 384.107627 
L 413.279837 384.490922 
L 414.800272 384.664454 
L 416.320708 386.006412 
L 417.841144 386.249863 
L 419.36158 386.004725 
L 420.882016 386.642428 
L 422.402452 390.215075 
L 423.922888 387.274234 
L 425.443324 387.46883 
L 426.96376 382.253487 
L 428.484196 387.572444 
L 431.525068 389.059293 
L 433.045504 386.184998 
L 434.56594 390.057546 
L 436.086376 392.6589 
L 437.606812 399.752808 
L 439.127248 397.000661 
L 440.647684 401.682758 
L 442.16812 400.465483 
L 443.688556 401.798171 
L 445.208992 401.902628 
L 446.729428 402.178937 
L 448.249864 402.613617 
L 449.7703 399.069611 
L 451.290736 396.303989 
L 452.811172 400.351757 
L 454.331608 399.532095 
L 455.852044 402.000345 
L 457.37248 399.445329 
L 458.892916 401.932112 
L 460.413351 405.97314 
L 461.933787 406.100341 
L 463.454223 404.983312 
L 464.974659 405.490441 
L 466.495095 402.759357 
L 469.535967 402.766098 
L 471.056403 402.29182 
L 472.576839 400.2136 
L 474.097275 402.846967 
L 475.617711 403.135069 
L 477.138147 404.246206 
L 478.658583 407.04889 
L 480.179019 404.803034 
L 481.699455 405.353971 
L 483.219891 408.113696 
L 484.740327 408.113696 
L 486.260763 409.679727 
L 487.781199 403.478773 
L 489.301635 403.0542 
L 490.822071 405.300056 
L 493.862943 404.980783 
L 495.383379 403.023872 
L 496.903815 402.018035 
L 498.424251 408.235 
L 499.944687 408.538269 
L 501.465123 406.658855 
L 504.505995 407.186204 
L 506.026431 407.363953 
L 507.546866 407.310881 
L 509.067302 407.513898 
L 510.587738 409.6831 
L 513.62861 406.729617 
L 515.149046 408.624192 
L 516.669482 409.064769 
L 518.189918 409.376464 
L 519.710354 409.191976 
L 522.751226 409.257684 
L 524.271662 409.378145 
L 525.792098 407.556862 
L 527.312534 408.895447 
L 528.83297 408.737075 
L 530.353406 410.322484 
L 531.873842 407.399334 
L 533.394278 410.691461 
L 536.43515 411.17163 
L 537.955586 410.140525 
L 539.476022 411.04611 
L 540.996458 408.764029 
L 542.516894 409.589588 
L 544.03733 409.589588 
L 547.078202 412.774729 
L 548.598638 410.410937 
L 550.119074 409.43627 
L 551.63951 411.71835 
L 553.159946 411.013258 
L 554.680381 411.013258 
L 556.200817 412.556546 
L 557.721253 407.129765 
L 559.241689 409.161648 
L 560.762125 409.32929 
L 562.282561 407.915727 
L 563.802997 410.718416 
L 565.323433 407.49284 
L 566.843869 406.175313 
L 568.364305 411.6021 
L 569.884741 411.186797 
L 571.405177 410.939966 
L 572.925613 411.015788 
L 574.446049 407.106178 
L 575.966485 410.331754 
L 577.486921 411.649275 
L 579.007357 409.154065 
L 580.527793 409.773234 
L 582.048229 410.827089 
L 583.568665 410.022588 
L 585.089101 413.932198 
L 586.609537 410.426103 
L 588.129973 410.426103 
L 589.650409 412.921307 
L 591.170845 406.495429 
L 592.691281 404.670779 
L 594.211717 404.386044 
L 595.732153 404.386044 
L 597.252589 394.58885 
L 598.773025 394.58885 
L 600.29346 390.760952 
L 601.813896 398.345985 
L 603.334332 400.170641 
L 604.854768 391.943695 
L 606.375204 391.943695 
L 607.89564 397.081536 
L 609.416076 397.081536 
L 610.936512 391.616838 
L 612.456948 391.616838 
L 613.977384 380.411983 
L 615.49782 391.065907 
L 617.018256 385.395663 
L 618.538692 388.74676 
L 620.059128 377.511577 
L 621.579564 382.409334 
L 623.1 382.409334 
L 623.1 382.409334 
" style="fill:none;stroke:#d3d4d9;stroke-linecap:square;stroke-width:2;"/>
   </g>
   <g id="patch_3">
    <path d="M 65.1 437.3688 
L 65.1 49.2888 
" style="fill:none;stroke:#000000;stroke-linecap:square;stroke-linejoin:miter;stroke-width:0.8;"/>
   </g>
   <g id="patch_4">
    <path d="M 623.1 437.3688 
L 623.1 49.2888 
" style="fill:none;stroke:#000000;stroke-linecap:square;stroke-linejoin:miter;stroke-width:0.8;"/>
   </g>
   <g id="patch_5">
    <path d="M 65.1 437.3688 
L 623.1 437.3688 
" style="fill:none;stroke:#000000;stroke-linecap:square;stroke-linejoin:miter;stroke-width:0.8;"/>
   </g>
   <g id="patch_6">
    <path d="M 65.1 49.2888 
L 623.1 49.2888 
" style="fill:none;stroke:#000000;stroke-linecap:square;stroke-linejoin:miter;stroke-width:0.8;"/>
   </g>
   <g id="text_22">
    <!-- Latest update:  -->
    <g style="fill:#252627;" transform="translate(47.1 491.690987)scale(0.1 -0.1)">
     <defs>
      <path d="M 9.8125 72.90625 
L 19.671875 72.90625 
L 19.671875 8.296875 
L 55.171875 8.296875 
L 55.171875 0 
L 9.8125 0 
z
" id="DejaVuSans-76"/>
      <path d="M 44.28125 53.078125 
L 44.28125 44.578125 
Q 40.484375 46.53125 36.375 47.5 
Q 32.28125 48.484375 27.875 48.484375 
Q 21.1875 48.484375 17.84375 46.4375 
Q 14.5 44.390625 14.5 40.28125 
Q 14.5 37.15625 16.890625 35.375 
Q 19.28125 33.59375 26.515625 31.984375 
L 29.59375 31.296875 
Q 39.15625 29.25 43.1875 25.515625 
Q 47.21875 21.78125 47.21875 15.09375 
Q 47.21875 7.46875 41.1875 3.015625 
Q 35.15625 -1.421875 24.609375 -1.421875 
Q 20.21875 -1.421875 15.453125 -0.5625 
Q 10.6875 0.296875 5.421875 2 
L 5.421875 11.28125 
Q 10.40625 8.6875 15.234375 7.390625 
Q 20.0625 6.109375 24.8125 6.109375 
Q 31.15625 6.109375 34.5625 8.28125 
Q 37.984375 10.453125 37.984375 14.40625 
Q 37.984375 18.0625 35.515625 20.015625 
Q 33.0625 21.96875 24.703125 23.78125 
L 21.578125 24.515625 
Q 13.234375 26.265625 9.515625 29.90625 
Q 5.8125 33.546875 5.8125 39.890625 
Q 5.8125 47.609375 11.28125 51.796875 
Q 16.75 56 26.8125 56 
Q 31.78125 56 36.171875 55.265625 
Q 40.578125 54.546875 44.28125 53.078125 
z
" id="DejaVuSans-115"/>
      <path id="DejaVuSans-32"/>
      <path d="M 11.71875 12.40625 
L 22.015625 12.40625 
L 22.015625 0 
L 11.71875 0 
z
M 11.71875 51.703125 
L 22.015625 51.703125 
L 22.015625 39.3125 
L 11.71875 39.3125 
z
" id="DejaVuSans-58"/>
     </defs>
     <use xlink:href="#DejaVuSans-76"/>
     <use x="55.712891" xlink:href="#DejaVuSans-97"/>
     <use x="116.992188" xlink:href="#DejaVuSans-116"/>
     <use x="156.201172" xlink:href="#DejaVuSans-101"/>
     <use x="217.724609" xlink:href="#DejaVuSans-115"/>
     <use x="269.824219" xlink:href="#DejaVuSans-116"/>
     <use x="309.033203" xlink:href="#DejaVuSans-32"/>
     <use x="340.820312" xlink:href="#DejaVuSans-117"/>
     <use x="404.199219" xlink:href="#DejaVuSans-112"/>
     <use x="467.675781" xlink:href="#DejaVuSans-100"/>
     <use x="531.152344" xlink:href="#DejaVuSans-97"/>
     <use x="592.431641" xlink:href="#DejaVuSans-116"/>
     <use x="631.640625" xlink:href="#DejaVuSans-101"/>
     <use x="693.164062" xlink:href="#DejaVuSans-58"/>
     <use x="726.855469" xlink:href="#DejaVuSans-32"/>
    </g>
    <!-- 2-2-2021 -->
    <g style="fill:#252627;" transform="translate(47.1 502.8888)scale(0.1 -0.1)">
     <defs>
      <path d="M 4.890625 31.390625 
L 31.203125 31.390625 
L 31.203125 23.390625 
L 4.890625 23.390625 
z
" id="DejaVuSans-45"/>
     </defs>
     <use xlink:href="#DejaVuSans-50"/>
     <use x="63.623047" xlink:href="#DejaVuSans-45"/>
     <use x="99.707031" xlink:href="#DejaVuSans-50"/>
     <use x="163.330078" xlink:href="#DejaVuSans-45"/>
     <use x="199.414062" xlink:href="#DejaVuSans-50"/>
     <use x="263.037109" xlink:href="#DejaVuSans-48"/>
     <use x="326.660156" xlink:href="#DejaVuSans-50"/>
     <use x="390.283203" xlink:href="#DejaVuSans-49"/>
    </g>
   </g>
   <g id="text_23">
    <!-- Daily new cases - Since beginning -->
    <g style="fill:#252627;" transform="translate(180.3705 21.789)scale(0.192 -0.192)">
     <defs>
      <path d="M 9.421875 54.6875 
L 18.40625 54.6875 
L 18.40625 0 
L 9.421875 0 
z
M 9.421875 75.984375 
L 18.40625 75.984375 
L 18.40625 64.59375 
L 9.421875 64.59375 
z
" id="DejaVuSans-105"/>
      <path d="M 4.203125 54.6875 
L 13.1875 54.6875 
L 24.421875 12.015625 
L 35.59375 54.6875 
L 46.1875 54.6875 
L 57.421875 12.015625 
L 68.609375 54.6875 
L 77.59375 54.6875 
L 63.28125 0 
L 52.6875 0 
L 40.921875 44.828125 
L 29.109375 0 
L 18.5 0 
z
" id="DejaVuSans-119"/>
     </defs>
     <use xlink:href="#DejaVuSans-68"/>
     <use x="77.001953" xlink:href="#DejaVuSans-97"/>
     <use x="138.28125" xlink:href="#DejaVuSans-105"/>
     <use x="166.064453" xlink:href="#DejaVuSans-108"/>
     <use x="193.847656" xlink:href="#DejaVuSans-121"/>
     <use x="253.027344" xlink:href="#DejaVuSans-32"/>
     <use x="284.814453" xlink:href="#DejaVuSans-110"/>
     <use x="348.193359" xlink:href="#DejaVuSans-101"/>
     <use x="409.716797" xlink:href="#DejaVuSans-119"/>
     <use x="491.503906" xlink:href="#DejaVuSans-32"/>
     <use x="523.291016" xlink:href="#DejaVuSans-99"/>
     <use x="578.271484" xlink:href="#DejaVuSans-97"/>
     <use x="639.550781" xlink:href="#DejaVuSans-115"/>
     <use x="691.650391" xlink:href="#DejaVuSans-101"/>
     <use x="753.173828" xlink:href="#DejaVuSans-115"/>
     <use x="805.273438" xlink:href="#DejaVuSans-32"/>
     <use x="837.060547" xlink:href="#DejaVuSans-45"/>
     <use x="873.144531" xlink:href="#DejaVuSans-32"/>
     <use x="904.931641" xlink:href="#DejaVuSans-83"/>
     <use x="968.408203" xlink:href="#DejaVuSans-105"/>
     <use x="996.191406" xlink:href="#DejaVuSans-110"/>
     <use x="1059.570312" xlink:href="#DejaVuSans-99"/>
     <use x="1114.550781" xlink:href="#DejaVuSans-101"/>
     <use x="1176.074219" xlink:href="#DejaVuSans-32"/>
     <use x="1207.861328" xlink:href="#DejaVuSans-98"/>
     <use x="1271.337891" xlink:href="#DejaVuSans-101"/>
     <use x="1332.861328" xlink:href="#DejaVuSans-103"/>
     <use x="1396.337891" xlink:href="#DejaVuSans-105"/>
     <use x="1424.121094" xlink:href="#DejaVuSans-110"/>
     <use x="1487.5" xlink:href="#DejaVuSans-110"/>
     <use x="1550.878906" xlink:href="#DejaVuSans-105"/>
     <use x="1578.662109" xlink:href="#DejaVuSans-110"/>
     <use x="1642.041016" xlink:href="#DejaVuSans-103"/>
    </g>
    <!-- 7-day rolling average -->
    <g style="fill:#252627;" transform="translate(241.68 43.2888)scale(0.192 -0.192)">
     <defs>
      <path d="M 8.203125 72.90625 
L 55.078125 72.90625 
L 55.078125 68.703125 
L 28.609375 0 
L 18.3125 0 
L 43.21875 64.59375 
L 8.203125 64.59375 
z
" id="DejaVuSans-55"/>
     </defs>
     <use xlink:href="#DejaVuSans-55"/>
     <use x="63.623047" xlink:href="#DejaVuSans-45"/>
     <use x="99.707031" xlink:href="#DejaVuSans-100"/>
     <use x="163.183594" xlink:href="#DejaVuSans-97"/>
     <use x="224.462891" xlink:href="#DejaVuSans-121"/>
     <use x="283.642578" xlink:href="#DejaVuSans-32"/>
     <use x="315.429688" xlink:href="#DejaVuSans-114"/>
     <use x="354.292969" xlink:href="#DejaVuSans-111"/>
     <use x="415.474609" xlink:href="#DejaVuSans-108"/>
     <use x="443.257812" xlink:href="#DejaVuSans-108"/>
     <use x="471.041016" xlink:href="#DejaVuSans-105"/>
     <use x="498.824219" xlink:href="#DejaVuSans-110"/>
     <use x="562.203125" xlink:href="#DejaVuSans-103"/>
     <use x="625.679688" xlink:href="#DejaVuSans-32"/>
     <use x="657.466797" xlink:href="#DejaVuSans-97"/>
     <use x="718.746094" xlink:href="#DejaVuSans-118"/>
     <use x="777.925781" xlink:href="#DejaVuSans-101"/>
     <use x="839.449219" xlink:href="#DejaVuSans-114"/>
     <use x="880.5625" xlink:href="#DejaVuSans-97"/>
     <use x="941.841797" xlink:href="#DejaVuSans-103"/>
     <use x="1005.318359" xlink:href="#DejaVuSans-101"/>
    </g>
   </g>
   <g id="legend_1">
    <g id="patch_7">
     <path d="M 76.3 132.5438 
L 161.9925 132.5438 
Q 165.1925 132.5438 165.1925 129.3438 
L 165.1925 60.4888 
Q 165.1925 57.2888 161.9925 57.2888 
L 76.3 57.2888 
Q 73.1 57.2888 73.1 60.4888 
L 73.1 129.3438 
Q 73.1 132.5438 76.3 132.5438 
z
" style="fill:#ffffff;opacity:0.2;stroke:#cccccc;stroke-linejoin:miter;"/>
    </g>
    <g id="line2d_76">
     <path d="M 79.5 70.2463 
L 111.5 70.2463 
" style="fill:none;stroke:#bb0a21;stroke-linecap:square;stroke-width:2;"/>
    </g>
    <g id="line2d_77"/>
    <g id="text_24">
     <!-- ESP -->
     <g style="fill:#252627;" transform="translate(124.3 75.8463)scale(0.16 -0.16)">
      <defs>
       <path d="M 9.8125 72.90625 
L 55.90625 72.90625 
L 55.90625 64.59375 
L 19.671875 64.59375 
L 19.671875 43.015625 
L 54.390625 43.015625 
L 54.390625 34.71875 
L 19.671875 34.71875 
L 19.671875 8.296875 
L 56.78125 8.296875 
L 56.78125 0 
L 9.8125 0 
z
" id="DejaVuSans-69"/>
       <path d="M 19.671875 64.796875 
L 19.671875 37.40625 
L 32.078125 37.40625 
Q 38.96875 37.40625 42.71875 40.96875 
Q 46.484375 44.53125 46.484375 51.125 
Q 46.484375 57.671875 42.71875 61.234375 
Q 38.96875 64.796875 32.078125 64.796875 
z
M 9.8125 72.90625 
L 32.078125 72.90625 
Q 44.34375 72.90625 50.609375 67.359375 
Q 56.890625 61.8125 56.890625 51.125 
Q 56.890625 40.328125 50.609375 34.8125 
Q 44.34375 29.296875 32.078125 29.296875 
L 19.671875 29.296875 
L 19.671875 0 
L 9.8125 0 
z
" id="DejaVuSans-80"/>
      </defs>
      <use xlink:href="#DejaVuSans-69"/>
      <use x="63.183594" xlink:href="#DejaVuSans-83"/>
      <use x="126.660156" xlink:href="#DejaVuSans-80"/>
     </g>
    </g>
    <g id="line2d_78">
     <path d="M 79.5 93.7313 
L 111.5 93.7313 
" style="fill:none;stroke:#4b88a2;stroke-linecap:square;stroke-width:2;"/>
    </g>
    <g id="line2d_79"/>
    <g id="text_25">
     <!-- GBR -->
     <g style="fill:#252627;" transform="translate(124.3 99.3313)scale(0.16 -0.16)">
      <defs>
       <path d="M 59.515625 10.40625 
L 59.515625 29.984375 
L 43.40625 29.984375 
L 43.40625 38.09375 
L 69.28125 38.09375 
L 69.28125 6.78125 
Q 63.578125 2.734375 56.6875 0.65625 
Q 49.8125 -1.421875 42 -1.421875 
Q 24.90625 -1.421875 15.25 8.5625 
Q 5.609375 18.5625 5.609375 36.375 
Q 5.609375 54.25 15.25 64.234375 
Q 24.90625 74.21875 42 74.21875 
Q 49.125 74.21875 55.546875 72.453125 
Q 61.96875 70.703125 67.390625 67.28125 
L 67.390625 56.78125 
Q 61.921875 61.421875 55.765625 63.765625 
Q 49.609375 66.109375 42.828125 66.109375 
Q 29.4375 66.109375 22.71875 58.640625 
Q 16.015625 51.171875 16.015625 36.375 
Q 16.015625 21.625 22.71875 14.15625 
Q 29.4375 6.6875 42.828125 6.6875 
Q 48.046875 6.6875 52.140625 7.59375 
Q 56.25 8.5 59.515625 10.40625 
z
" id="DejaVuSans-71"/>
       <path d="M 19.671875 34.8125 
L 19.671875 8.109375 
L 35.5 8.109375 
Q 43.453125 8.109375 47.28125 11.40625 
Q 51.125 14.703125 51.125 21.484375 
Q 51.125 28.328125 47.28125 31.5625 
Q 43.453125 34.8125 35.5 34.8125 
z
M 19.671875 64.796875 
L 19.671875 42.828125 
L 34.28125 42.828125 
Q 41.5 42.828125 45.03125 45.53125 
Q 48.578125 48.25 48.578125 53.8125 
Q 48.578125 59.328125 45.03125 62.0625 
Q 41.5 64.796875 34.28125 64.796875 
z
M 9.8125 72.90625 
L 35.015625 72.90625 
Q 46.296875 72.90625 52.390625 68.21875 
Q 58.5 63.53125 58.5 54.890625 
Q 58.5 48.1875 55.375 44.234375 
Q 52.25 40.28125 46.1875 39.3125 
Q 53.46875 37.75 57.5 32.78125 
Q 61.53125 27.828125 61.53125 20.40625 
Q 61.53125 10.640625 54.890625 5.3125 
Q 48.25 0 35.984375 0 
L 9.8125 0 
z
" id="DejaVuSans-66"/>
       <path d="M 44.390625 34.1875 
Q 47.5625 33.109375 50.5625 29.59375 
Q 53.5625 26.078125 56.59375 19.921875 
L 66.609375 0 
L 56 0 
L 46.6875 18.703125 
Q 43.0625 26.03125 39.671875 28.421875 
Q 36.28125 30.8125 30.421875 30.8125 
L 19.671875 30.8125 
L 19.671875 0 
L 9.8125 0 
L 9.8125 72.90625 
L 32.078125 72.90625 
Q 44.578125 72.90625 50.734375 67.671875 
Q 56.890625 62.453125 56.890625 51.90625 
Q 56.890625 45.015625 53.6875 40.46875 
Q 50.484375 35.9375 44.390625 34.1875 
z
M 19.671875 64.796875 
L 19.671875 38.921875 
L 32.078125 38.921875 
Q 39.203125 38.921875 42.84375 42.21875 
Q 46.484375 45.515625 46.484375 51.90625 
Q 46.484375 58.296875 42.84375 61.546875 
Q 39.203125 64.796875 32.078125 64.796875 
z
" id="DejaVuSans-82"/>
      </defs>
      <use xlink:href="#DejaVuSans-71"/>
      <use x="77.490234" xlink:href="#DejaVuSans-66"/>
      <use x="146.09375" xlink:href="#DejaVuSans-82"/>
     </g>
    </g>
    <g id="line2d_80">
     <path d="M 79.5 117.2163 
L 111.5 117.2163 
" style="fill:none;stroke:#d3d4d9;stroke-linecap:square;stroke-width:2;"/>
    </g>
    <g id="line2d_81"/>
    <g id="text_26">
     <!-- PER -->
     <g style="fill:#252627;" transform="translate(124.3 122.8163)scale(0.16 -0.16)">
      <use xlink:href="#DejaVuSans-80"/>
      <use x="60.302734" xlink:href="#DejaVuSans-69"/>
      <use x="123.486328" xlink:href="#DejaVuSans-82"/>
     </g>
    </g>
   </g>
  </g>
 </g>
 <defs>
  <clipPath id="pb554332109">
   <rect height="388.08" width="558" x="65.1" y="49.2888"/>
  </clipPath>
 </defs>
</svg>
