<?xml version="1.0" encoding="utf-8" standalone="no"?>
<!DOCTYPE svg PUBLIC "-//W3C//DTD SVG 1.1//EN"
  "http://www.w3.org/Graphics/SVG/1.1/DTD/svg11.dtd">
<!-- Created with matplotlib (https://matplotlib.org/) -->
<svg height="512.168487pt" version="1.1" viewBox="0 0 630.3 512.168487" width="630.3pt" xmlns="http://www.w3.org/2000/svg" xmlns:xlink="http://www.w3.org/1999/xlink">
 <metadata>
  <rdf:RDF xmlns:cc="http://creativecommons.org/ns#" xmlns:dc="http://purl.org/dc/elements/1.1/" xmlns:rdf="http://www.w3.org/1999/02/22-rdf-syntax-ns#">
   <cc:Work>
    <dc:type rdf:resource="http://purl.org/dc/dcmitype/StillImage"/>
    <dc:date>2020-12-24T09:00:18.482416</dc:date>
    <dc:format>image/svg+xml</dc:format>
    <dc:creator>
     <cc:Agent>
      <dc:title>Matplotlib v3.3.1, https://matplotlib.org/</dc:title>
     </cc:Agent>
    </dc:creator>
   </cc:Work>
  </rdf:RDF>
 </metadata>
 <defs>
  <style type="text/css">*{stroke-linecap:butt;stroke-linejoin:round;}</style>
 </defs>
 <g id="figure_1">
  <g id="patch_1">
   <path d="M 0 512.168487 
L 630.3 512.168487 
L 630.3 0 
L 0 0 
z
" style="fill:none;"/>
  </g>
  <g id="axes_1">
   <g id="patch_2">
    <path d="M 65.1 437.3688 
L 623.1 437.3688 
L 623.1 49.2888 
L 65.1 49.2888 
z
" style="fill:none;"/>
   </g>
   <g id="matplotlib.axis_1">
    <g id="xtick_1">
     <g id="line2d_1">
      <defs>
       <path d="M 0 0 
L 0 3.5 
" id="m4531f2a669" style="stroke:#252627;stroke-width:0.8;"/>
      </defs>
      <g>
       <use style="fill:#252627;stroke:#252627;stroke-width:0.8;" x="65.1" xlink:href="#m4531f2a669" y="437.3688"/>
      </g>
     </g>
    </g>
    <g id="xtick_2">
     <g id="line2d_2">
      <g>
       <use style="fill:#252627;stroke:#252627;stroke-width:0.8;" x="66.806422" xlink:href="#m4531f2a669" y="437.3688"/>
      </g>
     </g>
     <g id="text_1">
      <!-- Feb -->
      <g style="fill:#252627;" transform="translate(52.643922 456.5263)scale(0.16 -0.16)">
       <defs>
        <path d="M 9.8125 72.90625 
L 51.703125 72.90625 
L 51.703125 64.59375 
L 19.671875 64.59375 
L 19.671875 43.109375 
L 48.578125 43.109375 
L 48.578125 34.8125 
L 19.671875 34.8125 
L 19.671875 0 
L 9.8125 0 
z
" id="DejaVuSans-70"/>
        <path d="M 56.203125 29.59375 
L 56.203125 25.203125 
L 14.890625 25.203125 
Q 15.484375 15.921875 20.484375 11.0625 
Q 25.484375 6.203125 34.421875 6.203125 
Q 39.59375 6.203125 44.453125 7.46875 
Q 49.3125 8.734375 54.109375 11.28125 
L 54.109375 2.78125 
Q 49.265625 0.734375 44.1875 -0.34375 
Q 39.109375 -1.421875 33.890625 -1.421875 
Q 20.796875 -1.421875 13.15625 6.1875 
Q 5.515625 13.8125 5.515625 26.8125 
Q 5.515625 40.234375 12.765625 48.109375 
Q 20.015625 56 32.328125 56 
Q 43.359375 56 49.78125 48.890625 
Q 56.203125 41.796875 56.203125 29.59375 
z
M 47.21875 32.234375 
Q 47.125 39.59375 43.09375 43.984375 
Q 39.0625 48.390625 32.421875 48.390625 
Q 24.90625 48.390625 20.390625 44.140625 
Q 15.875 39.890625 15.1875 32.171875 
z
" id="DejaVuSans-101"/>
        <path d="M 48.6875 27.296875 
Q 48.6875 37.203125 44.609375 42.84375 
Q 40.53125 48.484375 33.40625 48.484375 
Q 26.265625 48.484375 22.1875 42.84375 
Q 18.109375 37.203125 18.109375 27.296875 
Q 18.109375 17.390625 22.1875 11.75 
Q 26.265625 6.109375 33.40625 6.109375 
Q 40.53125 6.109375 44.609375 11.75 
Q 48.6875 17.390625 48.6875 27.296875 
z
M 18.109375 46.390625 
Q 20.953125 51.265625 25.265625 53.625 
Q 29.59375 56 35.59375 56 
Q 45.5625 56 51.78125 48.09375 
Q 58.015625 40.1875 58.015625 27.296875 
Q 58.015625 14.40625 51.78125 6.484375 
Q 45.5625 -1.421875 35.59375 -1.421875 
Q 29.59375 -1.421875 25.265625 0.953125 
Q 20.953125 3.328125 18.109375 8.203125 
L 18.109375 0 
L 9.078125 0 
L 9.078125 75.984375 
L 18.109375 75.984375 
z
" id="DejaVuSans-98"/>
       </defs>
       <use xlink:href="#DejaVuSans-70"/>
       <use x="52.019531" xlink:href="#DejaVuSans-101"/>
       <use x="113.542969" xlink:href="#DejaVuSans-98"/>
      </g>
      <!-- 2020 -->
      <g style="fill:#252627;" transform="translate(46.446422 474.4428)scale(0.16 -0.16)">
       <defs>
        <path d="M 19.1875 8.296875 
L 53.609375 8.296875 
L 53.609375 0 
L 7.328125 0 
L 7.328125 8.296875 
Q 12.9375 14.109375 22.625 23.890625 
Q 32.328125 33.6875 34.8125 36.53125 
Q 39.546875 41.84375 41.421875 45.53125 
Q 43.3125 49.21875 43.3125 52.78125 
Q 43.3125 58.59375 39.234375 62.25 
Q 35.15625 65.921875 28.609375 65.921875 
Q 23.96875 65.921875 18.8125 64.3125 
Q 13.671875 62.703125 7.8125 59.421875 
L 7.8125 69.390625 
Q 13.765625 71.78125 18.9375 73 
Q 24.125 74.21875 28.421875 74.21875 
Q 39.75 74.21875 46.484375 68.546875 
Q 53.21875 62.890625 53.21875 53.421875 
Q 53.21875 48.921875 51.53125 44.890625 
Q 49.859375 40.875 45.40625 35.40625 
Q 44.1875 33.984375 37.640625 27.21875 
Q 31.109375 20.453125 19.1875 8.296875 
z
" id="DejaVuSans-50"/>
        <path d="M 31.78125 66.40625 
Q 24.171875 66.40625 20.328125 58.90625 
Q 16.5 51.421875 16.5 36.375 
Q 16.5 21.390625 20.328125 13.890625 
Q 24.171875 6.390625 31.78125 6.390625 
Q 39.453125 6.390625 43.28125 13.890625 
Q 47.125 21.390625 47.125 36.375 
Q 47.125 51.421875 43.28125 58.90625 
Q 39.453125 66.40625 31.78125 66.40625 
z
M 31.78125 74.21875 
Q 44.046875 74.21875 50.515625 64.515625 
Q 56.984375 54.828125 56.984375 36.375 
Q 56.984375 17.96875 50.515625 8.265625 
Q 44.046875 -1.421875 31.78125 -1.421875 
Q 19.53125 -1.421875 13.0625 8.265625 
Q 6.59375 17.96875 6.59375 36.375 
Q 6.59375 54.828125 13.0625 64.515625 
Q 19.53125 74.21875 31.78125 74.21875 
z
" id="DejaVuSans-48"/>
       </defs>
       <use xlink:href="#DejaVuSans-50"/>
       <use x="63.623047" xlink:href="#DejaVuSans-48"/>
       <use x="127.246094" xlink:href="#DejaVuSans-50"/>
       <use x="190.869141" xlink:href="#DejaVuSans-48"/>
      </g>
     </g>
    </g>
    <g id="xtick_3">
     <g id="line2d_3">
      <g>
       <use style="fill:#252627;stroke:#252627;stroke-width:0.8;" x="116.292661" xlink:href="#m4531f2a669" y="437.3688"/>
      </g>
     </g>
     <g id="text_2">
      <!-- Mar -->
      <g style="fill:#252627;" transform="translate(101.198911 456.5263)scale(0.16 -0.16)">
       <defs>
        <path d="M 9.8125 72.90625 
L 24.515625 72.90625 
L 43.109375 23.296875 
L 61.8125 72.90625 
L 76.515625 72.90625 
L 76.515625 0 
L 66.890625 0 
L 66.890625 64.015625 
L 48.09375 14.015625 
L 38.1875 14.015625 
L 19.390625 64.015625 
L 19.390625 0 
L 9.8125 0 
z
" id="DejaVuSans-77"/>
        <path d="M 34.28125 27.484375 
Q 23.390625 27.484375 19.1875 25 
Q 14.984375 22.515625 14.984375 16.5 
Q 14.984375 11.71875 18.140625 8.90625 
Q 21.296875 6.109375 26.703125 6.109375 
Q 34.1875 6.109375 38.703125 11.40625 
Q 43.21875 16.703125 43.21875 25.484375 
L 43.21875 27.484375 
z
M 52.203125 31.203125 
L 52.203125 0 
L 43.21875 0 
L 43.21875 8.296875 
Q 40.140625 3.328125 35.546875 0.953125 
Q 30.953125 -1.421875 24.3125 -1.421875 
Q 15.921875 -1.421875 10.953125 3.296875 
Q 6 8.015625 6 15.921875 
Q 6 25.140625 12.171875 29.828125 
Q 18.359375 34.515625 30.609375 34.515625 
L 43.21875 34.515625 
L 43.21875 35.40625 
Q 43.21875 41.609375 39.140625 45 
Q 35.0625 48.390625 27.6875 48.390625 
Q 23 48.390625 18.546875 47.265625 
Q 14.109375 46.140625 10.015625 43.890625 
L 10.015625 52.203125 
Q 14.9375 54.109375 19.578125 55.046875 
Q 24.21875 56 28.609375 56 
Q 40.484375 56 46.34375 49.84375 
Q 52.203125 43.703125 52.203125 31.203125 
z
" id="DejaVuSans-97"/>
        <path d="M 41.109375 46.296875 
Q 39.59375 47.171875 37.8125 47.578125 
Q 36.03125 48 33.890625 48 
Q 26.265625 48 22.1875 43.046875 
Q 18.109375 38.09375 18.109375 28.8125 
L 18.109375 0 
L 9.078125 0 
L 9.078125 54.6875 
L 18.109375 54.6875 
L 18.109375 46.1875 
Q 20.953125 51.171875 25.484375 53.578125 
Q 30.03125 56 36.53125 56 
Q 37.453125 56 38.578125 55.875 
Q 39.703125 55.765625 41.0625 55.515625 
z
" id="DejaVuSans-114"/>
       </defs>
       <use xlink:href="#DejaVuSans-77"/>
       <use x="86.279297" xlink:href="#DejaVuSans-97"/>
       <use x="147.558594" xlink:href="#DejaVuSans-114"/>
      </g>
     </g>
    </g>
    <g id="xtick_4">
     <g id="line2d_4">
      <g>
       <use style="fill:#252627;stroke:#252627;stroke-width:0.8;" x="169.191743" xlink:href="#m4531f2a669" y="437.3688"/>
      </g>
     </g>
     <g id="text_3">
      <!-- Apr -->
      <g style="fill:#252627;" transform="translate(155.351743 456.5263)scale(0.16 -0.16)">
       <defs>
        <path d="M 34.1875 63.1875 
L 20.796875 26.90625 
L 47.609375 26.90625 
z
M 28.609375 72.90625 
L 39.796875 72.90625 
L 67.578125 0 
L 57.328125 0 
L 50.6875 18.703125 
L 17.828125 18.703125 
L 11.1875 0 
L 0.78125 0 
z
" id="DejaVuSans-65"/>
        <path d="M 18.109375 8.203125 
L 18.109375 -20.796875 
L 9.078125 -20.796875 
L 9.078125 54.6875 
L 18.109375 54.6875 
L 18.109375 46.390625 
Q 20.953125 51.265625 25.265625 53.625 
Q 29.59375 56 35.59375 56 
Q 45.5625 56 51.78125 48.09375 
Q 58.015625 40.1875 58.015625 27.296875 
Q 58.015625 14.40625 51.78125 6.484375 
Q 45.5625 -1.421875 35.59375 -1.421875 
Q 29.59375 -1.421875 25.265625 0.953125 
Q 20.953125 3.328125 18.109375 8.203125 
z
M 48.6875 27.296875 
Q 48.6875 37.203125 44.609375 42.84375 
Q 40.53125 48.484375 33.40625 48.484375 
Q 26.265625 48.484375 22.1875 42.84375 
Q 18.109375 37.203125 18.109375 27.296875 
Q 18.109375 17.390625 22.1875 11.75 
Q 26.265625 6.109375 33.40625 6.109375 
Q 40.53125 6.109375 44.609375 11.75 
Q 48.6875 17.390625 48.6875 27.296875 
z
" id="DejaVuSans-112"/>
       </defs>
       <use xlink:href="#DejaVuSans-65"/>
       <use x="68.408203" xlink:href="#DejaVuSans-112"/>
       <use x="131.884766" xlink:href="#DejaVuSans-114"/>
      </g>
     </g>
    </g>
    <g id="xtick_5">
     <g id="line2d_5">
      <g>
       <use style="fill:#252627;stroke:#252627;stroke-width:0.8;" x="220.384404" xlink:href="#m4531f2a669" y="437.3688"/>
      </g>
     </g>
     <g id="text_4">
      <!-- May -->
      <g style="fill:#252627;" transform="translate(203.844404 456.5263)scale(0.16 -0.16)">
       <defs>
        <path d="M 32.171875 -5.078125 
Q 28.375 -14.84375 24.75 -17.8125 
Q 21.140625 -20.796875 15.09375 -20.796875 
L 7.90625 -20.796875 
L 7.90625 -13.28125 
L 13.1875 -13.28125 
Q 16.890625 -13.28125 18.9375 -11.515625 
Q 21 -9.765625 23.484375 -3.21875 
L 25.09375 0.875 
L 2.984375 54.6875 
L 12.5 54.6875 
L 29.59375 11.921875 
L 46.6875 54.6875 
L 56.203125 54.6875 
z
" id="DejaVuSans-121"/>
       </defs>
       <use xlink:href="#DejaVuSans-77"/>
       <use x="86.279297" xlink:href="#DejaVuSans-97"/>
       <use x="147.558594" xlink:href="#DejaVuSans-121"/>
      </g>
     </g>
    </g>
    <g id="xtick_6">
     <g id="line2d_6">
      <g>
       <use style="fill:#252627;stroke:#252627;stroke-width:0.8;" x="273.283486" xlink:href="#m4531f2a669" y="437.3688"/>
      </g>
     </g>
     <g id="text_5">
      <!-- Jun -->
      <g style="fill:#252627;" transform="translate(260.783486 456.5263)scale(0.16 -0.16)">
       <defs>
        <path d="M 9.8125 72.90625 
L 19.671875 72.90625 
L 19.671875 5.078125 
Q 19.671875 -8.109375 14.671875 -14.0625 
Q 9.671875 -20.015625 -1.421875 -20.015625 
L -5.171875 -20.015625 
L -5.171875 -11.71875 
L -2.09375 -11.71875 
Q 4.4375 -11.71875 7.125 -8.046875 
Q 9.8125 -4.390625 9.8125 5.078125 
z
" id="DejaVuSans-74"/>
        <path d="M 8.5 21.578125 
L 8.5 54.6875 
L 17.484375 54.6875 
L 17.484375 21.921875 
Q 17.484375 14.15625 20.5 10.265625 
Q 23.53125 6.390625 29.59375 6.390625 
Q 36.859375 6.390625 41.078125 11.03125 
Q 45.3125 15.671875 45.3125 23.6875 
L 45.3125 54.6875 
L 54.296875 54.6875 
L 54.296875 0 
L 45.3125 0 
L 45.3125 8.40625 
Q 42.046875 3.421875 37.71875 1 
Q 33.40625 -1.421875 27.6875 -1.421875 
Q 18.265625 -1.421875 13.375 4.4375 
Q 8.5 10.296875 8.5 21.578125 
z
M 31.109375 56 
z
" id="DejaVuSans-117"/>
        <path d="M 54.890625 33.015625 
L 54.890625 0 
L 45.90625 0 
L 45.90625 32.71875 
Q 45.90625 40.484375 42.875 44.328125 
Q 39.84375 48.1875 33.796875 48.1875 
Q 26.515625 48.1875 22.3125 43.546875 
Q 18.109375 38.921875 18.109375 30.90625 
L 18.109375 0 
L 9.078125 0 
L 9.078125 54.6875 
L 18.109375 54.6875 
L 18.109375 46.1875 
Q 21.34375 51.125 25.703125 53.5625 
Q 30.078125 56 35.796875 56 
Q 45.21875 56 50.046875 50.171875 
Q 54.890625 44.34375 54.890625 33.015625 
z
" id="DejaVuSans-110"/>
       </defs>
       <use xlink:href="#DejaVuSans-74"/>
       <use x="29.492188" xlink:href="#DejaVuSans-117"/>
       <use x="92.871094" xlink:href="#DejaVuSans-110"/>
      </g>
     </g>
    </g>
    <g id="xtick_7">
     <g id="line2d_7">
      <g>
       <use style="fill:#252627;stroke:#252627;stroke-width:0.8;" x="324.476147" xlink:href="#m4531f2a669" y="437.3688"/>
      </g>
     </g>
     <g id="text_6">
      <!-- Jul -->
      <g style="fill:#252627;" transform="translate(314.823647 456.5263)scale(0.16 -0.16)">
       <defs>
        <path d="M 9.421875 75.984375 
L 18.40625 75.984375 
L 18.40625 0 
L 9.421875 0 
z
" id="DejaVuSans-108"/>
       </defs>
       <use xlink:href="#DejaVuSans-74"/>
       <use x="29.492188" xlink:href="#DejaVuSans-117"/>
       <use x="92.871094" xlink:href="#DejaVuSans-108"/>
      </g>
     </g>
    </g>
    <g id="xtick_8">
     <g id="line2d_8">
      <g>
       <use style="fill:#252627;stroke:#252627;stroke-width:0.8;" x="377.375229" xlink:href="#m4531f2a669" y="437.3688"/>
      </g>
     </g>
     <g id="text_7">
      <!-- Aug -->
      <g style="fill:#252627;" transform="translate(361.753979 456.5263)scale(0.16 -0.16)">
       <defs>
        <path d="M 45.40625 27.984375 
Q 45.40625 37.75 41.375 43.109375 
Q 37.359375 48.484375 30.078125 48.484375 
Q 22.859375 48.484375 18.828125 43.109375 
Q 14.796875 37.75 14.796875 27.984375 
Q 14.796875 18.265625 18.828125 12.890625 
Q 22.859375 7.515625 30.078125 7.515625 
Q 37.359375 7.515625 41.375 12.890625 
Q 45.40625 18.265625 45.40625 27.984375 
z
M 54.390625 6.78125 
Q 54.390625 -7.171875 48.1875 -13.984375 
Q 42 -20.796875 29.203125 -20.796875 
Q 24.46875 -20.796875 20.265625 -20.09375 
Q 16.0625 -19.390625 12.109375 -17.921875 
L 12.109375 -9.1875 
Q 16.0625 -11.328125 19.921875 -12.34375 
Q 23.78125 -13.375 27.78125 -13.375 
Q 36.625 -13.375 41.015625 -8.765625 
Q 45.40625 -4.15625 45.40625 5.171875 
L 45.40625 9.625 
Q 42.625 4.78125 38.28125 2.390625 
Q 33.9375 0 27.875 0 
Q 17.828125 0 11.671875 7.65625 
Q 5.515625 15.328125 5.515625 27.984375 
Q 5.515625 40.671875 11.671875 48.328125 
Q 17.828125 56 27.875 56 
Q 33.9375 56 38.28125 53.609375 
Q 42.625 51.21875 45.40625 46.390625 
L 45.40625 54.6875 
L 54.390625 54.6875 
z
" id="DejaVuSans-103"/>
       </defs>
       <use xlink:href="#DejaVuSans-65"/>
       <use x="68.408203" xlink:href="#DejaVuSans-117"/>
       <use x="131.787109" xlink:href="#DejaVuSans-103"/>
      </g>
     </g>
    </g>
    <g id="xtick_9">
     <g id="line2d_9">
      <g>
       <use style="fill:#252627;stroke:#252627;stroke-width:0.8;" x="430.274312" xlink:href="#m4531f2a669" y="437.3688"/>
      </g>
     </g>
     <g id="text_8">
      <!-- Sep -->
      <g style="fill:#252627;" transform="translate(415.194312 456.5263)scale(0.16 -0.16)">
       <defs>
        <path d="M 53.515625 70.515625 
L 53.515625 60.890625 
Q 47.90625 63.578125 42.921875 64.890625 
Q 37.9375 66.21875 33.296875 66.21875 
Q 25.25 66.21875 20.875 63.09375 
Q 16.5 59.96875 16.5 54.203125 
Q 16.5 49.359375 19.40625 46.890625 
Q 22.3125 44.4375 30.421875 42.921875 
L 36.375 41.703125 
Q 47.40625 39.59375 52.65625 34.296875 
Q 57.90625 29 57.90625 20.125 
Q 57.90625 9.515625 50.796875 4.046875 
Q 43.703125 -1.421875 29.984375 -1.421875 
Q 24.8125 -1.421875 18.96875 -0.25 
Q 13.140625 0.921875 6.890625 3.21875 
L 6.890625 13.375 
Q 12.890625 10.015625 18.65625 8.296875 
Q 24.421875 6.59375 29.984375 6.59375 
Q 38.421875 6.59375 43.015625 9.90625 
Q 47.609375 13.234375 47.609375 19.390625 
Q 47.609375 24.75 44.3125 27.78125 
Q 41.015625 30.8125 33.5 32.328125 
L 27.484375 33.5 
Q 16.453125 35.6875 11.515625 40.375 
Q 6.59375 45.0625 6.59375 53.421875 
Q 6.59375 63.09375 13.40625 68.65625 
Q 20.21875 74.21875 32.171875 74.21875 
Q 37.3125 74.21875 42.625 73.28125 
Q 47.953125 72.359375 53.515625 70.515625 
z
" id="DejaVuSans-83"/>
       </defs>
       <use xlink:href="#DejaVuSans-83"/>
       <use x="63.476562" xlink:href="#DejaVuSans-101"/>
       <use x="125" xlink:href="#DejaVuSans-112"/>
      </g>
     </g>
    </g>
    <g id="xtick_10">
     <g id="line2d_10">
      <g>
       <use style="fill:#252627;stroke:#252627;stroke-width:0.8;" x="481.466972" xlink:href="#m4531f2a669" y="437.3688"/>
      </g>
     </g>
     <g id="text_9">
      <!-- Oct -->
      <g style="fill:#252627;" transform="translate(467.634472 456.5263)scale(0.16 -0.16)">
       <defs>
        <path d="M 39.40625 66.21875 
Q 28.65625 66.21875 22.328125 58.203125 
Q 16.015625 50.203125 16.015625 36.375 
Q 16.015625 22.609375 22.328125 14.59375 
Q 28.65625 6.59375 39.40625 6.59375 
Q 50.140625 6.59375 56.421875 14.59375 
Q 62.703125 22.609375 62.703125 36.375 
Q 62.703125 50.203125 56.421875 58.203125 
Q 50.140625 66.21875 39.40625 66.21875 
z
M 39.40625 74.21875 
Q 54.734375 74.21875 63.90625 63.9375 
Q 73.09375 53.65625 73.09375 36.375 
Q 73.09375 19.140625 63.90625 8.859375 
Q 54.734375 -1.421875 39.40625 -1.421875 
Q 24.03125 -1.421875 14.8125 8.828125 
Q 5.609375 19.09375 5.609375 36.375 
Q 5.609375 53.65625 14.8125 63.9375 
Q 24.03125 74.21875 39.40625 74.21875 
z
" id="DejaVuSans-79"/>
        <path d="M 48.78125 52.59375 
L 48.78125 44.1875 
Q 44.96875 46.296875 41.140625 47.34375 
Q 37.3125 48.390625 33.40625 48.390625 
Q 24.65625 48.390625 19.8125 42.84375 
Q 14.984375 37.3125 14.984375 27.296875 
Q 14.984375 17.28125 19.8125 11.734375 
Q 24.65625 6.203125 33.40625 6.203125 
Q 37.3125 6.203125 41.140625 7.25 
Q 44.96875 8.296875 48.78125 10.40625 
L 48.78125 2.09375 
Q 45.015625 0.34375 40.984375 -0.53125 
Q 36.96875 -1.421875 32.421875 -1.421875 
Q 20.0625 -1.421875 12.78125 6.34375 
Q 5.515625 14.109375 5.515625 27.296875 
Q 5.515625 40.671875 12.859375 48.328125 
Q 20.21875 56 33.015625 56 
Q 37.15625 56 41.109375 55.140625 
Q 45.0625 54.296875 48.78125 52.59375 
z
" id="DejaVuSans-99"/>
        <path d="M 18.3125 70.21875 
L 18.3125 54.6875 
L 36.8125 54.6875 
L 36.8125 47.703125 
L 18.3125 47.703125 
L 18.3125 18.015625 
Q 18.3125 11.328125 20.140625 9.421875 
Q 21.96875 7.515625 27.59375 7.515625 
L 36.8125 7.515625 
L 36.8125 0 
L 27.59375 0 
Q 17.1875 0 13.234375 3.875 
Q 9.28125 7.765625 9.28125 18.015625 
L 9.28125 47.703125 
L 2.6875 47.703125 
L 2.6875 54.6875 
L 9.28125 54.6875 
L 9.28125 70.21875 
z
" id="DejaVuSans-116"/>
       </defs>
       <use xlink:href="#DejaVuSans-79"/>
       <use x="78.710938" xlink:href="#DejaVuSans-99"/>
       <use x="133.691406" xlink:href="#DejaVuSans-116"/>
      </g>
     </g>
    </g>
    <g id="xtick_11">
     <g id="line2d_11">
      <g>
       <use style="fill:#252627;stroke:#252627;stroke-width:0.8;" x="534.366055" xlink:href="#m4531f2a669" y="437.3688"/>
      </g>
     </g>
     <g id="text_10">
      <!-- Nov -->
      <g style="fill:#252627;" transform="translate(518.751055 456.5263)scale(0.16 -0.16)">
       <defs>
        <path d="M 9.8125 72.90625 
L 23.09375 72.90625 
L 55.421875 11.921875 
L 55.421875 72.90625 
L 64.984375 72.90625 
L 64.984375 0 
L 51.703125 0 
L 19.390625 60.984375 
L 19.390625 0 
L 9.8125 0 
z
" id="DejaVuSans-78"/>
        <path d="M 30.609375 48.390625 
Q 23.390625 48.390625 19.1875 42.75 
Q 14.984375 37.109375 14.984375 27.296875 
Q 14.984375 17.484375 19.15625 11.84375 
Q 23.34375 6.203125 30.609375 6.203125 
Q 37.796875 6.203125 41.984375 11.859375 
Q 46.1875 17.53125 46.1875 27.296875 
Q 46.1875 37.015625 41.984375 42.703125 
Q 37.796875 48.390625 30.609375 48.390625 
z
M 30.609375 56 
Q 42.328125 56 49.015625 48.375 
Q 55.71875 40.765625 55.71875 27.296875 
Q 55.71875 13.875 49.015625 6.21875 
Q 42.328125 -1.421875 30.609375 -1.421875 
Q 18.84375 -1.421875 12.171875 6.21875 
Q 5.515625 13.875 5.515625 27.296875 
Q 5.515625 40.765625 12.171875 48.375 
Q 18.84375 56 30.609375 56 
z
" id="DejaVuSans-111"/>
        <path d="M 2.984375 54.6875 
L 12.5 54.6875 
L 29.59375 8.796875 
L 46.6875 54.6875 
L 56.203125 54.6875 
L 35.6875 0 
L 23.484375 0 
z
" id="DejaVuSans-118"/>
       </defs>
       <use xlink:href="#DejaVuSans-78"/>
       <use x="74.804688" xlink:href="#DejaVuSans-111"/>
       <use x="135.986328" xlink:href="#DejaVuSans-118"/>
      </g>
     </g>
    </g>
    <g id="xtick_12">
     <g id="line2d_12">
      <g>
       <use style="fill:#252627;stroke:#252627;stroke-width:0.8;" x="585.558716" xlink:href="#m4531f2a669" y="437.3688"/>
      </g>
     </g>
     <g id="text_11">
      <!-- Dec -->
      <g style="fill:#252627;" transform="translate(570.077466 456.5263)scale(0.16 -0.16)">
       <defs>
        <path d="M 19.671875 64.796875 
L 19.671875 8.109375 
L 31.59375 8.109375 
Q 46.6875 8.109375 53.6875 14.9375 
Q 60.6875 21.78125 60.6875 36.53125 
Q 60.6875 51.171875 53.6875 57.984375 
Q 46.6875 64.796875 31.59375 64.796875 
z
M 9.8125 72.90625 
L 30.078125 72.90625 
Q 51.265625 72.90625 61.171875 64.09375 
Q 71.09375 55.28125 71.09375 36.53125 
Q 71.09375 17.671875 61.125 8.828125 
Q 51.171875 0 30.078125 0 
L 9.8125 0 
z
" id="DejaVuSans-68"/>
       </defs>
       <use xlink:href="#DejaVuSans-68"/>
       <use x="77.001953" xlink:href="#DejaVuSans-101"/>
       <use x="138.525391" xlink:href="#DejaVuSans-99"/>
      </g>
     </g>
    </g>
    <g id="xtick_13">
     <g id="line2d_13">
      <g>
       <use style="fill:#252627;stroke:#252627;stroke-width:0.8;" x="623.1" xlink:href="#m4531f2a669" y="437.3688"/>
      </g>
     </g>
    </g>
    <g id="xtick_14">
     <g id="line2d_14">
      <defs>
       <path d="M 0 0 
L 0 2 
" id="mbbbde31066" style="stroke:#252627;stroke-width:0.6;"/>
      </defs>
      <g>
       <use style="fill:#252627;stroke:#252627;stroke-width:0.6;" x="70.219266" xlink:href="#mbbbde31066" y="437.3688"/>
      </g>
     </g>
    </g>
    <g id="xtick_15">
     <g id="line2d_15">
      <g>
       <use style="fill:#252627;stroke:#252627;stroke-width:0.6;" x="82.16422" xlink:href="#mbbbde31066" y="437.3688"/>
      </g>
     </g>
    </g>
    <g id="xtick_16">
     <g id="line2d_16">
      <g>
       <use style="fill:#252627;stroke:#252627;stroke-width:0.6;" x="94.109174" xlink:href="#mbbbde31066" y="437.3688"/>
      </g>
     </g>
    </g>
    <g id="xtick_17">
     <g id="line2d_17">
      <g>
       <use style="fill:#252627;stroke:#252627;stroke-width:0.6;" x="106.054128" xlink:href="#mbbbde31066" y="437.3688"/>
      </g>
     </g>
    </g>
    <g id="xtick_18">
     <g id="line2d_18">
      <g>
       <use style="fill:#252627;stroke:#252627;stroke-width:0.6;" x="117.999083" xlink:href="#mbbbde31066" y="437.3688"/>
      </g>
     </g>
    </g>
    <g id="xtick_19">
     <g id="line2d_19">
      <g>
       <use style="fill:#252627;stroke:#252627;stroke-width:0.6;" x="129.944037" xlink:href="#mbbbde31066" y="437.3688"/>
      </g>
     </g>
    </g>
    <g id="xtick_20">
     <g id="line2d_20">
      <g>
       <use style="fill:#252627;stroke:#252627;stroke-width:0.6;" x="141.888991" xlink:href="#mbbbde31066" y="437.3688"/>
      </g>
     </g>
    </g>
    <g id="xtick_21">
     <g id="line2d_21">
      <g>
       <use style="fill:#252627;stroke:#252627;stroke-width:0.6;" x="153.833945" xlink:href="#mbbbde31066" y="437.3688"/>
      </g>
     </g>
    </g>
    <g id="xtick_22">
     <g id="line2d_22">
      <g>
       <use style="fill:#252627;stroke:#252627;stroke-width:0.6;" x="165.778899" xlink:href="#mbbbde31066" y="437.3688"/>
      </g>
     </g>
    </g>
    <g id="xtick_23">
     <g id="line2d_23">
      <g>
       <use style="fill:#252627;stroke:#252627;stroke-width:0.6;" x="177.723853" xlink:href="#mbbbde31066" y="437.3688"/>
      </g>
     </g>
    </g>
    <g id="xtick_24">
     <g id="line2d_24">
      <g>
       <use style="fill:#252627;stroke:#252627;stroke-width:0.6;" x="189.668807" xlink:href="#mbbbde31066" y="437.3688"/>
      </g>
     </g>
    </g>
    <g id="xtick_25">
     <g id="line2d_25">
      <g>
       <use style="fill:#252627;stroke:#252627;stroke-width:0.6;" x="201.613761" xlink:href="#mbbbde31066" y="437.3688"/>
      </g>
     </g>
    </g>
    <g id="xtick_26">
     <g id="line2d_26">
      <g>
       <use style="fill:#252627;stroke:#252627;stroke-width:0.6;" x="213.558716" xlink:href="#mbbbde31066" y="437.3688"/>
      </g>
     </g>
    </g>
    <g id="xtick_27">
     <g id="line2d_27">
      <g>
       <use style="fill:#252627;stroke:#252627;stroke-width:0.6;" x="225.50367" xlink:href="#mbbbde31066" y="437.3688"/>
      </g>
     </g>
    </g>
    <g id="xtick_28">
     <g id="line2d_28">
      <g>
       <use style="fill:#252627;stroke:#252627;stroke-width:0.6;" x="237.448624" xlink:href="#mbbbde31066" y="437.3688"/>
      </g>
     </g>
    </g>
    <g id="xtick_29">
     <g id="line2d_29">
      <g>
       <use style="fill:#252627;stroke:#252627;stroke-width:0.6;" x="249.393578" xlink:href="#mbbbde31066" y="437.3688"/>
      </g>
     </g>
    </g>
    <g id="xtick_30">
     <g id="line2d_30">
      <g>
       <use style="fill:#252627;stroke:#252627;stroke-width:0.6;" x="261.338532" xlink:href="#mbbbde31066" y="437.3688"/>
      </g>
     </g>
    </g>
    <g id="xtick_31">
     <g id="line2d_31">
      <g>
       <use style="fill:#252627;stroke:#252627;stroke-width:0.6;" x="285.22844" xlink:href="#mbbbde31066" y="437.3688"/>
      </g>
     </g>
    </g>
    <g id="xtick_32">
     <g id="line2d_32">
      <g>
       <use style="fill:#252627;stroke:#252627;stroke-width:0.6;" x="297.173394" xlink:href="#mbbbde31066" y="437.3688"/>
      </g>
     </g>
    </g>
    <g id="xtick_33">
     <g id="line2d_33">
      <g>
       <use style="fill:#252627;stroke:#252627;stroke-width:0.6;" x="309.118349" xlink:href="#mbbbde31066" y="437.3688"/>
      </g>
     </g>
    </g>
    <g id="xtick_34">
     <g id="line2d_34">
      <g>
       <use style="fill:#252627;stroke:#252627;stroke-width:0.6;" x="321.063303" xlink:href="#mbbbde31066" y="437.3688"/>
      </g>
     </g>
    </g>
    <g id="xtick_35">
     <g id="line2d_35">
      <g>
       <use style="fill:#252627;stroke:#252627;stroke-width:0.6;" x="333.008257" xlink:href="#mbbbde31066" y="437.3688"/>
      </g>
     </g>
    </g>
    <g id="xtick_36">
     <g id="line2d_36">
      <g>
       <use style="fill:#252627;stroke:#252627;stroke-width:0.6;" x="344.953211" xlink:href="#mbbbde31066" y="437.3688"/>
      </g>
     </g>
    </g>
    <g id="xtick_37">
     <g id="line2d_37">
      <g>
       <use style="fill:#252627;stroke:#252627;stroke-width:0.6;" x="356.898165" xlink:href="#mbbbde31066" y="437.3688"/>
      </g>
     </g>
    </g>
    <g id="xtick_38">
     <g id="line2d_38">
      <g>
       <use style="fill:#252627;stroke:#252627;stroke-width:0.6;" x="368.843119" xlink:href="#mbbbde31066" y="437.3688"/>
      </g>
     </g>
    </g>
    <g id="xtick_39">
     <g id="line2d_39">
      <g>
       <use style="fill:#252627;stroke:#252627;stroke-width:0.6;" x="380.788073" xlink:href="#mbbbde31066" y="437.3688"/>
      </g>
     </g>
    </g>
    <g id="xtick_40">
     <g id="line2d_40">
      <g>
       <use style="fill:#252627;stroke:#252627;stroke-width:0.6;" x="392.733028" xlink:href="#mbbbde31066" y="437.3688"/>
      </g>
     </g>
    </g>
    <g id="xtick_41">
     <g id="line2d_41">
      <g>
       <use style="fill:#252627;stroke:#252627;stroke-width:0.6;" x="404.677982" xlink:href="#mbbbde31066" y="437.3688"/>
      </g>
     </g>
    </g>
    <g id="xtick_42">
     <g id="line2d_42">
      <g>
       <use style="fill:#252627;stroke:#252627;stroke-width:0.6;" x="416.622936" xlink:href="#mbbbde31066" y="437.3688"/>
      </g>
     </g>
    </g>
    <g id="xtick_43">
     <g id="line2d_43">
      <g>
       <use style="fill:#252627;stroke:#252627;stroke-width:0.6;" x="428.56789" xlink:href="#mbbbde31066" y="437.3688"/>
      </g>
     </g>
    </g>
    <g id="xtick_44">
     <g id="line2d_44">
      <g>
       <use style="fill:#252627;stroke:#252627;stroke-width:0.6;" x="440.512844" xlink:href="#mbbbde31066" y="437.3688"/>
      </g>
     </g>
    </g>
    <g id="xtick_45">
     <g id="line2d_45">
      <g>
       <use style="fill:#252627;stroke:#252627;stroke-width:0.6;" x="452.457798" xlink:href="#mbbbde31066" y="437.3688"/>
      </g>
     </g>
    </g>
    <g id="xtick_46">
     <g id="line2d_46">
      <g>
       <use style="fill:#252627;stroke:#252627;stroke-width:0.6;" x="464.402752" xlink:href="#mbbbde31066" y="437.3688"/>
      </g>
     </g>
    </g>
    <g id="xtick_47">
     <g id="line2d_47">
      <g>
       <use style="fill:#252627;stroke:#252627;stroke-width:0.6;" x="476.347706" xlink:href="#mbbbde31066" y="437.3688"/>
      </g>
     </g>
    </g>
    <g id="xtick_48">
     <g id="line2d_48">
      <g>
       <use style="fill:#252627;stroke:#252627;stroke-width:0.6;" x="488.292661" xlink:href="#mbbbde31066" y="437.3688"/>
      </g>
     </g>
    </g>
    <g id="xtick_49">
     <g id="line2d_49">
      <g>
       <use style="fill:#252627;stroke:#252627;stroke-width:0.6;" x="500.237615" xlink:href="#mbbbde31066" y="437.3688"/>
      </g>
     </g>
    </g>
    <g id="xtick_50">
     <g id="line2d_50">
      <g>
       <use style="fill:#252627;stroke:#252627;stroke-width:0.6;" x="512.182569" xlink:href="#mbbbde31066" y="437.3688"/>
      </g>
     </g>
    </g>
    <g id="xtick_51">
     <g id="line2d_51">
      <g>
       <use style="fill:#252627;stroke:#252627;stroke-width:0.6;" x="524.127523" xlink:href="#mbbbde31066" y="437.3688"/>
      </g>
     </g>
    </g>
    <g id="xtick_52">
     <g id="line2d_52">
      <g>
       <use style="fill:#252627;stroke:#252627;stroke-width:0.6;" x="536.072477" xlink:href="#mbbbde31066" y="437.3688"/>
      </g>
     </g>
    </g>
    <g id="xtick_53">
     <g id="line2d_53">
      <g>
       <use style="fill:#252627;stroke:#252627;stroke-width:0.6;" x="548.017431" xlink:href="#mbbbde31066" y="437.3688"/>
      </g>
     </g>
    </g>
    <g id="xtick_54">
     <g id="line2d_54">
      <g>
       <use style="fill:#252627;stroke:#252627;stroke-width:0.6;" x="559.962385" xlink:href="#mbbbde31066" y="437.3688"/>
      </g>
     </g>
    </g>
    <g id="xtick_55">
     <g id="line2d_55">
      <g>
       <use style="fill:#252627;stroke:#252627;stroke-width:0.6;" x="571.907339" xlink:href="#mbbbde31066" y="437.3688"/>
      </g>
     </g>
    </g>
    <g id="xtick_56">
     <g id="line2d_56">
      <g>
       <use style="fill:#252627;stroke:#252627;stroke-width:0.6;" x="583.852294" xlink:href="#mbbbde31066" y="437.3688"/>
      </g>
     </g>
    </g>
    <g id="xtick_57">
     <g id="line2d_57">
      <g>
       <use style="fill:#252627;stroke:#252627;stroke-width:0.6;" x="595.797248" xlink:href="#mbbbde31066" y="437.3688"/>
      </g>
     </g>
    </g>
    <g id="xtick_58">
     <g id="line2d_58">
      <g>
       <use style="fill:#252627;stroke:#252627;stroke-width:0.6;" x="607.742202" xlink:href="#mbbbde31066" y="437.3688"/>
      </g>
     </g>
    </g>
    <g id="xtick_59">
     <g id="line2d_59">
      <g>
       <use style="fill:#252627;stroke:#252627;stroke-width:0.6;" x="619.687156" xlink:href="#mbbbde31066" y="437.3688"/>
      </g>
     </g>
    </g>
    <g id="text_12">
     <!-- date -->
     <g style="fill:#252627;" transform="translate(326.06 493.9278)scale(0.16 -0.16)">
      <defs>
       <path d="M 45.40625 46.390625 
L 45.40625 75.984375 
L 54.390625 75.984375 
L 54.390625 0 
L 45.40625 0 
L 45.40625 8.203125 
Q 42.578125 3.328125 38.25 0.953125 
Q 33.9375 -1.421875 27.875 -1.421875 
Q 17.96875 -1.421875 11.734375 6.484375 
Q 5.515625 14.40625 5.515625 27.296875 
Q 5.515625 40.1875 11.734375 48.09375 
Q 17.96875 56 27.875 56 
Q 33.9375 56 38.25 53.625 
Q 42.578125 51.265625 45.40625 46.390625 
z
M 14.796875 27.296875 
Q 14.796875 17.390625 18.875 11.75 
Q 22.953125 6.109375 30.078125 6.109375 
Q 37.203125 6.109375 41.296875 11.75 
Q 45.40625 17.390625 45.40625 27.296875 
Q 45.40625 37.203125 41.296875 42.84375 
Q 37.203125 48.484375 30.078125 48.484375 
Q 22.953125 48.484375 18.875 42.84375 
Q 14.796875 37.203125 14.796875 27.296875 
z
" id="DejaVuSans-100"/>
      </defs>
      <use xlink:href="#DejaVuSans-100"/>
      <use x="63.476562" xlink:href="#DejaVuSans-97"/>
      <use x="124.755859" xlink:href="#DejaVuSans-116"/>
      <use x="163.964844" xlink:href="#DejaVuSans-101"/>
     </g>
    </g>
   </g>
   <g id="matplotlib.axis_2">
    <g id="ytick_1">
     <g id="line2d_60">
      <defs>
       <path d="M 0 0 
L -3.5 0 
" id="mb64181808c" style="stroke:#252627;stroke-width:0.8;"/>
      </defs>
      <g>
       <use style="fill:#252627;stroke:#252627;stroke-width:0.8;" x="65.1" xlink:href="#mb64181808c" y="419.7288"/>
      </g>
     </g>
     <g id="text_13">
      <!-- 0 -->
      <g style="fill:#252627;" transform="translate(47.92 425.80755)scale(0.16 -0.16)">
       <use xlink:href="#DejaVuSans-48"/>
      </g>
     </g>
    </g>
    <g id="ytick_2">
     <g id="line2d_61">
      <g>
       <use style="fill:#252627;stroke:#252627;stroke-width:0.8;" x="65.1" xlink:href="#mb64181808c" y="367.684629"/>
      </g>
     </g>
     <g id="text_14">
      <!-- 5000 -->
      <g style="fill:#252627;" transform="translate(17.38 373.763379)scale(0.16 -0.16)">
       <defs>
        <path d="M 10.796875 72.90625 
L 49.515625 72.90625 
L 49.515625 64.59375 
L 19.828125 64.59375 
L 19.828125 46.734375 
Q 21.96875 47.46875 24.109375 47.828125 
Q 26.265625 48.1875 28.421875 48.1875 
Q 40.625 48.1875 47.75 41.5 
Q 54.890625 34.8125 54.890625 23.390625 
Q 54.890625 11.625 47.5625 5.09375 
Q 40.234375 -1.421875 26.90625 -1.421875 
Q 22.3125 -1.421875 17.546875 -0.640625 
Q 12.796875 0.140625 7.71875 1.703125 
L 7.71875 11.625 
Q 12.109375 9.234375 16.796875 8.0625 
Q 21.484375 6.890625 26.703125 6.890625 
Q 35.15625 6.890625 40.078125 11.328125 
Q 45.015625 15.765625 45.015625 23.390625 
Q 45.015625 31 40.078125 35.4375 
Q 35.15625 39.890625 26.703125 39.890625 
Q 22.75 39.890625 18.8125 39.015625 
Q 14.890625 38.140625 10.796875 36.28125 
z
" id="DejaVuSans-53"/>
       </defs>
       <use xlink:href="#DejaVuSans-53"/>
       <use x="63.623047" xlink:href="#DejaVuSans-48"/>
       <use x="127.246094" xlink:href="#DejaVuSans-48"/>
       <use x="190.869141" xlink:href="#DejaVuSans-48"/>
      </g>
     </g>
    </g>
    <g id="ytick_3">
     <g id="line2d_62">
      <g>
       <use style="fill:#252627;stroke:#252627;stroke-width:0.8;" x="65.1" xlink:href="#mb64181808c" y="315.640459"/>
      </g>
     </g>
     <g id="text_15">
      <!-- 10000 -->
      <g style="fill:#252627;" transform="translate(7.2 321.719209)scale(0.16 -0.16)">
       <defs>
        <path d="M 12.40625 8.296875 
L 28.515625 8.296875 
L 28.515625 63.921875 
L 10.984375 60.40625 
L 10.984375 69.390625 
L 28.421875 72.90625 
L 38.28125 72.90625 
L 38.28125 8.296875 
L 54.390625 8.296875 
L 54.390625 0 
L 12.40625 0 
z
" id="DejaVuSans-49"/>
       </defs>
       <use xlink:href="#DejaVuSans-49"/>
       <use x="63.623047" xlink:href="#DejaVuSans-48"/>
       <use x="127.246094" xlink:href="#DejaVuSans-48"/>
       <use x="190.869141" xlink:href="#DejaVuSans-48"/>
       <use x="254.492188" xlink:href="#DejaVuSans-48"/>
      </g>
     </g>
    </g>
    <g id="ytick_4">
     <g id="line2d_63">
      <g>
       <use style="fill:#252627;stroke:#252627;stroke-width:0.8;" x="65.1" xlink:href="#mb64181808c" y="263.596288"/>
      </g>
     </g>
     <g id="text_16">
      <!-- 15000 -->
      <g style="fill:#252627;" transform="translate(7.2 269.675038)scale(0.16 -0.16)">
       <use xlink:href="#DejaVuSans-49"/>
       <use x="63.623047" xlink:href="#DejaVuSans-53"/>
       <use x="127.246094" xlink:href="#DejaVuSans-48"/>
       <use x="190.869141" xlink:href="#DejaVuSans-48"/>
       <use x="254.492188" xlink:href="#DejaVuSans-48"/>
      </g>
     </g>
    </g>
    <g id="ytick_5">
     <g id="line2d_64">
      <g>
       <use style="fill:#252627;stroke:#252627;stroke-width:0.8;" x="65.1" xlink:href="#mb64181808c" y="211.552118"/>
      </g>
     </g>
     <g id="text_17">
      <!-- 20000 -->
      <g style="fill:#252627;" transform="translate(7.2 217.630868)scale(0.16 -0.16)">
       <use xlink:href="#DejaVuSans-50"/>
       <use x="63.623047" xlink:href="#DejaVuSans-48"/>
       <use x="127.246094" xlink:href="#DejaVuSans-48"/>
       <use x="190.869141" xlink:href="#DejaVuSans-48"/>
       <use x="254.492188" xlink:href="#DejaVuSans-48"/>
      </g>
     </g>
    </g>
    <g id="ytick_6">
     <g id="line2d_65">
      <g>
       <use style="fill:#252627;stroke:#252627;stroke-width:0.8;" x="65.1" xlink:href="#mb64181808c" y="159.507947"/>
      </g>
     </g>
     <g id="text_18">
      <!-- 25000 -->
      <g style="fill:#252627;" transform="translate(7.2 165.586697)scale(0.16 -0.16)">
       <use xlink:href="#DejaVuSans-50"/>
       <use x="63.623047" xlink:href="#DejaVuSans-53"/>
       <use x="127.246094" xlink:href="#DejaVuSans-48"/>
       <use x="190.869141" xlink:href="#DejaVuSans-48"/>
       <use x="254.492188" xlink:href="#DejaVuSans-48"/>
      </g>
     </g>
    </g>
    <g id="ytick_7">
     <g id="line2d_66">
      <g>
       <use style="fill:#252627;stroke:#252627;stroke-width:0.8;" x="65.1" xlink:href="#mb64181808c" y="107.463777"/>
      </g>
     </g>
     <g id="text_19">
      <!-- 30000 -->
      <g style="fill:#252627;" transform="translate(7.2 113.542527)scale(0.16 -0.16)">
       <defs>
        <path d="M 40.578125 39.3125 
Q 47.65625 37.796875 51.625 33 
Q 55.609375 28.21875 55.609375 21.1875 
Q 55.609375 10.40625 48.1875 4.484375 
Q 40.765625 -1.421875 27.09375 -1.421875 
Q 22.515625 -1.421875 17.65625 -0.515625 
Q 12.796875 0.390625 7.625 2.203125 
L 7.625 11.71875 
Q 11.71875 9.328125 16.59375 8.109375 
Q 21.484375 6.890625 26.8125 6.890625 
Q 36.078125 6.890625 40.9375 10.546875 
Q 45.796875 14.203125 45.796875 21.1875 
Q 45.796875 27.640625 41.28125 31.265625 
Q 36.765625 34.90625 28.71875 34.90625 
L 20.21875 34.90625 
L 20.21875 43.015625 
L 29.109375 43.015625 
Q 36.375 43.015625 40.234375 45.921875 
Q 44.09375 48.828125 44.09375 54.296875 
Q 44.09375 59.90625 40.109375 62.90625 
Q 36.140625 65.921875 28.71875 65.921875 
Q 24.65625 65.921875 20.015625 65.03125 
Q 15.375 64.15625 9.8125 62.3125 
L 9.8125 71.09375 
Q 15.4375 72.65625 20.34375 73.4375 
Q 25.25 74.21875 29.59375 74.21875 
Q 40.828125 74.21875 47.359375 69.109375 
Q 53.90625 64.015625 53.90625 55.328125 
Q 53.90625 49.265625 50.4375 45.09375 
Q 46.96875 40.921875 40.578125 39.3125 
z
" id="DejaVuSans-51"/>
       </defs>
       <use xlink:href="#DejaVuSans-51"/>
       <use x="63.623047" xlink:href="#DejaVuSans-48"/>
       <use x="127.246094" xlink:href="#DejaVuSans-48"/>
       <use x="190.869141" xlink:href="#DejaVuSans-48"/>
       <use x="254.492188" xlink:href="#DejaVuSans-48"/>
      </g>
     </g>
    </g>
    <g id="ytick_8">
     <g id="line2d_67">
      <g>
       <use style="fill:#252627;stroke:#252627;stroke-width:0.8;" x="65.1" xlink:href="#mb64181808c" y="55.419606"/>
      </g>
     </g>
     <g id="text_20">
      <!-- 35000 -->
      <g style="fill:#252627;" transform="translate(7.2 61.498356)scale(0.16 -0.16)">
       <use xlink:href="#DejaVuSans-51"/>
       <use x="63.623047" xlink:href="#DejaVuSans-53"/>
       <use x="127.246094" xlink:href="#DejaVuSans-48"/>
       <use x="190.869141" xlink:href="#DejaVuSans-48"/>
       <use x="254.492188" xlink:href="#DejaVuSans-48"/>
      </g>
     </g>
    </g>
   </g>
   <g id="line2d_68">
    <path clip-path="url(#p59a43eec9c)" d="M 75.338532 419.727312 
L 114.586239 419.664859 
L 123.118349 419.365979 
L 128.237615 418.852969 
L 129.944037 418.31171 
L 133.356881 416.673068 
L 135.063303 416.728079 
L 136.769725 412.543728 
L 138.476147 410.969027 
L 140.182569 409.134095 
L 141.888991 406.540807 
L 143.595413 404.780226 
L 145.301835 402.430806 
L 147.008257 396.404091 
L 148.714679 397.159471 
L 150.421101 391.50153 
L 152.127523 388.54691 
L 153.833945 382.265918 
L 155.540367 377.889752 
L 157.246789 366.785004 
L 158.953211 360.512943 
L 160.659633 352.355394 
L 162.366055 348.560624 
L 164.072477 343.384467 
L 165.778899 341.186715 
L 167.485321 336.401618 
L 169.191743 338.535429 
L 170.898165 339.017212 
L 172.604587 340.205307 
L 174.311009 341.018685 
L 176.017431 343.095986 
L 179.430275 351.299636 
L 181.136697 354.150168 
L 182.843119 358.529321 
L 186.255963 364.920345 
L 189.668807 370.028106 
L 191.375229 374.228809 
L 193.081651 375.976005 
L 194.788073 372.552987 
L 196.494495 371.303927 
L 198.200917 377.054069 
L 199.907339 372.379014 
L 201.613761 374.954461 
L 203.320183 372.685335 
L 205.026606 374.011712 
L 206.733028 377.980455 
L 208.43945 401.660552 
L 210.145872 398.644967 
L 211.852294 406.405492 
L 213.558716 405.966833 
L 215.265138 409.92219 
L 216.97156 412.995773 
L 218.677982 419.117656 
L 220.384404 401.549032 
L 222.090826 403.852351 
L 223.797248 405.108853 
L 225.50367 407.021102 
L 227.210092 407.006228 
L 228.916514 408.713277 
L 230.622936 407.81515 
L 232.329358 408.366819 
L 234.03578 409.325909 
L 235.742202 409.492451 
L 237.448624 405.714044 
L 239.155046 406.790619 
L 242.56789 407.694699 
L 244.274312 408.835216 
L 245.980734 409.141527 
L 247.687156 410.289476 
L 249.393578 413.528112 
L 252.806422 413.983124 
L 254.512844 414.528848 
L 256.219266 412.827743 
L 257.925688 412.900605 
L 259.63211 412.183884 
L 261.338532 414.087212 
L 263.044954 413.450785 
L 264.751376 414.221038 
L 266.457798 412.488717 
L 268.16422 414.167506 
L 269.870642 413.873092 
L 271.577064 414.216583 
L 273.283486 413.42699 
L 274.989908 414.267139 
L 276.69633 413.681267 
L 278.402752 415.633663 
L 281.815596 416.632911 
L 286.934862 416.704295 
L 288.641284 416.823247 
L 290.347706 416.684955 
L 292.054128 416.411359 
L 297.173394 416.171956 
L 300.586239 416.155593 
L 302.292661 415.920655 
L 303.999083 416.210614 
L 307.411927 416.243329 
L 310.824771 416.124366 
L 312.531193 416.155593 
L 314.237615 416.430688 
L 315.944037 416.264147 
L 317.650459 415.965267 
L 321.063303 416.061913 
L 327.888991 415.803181 
L 329.595413 416.641842 
L 331.301835 417.089422 
L 333.008257 415.537017 
L 338.127523 415.33776 
L 339.833945 414.728094 
L 343.246789 414.728094 
L 344.953211 413.537032 
L 346.659633 413.05376 
L 348.366055 412.322176 
L 350.072477 411.10582 
L 351.778899 410.290964 
L 355.191743 410.290964 
L 356.898165 406.51999 
L 358.604587 405.491003 
L 360.311009 404.774282 
L 362.017431 402.909613 
L 363.723853 401.638246 
L 367.136697 401.638246 
L 368.843119 398.991426 
L 370.549541 398.292545 
L 372.255963 397.290331 
L 373.962385 397.031598 
L 375.668807 395.786993 
L 379.081651 395.786993 
L 380.788073 392.558766 
L 382.494495 386.711978 
L 384.200917 385.340989 
L 385.907339 383.409401 
L 387.613761 381.305328 
L 391.026606 381.305328 
L 392.733028 381.177455 
L 394.43945 384.341741 
L 396.145872 384.01609 
L 397.852294 378.868183 
L 399.558716 377.422833 
L 402.97156 377.422833 
L 404.677982 366.045977 
L 406.384404 363.842281 
L 408.090826 358.639353 
L 409.797248 359.399198 
L 411.50367 355.430455 
L 414.916514 355.430455 
L 416.622936 350.801501 
L 418.329358 347.823086 
L 420.03578 346.893722 
L 421.742202 342.99934 
L 423.448624 340.574082 
L 426.861468 340.574082 
L 428.56789 334.343645 
L 430.274312 332.859648 
L 431.980734 330.948877 
L 433.687156 331.988272 
L 435.393578 330.951854 
L 438.806422 330.951854 
L 440.512844 326.50877 
L 442.219266 325.246324 
L 443.925688 324.822539 
L 447.338532 319.600281 
L 450.751376 319.600281 
L 452.457798 318.345267 
L 454.16422 317.641932 
L 455.870642 314.181734 
L 457.577064 313.398094 
L 459.283486 310.117833 
L 462.69633 310.117833 
L 464.402752 304.134232 
L 466.109174 302.108975 
L 467.815596 301.966228 
L 469.522018 302.91492 
L 471.22844 306.062843 
L 474.641284 306.062843 
L 476.347706 305.531993 
L 478.054128 321.589847 
L 479.76055 307.265813 
L 481.466972 309.100734 
L 483.173394 310.508904 
L 486.586239 310.508904 
L 488.292661 322.858246 
L 489.999083 305.017505 
L 491.705505 320.528146 
L 493.411927 316.061278 
L 495.118349 313.885831 
L 498.531193 313.885831 
L 500.237615 307.378822 
L 501.944037 314.635267 
L 503.650459 312.436027 
L 505.356881 311.105184 
L 507.063303 307.539409 
L 510.476147 307.539409 
L 512.182569 292.620583 
L 513.888991 282.576058 
L 515.595413 275.136709 
L 517.301835 263.73458 
L 519.008257 256.797831 
L 522.421101 256.797831 
L 524.127523 235.53556 
L 525.833945 228.77725 
L 527.540367 224.625614 
L 529.246789 220.768402 
L 530.953211 212.227204 
L 534.366055 212.227204 
L 536.072477 208.01758 
L 537.778899 207.64434 
L 539.485321 199.797567 
L 541.191743 202.28379 
L 542.898165 206.862199 
L 546.311009 206.862199 
L 548.017431 210.777399 
L 549.723853 238.537759 
L 551.430275 221.513372 
L 553.136697 225.077659 
L 554.843119 226.780242 
L 558.255963 226.780242 
L 559.962385 247.76594 
L 561.668807 228.198821 
L 563.375229 259.682567 
L 565.081651 264.556878 
L 566.788073 273.798434 
L 570.200917 273.798434 
L 571.907339 292.217605 
L 573.613761 293.60198 
L 575.320183 301.179611 
L 577.026606 307.04425 
L 578.733028 313.442707 
L 582.145872 313.442707 
L 583.852294 322.226274 
L 585.558716 328.13106 
L 587.265138 329.455959 
L 590.677982 335.805348 
L 594.090826 335.805348 
L 595.797248 339.222412 
L 597.50367 351.500381 
L 599.210092 350.843136 
L 600.916514 354.072851 
L 602.622936 351.434951 
L 606.03578 351.434951 
L 607.742202 346.040198 
L 609.448624 330.682713 
L 611.155046 328.742204 
L 612.861468 322.532596 
L 614.56789 320.605473 
L 617.980734 320.605473 
L 619.687156 319.558646 
L 621.393578 319.073886 
L 623.1 317.128922 
L 623.1 317.128922 
" style="fill:none;stroke:#bb0a21;stroke-linecap:square;stroke-width:2;"/>
   </g>
   <g id="line2d_69">
    <path clip-path="url(#p59a43eec9c)" d="M 73.63211 419.715414 
L 116.292661 419.630655 
L 128.237615 419.150371 
L 129.944037 418.991261 
L 131.650459 418.687917 
L 133.356881 418.160043 
L 136.769725 416.909494 
L 138.476147 416.450017 
L 140.182569 415.871588 
L 143.595413 414.415829 
L 147.008257 412.676076 
L 150.421101 410.253784 
L 152.127523 408.847103 
L 155.540367 403.87168 
L 157.246789 401.325981 
L 160.659633 395.300755 
L 164.072477 390.645029 
L 165.778899 387.703794 
L 169.191743 381.147717 
L 172.604587 375.892734 
L 174.311009 374.063756 
L 176.017431 372.936625 
L 179.430275 370.050412 
L 181.136697 369.769373 
L 182.843119 369.803566 
L 184.549541 370.716577 
L 186.255963 371.400583 
L 187.962385 371.565636 
L 191.375229 374.909849 
L 193.081651 375.003528 
L 194.788073 374.353715 
L 196.494495 373.427329 
L 198.200917 371.757461 
L 199.907339 371.280143 
L 201.613761 370.297247 
L 205.026606 369.060084 
L 206.733028 369.320305 
L 208.43945 369.333691 
L 210.145872 370.77903 
L 211.852294 371.354483 
L 213.558716 371.595374 
L 216.97156 371.74854 
L 220.384404 372.425114 
L 223.797248 373.956691 
L 225.50367 375.920994 
L 227.210092 377.464468 
L 228.916514 379.864454 
L 230.622936 381.638411 
L 232.329358 384.133564 
L 234.03578 385.739491 
L 235.742202 386.713467 
L 237.448624 386.407145 
L 239.155046 386.844316 
L 240.861468 387.641341 
L 242.56789 389.355822 
L 244.274312 390.145405 
L 245.980734 390.261391 
L 247.687156 390.998929 
L 249.393578 392.503755 
L 251.1 393.004857 
L 252.806422 393.8792 
L 254.512844 393.974368 
L 256.219266 394.688122 
L 257.925688 395.526772 
L 259.63211 396.227141 
L 261.338532 397.660583 
L 263.044954 399.740862 
L 266.457798 402.299946 
L 268.16422 403.092506 
L 269.870642 403.688787 
L 271.577064 404.112572 
L 274.989908 404.644911 
L 280.109174 406.661248 
L 288.641284 408.875363 
L 290.347706 409.218854 
L 292.054128 409.302125 
L 295.466972 409.030007 
L 298.879817 409.236695 
L 300.586239 409.514757 
L 302.292661 409.495428 
L 303.999083 409.599516 
L 307.411927 410.20174 
L 310.824771 410.707318 
L 312.531193 411.037424 
L 315.944037 412.030728 
L 317.650459 412.078307 
L 321.063303 412.805437 
L 322.769725 413.516215 
L 326.182569 415.605413 
L 327.888991 415.809135 
L 329.595413 415.82251 
L 331.301835 415.655969 
L 333.008257 416.044073 
L 334.714679 415.77642 
L 338.127523 413.975692 
L 339.833945 413.942977 
L 343.246789 413.449296 
L 344.953211 413.18462 
L 346.659633 412.209156 
L 348.366055 412.356369 
L 350.072477 412.350425 
L 351.778899 412.108045 
L 355.191743 411.990571 
L 356.898165 411.917709 
L 358.604587 413.099861 
L 360.311009 413.062681 
L 363.723853 412.744472 
L 365.430275 412.832208 
L 367.136697 412.796516 
L 370.549541 412.484251 
L 372.255963 412.128863 
L 377.375229 411.859721 
L 379.081651 411.864187 
L 380.788073 411.486492 
L 385.907339 410.976459 
L 389.320183 410.95713 
L 391.026606 410.412893 
L 392.733028 410.597276 
L 394.43945 409.890963 
L 397.852294 409.419589 
L 399.558716 408.585404 
L 401.265138 408.173506 
L 402.97156 408.176483 
L 408.090826 408.685027 
L 409.797248 408.615142 
L 411.50367 409.211412 
L 413.210092 408.780195 
L 414.916514 408.873874 
L 416.622936 408.493203 
L 418.329358 408.362353 
L 423.448624 407.025557 
L 425.155046 407.355673 
L 426.861468 406.308836 
L 428.56789 405.657545 
L 430.274312 405.462754 
L 431.980734 404.915541 
L 433.687156 404.563129 
L 437.1 402.484339 
L 438.806422 400.647919 
L 440.512844 398.363929 
L 445.63211 393.207091 
L 449.044954 388.384824 
L 450.751376 387.862893 
L 452.457798 388.347654 
L 454.16422 387.404905 
L 455.870642 385.43318 
L 457.577064 384.720914 
L 459.283486 383.553636 
L 460.989908 382.178192 
L 462.69633 381.343997 
L 466.109174 376.029538 
L 467.815596 372.787935 
L 469.522018 367.979054 
L 471.22844 364.18875 
L 472.934862 361.778355 
L 474.641284 359.100318 
L 476.347706 359.579125 
L 478.054128 356.278036 
L 479.76055 354.895149 
L 481.466972 354.471354 
L 483.173394 354.298869 
L 484.879817 344.135381 
L 486.586239 318.462741 
L 488.292661 305.753555 
L 491.705505 284.256336 
L 493.411927 268.463157 
L 495.118349 258.211944 
L 496.824771 254.806767 
L 498.531193 269.799954 
L 500.237615 267.706289 
L 501.944037 263.701865 
L 503.650459 255.407513 
L 505.356881 253.257339 
L 507.063303 250.626881 
L 508.769725 249.123544 
L 510.476147 243.009103 
L 512.182569 235.84336 
L 513.888991 229.724454 
L 515.595413 219.38105 
L 517.301835 216.018996 
L 519.008257 208.729835 
L 520.714679 198.548507 
L 522.421101 194.380519 
L 524.127523 191.30247 
L 525.833945 188.984277 
L 527.540367 191.947818 
L 529.246789 189.240043 
L 530.953211 183.501799 
L 532.659633 185.158292 
L 534.366055 180.007407 
L 536.072477 182.881723 
L 537.778899 187.113664 
L 539.485321 186.382069 
L 541.191743 184.767211 
L 542.898165 186.396943 
L 544.604587 181.846794 
L 546.311009 185.833377 
L 548.017431 182.220023 
L 549.723853 181.665378 
L 551.430275 184.94565 
L 553.136697 171.037959 
L 554.843119 165.09898 
L 556.549541 162.278186 
L 558.255963 155.739949 
L 559.962385 155.713188 
L 561.668807 156.294595 
L 563.375229 161.283393 
L 565.081651 177.017095 
L 568.494495 197.830298 
L 571.907339 216.060632 
L 573.613761 229.021118 
L 575.320183 231.079091 
L 578.733028 247.186022 
L 580.43945 253.178534 
L 582.145872 262.848341 
L 583.852294 267.364286 
L 585.558716 264.162831 
L 587.265138 267.172462 
L 588.97156 271.047525 
L 590.677982 268.726355 
L 592.384404 269.190298 
L 594.090826 261.446125 
L 595.797248 257.957677 
L 597.50367 259.609705 
L 599.210092 259.019378 
L 600.916514 249.926512 
L 602.622936 241.893869 
L 604.329358 233.00919 
L 606.03578 231.270915 
L 607.742202 222.939382 
L 609.448624 213.745405 
L 611.155046 200.859268 
L 612.861468 179.348674 
L 614.56789 169.272922 
L 616.274312 160.804586 
L 617.980734 134.71857 
L 619.687156 115.1797 
L 621.393578 87.87584 
L 623.1 66.9288 
L 623.1 66.9288 
" style="fill:none;stroke:#4b88a2;stroke-linecap:square;stroke-width:2;"/>
   </g>
   <g id="line2d_70">
    <path clip-path="url(#p59a43eec9c)" d="M 133.356881 419.712448 
L 143.595413 419.571179 
L 164.072477 419.00167 
L 167.485321 418.763755 
L 169.191743 418.475275 
L 170.898165 418.48866 
L 174.311009 418.130305 
L 176.017431 417.603909 
L 177.723853 417.33328 
L 179.430275 416.919903 
L 181.136697 415.239616 
L 182.843119 414.015839 
L 184.549541 413.331832 
L 186.255963 412.142248 
L 187.962385 411.940015 
L 189.668807 408.988372 
L 191.375229 408.801013 
L 193.081651 409.122198 
L 194.788073 408.970531 
L 196.494495 408.43968 
L 198.200917 408.469418 
L 199.907339 407.670905 
L 201.613761 410.002484 
L 203.320183 408.525918 
L 205.026606 408.167562 
L 206.733028 407.203996 
L 208.43945 407.596565 
L 210.145872 403.504405 
L 211.852294 402.050134 
L 213.558716 401.328958 
L 215.265138 399.87321 
L 218.677982 395.844991 
L 220.384404 391.757286 
L 222.090826 394.148351 
L 223.797248 392.352078 
L 225.50367 391.962496 
L 227.210092 389.990761 
L 228.916514 388.671816 
L 230.622936 387.684465 
L 232.329358 387.925346 
L 234.03578 386.30009 
L 235.742202 387.938732 
L 237.448624 387.833155 
L 239.155046 388.6956 
L 244.274312 386.051756 
L 245.980734 384.746197 
L 247.687156 382.604954 
L 249.393578 380.90236 
L 251.1 378.949965 
L 252.806422 378.518737 
L 254.512844 377.848117 
L 256.219266 379.278582 
L 257.925688 379.263718 
L 259.63211 378.560373 
L 261.338532 376.538082 
L 263.044954 374.721001 
L 264.751376 372.316561 
L 266.457798 370.643715 
L 268.16422 365.324801 
L 269.870642 360.373163 
L 271.577064 353.53308 
L 273.283486 351.238672 
L 274.989908 347.738326 
L 276.69633 355.775435 
L 278.402752 358.139729 
L 280.109174 361.565723 
L 281.815596 366.068283 
L 283.522018 372.087566 
L 285.22844 375.629547 
L 286.934862 381.705329 
L 288.641284 375.254829 
L 290.347706 372.75522 
L 292.054128 379.003498 
L 293.76055 376.619875 
L 295.466972 370.329962 
L 298.879817 370.034049 
L 300.586239 372.01917 
L 302.292661 375.714306 
L 303.999083 370.454868 
L 305.705505 374.243683 
L 307.411927 382.256997 
L 310.824771 384.555861 
L 312.531193 384.367014 
L 314.237615 383.723154 
L 317.650459 383.073352 
L 319.356881 383.323164 
L 321.063303 382.676328 
L 322.769725 383.442116 
L 324.476147 384.356605 
L 326.182569 384.930579 
L 329.595413 385.393033 
L 331.301835 385.083735 
L 333.008257 385.025747 
L 334.714679 383.944717 
L 336.421101 383.396026 
L 338.127523 383.381151 
L 341.540367 384.591553 
L 343.246789 384.624268 
L 344.953211 383.416843 
L 346.659633 383.165543 
L 350.072477 382.349188 
L 351.778899 381.2295 
L 353.485321 379.892703 
L 355.191743 379.18788 
L 356.898165 378.750709 
L 362.017431 375.848132 
L 363.723853 374.48903 
L 367.136697 386.463655 
L 368.843119 372.092032 
L 370.549541 370.780519 
L 372.255963 368.973836 
L 373.962385 375.733635 
L 375.668807 372.842946 
L 377.375229 372.842946 
L 379.081651 341.084115 
L 380.788073 355.219312 
L 382.494495 352.985867 
L 384.200917 349.928647 
L 385.907339 338.352535 
L 387.613761 335.888618 
L 389.320183 335.888618 
L 391.026606 346.608229 
L 392.733028 345.330919 
L 394.43945 345.692251 
L 396.145872 357.192525 
L 397.852294 355.571724 
L 399.558716 341.780018 
L 401.265138 341.780018 
L 402.97156 348.682564 
L 404.677982 341.197124 
L 406.384404 342.684098 
L 408.090826 331.044045 
L 409.797248 330.710962 
L 411.50367 344.245424 
L 413.210092 330.850743 
L 414.916514 331.353333 
L 416.622936 332.919124 
L 418.329358 332.078985 
L 420.03578 333.393465 
L 421.742202 338.007555 
L 423.448624 338.037293 
L 425.155046 339.589698 
L 426.861468 339.136174 
L 428.56789 341.156977 
L 430.274312 343.002307 
L 431.980734 345.756193 
L 433.687156 354.672098 
L 435.393578 348.133862 
L 437.1 350.008941 
L 438.806422 353.904822 
L 440.512844 356.069859 
L 442.219266 360.936728 
L 443.925688 361.646017 
L 445.63211 351.852793 
L 447.338532 360.365731 
L 449.044954 360.514431 
L 450.751376 361.543417 
L 452.457798 360.782084 
L 454.16422 356.85201 
L 455.870642 357.528584 
L 457.577064 357.834895 
L 459.283486 360.203655 
L 460.989908 360.633383 
L 462.69633 360.200678 
L 464.402752 361.32632 
L 466.109174 367.632585 
L 467.815596 362.441554 
L 469.522018 362.785046 
L 471.22844 353.579171 
L 472.934862 362.967939 
L 476.347706 365.592454 
L 478.054128 360.518886 
L 479.76055 367.354524 
L 481.466972 371.946308 
L 483.173394 384.468135 
L 484.879817 379.610176 
L 486.586239 387.874791 
L 488.292661 385.726116 
L 489.999083 388.078512 
L 491.705505 388.262895 
L 493.411927 388.750621 
L 495.118349 389.517898 
L 496.824771 383.262189 
L 498.531193 378.380446 
L 500.237615 385.525371 
L 501.944037 384.078543 
L 503.650459 388.435379 
L 505.356881 383.925388 
L 507.063303 388.314939 
L 508.769725 395.447967 
L 510.476147 395.672496 
L 512.182569 393.700771 
L 513.888991 394.595931 
L 515.595413 389.775152 
L 519.008257 389.78705 
L 520.714679 388.949878 
L 522.421101 385.281503 
L 524.127523 389.929796 
L 525.833945 390.438341 
L 527.540367 392.399667 
L 529.246789 397.34683 
L 530.953211 393.382552 
L 532.659633 394.355039 
L 534.366055 399.226374 
L 536.072477 399.226374 
L 537.778899 401.990658 
L 539.485321 391.04503 
L 541.191743 390.295594 
L 542.898165 394.259871 
L 546.311009 393.696306 
L 548.017431 390.242061 
L 549.723853 388.466606 
L 551.430275 399.440494 
L 553.136697 399.97581 
L 554.843119 396.658358 
L 556.549541 397.205571 
L 559.962385 397.902963 
L 561.668807 397.809284 
L 563.375229 398.167639 
L 565.081651 401.996612 
L 568.494495 396.783264 
L 570.200917 400.127477 
L 571.907339 400.905163 
L 573.613761 401.455353 
L 575.320183 401.129702 
L 577.026606 401.129702 
L 580.43945 401.458319 
L 582.145872 398.243478 
L 583.852294 400.606283 
L 585.558716 400.326733 
L 587.265138 403.125221 
L 588.97156 397.965416 
L 590.677982 403.776523 
L 592.384404 404.127446 
L 594.090826 404.624093 
L 595.797248 402.804036 
L 597.50367 404.402531 
L 599.210092 400.374312 
L 600.916514 401.831549 
L 602.622936 401.831549 
L 606.03578 407.453808 
L 607.742202 403.281354 
L 609.448624 401.560919 
L 611.155046 405.589138 
L 612.861468 404.344543 
L 614.56789 404.344543 
L 616.274312 407.068681 
L 617.980734 397.489587 
L 619.687156 401.076169 
L 621.393578 401.372082 
L 623.1 398.876928 
L 623.1 398.876928 
" style="fill:none;stroke:#d3d4d9;stroke-linecap:square;stroke-width:2;"/>
   </g>
   <g id="patch_3">
    <path d="M 65.1 437.3688 
L 65.1 49.2888 
" style="fill:none;stroke:#000000;stroke-linecap:square;stroke-linejoin:miter;stroke-width:0.8;"/>
   </g>
   <g id="patch_4">
    <path d="M 623.1 437.3688 
L 623.1 49.2888 
" style="fill:none;stroke:#000000;stroke-linecap:square;stroke-linejoin:miter;stroke-width:0.8;"/>
   </g>
   <g id="patch_5">
    <path d="M 65.1 437.3688 
L 623.1 437.3688 
" style="fill:none;stroke:#000000;stroke-linecap:square;stroke-linejoin:miter;stroke-width:0.8;"/>
   </g>
   <g id="patch_6">
    <path d="M 65.1 49.2888 
L 623.1 49.2888 
" style="fill:none;stroke:#000000;stroke-linecap:square;stroke-linejoin:miter;stroke-width:0.8;"/>
   </g>
   <g id="text_21">
    <!-- Latest update:  -->
    <g style="fill:#252627;" transform="translate(47.1 491.690987)scale(0.1 -0.1)">
     <defs>
      <path d="M 9.8125 72.90625 
L 19.671875 72.90625 
L 19.671875 8.296875 
L 55.171875 8.296875 
L 55.171875 0 
L 9.8125 0 
z
" id="DejaVuSans-76"/>
      <path d="M 44.28125 53.078125 
L 44.28125 44.578125 
Q 40.484375 46.53125 36.375 47.5 
Q 32.28125 48.484375 27.875 48.484375 
Q 21.1875 48.484375 17.84375 46.4375 
Q 14.5 44.390625 14.5 40.28125 
Q 14.5 37.15625 16.890625 35.375 
Q 19.28125 33.59375 26.515625 31.984375 
L 29.59375 31.296875 
Q 39.15625 29.25 43.1875 25.515625 
Q 47.21875 21.78125 47.21875 15.09375 
Q 47.21875 7.46875 41.1875 3.015625 
Q 35.15625 -1.421875 24.609375 -1.421875 
Q 20.21875 -1.421875 15.453125 -0.5625 
Q 10.6875 0.296875 5.421875 2 
L 5.421875 11.28125 
Q 10.40625 8.6875 15.234375 7.390625 
Q 20.0625 6.109375 24.8125 6.109375 
Q 31.15625 6.109375 34.5625 8.28125 
Q 37.984375 10.453125 37.984375 14.40625 
Q 37.984375 18.0625 35.515625 20.015625 
Q 33.0625 21.96875 24.703125 23.78125 
L 21.578125 24.515625 
Q 13.234375 26.265625 9.515625 29.90625 
Q 5.8125 33.546875 5.8125 39.890625 
Q 5.8125 47.609375 11.28125 51.796875 
Q 16.75 56 26.8125 56 
Q 31.78125 56 36.171875 55.265625 
Q 40.578125 54.546875 44.28125 53.078125 
z
" id="DejaVuSans-115"/>
      <path id="DejaVuSans-32"/>
      <path d="M 11.71875 12.40625 
L 22.015625 12.40625 
L 22.015625 0 
L 11.71875 0 
z
M 11.71875 51.703125 
L 22.015625 51.703125 
L 22.015625 39.3125 
L 11.71875 39.3125 
z
" id="DejaVuSans-58"/>
     </defs>
     <use xlink:href="#DejaVuSans-76"/>
     <use x="55.712891" xlink:href="#DejaVuSans-97"/>
     <use x="116.992188" xlink:href="#DejaVuSans-116"/>
     <use x="156.201172" xlink:href="#DejaVuSans-101"/>
     <use x="217.724609" xlink:href="#DejaVuSans-115"/>
     <use x="269.824219" xlink:href="#DejaVuSans-116"/>
     <use x="309.033203" xlink:href="#DejaVuSans-32"/>
     <use x="340.820312" xlink:href="#DejaVuSans-117"/>
     <use x="404.199219" xlink:href="#DejaVuSans-112"/>
     <use x="467.675781" xlink:href="#DejaVuSans-100"/>
     <use x="531.152344" xlink:href="#DejaVuSans-97"/>
     <use x="592.431641" xlink:href="#DejaVuSans-116"/>
     <use x="631.640625" xlink:href="#DejaVuSans-101"/>
     <use x="693.164062" xlink:href="#DejaVuSans-58"/>
     <use x="726.855469" xlink:href="#DejaVuSans-32"/>
    </g>
    <!-- 24-12-2020 -->
    <g style="fill:#252627;" transform="translate(47.1 502.8888)scale(0.1 -0.1)">
     <defs>
      <path d="M 37.796875 64.3125 
L 12.890625 25.390625 
L 37.796875 25.390625 
z
M 35.203125 72.90625 
L 47.609375 72.90625 
L 47.609375 25.390625 
L 58.015625 25.390625 
L 58.015625 17.1875 
L 47.609375 17.1875 
L 47.609375 0 
L 37.796875 0 
L 37.796875 17.1875 
L 4.890625 17.1875 
L 4.890625 26.703125 
z
" id="DejaVuSans-52"/>
      <path d="M 4.890625 31.390625 
L 31.203125 31.390625 
L 31.203125 23.390625 
L 4.890625 23.390625 
z
" id="DejaVuSans-45"/>
     </defs>
     <use xlink:href="#DejaVuSans-50"/>
     <use x="63.623047" xlink:href="#DejaVuSans-52"/>
     <use x="127.246094" xlink:href="#DejaVuSans-45"/>
     <use x="163.330078" xlink:href="#DejaVuSans-49"/>
     <use x="226.953125" xlink:href="#DejaVuSans-50"/>
     <use x="290.576172" xlink:href="#DejaVuSans-45"/>
     <use x="326.660156" xlink:href="#DejaVuSans-50"/>
     <use x="390.283203" xlink:href="#DejaVuSans-48"/>
     <use x="453.90625" xlink:href="#DejaVuSans-50"/>
     <use x="517.529297" xlink:href="#DejaVuSans-48"/>
    </g>
   </g>
   <g id="text_22">
    <!-- Daily new cases - Since beginning -->
    <g style="fill:#252627;" transform="translate(180.3705 21.789)scale(0.192 -0.192)">
     <defs>
      <path d="M 9.421875 54.6875 
L 18.40625 54.6875 
L 18.40625 0 
L 9.421875 0 
z
M 9.421875 75.984375 
L 18.40625 75.984375 
L 18.40625 64.59375 
L 9.421875 64.59375 
z
" id="DejaVuSans-105"/>
      <path d="M 4.203125 54.6875 
L 13.1875 54.6875 
L 24.421875 12.015625 
L 35.59375 54.6875 
L 46.1875 54.6875 
L 57.421875 12.015625 
L 68.609375 54.6875 
L 77.59375 54.6875 
L 63.28125 0 
L 52.6875 0 
L 40.921875 44.828125 
L 29.109375 0 
L 18.5 0 
z
" id="DejaVuSans-119"/>
     </defs>
     <use xlink:href="#DejaVuSans-68"/>
     <use x="77.001953" xlink:href="#DejaVuSans-97"/>
     <use x="138.28125" xlink:href="#DejaVuSans-105"/>
     <use x="166.064453" xlink:href="#DejaVuSans-108"/>
     <use x="193.847656" xlink:href="#DejaVuSans-121"/>
     <use x="253.027344" xlink:href="#DejaVuSans-32"/>
     <use x="284.814453" xlink:href="#DejaVuSans-110"/>
     <use x="348.193359" xlink:href="#DejaVuSans-101"/>
     <use x="409.716797" xlink:href="#DejaVuSans-119"/>
     <use x="491.503906" xlink:href="#DejaVuSans-32"/>
     <use x="523.291016" xlink:href="#DejaVuSans-99"/>
     <use x="578.271484" xlink:href="#DejaVuSans-97"/>
     <use x="639.550781" xlink:href="#DejaVuSans-115"/>
     <use x="691.650391" xlink:href="#DejaVuSans-101"/>
     <use x="753.173828" xlink:href="#DejaVuSans-115"/>
     <use x="805.273438" xlink:href="#DejaVuSans-32"/>
     <use x="837.060547" xlink:href="#DejaVuSans-45"/>
     <use x="873.144531" xlink:href="#DejaVuSans-32"/>
     <use x="904.931641" xlink:href="#DejaVuSans-83"/>
     <use x="968.408203" xlink:href="#DejaVuSans-105"/>
     <use x="996.191406" xlink:href="#DejaVuSans-110"/>
     <use x="1059.570312" xlink:href="#DejaVuSans-99"/>
     <use x="1114.550781" xlink:href="#DejaVuSans-101"/>
     <use x="1176.074219" xlink:href="#DejaVuSans-32"/>
     <use x="1207.861328" xlink:href="#DejaVuSans-98"/>
     <use x="1271.337891" xlink:href="#DejaVuSans-101"/>
     <use x="1332.861328" xlink:href="#DejaVuSans-103"/>
     <use x="1396.337891" xlink:href="#DejaVuSans-105"/>
     <use x="1424.121094" xlink:href="#DejaVuSans-110"/>
     <use x="1487.5" xlink:href="#DejaVuSans-110"/>
     <use x="1550.878906" xlink:href="#DejaVuSans-105"/>
     <use x="1578.662109" xlink:href="#DejaVuSans-110"/>
     <use x="1642.041016" xlink:href="#DejaVuSans-103"/>
    </g>
    <!-- 7-day rolling average -->
    <g style="fill:#252627;" transform="translate(241.68 43.2888)scale(0.192 -0.192)">
     <defs>
      <path d="M 8.203125 72.90625 
L 55.078125 72.90625 
L 55.078125 68.703125 
L 28.609375 0 
L 18.3125 0 
L 43.21875 64.59375 
L 8.203125 64.59375 
z
" id="DejaVuSans-55"/>
     </defs>
     <use xlink:href="#DejaVuSans-55"/>
     <use x="63.623047" xlink:href="#DejaVuSans-45"/>
     <use x="99.707031" xlink:href="#DejaVuSans-100"/>
     <use x="163.183594" xlink:href="#DejaVuSans-97"/>
     <use x="224.462891" xlink:href="#DejaVuSans-121"/>
     <use x="283.642578" xlink:href="#DejaVuSans-32"/>
     <use x="315.429688" xlink:href="#DejaVuSans-114"/>
     <use x="354.292969" xlink:href="#DejaVuSans-111"/>
     <use x="415.474609" xlink:href="#DejaVuSans-108"/>
     <use x="443.257812" xlink:href="#DejaVuSans-108"/>
     <use x="471.041016" xlink:href="#DejaVuSans-105"/>
     <use x="498.824219" xlink:href="#DejaVuSans-110"/>
     <use x="562.203125" xlink:href="#DejaVuSans-103"/>
     <use x="625.679688" xlink:href="#DejaVuSans-32"/>
     <use x="657.466797" xlink:href="#DejaVuSans-97"/>
     <use x="718.746094" xlink:href="#DejaVuSans-118"/>
     <use x="777.925781" xlink:href="#DejaVuSans-101"/>
     <use x="839.449219" xlink:href="#DejaVuSans-114"/>
     <use x="880.5625" xlink:href="#DejaVuSans-97"/>
     <use x="941.841797" xlink:href="#DejaVuSans-103"/>
     <use x="1005.318359" xlink:href="#DejaVuSans-101"/>
    </g>
   </g>
   <g id="legend_1">
    <g id="patch_7">
     <path d="M 526.2075 132.5438 
L 611.9 132.5438 
Q 615.1 132.5438 615.1 129.3438 
L 615.1 60.4888 
Q 615.1 57.2888 611.9 57.2888 
L 526.2075 57.2888 
Q 523.0075 57.2888 523.0075 60.4888 
L 523.0075 129.3438 
Q 523.0075 132.5438 526.2075 132.5438 
z
" style="fill:#ffffff;opacity:0.2;stroke:#cccccc;stroke-linejoin:miter;"/>
    </g>
    <g id="line2d_71">
     <path d="M 529.4075 70.2463 
L 561.4075 70.2463 
" style="fill:none;stroke:#bb0a21;stroke-linecap:square;stroke-width:2;"/>
    </g>
    <g id="line2d_72"/>
    <g id="text_23">
     <!-- ESP -->
     <g style="fill:#252627;" transform="translate(574.2075 75.8463)scale(0.16 -0.16)">
      <defs>
       <path d="M 9.8125 72.90625 
L 55.90625 72.90625 
L 55.90625 64.59375 
L 19.671875 64.59375 
L 19.671875 43.015625 
L 54.390625 43.015625 
L 54.390625 34.71875 
L 19.671875 34.71875 
L 19.671875 8.296875 
L 56.78125 8.296875 
L 56.78125 0 
L 9.8125 0 
z
" id="DejaVuSans-69"/>
       <path d="M 19.671875 64.796875 
L 19.671875 37.40625 
L 32.078125 37.40625 
Q 38.96875 37.40625 42.71875 40.96875 
Q 46.484375 44.53125 46.484375 51.125 
Q 46.484375 57.671875 42.71875 61.234375 
Q 38.96875 64.796875 32.078125 64.796875 
z
M 9.8125 72.90625 
L 32.078125 72.90625 
Q 44.34375 72.90625 50.609375 67.359375 
Q 56.890625 61.8125 56.890625 51.125 
Q 56.890625 40.328125 50.609375 34.8125 
Q 44.34375 29.296875 32.078125 29.296875 
L 19.671875 29.296875 
L 19.671875 0 
L 9.8125 0 
z
" id="DejaVuSans-80"/>
      </defs>
      <use xlink:href="#DejaVuSans-69"/>
      <use x="63.183594" xlink:href="#DejaVuSans-83"/>
      <use x="126.660156" xlink:href="#DejaVuSans-80"/>
     </g>
    </g>
    <g id="line2d_73">
     <path d="M 529.4075 93.7313 
L 561.4075 93.7313 
" style="fill:none;stroke:#4b88a2;stroke-linecap:square;stroke-width:2;"/>
    </g>
    <g id="line2d_74"/>
    <g id="text_24">
     <!-- GBR -->
     <g style="fill:#252627;" transform="translate(574.2075 99.3313)scale(0.16 -0.16)">
      <defs>
       <path d="M 59.515625 10.40625 
L 59.515625 29.984375 
L 43.40625 29.984375 
L 43.40625 38.09375 
L 69.28125 38.09375 
L 69.28125 6.78125 
Q 63.578125 2.734375 56.6875 0.65625 
Q 49.8125 -1.421875 42 -1.421875 
Q 24.90625 -1.421875 15.25 8.5625 
Q 5.609375 18.5625 5.609375 36.375 
Q 5.609375 54.25 15.25 64.234375 
Q 24.90625 74.21875 42 74.21875 
Q 49.125 74.21875 55.546875 72.453125 
Q 61.96875 70.703125 67.390625 67.28125 
L 67.390625 56.78125 
Q 61.921875 61.421875 55.765625 63.765625 
Q 49.609375 66.109375 42.828125 66.109375 
Q 29.4375 66.109375 22.71875 58.640625 
Q 16.015625 51.171875 16.015625 36.375 
Q 16.015625 21.625 22.71875 14.15625 
Q 29.4375 6.6875 42.828125 6.6875 
Q 48.046875 6.6875 52.140625 7.59375 
Q 56.25 8.5 59.515625 10.40625 
z
" id="DejaVuSans-71"/>
       <path d="M 19.671875 34.8125 
L 19.671875 8.109375 
L 35.5 8.109375 
Q 43.453125 8.109375 47.28125 11.40625 
Q 51.125 14.703125 51.125 21.484375 
Q 51.125 28.328125 47.28125 31.5625 
Q 43.453125 34.8125 35.5 34.8125 
z
M 19.671875 64.796875 
L 19.671875 42.828125 
L 34.28125 42.828125 
Q 41.5 42.828125 45.03125 45.53125 
Q 48.578125 48.25 48.578125 53.8125 
Q 48.578125 59.328125 45.03125 62.0625 
Q 41.5 64.796875 34.28125 64.796875 
z
M 9.8125 72.90625 
L 35.015625 72.90625 
Q 46.296875 72.90625 52.390625 68.21875 
Q 58.5 63.53125 58.5 54.890625 
Q 58.5 48.1875 55.375 44.234375 
Q 52.25 40.28125 46.1875 39.3125 
Q 53.46875 37.75 57.5 32.78125 
Q 61.53125 27.828125 61.53125 20.40625 
Q 61.53125 10.640625 54.890625 5.3125 
Q 48.25 0 35.984375 0 
L 9.8125 0 
z
" id="DejaVuSans-66"/>
       <path d="M 44.390625 34.1875 
Q 47.5625 33.109375 50.5625 29.59375 
Q 53.5625 26.078125 56.59375 19.921875 
L 66.609375 0 
L 56 0 
L 46.6875 18.703125 
Q 43.0625 26.03125 39.671875 28.421875 
Q 36.28125 30.8125 30.421875 30.8125 
L 19.671875 30.8125 
L 19.671875 0 
L 9.8125 0 
L 9.8125 72.90625 
L 32.078125 72.90625 
Q 44.578125 72.90625 50.734375 67.671875 
Q 56.890625 62.453125 56.890625 51.90625 
Q 56.890625 45.015625 53.6875 40.46875 
Q 50.484375 35.9375 44.390625 34.1875 
z
M 19.671875 64.796875 
L 19.671875 38.921875 
L 32.078125 38.921875 
Q 39.203125 38.921875 42.84375 42.21875 
Q 46.484375 45.515625 46.484375 51.90625 
Q 46.484375 58.296875 42.84375 61.546875 
Q 39.203125 64.796875 32.078125 64.796875 
z
" id="DejaVuSans-82"/>
      </defs>
      <use xlink:href="#DejaVuSans-71"/>
      <use x="77.490234" xlink:href="#DejaVuSans-66"/>
      <use x="146.09375" xlink:href="#DejaVuSans-82"/>
     </g>
    </g>
    <g id="line2d_75">
     <path d="M 529.4075 117.2163 
L 561.4075 117.2163 
" style="fill:none;stroke:#d3d4d9;stroke-linecap:square;stroke-width:2;"/>
    </g>
    <g id="line2d_76"/>
    <g id="text_25">
     <!-- PER -->
     <g style="fill:#252627;" transform="translate(574.2075 122.8163)scale(0.16 -0.16)">
      <use xlink:href="#DejaVuSans-80"/>
      <use x="60.302734" xlink:href="#DejaVuSans-69"/>
      <use x="123.486328" xlink:href="#DejaVuSans-82"/>
     </g>
    </g>
   </g>
  </g>
 </g>
 <defs>
  <clipPath id="p59a43eec9c">
   <rect height="388.08" width="558" x="65.1" y="49.2888"/>
  </clipPath>
 </defs>
</svg>
