<?xml version="1.0" encoding="utf-8" standalone="no"?>
<!DOCTYPE svg PUBLIC "-//W3C//DTD SVG 1.1//EN"
  "http://www.w3.org/Graphics/SVG/1.1/DTD/svg11.dtd">
<!-- Created with matplotlib (https://matplotlib.org/) -->
<svg height="512.168487pt" version="1.1" viewBox="0 0 630.3 512.168487" width="630.3pt" xmlns="http://www.w3.org/2000/svg" xmlns:xlink="http://www.w3.org/1999/xlink">
 <metadata>
  <rdf:RDF xmlns:cc="http://creativecommons.org/ns#" xmlns:dc="http://purl.org/dc/elements/1.1/" xmlns:rdf="http://www.w3.org/1999/02/22-rdf-syntax-ns#">
   <cc:Work>
    <dc:type rdf:resource="http://purl.org/dc/dcmitype/StillImage"/>
    <dc:date>2020-10-01T09:00:11.698389</dc:date>
    <dc:format>image/svg+xml</dc:format>
    <dc:creator>
     <cc:Agent>
      <dc:title>Matplotlib v3.3.1, https://matplotlib.org/</dc:title>
     </cc:Agent>
    </dc:creator>
   </cc:Work>
  </rdf:RDF>
 </metadata>
 <defs>
  <style type="text/css">*{stroke-linecap:butt;stroke-linejoin:round;}</style>
 </defs>
 <g id="figure_1">
  <g id="patch_1">
   <path d="M 0 512.168487 
L 630.3 512.168487 
L 630.3 0 
L 0 0 
z
" style="fill:none;"/>
  </g>
  <g id="axes_1">
   <g id="patch_2">
    <path d="M 65.1 437.3688 
L 623.1 437.3688 
L 623.1 49.2888 
L 65.1 49.2888 
z
" style="fill:none;"/>
   </g>
   <g id="matplotlib.axis_1">
    <g id="xtick_1">
     <g id="line2d_1">
      <defs>
       <path d="M 0 0 
L 0 3.5 
" id="mbf5b2b6825" style="stroke:#252627;stroke-width:0.8;"/>
      </defs>
      <g>
       <use style="fill:#252627;stroke:#252627;stroke-width:0.8;" x="65.1" xlink:href="#mbf5b2b6825" y="437.3688"/>
      </g>
     </g>
    </g>
    <g id="xtick_2">
     <g id="line2d_2">
      <g>
       <use style="fill:#252627;stroke:#252627;stroke-width:0.8;" x="67.136496" xlink:href="#mbf5b2b6825" y="437.3688"/>
      </g>
     </g>
     <g id="text_1">
      <!-- Jan -->
      <g style="fill:#252627;" transform="translate(54.803996 456.5263)scale(0.16 -0.16)">
       <defs>
        <path d="M 9.8125 72.90625 
L 19.671875 72.90625 
L 19.671875 5.078125 
Q 19.671875 -8.109375 14.671875 -14.0625 
Q 9.671875 -20.015625 -1.421875 -20.015625 
L -5.171875 -20.015625 
L -5.171875 -11.71875 
L -2.09375 -11.71875 
Q 4.4375 -11.71875 7.125 -8.046875 
Q 9.8125 -4.390625 9.8125 5.078125 
z
" id="DejaVuSans-74"/>
        <path d="M 34.28125 27.484375 
Q 23.390625 27.484375 19.1875 25 
Q 14.984375 22.515625 14.984375 16.5 
Q 14.984375 11.71875 18.140625 8.90625 
Q 21.296875 6.109375 26.703125 6.109375 
Q 34.1875 6.109375 38.703125 11.40625 
Q 43.21875 16.703125 43.21875 25.484375 
L 43.21875 27.484375 
z
M 52.203125 31.203125 
L 52.203125 0 
L 43.21875 0 
L 43.21875 8.296875 
Q 40.140625 3.328125 35.546875 0.953125 
Q 30.953125 -1.421875 24.3125 -1.421875 
Q 15.921875 -1.421875 10.953125 3.296875 
Q 6 8.015625 6 15.921875 
Q 6 25.140625 12.171875 29.828125 
Q 18.359375 34.515625 30.609375 34.515625 
L 43.21875 34.515625 
L 43.21875 35.40625 
Q 43.21875 41.609375 39.140625 45 
Q 35.0625 48.390625 27.6875 48.390625 
Q 23 48.390625 18.546875 47.265625 
Q 14.109375 46.140625 10.015625 43.890625 
L 10.015625 52.203125 
Q 14.9375 54.109375 19.578125 55.046875 
Q 24.21875 56 28.609375 56 
Q 40.484375 56 46.34375 49.84375 
Q 52.203125 43.703125 52.203125 31.203125 
z
" id="DejaVuSans-97"/>
        <path d="M 54.890625 33.015625 
L 54.890625 0 
L 45.90625 0 
L 45.90625 32.71875 
Q 45.90625 40.484375 42.875 44.328125 
Q 39.84375 48.1875 33.796875 48.1875 
Q 26.515625 48.1875 22.3125 43.546875 
Q 18.109375 38.921875 18.109375 30.90625 
L 18.109375 0 
L 9.078125 0 
L 9.078125 54.6875 
L 18.109375 54.6875 
L 18.109375 46.1875 
Q 21.34375 51.125 25.703125 53.5625 
Q 30.078125 56 35.796875 56 
Q 45.21875 56 50.046875 50.171875 
Q 54.890625 44.34375 54.890625 33.015625 
z
" id="DejaVuSans-110"/>
       </defs>
       <use xlink:href="#DejaVuSans-74"/>
       <use x="29.492188" xlink:href="#DejaVuSans-97"/>
       <use x="90.771484" xlink:href="#DejaVuSans-110"/>
      </g>
      <!-- 2020 -->
      <g style="fill:#252627;" transform="translate(46.776496 474.4428)scale(0.16 -0.16)">
       <defs>
        <path d="M 19.1875 8.296875 
L 53.609375 8.296875 
L 53.609375 0 
L 7.328125 0 
L 7.328125 8.296875 
Q 12.9375 14.109375 22.625 23.890625 
Q 32.328125 33.6875 34.8125 36.53125 
Q 39.546875 41.84375 41.421875 45.53125 
Q 43.3125 49.21875 43.3125 52.78125 
Q 43.3125 58.59375 39.234375 62.25 
Q 35.15625 65.921875 28.609375 65.921875 
Q 23.96875 65.921875 18.8125 64.3125 
Q 13.671875 62.703125 7.8125 59.421875 
L 7.8125 69.390625 
Q 13.765625 71.78125 18.9375 73 
Q 24.125 74.21875 28.421875 74.21875 
Q 39.75 74.21875 46.484375 68.546875 
Q 53.21875 62.890625 53.21875 53.421875 
Q 53.21875 48.921875 51.53125 44.890625 
Q 49.859375 40.875 45.40625 35.40625 
Q 44.1875 33.984375 37.640625 27.21875 
Q 31.109375 20.453125 19.1875 8.296875 
z
" id="DejaVuSans-50"/>
        <path d="M 31.78125 66.40625 
Q 24.171875 66.40625 20.328125 58.90625 
Q 16.5 51.421875 16.5 36.375 
Q 16.5 21.390625 20.328125 13.890625 
Q 24.171875 6.390625 31.78125 6.390625 
Q 39.453125 6.390625 43.28125 13.890625 
Q 47.125 21.390625 47.125 36.375 
Q 47.125 51.421875 43.28125 58.90625 
Q 39.453125 66.40625 31.78125 66.40625 
z
M 31.78125 74.21875 
Q 44.046875 74.21875 50.515625 64.515625 
Q 56.984375 54.828125 56.984375 36.375 
Q 56.984375 17.96875 50.515625 8.265625 
Q 44.046875 -1.421875 31.78125 -1.421875 
Q 19.53125 -1.421875 13.0625 8.265625 
Q 6.59375 17.96875 6.59375 36.375 
Q 6.59375 54.828125 13.0625 64.515625 
Q 19.53125 74.21875 31.78125 74.21875 
z
" id="DejaVuSans-48"/>
       </defs>
       <use xlink:href="#DejaVuSans-50"/>
       <use x="63.623047" xlink:href="#DejaVuSans-48"/>
       <use x="127.246094" xlink:href="#DejaVuSans-50"/>
       <use x="190.869141" xlink:href="#DejaVuSans-48"/>
      </g>
     </g>
    </g>
    <g id="xtick_3">
     <g id="line2d_3">
      <g>
       <use style="fill:#252627;stroke:#252627;stroke-width:0.8;" x="130.267883" xlink:href="#mbf5b2b6825" y="437.3688"/>
      </g>
     </g>
     <g id="text_2">
      <!-- Feb -->
      <g style="fill:#252627;" transform="translate(116.105383 456.5263)scale(0.16 -0.16)">
       <defs>
        <path d="M 9.8125 72.90625 
L 51.703125 72.90625 
L 51.703125 64.59375 
L 19.671875 64.59375 
L 19.671875 43.109375 
L 48.578125 43.109375 
L 48.578125 34.8125 
L 19.671875 34.8125 
L 19.671875 0 
L 9.8125 0 
z
" id="DejaVuSans-70"/>
        <path d="M 56.203125 29.59375 
L 56.203125 25.203125 
L 14.890625 25.203125 
Q 15.484375 15.921875 20.484375 11.0625 
Q 25.484375 6.203125 34.421875 6.203125 
Q 39.59375 6.203125 44.453125 7.46875 
Q 49.3125 8.734375 54.109375 11.28125 
L 54.109375 2.78125 
Q 49.265625 0.734375 44.1875 -0.34375 
Q 39.109375 -1.421875 33.890625 -1.421875 
Q 20.796875 -1.421875 13.15625 6.1875 
Q 5.515625 13.8125 5.515625 26.8125 
Q 5.515625 40.234375 12.765625 48.109375 
Q 20.015625 56 32.328125 56 
Q 43.359375 56 49.78125 48.890625 
Q 56.203125 41.796875 56.203125 29.59375 
z
M 47.21875 32.234375 
Q 47.125 39.59375 43.09375 43.984375 
Q 39.0625 48.390625 32.421875 48.390625 
Q 24.90625 48.390625 20.390625 44.140625 
Q 15.875 39.890625 15.1875 32.171875 
z
" id="DejaVuSans-101"/>
        <path d="M 48.6875 27.296875 
Q 48.6875 37.203125 44.609375 42.84375 
Q 40.53125 48.484375 33.40625 48.484375 
Q 26.265625 48.484375 22.1875 42.84375 
Q 18.109375 37.203125 18.109375 27.296875 
Q 18.109375 17.390625 22.1875 11.75 
Q 26.265625 6.109375 33.40625 6.109375 
Q 40.53125 6.109375 44.609375 11.75 
Q 48.6875 17.390625 48.6875 27.296875 
z
M 18.109375 46.390625 
Q 20.953125 51.265625 25.265625 53.625 
Q 29.59375 56 35.59375 56 
Q 45.5625 56 51.78125 48.09375 
Q 58.015625 40.1875 58.015625 27.296875 
Q 58.015625 14.40625 51.78125 6.484375 
Q 45.5625 -1.421875 35.59375 -1.421875 
Q 29.59375 -1.421875 25.265625 0.953125 
Q 20.953125 3.328125 18.109375 8.203125 
L 18.109375 0 
L 9.078125 0 
L 9.078125 75.984375 
L 18.109375 75.984375 
z
" id="DejaVuSans-98"/>
       </defs>
       <use xlink:href="#DejaVuSans-70"/>
       <use x="52.019531" xlink:href="#DejaVuSans-101"/>
       <use x="113.542969" xlink:href="#DejaVuSans-98"/>
      </g>
     </g>
    </g>
    <g id="xtick_4">
     <g id="line2d_4">
      <g>
       <use style="fill:#252627;stroke:#252627;stroke-width:0.8;" x="189.326277" xlink:href="#mbf5b2b6825" y="437.3688"/>
      </g>
     </g>
     <g id="text_3">
      <!-- Mar -->
      <g style="fill:#252627;" transform="translate(174.232527 456.5263)scale(0.16 -0.16)">
       <defs>
        <path d="M 9.8125 72.90625 
L 24.515625 72.90625 
L 43.109375 23.296875 
L 61.8125 72.90625 
L 76.515625 72.90625 
L 76.515625 0 
L 66.890625 0 
L 66.890625 64.015625 
L 48.09375 14.015625 
L 38.1875 14.015625 
L 19.390625 64.015625 
L 19.390625 0 
L 9.8125 0 
z
" id="DejaVuSans-77"/>
        <path d="M 41.109375 46.296875 
Q 39.59375 47.171875 37.8125 47.578125 
Q 36.03125 48 33.890625 48 
Q 26.265625 48 22.1875 43.046875 
Q 18.109375 38.09375 18.109375 28.8125 
L 18.109375 0 
L 9.078125 0 
L 9.078125 54.6875 
L 18.109375 54.6875 
L 18.109375 46.1875 
Q 20.953125 51.171875 25.484375 53.578125 
Q 30.03125 56 36.53125 56 
Q 37.453125 56 38.578125 55.875 
Q 39.703125 55.765625 41.0625 55.515625 
z
" id="DejaVuSans-114"/>
       </defs>
       <use xlink:href="#DejaVuSans-77"/>
       <use x="86.279297" xlink:href="#DejaVuSans-97"/>
       <use x="147.558594" xlink:href="#DejaVuSans-114"/>
      </g>
     </g>
    </g>
    <g id="xtick_5">
     <g id="line2d_5">
      <g>
       <use style="fill:#252627;stroke:#252627;stroke-width:0.8;" x="252.457664" xlink:href="#mbf5b2b6825" y="437.3688"/>
      </g>
     </g>
     <g id="text_4">
      <!-- Apr -->
      <g style="fill:#252627;" transform="translate(238.617664 456.5263)scale(0.16 -0.16)">
       <defs>
        <path d="M 34.1875 63.1875 
L 20.796875 26.90625 
L 47.609375 26.90625 
z
M 28.609375 72.90625 
L 39.796875 72.90625 
L 67.578125 0 
L 57.328125 0 
L 50.6875 18.703125 
L 17.828125 18.703125 
L 11.1875 0 
L 0.78125 0 
z
" id="DejaVuSans-65"/>
        <path d="M 18.109375 8.203125 
L 18.109375 -20.796875 
L 9.078125 -20.796875 
L 9.078125 54.6875 
L 18.109375 54.6875 
L 18.109375 46.390625 
Q 20.953125 51.265625 25.265625 53.625 
Q 29.59375 56 35.59375 56 
Q 45.5625 56 51.78125 48.09375 
Q 58.015625 40.1875 58.015625 27.296875 
Q 58.015625 14.40625 51.78125 6.484375 
Q 45.5625 -1.421875 35.59375 -1.421875 
Q 29.59375 -1.421875 25.265625 0.953125 
Q 20.953125 3.328125 18.109375 8.203125 
z
M 48.6875 27.296875 
Q 48.6875 37.203125 44.609375 42.84375 
Q 40.53125 48.484375 33.40625 48.484375 
Q 26.265625 48.484375 22.1875 42.84375 
Q 18.109375 37.203125 18.109375 27.296875 
Q 18.109375 17.390625 22.1875 11.75 
Q 26.265625 6.109375 33.40625 6.109375 
Q 40.53125 6.109375 44.609375 11.75 
Q 48.6875 17.390625 48.6875 27.296875 
z
" id="DejaVuSans-112"/>
       </defs>
       <use xlink:href="#DejaVuSans-65"/>
       <use x="68.408203" xlink:href="#DejaVuSans-112"/>
       <use x="131.884766" xlink:href="#DejaVuSans-114"/>
      </g>
     </g>
    </g>
    <g id="xtick_6">
     <g id="line2d_6">
      <g>
       <use style="fill:#252627;stroke:#252627;stroke-width:0.8;" x="313.552555" xlink:href="#mbf5b2b6825" y="437.3688"/>
      </g>
     </g>
     <g id="text_5">
      <!-- May -->
      <g style="fill:#252627;" transform="translate(297.012555 456.5263)scale(0.16 -0.16)">
       <defs>
        <path d="M 32.171875 -5.078125 
Q 28.375 -14.84375 24.75 -17.8125 
Q 21.140625 -20.796875 15.09375 -20.796875 
L 7.90625 -20.796875 
L 7.90625 -13.28125 
L 13.1875 -13.28125 
Q 16.890625 -13.28125 18.9375 -11.515625 
Q 21 -9.765625 23.484375 -3.21875 
L 25.09375 0.875 
L 2.984375 54.6875 
L 12.5 54.6875 
L 29.59375 11.921875 
L 46.6875 54.6875 
L 56.203125 54.6875 
z
" id="DejaVuSans-121"/>
       </defs>
       <use xlink:href="#DejaVuSans-77"/>
       <use x="86.279297" xlink:href="#DejaVuSans-97"/>
       <use x="147.558594" xlink:href="#DejaVuSans-121"/>
      </g>
     </g>
    </g>
    <g id="xtick_7">
     <g id="line2d_7">
      <g>
       <use style="fill:#252627;stroke:#252627;stroke-width:0.8;" x="376.683942" xlink:href="#mbf5b2b6825" y="437.3688"/>
      </g>
     </g>
     <g id="text_6">
      <!-- Jun -->
      <g style="fill:#252627;" transform="translate(364.183942 456.5263)scale(0.16 -0.16)">
       <defs>
        <path d="M 8.5 21.578125 
L 8.5 54.6875 
L 17.484375 54.6875 
L 17.484375 21.921875 
Q 17.484375 14.15625 20.5 10.265625 
Q 23.53125 6.390625 29.59375 6.390625 
Q 36.859375 6.390625 41.078125 11.03125 
Q 45.3125 15.671875 45.3125 23.6875 
L 45.3125 54.6875 
L 54.296875 54.6875 
L 54.296875 0 
L 45.3125 0 
L 45.3125 8.40625 
Q 42.046875 3.421875 37.71875 1 
Q 33.40625 -1.421875 27.6875 -1.421875 
Q 18.265625 -1.421875 13.375 4.4375 
Q 8.5 10.296875 8.5 21.578125 
z
M 31.109375 56 
z
" id="DejaVuSans-117"/>
       </defs>
       <use xlink:href="#DejaVuSans-74"/>
       <use x="29.492188" xlink:href="#DejaVuSans-117"/>
       <use x="92.871094" xlink:href="#DejaVuSans-110"/>
      </g>
     </g>
    </g>
    <g id="xtick_8">
     <g id="line2d_8">
      <g>
       <use style="fill:#252627;stroke:#252627;stroke-width:0.8;" x="437.778832" xlink:href="#mbf5b2b6825" y="437.3688"/>
      </g>
     </g>
     <g id="text_7">
      <!-- Jul -->
      <g style="fill:#252627;" transform="translate(428.126332 456.5263)scale(0.16 -0.16)">
       <defs>
        <path d="M 9.421875 75.984375 
L 18.40625 75.984375 
L 18.40625 0 
L 9.421875 0 
z
" id="DejaVuSans-108"/>
       </defs>
       <use xlink:href="#DejaVuSans-74"/>
       <use x="29.492188" xlink:href="#DejaVuSans-117"/>
       <use x="92.871094" xlink:href="#DejaVuSans-108"/>
      </g>
     </g>
    </g>
    <g id="xtick_9">
     <g id="line2d_9">
      <g>
       <use style="fill:#252627;stroke:#252627;stroke-width:0.8;" x="500.910219" xlink:href="#mbf5b2b6825" y="437.3688"/>
      </g>
     </g>
     <g id="text_8">
      <!-- Aug -->
      <g style="fill:#252627;" transform="translate(485.288969 456.5263)scale(0.16 -0.16)">
       <defs>
        <path d="M 45.40625 27.984375 
Q 45.40625 37.75 41.375 43.109375 
Q 37.359375 48.484375 30.078125 48.484375 
Q 22.859375 48.484375 18.828125 43.109375 
Q 14.796875 37.75 14.796875 27.984375 
Q 14.796875 18.265625 18.828125 12.890625 
Q 22.859375 7.515625 30.078125 7.515625 
Q 37.359375 7.515625 41.375 12.890625 
Q 45.40625 18.265625 45.40625 27.984375 
z
M 54.390625 6.78125 
Q 54.390625 -7.171875 48.1875 -13.984375 
Q 42 -20.796875 29.203125 -20.796875 
Q 24.46875 -20.796875 20.265625 -20.09375 
Q 16.0625 -19.390625 12.109375 -17.921875 
L 12.109375 -9.1875 
Q 16.0625 -11.328125 19.921875 -12.34375 
Q 23.78125 -13.375 27.78125 -13.375 
Q 36.625 -13.375 41.015625 -8.765625 
Q 45.40625 -4.15625 45.40625 5.171875 
L 45.40625 9.625 
Q 42.625 4.78125 38.28125 2.390625 
Q 33.9375 0 27.875 0 
Q 17.828125 0 11.671875 7.65625 
Q 5.515625 15.328125 5.515625 27.984375 
Q 5.515625 40.671875 11.671875 48.328125 
Q 17.828125 56 27.875 56 
Q 33.9375 56 38.28125 53.609375 
Q 42.625 51.21875 45.40625 46.390625 
L 45.40625 54.6875 
L 54.390625 54.6875 
z
" id="DejaVuSans-103"/>
       </defs>
       <use xlink:href="#DejaVuSans-65"/>
       <use x="68.408203" xlink:href="#DejaVuSans-117"/>
       <use x="131.787109" xlink:href="#DejaVuSans-103"/>
      </g>
     </g>
    </g>
    <g id="xtick_10">
     <g id="line2d_10">
      <g>
       <use style="fill:#252627;stroke:#252627;stroke-width:0.8;" x="564.041606" xlink:href="#mbf5b2b6825" y="437.3688"/>
      </g>
     </g>
     <g id="text_9">
      <!-- Sep -->
      <g style="fill:#252627;" transform="translate(548.961606 456.5263)scale(0.16 -0.16)">
       <defs>
        <path d="M 53.515625 70.515625 
L 53.515625 60.890625 
Q 47.90625 63.578125 42.921875 64.890625 
Q 37.9375 66.21875 33.296875 66.21875 
Q 25.25 66.21875 20.875 63.09375 
Q 16.5 59.96875 16.5 54.203125 
Q 16.5 49.359375 19.40625 46.890625 
Q 22.3125 44.4375 30.421875 42.921875 
L 36.375 41.703125 
Q 47.40625 39.59375 52.65625 34.296875 
Q 57.90625 29 57.90625 20.125 
Q 57.90625 9.515625 50.796875 4.046875 
Q 43.703125 -1.421875 29.984375 -1.421875 
Q 24.8125 -1.421875 18.96875 -0.25 
Q 13.140625 0.921875 6.890625 3.21875 
L 6.890625 13.375 
Q 12.890625 10.015625 18.65625 8.296875 
Q 24.421875 6.59375 29.984375 6.59375 
Q 38.421875 6.59375 43.015625 9.90625 
Q 47.609375 13.234375 47.609375 19.390625 
Q 47.609375 24.75 44.3125 27.78125 
Q 41.015625 30.8125 33.5 32.328125 
L 27.484375 33.5 
Q 16.453125 35.6875 11.515625 40.375 
Q 6.59375 45.0625 6.59375 53.421875 
Q 6.59375 63.09375 13.40625 68.65625 
Q 20.21875 74.21875 32.171875 74.21875 
Q 37.3125 74.21875 42.625 73.28125 
Q 47.953125 72.359375 53.515625 70.515625 
z
" id="DejaVuSans-83"/>
       </defs>
       <use xlink:href="#DejaVuSans-83"/>
       <use x="63.476562" xlink:href="#DejaVuSans-101"/>
       <use x="125" xlink:href="#DejaVuSans-112"/>
      </g>
     </g>
    </g>
    <g id="xtick_11">
     <g id="line2d_11">
      <g>
       <use style="fill:#252627;stroke:#252627;stroke-width:0.8;" x="623.1" xlink:href="#mbf5b2b6825" y="437.3688"/>
      </g>
     </g>
    </g>
    <g id="xtick_12">
     <g id="line2d_12">
      <defs>
       <path d="M 0 0 
L 0 2 
" id="md24c25a41f" style="stroke:#252627;stroke-width:0.6;"/>
      </defs>
      <g>
       <use style="fill:#252627;stroke:#252627;stroke-width:0.6;" x="77.318978" xlink:href="#md24c25a41f" y="437.3688"/>
      </g>
     </g>
    </g>
    <g id="xtick_13">
     <g id="line2d_13">
      <g>
       <use style="fill:#252627;stroke:#252627;stroke-width:0.6;" x="91.574453" xlink:href="#md24c25a41f" y="437.3688"/>
      </g>
     </g>
    </g>
    <g id="xtick_14">
     <g id="line2d_14">
      <g>
       <use style="fill:#252627;stroke:#252627;stroke-width:0.6;" x="105.829927" xlink:href="#md24c25a41f" y="437.3688"/>
      </g>
     </g>
    </g>
    <g id="xtick_15">
     <g id="line2d_15">
      <g>
       <use style="fill:#252627;stroke:#252627;stroke-width:0.6;" x="120.085401" xlink:href="#md24c25a41f" y="437.3688"/>
      </g>
     </g>
    </g>
    <g id="xtick_16">
     <g id="line2d_16">
      <g>
       <use style="fill:#252627;stroke:#252627;stroke-width:0.6;" x="134.340876" xlink:href="#md24c25a41f" y="437.3688"/>
      </g>
     </g>
    </g>
    <g id="xtick_17">
     <g id="line2d_17">
      <g>
       <use style="fill:#252627;stroke:#252627;stroke-width:0.6;" x="148.59635" xlink:href="#md24c25a41f" y="437.3688"/>
      </g>
     </g>
    </g>
    <g id="xtick_18">
     <g id="line2d_18">
      <g>
       <use style="fill:#252627;stroke:#252627;stroke-width:0.6;" x="162.851825" xlink:href="#md24c25a41f" y="437.3688"/>
      </g>
     </g>
    </g>
    <g id="xtick_19">
     <g id="line2d_19">
      <g>
       <use style="fill:#252627;stroke:#252627;stroke-width:0.6;" x="177.107299" xlink:href="#md24c25a41f" y="437.3688"/>
      </g>
     </g>
    </g>
    <g id="xtick_20">
     <g id="line2d_20">
      <g>
       <use style="fill:#252627;stroke:#252627;stroke-width:0.6;" x="191.362774" xlink:href="#md24c25a41f" y="437.3688"/>
      </g>
     </g>
    </g>
    <g id="xtick_21">
     <g id="line2d_21">
      <g>
       <use style="fill:#252627;stroke:#252627;stroke-width:0.6;" x="205.618248" xlink:href="#md24c25a41f" y="437.3688"/>
      </g>
     </g>
    </g>
    <g id="xtick_22">
     <g id="line2d_22">
      <g>
       <use style="fill:#252627;stroke:#252627;stroke-width:0.6;" x="219.873723" xlink:href="#md24c25a41f" y="437.3688"/>
      </g>
     </g>
    </g>
    <g id="xtick_23">
     <g id="line2d_23">
      <g>
       <use style="fill:#252627;stroke:#252627;stroke-width:0.6;" x="234.129197" xlink:href="#md24c25a41f" y="437.3688"/>
      </g>
     </g>
    </g>
    <g id="xtick_24">
     <g id="line2d_24">
      <g>
       <use style="fill:#252627;stroke:#252627;stroke-width:0.6;" x="248.384672" xlink:href="#md24c25a41f" y="437.3688"/>
      </g>
     </g>
    </g>
    <g id="xtick_25">
     <g id="line2d_25">
      <g>
       <use style="fill:#252627;stroke:#252627;stroke-width:0.6;" x="262.640146" xlink:href="#md24c25a41f" y="437.3688"/>
      </g>
     </g>
    </g>
    <g id="xtick_26">
     <g id="line2d_26">
      <g>
       <use style="fill:#252627;stroke:#252627;stroke-width:0.6;" x="276.89562" xlink:href="#md24c25a41f" y="437.3688"/>
      </g>
     </g>
    </g>
    <g id="xtick_27">
     <g id="line2d_27">
      <g>
       <use style="fill:#252627;stroke:#252627;stroke-width:0.6;" x="291.151095" xlink:href="#md24c25a41f" y="437.3688"/>
      </g>
     </g>
    </g>
    <g id="xtick_28">
     <g id="line2d_28">
      <g>
       <use style="fill:#252627;stroke:#252627;stroke-width:0.6;" x="305.406569" xlink:href="#md24c25a41f" y="437.3688"/>
      </g>
     </g>
    </g>
    <g id="xtick_29">
     <g id="line2d_29">
      <g>
       <use style="fill:#252627;stroke:#252627;stroke-width:0.6;" x="319.662044" xlink:href="#md24c25a41f" y="437.3688"/>
      </g>
     </g>
    </g>
    <g id="xtick_30">
     <g id="line2d_30">
      <g>
       <use style="fill:#252627;stroke:#252627;stroke-width:0.6;" x="333.917518" xlink:href="#md24c25a41f" y="437.3688"/>
      </g>
     </g>
    </g>
    <g id="xtick_31">
     <g id="line2d_31">
      <g>
       <use style="fill:#252627;stroke:#252627;stroke-width:0.6;" x="348.172993" xlink:href="#md24c25a41f" y="437.3688"/>
      </g>
     </g>
    </g>
    <g id="xtick_32">
     <g id="line2d_32">
      <g>
       <use style="fill:#252627;stroke:#252627;stroke-width:0.6;" x="362.428467" xlink:href="#md24c25a41f" y="437.3688"/>
      </g>
     </g>
    </g>
    <g id="xtick_33">
     <g id="line2d_33">
      <g>
       <use style="fill:#252627;stroke:#252627;stroke-width:0.6;" x="390.939416" xlink:href="#md24c25a41f" y="437.3688"/>
      </g>
     </g>
    </g>
    <g id="xtick_34">
     <g id="line2d_34">
      <g>
       <use style="fill:#252627;stroke:#252627;stroke-width:0.6;" x="405.194891" xlink:href="#md24c25a41f" y="437.3688"/>
      </g>
     </g>
    </g>
    <g id="xtick_35">
     <g id="line2d_35">
      <g>
       <use style="fill:#252627;stroke:#252627;stroke-width:0.6;" x="419.450365" xlink:href="#md24c25a41f" y="437.3688"/>
      </g>
     </g>
    </g>
    <g id="xtick_36">
     <g id="line2d_36">
      <g>
       <use style="fill:#252627;stroke:#252627;stroke-width:0.6;" x="433.705839" xlink:href="#md24c25a41f" y="437.3688"/>
      </g>
     </g>
    </g>
    <g id="xtick_37">
     <g id="line2d_37">
      <g>
       <use style="fill:#252627;stroke:#252627;stroke-width:0.6;" x="447.961314" xlink:href="#md24c25a41f" y="437.3688"/>
      </g>
     </g>
    </g>
    <g id="xtick_38">
     <g id="line2d_38">
      <g>
       <use style="fill:#252627;stroke:#252627;stroke-width:0.6;" x="462.216788" xlink:href="#md24c25a41f" y="437.3688"/>
      </g>
     </g>
    </g>
    <g id="xtick_39">
     <g id="line2d_39">
      <g>
       <use style="fill:#252627;stroke:#252627;stroke-width:0.6;" x="476.472263" xlink:href="#md24c25a41f" y="437.3688"/>
      </g>
     </g>
    </g>
    <g id="xtick_40">
     <g id="line2d_40">
      <g>
       <use style="fill:#252627;stroke:#252627;stroke-width:0.6;" x="490.727737" xlink:href="#md24c25a41f" y="437.3688"/>
      </g>
     </g>
    </g>
    <g id="xtick_41">
     <g id="line2d_41">
      <g>
       <use style="fill:#252627;stroke:#252627;stroke-width:0.6;" x="504.983212" xlink:href="#md24c25a41f" y="437.3688"/>
      </g>
     </g>
    </g>
    <g id="xtick_42">
     <g id="line2d_42">
      <g>
       <use style="fill:#252627;stroke:#252627;stroke-width:0.6;" x="519.238686" xlink:href="#md24c25a41f" y="437.3688"/>
      </g>
     </g>
    </g>
    <g id="xtick_43">
     <g id="line2d_43">
      <g>
       <use style="fill:#252627;stroke:#252627;stroke-width:0.6;" x="533.494161" xlink:href="#md24c25a41f" y="437.3688"/>
      </g>
     </g>
    </g>
    <g id="xtick_44">
     <g id="line2d_44">
      <g>
       <use style="fill:#252627;stroke:#252627;stroke-width:0.6;" x="547.749635" xlink:href="#md24c25a41f" y="437.3688"/>
      </g>
     </g>
    </g>
    <g id="xtick_45">
     <g id="line2d_45">
      <g>
       <use style="fill:#252627;stroke:#252627;stroke-width:0.6;" x="562.005109" xlink:href="#md24c25a41f" y="437.3688"/>
      </g>
     </g>
    </g>
    <g id="xtick_46">
     <g id="line2d_46">
      <g>
       <use style="fill:#252627;stroke:#252627;stroke-width:0.6;" x="576.260584" xlink:href="#md24c25a41f" y="437.3688"/>
      </g>
     </g>
    </g>
    <g id="xtick_47">
     <g id="line2d_47">
      <g>
       <use style="fill:#252627;stroke:#252627;stroke-width:0.6;" x="590.516058" xlink:href="#md24c25a41f" y="437.3688"/>
      </g>
     </g>
    </g>
    <g id="xtick_48">
     <g id="line2d_48">
      <g>
       <use style="fill:#252627;stroke:#252627;stroke-width:0.6;" x="604.771533" xlink:href="#md24c25a41f" y="437.3688"/>
      </g>
     </g>
    </g>
    <g id="xtick_49">
     <g id="line2d_49">
      <g>
       <use style="fill:#252627;stroke:#252627;stroke-width:0.6;" x="619.027007" xlink:href="#md24c25a41f" y="437.3688"/>
      </g>
     </g>
    </g>
    <g id="text_10">
     <!-- date -->
     <g style="fill:#252627;" transform="translate(326.06 493.9278)scale(0.16 -0.16)">
      <defs>
       <path d="M 45.40625 46.390625 
L 45.40625 75.984375 
L 54.390625 75.984375 
L 54.390625 0 
L 45.40625 0 
L 45.40625 8.203125 
Q 42.578125 3.328125 38.25 0.953125 
Q 33.9375 -1.421875 27.875 -1.421875 
Q 17.96875 -1.421875 11.734375 6.484375 
Q 5.515625 14.40625 5.515625 27.296875 
Q 5.515625 40.1875 11.734375 48.09375 
Q 17.96875 56 27.875 56 
Q 33.9375 56 38.25 53.625 
Q 42.578125 51.265625 45.40625 46.390625 
z
M 14.796875 27.296875 
Q 14.796875 17.390625 18.875 11.75 
Q 22.953125 6.109375 30.078125 6.109375 
Q 37.203125 6.109375 41.296875 11.75 
Q 45.40625 17.390625 45.40625 27.296875 
Q 45.40625 37.203125 41.296875 42.84375 
Q 37.203125 48.484375 30.078125 48.484375 
Q 22.953125 48.484375 18.875 42.84375 
Q 14.796875 37.203125 14.796875 27.296875 
z
" id="DejaVuSans-100"/>
       <path d="M 18.3125 70.21875 
L 18.3125 54.6875 
L 36.8125 54.6875 
L 36.8125 47.703125 
L 18.3125 47.703125 
L 18.3125 18.015625 
Q 18.3125 11.328125 20.140625 9.421875 
Q 21.96875 7.515625 27.59375 7.515625 
L 36.8125 7.515625 
L 36.8125 0 
L 27.59375 0 
Q 17.1875 0 13.234375 3.875 
Q 9.28125 7.765625 9.28125 18.015625 
L 9.28125 47.703125 
L 2.6875 47.703125 
L 2.6875 54.6875 
L 9.28125 54.6875 
L 9.28125 70.21875 
z
" id="DejaVuSans-116"/>
      </defs>
      <use xlink:href="#DejaVuSans-100"/>
      <use x="63.476562" xlink:href="#DejaVuSans-97"/>
      <use x="124.755859" xlink:href="#DejaVuSans-116"/>
      <use x="163.964844" xlink:href="#DejaVuSans-101"/>
     </g>
    </g>
   </g>
   <g id="matplotlib.axis_2">
    <g id="ytick_1">
     <g id="line2d_50">
      <defs>
       <path d="M 0 0 
L -3.5 0 
" id="md39cda91be" style="stroke:#252627;stroke-width:0.8;"/>
      </defs>
      <g>
       <use style="fill:#252627;stroke:#252627;stroke-width:0.8;" x="65.1" xlink:href="#md39cda91be" y="419.7288"/>
      </g>
     </g>
     <g id="text_11">
      <!-- 0 -->
      <g style="fill:#252627;" transform="translate(47.92 425.80755)scale(0.16 -0.16)">
       <use xlink:href="#DejaVuSans-48"/>
      </g>
     </g>
    </g>
    <g id="ytick_2">
     <g id="line2d_51">
      <g>
       <use style="fill:#252627;stroke:#252627;stroke-width:0.8;" x="65.1" xlink:href="#md39cda91be" y="357.362012"/>
      </g>
     </g>
     <g id="text_12">
      <!-- 2000 -->
      <g style="fill:#252627;" transform="translate(17.38 363.440762)scale(0.16 -0.16)">
       <use xlink:href="#DejaVuSans-50"/>
       <use x="63.623047" xlink:href="#DejaVuSans-48"/>
       <use x="127.246094" xlink:href="#DejaVuSans-48"/>
       <use x="190.869141" xlink:href="#DejaVuSans-48"/>
      </g>
     </g>
    </g>
    <g id="ytick_3">
     <g id="line2d_52">
      <g>
       <use style="fill:#252627;stroke:#252627;stroke-width:0.8;" x="65.1" xlink:href="#md39cda91be" y="294.995224"/>
      </g>
     </g>
     <g id="text_13">
      <!-- 4000 -->
      <g style="fill:#252627;" transform="translate(17.38 301.073974)scale(0.16 -0.16)">
       <defs>
        <path d="M 37.796875 64.3125 
L 12.890625 25.390625 
L 37.796875 25.390625 
z
M 35.203125 72.90625 
L 47.609375 72.90625 
L 47.609375 25.390625 
L 58.015625 25.390625 
L 58.015625 17.1875 
L 47.609375 17.1875 
L 47.609375 0 
L 37.796875 0 
L 37.796875 17.1875 
L 4.890625 17.1875 
L 4.890625 26.703125 
z
" id="DejaVuSans-52"/>
       </defs>
       <use xlink:href="#DejaVuSans-52"/>
       <use x="63.623047" xlink:href="#DejaVuSans-48"/>
       <use x="127.246094" xlink:href="#DejaVuSans-48"/>
       <use x="190.869141" xlink:href="#DejaVuSans-48"/>
      </g>
     </g>
    </g>
    <g id="ytick_4">
     <g id="line2d_53">
      <g>
       <use style="fill:#252627;stroke:#252627;stroke-width:0.8;" x="65.1" xlink:href="#md39cda91be" y="232.628437"/>
      </g>
     </g>
     <g id="text_14">
      <!-- 6000 -->
      <g style="fill:#252627;" transform="translate(17.38 238.707187)scale(0.16 -0.16)">
       <defs>
        <path d="M 33.015625 40.375 
Q 26.375 40.375 22.484375 35.828125 
Q 18.609375 31.296875 18.609375 23.390625 
Q 18.609375 15.53125 22.484375 10.953125 
Q 26.375 6.390625 33.015625 6.390625 
Q 39.65625 6.390625 43.53125 10.953125 
Q 47.40625 15.53125 47.40625 23.390625 
Q 47.40625 31.296875 43.53125 35.828125 
Q 39.65625 40.375 33.015625 40.375 
z
M 52.59375 71.296875 
L 52.59375 62.3125 
Q 48.875 64.0625 45.09375 64.984375 
Q 41.3125 65.921875 37.59375 65.921875 
Q 27.828125 65.921875 22.671875 59.328125 
Q 17.53125 52.734375 16.796875 39.40625 
Q 19.671875 43.65625 24.015625 45.921875 
Q 28.375 48.1875 33.59375 48.1875 
Q 44.578125 48.1875 50.953125 41.515625 
Q 57.328125 34.859375 57.328125 23.390625 
Q 57.328125 12.15625 50.6875 5.359375 
Q 44.046875 -1.421875 33.015625 -1.421875 
Q 20.359375 -1.421875 13.671875 8.265625 
Q 6.984375 17.96875 6.984375 36.375 
Q 6.984375 53.65625 15.1875 63.9375 
Q 23.390625 74.21875 37.203125 74.21875 
Q 40.921875 74.21875 44.703125 73.484375 
Q 48.484375 72.75 52.59375 71.296875 
z
" id="DejaVuSans-54"/>
       </defs>
       <use xlink:href="#DejaVuSans-54"/>
       <use x="63.623047" xlink:href="#DejaVuSans-48"/>
       <use x="127.246094" xlink:href="#DejaVuSans-48"/>
       <use x="190.869141" xlink:href="#DejaVuSans-48"/>
      </g>
     </g>
    </g>
    <g id="ytick_5">
     <g id="line2d_54">
      <g>
       <use style="fill:#252627;stroke:#252627;stroke-width:0.8;" x="65.1" xlink:href="#md39cda91be" y="170.261649"/>
      </g>
     </g>
     <g id="text_15">
      <!-- 8000 -->
      <g style="fill:#252627;" transform="translate(17.38 176.340399)scale(0.16 -0.16)">
       <defs>
        <path d="M 31.78125 34.625 
Q 24.75 34.625 20.71875 30.859375 
Q 16.703125 27.09375 16.703125 20.515625 
Q 16.703125 13.921875 20.71875 10.15625 
Q 24.75 6.390625 31.78125 6.390625 
Q 38.8125 6.390625 42.859375 10.171875 
Q 46.921875 13.96875 46.921875 20.515625 
Q 46.921875 27.09375 42.890625 30.859375 
Q 38.875 34.625 31.78125 34.625 
z
M 21.921875 38.8125 
Q 15.578125 40.375 12.03125 44.71875 
Q 8.5 49.078125 8.5 55.328125 
Q 8.5 64.0625 14.71875 69.140625 
Q 20.953125 74.21875 31.78125 74.21875 
Q 42.671875 74.21875 48.875 69.140625 
Q 55.078125 64.0625 55.078125 55.328125 
Q 55.078125 49.078125 51.53125 44.71875 
Q 48 40.375 41.703125 38.8125 
Q 48.828125 37.15625 52.796875 32.3125 
Q 56.78125 27.484375 56.78125 20.515625 
Q 56.78125 9.90625 50.3125 4.234375 
Q 43.84375 -1.421875 31.78125 -1.421875 
Q 19.734375 -1.421875 13.25 4.234375 
Q 6.78125 9.90625 6.78125 20.515625 
Q 6.78125 27.484375 10.78125 32.3125 
Q 14.796875 37.15625 21.921875 38.8125 
z
M 18.3125 54.390625 
Q 18.3125 48.734375 21.84375 45.5625 
Q 25.390625 42.390625 31.78125 42.390625 
Q 38.140625 42.390625 41.71875 45.5625 
Q 45.3125 48.734375 45.3125 54.390625 
Q 45.3125 60.0625 41.71875 63.234375 
Q 38.140625 66.40625 31.78125 66.40625 
Q 25.390625 66.40625 21.84375 63.234375 
Q 18.3125 60.0625 18.3125 54.390625 
z
" id="DejaVuSans-56"/>
       </defs>
       <use xlink:href="#DejaVuSans-56"/>
       <use x="63.623047" xlink:href="#DejaVuSans-48"/>
       <use x="127.246094" xlink:href="#DejaVuSans-48"/>
       <use x="190.869141" xlink:href="#DejaVuSans-48"/>
      </g>
     </g>
    </g>
    <g id="ytick_6">
     <g id="line2d_55">
      <g>
       <use style="fill:#252627;stroke:#252627;stroke-width:0.8;" x="65.1" xlink:href="#md39cda91be" y="107.894861"/>
      </g>
     </g>
     <g id="text_16">
      <!-- 10000 -->
      <g style="fill:#252627;" transform="translate(7.2 113.973611)scale(0.16 -0.16)">
       <defs>
        <path d="M 12.40625 8.296875 
L 28.515625 8.296875 
L 28.515625 63.921875 
L 10.984375 60.40625 
L 10.984375 69.390625 
L 28.421875 72.90625 
L 38.28125 72.90625 
L 38.28125 8.296875 
L 54.390625 8.296875 
L 54.390625 0 
L 12.40625 0 
z
" id="DejaVuSans-49"/>
       </defs>
       <use xlink:href="#DejaVuSans-49"/>
       <use x="63.623047" xlink:href="#DejaVuSans-48"/>
       <use x="127.246094" xlink:href="#DejaVuSans-48"/>
       <use x="190.869141" xlink:href="#DejaVuSans-48"/>
       <use x="254.492188" xlink:href="#DejaVuSans-48"/>
      </g>
     </g>
    </g>
   </g>
   <g id="line2d_56">
    <path clip-path="url(#p9931e8fb20)" d="M 77.318978 419.7288 
L 183.216788 419.661974 
L 189.326277 419.372405 
L 195.435766 418.579474 
L 197.472263 418.254262 
L 199.508759 417.519238 
L 201.545255 416.5659 
L 203.581752 415.220586 
L 205.618248 413.532223 
L 207.654745 410.342598 
L 209.691241 406.333318 
L 211.727737 401.5578 
L 213.764234 395.552751 
L 215.80073 389.09333 
L 217.837226 381.012402 
L 219.873723 375.341453 
L 221.910219 367.630267 
L 223.946715 355.517733 
L 228.019708 329.092052 
L 230.056204 312.328732 
L 232.092701 300.202851 
L 234.129197 287.105826 
L 236.165693 263.994472 
L 242.275182 199.943781 
L 244.311679 187.479342 
L 246.348175 180.538791 
L 248.384672 175.340083 
L 250.421168 173.317621 
L 252.457664 178.396055 
L 254.494161 184.503541 
L 256.530657 193.007721 
L 258.567153 200.050709 
L 260.60365 204.019887 
L 262.640146 213.579842 
L 264.676642 226.659031 
L 268.749635 242.999129 
L 270.786131 255.182949 
L 272.822628 264.595875 
L 274.859124 271.874952 
L 276.89562 274.712641 
L 278.932117 284.036476 
L 280.968613 289.199572 
L 283.005109 297.775006 
L 287.078102 304.158683 
L 289.114599 324.70408 
L 291.151095 328.321354 
L 293.187591 329.056409 
L 295.224088 338.464876 
L 297.260584 342.491993 
L 299.29708 350.082904 
L 301.333577 356.007749 
L 303.370073 345.521241 
L 305.406569 348.006994 
L 309.479562 360.885736 
L 311.516058 368.347485 
L 313.552555 371.586099 
L 315.589051 377.252558 
L 317.625547 380.397622 
L 319.662044 385.716636 
L 321.69854 387.881636 
L 323.735036 387.734638 
L 325.771533 389.160156 
L 327.808029 390.113494 
L 329.844526 392.300791 
L 331.881022 381.248492 
L 333.917518 381.573704 
L 335.954015 384.054997 
L 337.990511 386.019551 
L 340.027007 386.340304 
L 342.063504 388.701323 
L 344.1 389.716997 
L 346.136496 402.03001 
L 348.172993 402.6403 
L 350.209489 402.867502 
L 352.245985 402.515567 
L 354.282482 404.150481 
L 356.318978 399.05421 
L 358.355474 399.272494 
L 360.391971 400.029814 
L 362.428467 402.827401 
L 364.464964 400.920754 
L 366.50146 400.956397 
L 368.537956 398.038536 
L 370.574453 403.067949 
L 372.610949 402.185927 
L 374.647445 403.437691 
L 376.683942 400.849469 
L 378.720438 403.366437 
L 380.756934 403.883177 
L 382.793431 407.460349 
L 386.866423 410.453954 
L 388.90292 410.280232 
L 392.975912 410.66781 
L 395.012409 411.024174 
L 397.048905 410.609871 
L 399.085401 409.790216 
L 403.158394 409.135365 
L 405.194891 409.072998 
L 407.231387 409.206619 
L 409.267883 409.023977 
L 411.30438 408.320137 
L 413.340876 409.188813 
L 415.377372 409.335811 
L 417.413869 409.286822 
L 421.486861 408.930427 
L 423.523358 409.023977 
L 425.559854 409.848123 
L 427.59635 409.349189 
L 429.632847 408.453789 
L 433.705839 408.743327 
L 439.815328 408.07067 
L 441.851825 407.968201 
L 443.888321 410.48071 
L 445.924818 411.821596 
L 447.961314 407.170811 
L 449.99781 406.992598 
L 452.034307 407.014894 
L 454.070803 406.573867 
L 456.107299 404.747393 
L 460.180292 404.747393 
L 462.216788 401.17914 
L 464.253285 399.731326 
L 466.289781 397.539601 
L 468.326277 393.895572 
L 470.362774 391.45438 
L 474.435766 391.45438 
L 476.472263 380.157073 
L 478.508759 377.074376 
L 480.545255 374.927181 
L 482.581752 369.340895 
L 484.618248 365.532061 
L 488.691241 365.532061 
L 490.727737 357.602561 
L 492.764234 355.508814 
L 494.80073 352.506321 
L 496.837226 351.731196 
L 498.873723 348.002535 
L 502.946715 348.002535 
L 504.983212 338.331224 
L 507.019708 320.815075 
L 509.056204 316.707785 
L 511.092701 310.92102 
L 513.129197 304.617515 
L 517.20219 304.617515 
L 519.238686 304.234427 
L 521.275182 313.714179 
L 523.311679 312.738576 
L 525.348175 297.316173 
L 527.384672 292.98611 
L 531.457664 292.98611 
L 533.494161 258.90266 
L 535.530657 252.300699 
L 537.567153 236.713461 
L 539.60365 238.989849 
L 541.640146 227.100058 
L 545.713139 227.100058 
L 547.749635 213.232366 
L 549.786131 204.309456 
L 551.822628 201.525215 
L 553.859124 189.858198 
L 555.89562 182.592467 
L 559.968613 182.592467 
L 562.005109 163.926961 
L 564.041606 159.481113 
L 566.078102 153.756715 
L 568.114599 156.870595 
L 570.151095 153.765634 
L 574.224088 153.765634 
L 576.260584 140.454784 
L 578.29708 136.672674 
L 580.333577 135.403074 
L 584.406569 119.757928 
L 588.479562 119.757928 
L 590.516058 115.998084 
L 592.552555 113.890991 
L 594.589051 103.524727 
L 596.625547 101.177054 
L 598.662044 91.349857 
L 602.735036 91.349857 
L 604.771533 73.423833 
L 606.808029 67.356449 
L 608.844526 66.9288 
L 610.881022 69.770948 
L 612.917518 79.20168 
L 616.990511 79.20168 
L 619.027007 77.611326 
L 621.063504 81.589454 
L 621.063504 81.589454 
" style="fill:none;stroke:#bb0a21;stroke-linecap:square;stroke-width:2;"/>
   </g>
   <g id="line2d_57">
    <path clip-path="url(#p9931e8fb20)" d="M 77.318978 419.7288 
L 187.289781 419.639709 
L 193.39927 419.470414 
L 197.472263 419.078408 
L 207.654745 417.946887 
L 209.691241 417.46579 
L 211.727737 416.557012 
L 213.764234 414.997843 
L 215.80073 413.068931 
L 217.837226 411.300365 
L 219.873723 409.959479 
L 221.910219 408.244393 
L 223.946715 406.181829 
L 225.983212 403.909901 
L 230.056204 398.72457 
L 232.092701 395.263213 
L 234.129197 391.534553 
L 236.165693 387.364896 
L 238.20219 379.671517 
L 242.275182 364.97522 
L 246.348175 347.27197 
L 248.384672 340.037423 
L 250.421168 333.444349 
L 252.457664 324.824355 
L 256.530657 305.40156 
L 260.60365 289.832159 
L 262.640146 284.495339 
L 264.676642 281.225542 
L 266.713139 276.730674 
L 268.749635 272.560987 
L 270.786131 271.589873 
L 272.822628 271.634403 
L 274.859124 274.298369 
L 276.89562 276.262923 
L 278.932117 276.721756 
L 283.005109 286.646993 
L 285.041606 286.94099 
L 287.078102 285.00762 
L 289.114599 282.143207 
L 291.151095 277.055855 
L 293.187591 275.434318 
L 295.224088 272.422906 
L 299.29708 268.609614 
L 301.333577 269.206558 
L 303.370073 269.144191 
L 305.406569 273.478683 
L 307.443066 275.171504 
L 309.479562 275.830815 
L 313.552555 276.169373 
L 315.589051 277.024671 
L 317.625547 278.062642 
L 321.69854 282.561969 
L 323.735036 288.428906 
L 325.771533 293.093037 
L 327.808029 300.287483 
L 329.844526 305.628762 
L 331.881022 313.086052 
L 333.917518 317.861571 
L 335.954015 320.770514 
L 337.990511 319.89295 
L 340.027007 321.140286 
L 342.063504 323.456745 
L 344.1 328.530751 
L 346.136496 330.922953 
L 348.172993 331.27043 
L 350.209489 333.457727 
L 352.245985 337.899115 
L 354.282482 339.458285 
L 356.318978 342.082149 
L 358.355474 342.322698 
L 360.391971 344.38972 
L 362.428467 346.848749 
L 364.464964 348.960302 
L 366.50146 353.259182 
L 368.537956 359.406739 
L 370.574453 363.340305 
L 372.610949 366.966498 
L 374.647445 369.349813 
L 376.683942 371.140613 
L 378.720438 372.410214 
L 382.793431 374.062934 
L 384.829927 376.196782 
L 386.866423 378.499894 
L 388.90292 380.31299 
L 390.939416 381.756345 
L 395.012409 384.874684 
L 397.048905 386.326926 
L 399.085401 387.026338 
L 401.121898 388.033094 
L 403.158394 388.336041 
L 407.231387 387.48963 
L 411.30438 387.988564 
L 413.340876 388.817138 
L 415.377372 388.772608 
L 417.413869 389.066605 
L 421.486861 390.786151 
L 423.523358 391.441003 
L 427.59635 393.450117 
L 431.669343 396.216521 
L 433.705839 396.385816 
L 437.778832 397.985056 
L 439.815328 399.183403 
L 443.888321 400.279281 
L 445.924818 400.689124 
L 447.961314 401.793889 
L 449.99781 401.308333 
L 454.070803 401.513239 
L 456.107299 401.326138 
L 458.143796 400.822745 
L 460.180292 400.885112 
L 462.216788 400.702471 
L 464.253285 401.566687 
L 466.289781 401.468709 
L 470.362774 400.724735 
L 474.435766 400.755919 
L 480.545255 399.99863 
L 482.581752 399.704602 
L 484.618248 399.700143 
L 486.654745 399.579868 
L 488.691241 399.143301 
L 490.727737 399.464053 
L 492.764234 399.651154 
L 494.80073 402.871962 
L 496.837226 402.818482 
L 498.873723 402.493302 
L 500.910219 401.829532 
L 502.946715 401.36624 
L 504.983212 399.931804 
L 507.019708 397.450479 
L 509.056204 394.777626 
L 513.129197 393.744114 
L 517.20219 393.842124 
L 519.238686 392.421065 
L 521.275182 392.92 
L 523.311679 390.79061 
L 525.348175 390.264952 
L 527.384672 389.46753 
L 529.421168 386.932788 
L 531.457664 385.511698 
L 533.494161 385.609708 
L 535.530657 386.06854 
L 537.567153 386.331385 
L 539.60365 387.208979 
L 541.640146 386.972859 
L 543.676642 388.785955 
L 545.713139 387.845994 
L 547.749635 387.841566 
L 549.786131 386.68778 
L 551.822628 386.264559 
L 553.859124 385.213242 
L 555.89562 383.698602 
L 557.932117 382.616102 
L 559.968613 383.417952 
L 562.005109 380.415459 
L 564.041606 378.482088 
L 566.078102 377.987613 
L 568.114599 375.938397 
L 570.151095 374.989548 
L 574.224088 368.89095 
L 576.260584 363.220031 
L 578.29708 356.350766 
L 584.406569 340.759069 
L 588.479562 326.134057 
L 590.516058 324.61053 
L 592.552555 326.067262 
L 594.589051 323.202818 
L 596.625547 317.269086 
L 598.662044 315.148615 
L 600.69854 311.660534 
L 602.735036 307.539867 
L 604.771533 305.005094 
L 608.844526 289.101563 
L 610.881022 279.358966 
L 612.917518 264.929974 
L 614.954015 253.565872 
L 616.990511 246.353589 
L 619.027007 238.366181 
L 621.063504 239.809536 
L 623.1 229.933287 
L 623.1 229.933287 
" style="fill:none;stroke:#4b88a2;stroke-linecap:square;stroke-width:2;"/>
   </g>
   <g id="line2d_58">
    <path clip-path="url(#p9931e8fb20)" d="M 213.764234 419.630791 
L 225.983212 419.15858 
L 228.019708 418.78438 
L 230.056204 418.726472 
L 232.092701 418.503729 
L 236.165693 418.352271 
L 238.20219 418.396833 
L 240.238686 417.88898 
L 242.275182 418.187436 
L 244.311679 418.071621 
L 246.348175 418.156253 
L 248.384672 417.550422 
L 250.421168 417.256393 
L 256.530657 416.013517 
L 260.60365 414.939935 
L 262.640146 413.362928 
L 264.676642 412.55216 
L 266.713139 411.313743 
L 268.749635 406.279839 
L 270.786131 402.613576 
L 272.822628 400.56439 
L 274.859124 397.000565 
L 276.89562 396.394703 
L 278.932117 397.642039 
L 280.968613 386.990696 
L 283.005109 387.952922 
L 285.041606 387.498548 
L 287.078102 385.908195 
L 289.114599 385.997286 
L 291.151095 383.605052 
L 293.187591 380.50009 
L 295.224088 386.16655 
L 297.260584 385.092968 
L 299.29708 382.206259 
L 301.333577 383.38234 
L 303.370073 371.122807 
L 305.406569 366.76602 
L 307.443066 364.605478 
L 309.479562 360.244262 
L 313.552555 348.176289 
L 315.589051 335.930102 
L 317.625547 343.093395 
L 319.662044 337.712015 
L 321.69854 336.544883 
L 323.735036 330.637844 
L 325.771533 326.686471 
L 327.808029 323.728508 
L 329.844526 324.450154 
L 331.881022 319.581117 
L 333.917518 324.490256 
L 335.954015 324.173963 
L 337.990511 326.757725 
L 342.063504 321.376376 
L 344.1 318.837143 
L 346.136496 314.925872 
L 348.172993 308.511012 
L 350.209489 303.410282 
L 352.245985 297.561181 
L 354.282482 296.269284 
L 356.318978 294.260201 
L 358.355474 298.545672 
L 360.391971 298.501142 
L 362.428467 296.394018 
L 364.464964 290.335521 
L 366.50146 284.891805 
L 368.537956 277.688441 
L 370.574453 272.676833 
L 372.610949 256.742119 
L 374.647445 241.90771 
L 376.683942 221.415793 
L 378.720438 214.542068 
L 380.756934 240.25499 
L 382.793431 228.133569 
L 384.829927 235.216658 
L 386.866423 245.480454 
L 388.90292 258.969486 
L 390.939416 277.002406 
L 392.975912 287.613679 
L 395.012409 269.616401 
L 397.048905 286.491076 
L 401.121898 271.166652 
L 403.158394 271.055296 
L 405.194891 271.736872 
L 407.231387 271.402773 
L 409.267883 270.850359 
L 411.30438 276.7975 
L 415.377372 298.665946 
L 419.450365 307.468582 
L 421.486861 321.973319 
L 423.523358 314.355653 
L 425.559854 313.789893 
L 427.59635 311.860981 
L 431.669343 309.914264 
L 433.705839 310.662666 
L 435.742336 297.538885 
L 437.778832 311.01903 
L 439.815328 313.758709 
L 441.851825 315.478255 
L 445.924818 316.863702 
L 447.961314 315.937087 
L 449.99781 315.763365 
L 452.034307 312.524751 
L 454.070803 310.88095 
L 456.107299 310.836389 
L 460.180292 314.462581 
L 462.216788 314.56059 
L 464.253285 310.943316 
L 466.289781 310.190456 
L 468.326277 309.192587 
L 470.362774 307.744773 
L 472.39927 304.390344 
L 474.435766 300.385492 
L 476.472263 298.27394 
L 478.508759 296.964237 
L 480.545255 294.015162 
L 482.581752 291.315584 
L 484.618248 288.26853 
L 486.654745 284.196852 
L 488.691241 284.375065 
L 492.764234 277.015784 
L 494.80073 273.086676 
L 496.837226 267.674112 
L 500.910219 246.999522 
L 502.946715 231.296469 
L 504.983212 223.482784 
L 507.019708 226.467502 
L 509.056204 219.776419 
L 511.092701 210.61742 
L 513.129197 206.26955 
L 515.165693 200.821375 
L 517.20219 202.206822 
L 519.238686 200.669917 
L 521.275182 196.843278 
L 523.311679 197.925778 
L 525.348175 192.842885 
L 527.384672 185.465767 
L 529.421168 186.205282 
L 531.457664 175.647458 
L 533.494161 161.699593 
L 535.530657 159.748386 
L 537.567153 154.041825 
L 539.60365 153.043956 
L 541.640146 156.6167 
L 543.676642 153.462718 
L 545.713139 154.968408 
L 547.749635 159.659295 
L 549.786131 157.142359 
L 551.822628 161.080353 
L 553.859124 174.903515 
L 555.89562 174.992606 
L 557.932117 179.643391 
L 559.968613 178.2847 
L 562.005109 184.338737 
L 564.041606 189.867085 
L 566.078102 198.117338 
L 568.114599 196.727432 
L 570.151095 205.240498 
L 572.187591 210.857969 
L 574.224088 222.529476 
L 576.260584 229.015622 
L 578.29708 243.596073 
L 580.333577 245.721003 
L 582.370073 244.482586 
L 584.406569 241.885445 
L 586.443066 242.330931 
L 588.479562 245.413628 
L 590.516058 243.132781 
L 592.552555 231.358836 
L 594.589051 233.385757 
L 596.625547 234.303421 
L 598.662044 241.399889 
L 600.69854 242.687295 
L 602.735036 241.39097 
L 604.771533 244.763236 
L 606.808029 245.83239 
L 608.844526 248.104318 
L 610.881022 249.13337 
L 612.917518 246.741136 
L 614.954015 249.681294 
L 619.027007 257.543968 
L 623.1 262.82288 
L 623.1 262.82288 
" style="fill:none;stroke:#d3d4d9;stroke-linecap:square;stroke-width:2;"/>
   </g>
   <g id="patch_3">
    <path d="M 65.1 437.3688 
L 65.1 49.2888 
" style="fill:none;stroke:#000000;stroke-linecap:square;stroke-linejoin:miter;stroke-width:0.8;"/>
   </g>
   <g id="patch_4">
    <path d="M 623.1 437.3688 
L 623.1 49.2888 
" style="fill:none;stroke:#000000;stroke-linecap:square;stroke-linejoin:miter;stroke-width:0.8;"/>
   </g>
   <g id="patch_5">
    <path d="M 65.1 437.3688 
L 623.1 437.3688 
" style="fill:none;stroke:#000000;stroke-linecap:square;stroke-linejoin:miter;stroke-width:0.8;"/>
   </g>
   <g id="patch_6">
    <path d="M 65.1 49.2888 
L 623.1 49.2888 
" style="fill:none;stroke:#000000;stroke-linecap:square;stroke-linejoin:miter;stroke-width:0.8;"/>
   </g>
   <g id="text_17">
    <!-- Latest update:  -->
    <g style="fill:#252627;" transform="translate(47.1 491.690987)scale(0.1 -0.1)">
     <defs>
      <path d="M 9.8125 72.90625 
L 19.671875 72.90625 
L 19.671875 8.296875 
L 55.171875 8.296875 
L 55.171875 0 
L 9.8125 0 
z
" id="DejaVuSans-76"/>
      <path d="M 44.28125 53.078125 
L 44.28125 44.578125 
Q 40.484375 46.53125 36.375 47.5 
Q 32.28125 48.484375 27.875 48.484375 
Q 21.1875 48.484375 17.84375 46.4375 
Q 14.5 44.390625 14.5 40.28125 
Q 14.5 37.15625 16.890625 35.375 
Q 19.28125 33.59375 26.515625 31.984375 
L 29.59375 31.296875 
Q 39.15625 29.25 43.1875 25.515625 
Q 47.21875 21.78125 47.21875 15.09375 
Q 47.21875 7.46875 41.1875 3.015625 
Q 35.15625 -1.421875 24.609375 -1.421875 
Q 20.21875 -1.421875 15.453125 -0.5625 
Q 10.6875 0.296875 5.421875 2 
L 5.421875 11.28125 
Q 10.40625 8.6875 15.234375 7.390625 
Q 20.0625 6.109375 24.8125 6.109375 
Q 31.15625 6.109375 34.5625 8.28125 
Q 37.984375 10.453125 37.984375 14.40625 
Q 37.984375 18.0625 35.515625 20.015625 
Q 33.0625 21.96875 24.703125 23.78125 
L 21.578125 24.515625 
Q 13.234375 26.265625 9.515625 29.90625 
Q 5.8125 33.546875 5.8125 39.890625 
Q 5.8125 47.609375 11.28125 51.796875 
Q 16.75 56 26.8125 56 
Q 31.78125 56 36.171875 55.265625 
Q 40.578125 54.546875 44.28125 53.078125 
z
" id="DejaVuSans-115"/>
      <path id="DejaVuSans-32"/>
      <path d="M 11.71875 12.40625 
L 22.015625 12.40625 
L 22.015625 0 
L 11.71875 0 
z
M 11.71875 51.703125 
L 22.015625 51.703125 
L 22.015625 39.3125 
L 11.71875 39.3125 
z
" id="DejaVuSans-58"/>
     </defs>
     <use xlink:href="#DejaVuSans-76"/>
     <use x="55.712891" xlink:href="#DejaVuSans-97"/>
     <use x="116.992188" xlink:href="#DejaVuSans-116"/>
     <use x="156.201172" xlink:href="#DejaVuSans-101"/>
     <use x="217.724609" xlink:href="#DejaVuSans-115"/>
     <use x="269.824219" xlink:href="#DejaVuSans-116"/>
     <use x="309.033203" xlink:href="#DejaVuSans-32"/>
     <use x="340.820312" xlink:href="#DejaVuSans-117"/>
     <use x="404.199219" xlink:href="#DejaVuSans-112"/>
     <use x="467.675781" xlink:href="#DejaVuSans-100"/>
     <use x="531.152344" xlink:href="#DejaVuSans-97"/>
     <use x="592.431641" xlink:href="#DejaVuSans-116"/>
     <use x="631.640625" xlink:href="#DejaVuSans-101"/>
     <use x="693.164062" xlink:href="#DejaVuSans-58"/>
     <use x="726.855469" xlink:href="#DejaVuSans-32"/>
    </g>
    <!-- 1-10-2020 -->
    <g style="fill:#252627;" transform="translate(47.1 502.8888)scale(0.1 -0.1)">
     <defs>
      <path d="M 4.890625 31.390625 
L 31.203125 31.390625 
L 31.203125 23.390625 
L 4.890625 23.390625 
z
" id="DejaVuSans-45"/>
     </defs>
     <use xlink:href="#DejaVuSans-49"/>
     <use x="63.623047" xlink:href="#DejaVuSans-45"/>
     <use x="99.707031" xlink:href="#DejaVuSans-49"/>
     <use x="163.330078" xlink:href="#DejaVuSans-48"/>
     <use x="226.953125" xlink:href="#DejaVuSans-45"/>
     <use x="263.037109" xlink:href="#DejaVuSans-50"/>
     <use x="326.660156" xlink:href="#DejaVuSans-48"/>
     <use x="390.283203" xlink:href="#DejaVuSans-50"/>
     <use x="453.90625" xlink:href="#DejaVuSans-48"/>
    </g>
   </g>
   <g id="text_18">
    <!-- Daily new cases - Since beginning -->
    <g style="fill:#252627;" transform="translate(180.3705 21.789)scale(0.192 -0.192)">
     <defs>
      <path d="M 19.671875 64.796875 
L 19.671875 8.109375 
L 31.59375 8.109375 
Q 46.6875 8.109375 53.6875 14.9375 
Q 60.6875 21.78125 60.6875 36.53125 
Q 60.6875 51.171875 53.6875 57.984375 
Q 46.6875 64.796875 31.59375 64.796875 
z
M 9.8125 72.90625 
L 30.078125 72.90625 
Q 51.265625 72.90625 61.171875 64.09375 
Q 71.09375 55.28125 71.09375 36.53125 
Q 71.09375 17.671875 61.125 8.828125 
Q 51.171875 0 30.078125 0 
L 9.8125 0 
z
" id="DejaVuSans-68"/>
      <path d="M 9.421875 54.6875 
L 18.40625 54.6875 
L 18.40625 0 
L 9.421875 0 
z
M 9.421875 75.984375 
L 18.40625 75.984375 
L 18.40625 64.59375 
L 9.421875 64.59375 
z
" id="DejaVuSans-105"/>
      <path d="M 4.203125 54.6875 
L 13.1875 54.6875 
L 24.421875 12.015625 
L 35.59375 54.6875 
L 46.1875 54.6875 
L 57.421875 12.015625 
L 68.609375 54.6875 
L 77.59375 54.6875 
L 63.28125 0 
L 52.6875 0 
L 40.921875 44.828125 
L 29.109375 0 
L 18.5 0 
z
" id="DejaVuSans-119"/>
      <path d="M 48.78125 52.59375 
L 48.78125 44.1875 
Q 44.96875 46.296875 41.140625 47.34375 
Q 37.3125 48.390625 33.40625 48.390625 
Q 24.65625 48.390625 19.8125 42.84375 
Q 14.984375 37.3125 14.984375 27.296875 
Q 14.984375 17.28125 19.8125 11.734375 
Q 24.65625 6.203125 33.40625 6.203125 
Q 37.3125 6.203125 41.140625 7.25 
Q 44.96875 8.296875 48.78125 10.40625 
L 48.78125 2.09375 
Q 45.015625 0.34375 40.984375 -0.53125 
Q 36.96875 -1.421875 32.421875 -1.421875 
Q 20.0625 -1.421875 12.78125 6.34375 
Q 5.515625 14.109375 5.515625 27.296875 
Q 5.515625 40.671875 12.859375 48.328125 
Q 20.21875 56 33.015625 56 
Q 37.15625 56 41.109375 55.140625 
Q 45.0625 54.296875 48.78125 52.59375 
z
" id="DejaVuSans-99"/>
     </defs>
     <use xlink:href="#DejaVuSans-68"/>
     <use x="77.001953" xlink:href="#DejaVuSans-97"/>
     <use x="138.28125" xlink:href="#DejaVuSans-105"/>
     <use x="166.064453" xlink:href="#DejaVuSans-108"/>
     <use x="193.847656" xlink:href="#DejaVuSans-121"/>
     <use x="253.027344" xlink:href="#DejaVuSans-32"/>
     <use x="284.814453" xlink:href="#DejaVuSans-110"/>
     <use x="348.193359" xlink:href="#DejaVuSans-101"/>
     <use x="409.716797" xlink:href="#DejaVuSans-119"/>
     <use x="491.503906" xlink:href="#DejaVuSans-32"/>
     <use x="523.291016" xlink:href="#DejaVuSans-99"/>
     <use x="578.271484" xlink:href="#DejaVuSans-97"/>
     <use x="639.550781" xlink:href="#DejaVuSans-115"/>
     <use x="691.650391" xlink:href="#DejaVuSans-101"/>
     <use x="753.173828" xlink:href="#DejaVuSans-115"/>
     <use x="805.273438" xlink:href="#DejaVuSans-32"/>
     <use x="837.060547" xlink:href="#DejaVuSans-45"/>
     <use x="873.144531" xlink:href="#DejaVuSans-32"/>
     <use x="904.931641" xlink:href="#DejaVuSans-83"/>
     <use x="968.408203" xlink:href="#DejaVuSans-105"/>
     <use x="996.191406" xlink:href="#DejaVuSans-110"/>
     <use x="1059.570312" xlink:href="#DejaVuSans-99"/>
     <use x="1114.550781" xlink:href="#DejaVuSans-101"/>
     <use x="1176.074219" xlink:href="#DejaVuSans-32"/>
     <use x="1207.861328" xlink:href="#DejaVuSans-98"/>
     <use x="1271.337891" xlink:href="#DejaVuSans-101"/>
     <use x="1332.861328" xlink:href="#DejaVuSans-103"/>
     <use x="1396.337891" xlink:href="#DejaVuSans-105"/>
     <use x="1424.121094" xlink:href="#DejaVuSans-110"/>
     <use x="1487.5" xlink:href="#DejaVuSans-110"/>
     <use x="1550.878906" xlink:href="#DejaVuSans-105"/>
     <use x="1578.662109" xlink:href="#DejaVuSans-110"/>
     <use x="1642.041016" xlink:href="#DejaVuSans-103"/>
    </g>
    <!-- 7-day rolling average -->
    <g style="fill:#252627;" transform="translate(241.68 43.2888)scale(0.192 -0.192)">
     <defs>
      <path d="M 8.203125 72.90625 
L 55.078125 72.90625 
L 55.078125 68.703125 
L 28.609375 0 
L 18.3125 0 
L 43.21875 64.59375 
L 8.203125 64.59375 
z
" id="DejaVuSans-55"/>
      <path d="M 30.609375 48.390625 
Q 23.390625 48.390625 19.1875 42.75 
Q 14.984375 37.109375 14.984375 27.296875 
Q 14.984375 17.484375 19.15625 11.84375 
Q 23.34375 6.203125 30.609375 6.203125 
Q 37.796875 6.203125 41.984375 11.859375 
Q 46.1875 17.53125 46.1875 27.296875 
Q 46.1875 37.015625 41.984375 42.703125 
Q 37.796875 48.390625 30.609375 48.390625 
z
M 30.609375 56 
Q 42.328125 56 49.015625 48.375 
Q 55.71875 40.765625 55.71875 27.296875 
Q 55.71875 13.875 49.015625 6.21875 
Q 42.328125 -1.421875 30.609375 -1.421875 
Q 18.84375 -1.421875 12.171875 6.21875 
Q 5.515625 13.875 5.515625 27.296875 
Q 5.515625 40.765625 12.171875 48.375 
Q 18.84375 56 30.609375 56 
z
" id="DejaVuSans-111"/>
      <path d="M 2.984375 54.6875 
L 12.5 54.6875 
L 29.59375 8.796875 
L 46.6875 54.6875 
L 56.203125 54.6875 
L 35.6875 0 
L 23.484375 0 
z
" id="DejaVuSans-118"/>
     </defs>
     <use xlink:href="#DejaVuSans-55"/>
     <use x="63.623047" xlink:href="#DejaVuSans-45"/>
     <use x="99.707031" xlink:href="#DejaVuSans-100"/>
     <use x="163.183594" xlink:href="#DejaVuSans-97"/>
     <use x="224.462891" xlink:href="#DejaVuSans-121"/>
     <use x="283.642578" xlink:href="#DejaVuSans-32"/>
     <use x="315.429688" xlink:href="#DejaVuSans-114"/>
     <use x="354.292969" xlink:href="#DejaVuSans-111"/>
     <use x="415.474609" xlink:href="#DejaVuSans-108"/>
     <use x="443.257812" xlink:href="#DejaVuSans-108"/>
     <use x="471.041016" xlink:href="#DejaVuSans-105"/>
     <use x="498.824219" xlink:href="#DejaVuSans-110"/>
     <use x="562.203125" xlink:href="#DejaVuSans-103"/>
     <use x="625.679688" xlink:href="#DejaVuSans-32"/>
     <use x="657.466797" xlink:href="#DejaVuSans-97"/>
     <use x="718.746094" xlink:href="#DejaVuSans-118"/>
     <use x="777.925781" xlink:href="#DejaVuSans-101"/>
     <use x="839.449219" xlink:href="#DejaVuSans-114"/>
     <use x="880.5625" xlink:href="#DejaVuSans-97"/>
     <use x="941.841797" xlink:href="#DejaVuSans-103"/>
     <use x="1005.318359" xlink:href="#DejaVuSans-101"/>
    </g>
   </g>
   <g id="legend_1">
    <g id="patch_7">
     <path d="M 76.3 132.5438 
L 161.9925 132.5438 
Q 165.1925 132.5438 165.1925 129.3438 
L 165.1925 60.4888 
Q 165.1925 57.2888 161.9925 57.2888 
L 76.3 57.2888 
Q 73.1 57.2888 73.1 60.4888 
L 73.1 129.3438 
Q 73.1 132.5438 76.3 132.5438 
z
" style="fill:#ffffff;opacity:0.2;stroke:#cccccc;stroke-linejoin:miter;"/>
    </g>
    <g id="line2d_59">
     <path d="M 79.5 70.2463 
L 111.5 70.2463 
" style="fill:none;stroke:#bb0a21;stroke-linecap:square;stroke-width:2;"/>
    </g>
    <g id="line2d_60"/>
    <g id="text_19">
     <!-- ESP -->
     <g style="fill:#252627;" transform="translate(124.3 75.8463)scale(0.16 -0.16)">
      <defs>
       <path d="M 9.8125 72.90625 
L 55.90625 72.90625 
L 55.90625 64.59375 
L 19.671875 64.59375 
L 19.671875 43.015625 
L 54.390625 43.015625 
L 54.390625 34.71875 
L 19.671875 34.71875 
L 19.671875 8.296875 
L 56.78125 8.296875 
L 56.78125 0 
L 9.8125 0 
z
" id="DejaVuSans-69"/>
       <path d="M 19.671875 64.796875 
L 19.671875 37.40625 
L 32.078125 37.40625 
Q 38.96875 37.40625 42.71875 40.96875 
Q 46.484375 44.53125 46.484375 51.125 
Q 46.484375 57.671875 42.71875 61.234375 
Q 38.96875 64.796875 32.078125 64.796875 
z
M 9.8125 72.90625 
L 32.078125 72.90625 
Q 44.34375 72.90625 50.609375 67.359375 
Q 56.890625 61.8125 56.890625 51.125 
Q 56.890625 40.328125 50.609375 34.8125 
Q 44.34375 29.296875 32.078125 29.296875 
L 19.671875 29.296875 
L 19.671875 0 
L 9.8125 0 
z
" id="DejaVuSans-80"/>
      </defs>
      <use xlink:href="#DejaVuSans-69"/>
      <use x="63.183594" xlink:href="#DejaVuSans-83"/>
      <use x="126.660156" xlink:href="#DejaVuSans-80"/>
     </g>
    </g>
    <g id="line2d_61">
     <path d="M 79.5 93.7313 
L 111.5 93.7313 
" style="fill:none;stroke:#4b88a2;stroke-linecap:square;stroke-width:2;"/>
    </g>
    <g id="line2d_62"/>
    <g id="text_20">
     <!-- GBR -->
     <g style="fill:#252627;" transform="translate(124.3 99.3313)scale(0.16 -0.16)">
      <defs>
       <path d="M 59.515625 10.40625 
L 59.515625 29.984375 
L 43.40625 29.984375 
L 43.40625 38.09375 
L 69.28125 38.09375 
L 69.28125 6.78125 
Q 63.578125 2.734375 56.6875 0.65625 
Q 49.8125 -1.421875 42 -1.421875 
Q 24.90625 -1.421875 15.25 8.5625 
Q 5.609375 18.5625 5.609375 36.375 
Q 5.609375 54.25 15.25 64.234375 
Q 24.90625 74.21875 42 74.21875 
Q 49.125 74.21875 55.546875 72.453125 
Q 61.96875 70.703125 67.390625 67.28125 
L 67.390625 56.78125 
Q 61.921875 61.421875 55.765625 63.765625 
Q 49.609375 66.109375 42.828125 66.109375 
Q 29.4375 66.109375 22.71875 58.640625 
Q 16.015625 51.171875 16.015625 36.375 
Q 16.015625 21.625 22.71875 14.15625 
Q 29.4375 6.6875 42.828125 6.6875 
Q 48.046875 6.6875 52.140625 7.59375 
Q 56.25 8.5 59.515625 10.40625 
z
" id="DejaVuSans-71"/>
       <path d="M 19.671875 34.8125 
L 19.671875 8.109375 
L 35.5 8.109375 
Q 43.453125 8.109375 47.28125 11.40625 
Q 51.125 14.703125 51.125 21.484375 
Q 51.125 28.328125 47.28125 31.5625 
Q 43.453125 34.8125 35.5 34.8125 
z
M 19.671875 64.796875 
L 19.671875 42.828125 
L 34.28125 42.828125 
Q 41.5 42.828125 45.03125 45.53125 
Q 48.578125 48.25 48.578125 53.8125 
Q 48.578125 59.328125 45.03125 62.0625 
Q 41.5 64.796875 34.28125 64.796875 
z
M 9.8125 72.90625 
L 35.015625 72.90625 
Q 46.296875 72.90625 52.390625 68.21875 
Q 58.5 63.53125 58.5 54.890625 
Q 58.5 48.1875 55.375 44.234375 
Q 52.25 40.28125 46.1875 39.3125 
Q 53.46875 37.75 57.5 32.78125 
Q 61.53125 27.828125 61.53125 20.40625 
Q 61.53125 10.640625 54.890625 5.3125 
Q 48.25 0 35.984375 0 
L 9.8125 0 
z
" id="DejaVuSans-66"/>
       <path d="M 44.390625 34.1875 
Q 47.5625 33.109375 50.5625 29.59375 
Q 53.5625 26.078125 56.59375 19.921875 
L 66.609375 0 
L 56 0 
L 46.6875 18.703125 
Q 43.0625 26.03125 39.671875 28.421875 
Q 36.28125 30.8125 30.421875 30.8125 
L 19.671875 30.8125 
L 19.671875 0 
L 9.8125 0 
L 9.8125 72.90625 
L 32.078125 72.90625 
Q 44.578125 72.90625 50.734375 67.671875 
Q 56.890625 62.453125 56.890625 51.90625 
Q 56.890625 45.015625 53.6875 40.46875 
Q 50.484375 35.9375 44.390625 34.1875 
z
M 19.671875 64.796875 
L 19.671875 38.921875 
L 32.078125 38.921875 
Q 39.203125 38.921875 42.84375 42.21875 
Q 46.484375 45.515625 46.484375 51.90625 
Q 46.484375 58.296875 42.84375 61.546875 
Q 39.203125 64.796875 32.078125 64.796875 
z
" id="DejaVuSans-82"/>
      </defs>
      <use xlink:href="#DejaVuSans-71"/>
      <use x="77.490234" xlink:href="#DejaVuSans-66"/>
      <use x="146.09375" xlink:href="#DejaVuSans-82"/>
     </g>
    </g>
    <g id="line2d_63">
     <path d="M 79.5 117.2163 
L 111.5 117.2163 
" style="fill:none;stroke:#d3d4d9;stroke-linecap:square;stroke-width:2;"/>
    </g>
    <g id="line2d_64"/>
    <g id="text_21">
     <!-- PER -->
     <g style="fill:#252627;" transform="translate(124.3 122.8163)scale(0.16 -0.16)">
      <use xlink:href="#DejaVuSans-80"/>
      <use x="60.302734" xlink:href="#DejaVuSans-69"/>
      <use x="123.486328" xlink:href="#DejaVuSans-82"/>
     </g>
    </g>
   </g>
  </g>
 </g>
 <defs>
  <clipPath id="p9931e8fb20">
   <rect height="388.08" width="558" x="65.1" y="49.2888"/>
  </clipPath>
 </defs>
</svg>
