<?xml version="1.0" encoding="utf-8" standalone="no"?>
<!DOCTYPE svg PUBLIC "-//W3C//DTD SVG 1.1//EN"
  "http://www.w3.org/Graphics/SVG/1.1/DTD/svg11.dtd">
<!-- Created with matplotlib (https://matplotlib.org/) -->
<svg height="432pt" version="1.1" viewBox="0 0 1080 432" width="1080pt" xmlns="http://www.w3.org/2000/svg" xmlns:xlink="http://www.w3.org/1999/xlink">
 <defs>
  <style type="text/css">
*{stroke-linecap:butt;stroke-linejoin:round;}
  </style>
 </defs>
 <g id="figure_1">
  <g id="patch_1">
   <path d="M 0 432 
L 1080 432 
L 1080 0 
L 0 0 
z
" style="fill:none;"/>
  </g>
  <g id="axes_1">
   <g id="patch_2">
    <path d="M 45.875 189 
L 1060 189 
L 1060 36 
L 45.875 36 
z
" style="fill:none;"/>
   </g>
   <g id="matplotlib.axis_1">
    <g id="xtick_1">
     <g id="line2d_1">
      <defs>
       <path d="M 0 0 
L 0 3.5 
" id="m1e50c34a0f" style="stroke:#252627;stroke-width:0.8;"/>
      </defs>
      <g>
       <use style="fill:#252627;stroke:#252627;stroke-width:0.8;" x="153.984942" xlink:href="#m1e50c34a0f" y="189"/>
      </g>
     </g>
     <g id="text_1">
      <!-- 2020-01 -->
      <defs>
       <path d="M 19.1875 8.296875 
L 53.609375 8.296875 
L 53.609375 0 
L 7.328125 0 
L 7.328125 8.296875 
Q 12.9375 14.109375 22.625 23.890625 
Q 32.328125 33.6875 34.8125 36.53125 
Q 39.546875 41.84375 41.421875 45.53125 
Q 43.3125 49.21875 43.3125 52.78125 
Q 43.3125 58.59375 39.234375 62.25 
Q 35.15625 65.921875 28.609375 65.921875 
Q 23.96875 65.921875 18.8125 64.3125 
Q 13.671875 62.703125 7.8125 59.421875 
L 7.8125 69.390625 
Q 13.765625 71.78125 18.9375 73 
Q 24.125 74.21875 28.421875 74.21875 
Q 39.75 74.21875 46.484375 68.546875 
Q 53.21875 62.890625 53.21875 53.421875 
Q 53.21875 48.921875 51.53125 44.890625 
Q 49.859375 40.875 45.40625 35.40625 
Q 44.1875 33.984375 37.640625 27.21875 
Q 31.109375 20.453125 19.1875 8.296875 
z
" id="DejaVuSans-50"/>
       <path d="M 31.78125 66.40625 
Q 24.171875 66.40625 20.328125 58.90625 
Q 16.5 51.421875 16.5 36.375 
Q 16.5 21.390625 20.328125 13.890625 
Q 24.171875 6.390625 31.78125 6.390625 
Q 39.453125 6.390625 43.28125 13.890625 
Q 47.125 21.390625 47.125 36.375 
Q 47.125 51.421875 43.28125 58.90625 
Q 39.453125 66.40625 31.78125 66.40625 
z
M 31.78125 74.21875 
Q 44.046875 74.21875 50.515625 64.515625 
Q 56.984375 54.828125 56.984375 36.375 
Q 56.984375 17.96875 50.515625 8.265625 
Q 44.046875 -1.421875 31.78125 -1.421875 
Q 19.53125 -1.421875 13.0625 8.265625 
Q 6.59375 17.96875 6.59375 36.375 
Q 6.59375 54.828125 13.0625 64.515625 
Q 19.53125 74.21875 31.78125 74.21875 
z
" id="DejaVuSans-48"/>
       <path d="M 4.890625 31.390625 
L 31.203125 31.390625 
L 31.203125 23.390625 
L 4.890625 23.390625 
z
" id="DejaVuSans-45"/>
       <path d="M 12.40625 8.296875 
L 28.515625 8.296875 
L 28.515625 63.921875 
L 10.984375 60.40625 
L 10.984375 69.390625 
L 28.421875 72.90625 
L 38.28125 72.90625 
L 38.28125 8.296875 
L 54.390625 8.296875 
L 54.390625 0 
L 12.40625 0 
z
" id="DejaVuSans-49"/>
      </defs>
      <g style="fill:#252627;" transform="translate(133.093536 203.598437)scale(0.1 -0.1)">
       <use xlink:href="#DejaVuSans-50"/>
       <use x="63.623047" xlink:href="#DejaVuSans-48"/>
       <use x="127.246094" xlink:href="#DejaVuSans-50"/>
       <use x="190.869141" xlink:href="#DejaVuSans-48"/>
       <use x="254.492188" xlink:href="#DejaVuSans-45"/>
       <use x="290.576172" xlink:href="#DejaVuSans-48"/>
       <use x="354.199219" xlink:href="#DejaVuSans-49"/>
      </g>
     </g>
    </g>
    <g id="xtick_2">
     <g id="line2d_2">
      <g>
       <use style="fill:#252627;stroke:#252627;stroke-width:0.8;" x="282.145867" xlink:href="#m1e50c34a0f" y="189"/>
      </g>
     </g>
     <g id="text_2">
      <!-- 2020-02 -->
      <g style="fill:#252627;" transform="translate(261.254461 203.598437)scale(0.1 -0.1)">
       <use xlink:href="#DejaVuSans-50"/>
       <use x="63.623047" xlink:href="#DejaVuSans-48"/>
       <use x="127.246094" xlink:href="#DejaVuSans-50"/>
       <use x="190.869141" xlink:href="#DejaVuSans-48"/>
       <use x="254.492188" xlink:href="#DejaVuSans-45"/>
       <use x="290.576172" xlink:href="#DejaVuSans-48"/>
       <use x="354.199219" xlink:href="#DejaVuSans-50"/>
      </g>
     </g>
    </g>
    <g id="xtick_3">
     <g id="line2d_3">
      <g>
       <use style="fill:#252627;stroke:#252627;stroke-width:0.8;" x="402.038346" xlink:href="#m1e50c34a0f" y="189"/>
      </g>
     </g>
     <g id="text_3">
      <!-- 2020-03 -->
      <defs>
       <path d="M 40.578125 39.3125 
Q 47.65625 37.796875 51.625 33 
Q 55.609375 28.21875 55.609375 21.1875 
Q 55.609375 10.40625 48.1875 4.484375 
Q 40.765625 -1.421875 27.09375 -1.421875 
Q 22.515625 -1.421875 17.65625 -0.515625 
Q 12.796875 0.390625 7.625 2.203125 
L 7.625 11.71875 
Q 11.71875 9.328125 16.59375 8.109375 
Q 21.484375 6.890625 26.8125 6.890625 
Q 36.078125 6.890625 40.9375 10.546875 
Q 45.796875 14.203125 45.796875 21.1875 
Q 45.796875 27.640625 41.28125 31.265625 
Q 36.765625 34.90625 28.71875 34.90625 
L 20.21875 34.90625 
L 20.21875 43.015625 
L 29.109375 43.015625 
Q 36.375 43.015625 40.234375 45.921875 
Q 44.09375 48.828125 44.09375 54.296875 
Q 44.09375 59.90625 40.109375 62.90625 
Q 36.140625 65.921875 28.71875 65.921875 
Q 24.65625 65.921875 20.015625 65.03125 
Q 15.375 64.15625 9.8125 62.3125 
L 9.8125 71.09375 
Q 15.4375 72.65625 20.34375 73.4375 
Q 25.25 74.21875 29.59375 74.21875 
Q 40.828125 74.21875 47.359375 69.109375 
Q 53.90625 64.015625 53.90625 55.328125 
Q 53.90625 49.265625 50.4375 45.09375 
Q 46.96875 40.921875 40.578125 39.3125 
z
" id="DejaVuSans-51"/>
      </defs>
      <g style="fill:#252627;" transform="translate(381.14694 203.598437)scale(0.1 -0.1)">
       <use xlink:href="#DejaVuSans-50"/>
       <use x="63.623047" xlink:href="#DejaVuSans-48"/>
       <use x="127.246094" xlink:href="#DejaVuSans-50"/>
       <use x="190.869141" xlink:href="#DejaVuSans-48"/>
       <use x="254.492188" xlink:href="#DejaVuSans-45"/>
       <use x="290.576172" xlink:href="#DejaVuSans-48"/>
       <use x="354.199219" xlink:href="#DejaVuSans-51"/>
      </g>
     </g>
    </g>
    <g id="xtick_4">
     <g id="line2d_4">
      <g>
       <use style="fill:#252627;stroke:#252627;stroke-width:0.8;" x="530.199271" xlink:href="#m1e50c34a0f" y="189"/>
      </g>
     </g>
     <g id="text_4">
      <!-- 2020-04 -->
      <defs>
       <path d="M 37.796875 64.3125 
L 12.890625 25.390625 
L 37.796875 25.390625 
z
M 35.203125 72.90625 
L 47.609375 72.90625 
L 47.609375 25.390625 
L 58.015625 25.390625 
L 58.015625 17.1875 
L 47.609375 17.1875 
L 47.609375 0 
L 37.796875 0 
L 37.796875 17.1875 
L 4.890625 17.1875 
L 4.890625 26.703125 
z
" id="DejaVuSans-52"/>
      </defs>
      <g style="fill:#252627;" transform="translate(509.307865 203.598437)scale(0.1 -0.1)">
       <use xlink:href="#DejaVuSans-50"/>
       <use x="63.623047" xlink:href="#DejaVuSans-48"/>
       <use x="127.246094" xlink:href="#DejaVuSans-50"/>
       <use x="190.869141" xlink:href="#DejaVuSans-48"/>
       <use x="254.492188" xlink:href="#DejaVuSans-45"/>
       <use x="290.576172" xlink:href="#DejaVuSans-48"/>
       <use x="354.199219" xlink:href="#DejaVuSans-52"/>
      </g>
     </g>
    </g>
    <g id="xtick_5">
     <g id="line2d_5">
      <g>
       <use style="fill:#252627;stroke:#252627;stroke-width:0.8;" x="654.225973" xlink:href="#m1e50c34a0f" y="189"/>
      </g>
     </g>
     <g id="text_5">
      <!-- 2020-05 -->
      <defs>
       <path d="M 10.796875 72.90625 
L 49.515625 72.90625 
L 49.515625 64.59375 
L 19.828125 64.59375 
L 19.828125 46.734375 
Q 21.96875 47.46875 24.109375 47.828125 
Q 26.265625 48.1875 28.421875 48.1875 
Q 40.625 48.1875 47.75 41.5 
Q 54.890625 34.8125 54.890625 23.390625 
Q 54.890625 11.625 47.5625 5.09375 
Q 40.234375 -1.421875 26.90625 -1.421875 
Q 22.3125 -1.421875 17.546875 -0.640625 
Q 12.796875 0.140625 7.71875 1.703125 
L 7.71875 11.625 
Q 12.109375 9.234375 16.796875 8.0625 
Q 21.484375 6.890625 26.703125 6.890625 
Q 35.15625 6.890625 40.078125 11.328125 
Q 45.015625 15.765625 45.015625 23.390625 
Q 45.015625 31 40.078125 35.4375 
Q 35.15625 39.890625 26.703125 39.890625 
Q 22.75 39.890625 18.8125 39.015625 
Q 14.890625 38.140625 10.796875 36.28125 
z
" id="DejaVuSans-53"/>
      </defs>
      <g style="fill:#252627;" transform="translate(633.334567 203.598437)scale(0.1 -0.1)">
       <use xlink:href="#DejaVuSans-50"/>
       <use x="63.623047" xlink:href="#DejaVuSans-48"/>
       <use x="127.246094" xlink:href="#DejaVuSans-50"/>
       <use x="190.869141" xlink:href="#DejaVuSans-48"/>
       <use x="254.492188" xlink:href="#DejaVuSans-45"/>
       <use x="290.576172" xlink:href="#DejaVuSans-48"/>
       <use x="354.199219" xlink:href="#DejaVuSans-53"/>
      </g>
     </g>
    </g>
    <g id="xtick_6">
     <g id="line2d_6">
      <g>
       <use style="fill:#252627;stroke:#252627;stroke-width:0.8;" x="782.386899" xlink:href="#m1e50c34a0f" y="189"/>
      </g>
     </g>
     <g id="text_6">
      <!-- 2020-06 -->
      <defs>
       <path d="M 33.015625 40.375 
Q 26.375 40.375 22.484375 35.828125 
Q 18.609375 31.296875 18.609375 23.390625 
Q 18.609375 15.53125 22.484375 10.953125 
Q 26.375 6.390625 33.015625 6.390625 
Q 39.65625 6.390625 43.53125 10.953125 
Q 47.40625 15.53125 47.40625 23.390625 
Q 47.40625 31.296875 43.53125 35.828125 
Q 39.65625 40.375 33.015625 40.375 
z
M 52.59375 71.296875 
L 52.59375 62.3125 
Q 48.875 64.0625 45.09375 64.984375 
Q 41.3125 65.921875 37.59375 65.921875 
Q 27.828125 65.921875 22.671875 59.328125 
Q 17.53125 52.734375 16.796875 39.40625 
Q 19.671875 43.65625 24.015625 45.921875 
Q 28.375 48.1875 33.59375 48.1875 
Q 44.578125 48.1875 50.953125 41.515625 
Q 57.328125 34.859375 57.328125 23.390625 
Q 57.328125 12.15625 50.6875 5.359375 
Q 44.046875 -1.421875 33.015625 -1.421875 
Q 20.359375 -1.421875 13.671875 8.265625 
Q 6.984375 17.96875 6.984375 36.375 
Q 6.984375 53.65625 15.1875 63.9375 
Q 23.390625 74.21875 37.203125 74.21875 
Q 40.921875 74.21875 44.703125 73.484375 
Q 48.484375 72.75 52.59375 71.296875 
z
" id="DejaVuSans-54"/>
      </defs>
      <g style="fill:#252627;" transform="translate(761.495492 203.598437)scale(0.1 -0.1)">
       <use xlink:href="#DejaVuSans-50"/>
       <use x="63.623047" xlink:href="#DejaVuSans-48"/>
       <use x="127.246094" xlink:href="#DejaVuSans-50"/>
       <use x="190.869141" xlink:href="#DejaVuSans-48"/>
       <use x="254.492188" xlink:href="#DejaVuSans-45"/>
       <use x="290.576172" xlink:href="#DejaVuSans-48"/>
       <use x="354.199219" xlink:href="#DejaVuSans-54"/>
      </g>
     </g>
    </g>
    <g id="xtick_7">
     <g id="line2d_7">
      <g>
       <use style="fill:#252627;stroke:#252627;stroke-width:0.8;" x="906.413601" xlink:href="#m1e50c34a0f" y="189"/>
      </g>
     </g>
     <g id="text_7">
      <!-- 2020-07 -->
      <defs>
       <path d="M 8.203125 72.90625 
L 55.078125 72.90625 
L 55.078125 68.703125 
L 28.609375 0 
L 18.3125 0 
L 43.21875 64.59375 
L 8.203125 64.59375 
z
" id="DejaVuSans-55"/>
      </defs>
      <g style="fill:#252627;" transform="translate(885.522194 203.598437)scale(0.1 -0.1)">
       <use xlink:href="#DejaVuSans-50"/>
       <use x="63.623047" xlink:href="#DejaVuSans-48"/>
       <use x="127.246094" xlink:href="#DejaVuSans-50"/>
       <use x="190.869141" xlink:href="#DejaVuSans-48"/>
       <use x="254.492188" xlink:href="#DejaVuSans-45"/>
       <use x="290.576172" xlink:href="#DejaVuSans-48"/>
       <use x="354.199219" xlink:href="#DejaVuSans-55"/>
      </g>
     </g>
    </g>
    <g id="xtick_8">
     <g id="line2d_8">
      <g>
       <use style="fill:#252627;stroke:#252627;stroke-width:0.8;" x="1034.574526" xlink:href="#m1e50c34a0f" y="189"/>
      </g>
     </g>
     <g id="text_8">
      <!-- 2020-08 -->
      <defs>
       <path d="M 31.78125 34.625 
Q 24.75 34.625 20.71875 30.859375 
Q 16.703125 27.09375 16.703125 20.515625 
Q 16.703125 13.921875 20.71875 10.15625 
Q 24.75 6.390625 31.78125 6.390625 
Q 38.8125 6.390625 42.859375 10.171875 
Q 46.921875 13.96875 46.921875 20.515625 
Q 46.921875 27.09375 42.890625 30.859375 
Q 38.875 34.625 31.78125 34.625 
z
M 21.921875 38.8125 
Q 15.578125 40.375 12.03125 44.71875 
Q 8.5 49.078125 8.5 55.328125 
Q 8.5 64.0625 14.71875 69.140625 
Q 20.953125 74.21875 31.78125 74.21875 
Q 42.671875 74.21875 48.875 69.140625 
Q 55.078125 64.0625 55.078125 55.328125 
Q 55.078125 49.078125 51.53125 44.71875 
Q 48 40.375 41.703125 38.8125 
Q 48.828125 37.15625 52.796875 32.3125 
Q 56.78125 27.484375 56.78125 20.515625 
Q 56.78125 9.90625 50.3125 4.234375 
Q 43.84375 -1.421875 31.78125 -1.421875 
Q 19.734375 -1.421875 13.25 4.234375 
Q 6.78125 9.90625 6.78125 20.515625 
Q 6.78125 27.484375 10.78125 32.3125 
Q 14.796875 37.15625 21.921875 38.8125 
z
M 18.3125 54.390625 
Q 18.3125 48.734375 21.84375 45.5625 
Q 25.390625 42.390625 31.78125 42.390625 
Q 38.140625 42.390625 41.71875 45.5625 
Q 45.3125 48.734375 45.3125 54.390625 
Q 45.3125 60.0625 41.71875 63.234375 
Q 38.140625 66.40625 31.78125 66.40625 
Q 25.390625 66.40625 21.84375 63.234375 
Q 18.3125 60.0625 18.3125 54.390625 
z
" id="DejaVuSans-56"/>
      </defs>
      <g style="fill:#252627;" transform="translate(1013.68312 203.598437)scale(0.1 -0.1)">
       <use xlink:href="#DejaVuSans-50"/>
       <use x="63.623047" xlink:href="#DejaVuSans-48"/>
       <use x="127.246094" xlink:href="#DejaVuSans-50"/>
       <use x="190.869141" xlink:href="#DejaVuSans-48"/>
       <use x="254.492188" xlink:href="#DejaVuSans-45"/>
       <use x="290.576172" xlink:href="#DejaVuSans-48"/>
       <use x="354.199219" xlink:href="#DejaVuSans-56"/>
      </g>
     </g>
    </g>
   </g>
   <g id="matplotlib.axis_2">
    <g id="ytick_1">
     <g id="line2d_9">
      <defs>
       <path d="M 0 0 
L -3.5 0 
" id="m3274b83d9d" style="stroke:#252627;stroke-width:0.8;"/>
      </defs>
      <g>
       <use style="fill:#252627;stroke:#252627;stroke-width:0.8;" x="45.875" xlink:href="#m3274b83d9d" y="183.276348"/>
      </g>
     </g>
     <g id="text_9">
      <!-- 0 -->
      <g style="fill:#252627;" transform="translate(32.5125 187.075566)scale(0.1 -0.1)">
       <use xlink:href="#DejaVuSans-48"/>
      </g>
     </g>
    </g>
    <g id="ytick_2">
     <g id="line2d_10">
      <g>
       <use style="fill:#252627;stroke:#252627;stroke-width:0.8;" x="45.875" xlink:href="#m3274b83d9d" y="158.658488"/>
      </g>
     </g>
     <g id="text_10">
      <!-- 20 -->
      <g style="fill:#252627;" transform="translate(26.15 162.457706)scale(0.1 -0.1)">
       <use xlink:href="#DejaVuSans-50"/>
       <use x="63.623047" xlink:href="#DejaVuSans-48"/>
      </g>
     </g>
    </g>
    <g id="ytick_3">
     <g id="line2d_11">
      <g>
       <use style="fill:#252627;stroke:#252627;stroke-width:0.8;" x="45.875" xlink:href="#m3274b83d9d" y="134.040628"/>
      </g>
     </g>
     <g id="text_11">
      <!-- 40 -->
      <g style="fill:#252627;" transform="translate(26.15 137.839846)scale(0.1 -0.1)">
       <use xlink:href="#DejaVuSans-52"/>
       <use x="63.623047" xlink:href="#DejaVuSans-48"/>
      </g>
     </g>
    </g>
    <g id="ytick_4">
     <g id="line2d_12">
      <g>
       <use style="fill:#252627;stroke:#252627;stroke-width:0.8;" x="45.875" xlink:href="#m3274b83d9d" y="109.422767"/>
      </g>
     </g>
     <g id="text_12">
      <!-- 60 -->
      <g style="fill:#252627;" transform="translate(26.15 113.221986)scale(0.1 -0.1)">
       <use xlink:href="#DejaVuSans-54"/>
       <use x="63.623047" xlink:href="#DejaVuSans-48"/>
      </g>
     </g>
    </g>
    <g id="ytick_5">
     <g id="line2d_13">
      <g>
       <use style="fill:#252627;stroke:#252627;stroke-width:0.8;" x="45.875" xlink:href="#m3274b83d9d" y="84.804907"/>
      </g>
     </g>
     <g id="text_13">
      <!-- 80 -->
      <g style="fill:#252627;" transform="translate(26.15 88.604126)scale(0.1 -0.1)">
       <use xlink:href="#DejaVuSans-56"/>
       <use x="63.623047" xlink:href="#DejaVuSans-48"/>
      </g>
     </g>
    </g>
    <g id="ytick_6">
     <g id="line2d_14">
      <g>
       <use style="fill:#252627;stroke:#252627;stroke-width:0.8;" x="45.875" xlink:href="#m3274b83d9d" y="60.187047"/>
      </g>
     </g>
     <g id="text_14">
      <!-- 100 -->
      <g style="fill:#252627;" transform="translate(19.7875 63.986266)scale(0.1 -0.1)">
       <use xlink:href="#DejaVuSans-49"/>
       <use x="63.623047" xlink:href="#DejaVuSans-48"/>
       <use x="127.246094" xlink:href="#DejaVuSans-48"/>
      </g>
     </g>
    </g>
   </g>
   <g id="line2d_15">
    <path clip-path="url(#p5795a857f6)" d="M 91.971591 162.351167 
L 96.105814 156.196702 
M 104.374261 116.808126 
L 108.508485 172.198311 
L 112.642708 104.499195 
L 116.776931 151.27313 
L 120.911155 152.504023 
L 125.045378 167.274739 
L 129.179602 159.889381 
L 133.313825 167.274739 
L 141.582272 130.347949 
L 145.716495 146.349558 
L 149.850719 111.884553 
L 153.984942 177.121883 
L 158.119165 156.196702 
L 162.253389 175.89099 
L 170.521836 164.812953 
L 174.656059 167.274739 
L 178.790282 179.583669 
L 182.924506 169.736525 
L 187.058729 180.814562 
L 195.327176 182.045455 
L 199.461399 129.117056 
L 203.595623 161.120274 
L 207.729846 146.349558 
L 211.86407 109.422767 
L 215.998293 137.733307 
L 220.132516 164.812953 
L 224.26674 148.811344 
L 228.400963 174.660097 
L 232.535187 163.58206 
L 236.66941 162.351167 
L 240.803633 156.196702 
L 244.937857 163.58206 
L 249.07208 173.429204 
L 253.206304 151.27313 
L 257.340527 175.89099 
L 261.47475 158.658488 
L 269.743197 143.887772 
L 273.877421 157.427595 
L 278.011644 137.733307 
L 282.145867 150.042237 
L 286.280091 161.120274 
L 290.414314 145.118665 
L 294.548538 118.039019 
L 298.682761 150.042237 
L 302.816984 166.043846 
L 306.951208 152.504023 
L 311.085431 158.658488 
L 315.219655 158.658488 
L 319.353878 161.120274 
L 323.488101 175.89099 
L 327.622325 166.043846 
L 331.756548 168.505632 
L 335.890772 135.271521 
L 340.024995 163.58206 
L 344.159218 177.121883 
L 348.293442 147.580451 
L 352.427665 156.196702 
L 356.561889 135.271521 
L 360.696112 129.117056 
L 364.830335 166.043846 
L 368.964559 146.349558 
L 373.098782 157.427595 
L 377.233006 154.965809 
L 381.367229 163.58206 
L 385.501452 151.27313 
L 389.635676 167.274739 
L 393.769899 154.965809 
L 397.904123 167.274739 
L 402.038346 158.658488 
L 406.172569 141.425986 
L 410.306793 152.504023 
L 414.441016 152.504023 
L 418.57524 151.27313 
L 422.709463 138.9642 
L 426.843686 175.89099 
L 430.97791 148.811344 
L 435.112133 179.583669 
L 439.246357 153.734916 
L 443.38058 168.505632 
L 447.514803 148.811344 
L 451.649027 145.118665 
L 455.78325 168.505632 
L 459.917474 159.889381 
L 464.051697 174.660097 
L 468.18592 174.660097 
L 472.320144 175.89099 
L 480.588591 172.198311 
L 484.722814 179.583669 
L 488.857037 124.193484 
L 492.991261 127.886163 
L 497.125484 158.658488 
L 501.259708 146.349558 
L 505.393931 174.660097 
L 509.528154 162.351167 
L 513.662378 130.347949 
L 517.796601 110.65366 
L 521.930825 89.728479 
L 526.065048 47.878117 
L 530.199271 159.889381 
L 534.333495 166.043846 
L 538.467718 140.195093 
L 542.601941 125.424377 
L 546.736165 127.886163 
L 550.870388 168.505632 
L 555.004612 158.658488 
L 559.138835 150.042237 
L 563.273058 159.889381 
L 567.407282 141.425986 
L 571.541505 114.34634 
L 575.675729 153.734916 
L 579.809952 158.658488 
L 583.944175 138.9642 
L 588.078399 111.884553 
L 592.212622 147.580451 
L 596.346846 143.887772 
L 600.481069 135.271521 
L 604.615292 172.198311 
L 608.749516 140.195093 
L 612.883739 150.042237 
L 617.017963 148.811344 
L 621.152186 162.351167 
L 625.286409 152.504023 
L 629.420633 169.736525 
L 633.554856 169.736525 
L 637.68908 170.967418 
L 641.823303 169.736525 
L 645.957526 172.198311 
L 650.09175 146.349558 
L 654.225973 170.967418 
L 658.360197 162.351167 
L 662.49442 173.429204 
L 666.628643 161.120274 
L 670.762867 167.274739 
L 674.89709 175.89099 
L 679.031314 166.043846 
L 683.165537 177.121883 
L 687.29976 168.505632 
L 691.433984 151.27313 
L 695.568207 177.121883 
L 699.702431 178.352776 
L 703.836654 170.967418 
L 707.970877 137.733307 
L 712.105101 180.814562 
L 716.239324 164.812953 
L 720.373548 167.274739 
L 724.507771 148.811344 
L 728.641994 161.120274 
L 732.776218 156.196702 
L 736.910441 143.887772 
L 741.044665 174.660097 
L 745.178888 151.27313 
L 749.313111 177.121883 
L 753.447335 172.198311 
L 757.581558 163.58206 
L 761.715782 99.575623 
L 765.850005 156.196702 
L 769.984228 142.656879 
L 774.118452 167.274739 
L 778.252675 174.660097 
L 782.386899 152.504023 
L 786.521122 174.660097 
L 790.655345 136.502414 
L 794.789569 178.352776 
L 798.923792 182.045455 
M 811.326462 182.045455 
L 815.460686 180.814562 
M 823.729133 180.814562 
L 827.863356 161.120274 
L 836.131803 173.429204 
L 840.266026 182.045455 
L 844.40025 175.89099 
L 848.534473 94.652051 
L 852.668696 168.505632 
L 856.80292 131.578842 
L 860.937143 169.736525 
L 865.071367 164.812953 
L 869.20559 115.577233 
L 873.339813 147.580451 
L 877.474037 163.58206 
L 881.60826 140.195093 
L 885.742484 141.425986 
L 889.876707 156.196702 
L 894.01093 138.9642 
L 898.145154 115.577233 
L 902.279377 161.120274 
L 906.413601 104.499195 
L 910.547824 163.58206 
L 914.682047 157.427595 
M 922.950494 164.812953 
L 927.084718 142.656879 
L 931.218941 89.728479 
L 935.353164 67.572405 
L 939.487388 135.271521 
L 943.621611 88.497586 
L 947.755835 142.656879 
L 951.890058 180.814562 
L 956.024281 105.730088 
L 960.158505 156.196702 
L 964.292728 178.352776 
L 968.426952 162.351167 
L 972.561175 143.887772 
L 976.695398 148.811344 
L 980.829622 145.118665 
L 984.963845 146.349558 
L 989.098069 95.882944 
L 993.232292 127.886163 
L 997.366515 127.886163 
L 1001.500739 138.9642 
L 1005.634962 163.58206 
L 1009.769186 163.58206 
L 1013.903409 136.502414 
L 1013.903409 136.502414 
" style="fill:none;stroke:#bb0a21;stroke-linecap:square;stroke-width:1.5;"/>
   </g>
   <g id="line2d_16">
    <path clip-path="url(#p5795a857f6)" d="M 91.971591 166.043846 
L 96.105814 159.889381 
L 100.240038 180.814562 
L 104.374261 121.731698 
L 108.508485 167.274739 
L 112.642708 116.808126 
L 116.776931 147.580451 
L 120.911155 153.734916 
L 125.045378 166.043846 
L 129.179602 159.889381 
L 133.313825 172.198311 
L 137.448048 140.195093 
L 141.582272 132.809735 
L 145.716495 153.734916 
L 149.850719 119.269912 
L 153.984942 177.121883 
L 158.119165 150.042237 
L 162.253389 172.198311 
L 170.521836 164.812953 
L 174.656059 167.274739 
L 178.790282 179.583669 
L 182.924506 167.274739 
L 187.058729 180.814562 
L 195.327176 182.045455 
L 199.461399 129.117056 
L 203.595623 153.734916 
L 207.729846 147.580451 
L 211.86407 127.886163 
L 215.998293 129.117056 
L 220.132516 167.274739 
L 224.26674 148.811344 
L 228.400963 172.198311 
L 232.535187 170.967418 
L 236.66941 159.889381 
L 240.803633 158.658488 
L 244.937857 164.812953 
L 249.07208 173.429204 
L 253.206304 154.965809 
L 257.340527 175.89099 
L 261.47475 161.120274 
L 265.608974 158.658488 
L 269.743197 138.9642 
L 273.877421 161.120274 
L 278.011644 141.425986 
L 282.145867 152.504023 
L 286.280091 159.889381 
L 290.414314 140.195093 
L 294.548538 122.962591 
L 298.682761 150.042237 
L 302.816984 170.967418 
L 306.951208 151.27313 
L 311.085431 163.58206 
L 315.219655 162.351167 
L 319.353878 164.812953 
L 323.488101 177.121883 
L 327.622325 164.812953 
L 331.756548 166.043846 
L 335.890772 136.502414 
L 340.024995 162.351167 
L 344.159218 174.660097 
L 348.293442 147.580451 
L 352.427665 154.965809 
L 356.561889 140.195093 
L 360.696112 118.039019 
L 364.830335 168.505632 
L 368.964559 153.734916 
L 373.098782 158.658488 
L 377.233006 153.734916 
L 381.367229 173.429204 
L 385.501452 151.27313 
L 389.635676 163.58206 
L 393.769899 148.811344 
L 397.904123 168.505632 
L 402.038346 150.042237 
L 406.172569 150.042237 
L 414.441016 152.504023 
L 418.57524 150.042237 
L 422.709463 141.425986 
L 426.843686 175.89099 
L 430.97791 153.734916 
L 435.112133 174.660097 
L 439.246357 151.27313 
L 443.38058 167.274739 
L 447.514803 136.502414 
L 451.649027 142.656879 
L 455.78325 169.736525 
L 459.917474 156.196702 
L 464.051697 172.198311 
L 468.18592 169.736525 
L 472.320144 172.198311 
L 480.588591 174.660097 
L 484.722814 180.814562 
L 488.857037 148.811344 
L 492.991261 135.271521 
L 497.125484 167.274739 
L 501.259708 154.965809 
L 505.393931 177.121883 
L 509.528154 161.120274 
L 513.662378 141.425986 
L 517.796601 103.268302 
L 521.930825 97.113837 
L 526.065048 42.954545 
L 530.199271 159.889381 
L 534.333495 161.120274 
L 538.467718 142.656879 
L 542.601941 131.578842 
L 546.736165 150.042237 
L 550.870388 162.351167 
L 555.004612 143.887772 
L 559.138835 135.271521 
L 563.273058 159.889381 
L 567.407282 125.424377 
L 571.541505 141.425986 
L 575.675729 140.195093 
L 579.809952 147.580451 
L 583.944175 137.733307 
L 588.078399 110.65366 
L 592.212622 147.580451 
L 596.346846 143.887772 
L 600.481069 147.580451 
L 604.615292 169.736525 
L 608.749516 132.809735 
L 612.883739 140.195093 
L 617.017963 150.042237 
L 621.152186 163.58206 
L 625.286409 150.042237 
L 629.420633 172.198311 
L 633.554856 159.889381 
L 637.68908 173.429204 
L 641.823303 168.505632 
L 645.957526 166.043846 
L 650.09175 166.043846 
L 654.225973 173.429204 
L 658.360197 161.120274 
L 662.49442 166.043846 
L 666.628643 151.27313 
L 670.762867 163.58206 
L 674.89709 172.198311 
L 679.031314 159.889381 
L 683.165537 172.198311 
L 687.29976 173.429204 
L 691.433984 138.9642 
L 695.568207 179.583669 
L 699.702431 169.736525 
L 703.836654 162.351167 
L 707.970877 150.042237 
L 712.105101 177.121883 
L 716.239324 164.812953 
L 720.373548 166.043846 
L 724.507771 162.351167 
L 728.641994 162.351167 
L 732.776218 153.734916 
L 736.910441 146.349558 
L 741.044665 174.660097 
L 745.178888 146.349558 
L 749.313111 173.429204 
L 753.447335 170.967418 
L 757.581558 166.043846 
L 761.715782 136.502414 
L 765.850005 161.120274 
L 769.984228 157.427595 
L 774.118452 162.351167 
L 778.252675 177.121883 
L 782.386899 163.58206 
L 786.521122 178.352776 
L 790.655345 150.042237 
L 794.789569 178.352776 
L 798.923792 179.583669 
L 803.058016 182.045455 
L 811.326462 178.352776 
L 819.594909 180.814562 
L 823.729133 180.814562 
L 827.863356 173.429204 
L 836.131803 177.121883 
L 840.266026 182.045455 
L 844.40025 173.429204 
L 848.534473 93.421158 
L 852.668696 172.198311 
L 856.80292 151.27313 
L 860.937143 174.660097 
L 865.071367 164.812953 
L 869.20559 134.040628 
L 873.339813 145.118665 
L 877.474037 168.505632 
L 881.60826 137.733307 
L 885.742484 156.196702 
L 889.876707 162.351167 
L 894.01093 136.502414 
L 898.145154 137.733307 
L 902.279377 162.351167 
L 906.413601 120.500805 
L 910.547824 166.043846 
L 914.682047 167.274739 
L 918.816271 180.814562 
L 922.950494 163.58206 
L 927.084718 136.502414 
L 931.218941 100.806516 
L 935.353164 89.728479 
L 939.487388 150.042237 
L 943.621611 109.422767 
L 947.755835 148.811344 
L 951.890058 178.352776 
L 956.024281 119.269912 
L 960.158505 151.27313 
L 964.292728 177.121883 
L 968.426952 163.58206 
L 972.561175 143.887772 
L 980.829622 151.27313 
L 984.963845 153.734916 
L 989.098069 115.577233 
L 993.232292 129.117056 
L 997.366515 138.9642 
L 1001.500739 136.502414 
L 1005.634962 167.274739 
L 1009.769186 168.505632 
L 1013.903409 156.196702 
L 1013.903409 156.196702 
" style="fill:none;stroke:#4b88a2;stroke-linecap:square;stroke-width:1.5;"/>
   </g>
   <g id="patch_3">
    <path d="M 45.875 189 
L 45.875 36 
" style="fill:none;stroke:#000000;stroke-linecap:square;stroke-linejoin:miter;stroke-width:0.8;"/>
   </g>
   <g id="patch_4">
    <path d="M 1060 189 
L 1060 36 
" style="fill:none;stroke:#000000;stroke-linecap:square;stroke-linejoin:miter;stroke-width:0.8;"/>
   </g>
   <g id="patch_5">
    <path d="M 45.875 189 
L 1060 189 
" style="fill:none;stroke:#000000;stroke-linecap:square;stroke-linejoin:miter;stroke-width:0.8;"/>
   </g>
   <g id="patch_6">
    <path d="M 45.875 36 
L 1060 36 
" style="fill:none;stroke:#000000;stroke-linecap:square;stroke-linejoin:miter;stroke-width:0.8;"/>
   </g>
   <g id="text_15">
    <!-- Daily messages by sender -->
    <defs>
     <path d="M 19.671875 64.796875 
L 19.671875 8.109375 
L 31.59375 8.109375 
Q 46.6875 8.109375 53.6875 14.9375 
Q 60.6875 21.78125 60.6875 36.53125 
Q 60.6875 51.171875 53.6875 57.984375 
Q 46.6875 64.796875 31.59375 64.796875 
z
M 9.8125 72.90625 
L 30.078125 72.90625 
Q 51.265625 72.90625 61.171875 64.09375 
Q 71.09375 55.28125 71.09375 36.53125 
Q 71.09375 17.671875 61.125 8.828125 
Q 51.171875 0 30.078125 0 
L 9.8125 0 
z
" id="DejaVuSans-68"/>
     <path d="M 34.28125 27.484375 
Q 23.390625 27.484375 19.1875 25 
Q 14.984375 22.515625 14.984375 16.5 
Q 14.984375 11.71875 18.140625 8.90625 
Q 21.296875 6.109375 26.703125 6.109375 
Q 34.1875 6.109375 38.703125 11.40625 
Q 43.21875 16.703125 43.21875 25.484375 
L 43.21875 27.484375 
z
M 52.203125 31.203125 
L 52.203125 0 
L 43.21875 0 
L 43.21875 8.296875 
Q 40.140625 3.328125 35.546875 0.953125 
Q 30.953125 -1.421875 24.3125 -1.421875 
Q 15.921875 -1.421875 10.953125 3.296875 
Q 6 8.015625 6 15.921875 
Q 6 25.140625 12.171875 29.828125 
Q 18.359375 34.515625 30.609375 34.515625 
L 43.21875 34.515625 
L 43.21875 35.40625 
Q 43.21875 41.609375 39.140625 45 
Q 35.0625 48.390625 27.6875 48.390625 
Q 23 48.390625 18.546875 47.265625 
Q 14.109375 46.140625 10.015625 43.890625 
L 10.015625 52.203125 
Q 14.9375 54.109375 19.578125 55.046875 
Q 24.21875 56 28.609375 56 
Q 40.484375 56 46.34375 49.84375 
Q 52.203125 43.703125 52.203125 31.203125 
z
" id="DejaVuSans-97"/>
     <path d="M 9.421875 54.6875 
L 18.40625 54.6875 
L 18.40625 0 
L 9.421875 0 
z
M 9.421875 75.984375 
L 18.40625 75.984375 
L 18.40625 64.59375 
L 9.421875 64.59375 
z
" id="DejaVuSans-105"/>
     <path d="M 9.421875 75.984375 
L 18.40625 75.984375 
L 18.40625 0 
L 9.421875 0 
z
" id="DejaVuSans-108"/>
     <path d="M 32.171875 -5.078125 
Q 28.375 -14.84375 24.75 -17.8125 
Q 21.140625 -20.796875 15.09375 -20.796875 
L 7.90625 -20.796875 
L 7.90625 -13.28125 
L 13.1875 -13.28125 
Q 16.890625 -13.28125 18.9375 -11.515625 
Q 21 -9.765625 23.484375 -3.21875 
L 25.09375 0.875 
L 2.984375 54.6875 
L 12.5 54.6875 
L 29.59375 11.921875 
L 46.6875 54.6875 
L 56.203125 54.6875 
z
" id="DejaVuSans-121"/>
     <path id="DejaVuSans-32"/>
     <path d="M 52 44.1875 
Q 55.375 50.25 60.0625 53.125 
Q 64.75 56 71.09375 56 
Q 79.640625 56 84.28125 50.015625 
Q 88.921875 44.046875 88.921875 33.015625 
L 88.921875 0 
L 79.890625 0 
L 79.890625 32.71875 
Q 79.890625 40.578125 77.09375 44.375 
Q 74.3125 48.1875 68.609375 48.1875 
Q 61.625 48.1875 57.5625 43.546875 
Q 53.515625 38.921875 53.515625 30.90625 
L 53.515625 0 
L 44.484375 0 
L 44.484375 32.71875 
Q 44.484375 40.625 41.703125 44.40625 
Q 38.921875 48.1875 33.109375 48.1875 
Q 26.21875 48.1875 22.15625 43.53125 
Q 18.109375 38.875 18.109375 30.90625 
L 18.109375 0 
L 9.078125 0 
L 9.078125 54.6875 
L 18.109375 54.6875 
L 18.109375 46.1875 
Q 21.1875 51.21875 25.484375 53.609375 
Q 29.78125 56 35.6875 56 
Q 41.65625 56 45.828125 52.96875 
Q 50 49.953125 52 44.1875 
z
" id="DejaVuSans-109"/>
     <path d="M 56.203125 29.59375 
L 56.203125 25.203125 
L 14.890625 25.203125 
Q 15.484375 15.921875 20.484375 11.0625 
Q 25.484375 6.203125 34.421875 6.203125 
Q 39.59375 6.203125 44.453125 7.46875 
Q 49.3125 8.734375 54.109375 11.28125 
L 54.109375 2.78125 
Q 49.265625 0.734375 44.1875 -0.34375 
Q 39.109375 -1.421875 33.890625 -1.421875 
Q 20.796875 -1.421875 13.15625 6.1875 
Q 5.515625 13.8125 5.515625 26.8125 
Q 5.515625 40.234375 12.765625 48.109375 
Q 20.015625 56 32.328125 56 
Q 43.359375 56 49.78125 48.890625 
Q 56.203125 41.796875 56.203125 29.59375 
z
M 47.21875 32.234375 
Q 47.125 39.59375 43.09375 43.984375 
Q 39.0625 48.390625 32.421875 48.390625 
Q 24.90625 48.390625 20.390625 44.140625 
Q 15.875 39.890625 15.1875 32.171875 
z
" id="DejaVuSans-101"/>
     <path d="M 44.28125 53.078125 
L 44.28125 44.578125 
Q 40.484375 46.53125 36.375 47.5 
Q 32.28125 48.484375 27.875 48.484375 
Q 21.1875 48.484375 17.84375 46.4375 
Q 14.5 44.390625 14.5 40.28125 
Q 14.5 37.15625 16.890625 35.375 
Q 19.28125 33.59375 26.515625 31.984375 
L 29.59375 31.296875 
Q 39.15625 29.25 43.1875 25.515625 
Q 47.21875 21.78125 47.21875 15.09375 
Q 47.21875 7.46875 41.1875 3.015625 
Q 35.15625 -1.421875 24.609375 -1.421875 
Q 20.21875 -1.421875 15.453125 -0.5625 
Q 10.6875 0.296875 5.421875 2 
L 5.421875 11.28125 
Q 10.40625 8.6875 15.234375 7.390625 
Q 20.0625 6.109375 24.8125 6.109375 
Q 31.15625 6.109375 34.5625 8.28125 
Q 37.984375 10.453125 37.984375 14.40625 
Q 37.984375 18.0625 35.515625 20.015625 
Q 33.0625 21.96875 24.703125 23.78125 
L 21.578125 24.515625 
Q 13.234375 26.265625 9.515625 29.90625 
Q 5.8125 33.546875 5.8125 39.890625 
Q 5.8125 47.609375 11.28125 51.796875 
Q 16.75 56 26.8125 56 
Q 31.78125 56 36.171875 55.265625 
Q 40.578125 54.546875 44.28125 53.078125 
z
" id="DejaVuSans-115"/>
     <path d="M 45.40625 27.984375 
Q 45.40625 37.75 41.375 43.109375 
Q 37.359375 48.484375 30.078125 48.484375 
Q 22.859375 48.484375 18.828125 43.109375 
Q 14.796875 37.75 14.796875 27.984375 
Q 14.796875 18.265625 18.828125 12.890625 
Q 22.859375 7.515625 30.078125 7.515625 
Q 37.359375 7.515625 41.375 12.890625 
Q 45.40625 18.265625 45.40625 27.984375 
z
M 54.390625 6.78125 
Q 54.390625 -7.171875 48.1875 -13.984375 
Q 42 -20.796875 29.203125 -20.796875 
Q 24.46875 -20.796875 20.265625 -20.09375 
Q 16.0625 -19.390625 12.109375 -17.921875 
L 12.109375 -9.1875 
Q 16.0625 -11.328125 19.921875 -12.34375 
Q 23.78125 -13.375 27.78125 -13.375 
Q 36.625 -13.375 41.015625 -8.765625 
Q 45.40625 -4.15625 45.40625 5.171875 
L 45.40625 9.625 
Q 42.625 4.78125 38.28125 2.390625 
Q 33.9375 0 27.875 0 
Q 17.828125 0 11.671875 7.65625 
Q 5.515625 15.328125 5.515625 27.984375 
Q 5.515625 40.671875 11.671875 48.328125 
Q 17.828125 56 27.875 56 
Q 33.9375 56 38.28125 53.609375 
Q 42.625 51.21875 45.40625 46.390625 
L 45.40625 54.6875 
L 54.390625 54.6875 
z
" id="DejaVuSans-103"/>
     <path d="M 48.6875 27.296875 
Q 48.6875 37.203125 44.609375 42.84375 
Q 40.53125 48.484375 33.40625 48.484375 
Q 26.265625 48.484375 22.1875 42.84375 
Q 18.109375 37.203125 18.109375 27.296875 
Q 18.109375 17.390625 22.1875 11.75 
Q 26.265625 6.109375 33.40625 6.109375 
Q 40.53125 6.109375 44.609375 11.75 
Q 48.6875 17.390625 48.6875 27.296875 
z
M 18.109375 46.390625 
Q 20.953125 51.265625 25.265625 53.625 
Q 29.59375 56 35.59375 56 
Q 45.5625 56 51.78125 48.09375 
Q 58.015625 40.1875 58.015625 27.296875 
Q 58.015625 14.40625 51.78125 6.484375 
Q 45.5625 -1.421875 35.59375 -1.421875 
Q 29.59375 -1.421875 25.265625 0.953125 
Q 20.953125 3.328125 18.109375 8.203125 
L 18.109375 0 
L 9.078125 0 
L 9.078125 75.984375 
L 18.109375 75.984375 
z
" id="DejaVuSans-98"/>
     <path d="M 54.890625 33.015625 
L 54.890625 0 
L 45.90625 0 
L 45.90625 32.71875 
Q 45.90625 40.484375 42.875 44.328125 
Q 39.84375 48.1875 33.796875 48.1875 
Q 26.515625 48.1875 22.3125 43.546875 
Q 18.109375 38.921875 18.109375 30.90625 
L 18.109375 0 
L 9.078125 0 
L 9.078125 54.6875 
L 18.109375 54.6875 
L 18.109375 46.1875 
Q 21.34375 51.125 25.703125 53.5625 
Q 30.078125 56 35.796875 56 
Q 45.21875 56 50.046875 50.171875 
Q 54.890625 44.34375 54.890625 33.015625 
z
" id="DejaVuSans-110"/>
     <path d="M 45.40625 46.390625 
L 45.40625 75.984375 
L 54.390625 75.984375 
L 54.390625 0 
L 45.40625 0 
L 45.40625 8.203125 
Q 42.578125 3.328125 38.25 0.953125 
Q 33.9375 -1.421875 27.875 -1.421875 
Q 17.96875 -1.421875 11.734375 6.484375 
Q 5.515625 14.40625 5.515625 27.296875 
Q 5.515625 40.1875 11.734375 48.09375 
Q 17.96875 56 27.875 56 
Q 33.9375 56 38.25 53.625 
Q 42.578125 51.265625 45.40625 46.390625 
z
M 14.796875 27.296875 
Q 14.796875 17.390625 18.875 11.75 
Q 22.953125 6.109375 30.078125 6.109375 
Q 37.203125 6.109375 41.296875 11.75 
Q 45.40625 17.390625 45.40625 27.296875 
Q 45.40625 37.203125 41.296875 42.84375 
Q 37.203125 48.484375 30.078125 48.484375 
Q 22.953125 48.484375 18.875 42.84375 
Q 14.796875 37.203125 14.796875 27.296875 
z
" id="DejaVuSans-100"/>
     <path d="M 41.109375 46.296875 
Q 39.59375 47.171875 37.8125 47.578125 
Q 36.03125 48 33.890625 48 
Q 26.265625 48 22.1875 43.046875 
Q 18.109375 38.09375 18.109375 28.8125 
L 18.109375 0 
L 9.078125 0 
L 9.078125 54.6875 
L 18.109375 54.6875 
L 18.109375 46.1875 
Q 20.953125 51.171875 25.484375 53.578125 
Q 30.03125 56 36.53125 56 
Q 37.453125 56 38.578125 55.875 
Q 39.703125 55.765625 41.0625 55.515625 
z
" id="DejaVuSans-114"/>
    </defs>
    <g style="fill:#252627;" transform="translate(473.99625 30)scale(0.12 -0.12)">
     <use xlink:href="#DejaVuSans-68"/>
     <use x="77.001953" xlink:href="#DejaVuSans-97"/>
     <use x="138.28125" xlink:href="#DejaVuSans-105"/>
     <use x="166.064453" xlink:href="#DejaVuSans-108"/>
     <use x="193.847656" xlink:href="#DejaVuSans-121"/>
     <use x="253.027344" xlink:href="#DejaVuSans-32"/>
     <use x="284.814453" xlink:href="#DejaVuSans-109"/>
     <use x="382.226562" xlink:href="#DejaVuSans-101"/>
     <use x="443.75" xlink:href="#DejaVuSans-115"/>
     <use x="495.849609" xlink:href="#DejaVuSans-115"/>
     <use x="547.949219" xlink:href="#DejaVuSans-97"/>
     <use x="609.228516" xlink:href="#DejaVuSans-103"/>
     <use x="672.705078" xlink:href="#DejaVuSans-101"/>
     <use x="734.228516" xlink:href="#DejaVuSans-115"/>
     <use x="786.328125" xlink:href="#DejaVuSans-32"/>
     <use x="818.115234" xlink:href="#DejaVuSans-98"/>
     <use x="881.591797" xlink:href="#DejaVuSans-121"/>
     <use x="940.771484" xlink:href="#DejaVuSans-32"/>
     <use x="972.558594" xlink:href="#DejaVuSans-115"/>
     <use x="1024.658203" xlink:href="#DejaVuSans-101"/>
     <use x="1086.181641" xlink:href="#DejaVuSans-110"/>
     <use x="1149.560547" xlink:href="#DejaVuSans-100"/>
     <use x="1213.037109" xlink:href="#DejaVuSans-101"/>
     <use x="1274.560547" xlink:href="#DejaVuSans-114"/>
    </g>
   </g>
  </g>
  <g id="axes_2">
   <g id="patch_7">
    <path d="M 45.875 395 
L 1060 395 
L 1060 242 
L 45.875 242 
z
" style="fill:none;"/>
   </g>
   <g id="matplotlib.axis_3">
    <g id="xtick_9">
     <g id="line2d_17">
      <g>
       <use style="fill:#252627;stroke:#252627;stroke-width:0.8;" x="153.984942" xlink:href="#m1e50c34a0f" y="395"/>
      </g>
     </g>
     <g id="text_16">
      <!-- 2020-01 -->
      <g style="fill:#252627;" transform="translate(133.093536 409.598438)scale(0.1 -0.1)">
       <use xlink:href="#DejaVuSans-50"/>
       <use x="63.623047" xlink:href="#DejaVuSans-48"/>
       <use x="127.246094" xlink:href="#DejaVuSans-50"/>
       <use x="190.869141" xlink:href="#DejaVuSans-48"/>
       <use x="254.492188" xlink:href="#DejaVuSans-45"/>
       <use x="290.576172" xlink:href="#DejaVuSans-48"/>
       <use x="354.199219" xlink:href="#DejaVuSans-49"/>
      </g>
     </g>
    </g>
    <g id="xtick_10">
     <g id="line2d_18">
      <g>
       <use style="fill:#252627;stroke:#252627;stroke-width:0.8;" x="282.145867" xlink:href="#m1e50c34a0f" y="395"/>
      </g>
     </g>
     <g id="text_17">
      <!-- 2020-02 -->
      <g style="fill:#252627;" transform="translate(261.254461 409.598438)scale(0.1 -0.1)">
       <use xlink:href="#DejaVuSans-50"/>
       <use x="63.623047" xlink:href="#DejaVuSans-48"/>
       <use x="127.246094" xlink:href="#DejaVuSans-50"/>
       <use x="190.869141" xlink:href="#DejaVuSans-48"/>
       <use x="254.492188" xlink:href="#DejaVuSans-45"/>
       <use x="290.576172" xlink:href="#DejaVuSans-48"/>
       <use x="354.199219" xlink:href="#DejaVuSans-50"/>
      </g>
     </g>
    </g>
    <g id="xtick_11">
     <g id="line2d_19">
      <g>
       <use style="fill:#252627;stroke:#252627;stroke-width:0.8;" x="402.038346" xlink:href="#m1e50c34a0f" y="395"/>
      </g>
     </g>
     <g id="text_18">
      <!-- 2020-03 -->
      <g style="fill:#252627;" transform="translate(381.14694 409.598438)scale(0.1 -0.1)">
       <use xlink:href="#DejaVuSans-50"/>
       <use x="63.623047" xlink:href="#DejaVuSans-48"/>
       <use x="127.246094" xlink:href="#DejaVuSans-50"/>
       <use x="190.869141" xlink:href="#DejaVuSans-48"/>
       <use x="254.492188" xlink:href="#DejaVuSans-45"/>
       <use x="290.576172" xlink:href="#DejaVuSans-48"/>
       <use x="354.199219" xlink:href="#DejaVuSans-51"/>
      </g>
     </g>
    </g>
    <g id="xtick_12">
     <g id="line2d_20">
      <g>
       <use style="fill:#252627;stroke:#252627;stroke-width:0.8;" x="530.199271" xlink:href="#m1e50c34a0f" y="395"/>
      </g>
     </g>
     <g id="text_19">
      <!-- 2020-04 -->
      <g style="fill:#252627;" transform="translate(509.307865 409.598438)scale(0.1 -0.1)">
       <use xlink:href="#DejaVuSans-50"/>
       <use x="63.623047" xlink:href="#DejaVuSans-48"/>
       <use x="127.246094" xlink:href="#DejaVuSans-50"/>
       <use x="190.869141" xlink:href="#DejaVuSans-48"/>
       <use x="254.492188" xlink:href="#DejaVuSans-45"/>
       <use x="290.576172" xlink:href="#DejaVuSans-48"/>
       <use x="354.199219" xlink:href="#DejaVuSans-52"/>
      </g>
     </g>
    </g>
    <g id="xtick_13">
     <g id="line2d_21">
      <g>
       <use style="fill:#252627;stroke:#252627;stroke-width:0.8;" x="654.225973" xlink:href="#m1e50c34a0f" y="395"/>
      </g>
     </g>
     <g id="text_20">
      <!-- 2020-05 -->
      <g style="fill:#252627;" transform="translate(633.334567 409.598438)scale(0.1 -0.1)">
       <use xlink:href="#DejaVuSans-50"/>
       <use x="63.623047" xlink:href="#DejaVuSans-48"/>
       <use x="127.246094" xlink:href="#DejaVuSans-50"/>
       <use x="190.869141" xlink:href="#DejaVuSans-48"/>
       <use x="254.492188" xlink:href="#DejaVuSans-45"/>
       <use x="290.576172" xlink:href="#DejaVuSans-48"/>
       <use x="354.199219" xlink:href="#DejaVuSans-53"/>
      </g>
     </g>
    </g>
    <g id="xtick_14">
     <g id="line2d_22">
      <g>
       <use style="fill:#252627;stroke:#252627;stroke-width:0.8;" x="782.386899" xlink:href="#m1e50c34a0f" y="395"/>
      </g>
     </g>
     <g id="text_21">
      <!-- 2020-06 -->
      <g style="fill:#252627;" transform="translate(761.495492 409.598438)scale(0.1 -0.1)">
       <use xlink:href="#DejaVuSans-50"/>
       <use x="63.623047" xlink:href="#DejaVuSans-48"/>
       <use x="127.246094" xlink:href="#DejaVuSans-50"/>
       <use x="190.869141" xlink:href="#DejaVuSans-48"/>
       <use x="254.492188" xlink:href="#DejaVuSans-45"/>
       <use x="290.576172" xlink:href="#DejaVuSans-48"/>
       <use x="354.199219" xlink:href="#DejaVuSans-54"/>
      </g>
     </g>
    </g>
    <g id="xtick_15">
     <g id="line2d_23">
      <g>
       <use style="fill:#252627;stroke:#252627;stroke-width:0.8;" x="906.413601" xlink:href="#m1e50c34a0f" y="395"/>
      </g>
     </g>
     <g id="text_22">
      <!-- 2020-07 -->
      <g style="fill:#252627;" transform="translate(885.522194 409.598438)scale(0.1 -0.1)">
       <use xlink:href="#DejaVuSans-50"/>
       <use x="63.623047" xlink:href="#DejaVuSans-48"/>
       <use x="127.246094" xlink:href="#DejaVuSans-50"/>
       <use x="190.869141" xlink:href="#DejaVuSans-48"/>
       <use x="254.492188" xlink:href="#DejaVuSans-45"/>
       <use x="290.576172" xlink:href="#DejaVuSans-48"/>
       <use x="354.199219" xlink:href="#DejaVuSans-55"/>
      </g>
     </g>
    </g>
    <g id="xtick_16">
     <g id="line2d_24">
      <g>
       <use style="fill:#252627;stroke:#252627;stroke-width:0.8;" x="1034.574526" xlink:href="#m1e50c34a0f" y="395"/>
      </g>
     </g>
     <g id="text_23">
      <!-- 2020-08 -->
      <g style="fill:#252627;" transform="translate(1013.68312 409.598438)scale(0.1 -0.1)">
       <use xlink:href="#DejaVuSans-50"/>
       <use x="63.623047" xlink:href="#DejaVuSans-48"/>
       <use x="127.246094" xlink:href="#DejaVuSans-50"/>
       <use x="190.869141" xlink:href="#DejaVuSans-48"/>
       <use x="254.492188" xlink:href="#DejaVuSans-45"/>
       <use x="290.576172" xlink:href="#DejaVuSans-48"/>
       <use x="354.199219" xlink:href="#DejaVuSans-56"/>
      </g>
     </g>
    </g>
   </g>
   <g id="matplotlib.axis_4">
    <g id="ytick_7">
     <g id="line2d_25">
      <g>
       <use style="fill:#252627;stroke:#252627;stroke-width:0.8;" x="45.875" xlink:href="#m3274b83d9d" y="355.79249"/>
      </g>
     </g>
     <g id="text_24">
      <!-- 5 -->
      <g style="fill:#252627;" transform="translate(32.5125 359.591709)scale(0.1 -0.1)">
       <use xlink:href="#DejaVuSans-53"/>
      </g>
     </g>
    </g>
    <g id="ytick_8">
     <g id="line2d_26">
      <g>
       <use style="fill:#252627;stroke:#252627;stroke-width:0.8;" x="45.875" xlink:href="#m3274b83d9d" y="315.476285"/>
      </g>
     </g>
     <g id="text_25">
      <!-- 10 -->
      <g style="fill:#252627;" transform="translate(26.15 319.275503)scale(0.1 -0.1)">
       <use xlink:href="#DejaVuSans-49"/>
       <use x="63.623047" xlink:href="#DejaVuSans-48"/>
      </g>
     </g>
    </g>
    <g id="ytick_9">
     <g id="line2d_27">
      <g>
       <use style="fill:#252627;stroke:#252627;stroke-width:0.8;" x="45.875" xlink:href="#m3274b83d9d" y="275.160079"/>
      </g>
     </g>
     <g id="text_26">
      <!-- 15 -->
      <g style="fill:#252627;" transform="translate(26.15 278.959298)scale(0.1 -0.1)">
       <use xlink:href="#DejaVuSans-49"/>
       <use x="63.623047" xlink:href="#DejaVuSans-53"/>
      </g>
     </g>
    </g>
   </g>
   <g id="line2d_28">
    <path clip-path="url(#p19909ac412)" d="M 91.971591 339.1917 
L 96.105814 337.466942 
M 104.374261 343.996267 
L 108.508485 318.164032 
L 112.642708 330.846838 
L 116.776931 307.413043 
L 120.911155 332.570356 
L 125.045378 332.223016 
L 129.179602 309.534949 
L 133.313825 296.248556 
L 137.448048 339.090062 
L 141.582272 325.414698 
L 149.850719 325.485825 
L 153.984942 357.405138 
L 158.119165 326.838124 
L 162.253389 326.227273 
L 170.521836 327.839921 
L 174.656059 329.742019 
L 178.790282 334.290514 
L 182.924506 364.588753 
L 187.058729 311.444664 
L 195.327176 331.602767 
L 199.461399 331.602767 
L 203.595623 345.937418 
L 207.729846 339.128458 
L 211.86407 338.05336 
L 215.998293 348.818876 
L 220.132516 359.017787 
L 224.26674 346.289385 
L 228.400963 358.096273 
L 232.535187 343.193676 
L 236.66941 341.563241 
L 240.803633 342.231585 
L 244.937857 342.689723 
L 249.07208 320.51581 
L 253.206304 358.583612 
L 257.340527 357.136364 
L 261.47475 345.310277 
L 265.608974 352.381119 
L 269.743197 344.95751 
L 273.877421 340.817899 
L 278.011644 341.409411 
L 282.145867 348.326526 
L 286.280091 365.199605 
L 290.414314 350.07019 
L 294.548538 364.007868 
L 298.682761 336.380984 
L 302.816984 350.033032 
L 306.951208 335.473123 
L 311.085431 369.096838 
L 315.219655 361.436759 
L 319.353878 350.416996 
L 323.488101 347.729249 
L 327.622325 328.147092 
L 331.756548 353.104743 
L 335.890772 346.6955 
L 340.024995 353.77668 
L 344.159218 360.630435 
L 348.293442 358.016832 
L 352.427665 336.73392 
L 356.561889 358.480237 
L 360.696112 343.880884 
L 364.830335 343.121683 
L 368.964559 350.416996 
L 373.098782 369.231225 
L 377.233006 358.24652 
L 381.367229 318.5 
L 385.501452 355.79249 
L 389.635676 355.172241 
L 393.769899 343.522341 
L 397.904123 350.830496 
L 402.038346 340.06917 
L 406.172569 328.519763 
L 410.306793 353.534783 
L 414.441016 353.857312 
L 418.57524 344.317878 
L 422.709463 345.041502 
L 426.843686 369.231225 
L 430.97791 350.608978 
L 435.112133 323.539526 
L 439.246357 351.76087 
L 443.38058 350.416996 
L 447.514803 341.681818 
L 451.649027 343.047367 
L 455.78325 351.088933 
L 459.917474 341.787913 
L 464.051697 365.007623 
L 468.18592 320.083851 
L 472.320144 369.231225 
L 480.588591 344.145586 
L 484.722814 358.480237 
L 488.857037 302.709486 
L 492.991261 348.087615 
L 497.125484 344.100791 
L 501.259708 329.721344 
L 505.393931 317.780068 
L 509.528154 368.598814 
L 513.662378 304.600285 
L 517.796601 353.879179 
L 521.930825 353.140108 
L 526.065048 355.79249 
L 530.199271 345.182962 
L 534.333495 366.73546 
L 538.467718 357.17476 
L 542.601941 353.562232 
L 546.736165 345.041502 
L 550.870388 349.073123 
L 555.004612 351.357708 
L 559.138835 349.819719 
L 563.273058 350.699917 
L 567.407282 351.998024 
L 571.541505 363.135799 
L 575.675729 344.033597 
L 579.809952 350.148221 
L 583.944175 328.467062 
L 588.078399 343.697628 
L 592.212622 356.626619 
L 596.346846 354.280632 
L 600.481069 364.269231 
L 604.615292 363.855731 
L 608.749516 342.200169 
L 612.883739 339.068731 
L 617.017963 363.279785 
L 621.152186 347.729249 
L 625.286409 348.696838 
L 629.420633 355.79249 
L 633.554856 356.525512 
L 637.68908 348.535573 
L 641.823303 372.651994 
L 645.957526 363.855731 
L 650.09175 335.634387 
L 654.225973 352.567194 
L 658.360197 351.998024 
L 662.49442 344.705534 
L 666.628643 345.041502 
L 670.762867 361.994983 
L 674.89709 371.918972 
L 679.031314 330.450875 
L 683.165537 315.476285 
L 687.29976 357.136364 
L 691.433984 333.773639 
L 695.568207 349.341897 
L 699.702431 248.954545 
L 703.836654 303.381423 
L 707.970877 318.309315 
L 712.105101 371.918972 
L 716.239324 337.51581 
L 720.373548 326.640772 
L 724.507771 312.596556 
L 728.641994 334.738472 
L 732.776218 341.132052 
L 736.910441 363.351779 
L 741.044665 355.79249 
L 745.178888 339.355883 
L 749.313111 336.440711 
L 753.447335 352.208827 
L 757.581558 362.847826 
L 761.715782 342.867589 
L 765.850005 351.394359 
L 769.984228 366.543478 
L 774.118452 363.235482 
L 778.252675 294.742236 
L 782.386899 339.343478 
L 786.521122 355.79249 
L 790.655345 328.84429 
L 794.789569 363.855731 
L 798.923792 379.982213 
M 811.326462 283.22332 
L 815.460686 339.666008 
M 823.729133 359.824111 
L 827.863356 370.127141 
L 836.131803 355.79249 
L 840.266026 388.045455 
L 844.40025 361.167984 
L 848.534473 361.95191 
L 852.668696 344.369565 
L 856.80292 358.864201 
L 860.937143 352.860402 
L 865.071367 365.468379 
L 869.20559 344.797161 
L 873.339813 353.846191 
L 877.474037 325.051383 
L 881.60826 345.886222 
L 885.742484 361.009881 
L 889.876707 364.588753 
L 894.01093 333.618577 
L 898.145154 351.687567 
L 902.279377 361.167984 
L 906.413601 362.217885 
L 910.547824 297.837945 
L 914.682047 351.184924 
M 922.950494 371.918972 
L 927.084718 339.421667 
L 931.218941 351.124298 
L 935.353164 356.564503 
L 939.487388 362.615233 
L 943.621611 351.708511 
L 947.755835 348.21793 
L 951.890058 375.950593 
L 956.024281 358.224261 
L 960.158505 361.290155 
L 964.292728 379.982213 
L 968.426952 345.357708 
L 972.561175 364.359684 
L 976.695398 348.017222 
L 980.829622 349.029772 
L 984.963845 364.93083 
L 989.098069 364.877832 
L 993.232292 351.133729 
L 997.366515 355.613307 
L 1001.500739 350.864954 
L 1005.634962 356.800395 
L 1009.769186 354.784585 
L 1013.903409 357.702205 
L 1013.903409 357.702205 
" style="fill:none;stroke:#bb0a21;stroke-linecap:square;stroke-width:1.5;"/>
   </g>
   <g id="line2d_29">
    <path clip-path="url(#p19909ac412)" d="M 91.971591 339.090062 
L 96.105814 336.270959 
L 100.240038 327.571146 
L 104.374261 350.632016 
L 108.508485 347.729249 
L 112.642708 343.996267 
L 116.776931 321.871269 
L 120.911155 351.088933 
L 125.045378 320.659797 
L 129.179602 329.905242 
L 133.313825 305.621212 
L 137.448048 342.891304 
L 141.582272 326.882821 
L 145.716495 340.673913 
L 149.850719 331.602767 
L 153.984942 349.341897 
L 158.119165 334.589152 
L 162.253389 351.312912 
L 170.521836 335.903162 
L 174.656059 327.261022 
L 178.790282 345.041502 
L 182.924506 352.070994 
L 187.058729 323.539526 
L 195.327176 259.033597 
L 199.461399 336.917176 
L 203.595623 337.650198 
L 207.729846 348.84142 
L 211.86407 335.18643 
L 215.998293 347.362738 
L 220.132516 360.134235 
L 224.26674 349.745059 
L 228.400963 355.79249 
L 232.535187 323.539526 
L 236.66941 337.968483 
L 240.803633 338.859684 
L 244.937857 345.579051 
L 249.07208 356.800395 
L 253.206304 352.637309 
L 257.340527 351.76087 
L 261.47475 348.625165 
L 265.608974 363.855731 
L 269.743197 353.328722 
L 273.877421 330.706851 
L 278.011644 354.132411 
L 282.145867 347.08419 
L 286.280091 365.128875 
L 290.414314 344.503953 
L 294.548538 363.526619 
L 298.682761 347.131972 
L 302.816984 335.634387 
L 306.951208 345.868501 
L 311.085431 364.863636 
L 315.219655 366.701581 
L 319.353878 356.33004 
L 323.488101 368.693676 
L 327.622325 361.167984 
L 331.756548 360.400056 
L 335.890772 352.185251 
L 340.024995 350.100791 
L 344.159218 370.767081 
L 348.293442 351.065763 
L 352.427665 341.769462 
L 356.561889 348.420384 
L 360.696112 361.117272 
L 364.830335 356.464427 
L 368.964559 341.009881 
L 373.098782 359.420949 
L 377.233006 347.057312 
L 381.367229 356.800395 
L 385.501452 353.311493 
L 389.635676 348.737154 
L 393.769899 343.409656 
L 397.904123 343.025692 
L 402.038346 325.032718 
L 406.172569 334.589152 
L 410.306793 348.969748 
L 414.441016 355.79249 
L 418.57524 331.602767 
L 422.709463 341.088933 
L 426.843686 349.073123 
L 430.97791 350.416996 
L 435.112133 347.729249 
L 439.246357 352.691244 
L 443.38058 354.551991 
L 447.514803 343.061057 
L 451.649027 352.127381 
L 455.78325 349.195293 
L 459.917474 334.534854 
L 464.051697 287.702899 
L 468.18592 327.204635 
L 472.320144 341.457839 
L 480.588591 335.058442 
L 484.722814 327.571146 
L 488.857037 316.340203 
L 492.991261 307.826543 
L 497.125484 351.450745 
L 501.259708 364.907458 
L 505.393931 318.701581 
L 509.528154 358.480237 
L 513.662378 333.262846 
L 517.796601 346.116601 
L 521.930825 357.750706 
L 526.065048 354.236426 
L 530.199271 363.43135 
L 534.333495 350.416996 
L 538.467718 340.39903 
L 542.601941 346.961321 
L 546.736165 364.453008 
L 550.870388 367.650198 
L 555.004612 346.469368 
L 559.138835 329.948769 
L 563.273058 309.534949 
L 567.407282 350.302624 
L 571.541505 351.76087 
L 575.675729 349.572276 
L 579.809952 349.953591 
L 583.944175 313.29703 
L 588.078399 340.895994 
L 592.212622 337.719708 
L 596.346846 341.933794 
L 600.481069 355.514447 
L 604.615292 355.79249 
L 608.749516 344.385954 
L 612.883739 345.195088 
L 617.017963 361.466623 
L 621.152186 348.737154 
L 625.286409 352.806105 
L 629.420633 337.874177 
L 637.68908 329.586957 
L 641.823303 338.994071 
L 645.957526 332.754658 
L 650.09175 318.931959 
L 654.225973 347.729249 
L 658.360197 352.656785 
L 662.49442 325.843309 
L 666.628643 350.830496 
L 670.762867 353.77668 
L 674.89709 350.416996 
L 679.031314 310.383711 
L 683.165537 346.833333 
L 687.29976 353.77668 
L 691.433984 334.514493 
L 695.568207 358.480237 
L 699.702431 261.965685 
L 703.836654 331.128458 
L 707.970877 308.607598 
L 712.105101 329.990119 
L 716.239324 259.571146 
L 720.373548 340.817899 
L 724.507771 291.76087 
L 728.641994 358.164032 
L 732.776218 345.713439 
L 736.910441 334.828063 
L 741.044665 314.324393 
L 745.178888 320.851779 
L 749.313111 359.824111 
L 753.447335 343.697628 
L 757.581558 356.944382 
L 761.715782 342.212295 
L 765.850005 353.104743 
L 769.984228 357.328346 
L 774.118452 349.152174 
L 778.252675 302.575099 
L 782.386899 345.209486 
L 786.521122 353.77668 
L 790.655345 335.485068 
L 794.789569 361.839921 
L 798.923792 382.66996 
L 803.058016 388.045455 
L 811.326462 351.76087 
L 815.460686 366.543478 
L 819.594909 388.045455 
L 823.729133 319.507905 
L 827.863356 341.681818 
L 836.131803 350.954545 
L 840.266026 388.045455 
L 844.40025 360.832016 
L 848.534473 362.088446 
L 852.668696 336.082345 
L 856.80292 351.14062 
L 860.937143 352.336815 
L 865.071367 354.717391 
L 869.20559 357.405138 
L 873.339813 349.029772 
L 877.474037 349.073123 
L 881.60826 339.012232 
L 885.742484 362.023176 
L 889.876707 359.112648 
L 894.01093 346.880487 
L 898.145154 330.94899 
L 902.279377 342.986166 
L 906.413601 344.567194 
L 910.547824 307.413043 
L 914.682047 325.400274 
L 918.816271 384.013834 
L 922.950494 357.304348 
L 927.084718 349.426773 
L 931.218941 356.875612 
L 935.353164 350.593822 
L 939.487388 348.625165 
L 943.621611 333.752964 
L 947.755835 345.713439 
L 951.890058 377.966403 
L 956.024281 342.147005 
L 960.158505 343.697628 
L 964.292728 360.630435 
L 968.426952 310.436759 
L 972.561175 346.217391 
L 976.695398 338.83188 
L 980.829622 341.526756 
L 984.963845 345.37747 
L 989.098069 340.252425 
L 993.232292 361.290155 
L 997.366515 353.104743 
L 1001.500739 354.943728 
L 1005.634962 348.349498 
L 1009.769186 346.385375 
L 1013.903409 355.79249 
L 1013.903409 355.79249 
" style="fill:none;stroke:#4b88a2;stroke-linecap:square;stroke-width:1.5;"/>
   </g>
   <g id="patch_8">
    <path d="M 45.875 395 
L 45.875 242 
" style="fill:none;stroke:#000000;stroke-linecap:square;stroke-linejoin:miter;stroke-width:0.8;"/>
   </g>
   <g id="patch_9">
    <path d="M 1060 395 
L 1060 242 
" style="fill:none;stroke:#000000;stroke-linecap:square;stroke-linejoin:miter;stroke-width:0.8;"/>
   </g>
   <g id="patch_10">
    <path d="M 45.875 395 
L 1060 395 
" style="fill:none;stroke:#000000;stroke-linecap:square;stroke-linejoin:miter;stroke-width:0.8;"/>
   </g>
   <g id="patch_11">
    <path d="M 45.875 242 
L 1060 242 
" style="fill:none;stroke:#000000;stroke-linecap:square;stroke-linejoin:miter;stroke-width:0.8;"/>
   </g>
   <g id="text_27">
    <!-- Average daily message length by sender -->
    <defs>
     <path d="M 34.1875 63.1875 
L 20.796875 26.90625 
L 47.609375 26.90625 
z
M 28.609375 72.90625 
L 39.796875 72.90625 
L 67.578125 0 
L 57.328125 0 
L 50.6875 18.703125 
L 17.828125 18.703125 
L 11.1875 0 
L 0.78125 0 
z
" id="DejaVuSans-65"/>
     <path d="M 2.984375 54.6875 
L 12.5 54.6875 
L 29.59375 8.796875 
L 46.6875 54.6875 
L 56.203125 54.6875 
L 35.6875 0 
L 23.484375 0 
z
" id="DejaVuSans-118"/>
     <path d="M 18.3125 70.21875 
L 18.3125 54.6875 
L 36.8125 54.6875 
L 36.8125 47.703125 
L 18.3125 47.703125 
L 18.3125 18.015625 
Q 18.3125 11.328125 20.140625 9.421875 
Q 21.96875 7.515625 27.59375 7.515625 
L 36.8125 7.515625 
L 36.8125 0 
L 27.59375 0 
Q 17.1875 0 13.234375 3.875 
Q 9.28125 7.765625 9.28125 18.015625 
L 9.28125 47.703125 
L 2.6875 47.703125 
L 2.6875 54.6875 
L 9.28125 54.6875 
L 9.28125 70.21875 
z
" id="DejaVuSans-116"/>
     <path d="M 54.890625 33.015625 
L 54.890625 0 
L 45.90625 0 
L 45.90625 32.71875 
Q 45.90625 40.484375 42.875 44.328125 
Q 39.84375 48.1875 33.796875 48.1875 
Q 26.515625 48.1875 22.3125 43.546875 
Q 18.109375 38.921875 18.109375 30.90625 
L 18.109375 0 
L 9.078125 0 
L 9.078125 75.984375 
L 18.109375 75.984375 
L 18.109375 46.1875 
Q 21.34375 51.125 25.703125 53.5625 
Q 30.078125 56 35.796875 56 
Q 45.21875 56 50.046875 50.171875 
Q 54.890625 44.34375 54.890625 33.015625 
z
" id="DejaVuSans-104"/>
    </defs>
    <g style="fill:#252627;" transform="translate(430.006875 236)scale(0.12 -0.12)">
     <use xlink:href="#DejaVuSans-65"/>
     <use x="68.330078" xlink:href="#DejaVuSans-118"/>
     <use x="127.509766" xlink:href="#DejaVuSans-101"/>
     <use x="189.033203" xlink:href="#DejaVuSans-114"/>
     <use x="230.146484" xlink:href="#DejaVuSans-97"/>
     <use x="291.425781" xlink:href="#DejaVuSans-103"/>
     <use x="354.902344" xlink:href="#DejaVuSans-101"/>
     <use x="416.425781" xlink:href="#DejaVuSans-32"/>
     <use x="448.212891" xlink:href="#DejaVuSans-100"/>
     <use x="511.689453" xlink:href="#DejaVuSans-97"/>
     <use x="572.96875" xlink:href="#DejaVuSans-105"/>
     <use x="600.751953" xlink:href="#DejaVuSans-108"/>
     <use x="628.535156" xlink:href="#DejaVuSans-121"/>
     <use x="687.714844" xlink:href="#DejaVuSans-32"/>
     <use x="719.501953" xlink:href="#DejaVuSans-109"/>
     <use x="816.914062" xlink:href="#DejaVuSans-101"/>
     <use x="878.4375" xlink:href="#DejaVuSans-115"/>
     <use x="930.537109" xlink:href="#DejaVuSans-115"/>
     <use x="982.636719" xlink:href="#DejaVuSans-97"/>
     <use x="1043.916016" xlink:href="#DejaVuSans-103"/>
     <use x="1107.392578" xlink:href="#DejaVuSans-101"/>
     <use x="1168.916016" xlink:href="#DejaVuSans-32"/>
     <use x="1200.703125" xlink:href="#DejaVuSans-108"/>
     <use x="1228.486328" xlink:href="#DejaVuSans-101"/>
     <use x="1290.009766" xlink:href="#DejaVuSans-110"/>
     <use x="1353.388672" xlink:href="#DejaVuSans-103"/>
     <use x="1416.865234" xlink:href="#DejaVuSans-116"/>
     <use x="1456.074219" xlink:href="#DejaVuSans-104"/>
     <use x="1519.453125" xlink:href="#DejaVuSans-32"/>
     <use x="1551.240234" xlink:href="#DejaVuSans-98"/>
     <use x="1614.716797" xlink:href="#DejaVuSans-121"/>
     <use x="1673.896484" xlink:href="#DejaVuSans-32"/>
     <use x="1705.683594" xlink:href="#DejaVuSans-115"/>
     <use x="1757.783203" xlink:href="#DejaVuSans-101"/>
     <use x="1819.306641" xlink:href="#DejaVuSans-110"/>
     <use x="1882.685547" xlink:href="#DejaVuSans-100"/>
     <use x="1946.162109" xlink:href="#DejaVuSans-101"/>
     <use x="2007.685547" xlink:href="#DejaVuSans-114"/>
    </g>
   </g>
  </g>
  <g id="legend_1">
   <g id="patch_12">
    <path d="M 926.956562 54.29875 
L 1072.2 54.29875 
Q 1075 54.29875 1075 51.49875 
L 1075 11.8 
Q 1075 9 1072.2 9 
L 926.956562 9 
Q 924.156562 9 924.156562 11.8 
L 924.156562 51.49875 
Q 924.156562 54.29875 926.956562 54.29875 
z
" style="fill:#4c4c4c;opacity:0.5;stroke:#4c4c4c;stroke-linejoin:miter;"/>
   </g>
   <g id="patch_13">
    <path d="M 924.956562 52.29875 
L 1070.2 52.29875 
Q 1073 52.29875 1073 49.49875 
L 1073 9.8 
Q 1073 7 1070.2 7 
L 924.956562 7 
Q 922.156562 7 922.156562 9.8 
L 922.156562 49.49875 
Q 922.156562 52.29875 924.956562 52.29875 
z
" style="fill:#ffffff;stroke:#cccccc;stroke-linejoin:miter;"/>
   </g>
   <g id="line2d_30">
    <path d="M 927.756562 18.337812 
L 955.756562 18.337812 
" style="fill:none;stroke:#1f77b4;stroke-linecap:square;stroke-width:1.5;"/>
   </g>
   <g id="line2d_31"/>
   <g id="text_28">
    <!-- Alvaro Aguirre -->
    <defs>
     <path d="M 30.609375 48.390625 
Q 23.390625 48.390625 19.1875 42.75 
Q 14.984375 37.109375 14.984375 27.296875 
Q 14.984375 17.484375 19.15625 11.84375 
Q 23.34375 6.203125 30.609375 6.203125 
Q 37.796875 6.203125 41.984375 11.859375 
Q 46.1875 17.53125 46.1875 27.296875 
Q 46.1875 37.015625 41.984375 42.703125 
Q 37.796875 48.390625 30.609375 48.390625 
z
M 30.609375 56 
Q 42.328125 56 49.015625 48.375 
Q 55.71875 40.765625 55.71875 27.296875 
Q 55.71875 13.875 49.015625 6.21875 
Q 42.328125 -1.421875 30.609375 -1.421875 
Q 18.84375 -1.421875 12.171875 6.21875 
Q 5.515625 13.875 5.515625 27.296875 
Q 5.515625 40.765625 12.171875 48.375 
Q 18.84375 56 30.609375 56 
z
" id="DejaVuSans-111"/>
     <path d="M 8.5 21.578125 
L 8.5 54.6875 
L 17.484375 54.6875 
L 17.484375 21.921875 
Q 17.484375 14.15625 20.5 10.265625 
Q 23.53125 6.390625 29.59375 6.390625 
Q 36.859375 6.390625 41.078125 11.03125 
Q 45.3125 15.671875 45.3125 23.6875 
L 45.3125 54.6875 
L 54.296875 54.6875 
L 54.296875 0 
L 45.3125 0 
L 45.3125 8.40625 
Q 42.046875 3.421875 37.71875 1 
Q 33.40625 -1.421875 27.6875 -1.421875 
Q 18.265625 -1.421875 13.375 4.4375 
Q 8.5 10.296875 8.5 21.578125 
z
M 31.109375 56 
z
" id="DejaVuSans-117"/>
    </defs>
    <g style="fill:#252627;" transform="translate(966.956563 23.237812)scale(0.14 -0.14)">
     <use xlink:href="#DejaVuSans-65"/>
     <use x="68.408203" xlink:href="#DejaVuSans-108"/>
     <use x="96.191406" xlink:href="#DejaVuSans-118"/>
     <use x="155.371094" xlink:href="#DejaVuSans-97"/>
     <use x="216.650391" xlink:href="#DejaVuSans-114"/>
     <use x="257.732422" xlink:href="#DejaVuSans-111"/>
     <use x="318.914062" xlink:href="#DejaVuSans-32"/>
     <use x="350.701172" xlink:href="#DejaVuSans-65"/>
     <use x="419.109375" xlink:href="#DejaVuSans-103"/>
     <use x="482.585938" xlink:href="#DejaVuSans-117"/>
     <use x="545.964844" xlink:href="#DejaVuSans-105"/>
     <use x="573.748047" xlink:href="#DejaVuSans-114"/>
     <use x="614.845703" xlink:href="#DejaVuSans-114"/>
     <use x="655.927734" xlink:href="#DejaVuSans-101"/>
    </g>
   </g>
   <g id="line2d_32">
    <path d="M 927.756562 38.887187 
L 955.756562 38.887187 
" style="fill:none;stroke:#ff7f0e;stroke-linecap:square;stroke-width:1.5;"/>
   </g>
   <g id="line2d_33"/>
   <g id="text_29">
    <!-- Hannah Ker -->
    <defs>
     <path d="M 9.8125 72.90625 
L 19.671875 72.90625 
L 19.671875 43.015625 
L 55.515625 43.015625 
L 55.515625 72.90625 
L 65.375 72.90625 
L 65.375 0 
L 55.515625 0 
L 55.515625 34.71875 
L 19.671875 34.71875 
L 19.671875 0 
L 9.8125 0 
z
" id="DejaVuSans-72"/>
     <path d="M 9.8125 72.90625 
L 19.671875 72.90625 
L 19.671875 42.09375 
L 52.390625 72.90625 
L 65.09375 72.90625 
L 28.90625 38.921875 
L 67.671875 0 
L 54.6875 0 
L 19.671875 35.109375 
L 19.671875 0 
L 9.8125 0 
z
" id="DejaVuSans-75"/>
    </defs>
    <g style="fill:#252627;" transform="translate(966.956563 43.787187)scale(0.14 -0.14)">
     <use xlink:href="#DejaVuSans-72"/>
     <use x="75.195312" xlink:href="#DejaVuSans-97"/>
     <use x="136.474609" xlink:href="#DejaVuSans-110"/>
     <use x="199.853516" xlink:href="#DejaVuSans-110"/>
     <use x="263.232422" xlink:href="#DejaVuSans-97"/>
     <use x="324.511719" xlink:href="#DejaVuSans-104"/>
     <use x="387.890625" xlink:href="#DejaVuSans-32"/>
     <use x="419.677734" xlink:href="#DejaVuSans-75"/>
     <use x="485.175781" xlink:href="#DejaVuSans-101"/>
     <use x="546.699219" xlink:href="#DejaVuSans-114"/>
    </g>
   </g>
  </g>
 </g>
 <defs>
  <clipPath id="p5795a857f6">
   <rect height="153" width="1014.125" x="45.875" y="36"/>
  </clipPath>
  <clipPath id="p19909ac412">
   <rect height="153" width="1014.125" x="45.875" y="242"/>
  </clipPath>
 </defs>
</svg>
